<svg xmlns="http://www.w3.org/2000/svg" width="18" height="18" viewBox="0 0 18 18">
    <path d="M13.6 9.441a.522.522 0 0 1 .547.091.762.762 0 0 1 .253.583v3.567c0 .303-.161.572-.401.672l-3.601 1.513a3.582 3.582 0 0 1-2.795 0l-3.601-1.513c-.24-.1-.4-.37-.401-.672v-3.567c0-.232.094-.449.253-.583a.522.522 0 0 1 .546-.09l4.397 1.854a.51.51 0 0 0 .4 0zM8.78 1.92c.142-.06.3-.06.443 0l8.402 3.51c.228.096.38.335.375.599a.63.63 0 0 1-.402.584l-8.401 3.12a.546.546 0 0 1-.399 0L2.6 7.43a68.012 68.012 0 0 1-.8-.308v4.958c0 .523-.403.947-.9.947s-.9-.424-.9-.947V6.03a.633.633 0 0 1 .378-.6z"/>
</svg>
