<svg style="position: absolute; width: 0; height: 0; overflow: hidden;" class="fvp-icon" xmlns="http://www.w3.org/2000/svg">
  <defs>
<g id="fvp-playlist">
	<path class="svg-color" d="M4.972,44.723C2.984,42.668,2,40.282,2,37.543v-35.9h14.36v31.792h37.345V18.057l24.629,22.574 
		L53.704,63.19V47.813H12.26C9.388,47.813,6.95,46.778,4.972,44.723z"/>
</g>
<g id="fvp-playlist-play"><title id=“fvp-all“>Play All</title>
	<rect class="svg-color" x="23.586" y="3.15" width="61.164" height="10.187"/>
	<rect class="svg-color" x="23.586" y="43.934" width="61.164" height="10.186"/>
	<rect class="svg-color" x="43.158" y="23.544" width="41.592" height="10.184"/>
	<polygon class="svg-color" points="2.5,9.351 2.5,47.919 33.858,28.698 	"/>
</g>
<g id="fvp-replay-list"><title id=“fvp-rp“>Replay Playlist</title>
	<path class="svg-color" d="M48.928,50.465h27.599l-1.523,26.074l-8.122-8.305c-3.784,3.645-8.062,6.352-12.861,8.121
		c-4.784,1.769-9.63,2.646-14.553,2.646c-4.907,0-9.737-0.938-14.46-2.83c-4.722-1.893-8.984-4.724-12.752-8.506
		c-3.277-3.278-5.8-6.847-7.569-10.677c-1.753-3.847-2.892-7.846-3.4-12.015l9.646-0.369c1,6.291,3.768,11.722,8.307,16.245
		c2.784,2.783,5.922,4.891,9.46,6.338c3.523,1.446,7.123,2.169,10.769,2.169c3.661,0,7.245-0.662,10.783-1.985
		c3.523-1.322,6.739-3.308,9.63-5.952L48.928,50.465z M4.87,3.961l8.137,8.307c3.907-3.646,8.215-6.353,12.953-8.122
		C30.683,2.377,35.498,1.5,40.421,1.5c4.906,0,9.723,0.938,14.459,2.831c4.725,1.893,8.97,4.738,12.754,8.507
		c3.277,3.154,5.8,6.692,7.568,10.583c1.755,3.908,2.954,7.938,3.586,12.107l-9.831,0.184c-1-6.168-3.785-11.522-8.323-16.06
		c-2.769-2.77-5.921-4.893-9.444-6.338s-7.124-2.169-10.769-2.169c-3.661,0-7.245,0.662-10.784,1.985
		c-3.522,1.322-6.738,3.307-9.645,5.953L30.96,29.851L3.362,30.036L4.87,3.961z"/>
</g>
<g id="fvp-replay-track"><title id=“fvp-rt“>Replay Track</title>
	<path class="svg-color"d="M35.069,1.699c4.643,0,9.001,0.852,13.09,2.568c4.082,1.703,7.651,4.042,10.686,7.015
		c3.034,2.987,5.468,6.475,7.285,10.502c1.825,4.015,2.791,8.286,2.906,12.8h10.131l-15.18,17.113L48.774,34.585H60.73
		c-0.115-3.433-0.858-6.637-2.251-9.624c-1.386-3.001-3.251-5.596-5.582-7.813c-2.332-2.217-5.028-3.96-8.083-5.231
		s-6.306-1.906-9.746-1.906c-3.555,0-6.86,0.662-9.915,1.987c-3.055,1.325-5.751,3.163-8.083,5.488
		c-2.332,2.325-4.164,5.028-5.501,8.137c-1.332,3.095-1.994,6.42-1.994,9.962c0,3.541,0.662,6.84,1.994,9.881
		c1.325,3.055,3.149,5.73,5.481,8.056c2.325,2.325,5.008,4.149,8.049,5.488c3.048,1.324,6.339,1.986,9.887,1.986
		c5.751,0,10.793-1.662,15.112-4.987l5.812,6.312c-2.879,2.217-6.089,3.987-9.631,5.325c-3.548,1.325-7.305,1.987-11.293,1.987
		c-4.649,0-9.029-0.879-13.125-2.649s-7.684-4.19-10.766-7.285c-3.075-3.096-5.488-6.719-7.225-10.854
		C2.135,44.696,1.27,40.303,1.27,35.667c0-4.744,0.878-9.165,2.649-13.247c1.764-4.095,4.197-7.677,7.292-10.773
		c3.089-3.095,6.677-5.528,10.766-7.299C26.066,2.591,30.426,1.699,35.069,1.699z"/>
</g>
<g id="fvp-shuffle"><title id=“fvp-sp“>Shuffle Playlist</title>
	<path class="svg-color" d="M60.216,22.676c-2.176,0-4.198,0.417-6.064,1.24c-1.858,0.835-3.624,1.973-5.28,3.427
		c-1.656,1.455-3.263,3.137-4.818,5.046c-1.557,1.923-3.105,3.908-4.661,5.982c-1.764,2.39-3.629,4.742-5.596,7.07
		c-1.967,2.34-4.142,4.489-6.526,6.45c-2.384,1.973-5.002,3.554-7.848,4.743c-2.852,1.188-6.09,1.782-9.713,1.782H1.626V47.542
		h8.082c2.277,0,4.351-0.405,6.216-1.24c1.866-0.835,3.624-1.974,5.28-3.415c1.657-1.454,3.263-3.136,4.819-5.059
		c1.556-1.91,3.111-3.908,4.667-5.982c1.758-2.378,3.624-4.769,5.59-7.146c1.967-2.39,4.123-4.527,6.45-6.45
		c2.333-1.922,4.921-3.465,7.772-4.667c2.846-1.188,6.083-1.783,9.713-1.783h2.795V2.478l16.322,13.988L63.011,30.442v-7.766H60.216
		z M22.608,29.518c-1.765-1.872-3.68-3.339-5.754-4.426c-2.074-1.088-4.452-1.631-7.146-1.631H1.626v-10.89h8.082
		c4.244,0,7.949,0.809,11.111,2.415c3.162,1.607,6.033,3.605,8.625,5.982c-0.936,1.037-1.79,2.075-2.567,3.111
		c-0.772,1.037-1.581,2.011-2.41,2.947c-0.31,0.518-0.62,0.961-0.929,1.328C23.228,28.709,22.918,29.101,22.608,29.518z
		 M63.011,40.547l16.322,13.987L63.011,68.523v-9.321h-2.795c-4.351,0-8.132-0.859-11.345-2.566
		c-3.213-1.708-6.166-3.858-8.859-6.451c1.037-1.239,2.023-2.454,2.953-3.655c0.93-1.188,1.809-2.353,2.644-3.491
		c0.202-0.201,0.386-0.442,0.544-0.695c0.151-0.265,0.335-0.543,0.544-0.859c1.967,2.074,4.04,3.73,6.216,4.97
		c2.176,1.24,4.61,1.872,7.304,1.872h2.795V40.547z"/>
</g>
<g id="fvp-nopicture"><title id=“fvp-hidepic”>Hide picture</title>
	<path class="svg-color" fill-rule="evenodd" clip-rule="evenodd" d="M84.069,8.698c-1.358-1.945-19.374-7.091-39.067-7.091
	c-19.51,0-36.575,5.161-38.318,7.091S1.671,22.833,1.671,39.893c0,17.241,2.881,29.125,5.013,31.285s18.989,7.215,38.59,7.215
	c19.602,0,36.903-5.125,38.794-7.215s4.696-14.089,4.696-31.238C88.766,22.786,85.428,10.644,84.069,8.698z M67.653,58.217
	l-4.216,4.22l-18.219-18.22L27.001,62.436l-4.217-4.219L41.003,40L22.784,21.781l4.217-4.217l18.218,18.218l18.219-18.218
	l4.216,4.217L49.437,40L67.653,58.217z"/>
</g>
  </defs>
</svg>
