<?xml version="1.0" encoding="iso-8859-1"?>
<!-- Generator: Adobe Illustrator 16.0.0, SVG Export Plug-In . SVG Version: 6.00 Build 0)  -->
<!DOCTYPE svg PUBLIC "-//W3C//DTD SVG 1.1//EN" "http://www.w3.org/Graphics/SVG/1.1/DTD/svg11.dtd">
<svg version="1.1" id="Capa_1" xmlns="http://www.w3.org/2000/svg" xmlns:xlink="http://www.w3.org/1999/xlink" x="0px" y="0px"
	 width="94.073px" height="94.072px" viewBox="0 0 94.073 94.072" style="enable-background:new 0 0 94.073 94.072;"
	 xml:space="preserve">
<g>
	<g>
		<path d="M91.465,5.491c-0.748-0.311-1.609-0.139-2.18,0.434l-8.316,8.316C72.046,5.057,60.125,0,47.399,0
			c-2.692,0-5.407,0.235-8.068,0.697C21.218,3.845,6.542,17.405,1.944,35.244c-0.155,0.599-0.023,1.235,0.355,1.724
			c0.379,0.489,0.962,0.775,1.581,0.775h12.738c0.839,0,1.59-0.524,1.878-1.313c3.729-10.193,12.992-17.971,23.598-19.814
			c1.747-0.303,3.525-0.456,5.288-0.456c8.428,0,16.299,3.374,22.168,9.5l-8.445,8.444c-0.571,0.572-0.742,1.432-0.434,2.179
			c0.311,0.748,1.039,1.235,1.848,1.235h28.181c1.104,0,2-0.896,2-2V7.338C92.7,6.53,92.211,5.801,91.465,5.491z"/>
		<path d="M90.192,56.328H77.455c-0.839,0-1.59,0.523-1.878,1.312c-3.729,10.193-12.992,17.972-23.598,19.814
			c-1.748,0.303-3.525,0.456-5.288,0.456c-8.428,0-16.3-3.374-22.168-9.5l8.444-8.444c0.572-0.572,0.743-1.432,0.434-2.179
			c-0.31-0.748-1.039-1.235-1.848-1.235H3.374c-1.104,0-2,0.896-2,2v28.181c0,0.809,0.487,1.538,1.235,1.848
			c0.746,0.31,1.607,0.138,2.179-0.435l8.316-8.315c8.922,9.183,20.843,14.241,33.569,14.241c2.693,0,5.408-0.235,8.069-0.697
			c18.112-3.146,32.789-16.708,37.387-34.547c0.155-0.6,0.023-1.234-0.354-1.725C91.395,56.615,90.811,56.328,90.192,56.328z"/>
	</g>
</g>
<g>
</g>
<g>
</g>
<g>
</g>
<g>
</g>
<g>
</g>
<g>
</g>
<g>
</g>
<g>
</g>
<g>
</g>
<g>
</g>
<g>
</g>
<g>
</g>
<g>
</g>
<g>
</g>
<g>
</g>
</svg>
