<svg xmlns="http://www.w3.org/2000/svg" width="160" height="160" viewBox="0 0 160 160">
    <g fill="none" fill-rule="evenodd">
        <g stroke="#94B2C1" stroke-linecap="round" stroke-linejoin="round" stroke-width="2">
            <path d="M67 83h24l10.66 1.82a3.46 3.46 0 012.34 3.26v24.02c0 16.7-25 25.9-25 25.9s-25-9.2-25-25.9V88.08c0-1.46.94-2.77 2.34-3.26L67 83z"/>
            <path d="M67 83h24l10.66 1.82a3.46 3.46 0 012.34 3.26v24.02c0 16.7-25 25.9-25 25.9s-25-9.2-25-25.9V88.08c0-1.46.94-2.77 2.34-3.26L67 83z"/>
            <path d="M85 99.19c0-3.42-2.69-6.19-6-6.19s-6 2.77-6 6.19V102h3.27v-2.81c0-1.56 1.22-2.81 2.73-2.81s2.73 1.26 2.73 2.8V102H85v-2.81zM86.62 118H71.39c-.77 0-1.39-.56-1.39-1.25v-13.5c0-.69.62-1.25 1.39-1.25h15.23c.76 0 1.38.56 1.38 1.25v13.5c0 .69-.62 1.25-1.38 1.25z"/>
            <path d="M82 108a3 3 0 10-6 0c0 .88.39 1.67 1 2.22V113a2 2 0 004 0v-2.78c.61-.55 1-1.34 1-2.22z"/>
        </g>
        <path stroke="#94B2C1" stroke-linecap="round" stroke-linejoin="round" stroke-width="2"
              d="M129.14 29.21c-.2.38-.18.83.03 1.2.2.37.58.59.98.59h9.7c.4 0 .78-.23.99-.6.2-.36.22-.81.02-1.19l-4.84-9.57c-.2-.4-.6-.64-1.02-.64-.43 0-.82.25-1.02.64l-4.84 9.57zM145 74c0-2.84-3.16-6-6-6 2.84 0 6-3.16 6-6 0 2.84 3.16 6 6 6-2.84 0-6 3.16-6 6z"/>
        <path stroke="#94B2C1" stroke-linejoin="round" stroke-width="2"
              d="M40.5 38v-1.75c0-1.06-.87-1.92-1.94-1.92h-1.62A1.93 1.93 0 0135 32.42v-1.59c0-1.05-.87-1.91-1.94-1.91h-1.61A1.93 1.93 0 0129.5 27v-1.58c0-1.06-.87-1.92-1.94-1.92h-1.61A1.93 1.93 0 0124 21.6V20"/>
        <path fill="#94B2C1"
              d="M78 26a1 1 0 011 1v2h2a1 1 0 010 2h-2v2a1 1 0 01-2 0v-2h-2a1 1 0 010-2h2v-2a1 1 0 011-1zm23.7 15.3l1.42 1.4 1.42-1.4a1 1 0 011.41 1.4l-1.42 1.42 1.42 1.42a1 1 0 01-1.41 1.41l-1.42-1.42-1.41 1.42a1 1 0 01-1.42-1.41l1.42-1.42-1.42-1.41a1 1 0 011.42-1.42zm-87 16l1.42 1.4 1.42-1.4a1 1 0 111.41 1.4l-1.42 1.42 1.42 1.42a1 1 0 01-1.41 1.41l-1.42-1.42-1.41 1.42a1 1 0 11-1.42-1.41l1.42-1.42-1.42-1.41a1 1 0 011.42-1.42z"/>
        <g transform="translate(39 54)">
            <path stroke="#94B2C1" stroke-linecap="round" stroke-linejoin="round" stroke-width="2"
                  d="M58.92 14H21.08L19 26.53c-.15 1.32.94 2.47 2.34 2.47h37.3c1.4 0 2.5-1.15 2.33-2.47L58.92 14z"/>
            <rect width="80" height="8" y="6" stroke="#94B2C1" stroke-linecap="round" stroke-linejoin="round"
                  stroke-width="2" rx="4"/>
            <path stroke="#94B2C1" stroke-linecap="round" stroke-linejoin="round" stroke-width="2"
                  d="M46 4.5C46 2.02 43.31 0 40 0s-6 2.02-6 4.5V6h12V4.5zM78 28a3 3 0 11-6 0 3 3 0 016 0z"/>
            <path stroke="#94B2C1" stroke-linecap="round" stroke-linejoin="round" stroke-width="2"
                  d="M78 34.43c0-1.9-1.34-3.43-3-3.43s-3 1.53-3 3.43v8L78 47V34.43z"/>
            <path fill="#94B2C1" d="M74 14h2v11h-2z"/>
        </g>
    </g>
</svg>
