<svg xmlns="http://www.w3.org/2000/svg" width="168" height="34">
    <path fill="#FFF"
          d="M168 15.1v3.58c-.41-.06-.82-.09-1.2-.09-2.84 0-4.14 1.58-4.14 4.35V30H159V15h3.57v2.56c.72-1.62 2.43-2.56 4.45-2.56.44 0 .82.06.98.1zm-14.24 9.53l2.85.9c-.76 2.47-3 4.47-6.39 4.47-3.83 0-7.22-2.79-7.22-7.57 0-4.47 3.3-7.43 6.88-7.43 4.35 0 6.9 2.87 6.9 7.34 0 .55-.06 1.02-.09 1.07h-10.32a3.78 3.78 0 0 0 3.85 3.69c2.04 0 3.08-1.07 3.54-2.47zm-7.3-3.55h7c-.07-1.72-1.18-3.27-3.52-3.27a3.47 3.47 0 0 0-3.49 3.27zM140.84 8v22h-3.38v-2.24c-.7 1.22-2.25 2.24-4.35 2.24-4.26 0-7.12-3.29-7.12-7.68 0-4.19 2.83-7.32 7-7.32 2.59 0 3.95.86 4.41 1.79V8h3.44zM129 22.46c0 2.72 1.72 4.54 4.33 4.54 2.52 0 4.27-1.85 4.27-4.57 0-2.73-1.72-4.43-4.23-4.43-2.52 0-4.37 1.73-4.37 4.46zM123.5 30H120V15h3.5v15zm-4-19.74A2.26 2.26 0 0 1 121.74 8a2.26 2.26 0 0 1 2.26 2.26 2.24 2.24 0 0 1-2.26 2.24 2.23 2.23 0 0 1-2.24-2.24zm-3 19.74H113V8h3.5v22zm-9.33-16.4c-.49-1.18-1.7-2.44-4.07-2.44-2.23 0-3.78 1.42-3.78 3.03 0 1.34.87 2.35 2.57 2.71l3.16.63c3.87.74 5.95 3.1 5.95 6.07 0 3.27-2.76 6.4-7.78 6.4-4.81 0-7.39-2.58-8.22-5.24l3.41-1.2c.56 1.78 2.15 3.22 4.81 3.22 2.64 0 4-1.28 4-2.91 0-1.37-1.05-2.47-2.94-2.86l-3.1-.63c-3.35-.65-5.58-2.76-5.58-5.92 0-3.54 3.38-6.46 7.47-6.46 4.5 0 6.6 2.3 7.4 4.44l-3.3 1.15zM84.67 11v4.41h3.3v3.05h-3.3v6.69c0 1.27.63 1.8 2.03 1.8.52 0 1.14-.09 1.3-.12v2.84c-.23.1-.94.33-2.31.33-2.93 0-4.76-1.6-4.76-4.3v-7.24H78V15.4h.81c1.7 0 2.45-.98 2.45-2.25V11h3.42zM76 15.1v3.58c-.41-.06-.82-.09-1.2-.09-2.84 0-4.14 1.58-4.14 4.35V30H67V15h3.57v2.5c.72-1.61 2.43-2.5 4.45-2.5.44 0 .82.06.98.1zM63.85 15c-.02 9.84-.02 14.84 0 15h-3.38v-2.24c-.7 1.22-2.25 2.24-4.35 2.24-4.26 0-7.12-3.29-7.12-7.68 0-4.19 2.83-7.32 7-7.32a4.8 4.8 0 0 1 4.41 2.5V15h3.44zM52 22.46c0 2.72 1.72 4.54 4.33 4.54 2.52 0 4.27-1.85 4.27-4.57 0-2.73-1.72-4.43-4.23-4.43-2.52 0-4.37 1.73-4.37 4.46zM28.46 30H25V15h3.34v2.5a5.22 5.22 0 0 1 4.33-2.5c1.93 0 3.62.8 4.4 2.5 1.14-1.92 2.86-2.5 4.75-2.5 2.65 0 5.18 1.68 5.18 5.54V30h-3.37v-8.9c0-1.7-.87-2.99-2.83-2.99-1.84 0-3.04 1.44-3.04 3.24V30h-3.43v-8.9c0-1.67-.84-2.99-2.83-2.99-1.87 0-3.04 1.38-3.04 3.24V30zm-9.29-16.4c-.49-1.18-1.7-2.44-4.07-2.44-2.23 0-3.78 1.42-3.78 3.03 0 1.34.87 2.35 2.57 2.71l3.16.63c3.87.74 5.95 3.1 5.95 6.07 0 3.27-2.76 6.4-7.78 6.4-4.81 0-7.39-2.58-8.22-5.24l3.41-1.2c.56 1.78 2.15 3.22 4.81 3.22 2.64 0 4-1.28 4-2.91 0-1.37-1.05-2.47-2.94-2.86l-3.1-.63c-3.35-.65-5.58-2.76-5.58-5.92C7.6 10.92 10.98 8 15.07 8c4.5 0 6.6 2.3 7.4 4.44l-3.3 1.15zM4 11.9V18c.67 1.33 1 2.33 1 3 0 1-1 2-2 2s-2-1-2-2c0-.67.33-1.67 1-3v-6.3l2 .2zM.48 8.31C.88 8.04 11.28.67 11.84.34c.5-.3.9-.5 1.9-.18.63.2 13.2 3.87 13.75 4 .59.15 1.05.91.38 1.26-.7.36-4.3 2.12-5.86 2.79-3.64-3.05-11.36-3.38-15.04 2.06C5.3 10.1.73 9.55.48 9.51c-.64-.1-.64-.75 0-1.2z"/>
</svg>