<svg xmlns="http://www.w3.org/2000/svg" xmlns:xlink="http://www.w3.org/1999/xlink" viewBox="0 0 140 26.54"><defs><style>.cls-1{isolation:isolate;}.cls-2{fill:#252525;}.cls-3{fill:url(#linear-gradient);}.cls-4{fill:url(#linear-gradient-2);}.cls-5{opacity:0.2;mix-blend-mode:multiply;}.cls-6{fill:#fff;}</style><linearGradient id="linear-gradient" x1="5.26" y1="18.67" x2="19.06" y2="-0.66" gradientUnits="userSpaceOnUse"><stop offset="0" stop-color="#f8003c"/><stop offset="1" stop-color="#ff8438"/></linearGradient><linearGradient id="linear-gradient-2" x1="0.58" y1="24.88" x2="22.35" y2="15.93" gradientUnits="userSpaceOnUse"><stop offset="0.16" stop-color="#0099ac"/><stop offset="1" stop-color="#00d5c9"/></linearGradient></defs><g class="cls-1"><g id="Layer_2" data-name="Layer 2"><g id="Layer_1-2" data-name="Layer 1"><polygon class="cls-2" points="50.22 3.74 44.54 17.97 38.76 3.74 34.48 3.74 34.48 22.64 37.81 22.64 37.81 9.84 43.03 22.64 45.86 22.64 51.08 9.84 51.08 22.64 54.41 22.64 54.41 3.74 50.22 3.74"/><path class="cls-2" d="M69.35,11.69a6,6,0,0,0-2.43-2.32,7.49,7.49,0,0,0-3.54-.82,7,7,0,0,0-3.52.89A6.18,6.18,0,0,0,57.46,12a7.89,7.89,0,0,0-.86,3.75,7.61,7.61,0,0,0,.89,3.72A6.08,6.08,0,0,0,60,21.91a7.74,7.74,0,0,0,3.78.89A6.43,6.43,0,0,0,68,21.43,5.64,5.64,0,0,0,70,17.93l0-.23H66.82l0,.15a2.77,2.77,0,0,1-1.11,1.64,3.61,3.61,0,0,1-2.1.58,3.37,3.37,0,0,1-2.53-1,4,4,0,0,1-1-2.62H70.16l0-.17a7.11,7.11,0,0,0,.09-1.11A7,7,0,0,0,69.35,11.69ZM60.12,14a3.08,3.08,0,0,1,1.08-1.94,3.43,3.43,0,0,1,2.29-.81,3.58,3.58,0,0,1,2.37.78,3.27,3.27,0,0,1,1.07,2Z"/><path class="cls-2" d="M77.41,19.73a1.29,1.29,0,0,1-.94-.27,1.44,1.44,0,0,1-.26-1V11.62h3.25V8.71H76.21V4.93L72.93,6V8.71H71.64l-1.06,2.91h2.35v7.15a4,4,0,0,0,.95,2.91,4,4,0,0,0,3,1h3V19.73Z"/><polygon class="cls-2" points="93.41 6.83 93.41 3.74 81.2 3.74 81.2 22.64 84.64 22.64 84.64 14.82 91.88 14.82 91.88 11.8 84.64 11.8 84.64 6.83 93.41 6.83"/><path class="cls-2" d="M106.88,12a6.34,6.34,0,0,0-2.51-2.52,8.08,8.08,0,0,0-7.41,0A6.4,6.4,0,0,0,94.45,12a7.72,7.72,0,0,0-.88,3.7,7.73,7.73,0,0,0,.88,3.73A6.19,6.19,0,0,0,97,21.91a8.16,8.16,0,0,0,7.41,0,6.19,6.19,0,0,0,2.51-2.51,7.73,7.73,0,0,0,.88-3.73A7.72,7.72,0,0,0,106.88,12Zm-6.21,8a3.39,3.39,0,0,1-2.73-1.19,4.58,4.58,0,0,1-1-3.11,4.57,4.57,0,0,1,1-3.1,3.39,3.39,0,0,1,2.73-1.19,3.44,3.44,0,0,1,2.74,1.19,4.53,4.53,0,0,1,1,3.1,4.54,4.54,0,0,1-1,3.11A3.44,3.44,0,0,1,100.67,20Z"/><path class="cls-2" d="M116.71,8.71a5.13,5.13,0,0,0-2.59.57,4.38,4.38,0,0,0-1.29,1.14l-.26-1.71-2.91,1.06V22.64h3.25v-7a4.88,4.88,0,0,1,.76-2.81,2.68,2.68,0,0,1,2.4-1.06h1.47V8.71Z"/><path class="cls-2" d="M138.54,10.05a5,5,0,0,0-3.76-1.5,5.87,5.87,0,0,0-2.9.68,5.33,5.33,0,0,0-1.76,1.58,4,4,0,0,0-1.58-1.62,5.28,5.28,0,0,0-2.61-.64,5,5,0,0,0-3.85,1.67l-.27-1.51L119,9.77V22.64h3.25V15.2a4.38,4.38,0,0,1,.82-2.78,2.58,2.58,0,0,1,2.16-1,2.35,2.35,0,0,1,2,.83,4.15,4.15,0,0,1,.68,2.59v7.81h3.28V15.12a4.2,4.2,0,0,1,.81-2.74,2.65,2.65,0,0,1,2.19-1,2.3,2.3,0,0,1,2,.84,4.25,4.25,0,0,1,.67,2.58v7.81H140V14.8A6.64,6.64,0,0,0,138.54,10.05Z"/><path class="cls-3" d="M28.89,9.76l-6,.48V2.74A2.74,2.74,0,0,0,20.15,0H2.74A2.74,2.74,0,0,0,0,2.74V15.19L7.77,20Z"/><path class="cls-4" d="M7.81,25.19,0,15.19V23.8a2.74,2.74,0,0,0,2.74,2.74H20.15a2.74,2.74,0,0,0,2.74-2.74V17.09l6-7.26Z"/><g class="cls-5"><rect x="8.82" y="4.57" width="9.39" height="1.29"/><circle cx="5.86" cy="5.22" r="1.18"/><rect x="8.82" y="9.18" width="9.39" height="1.29"/><circle cx="5.86" cy="9.83" r="1.18"/><rect x="8.82" y="13.79" width="6.5" height="1.29"/><circle cx="5.86" cy="14.44" r="1.18"/></g><rect class="cls-6" x="8.82" y="3.26" width="9.39" height="1.29"/><circle class="cls-6" cx="5.86" cy="3.9" r="1.18"/><rect class="cls-6" x="8.82" y="7.87" width="9.39" height="1.29"/><circle class="cls-6" cx="5.86" cy="8.52" r="1.18"/><rect class="cls-6" x="8.82" y="12.48" width="6.5" height="1.29"/><circle class="cls-6" cx="5.86" cy="13.13" r="1.18"/></g></g></g></svg>