<?xml version="1.0" encoding="UTF-8"?>
<svg xmlns="http://www.w3.org/2000/svg" xmlns:xlink="http://www.w3.org/1999/xlink" width="24px" height="24px" viewBox="0 0 24 24" version="1.1">
<g id="surface1">
<path style=" stroke:none;fill-rule:nonzero;fill:rgb(0%,0%,0%);fill-opacity:1;" d="M 0 4.5 C 0 2.84375 1.34375 1.5 3 1.5 L 21 1.5 C 22.65625 1.5 24 2.84375 24 4.5 L 24 19.5 C 24 21.15625 22.65625 22.5 21 22.5 L 3 22.5 C 1.34375 22.5 0 21.15625 0 19.5 Z M 3 4.5 L 3 7.5 L 6 7.5 L 6 4.5 Z M 21 4.5 L 9 4.5 L 9 7.5 L 21 7.5 Z M 3 10.5 L 3 13.5 L 6 13.5 L 6 10.5 Z M 21 10.5 L 9 10.5 L 9 13.5 L 21 13.5 Z M 3 16.5 L 3 19.5 L 6 19.5 L 6 16.5 Z M 21 16.5 L 9 16.5 L 9 19.5 L 21 19.5 Z M 21 16.5 "/>
</g>
</svg>
