<svg xmlns="http://www.w3.org/2000/svg" width="300.08" height="278.008" viewBox="0 0 300.08 278.008">
  <g id="ekit_icon-2" transform="translate(0 0.005)">
    <path id="Path_1" data-name="Path 1" d="M249.9,4.6A12.955,12.955,0,0,1,259.4,0a13.266,13.266,0,0,1,9.8,3.9l25,25.7a12.909,12.909,0,0,1,.6,17.4l-65.2,77.4a20.565,20.565,0,0,0-.1,26.5l67.6,81.2a13.068,13.068,0,0,1-.9,17.6l-24.4,24.1c-2.3,2.2-6.7,4.3-9.8,4.2h-.3a12.786,12.786,0,0,1-9.3-4.5L164,166.8a45.548,45.548,0,0,1,0-58Z" fill="#fff"/>
    <path id="Path_2" data-name="Path 2" d="M155.3,270.9H10.4A10.392,10.392,0,0,1,0,260.5v-37a10.392,10.392,0,0,1,10.4-10.4H155.3a10.392,10.392,0,0,1,10.4,10.4v37A10.328,10.328,0,0,1,155.3,270.9Z" fill="#fff"/>
    <path id="Path_3" data-name="Path 3" d="M155.3,64.9H10.4A10.478,10.478,0,0,1,0,54.4v-37A10.457,10.457,0,0,1,10.4,7H155.3a10.392,10.392,0,0,1,10.4,10.4v37A10.351,10.351,0,0,1,155.3,64.9Z" fill="#fff"/>
    <path id="Path_4" data-name="Path 4" d="M98.1,167.9H10.4A10.392,10.392,0,0,1,0,157.5v-37a10.392,10.392,0,0,1,10.4-10.4H98.1a10.392,10.392,0,0,1,10.4,10.4v37A10.329,10.329,0,0,1,98.1,167.9Z" fill="#fff"/>
  </g>
</svg>
