<svg xmlns="http://www.w3.org/2000/svg" viewBox="0 0 1372.8 400"><path fill="#F2295B" d="M359.5 6.7c3.4-4 8.4-6.5 13.6-6.7 5.3-.2 10.4 1.9 14.1 5.7l35.9 36.9c6.7 6.9 7.1 17.7.9 25.1L330.2 179c-9.3 11-9.3 27.1-.1 38.2L427.4 334c6.2 7.4 5.6 18.5-1.3 25.3l-35.2 34.6c-3.2 3.2-9.6 6.1-14.2 6.1h-.4c-5.2-.2-10-2.6-13.4-6.5L236 239.9c-20-24.2-20-59.2-.1-83.4L359.5 6.7zm-136 383.1H15c-8.3 0-15-6.7-15-15v-53.2c0-8.3 6.7-15 15-15h208.5c8.3 0 15 6.7 15 15v53.2c0 8.2-6.7 15-15 15zm0-296.5H15c-8.3 0-15-6.7-15-15V25.1c0-8.3 6.7-15 15-15h208.5c8.3 0 15 6.7 15 15v53.2c0 8.3-6.7 15-15 15zm-82.3 148.2H15c-8.3 0-15-6.7-15-15v-53.2c0-8.3 6.7-15 15-15h126.2c8.3 0 15 6.7 15 15v53.2c0 8.3-6.7 15-15 15zm432.6-137.1V75.5h-49.2l14.5 29 34.7-.1z"/><path fill="#F2295B" d="M592.3 140.7H519l.2-104h73.3l-.2-26H487.8v155.9h104.4v-25.9zm44-130H607l-.2 155.9h29.6V10.7zm109.6 59.7c-5.2-5.2-11.3-9.3-18.3-12.4-7-3-14.4-4.6-22.3-4.6-8 0-15.5 1.5-22.6 4.6-7.1 3-13.2 7.2-18.4 12.4-5.2 5.2-9.3 11.3-12.4 18.3-3 7-4.6 14.5-4.6 22.5 0 7.9 1.5 15.3 4.6 22.3 3 7 7.2 13.1 12.4 18.3 5.2 5.2 11.3 9.3 18.4 12.3 7 3 14.6 4.5 22.6 4.5 9.2 0 17.9-2.1 26.2-6.3 8.2-4.2 15-10 20.4-17.5l.4-.4-25.8-11.4-.4-.2-.2.2c-3 3.9-6.1 6.4-9.5 7.5s-7 1.7-11 1.7c-4.5 0-8.5-1-12-3-3.6-2-6.6-4.5-9.1-7.4-2.5-2.9-4.5-6.3-5.8-9.9-1.3-3.6-2-7.1-2-10.5 0-4.4.7-8.5 2.2-12.3 1.5-3.8 3.5-7 6.1-9.8 2.6-2.7 5.7-4.9 9.2-6.5 3.6-1.6 7.3-2.4 11.3-2.4 6.5 0 12.2 2 17 6 4.8 4 8.3 9.1 10.3 15.4h-42.3l14.3 22.7h56.5l.2-.4c.9-4 1.3-8.2 1.3-12.5 0-8-1.5-15.5-4.6-22.5-2.8-7.5-6.9-13.5-12.1-18.7zm178.1-2c-3-4.5-6.9-8-11.7-10.8s-10.7-4.1-17.7-4.1c-5.8 0-11.3 1.4-16.6 4.2s-10 6.9-14.1 12.4c-.6.7-1.2 1.6-1.8 2.7-2.8-5.4-6.8-10-12-13.7-5.2-3.7-12-5.5-20.3-5.5-7.7 0-14.8 2.5-21.2 7.5 0 0-2.8 1.4-5.1 3v-8.7h-29.6v111.3h29.6V94.4c2.8-5.5 8-11.7 16.9-11.8 2.7 0 5.1.4 7.2 1.3 2.2.9 4 2.2 5.7 3.8 1.6 1.6 2.9 3.5 3.8 5.6.9 2.1 1.3 4.3 1.3 6.7v66.5H868V100c0-4.8 1.7-8.9 5.1-12.4s7.6-5.3 12.5-5.3c2.4 0 4.6.5 6.8 1.4 2.2 1 4 2.3 5.6 3.9 1.6 1.6 2.8 3.5 3.7 5.6s1.3 4.3 1.3 6.7l-.2 66.5h29.6v-66.3c0-5.6-.7-11.2-2-16.8-1.3-5.5-3.4-10.5-6.4-14.9zm118 2c-5.2-5.2-11.3-9.3-18.3-12.4-7-3-14.4-4.6-22.3-4.6-8 0-15.5 1.5-22.6 4.6-7.1 3-13.2 7.2-18.4 12.4-5.2 5.2-9.3 11.3-12.4 18.3-3 7-4.6 14.5-4.6 22.5 0 7.9 1.5 15.3 4.6 22.3 3 7 7.2 13.1 12.4 18.3 5.2 5.2 11.3 9.3 18.4 12.3 7 3 14.6 4.5 22.6 4.5 9.2 0 17.9-2.1 26.2-6.3 8.2-4.2 15-10 20.4-17.5l.4-.4-25.8-11.4-.4-.2-.2.2c-3 3.9-6.1 6.4-9.5 7.5s-7 1.7-11 1.7c-4.5 0-8.5-1-12-3-3.6-2-6.6-4.5-9.1-7.4-2.5-2.9-4.5-6.3-5.8-9.9-1.3-3.6-2-7.1-2-10.5 0-4.4.7-8.5 2.2-12.3 1.5-3.8 3.5-7 6.1-9.8 2.6-2.7 5.7-4.9 9.2-6.5 3.6-1.6 7.3-2.4 11.3-2.4 6.5 0 12.2 2 17 6 4.8 4 8.3 9.1 10.3 15.4h-42.3l14.3 22.7h56.5l.2-.4c.9-4 1.3-8.2 1.3-12.5 0-8-1.5-15.5-4.6-22.5-2.8-7.5-6.9-13.5-12.1-18.7zm28-15.2h30.3v111.3H1070V55.2zm102.9 12.9c-7.6-9.8-20.3-14.7-38.1-14.7-11.6 0-21.2 3.5-28.9 10.4l-.2.2 10.9 19.2.2.2v-.2c4.5-2.2 9.3-3.3 14.5-3.3 5.5 0 9.7.8 12.7 2.5 3 1.6 5.1 3.9 6.4 6.8 1.3 2.9 2.1 6.3 2.3 10 .2 3.8.3 7.8.3 11.9v55.4h30.3v-55.2c0-10.2-.8-18.8-2.4-25.8-1.6-7-4.3-12.8-8-17.4zm69.8 69.1c-2.4-2.4-3.7-5.3-3.7-8.7v-102h-29.6v40.3h-16v24.7h16v33.4c0 5.8 1.1 11.2 3.3 16.3 2.2 5.1 5.2 9.5 9 13.3 3.8 3.8 8.2 6.8 13.4 8.9 5.1 2.1 10.6 3.2 16.4 3.2h21.6v-25.8h-21.6c-3.4-.1-6.4-1.3-8.8-3.6z"/><path fill="#F2295B" d="M1256.6 91.5h16.5V66.8h-30.3l13.8 24.7zm113.7 28.6c-1.7-3.3-4.1-6.2-7.1-8.6s-6.6-4.4-10.7-6.1c-4.1-1.7-8.6-3.4-13.5-5-.4-.2-.9-.3-1.4-.4-.5-.1-1-.2-1.4-.2-2.2-.7-4.5-1.6-6.8-2.4-2.3-.9-4.4-1.8-6.2-2.8-1.9-1-3.4-2-4.6-3.1-1.2-1.1-1.8-2.3-1.8-3.7 0-1.8.4-3.2 1.1-4.1.7-1 1.7-1.7 2.8-2.3 1.1-.6 2.3-1 3.7-1.1 1.3-.2 2.5-.2 3.6-.2 5.6 0 11 1 16 3s9.3 4.7 12.7 8.1l.2.2 13.6-24.7v-.4c-6.2-4.2-13.1-7.3-20.3-9.5-7.3-2.2-14.5-3.2-21.6-3.2-6.1 0-11.7.8-16.7 2.5-5.1 1.7-9.3 4.1-12.9 7.2-3.6 3.1-6.3 6.8-8.2 11.1-1.9 4.3-2.9 9-2.9 14.2v.4c0 5.9 1.2 10.8 3.4 14.5 2.3 3.8 5.2 6.9 8.8 9.3 3.6 2.4 7.6 4.4 12 5.8 4.5 1.4 8.9 2.7 13.4 3.9.7.3 1.4.5 2.1.6.7.1 1.4.3 2.1.6 3.9 1.2 7.2 2.4 10 3.8 2.8 1.3 4.2 3.3 4.2 6 0 5.6-4.4 8.4-13.1 8.4-6.4 0-12.4-1.2-18-3.7s-10.7-6.1-15.1-10.8l-.2-.2-15.1 23.9-.2.2.2.2c7.1 5.4 14.8 9.5 22.9 12.5 8.2 2.9 16.5 4.4 24.9 4.4 13.5 0 24-3.2 31.5-9.6 7.5-6.4 11.3-15.2 11.3-26.5v-.3c-.2-4.6-1-8.5-2.7-11.9zm-850 181.6v-68.4h-32.5v155.9h32.5v-36.3l92.2-119.6h-39.9l-52.3 68.4z"/><path fill="#F2295B" d="M543.1 350.5l29.6 38.7h39.9l-56.8-73.7-12.7 35zm81.7-117.2h29.6v26h-29.6v-26zm0 44.6h29.6v111.3h-29.6V277.9zm90 81.9c-2.5-2.4-3.7-5.3-3.7-8.7v-102h-29.6v40.3h-16v24.7h16v33.4c0 5.8 1.1 11.2 3.3 16.3 2.2 5.1 5.2 9.5 9 13.3 3.8 3.8 8.2 6.8 13.4 8.9 5.1 2.1 10.6 3.2 16.4 3.2h21.6v-25.8h-21.6c-3.4 0-6.3-1.2-8.8-3.6z"/><path fill="#F2295B" d="M728.7 314.2h16.5v-24.7h-30.3l13.8 24.7z"/></svg>