<?xml version="1.0" encoding="utf-8"?>
<!-- Generator: Adobe Illustrator 23.0.0, SVG Export Plug-In . SVG Version: 6.00 Build 0)  -->
<svg version="1.1" id="Layer_1" xmlns="http://www.w3.org/2000/svg" xmlns:xlink="http://www.w3.org/1999/xlink" x="0px" y="0px"
	 viewBox="0 0 18 16.7" enable-background="new 0 0 18 16.7" xml:space="preserve">
<g>
	<path fill="#FFFFFF" d="M15,0.3C15.1,0.1,15.3,0,15.6,0c0.2,0,0.4,0.1,0.6,0.2l1.5,1.5c0.3,0.3,0.3,0.7,0,1l-3.9,4.6
		c-0.4,0.5-0.4,1.1,0,1.6l4.1,4.9c0.3,0.3,0.2,0.8,0,1.1l-1.5,1.4c-0.1,0.1-0.4,0.3-0.6,0.3h0c-0.2,0-0.4-0.1-0.6-0.3L9.8,10
		C9,9,9,7.5,9.8,6.5C9.8,6.5,15,0.3,15,0.3z M9.3,16.2H0.6C0.3,16.2,0,16,0,15.6v-2.2c0-0.3,0.3-0.6,0.6-0.6h8.7
		c0.3,0,0.6,0.3,0.6,0.6v2.2C9.9,16,9.7,16.2,9.3,16.2z M9.3,3.9H0.6C0.3,3.9,0,3.6,0,3.3V1c0-0.3,0.3-0.6,0.6-0.6h8.7
		c0.3,0,0.6,0.3,0.6,0.6v2.2C9.9,3.6,9.7,3.9,9.3,3.9z M5.9,10.1H0.6C0.3,10.1,0,9.8,0,9.4V7.2c0-0.3,0.3-0.6,0.6-0.6h5.3
		c0.3,0,0.6,0.3,0.6,0.6v2.2C6.5,9.8,6.2,10.1,5.9,10.1z"/>
</g>
</svg>
