<svg xmlns="http://www.w3.org/2000/svg" viewBox="0 0 150 139"><path fill="#ffffff" d="M124.9 2.3c1.2-1.4 2.9-2.2 4.7-2.3 1.8-.1 3.6.6 4.9 2L147 14.8c2.3 2.4 2.5 6.1.3 8.7l-32.6 38.7c-3.2 3.8-3.2 9.4 0 13.3l33.8 40.6c2.1 2.6 2 6.4-.4 8.8l-12.2 12c-1.1 1.1-3.3 2.1-4.9 2.1h-.1c-1.8-.1-3.5-.9-4.7-2.3L82 83.4c-7-8.4-7-20.6 0-29l42.9-52.1zM77.7 135.4H5.2c-2.9 0-5.2-2.3-5.2-5.2v-18.5c0-2.9 2.3-5.2 5.2-5.2h72.5c2.9 0 5.2 2.3 5.2 5.2v18.5c0 2.9-2.3 5.2-5.2 5.2zM77.7 32.4H5.2c-2.9 0-5.2-2.3-5.2-5.2V8.7c0-2.9 2.3-5.2 5.2-5.2h72.5c2.9 0 5.2 2.3 5.2 5.2v18.5c0 2.9-2.3 5.2-5.2 5.2zM49.1 83.9H5.2c-2.9 0-5.2-2.3-5.2-5.2V60.2C0 57.4 2.3 55 5.2 55h43.9c2.9 0 5.2 2.3 5.2 5.2v18.5c0 2.9-2.4 5.2-5.2 5.2z"/></svg>