<svg version="1.2" xmlns="http://www.w3.org/2000/svg" viewBox="0 0 616 616" width="616" height="616">
	<title>push-pin-svgrepo-com (1)-svg</title>
	<style>
		.s0 { fill: #000000;stroke: #000000;stroke-width: .4 } 
	</style>
	<g id="SVGRepo_bgCarrier">
	</g>
	<g id="SVGRepo_tracerCarrier">
	</g>
	<filter id="f0">
		<feFlood flood-color="#666666" flood-opacity="1" />
		<feBlend mode="normal" in2="SourceGraphic"/>
		<feComposite in2="SourceAlpha" operator="in" />
	</filter>
	<g id="SVGRepo_iconCarrier" filter="url(#f0)">
		<g id="Layer">
			<g id="Layer">
				<path id="Layer" fill-rule="evenodd" class="s0" d="m557.7 527.9c8.3 8.3 8.3 21.8 0 30.1-8.3 8.4-21.8 8.4-30.2 0l-110.8-110.8-110.9 110.8c-10.8 10.9-29.2 7.1-34.9-7.2-22.3-56-26.2-108.3-19.5-151.9q0.3-1.9 0.6-3.7l-115.5-135.7c-15.7 0.6-32.7-1.4-49.3-7.5-9.9-3.7-19-8.7-27.1-15.1-10-8-10.9-22.8-1.9-31.8l146.7-146.6c8.9-9 23.7-8.2 31.7 1.7 3.3 4.1 7.7 10.9 11.9 20.1 7.9 17.4 12.2 36.7 10.9 57.5l134.6 114.5q1.8-0.4 3.8-0.8c41.9-8.1 94.1-4.4 153.3 19.2 14.2 5.7 18 24 7.2 34.9l-111.5 111.4zm-163.1-118.9l109.3-109.3c-37.9-10.7-71-11.5-98-6.3-5.3 1-8.7 2-10 2.4-7.2 2.6-15.2 1.2-21.1-3.8l-151.7-129c-5.7-4.9-8.4-12.4-7.2-19.8 2-11.8 1.1-23.1-1.9-33.5l-104.6 104.6c10.3 2.6 21 3.1 30.5 2.2 1.4-0.1 2.2-0.2 2.4-0.2 7.3-1.2 14.8 1.5 19.6 7.2l129.4 152.1c4.6 5.4 6.2 12.7 4.3 19.5-0.4 1.5-1.2 5-2 10.3-4.4 28.5-3.3 61.9 6.5 98.1z"/>
			</g>
		</g>
	</g>
</svg>