<svg version="1.2" xmlns="http://www.w3.org/2000/svg" viewBox="0 0 448 512" width="15" height="17">
	<title>up-arrow-svg</title>
	<style>
		.s0 { fill: #ffffff } 
	</style>
	<path id="Layer" class="s0" d="m246.6 41.4c-12.5-12.5-32.8-12.5-45.3 0l-160 160c-12.5 12.5-12.5 32.8 0 45.3 12.5 12.5 32.8 12.5 45.3 0l137.4-137.4 137.4 137.3c12.5 12.5 32.8 12.5 45.3 0 12.5-12.5 12.5-32.8 0-45.3l-160-160zm160 352l-160-160c-12.5-12.5-32.8-12.5-45.3 0l-160 160c-12.5 12.5-12.5 32.8 0 45.3 12.5 12.5 32.8 12.5 45.3 0l137.4-137.4 137.4 137.3c12.5 12.5 32.8 12.5 45.3 0 12.5-12.5 12.5-32.8 0-45.3z"/>
</svg>