<svg xmlns="http://www.w3.org/2000/svg" width="18" height="19" viewBox="0 0 18 19">
    <path fill="#D6D9E3" fill-rule="evenodd" d="M8.575 0C3.94.226.229 4.163.01 9.085c-.219 4.922 3.126 9.212 7.72 9.902.317.05.64-.046.883-.267.243-.22.385-.543.387-.883v-.062c-.009-.59-.426-1.081-.976-1.152-3.45-.533-5.948-3.77-5.762-7.466.185-3.696 2.992-6.633 6.475-6.773m.42.123c3.318-.15 6.2 2.612 6.684 6.407.065.614.513 1.078 1.048 1.086h.057c.308-.002.6-.16.8-.43.2-.27.288-.628.242-.98C17.354 3.48 13.462-.234 9 .012"/>
</svg>
