<svg xmlns="http://www.w3.org/2000/svg" width="16" height="16" viewBox="0 0 16 16">
    <path fill="#F54586" fill-rule="evenodd" d="M4 1.474c.002.841.686 1.521 1.53 1.521L10.823 3l-5.63 5.633a1.503 1.503 0 0 0 .02 2.112c.584.58 1.526.588 2.12.017L13 5.188v5.296c0 .403.162.789.448 1.073.286.284.673.444 1.077.443a1.487 1.487 0 0 0 1.056-.45c.277-.285.427-.669.418-1.066V1.542a1.442 1.442 0 0 0-.467-1.046l.016-.017a1.465 1.465 0 0 0-1.055-.466L5.526.001A1.475 1.475 0 0 0 4 1.475zM.393 15.608a1.34 1.34 0 0 1 0-1.898l1.316-1.316a1.34 1.34 0 0 1 1.897-.001c.525.524.525 1.374.002 1.899l-1.316 1.316a1.343 1.343 0 0 1-1.899-.002v.002z"/>
</svg>
