<svg xmlns="http://www.w3.org/2000/svg" width="43" height="21" viewBox="0 0 43 21">
    <path fill="#303CA5" fill-rule="evenodd" d="M42.671 19.304c-.144.498-.53.89-1.027 1.044a1.552 1.552 0 0 1-1.44-.281c-1.472-1.166-2.08-2.957-2.599-4.477-.675-1.985-1.122-3.125-2.46-3.482-1.337-.357-2.296.406-3.879 1.79-1.652 1.445-3.71 3.244-6.72 2.44-3.012-.803-3.889-3.385-4.595-5.46-.674-1.985-1.12-3.125-2.456-3.481-1.336-.357-2.295.406-3.877 1.79-1.652 1.446-3.709 3.245-6.72 2.441-3.01-.803-3.887-3.386-4.593-5.46C1.8 4.678 1.421 3.663.698 3.099A1.497 1.497 0 0 1 .16 1.53 1.552 1.552 0 0 1 2.63.767C4.1 1.933 4.71 3.724 5.224 5.243c.675 1.984 1.122 3.124 2.458 3.48 1.336.358 2.295-.405 3.876-1.79 1.653-1.445 3.71-3.244 6.72-2.44 3.01.803 3.888 3.385 4.593 5.46.674 1.985 1.121 3.124 2.457 3.481 1.337.357 2.298-.405 3.88-1.79 1.652-1.446 3.709-3.244 6.72-2.44 3.012.804 3.89 3.386 4.596 5.46.508 1.492.886 2.507 1.61 3.07.48.369.691.987.537 1.57z"/>
</svg>
