<svg xmlns="http://www.w3.org/2000/svg" width="21" height="15" viewBox="0 0 21 15">
    <path fill="#F8AA09" fill-rule="evenodd" d="M18.769 6.63l-3.68-3.562-3.582 3.463c-.026.03-.037.068-.065.097a1.385 1.385 0 0 1-1.882 0 1.05 1.05 0 0 1-.066-.097L5.911 3.068 2.21 6.648a1.34 1.34 0 0 1-1.827-.022A1.235 1.235 0 0 1 .36 4.86L4.904.466c.026-.03.036-.067.065-.096A1.33 1.33 0 0 1 5.893 0c.347 0 .68.133.925.37l3.68 3.56L14.08.466c.026-.03.037-.067.066-.096a1.385 1.385 0 0 1 1.882 0c.029.029.04.064.065.096l4.523 4.374c.33.32.46.785.34 1.221-.12.437-.473.778-.924.896a1.338 1.338 0 0 1-1.263-.326zM4.92 8.466c.026-.03.037-.068.066-.096A1.33 1.33 0 0 1 5.91 8c.346 0 .678.133.923.37l3.677 3.552 3.578-3.457c.026-.03.037-.068.066-.096a1.385 1.385 0 0 1 1.88 0c.03.029.04.064.065.096l4.519 4.365c.33.319.458.783.337 1.218-.12.436-.472.776-.923.892a1.337 1.337 0 0 1-1.261-.326l-3.676-3.555-3.577 3.456c-.026.03-.037.067-.066.096a1.384 1.384 0 0 1-1.88 0 1.053 1.053 0 0 1-.065-.096l-3.58-3.456L2.23 14.63a1.339 1.339 0 0 1-1.847 0 1.232 1.232 0 0 1 0-1.784L4.92 8.465z"/>
</svg>
