<svg xmlns="http://www.w3.org/2000/svg" width="23" height="15" viewBox="0 0 23 15">
    <path fill="#D6D9E3" fill-rule="evenodd" d="M18.099 8.113c-.201 1.937-1.297 3.692-2.995 4.795a7.331 7.331 0 0 1-6.831.579c-3.852 1.26-7.01 1.282-7.91-.196-.902-1.477.69-4.046 3.762-6.57.218-2.116 1.503-4.003 3.452-5.069a7.35 7.35 0 0 1 6.373-.304c3.854-1.262 7.01-1.283 7.911.195.901 1.478-.69 4.047-3.762 6.57zM2.771 11.965c.332.542 1.564.527 3.287.062a6.584 6.584 0 0 1-1.7-2.78c-1.289 1.178-1.919 2.175-1.587 2.718zM19.453 2.87c-.332-.543-1.564-.527-3.287-.063a6.583 6.583 0 0 1 1.699 2.78c1.29-1.177 1.92-2.174 1.588-2.717z"/>
</svg>
