<svg xmlns="http://www.w3.org/2000/svg" width="24" height="24" viewBox="0 0 24 24">
    <g fill="none" fill-rule="nonzero">
        <path fill="#135EEB" d="M15.2.554c-4.062 0-7.508 2.892-8.246 6.892.492-.061.984-.123 1.477-.123-.493 0-.985.062-1.477.123-4 .739-6.892 4.185-6.892 8.246V24H8.43c4 0 7.446-2.83 8.184-6.77H14.77 23.57V8.924c-.062-4.615-3.755-8.37-8.37-8.37zm-8.37 8.37z"/>
        <path fill="#0A60EA" d="M8.43 7.323c-.492 0-.984.062-1.476.123-.062.492-.123.985-.123 1.477 0 4.615 3.754 8.37 8.369 8.308h1.415c.123-.493.123-1.046.123-1.6.062-4.554-3.692-8.246-8.307-8.308z"/>
        <path fill="#15C2FF" d="M15.2 17.292c-4.615 0-8.37-3.692-8.37-8.307 0-.493.062-.985.124-1.477a8.266 8.266 0 0 0-6.892 8.184V24H8.43c4 0 7.446-2.83 8.184-6.77H15.2v.062z"/>
        <path fill="#2C82FF" d="M15.2.554c-4.062 0-7.508 2.892-8.246 6.892.492-.061.984-.123 1.477-.123 4.615 0 8.369 3.692 8.369 8.308 0 .554-.062 1.046-.123 1.6h6.892V8.923C23.508 4.308 19.815.553 15.2.553z"/>
    </g>
</svg>
