<?xml version="1.0" encoding="UTF-8"?>
<svg xmlns="http://www.w3.org/2000/svg" xmlns:xlink="http://www.w3.org/1999/xlink" width="28px" height="28px" viewBox="0 0 28 28" version="1.1">
    <g id="surface1">
        <path style=" stroke:none;fill-rule:evenodd;fill:rgb(19.607843%,21.568627%,23.529412%);fill-opacity:1;" d="M 14.035156 0.078125 C 6.324219 0.078125 0.078125 6.324219 0.078125 14.035156 C 0.078125 21.742188 6.324219 27.992188 14.035156 27.992188 C 21.742188 27.992188 27.992188 21.742188 27.992188 14.035156 C 27.992188 6.324219 21.742188 0.078125 14.035156 0.078125 M 14.035156 0.914062 C 16.648438 0.90625 19.203125 1.6875 21.367188 3.152344 C 22.765625 4.097656 23.96875 5.300781 24.914062 6.699219 C 26.378906 8.863281 27.160156 11.417969 27.152344 14.03125 C 27.160156 16.648438 26.378906 19.203125 24.914062 21.367188 C 23.96875 22.765625 22.765625 23.96875 21.367188 24.914062 C 19.203125 26.378906 16.648438 27.160156 14.035156 27.152344 C 11.417969 27.160156 8.863281 26.378906 6.699219 24.914062 C 5.300781 23.96875 4.097656 22.765625 3.152344 21.367188 C 1.6875 19.203125 0.90625 16.648438 0.914062 14.035156 C 0.90625 11.417969 1.6875 8.863281 3.152344 6.699219 C 4.097656 5.300781 5.300781 4.097656 6.699219 3.152344 C 8.863281 1.6875 11.417969 0.90625 14.03125 0.914062 "/>
        <path style=" stroke:none;fill-rule:evenodd;fill:rgb(19.607843%,21.568627%,23.529412%);fill-opacity:1;" d="M 24.242188 8.453125 C 24.292969 8.824219 24.320312 9.222656 24.320312 9.648438 C 24.320312 10.828125 24.097656 12.15625 23.433594 13.816406 L 19.882812 24.085938 C 23.464844 22.003906 25.667969 18.175781 25.664062 14.03125 C 25.667969 12.082031 25.179688 10.164062 24.242188 8.453125 Z M 14.238281 15.050781 L 10.75 25.191406 C 13.089844 25.882812 15.59375 25.816406 17.898438 25.007812 C 17.863281 24.957031 17.835938 24.902344 17.8125 24.847656 Z M 21.886719 13.449219 C 21.886719 12.007812 21.371094 11.015625 20.925781 10.238281 C 20.339844 9.28125 19.785156 8.46875 19.785156 7.511719 C 19.785156 6.441406 20.59375 5.445312 21.738281 5.445312 C 21.789062 5.445312 21.839844 5.453125 21.886719 5.457031 C 19.746094 3.488281 16.941406 2.398438 14.035156 2.402344 C 10.117188 2.398438 6.464844 4.371094 4.316406 7.644531 C 4.589844 7.652344 4.84375 7.65625 5.0625 7.65625 C 6.28125 7.65625 8.164062 7.511719 8.164062 7.511719 C 8.789062 7.476562 8.863281 8.394531 8.238281 8.46875 C 8.238281 8.46875 7.609375 8.542969 6.90625 8.578125 L 11.144531 21.179688 L 13.6875 13.546875 L 11.878906 8.578125 C 11.46875 8.554688 11.0625 8.515625 10.65625 8.46875 C 10.027344 8.429688 10.101562 7.472656 10.730469 7.507812 C 10.730469 7.507812 12.652344 7.65625 13.792969 7.65625 C 15.011719 7.65625 16.894531 7.507812 16.894531 7.507812 C 17.523438 7.472656 17.59375 8.394531 16.96875 8.46875 C 16.96875 8.46875 16.335938 8.542969 15.636719 8.578125 L 19.839844 21.082031 L 21.039062 17.28125 C 21.574219 15.617188 21.886719 14.441406 21.886719 13.445312 Z M 2.402344 14.03125 C 2.402344 18.492188 4.945312 22.554688 8.957031 24.5 L 3.410156 9.300781 C 2.742188 10.789062 2.402344 12.402344 2.402344 14.035156 Z M 2.402344 14.03125 "/>
    </g>
</svg>