<?xml version="1.0" encoding="utf-8"?>
<!-- Generator: Adobe Illustrator 23.0.4, SVG Export Plug-In . SVG Version: 6.00 Build 0)  -->
<svg xmlns:xlink="http://www.w3.org/1999/xlink" version="1.1" id="Layer_1" xmlns="http://www.w3.org/2000/svg" x="0px"
     y="0px"
     viewBox="0 0 90.01 89.86" style="enable-background:new 0 0 90.01 89.86;" xml:space="preserve">
<style type="text/css">
	.st0{fill:#F6A500;}
	.st1{clip-path:url(#SVGID_2_);}
	.st2{fill:#4E4D4D;}
</style>
    <rect x="0.3" y="0.18" class="st0" width="89.5" height="89.5"/>
    <g>
	<defs>
		<path id="SVGID_1_" d="M84.89,80.38H58.11V69.7c-7.21,9.99-14.29,12.76-26.22,12.76c-15.82,0-26.08-9.71-26.08-30.52V7.68h28.86
			v39.26c0,9.99,3.47,13.18,10.41,13.18c8.32,0,10.96-6.24,10.96-17.48V7.68h28.86V80.38z"/>
	</defs>
        <clipPath id="SVGID_2_">
		<use xlink:href="#SVGID_1_" style="overflow:visible;"/>
	</clipPath>
        <g class="st1">
		<line class="st2" x1="1.58" y1="8.41" x2="88.52" y2="8.41"/>
            <rect x="1.58" y="7.7" class="st2" width="86.94" height="1.42"/>
	</g>
        <g class="st1">
		<line class="st2" x1="1.58" y1="11.95" x2="88.52" y2="11.95"/>
            <rect x="1.58" y="10.53" class="st2" width="86.94" height="2.83"/>
	</g>
        <g class="st1">
		<line class="st2" x1="1.58" y1="18.37" x2="88.52" y2="18.37"/>
            <rect x="1.58" y="16.24" class="st2" width="86.94" height="4.25"/>
	</g>
        <g class="st1">
		<line class="st2" x1="1.58" y1="27.61" x2="88.52" y2="27.61"/>
            <rect x="1.58" y="24.77" class="st2" width="86.94" height="5.67"/>
	</g>
        <g class="st1">
		<line class="st2" x1="1.58" y1="39.6" x2="88.52" y2="39.6"/>
            <rect x="1.58" y="36.06" class="st2" width="86.94" height="7.09"/>
	</g>
        <g class="st1">
		<line class="st2" x1="1.58" y1="54.48" x2="88.52" y2="54.48"/>
            <rect x="1.58" y="50.23" class="st2" width="86.94" height="8.5"/>
	</g>
        <g class="st1">
		<line class="st2" x1="1.58" y1="74.96" x2="88.52" y2="74.96"/>
            <rect x="1.58" y="67.2" class="st2" width="86.94" height="15.52"/>
	</g>
</g>
</svg>
