<svg width="396" height="264" viewBox="0 0 396 264" fill="none" xmlns="http://www.w3.org/2000/svg">
    <g clip-path="url(#moderationfltrclip0_542_16736)">
        <g filter="url(#moderationfltrfilter0_ddd_542_16736)">
            <rect x="139.981" y="52.5992" width="162.17" height="179.401" rx="3.96584" fill="white"/>
        </g>
        <path d="M156.198 174.881C157.55 174.847 161.57 174.786 166.841 174.819C173.429 174.86 173.429 174.912 179.003 174.881C184.578 174.85 185.592 174.788 199.275 174.85C212.958 174.912 210.424 174.912 217.519 174.881C224.614 174.85 225.627 174.835 238.804 174.881C249.345 174.918 261.778 174.913 266.677 174.907"
              stroke="#DCDDE1" stroke-width="8.10851"/>
        <path d="M156.198 194.559C157.55 194.53 161.57 194.478 166.841 194.506C173.429 194.542 173.429 194.586 179.003 194.559C184.578 194.533 184.071 194.506 197.754 194.559C211.437 194.613 210.424 194.6 218.026 194.593"
              stroke="#DCDDE1" stroke-width="8.10851"/>
        <g clip-path="url(#moderationfltrclip1_542_16736)">
            <rect x="151.131" y="65.7755" width="139.912" height="88.1801" fill="#8C8F9A"/>
            <circle cx="157.01" cy="165.713" r="48.2051" fill="#EC352F"/>
            <circle cx="295.745" cy="112.805" r="65.8411" fill="#DCDDE1"/>
        </g>
        <circle cx="291.51" cy="58.1738" r="18.7509" fill="#D72C2C"/>
        <path d="M290.886 55.6399L293.028 57.7751V57.667C293.028 57.1294 292.815 56.6137 292.435 56.2336C292.054 55.8534 291.539 55.6399 291.001 55.6399H290.886ZM287.981 56.1804L289.028 57.2278C288.994 57.3697 288.974 57.5116 288.974 57.667C288.974 58.2046 289.188 58.7202 289.568 59.1004C289.948 59.4805 290.464 59.6941 291.001 59.6941C291.15 59.6941 291.298 59.6738 291.44 59.6401L292.488 60.6874C292.035 60.9104 291.535 61.0455 291.001 61.0455C290.105 61.0455 289.246 60.6896 288.612 60.056C287.979 59.4224 287.623 58.563 287.623 57.667C287.623 57.1332 287.758 56.6332 287.981 56.1804ZM284.244 52.4438L285.785 53.9844L286.089 54.2884C284.974 55.1669 284.095 56.3156 283.568 57.667C284.737 60.6333 287.623 62.7348 291.001 62.7348C292.049 62.7348 293.049 62.5321 293.961 62.1672L294.251 62.451L296.224 64.4241L297.083 63.5659L285.102 51.5856L284.244 52.4438ZM291.001 54.2884C291.897 54.2884 292.757 54.6444 293.39 55.278C294.024 55.9116 294.38 56.7709 294.38 57.667C294.38 58.0994 294.292 58.5184 294.136 58.8968L296.116 60.8766C297.13 60.032 297.941 58.9238 298.434 57.667C297.265 54.7006 294.38 52.5992 291.001 52.5992C290.055 52.5992 289.15 52.7681 288.298 53.0722L289.765 54.5249C290.15 54.3763 290.562 54.2884 291.001 54.2884Z"
              fill="white"/>
        <g filter="url(#moderationfltrfilter1_ddd_542_16736)">
            <rect x="85.7402" y="31.9814" width="162.17" height="179.401" rx="3.96584" fill="white"/>
            <path d="M101.957 154.263C103.308 154.229 107.329 154.169 112.599 154.201C119.188 154.242 119.188 154.294 124.762 154.263C130.337 154.232 131.35 154.171 145.034 154.232C158.717 154.294 156.183 154.294 163.278 154.263C170.373 154.232 171.386 154.217 184.562 154.263C195.104 154.3 207.537 154.296 212.436 154.289"
                  stroke="#DCDDE1" stroke-width="8.10851"/>
            <path d="M101.957 173.942C103.308 173.912 107.329 173.86 112.599 173.889C119.188 173.924 119.188 173.968 124.762 173.942C130.337 173.915 129.83 173.889 143.513 173.942C157.196 173.995 156.183 173.982 163.784 173.975"
                  stroke="#DCDDE1" stroke-width="8.10851"/>
            <g clip-path="url(#moderationfltrclip2_542_16736)">
                <rect x="96.8887" y="45.1577" width="139.912" height="88.1801" fill="#2C324C"/>
                <circle cx="125.771" cy="71.4144" r="83.2083" fill="#0068A0"/>
                <circle cx="256.9" cy="155.92" r="86.4368" fill="#FE544F"/>
            </g>
        </g>
        <circle cx="234.383" cy="30.7509" r="18.7509" fill="#0096CC"/>
        <g clip-path="url(#moderationfltrclip3_542_16736)">
            <path d="M233.874 28.217C233.337 28.217 232.821 28.4306 232.441 28.8108C232.061 29.1909 231.847 29.7065 231.847 30.2442C231.847 30.7818 232.061 31.2974 232.441 31.6775C232.821 32.0577 233.337 32.2713 233.874 32.2713C234.412 32.2713 234.927 32.0577 235.308 31.6775C235.688 31.2974 235.901 30.7818 235.901 30.2442C235.901 29.7065 235.688 29.1909 235.308 28.8108C234.927 28.4306 234.412 28.217 233.874 28.217ZM233.874 33.6227C232.978 33.6227 232.119 33.2667 231.485 32.6331C230.852 31.9995 230.496 31.1402 230.496 30.2442C230.496 29.3481 230.852 28.4888 231.485 27.8552C232.119 27.2216 232.978 26.8656 233.874 26.8656C234.77 26.8656 235.63 27.2216 236.263 27.8552C236.897 28.4888 237.253 29.3481 237.253 30.2442C237.253 31.1402 236.897 31.9995 236.263 32.6331C235.63 33.2667 234.77 33.6227 233.874 33.6227ZM233.874 25.1763C230.496 25.1763 227.61 27.2778 226.441 30.2442C227.61 33.2105 230.496 35.312 233.874 35.312C237.253 35.312 240.138 33.2105 241.307 30.2442C240.138 27.2778 237.253 25.1763 233.874 25.1763Z"
                  fill="white"/>
        </g>
    </g>
    <defs>
        <filter id="moderationfltrfilter0_ddd_542_16736" x="114.203" y="38.7187" width="213.726" height="230.957"
                filterUnits="userSpaceOnUse" color-interpolation-filters="sRGB">
            <feFlood flood-opacity="0" result="BackgroundImageFix"/>
            <feColorMatrix in="SourceAlpha" type="matrix" values="0 0 0 0 0 0 0 0 0 0 0 0 0 0 0 0 0 0 127 0"
                           result="hardAlpha"/>
            <feOffset dy="11.8975"/>
            <feGaussianBlur stdDeviation="12.889"/>
            <feColorMatrix type="matrix" values="0 0 0 0 0 0 0 0 0 0 0 0 0 0 0 0 0 0 0.03 0"/>
            <feBlend mode="normal" in2="BackgroundImageFix" result="effect1_dropShadow_542_16736"/>
            <feColorMatrix in="SourceAlpha" type="matrix" values="0 0 0 0 0 0 0 0 0 0 0 0 0 0 0 0 0 0 127 0"
                           result="hardAlpha"/>
            <feOffset dy="1.98292"/>
            <feGaussianBlur stdDeviation="1.98292"/>
            <feColorMatrix type="matrix" values="0 0 0 0 0 0 0 0 0 0 0 0 0 0 0 0 0 0 0.11 0"/>
            <feBlend mode="normal" in2="effect1_dropShadow_542_16736" result="effect2_dropShadow_542_16736"/>
            <feColorMatrix in="SourceAlpha" type="matrix" values="0 0 0 0 0 0 0 0 0 0 0 0 0 0 0 0 0 0 127 0"
                           result="hardAlpha"/>
            <feOffset dy="5.94876"/>
            <feGaussianBlur stdDeviation="5.94876"/>
            <feColorMatrix type="matrix" values="0 0 0 0 0 0 0 0 0 0 0 0 0 0 0 0 0 0 0.04 0"/>
            <feBlend mode="normal" in2="effect2_dropShadow_542_16736" result="effect3_dropShadow_542_16736"/>
            <feBlend mode="normal" in="SourceGraphic" in2="effect3_dropShadow_542_16736" result="shape"/>
        </filter>
        <filter id="moderationfltrfilter1_ddd_542_16736" x="59.9623" y="18.101" width="213.726" height="230.957"
                filterUnits="userSpaceOnUse" color-interpolation-filters="sRGB">
            <feFlood flood-opacity="0" result="BackgroundImageFix"/>
            <feColorMatrix in="SourceAlpha" type="matrix" values="0 0 0 0 0 0 0 0 0 0 0 0 0 0 0 0 0 0 127 0"
                           result="hardAlpha"/>
            <feOffset dy="11.8975"/>
            <feGaussianBlur stdDeviation="12.889"/>
            <feColorMatrix type="matrix" values="0 0 0 0 0 0 0 0 0 0 0 0 0 0 0 0 0 0 0.03 0"/>
            <feBlend mode="normal" in2="BackgroundImageFix" result="effect1_dropShadow_542_16736"/>
            <feColorMatrix in="SourceAlpha" type="matrix" values="0 0 0 0 0 0 0 0 0 0 0 0 0 0 0 0 0 0 127 0"
                           result="hardAlpha"/>
            <feOffset dy="1.98292"/>
            <feGaussianBlur stdDeviation="1.98292"/>
            <feColorMatrix type="matrix" values="0 0 0 0 0 0 0 0 0 0 0 0 0 0 0 0 0 0 0.11 0"/>
            <feBlend mode="normal" in2="effect1_dropShadow_542_16736" result="effect2_dropShadow_542_16736"/>
            <feColorMatrix in="SourceAlpha" type="matrix" values="0 0 0 0 0 0 0 0 0 0 0 0 0 0 0 0 0 0 127 0"
                           result="hardAlpha"/>
            <feOffset dy="5.94876"/>
            <feGaussianBlur stdDeviation="5.94876"/>
            <feColorMatrix type="matrix" values="0 0 0 0 0 0 0 0 0 0 0 0 0 0 0 0 0 0 0.04 0"/>
            <feBlend mode="normal" in2="effect2_dropShadow_542_16736" result="effect3_dropShadow_542_16736"/>
            <feBlend mode="normal" in="SourceGraphic" in2="effect3_dropShadow_542_16736" result="shape"/>
        </filter>
        <clipPath id="moderationfltrclip0_542_16736">
            <path d="M0 0H396V264H0V0Z" fill="white"/>
        </clipPath>
        <clipPath id="moderationfltrclip1_542_16736">
            <rect x="151.131" y="65.7755" width="139.912" height="88.1801" rx="2" fill="white"/>
        </clipPath>
        <clipPath id="moderationfltrclip2_542_16736">
            <rect x="96.8887" y="45.1577" width="139.912" height="88.1801" rx="2" fill="white"/>
        </clipPath>
        <clipPath id="moderationfltrclip3_542_16736">
            <rect width="16.217" height="16.217" fill="white" transform="translate(225.767 22.1356)"/>
        </clipPath>
    </defs>
</svg>