<svg width="396" height="264" viewBox="0 0 396 264" fill="none" xmlns="http://www.w3.org/2000/svg">
    <g clip-path="url(#cliphashtagpro0_506_22510)">
        <g clip-path="url(#cliphashtagpro1_506_22510)">
            <g filter="url(#filterhashtagpro0_ddd_506_22510)">
                <rect x="169.506" y="31.2762" width="158.634" height="180.446" rx="3.96584"
                      transform="rotate(4 169.506 31.2762)" fill="white"/>
            </g>
            <g clip-path="url(#cliphashtagpro2_506_22510)">
                <rect x="169.506" y="31.2762" width="158.634" height="158.634" transform="rotate(4 169.506 31.2762)"
                      fill="#0096CC"/>
            </g>
            <path d="M192.49 182.337L188.63 182.067L189.561 178.756C189.585 178.659 189.587 178.557 189.568 178.458C189.549 178.359 189.509 178.266 189.45 178.184C189.391 178.102 189.315 178.034 189.228 177.984C189.14 177.934 189.043 177.904 188.943 177.896L187.552 177.798C187.391 177.783 187.23 177.824 187.097 177.914C186.963 178.004 186.864 178.138 186.818 178.292L185.855 181.873L182.099 181.611L183.029 178.3C183.053 178.204 183.056 178.105 183.038 178.008C183.021 177.911 182.983 177.819 182.927 177.738C182.871 177.657 182.799 177.588 182.715 177.537C182.631 177.486 182.537 177.453 182.439 177.441L181.048 177.343C180.888 177.328 180.727 177.369 180.593 177.459C180.459 177.549 180.361 177.683 180.315 177.837L179.365 181.42L175.192 181.128C175.029 181.113 174.867 181.156 174.733 181.249C174.598 181.341 174.501 181.478 174.457 181.636L174.075 183.007C174.047 183.107 174.042 183.213 174.06 183.316C174.079 183.419 174.12 183.517 174.181 183.602C174.242 183.686 174.322 183.756 174.414 183.806C174.506 183.856 174.608 183.885 174.712 183.89L178.572 184.16L177.043 189.645L172.869 189.353C172.707 189.338 172.544 189.381 172.41 189.474C172.276 189.567 172.179 189.703 172.135 189.861L171.752 191.232C171.724 191.333 171.719 191.438 171.738 191.541C171.756 191.644 171.797 191.742 171.859 191.827C171.92 191.911 171.999 191.981 172.091 192.031C172.183 192.081 172.285 192.11 172.39 192.115L176.278 192.387L175.347 195.698C175.323 195.797 175.321 195.901 175.341 196.002C175.361 196.102 175.403 196.197 175.464 196.279C175.525 196.361 175.603 196.429 175.694 196.478C175.784 196.527 175.884 196.555 175.986 196.56L177.377 196.658C177.532 196.664 177.685 196.619 177.812 196.529C177.938 196.44 178.031 196.31 178.076 196.161L179.053 192.581L182.809 192.844L181.879 196.155C181.855 196.25 181.852 196.35 181.869 196.447C181.887 196.543 181.925 196.635 181.981 196.717C182.036 196.798 182.109 196.866 182.193 196.917C182.277 196.969 182.371 197.001 182.469 197.014L183.86 197.111C184.02 197.126 184.181 197.085 184.315 196.995C184.448 196.905 184.547 196.771 184.593 196.617L185.577 193.037L189.751 193.329C189.913 193.344 190.076 193.301 190.21 193.208C190.344 193.115 190.441 192.979 190.485 192.821L190.861 191.45C190.889 191.349 190.894 191.243 190.875 191.14C190.857 191.037 190.816 190.94 190.754 190.855C190.693 190.77 190.614 190.7 190.522 190.65C190.43 190.6 190.328 190.572 190.223 190.566L186.342 190.295L187.865 184.81L192.038 185.102C192.201 185.116 192.363 185.073 192.498 184.981C192.632 184.888 192.729 184.751 192.773 184.594L193.155 183.223C193.184 183.119 193.189 183.011 193.169 182.906C193.149 182.801 193.106 182.701 193.041 182.616C192.977 182.53 192.894 182.461 192.798 182.412C192.703 182.364 192.597 182.338 192.49 182.337ZM183.56 190.1L179.804 189.838L181.334 184.353L185.09 184.616L183.56 190.1Z"
                  fill="#0068A0"/>
            <rect x="206.604" y="182.953" width="57.5047" height="13.8804" rx="1.98292"
                  transform="rotate(4 206.604 182.953)" fill="#86D0F9"/>
            <g filter="url(#filterhashtagpro1_ddd_506_22510)">
                <rect x="169.506" y="31.2762" width="158.634" height="180.446" rx="3.96584"
                      transform="rotate(4 169.506 31.2762)" fill="white"/>
            </g>
            <g clip-path="url(#cliphashtagpro3_506_22510)">
                <rect x="169.506" y="31.2762" width="158.634" height="158.634" transform="rotate(4 169.506 31.2762)"
                      fill="#0096CC"/>
                <circle cx="183.84" cy="95.0859" r="92.2057" fill="#0068A0"/>
            </g>
            <path d="M192.49 182.337L188.63 182.067L189.561 178.756C189.585 178.659 189.587 178.557 189.568 178.458C189.549 178.359 189.509 178.266 189.45 178.184C189.391 178.102 189.315 178.034 189.228 177.984C189.14 177.934 189.043 177.904 188.943 177.896L187.552 177.798C187.391 177.783 187.23 177.824 187.097 177.914C186.963 178.004 186.864 178.138 186.818 178.292L185.855 181.873L182.099 181.611L183.029 178.3C183.053 178.204 183.056 178.105 183.038 178.008C183.021 177.911 182.983 177.819 182.927 177.738C182.871 177.657 182.799 177.588 182.715 177.537C182.631 177.486 182.537 177.453 182.439 177.441L181.048 177.343C180.888 177.328 180.727 177.369 180.593 177.459C180.459 177.549 180.361 177.683 180.315 177.837L179.365 181.42L175.192 181.128C175.029 181.113 174.867 181.156 174.733 181.249C174.598 181.341 174.501 181.478 174.457 181.636L174.075 183.007C174.047 183.107 174.042 183.213 174.06 183.316C174.079 183.419 174.12 183.517 174.181 183.602C174.242 183.686 174.322 183.756 174.414 183.806C174.506 183.856 174.608 183.885 174.712 183.89L178.572 184.16L177.043 189.645L172.869 189.353C172.707 189.338 172.544 189.381 172.41 189.474C172.276 189.567 172.179 189.703 172.135 189.861L171.752 191.232C171.724 191.333 171.719 191.438 171.738 191.541C171.756 191.644 171.797 191.742 171.859 191.827C171.92 191.911 171.999 191.981 172.091 192.031C172.183 192.081 172.285 192.11 172.39 192.115L176.278 192.387L175.347 195.698C175.323 195.797 175.321 195.901 175.341 196.002C175.361 196.102 175.403 196.197 175.464 196.279C175.525 196.361 175.603 196.429 175.694 196.478C175.784 196.527 175.884 196.555 175.986 196.56L177.377 196.658C177.532 196.664 177.685 196.619 177.812 196.529C177.938 196.44 178.031 196.31 178.076 196.161L179.053 192.581L182.809 192.844L181.879 196.155C181.855 196.25 181.852 196.35 181.869 196.447C181.887 196.543 181.925 196.635 181.981 196.717C182.036 196.798 182.109 196.866 182.193 196.917C182.277 196.969 182.371 197.001 182.469 197.014L183.86 197.111C184.02 197.126 184.181 197.085 184.315 196.995C184.448 196.905 184.547 196.771 184.593 196.617L185.577 193.037L189.751 193.329C189.913 193.344 190.076 193.301 190.21 193.208C190.344 193.115 190.441 192.979 190.485 192.821L190.861 191.45C190.889 191.349 190.894 191.243 190.875 191.14C190.857 191.037 190.816 190.94 190.754 190.855C190.693 190.77 190.614 190.7 190.522 190.65C190.43 190.6 190.328 190.572 190.223 190.566L186.342 190.295L187.865 184.81L192.038 185.102C192.201 185.116 192.363 185.073 192.498 184.981C192.632 184.888 192.729 184.751 192.773 184.594L193.155 183.223C193.184 183.119 193.189 183.011 193.169 182.906C193.149 182.801 193.106 182.701 193.041 182.616C192.977 182.53 192.894 182.461 192.798 182.412C192.703 182.364 192.597 182.338 192.49 182.337ZM183.56 190.1L179.804 189.838L181.334 184.353L185.09 184.616L183.56 190.1Z"
                  fill="#0068A0"/>
            <rect x="206.604" y="182.953" width="57.5047" height="13.8804" rx="1.98292"
                  transform="rotate(4 206.604 182.953)" fill="#86D0F9"/>
            <g filter="url(#filterhashtagpro2_ddd_506_22510)">
                <rect x="61.8896" y="48.4873" width="158.634" height="180.446" rx="3.96584" fill="white"/>
            </g>
            <g clip-path="url(#cliphashtagpro4_506_22510)">
                <rect x="61.8896" y="48.4873" width="158.634" height="158.634" fill="#F6966B"/>
                <path d="M93.1149 104.67L218.7 230.255H-10.8174L93.1149 104.67Z" fill="#F9BBA0"/>
            </g>
            <path d="M95.3546 197.577H91.4848L92.1821 194.209C92.1992 194.11 92.1946 194.008 92.1687 193.911C92.1427 193.814 92.096 193.723 92.0317 193.646C91.9675 193.568 91.8872 193.506 91.7964 193.462C91.7056 193.419 91.6064 193.395 91.5057 193.394H90.1112C89.95 193.39 89.7925 193.442 89.6653 193.541C89.5382 193.64 89.4494 193.78 89.414 193.937L88.7028 197.577H84.9376L85.6348 194.209C85.6517 194.112 85.6479 194.013 85.6236 193.918C85.5992 193.822 85.555 193.733 85.4937 193.656C85.4325 193.579 85.3556 193.516 85.2682 193.47C85.1807 193.425 85.0847 193.399 84.9864 193.394H83.5919C83.4307 193.39 83.2731 193.442 83.146 193.541C83.0189 193.64 82.93 193.78 82.8946 193.937L82.1974 197.577H78.0138C77.8507 197.574 77.6916 197.628 77.5642 197.73C77.4368 197.832 77.3492 197.975 77.3166 198.135L77.0307 199.529C77.0098 199.632 77.0121 199.738 77.0377 199.839C77.0632 199.941 77.1112 200.035 77.1782 200.115C77.2451 200.196 77.3293 200.26 77.4245 200.303C77.5197 200.347 77.6234 200.368 77.7279 200.366H81.5977L80.4542 205.944H76.2707C76.1076 205.941 75.9485 205.995 75.8211 206.097C75.6937 206.199 75.606 206.342 75.5734 206.502L75.2876 207.897C75.2666 207.999 75.269 208.105 75.2945 208.206C75.3201 208.308 75.3681 208.402 75.435 208.483C75.502 208.563 75.5862 208.627 75.6814 208.671C75.7765 208.714 75.8802 208.735 75.9848 208.733H79.8825L79.1852 212.101C79.1678 212.202 79.1728 212.306 79.2 212.404C79.2271 212.503 79.2757 212.595 79.3423 212.673C79.4088 212.751 79.4918 212.813 79.5851 212.855C79.6785 212.897 79.78 212.918 79.8825 212.917H81.277C81.4322 212.913 81.5816 212.857 81.7016 212.759C81.8216 212.66 81.9053 212.524 81.9394 212.373L82.6645 208.733H86.4297L85.7324 212.101C85.7156 212.198 85.7194 212.297 85.7437 212.393C85.768 212.488 85.8123 212.577 85.8735 212.654C85.9348 212.732 86.0117 212.795 86.0991 212.84C86.1866 212.885 86.2826 212.911 86.3809 212.917H87.7754C87.9366 212.921 88.0941 212.869 88.2213 212.77C88.3484 212.67 88.4372 212.53 88.4727 212.373L89.2048 208.733H93.3883C93.5514 208.737 93.7105 208.683 93.8379 208.581C93.9653 208.479 94.053 208.335 94.0856 208.175L94.3645 206.781C94.3854 206.678 94.383 206.573 94.3575 206.471C94.332 206.37 94.2839 206.275 94.217 206.195C94.15 206.115 94.0658 206.05 93.9707 206.007C93.8755 205.964 93.7718 205.942 93.6672 205.944H89.7765L90.9131 200.366H95.0966C95.2597 200.369 95.4188 200.315 95.5462 200.214C95.6736 200.112 95.7612 199.968 95.7938 199.808L96.0797 198.414C96.1013 198.309 96.0985 198.201 96.0714 198.097C96.0444 197.993 95.9939 197.897 95.9237 197.816C95.8536 197.736 95.7658 197.672 95.6671 197.63C95.5684 197.589 95.4615 197.571 95.3546 197.577ZM86.9875 205.944H83.2223L84.3658 200.366H88.131L86.9875 205.944Z"
                  fill="#FE544F"/>
            <rect x="109.479" y="197.206" width="57.5047" height="13.8804" rx="1.98292" fill="#FCE1D5"/>
            <g filter="url(#filterhashtagpro3_ddd_506_22510)">
                <rect x="61.8896" y="48.4873" width="158.634" height="180.446" rx="3.96584" fill="white"/>
            </g>
            <g clip-path="url(#cliphashtagpro5_506_22510)">
                <rect x="61.8896" y="48.4873" width="158.634" height="158.634" fill="#F6966B"/>
                <path d="M93.1149 104.67L218.7 230.255H-10.8174L93.1149 104.67Z" fill="#F9BBA0"/>
            </g>
            <path d="M95.3546 197.577H91.4848L92.1821 194.209C92.1992 194.11 92.1946 194.008 92.1687 193.911C92.1427 193.814 92.096 193.723 92.0317 193.646C91.9675 193.568 91.8872 193.506 91.7964 193.462C91.7056 193.419 91.6064 193.395 91.5057 193.394H90.1112C89.95 193.39 89.7925 193.442 89.6653 193.541C89.5382 193.64 89.4494 193.78 89.414 193.937L88.7028 197.577H84.9376L85.6348 194.209C85.6517 194.112 85.6479 194.013 85.6236 193.918C85.5992 193.822 85.555 193.733 85.4937 193.656C85.4325 193.579 85.3556 193.516 85.2682 193.47C85.1807 193.425 85.0847 193.399 84.9864 193.394H83.5919C83.4307 193.39 83.2731 193.442 83.146 193.541C83.0189 193.64 82.93 193.78 82.8946 193.937L82.1974 197.577H78.0138C77.8507 197.574 77.6916 197.628 77.5642 197.73C77.4368 197.832 77.3492 197.975 77.3166 198.135L77.0307 199.529C77.0098 199.632 77.0121 199.738 77.0377 199.839C77.0632 199.941 77.1112 200.035 77.1782 200.115C77.2451 200.196 77.3293 200.26 77.4245 200.303C77.5197 200.347 77.6234 200.368 77.7279 200.366H81.5977L80.4542 205.944H76.2707C76.1076 205.941 75.9485 205.995 75.8211 206.097C75.6937 206.199 75.606 206.342 75.5734 206.502L75.2876 207.897C75.2666 207.999 75.269 208.105 75.2945 208.206C75.3201 208.308 75.3681 208.402 75.435 208.483C75.502 208.563 75.5862 208.627 75.6814 208.671C75.7765 208.714 75.8802 208.735 75.9848 208.733H79.8825L79.1852 212.101C79.1678 212.202 79.1728 212.306 79.2 212.404C79.2271 212.503 79.2757 212.595 79.3423 212.673C79.4088 212.751 79.4918 212.813 79.5851 212.855C79.6785 212.897 79.78 212.918 79.8825 212.917H81.277C81.4322 212.913 81.5816 212.857 81.7016 212.759C81.8216 212.66 81.9053 212.524 81.9394 212.373L82.6645 208.733H86.4297L85.7324 212.101C85.7156 212.198 85.7194 212.297 85.7437 212.393C85.768 212.488 85.8123 212.577 85.8735 212.654C85.9348 212.732 86.0117 212.795 86.0991 212.84C86.1866 212.885 86.2826 212.911 86.3809 212.917H87.7754C87.9366 212.921 88.0941 212.869 88.2213 212.77C88.3484 212.67 88.4372 212.53 88.4727 212.373L89.2048 208.733H93.3883C93.5514 208.737 93.7105 208.683 93.8379 208.581C93.9653 208.479 94.053 208.335 94.0856 208.175L94.3645 206.781C94.3854 206.678 94.383 206.573 94.3575 206.471C94.332 206.37 94.2839 206.275 94.217 206.195C94.15 206.115 94.0658 206.05 93.9707 206.007C93.8755 205.964 93.7718 205.942 93.6672 205.944H89.7765L90.9131 200.366H95.0966C95.2597 200.369 95.4188 200.315 95.5462 200.214C95.6736 200.112 95.7612 199.968 95.7938 199.808L96.0797 198.414C96.1013 198.309 96.0985 198.201 96.0714 198.097C96.0444 197.993 95.9939 197.897 95.9237 197.816C95.8536 197.736 95.7658 197.672 95.6671 197.63C95.5684 197.589 95.4615 197.571 95.3546 197.577ZM86.9875 205.944H83.2223L84.3658 200.366H88.131L86.9875 205.944Z"
                  fill="#FE544F"/>
            <rect x="109.479" y="197.206" width="57.5047" height="13.8804" rx="1.98292" fill="#FCE1D5"/>
        </g>
    </g>
    <defs>
        <filter id="filterhashtagpro0_ddd_506_22510" x="131.408" y="17.6626" width="221.857" height="242.094"
                filterUnits="userSpaceOnUse" color-interpolation-filters="sRGB">
            <feFlood flood-opacity="0" result="BackgroundImageFix"/>
            <feColorMatrix in="SourceAlpha" type="matrix" values="0 0 0 0 0 0 0 0 0 0 0 0 0 0 0 0 0 0 127 0"
                           result="hardAlpha"/>
            <feOffset dy="11.8975"/>
            <feGaussianBlur stdDeviation="12.889"/>
            <feColorMatrix type="matrix" values="0 0 0 0 0 0 0 0 0 0 0 0 0 0 0 0 0 0 0.03 0"/>
            <feBlend mode="normal" in2="BackgroundImageFix" result="effect1_dropShadow_506_22510"/>
            <feColorMatrix in="SourceAlpha" type="matrix" values="0 0 0 0 0 0 0 0 0 0 0 0 0 0 0 0 0 0 127 0"
                           result="hardAlpha"/>
            <feOffset dy="1.98292"/>
            <feGaussianBlur stdDeviation="1.98292"/>
            <feColorMatrix type="matrix" values="0 0 0 0 0 0 0 0 0 0 0 0 0 0 0 0 0 0 0.11 0"/>
            <feBlend mode="normal" in2="effect1_dropShadow_506_22510" result="effect2_dropShadow_506_22510"/>
            <feColorMatrix in="SourceAlpha" type="matrix" values="0 0 0 0 0 0 0 0 0 0 0 0 0 0 0 0 0 0 127 0"
                           result="hardAlpha"/>
            <feOffset dy="5.94876"/>
            <feGaussianBlur stdDeviation="5.94876"/>
            <feColorMatrix type="matrix" values="0 0 0 0 0 0 0 0 0 0 0 0 0 0 0 0 0 0 0.04 0"/>
            <feBlend mode="normal" in2="effect2_dropShadow_506_22510" result="effect3_dropShadow_506_22510"/>
            <feBlend mode="normal" in="SourceGraphic" in2="effect3_dropShadow_506_22510" result="shape"/>
        </filter>
        <filter id="filterhashtagpro1_ddd_506_22510" x="131.408" y="17.6626" width="221.857" height="242.094"
                filterUnits="userSpaceOnUse" color-interpolation-filters="sRGB">
            <feFlood flood-opacity="0" result="BackgroundImageFix"/>
            <feColorMatrix in="SourceAlpha" type="matrix" values="0 0 0 0 0 0 0 0 0 0 0 0 0 0 0 0 0 0 127 0"
                           result="hardAlpha"/>
            <feOffset dy="11.8975"/>
            <feGaussianBlur stdDeviation="12.889"/>
            <feColorMatrix type="matrix" values="0 0 0 0 0 0 0 0 0 0 0 0 0 0 0 0 0 0 0.03 0"/>
            <feBlend mode="normal" in2="BackgroundImageFix" result="effect1_dropShadow_506_22510"/>
            <feColorMatrix in="SourceAlpha" type="matrix" values="0 0 0 0 0 0 0 0 0 0 0 0 0 0 0 0 0 0 127 0"
                           result="hardAlpha"/>
            <feOffset dy="1.98292"/>
            <feGaussianBlur stdDeviation="1.98292"/>
            <feColorMatrix type="matrix" values="0 0 0 0 0 0 0 0 0 0 0 0 0 0 0 0 0 0 0.11 0"/>
            <feBlend mode="normal" in2="effect1_dropShadow_506_22510" result="effect2_dropShadow_506_22510"/>
            <feColorMatrix in="SourceAlpha" type="matrix" values="0 0 0 0 0 0 0 0 0 0 0 0 0 0 0 0 0 0 127 0"
                           result="hardAlpha"/>
            <feOffset dy="5.94876"/>
            <feGaussianBlur stdDeviation="5.94876"/>
            <feColorMatrix type="matrix" values="0 0 0 0 0 0 0 0 0 0 0 0 0 0 0 0 0 0 0.04 0"/>
            <feBlend mode="normal" in2="effect2_dropShadow_506_22510" result="effect3_dropShadow_506_22510"/>
            <feBlend mode="normal" in="SourceGraphic" in2="effect3_dropShadow_506_22510" result="shape"/>
        </filter>
        <filter id="filterhashtagpro2_ddd_506_22510" x="36.1117" y="34.6069" width="210.19" height="232.002"
                filterUnits="userSpaceOnUse" color-interpolation-filters="sRGB">
            <feFlood flood-opacity="0" result="BackgroundImageFix"/>
            <feColorMatrix in="SourceAlpha" type="matrix" values="0 0 0 0 0 0 0 0 0 0 0 0 0 0 0 0 0 0 127 0"
                           result="hardAlpha"/>
            <feOffset dy="11.8975"/>
            <feGaussianBlur stdDeviation="12.889"/>
            <feColorMatrix type="matrix" values="0 0 0 0 0 0 0 0 0 0 0 0 0 0 0 0 0 0 0.03 0"/>
            <feBlend mode="normal" in2="BackgroundImageFix" result="effect1_dropShadow_506_22510"/>
            <feColorMatrix in="SourceAlpha" type="matrix" values="0 0 0 0 0 0 0 0 0 0 0 0 0 0 0 0 0 0 127 0"
                           result="hardAlpha"/>
            <feOffset dy="1.98292"/>
            <feGaussianBlur stdDeviation="1.98292"/>
            <feColorMatrix type="matrix" values="0 0 0 0 0 0 0 0 0 0 0 0 0 0 0 0 0 0 0.11 0"/>
            <feBlend mode="normal" in2="effect1_dropShadow_506_22510" result="effect2_dropShadow_506_22510"/>
            <feColorMatrix in="SourceAlpha" type="matrix" values="0 0 0 0 0 0 0 0 0 0 0 0 0 0 0 0 0 0 127 0"
                           result="hardAlpha"/>
            <feOffset dy="5.94876"/>
            <feGaussianBlur stdDeviation="5.94876"/>
            <feColorMatrix type="matrix" values="0 0 0 0 0 0 0 0 0 0 0 0 0 0 0 0 0 0 0.04 0"/>
            <feBlend mode="normal" in2="effect2_dropShadow_506_22510" result="effect3_dropShadow_506_22510"/>
            <feBlend mode="normal" in="SourceGraphic" in2="effect3_dropShadow_506_22510" result="shape"/>
        </filter>
        <filter id="filterhashtagpro3_ddd_506_22510" x="36.1117" y="34.6069" width="210.19" height="232.002"
                filterUnits="userSpaceOnUse" color-interpolation-filters="sRGB">
            <feFlood flood-opacity="0" result="BackgroundImageFix"/>
            <feColorMatrix in="SourceAlpha" type="matrix" values="0 0 0 0 0 0 0 0 0 0 0 0 0 0 0 0 0 0 127 0"
                           result="hardAlpha"/>
            <feOffset dy="11.8975"/>
            <feGaussianBlur stdDeviation="12.889"/>
            <feColorMatrix type="matrix" values="0 0 0 0 0 0 0 0 0 0 0 0 0 0 0 0 0 0 0.03 0"/>
            <feBlend mode="normal" in2="BackgroundImageFix" result="effect1_dropShadow_506_22510"/>
            <feColorMatrix in="SourceAlpha" type="matrix" values="0 0 0 0 0 0 0 0 0 0 0 0 0 0 0 0 0 0 127 0"
                           result="hardAlpha"/>
            <feOffset dy="1.98292"/>
            <feGaussianBlur stdDeviation="1.98292"/>
            <feColorMatrix type="matrix" values="0 0 0 0 0 0 0 0 0 0 0 0 0 0 0 0 0 0 0.11 0"/>
            <feBlend mode="normal" in2="effect1_dropShadow_506_22510" result="effect2_dropShadow_506_22510"/>
            <feColorMatrix in="SourceAlpha" type="matrix" values="0 0 0 0 0 0 0 0 0 0 0 0 0 0 0 0 0 0 127 0"
                           result="hardAlpha"/>
            <feOffset dy="5.94876"/>
            <feGaussianBlur stdDeviation="5.94876"/>
            <feColorMatrix type="matrix" values="0 0 0 0 0 0 0 0 0 0 0 0 0 0 0 0 0 0 0.04 0"/>
            <feBlend mode="normal" in2="effect2_dropShadow_506_22510" result="effect3_dropShadow_506_22510"/>
            <feBlend mode="normal" in="SourceGraphic" in2="effect3_dropShadow_506_22510" result="shape"/>
        </filter>
        <clipPath id="cliphashtagpro0_506_22510">
            <rect width="396" height="264" fill="white"/>
        </clipPath>
        <clipPath id="cliphashtagpro1_506_22510">
            <rect width="530" height="250.308" fill="white" transform="translate(-67 6.84601)"/>
        </clipPath>
        <clipPath id="cliphashtagpro2_506_22510">
            <path d="M169.275 34.573C169.403 32.7522 170.982 31.3794 172.803 31.5067L324.456 42.1114C326.277 42.2387 327.65 43.818 327.522 45.6387L318.624 172.896L160.377 161.83L169.275 34.573Z"
                  fill="white"/>
        </clipPath>
        <clipPath id="cliphashtagpro3_506_22510">
            <path d="M169.275 34.573C169.403 32.7522 170.982 31.3794 172.803 31.5067L324.456 42.1114C326.277 42.2387 327.65 43.818 327.522 45.6387L318.624 172.896L160.377 161.83L169.275 34.573Z"
                  fill="white"/>
        </clipPath>
        <clipPath id="cliphashtagpro4_506_22510">
            <path d="M61.8896 51.7922C61.8896 49.9669 63.3693 48.4873 65.1945 48.4873H217.218C219.044 48.4873 220.523 49.9669 220.523 51.7922V179.36H61.8896V51.7922Z"
                  fill="white"/>
        </clipPath>
        <clipPath id="cliphashtagpro5_506_22510">
            <path d="M61.8896 51.7922C61.8896 49.9669 63.3693 48.4873 65.1945 48.4873H217.218C219.044 48.4873 220.523 49.9669 220.523 51.7922V179.36H61.8896V51.7922Z"
                  fill="white"/>
        </clipPath>
    </defs>
</svg>