<svg width="396" height="264" viewBox="0 0 396 264" fill="none" xmlns="http://www.w3.org/2000/svg">
    <g filter="url(#hoverstatefilter0_d_557_20473)">
        <g clip-path="url(#hoverstateclip0_557_20473)">
            <rect x="196.486" y="41.9882" width="139.542" height="147.818" rx="1.74428"
                  transform="rotate(3 196.486 41.9882)" fill="#59AB46"/>
            <path opacity="0.4"
                  d="M207.272 102.814C208.625 102.884 212.65 103.095 217.927 103.372C224.523 103.718 224.523 103.718 230.104 104.01C235.686 104.303 236.7 104.356 250.4 105.074C264.099 105.792 261.562 105.659 268.666 106.031C275.769 106.403 276.784 106.457 289.976 107.148C300.529 107.701 312.977 108.353 317.882 108.61"
                  stroke="white" stroke-width="6.91919"/>
            <path opacity="0.4"
                  d="M208.185 85.3947C209.538 85.4656 213.563 85.6766 218.84 85.9531C225.436 86.2988 225.436 86.2988 231.017 86.5913C236.599 86.8838 237.613 86.937 251.313 87.6549C265.012 88.3729 262.475 88.2399 269.579 88.6122C276.682 88.9845 277.697 89.0376 290.889 89.729C301.442 90.2821 313.89 90.9345 318.795 91.1915"
                  stroke="white" stroke-width="6.91919"/>
            <path opacity="0.4"
                  d="M206.359 120.232C207.711 120.303 211.732 120.514 217.003 120.79C223.592 121.136 223.592 121.136 229.168 121.428C234.743 121.72 234.236 121.693 247.922 122.411C261.607 123.128 260.593 123.075 268.196 123.473"
                  stroke="white" stroke-width="6.91919"/>
            <path d="M272.181 159.772C272.033 159.764 271.895 159.698 271.796 159.589C271.698 159.479 271.647 159.335 271.654 159.187L271.742 157.521L269.52 157.405C269.225 157.389 268.949 157.258 268.752 157.038C268.554 156.819 268.452 156.53 268.468 156.236L268.817 149.571C268.832 149.277 268.964 149 269.183 148.803C269.403 148.605 269.691 148.503 269.986 148.519L278.872 148.984C279.167 149 279.443 149.132 279.64 149.351C279.838 149.57 279.94 149.859 279.925 150.153L279.575 156.818C279.56 157.113 279.428 157.389 279.209 157.586C278.99 157.784 278.701 157.886 278.406 157.87L275.018 157.693L272.855 159.646C272.739 159.745 272.597 159.794 272.458 159.786L272.181 159.772Z"
                  fill="white"/>
            <path d="M287.454 158.704L289.234 158.798L289.684 150.206L287.898 150.113L285.596 151.538L285.513 153.134L287.782 151.76L287.818 151.762L287.454 158.704ZM291.529 158.918L297.774 159.245L297.849 157.816L293.955 157.612L293.959 157.541L295.843 155.992C297.397 154.706 297.927 154.053 297.981 153.011L297.982 152.999C298.059 151.535 296.863 150.433 295.047 150.338C293.231 150.243 291.826 151.31 291.741 152.929L291.739 152.977L293.406 153.064L293.414 153.011C293.479 152.238 294.104 151.692 294.986 151.738C295.748 151.778 296.257 152.306 296.226 153.009L296.226 153.021C296.195 153.616 295.94 154.027 294.779 155.005L291.593 157.685L291.529 158.918Z"
                  fill="white"/>
            <g clip-path="url(#hoverstateclip1_557_20473)">
                <path d="M218.664 146.871C219.194 148.86 218.561 150.822 217.366 152.263C216.576 153.241 215.649 154.071 214.709 154.79C213.84 155.518 211.907 156.946 211.413 156.963C210.983 156.857 210.522 156.34 210.19 156.069C208.33 154.495 206.339 152.595 205.384 150.582C204.596 148.656 204.716 146.331 206.172 144.962C208.045 143.443 210.726 143.899 212.006 145.656C212.398 145.198 212.87 144.847 213.42 144.602C215.64 143.848 217.855 144.851 218.664 146.871Z"
                      fill="white"/>
            </g>
            <path d="M226.488 155.509L228.269 155.602L228.719 147.011L226.933 146.918L224.631 148.343L224.548 149.939L226.816 148.565L226.852 148.567L226.488 155.509ZM230.563 155.723L236.809 156.05L236.884 154.621L232.99 154.417L232.994 154.346L234.878 152.797C236.432 151.511 236.961 150.858 237.016 149.816L237.017 149.804C237.093 148.34 235.897 147.238 234.082 147.143C232.266 147.048 230.861 148.114 230.776 149.734L230.773 149.782L232.44 149.869L232.449 149.816C232.513 149.043 233.139 148.497 234.02 148.543C234.782 148.583 235.292 149.111 235.261 149.814L235.26 149.826C235.229 150.421 234.975 150.832 233.813 151.809L230.628 154.49L230.563 155.723ZM242.229 156.334L243.938 156.424L244.021 154.846L245.152 154.905L245.227 153.47L244.096 153.411L244.388 147.832L241.852 147.699L238.116 153.032L238.037 154.532L242.312 154.756L242.229 156.334ZM239.676 153.227L239.678 153.18L242.606 149.04L242.647 149.043L242.42 153.371L239.676 153.227Z"
                  fill="white"/>
        </g>
    </g>
    <g filter="url(#hoverstatefilter1_d_557_20473)">
        <g clip-path="url(#hoverstateclip2_557_20473)">
            <rect x="63" y="55.1204" width="139.542" height="164.834" rx="1.74428" fill="white"/>
            <path d="M74.5776 156.85C75.7308 156.82 79.1616 156.769 83.6591 156.797C89.2809 156.832 89.2809 156.876 94.0379 156.85C98.7948 156.823 99.6597 156.771 111.336 156.823C123.012 156.876 120.85 156.876 126.904 156.85C132.958 156.823 133.823 156.81 145.067 156.85C154.062 156.881 164.671 156.877 168.852 156.872"
                  stroke="#DCDDE1" stroke-width="6.91919"/>
            <path d="M74.5776 171.754C75.7308 171.729 79.1616 171.685 83.6591 171.709C89.2809 171.739 89.2809 171.777 94.0379 171.754C98.7948 171.731 98.3623 171.709 110.038 171.754C121.715 171.799 120.85 171.789 127.336 171.783"
                  stroke="#DCDDE1" stroke-width="6.91919"/>
            <g clip-path="url(#hoverstateclip3_557_20473)">
                <rect x="72.5933" y="52.5039" width="132.565" height="88.9581" fill="#2C324C"/>
                <circle cx="97.5117" cy="88.7693" r="71.0037" fill="#0068A0"/>
                <circle cx="209.41" cy="160.88" r="73.7586" fill="#FE544F"/>
            </g>
            <path d="M143.009 210.272C142.862 210.272 142.72 210.214 142.616 210.109C142.512 210.005 142.453 209.864 142.453 209.716V208.048H140.229C139.934 208.048 139.651 207.93 139.442 207.722C139.233 207.513 139.116 207.23 139.116 206.935V200.262C139.116 199.967 139.233 199.684 139.442 199.475C139.651 199.266 139.934 199.149 140.229 199.149H149.127C149.422 199.149 149.705 199.266 149.913 199.475C150.122 199.684 150.239 199.967 150.239 200.262V206.935C150.239 207.23 150.122 207.513 149.913 207.722C149.705 207.93 149.422 208.048 149.127 208.048H145.734L143.677 210.111C143.565 210.217 143.426 210.272 143.287 210.272H143.009Z"
                  fill="#434960"/>
            <path d="M158.207 208.407H159.989V199.804H158.201L155.977 201.348V202.946L158.171 201.455H158.207V208.407ZM162.287 208.407H168.541V206.976H164.642V206.904L166.443 205.259C167.927 203.894 168.422 203.214 168.422 202.171V202.159C168.422 200.692 167.17 199.655 165.352 199.655C163.533 199.655 162.186 200.793 162.186 202.415V202.463H163.855L163.861 202.409C163.885 201.634 164.481 201.056 165.364 201.056C166.127 201.056 166.663 201.556 166.669 202.26V202.272C166.669 202.868 166.437 203.291 165.328 204.329L162.287 207.173V208.407Z"
                  fill="#434960"/>
            <g clip-path="url(#hoverstateclip4_557_20473)">
                <path d="M88.8934 200.19C89.5271 202.148 88.9967 204.141 87.879 205.642C87.1412 206.66 86.2595 207.538 85.358 208.305C84.5286 209.077 82.6726 210.605 82.1806 210.647C81.7458 210.564 81.2578 210.072 80.9126 209.819C78.9728 208.344 76.8846 206.551 75.8258 204.591C74.9381 202.708 74.9365 200.38 76.3181 198.937C78.1096 197.322 80.8104 197.637 82.1806 199.325C82.5486 198.847 83.001 198.472 83.5381 198.199C85.7151 197.33 87.9798 198.215 88.8934 200.19Z"
                      fill="#434960"/>
            </g>
            <path d="M97.1573 208.407H98.9399V199.804H97.1514L94.9276 201.348V202.946L97.1216 201.455H97.1573V208.407ZM101.238 208.407H107.492V206.976H103.593V206.904L105.393 205.259C106.878 203.894 107.373 203.214 107.373 202.171V202.159C107.373 200.692 106.121 199.655 104.302 199.655C102.484 199.655 101.137 200.793 101.137 202.415V202.463H102.806L102.812 202.409C102.836 201.634 103.432 201.056 104.314 201.056C105.077 201.056 105.614 201.556 105.62 202.26V202.272C105.62 202.868 105.387 203.291 104.278 204.329L101.238 207.173V208.407ZM112.92 208.407H114.631V206.827H115.764V205.39H114.631V199.804H112.091L108.639 205.324V206.827H112.92V208.407ZM110.207 205.438V205.39L112.914 201.103H112.956V205.438H110.207Z"
                  fill="#434960"/>
        </g>
    </g>
    <path d="M293.823 189.298L293.89 188.027L292.48 187.953L292.546 186.682L289.727 186.534L289.793 185.263L285.564 185.041L285.63 183.77L282.811 183.623L283.077 178.539L281.667 178.465L281.734 177.194L278.914 177.046L278.848 178.317L277.438 178.243L276.838 189.682L275.429 189.608L275.495 188.337L271.266 188.115L270.999 193.199L272.409 193.273L272.276 195.815L273.686 195.889L273.553 198.431L274.962 198.505L274.829 201.047L276.239 201.121L276.039 204.934L291.547 205.746L291.814 200.663L293.224 200.736L293.423 196.923L292.014 196.85L291.814 200.663L290.404 200.589L290.204 204.402L277.516 203.737L277.649 201.195L276.239 201.121L276.372 198.579L274.962 198.505L275.096 195.963L273.686 195.889L273.819 193.347L272.409 193.273L272.609 189.46L275.429 189.608L275.362 190.879L276.772 190.953L276.572 194.766L277.982 194.84L278.848 178.317L281.667 178.465L281.068 189.904L282.478 189.977L282.744 184.894L285.564 185.041L285.297 190.125L286.707 190.199L286.907 186.386L289.727 186.534L289.46 191.618L290.87 191.692L291.07 187.879L292.48 187.953L292.413 189.224L293.823 189.298L293.423 196.923L294.833 196.997L295.233 189.371L293.823 189.298Z"
          fill="#141B38"/>
    <path d="M292.014 196.85L293.424 196.923L293.823 189.298L292.413 189.224L292.48 187.953L291.07 187.879L290.87 191.692L289.461 191.618L289.727 186.534L286.907 186.386L286.708 190.199L285.298 190.125L285.564 185.041L282.745 184.894L282.478 189.977L281.068 189.904L281.668 178.465L278.848 178.317L277.982 194.84L276.572 194.766L276.772 190.953L275.362 190.879L275.429 189.608L272.609 189.46L272.409 193.273L273.819 193.347L273.686 195.889L275.096 195.963L274.963 198.505L276.372 198.579L276.239 201.121L277.649 201.195L277.516 203.737L290.204 204.402L290.404 200.589L291.814 200.663L292.014 196.85Z"
          fill="white"/>
    <path fill-rule="evenodd" clip-rule="evenodd"
          d="M280.869 193.717L282.278 193.791L281.964 199.782L280.555 199.708L280.869 193.717ZM285.098 193.938L283.688 193.864L283.374 199.856L284.784 199.93L285.098 193.938ZM287.917 194.086L286.507 194.012L286.193 200.004L287.603 200.078L287.917 194.086Z"
          fill="#141B38"/>
    <defs>
        <filter id="hoverstatefilter0_d_557_20473" x="181.831" y="38.5286" width="160.926" height="168.757"
                filterUnits="userSpaceOnUse" color-interpolation-filters="sRGB">
            <feFlood flood-opacity="0" result="BackgroundImageFix"/>
            <feColorMatrix in="SourceAlpha" type="matrix" values="0 0 0 0 0 0 0 0 0 0 0 0 0 0 0 0 0 0 127 0"
                           result="hardAlpha"/>
            <feMorphology radius="2.5947" operator="erode" in="SourceAlpha" result="effect1_dropShadow_557_20473"/>
            <feOffset dy="3.45959"/>
            <feGaussianBlur stdDeviation="4.75694"/>
            <feColorMatrix type="matrix" values="0 0 0 0 0 0 0 0 0 0 0 0 0 0 0 0 0 0 0.25 0"/>
            <feBlend mode="normal" in2="BackgroundImageFix" result="effect1_dropShadow_557_20473"/>
            <feBlend mode="normal" in="SourceGraphic" in2="effect1_dropShadow_557_20473" result="shape"/>
        </filter>
        <filter id="hoverstatefilter1_d_557_20473" x="56.0808" y="51.6608" width="153.38" height="178.672"
                filterUnits="userSpaceOnUse" color-interpolation-filters="sRGB">
            <feFlood flood-opacity="0" result="BackgroundImageFix"/>
            <feColorMatrix in="SourceAlpha" type="matrix" values="0 0 0 0 0 0 0 0 0 0 0 0 0 0 0 0 0 0 127 0"
                           result="hardAlpha"/>
            <feMorphology radius="2.5947" operator="erode" in="SourceAlpha" result="effect1_dropShadow_557_20473"/>
            <feOffset dy="3.45959"/>
            <feGaussianBlur stdDeviation="4.75694"/>
            <feColorMatrix type="matrix" values="0 0 0 0 0 0 0 0 0 0 0 0 0 0 0 0 0 0 0.25 0"/>
            <feBlend mode="normal" in2="BackgroundImageFix" result="effect1_dropShadow_557_20473"/>
            <feBlend mode="normal" in="SourceGraphic" in2="effect1_dropShadow_557_20473" result="shape"/>
        </filter>
        <clipPath id="hoverstateclip0_557_20473">
            <rect x="196.486" y="41.9882" width="139.542" height="147.818" rx="1.74428"
                  transform="rotate(3 196.486 41.9882)" fill="white"/>
        </clipPath>
        <clipPath id="hoverstateclip1_557_20473">
            <rect width="13.9542" height="13.9542" fill="white" transform="translate(205.154 143.248) rotate(3)"/>
        </clipPath>
        <clipPath id="hoverstateclip2_557_20473">
            <rect x="63" y="55.1204" width="139.542" height="164.834" rx="1.74428" fill="white"/>
        </clipPath>
        <clipPath id="hoverstateclip3_557_20473">
            <rect width="139.542" height="86.3416" fill="white" transform="translate(62.9998 55.1204)"/>
        </clipPath>
        <clipPath id="hoverstateclip4_557_20473">
            <rect width="13.9542" height="13.9542" fill="white" transform="translate(75.21 197.279)"/>
        </clipPath>
    </defs>
</svg>