<svg width="396" height="264" viewBox="0 0 396 264" fill="none" xmlns="http://www.w3.org/2000/svg">
    <g filter="url(#shoppablefeedfilter0_d_557_17550)">
        <rect x="234.717" y="38.2059" width="143" height="158.889" rx="2" transform="rotate(4 234.717 38.2059)"
              fill="white"/>
    </g>
    <rect width="143" height="82.0926" transform="translate(234.717 38.2059) rotate(4)" fill="#E8E8EB"/>
    <g filter="url(#shoppablefeedfilter1_dd_557_17550)">
        <mask id="shoppablefeedmask0_557_17550" style="mask-type:alpha" maskUnits="userSpaceOnUse" x="266" y="53"
              width="80" height="62">
            <path fill-rule="evenodd" clip-rule="evenodd"
                  d="M315.226 54.937C315.099 58.5599 310.591 61.343 305.157 61.1533C299.723 60.9635 295.42 57.8727 295.546 54.2498C295.546 54.2498 295.546 54.2497 295.546 54.2497L286.163 53.922C286.057 53.9183 285.951 53.9404 285.856 53.9863L278.402 57.5651C278.37 57.5802 278.351 57.6124 278.352 57.6471C278.35 57.62 278.321 57.6035 278.297 57.6159L266.724 63.5265C266.477 63.6528 266.336 63.921 266.372 64.1964L268.295 78.8772C268.344 79.2535 268.701 79.5097 269.073 79.4357L278.317 77.5986C278.714 77.5198 279.086 77.8146 279.101 78.2185L280.339 112.219C280.352 112.563 280.628 112.839 280.972 112.851L326.982 114.458C327.326 114.47 327.621 114.214 327.657 113.872L331.266 80.0236C331.308 79.6249 331.695 79.3572 332.083 79.4578L341.845 81.9875C342.209 82.0819 342.578 81.8513 342.653 81.4825L345.594 66.9741C345.651 66.6966 345.523 66.4143 345.277 66.2738L333.503 59.5421C333.48 59.5288 333.45 59.5433 333.447 59.57C333.45 59.5361 333.433 59.5032 333.404 59.4863L326.216 55.3957C326.124 55.3432 326.021 55.3139 325.915 55.3102L315.226 54.9369C315.226 54.9369 315.226 54.937 315.226 54.937Z"
                  fill="white"/>
        </mask>
        <g mask="url(#shoppablefeedmask0_557_17550)">
            <rect x="261.444" y="49.1168" width="94.5192" height="70.8894" transform="rotate(4 261.444 49.1168)"
                  fill="white"/>
            <path fill-rule="evenodd" clip-rule="evenodd"
                  d="M304.293 77.7265C302.782 76.9164 301.23 75.7559 299.747 75.1625C300.196 76.4854 300.555 77.8865 300.931 79.2729C299.943 79.9127 298.808 80.3837 297.719 80.9071C298.549 81.8507 299.776 82.4491 300.728 83.2863C299.853 84.2243 298.197 85.147 297.749 86.0211C299.431 85.9288 301.399 85.7258 302.956 85.7657C303.177 87.5038 303.222 89.3956 303.597 90.9999C304.464 88.9723 305.268 86.8705 306.263 84.99C307.552 85.6316 309.122 86.4139 310.395 86.828C309.575 85.4894 308.84 84.0769 308.131 82.6421C309.383 81.8618 310.648 81.0961 311.86 80.2694C310.247 80.0064 308.572 79.7978 306.872 79.6108C306.724 77.8331 306.942 75.7372 306.638 74.0953C305.915 75.3731 305.086 76.5293 304.293 77.7265ZM304.045 92.3479C303.766 93.2504 304.446 93.6761 304.301 94.2247C303.62 93.9356 303.104 93.7755 302.159 93.8425C302.238 93.1288 302.889 93.0725 302.817 92.1846C292.92 90.3527 294.16 72.3239 304.157 71.908C316.657 71.388 315.549 92.832 304.045 92.3479Z"
                  fill="#FE544F"/>
            <path fill-rule="evenodd" clip-rule="evenodd"
                  d="M306.638 74.0951C306.942 75.7371 306.724 77.833 306.872 79.6107C308.572 79.7977 310.247 80.0062 311.86 80.2693C310.648 81.096 309.383 81.8617 308.131 82.642C308.84 84.0768 309.575 85.4893 310.395 86.8279C309.122 86.4138 307.552 85.6315 306.263 84.9899C305.268 86.8704 304.464 88.9721 303.597 90.9997C303.221 89.3955 303.177 87.5037 302.956 85.7655C301.399 85.7257 299.431 85.9287 297.749 86.021C298.197 85.1469 299.853 84.2242 300.728 83.2861C299.776 82.449 298.549 81.8506 297.719 80.907C298.808 80.3836 299.943 79.9126 300.931 79.2727C300.555 77.8864 300.196 76.4853 299.747 75.1624C301.23 75.7557 302.782 76.9163 304.293 77.7264C305.086 76.5292 305.915 75.3729 306.638 74.0951Z"
                  fill="white"/>
        </g>
    </g>
    <path d="M245.82 168.987C245.767 169.739 245.479 170.369 244.954 170.878C244.429 171.387 243.773 171.678 242.987 171.751L242.896 173.041C242.892 173.11 242.866 173.165 242.819 173.206C242.771 173.247 242.714 173.266 242.645 173.261L241.655 173.192C241.591 173.187 241.538 173.16 241.494 173.11C241.451 173.06 241.432 173.003 241.436 172.939L241.526 171.649C241.207 171.583 240.9 171.485 240.607 171.355C240.313 171.226 240.073 171.1 239.885 170.975C239.697 170.851 239.524 170.721 239.367 170.584C239.209 170.447 239.102 170.347 239.045 170.283C238.988 170.22 238.948 170.173 238.926 170.142C238.85 170.033 238.852 169.932 238.932 169.838L239.757 168.896C239.795 168.849 239.853 168.824 239.932 168.82C240.006 168.815 240.064 168.841 240.104 168.898L240.118 168.914C240.636 169.439 241.209 169.788 241.836 169.96C242.014 170.012 242.194 170.044 242.375 170.057C242.771 170.085 243.127 170.003 243.443 169.813C243.759 169.623 243.93 169.334 243.957 168.945C243.967 168.808 243.939 168.675 243.874 168.547C243.81 168.419 243.735 168.31 243.65 168.22C243.566 168.131 243.429 168.028 243.24 167.914C243.052 167.8 242.896 167.71 242.772 167.644C242.649 167.579 242.459 167.485 242.202 167.364C242.017 167.272 241.871 167.2 241.764 167.148C241.657 167.096 241.511 167.02 241.326 166.921C241.141 166.822 240.994 166.735 240.883 166.66C240.773 166.586 240.641 166.489 240.487 166.37C240.333 166.25 240.21 166.137 240.116 166.029C240.023 165.921 239.925 165.793 239.823 165.645C239.72 165.498 239.643 165.349 239.592 165.2C239.541 165.051 239.501 164.884 239.472 164.699C239.443 164.514 239.436 164.321 239.45 164.12C239.497 163.441 239.779 162.864 240.294 162.386C240.809 161.909 241.456 161.623 242.234 161.529L242.327 160.202C242.331 160.139 242.358 160.085 242.408 160.042C242.458 159.998 242.515 159.979 242.578 159.983L243.569 160.052C243.637 160.057 243.692 160.083 243.733 160.13C243.774 160.178 243.792 160.236 243.787 160.305L243.696 161.602C243.973 161.651 244.24 161.726 244.495 161.828C244.751 161.93 244.958 162.027 245.117 162.12C245.275 162.212 245.424 162.315 245.563 162.429C245.703 162.542 245.793 162.62 245.834 162.662C245.876 162.705 245.91 162.742 245.937 162.773C246.014 162.868 246.02 162.962 245.954 163.056L245.285 164.091C245.24 164.162 245.181 164.197 245.108 164.197C245.038 164.207 244.973 164.185 244.913 164.131C244.9 164.115 244.866 164.083 244.813 164.035C244.76 163.987 244.669 163.915 244.54 163.82C244.412 163.725 244.274 163.636 244.128 163.554C243.981 163.472 243.803 163.396 243.594 163.324C243.386 163.253 243.178 163.21 242.973 163.196C242.508 163.163 242.122 163.242 241.813 163.433C241.505 163.624 241.339 163.886 241.316 164.22C241.307 164.348 241.319 164.468 241.353 164.579C241.388 164.69 241.453 164.797 241.549 164.9C241.645 165.003 241.736 165.09 241.821 165.163C241.907 165.236 242.039 165.321 242.216 165.42C242.394 165.519 242.537 165.596 242.646 165.65C242.756 165.705 242.922 165.784 243.146 165.889C243.398 166.005 243.591 166.097 243.724 166.163C243.857 166.229 244.037 166.328 244.264 166.46C244.49 166.592 244.668 166.709 244.796 166.812C244.924 166.914 245.067 167.048 245.225 167.212C245.383 167.376 245.502 167.541 245.581 167.707C245.661 167.873 245.724 168.067 245.773 168.287C245.821 168.508 245.837 168.741 245.82 168.987Z"
          fill="#0068A0"/>
    <rect x="240.659" y="143.036" width="74.1481" height="10.5926" transform="rotate(4 240.659 143.036)"
          fill="#DCDDE1"/>
    <rect x="252.575" y="162.452" width="32.6605" height="10.5926" transform="rotate(4 252.575 162.452)"
          fill="#BFE8FF"/>
    <rect x="328.66" y="112.025" width="33.5432" height="33.5432" rx="16.7716" transform="rotate(4 328.66 112.025)"
          fill="#FE544F"/>
    <g clip-path="url(#shoppablefeedclip0_557_17550)">
        <path d="M338.611 121.57C338.377 121.554 338.147 121.631 337.97 121.784C337.794 121.938 337.685 122.155 337.669 122.389C337.653 122.622 337.73 122.853 337.883 123.03C338.037 123.206 338.254 123.315 338.488 123.331L339.562 123.406L339.756 124.501C339.757 124.514 339.759 124.526 339.762 124.539L340.623 129.404L339.782 130.134C338.595 131.166 339.248 133.118 340.817 133.227L348.377 133.756C348.611 133.772 348.841 133.695 349.018 133.542C349.195 133.388 349.303 133.171 349.319 132.937C349.336 132.704 349.259 132.473 349.105 132.296C348.952 132.12 348.734 132.011 348.5 131.995L340.94 131.466L341.882 130.647L347.682 131.053C347.845 131.064 348.008 131.03 348.153 130.954C348.299 130.877 348.419 130.762 348.503 130.621L351.514 125.522C351.59 125.393 351.632 125.246 351.636 125.096C351.64 124.945 351.605 124.796 351.535 124.663C351.465 124.53 351.363 124.417 351.237 124.335C351.111 124.252 350.966 124.204 350.816 124.193L341.376 123.533L341.18 122.419C341.145 122.226 341.047 122.049 340.901 121.917C340.755 121.786 340.568 121.707 340.372 121.693L338.611 121.57Z"
              fill="white"/>
        <path d="M349.104 136.019C349.08 136.369 348.917 136.696 348.652 136.926C348.387 137.156 348.041 137.272 347.691 137.248C347.34 137.223 347.014 137.06 346.784 136.795C346.553 136.53 346.438 136.185 346.462 135.834C346.487 135.484 346.649 135.158 346.915 134.928C347.18 134.697 347.525 134.581 347.876 134.606C348.226 134.63 348.552 134.793 348.782 135.058C349.013 135.323 349.129 135.669 349.104 136.019Z"
              fill="white"/>
        <path d="M340.646 136.755C340.996 136.78 341.342 136.664 341.607 136.433C341.872 136.203 342.035 135.877 342.059 135.527C342.084 135.176 341.968 134.831 341.738 134.566C341.507 134.3 341.181 134.138 340.831 134.113C340.48 134.089 340.135 134.204 339.87 134.435C339.605 134.665 339.442 134.992 339.417 135.342C339.393 135.692 339.509 136.038 339.739 136.303C339.969 136.568 340.296 136.731 340.646 136.755Z"
              fill="white"/>
    </g>
    <path d="M355.663 146.817L355.732 145.836L354.644 145.76L354.712 144.78L352.537 144.628L352.605 143.647L349.342 143.419L349.411 142.438L347.235 142.286L347.509 138.363L346.422 138.287L346.49 137.307L344.315 137.155L344.246 138.135L343.158 138.059L342.541 146.885L341.454 146.809L341.522 145.828L338.259 145.6L337.985 149.523L339.072 149.599L338.935 151.56L340.023 151.636L339.886 153.597L340.974 153.673L340.836 155.634L341.924 155.711L341.718 158.652L353.684 159.489L353.958 155.567L355.046 155.643L355.252 152.701L354.164 152.625L353.958 155.567L352.87 155.491L352.665 158.432L342.875 157.748L343.012 155.787L341.924 155.711L342.061 153.749L340.974 153.673L341.111 151.712L340.023 151.636L340.16 149.675L339.072 149.599L339.278 146.657L341.454 146.809L341.385 147.789L342.473 147.866L342.267 150.807L343.355 150.883L344.246 138.135L346.422 138.287L345.805 147.113L346.892 147.189L347.167 143.267L349.342 143.419L349.068 147.341L350.156 147.417L350.361 144.475L352.537 144.628L352.263 148.55L353.35 148.626L353.556 145.684L354.644 145.76L354.575 146.741L355.663 146.817L355.252 152.701L356.339 152.777L356.751 146.893L355.663 146.817Z"
          fill="#141B38"/>
    <path d="M354.164 152.625L355.252 152.701L355.663 146.817L354.576 146.741L354.644 145.76L353.556 145.684L353.351 148.626L352.263 148.55L352.537 144.628L350.362 144.476L350.156 147.417L349.068 147.341L349.342 143.419L347.167 143.267L346.893 147.189L345.805 147.113L346.422 138.287L344.247 138.135L343.355 150.884L342.267 150.807L342.473 147.866L341.385 147.79L341.454 146.809L339.278 146.657L339.073 149.599L340.16 149.675L340.023 151.636L341.111 151.712L340.974 153.673L342.062 153.749L341.924 155.711L343.012 155.787L342.875 157.748L352.665 158.433L352.871 155.491L353.958 155.567L354.164 152.625Z"
          fill="white"/>
    <path fill-rule="evenodd" clip-rule="evenodd"
          d="M345.6 150.055L346.687 150.131L346.364 154.754L345.276 154.678L345.6 150.055ZM348.861 150.283L347.774 150.207L347.45 154.83L348.538 154.906L348.861 150.283ZM351.037 150.435L349.949 150.359L349.626 154.982L350.714 155.058L351.037 150.435Z"
          fill="#141B38"/>
    <g filter="url(#shoppablefeedfilter2_d_557_17550)">
        <g clip-path="url(#shoppablefeedclip1_557_17550)">
            <rect x="19.4355" y="57.3804" width="135.359" height="149.741" rx="1.66935"
                  transform="rotate(-4 19.4355 57.3804)" fill="white"/>
            <path d="M40.0569 158.253C41.1801 158.146 44.5242 157.862 48.9146 157.582C54.4026 157.233 54.4056 157.275 59.0454 156.925C63.6853 156.575 64.5256 156.465 75.9223 155.719C87.319 154.974 85.2092 155.121 91.115 154.683C97.0207 154.244 97.8637 154.172 108.838 153.443C117.617 152.86 127.969 152.133 132.047 151.842"
                  stroke="#DCDDE1" stroke-width="6.76797"/>
            <path d="M41.2028 174.638C42.3263 174.535 45.6709 174.258 50.061 173.974C55.5487 173.62 55.5512 173.657 60.1913 173.31C64.8314 172.964 64.4079 172.971 75.8041 172.219C87.2003 171.466 86.3557 171.515 92.6848 171.066"
                  stroke="#DCDDE1" stroke-width="6.76797"/>
            <g clip-path="url(#shoppablefeedclip2_557_17550)">
                <rect x="28.8848" y="56.2416" width="126" height="85" transform="rotate(-4 28.8848 56.2416)"
                      fill="#2C324C"/>
                <circle cx="55.061" cy="87.8833" r="69.4519" transform="rotate(-4 55.061 87.8833)" fill="#0068A0"/>
                <circle cx="169.165" cy="150.611" r="72.1466" transform="rotate(-4 169.165 150.611)" fill="#FE544F"/>
                <g filter="url(#shoppablefeedfilter3_dd_557_17550)">
                    <mask id="shoppablefeedmask1_557_17550" style="mask-type:alpha" maskUnits="userSpaceOnUse" x="48"
                          y="63" width="85" height="66">
                        <path fill-rule="evenodd" clip-rule="evenodd"
                              d="M99.0497 64.5008C99.3159 68.3075 94.9027 71.7172 89.1926 72.1164C83.4825 72.5157 78.6378 69.7535 78.3716 65.9467C78.3716 65.9467 78.3716 65.9467 78.3715 65.9467L68.5145 66.6359C68.4031 66.6437 68.2952 66.6784 68.2002 66.737L60.7405 71.3345C60.7395 71.3351 60.739 71.3362 60.7391 71.3374C60.739 71.3365 60.7379 71.336 60.7372 71.3365L49.2225 78.8298C48.9775 78.9893 48.8594 79.2856 48.9274 79.5698L52.5559 94.7276C52.6489 95.1162 53.0511 95.3451 53.4327 95.2267L62.9064 92.2867C63.3127 92.1606 63.7354 92.4282 63.7952 92.8495L68.8327 128.308C68.8837 128.667 69.2033 128.925 69.5649 128.9L117.909 125.52C118.27 125.494 118.551 125.194 118.552 124.831L118.605 88.9987C118.606 88.5767 118.981 88.2538 119.399 88.3164L129.898 89.8909C130.289 89.9496 130.65 89.6677 130.688 89.2734L132.171 73.7607C132.2 73.4641 132.035 73.1826 131.762 73.0626L118.741 67.3309C118.693 67.3098 118.639 67.3439 118.637 67.3962C118.638 67.3298 118.598 67.2696 118.537 67.2429L110.609 63.7715C110.507 63.7267 110.395 63.7074 110.284 63.7152L99.0498 64.5007C99.0497 64.5007 99.0497 64.5007 99.0497 64.5008Z"
                              fill="white"/>
                    </mask>
                    <g mask="url(#shoppablefeedmask1_557_17550)">
                        <rect x="42.1084" y="64.3252" width="99.4973" height="74.623"
                              transform="rotate(-2 42.1084 64.3252)" fill="white"/>
                        <path fill-rule="evenodd" clip-rule="evenodd"
                              d="M90.1159 89.5619C88.4449 88.8801 86.6928 87.8358 85.0752 87.3778C85.6909 88.7134 86.221 90.1407 86.7672 91.5507C85.8032 92.3293 84.6669 92.9472 83.584 93.6151C84.5566 94.5116 85.907 95.0031 86.9961 95.7747C86.1829 96.853 84.5514 98.0011 84.1777 98.9657C85.9293 98.6838 87.9668 98.2548 89.6011 98.1252C90.0239 99.9205 90.2786 101.896 90.848 103.534C91.5332 101.316 92.1429 99.0275 92.9782 96.9493C94.3977 97.4792 96.1277 98.1254 97.5056 98.4189C96.5002 97.1077 95.5757 95.7098 94.6756 94.2857C95.9006 93.331 97.1405 92.3903 98.3182 91.3914C96.6009 91.2935 94.824 91.2595 93.0233 91.2508C92.6728 89.406 92.6705 87.1879 92.1715 85.5023C91.5551 86.9196 90.8146 88.2213 90.1159 89.5619ZM91.4652 104.896C91.273 105.872 92.0317 106.243 91.9398 106.833C91.1955 106.605 90.6377 106.494 89.6553 106.669C89.6598 105.913 90.335 105.782 90.1619 104.86C79.5989 104.032 78.9138 85.0208 89.334 83.4854C102.363 81.5656 103.562 104.137 91.4652 104.896Z"
                              fill="#FE544F"/>
                        <path fill-rule="evenodd" clip-rule="evenodd"
                              d="M92.1716 85.5022C92.6706 87.1877 92.6729 89.4059 93.0234 91.2507C94.824 91.2593 96.601 91.2933 98.3183 91.3913C97.1406 92.3901 95.9007 93.3309 94.6757 94.2855C95.5758 95.7097 96.5003 97.1075 97.5057 98.4187C96.1278 98.1252 94.3978 97.479 92.9782 96.9491C92.143 99.0274 91.5333 101.316 90.8481 103.534C90.2787 101.896 90.024 99.9204 89.6012 98.125C87.9669 98.2547 85.9294 98.6837 84.1778 98.9655C84.5514 98.001 86.183 96.8528 86.9962 95.7745C85.907 95.0029 84.5567 94.5115 83.584 93.6149C84.6669 92.9471 85.8032 92.3291 86.7673 91.5505C86.2211 90.1405 85.691 88.7132 85.0753 87.3776C86.6928 87.8357 88.445 88.8799 90.116 89.5618C90.8147 88.2211 91.5551 86.9195 92.1716 85.5022Z"
                              fill="white"/>
                    </g>
                </g>
            </g>
        </g>
    </g>
    <path d="M169 126C178.5 138 207.5 138 214 128" stroke="#8C8F9A" stroke-width="2" stroke-dasharray="3 3"/>
    <path d="M212.852 124.415L218.453 123.627L218.442 128.627L212.852 124.415Z" fill="#8C8F9A"/>
    <defs>
        <filter id="shoppablefeedfilter0_d_557_17550" x="216.61" y="34.7618" width="167.782" height="182.523"
                filterUnits="userSpaceOnUse" color-interpolation-filters="sRGB">
            <feFlood flood-opacity="0" result="BackgroundImageFix"/>
            <feColorMatrix in="SourceAlpha" type="matrix" values="0 0 0 0 0 0 0 0 0 0 0 0 0 0 0 0 0 0 127 0"
                           result="hardAlpha"/>
            <feMorphology radius="2.68407" operator="erode" in="SourceAlpha" result="effect1_dropShadow_557_17550"/>
            <feOffset dy="3.57876"/>
            <feGaussianBlur stdDeviation="4.92079"/>
            <feColorMatrix type="matrix" values="0 0 0 0 0 0 0 0 0 0 0 0 0 0 0 0 0 0 0.25 0"/>
            <feBlend mode="normal" in2="BackgroundImageFix" result="effect1_dropShadow_557_17550"/>
            <feBlend mode="normal" in="SourceGraphic" in2="effect1_dropShadow_557_17550" result="shape"/>
        </filter>
        <filter id="shoppablefeedfilter1_dd_557_17550" x="262.428" y="49.9833" width="89.7433" height="71.0389"
                filterUnits="userSpaceOnUse" color-interpolation-filters="sRGB">
            <feFlood flood-opacity="0" result="BackgroundImageFix"/>
            <feColorMatrix in="SourceAlpha" type="matrix" values="0 0 0 0 0 0 0 0 0 0 0 0 0 0 0 0 0 0 127 0"
                           result="hardAlpha"/>
            <feOffset dx="1.31277" dy="1.31277"/>
            <feGaussianBlur stdDeviation="2.62553"/>
            <feColorMatrix type="matrix" values="0 0 0 0 0 0 0 0 0 0 0 0 0 0 0 0 0 0 0.13 0"/>
            <feBlend mode="normal" in2="BackgroundImageFix" result="effect1_dropShadow_557_17550"/>
            <feColorMatrix in="SourceAlpha" type="matrix" values="0 0 0 0 0 0 0 0 0 0 0 0 0 0 0 0 0 0 127 0"
                           result="hardAlpha"/>
            <feOffset dy="0.656383"/>
            <feGaussianBlur stdDeviation="0.328192"/>
            <feColorMatrix type="matrix" values="0 0 0 0 0 0 0 0 0 0 0 0 0 0 0 0 0 0 0.15 0"/>
            <feBlend mode="normal" in2="effect1_dropShadow_557_17550" result="effect2_dropShadow_557_17550"/>
            <feBlend mode="normal" in="SourceGraphic" in2="effect2_dropShadow_557_17550" result="shape"/>
        </filter>
        <filter id="shoppablefeedfilter2_d_557_17550" x="12.6676" y="44.5542" width="159.011" height="172.355"
                filterUnits="userSpaceOnUse" color-interpolation-filters="sRGB">
            <feFlood flood-opacity="0" result="BackgroundImageFix"/>
            <feColorMatrix in="SourceAlpha" type="matrix" values="0 0 0 0 0 0 0 0 0 0 0 0 0 0 0 0 0 0 127 0"
                           result="hardAlpha"/>
            <feMorphology radius="2.53799" operator="erode" in="SourceAlpha" result="effect1_dropShadow_557_17550"/>
            <feOffset dy="3.38398"/>
            <feGaussianBlur stdDeviation="4.65298"/>
            <feColorMatrix type="matrix" values="0 0 0 0 0 0 0 0 0 0 0 0 0 0 0 0 0 0 0.25 0"/>
            <feBlend mode="normal" in2="BackgroundImageFix" result="effect1_dropShadow_557_17550"/>
            <feBlend mode="normal" in="SourceGraphic" in2="effect1_dropShadow_557_17550" result="shape"/>
        </filter>
        <filter id="shoppablefeedfilter3_dd_557_17550" x="44.7625" y="59.5677" width="94.3219" height="76.2436"
                filterUnits="userSpaceOnUse" color-interpolation-filters="sRGB">
            <feFlood flood-opacity="0" result="BackgroundImageFix"/>
            <feColorMatrix in="SourceAlpha" type="matrix" values="0 0 0 0 0 0 0 0 0 0 0 0 0 0 0 0 0 0 127 0"
                           result="hardAlpha"/>
            <feOffset dx="1.38191" dy="1.38191"/>
            <feGaussianBlur stdDeviation="2.76381"/>
            <feColorMatrix type="matrix" values="0 0 0 0 0 0 0 0 0 0 0 0 0 0 0 0 0 0 0.13 0"/>
            <feBlend mode="normal" in2="BackgroundImageFix" result="effect1_dropShadow_557_17550"/>
            <feColorMatrix in="SourceAlpha" type="matrix" values="0 0 0 0 0 0 0 0 0 0 0 0 0 0 0 0 0 0 127 0"
                           result="hardAlpha"/>
            <feOffset dy="0.690954"/>
            <feGaussianBlur stdDeviation="0.345477"/>
            <feColorMatrix type="matrix" values="0 0 0 0 0 0 0 0 0 0 0 0 0 0 0 0 0 0 0.15 0"/>
            <feBlend mode="normal" in2="effect1_dropShadow_557_17550" result="effect2_dropShadow_557_17550"/>
            <feBlend mode="normal" in="SourceGraphic" in2="effect2_dropShadow_557_17550" result="shape"/>
        </filter>
        <clipPath id="shoppablefeedclip0_557_17550">
            <rect width="17.6543" height="17.6543" fill="white" transform="translate(336.031 120.505) rotate(4)"/>
        </clipPath>
        <clipPath id="shoppablefeedclip1_557_17550">
            <rect x="19.4355" y="57.3804" width="135.359" height="149.741" rx="1.66935"
                  transform="rotate(-4 19.4355 57.3804)" fill="white"/>
        </clipPath>
        <clipPath id="shoppablefeedclip2_557_17550">
            <rect width="136" height="85" fill="white" transform="translate(18.9092 56.9391) rotate(-4)"/>
        </clipPath>
    </defs>
</svg>