<svg width="397" height="264" viewBox="0 0 397 264" fill="none" xmlns="http://www.w3.org/2000/svg">
    <g clip-path="url(#clip0)">
        <g filter="url(#filter0_ddd)">
            <rect x="18.957" y="63" width="113.812" height="129.461" rx="2.8453" fill="white"/>
        </g>
        <g clip-path="url(#clip1)">
            <path d="M18.957 63H132.769V176.812H18.957V63Z" fill="#0068A0"/>
            <rect x="56.957" y="106" width="105" height="105" rx="9" fill="#005B8C"/>
        </g>
        <path d="M36.0293 165.701C31.4649 165.701 27.7305 169.427 27.7305 174.017C27.7305 178.166 30.7678 181.61 34.7347 182.232V176.423H32.6268V174.017H34.7347V172.183C34.7347 170.1 35.9712 168.954 37.8716 168.954C38.7762 168.954 39.7222 169.112 39.7222 169.112V171.162H38.6766C37.6475 171.162 37.3239 171.801 37.3239 172.456V174.017H39.6309L39.2575 176.423H37.3239V182.232C39.2794 181.924 41.0602 180.926 42.3446 179.419C43.629 177.913 44.3325 175.996 44.3281 174.017C44.3281 169.427 40.5936 165.701 36.0293 165.701Z"
              fill="#006BFA"/>
        <rect x="53.1016" y="169.699" width="41.2569" height="9.95855" rx="1.42265" fill="#D0D1D7"/>
        <g filter="url(#filter1_ddd)">
            <rect x="18.957" y="201" width="113.812" height="129.461" rx="2.8453" fill="white"/>
        </g>
        <g clip-path="url(#clip2)">
            <path d="M18.957 201H132.769V314.812H18.957V201Z" fill="#EC352F"/>
            <circle cx="23.957" cy="243" r="59" fill="#FE544F"/>
        </g>
        <g filter="url(#filter2_ddd)">
            <rect x="139.957" y="23" width="113.812" height="129.461" rx="2.8453" fill="white"/>
        </g>
        <g clip-path="url(#clip3)">
            <path d="M139.957 23H253.769V136.812H139.957V23Z" fill="#8C8F9A"/>
            <circle cx="127.457" cy="142.5" r="78.5" fill="#D0D1D7"/>
        </g>
        <path d="M157.026 129.493C154.537 129.493 152.553 131.516 152.553 133.967C152.553 136.456 154.537 138.44 157.026 138.44C159.477 138.44 161.5 136.456 161.5 133.967C161.5 131.516 159.477 129.493 157.026 129.493ZM157.026 136.884C155.431 136.884 154.109 135.601 154.109 133.967C154.109 132.372 155.392 131.088 157.026 131.088C158.621 131.088 159.905 132.372 159.905 133.967C159.905 135.601 158.621 136.884 157.026 136.884ZM162.706 129.338C162.706 128.754 162.239 128.287 161.655 128.287C161.072 128.287 160.605 128.754 160.605 129.338C160.605 129.921 161.072 130.388 161.655 130.388C162.239 130.388 162.706 129.921 162.706 129.338ZM165.662 130.388C165.584 128.987 165.273 127.743 164.262 126.731C163.25 125.72 162.005 125.409 160.605 125.331C159.166 125.253 154.848 125.253 153.408 125.331C152.008 125.409 150.802 125.72 149.752 126.731C148.74 127.743 148.429 128.987 148.351 130.388C148.274 131.827 148.274 136.145 148.351 137.585C148.429 138.985 148.74 140.191 149.752 141.241C150.802 142.253 152.008 142.564 153.408 142.642C154.848 142.719 159.166 142.719 160.605 142.642C162.005 142.564 163.25 142.253 164.262 141.241C165.273 140.191 165.584 138.985 165.662 137.585C165.74 136.145 165.74 131.827 165.662 130.388ZM163.795 139.102C163.523 139.88 162.9 140.463 162.161 140.774C160.994 141.241 158.271 141.124 157.026 141.124C155.742 141.124 153.019 141.241 151.891 140.774C151.113 140.463 150.53 139.88 150.219 139.102C149.752 137.974 149.868 135.25 149.868 133.967C149.868 132.722 149.752 129.999 150.219 128.832C150.53 128.093 151.113 127.509 151.891 127.198C153.019 126.731 155.742 126.848 157.026 126.848C158.271 126.848 160.994 126.731 162.161 127.198C162.9 127.47 163.484 128.093 163.795 128.832C164.262 129.999 164.145 132.722 164.145 133.967C164.145 135.25 164.262 137.974 163.795 139.102Z"
              fill="url(#paint0_linear)"/>
        <rect x="174.102" y="129.699" width="41.2569" height="9.95855" rx="1.42265" fill="#D0D1D7"/>
        <g filter="url(#filter3_ddd)">
            <rect x="139.957" y="161" width="114" height="109" rx="2.8453" fill="white"/>
        </g>
        <rect x="148.957" y="194" width="91" height="8" rx="1.42265" fill="#D0D1D7"/>
        <rect x="148.957" y="208" width="51" height="8" rx="1.42265" fill="#D0D1D7"/>
        <path d="M164.366 172.062C163.788 172.324 163.166 172.497 162.521 172.579C163.181 172.182 163.691 171.552 163.931 170.794C163.308 171.169 162.618 171.432 161.891 171.582C161.298 170.937 160.466 170.562 159.521 170.562C157.758 170.562 156.318 172.002 156.318 173.779C156.318 174.034 156.348 174.282 156.401 174.514C153.731 174.379 151.353 173.097 149.771 171.154C149.493 171.627 149.336 172.182 149.336 172.767C149.336 173.884 149.898 174.874 150.768 175.437C150.236 175.437 149.741 175.287 149.306 175.062V175.084C149.306 176.644 150.416 177.949 151.886 178.242C151.414 178.371 150.918 178.389 150.438 178.294C150.642 178.934 151.041 179.493 151.579 179.894C152.117 180.295 152.767 180.517 153.438 180.529C152.301 181.43 150.891 181.916 149.441 181.909C149.186 181.909 148.931 181.894 148.676 181.864C150.101 182.779 151.796 183.312 153.611 183.312C159.521 183.312 162.768 178.407 162.768 174.154C162.768 174.012 162.768 173.877 162.761 173.734C163.391 173.284 163.931 172.714 164.366 172.062Z"
              fill="#1B90EF"/>
        <g filter="url(#filter4_ddd)">
            <rect x="260.957" y="63" width="113.812" height="129.461" rx="2.8453" fill="white"/>
        </g>
        <g clip-path="url(#clip4)">
            <rect x="260.957" y="63" width="113.812" height="113.812" fill="#D72C2C"/>
            <path d="M283.359 103.308L373.461 193.41H208.793L283.359 103.308Z" fill="#DF5757"/>
        </g>
        <path d="M276.37 176.456L280.677 173.967L276.37 171.477V176.456ZM285.963 169.958C286.071 170.348 286.145 170.871 286.195 171.535C286.253 172.199 286.278 172.772 286.278 173.27L286.328 173.967C286.328 175.784 286.195 177.12 285.963 177.975C285.755 178.722 285.274 179.203 284.527 179.411C284.137 179.519 283.423 179.593 282.328 179.643C281.249 179.701 280.262 179.726 279.349 179.726L278.029 179.776C274.552 179.776 272.386 179.643 271.531 179.411C270.784 179.203 270.303 178.722 270.096 177.975C269.988 177.585 269.913 177.062 269.863 176.398C269.805 175.734 269.78 175.162 269.78 174.664L269.73 173.967C269.73 172.149 269.863 170.813 270.096 169.958C270.303 169.212 270.784 168.73 271.531 168.523C271.921 168.415 272.635 168.34 273.73 168.29C274.809 168.232 275.797 168.207 276.71 168.207L278.029 168.158C281.506 168.158 283.672 168.29 284.527 168.523C285.274 168.73 285.755 169.212 285.963 169.958Z"
              fill="#EB2121"/>
        <rect x="295.102" y="169.699" width="41.2569" height="9.95855" rx="1.42265" fill="#D0D1D7"/>
        <g filter="url(#filter5_ddd)">
            <rect x="260.957" y="201" width="113.812" height="129.461" rx="2.8453" fill="white"/>
        </g>
        <g clip-path="url(#clip5)">
            <rect x="260.957" y="201" width="113.812" height="113.812" fill="#59AB46"/>
            <circle cx="374.457" cy="235.5" r="44.5" fill="#468737"/>
        </g>
        <g clip-path="url(#clip6)">
            <path d="M139.957 228H253.957V296C253.957 296.552 253.509 297 252.957 297H140.957C140.405 297 139.957 296.552 139.957 296V228Z"
                  fill="#0068A0"/>
            <circle cx="227.957" cy="245" r="34" fill="#004D77"/>
        </g>
    </g>
    <defs>
        <filter id="filter0_ddd" x="0.462572" y="53.0414" width="150.801" height="166.45" filterUnits="userSpaceOnUse"
                color-interpolation-filters="sRGB">
            <feFlood flood-opacity="0" result="BackgroundImageFix"/>
            <feColorMatrix in="SourceAlpha" type="matrix" values="0 0 0 0 0 0 0 0 0 0 0 0 0 0 0 0 0 0 127 0"
                           result="hardAlpha"/>
            <feOffset dy="8.5359"/>
            <feGaussianBlur stdDeviation="9.24723"/>
            <feColorMatrix type="matrix" values="0 0 0 0 0 0 0 0 0 0 0 0 0 0 0 0 0 0 0.03 0"/>
            <feBlend mode="normal" in2="BackgroundImageFix" result="effect1_dropShadow"/>
            <feColorMatrix in="SourceAlpha" type="matrix" values="0 0 0 0 0 0 0 0 0 0 0 0 0 0 0 0 0 0 127 0"
                           result="hardAlpha"/>
            <feOffset dy="1.42265"/>
            <feGaussianBlur stdDeviation="1.42265"/>
            <feColorMatrix type="matrix" values="0 0 0 0 0 0 0 0 0 0 0 0 0 0 0 0 0 0 0.11 0"/>
            <feBlend mode="normal" in2="effect1_dropShadow" result="effect2_dropShadow"/>
            <feColorMatrix in="SourceAlpha" type="matrix" values="0 0 0 0 0 0 0 0 0 0 0 0 0 0 0 0 0 0 127 0"
                           result="hardAlpha"/>
            <feOffset dy="4.26795"/>
            <feGaussianBlur stdDeviation="4.26795"/>
            <feColorMatrix type="matrix" values="0 0 0 0 0 0 0 0 0 0 0 0 0 0 0 0 0 0 0.04 0"/>
            <feBlend mode="normal" in2="effect2_dropShadow" result="effect3_dropShadow"/>
            <feBlend mode="normal" in="SourceGraphic" in2="effect3_dropShadow" result="shape"/>
        </filter>
        <filter id="filter1_ddd" x="0.462572" y="191.041" width="150.801" height="166.45" filterUnits="userSpaceOnUse"
                color-interpolation-filters="sRGB">
            <feFlood flood-opacity="0" result="BackgroundImageFix"/>
            <feColorMatrix in="SourceAlpha" type="matrix" values="0 0 0 0 0 0 0 0 0 0 0 0 0 0 0 0 0 0 127 0"
                           result="hardAlpha"/>
            <feOffset dy="8.5359"/>
            <feGaussianBlur stdDeviation="9.24723"/>
            <feColorMatrix type="matrix" values="0 0 0 0 0 0 0 0 0 0 0 0 0 0 0 0 0 0 0.03 0"/>
            <feBlend mode="normal" in2="BackgroundImageFix" result="effect1_dropShadow"/>
            <feColorMatrix in="SourceAlpha" type="matrix" values="0 0 0 0 0 0 0 0 0 0 0 0 0 0 0 0 0 0 127 0"
                           result="hardAlpha"/>
            <feOffset dy="1.42265"/>
            <feGaussianBlur stdDeviation="1.42265"/>
            <feColorMatrix type="matrix" values="0 0 0 0 0 0 0 0 0 0 0 0 0 0 0 0 0 0 0.11 0"/>
            <feBlend mode="normal" in2="effect1_dropShadow" result="effect2_dropShadow"/>
            <feColorMatrix in="SourceAlpha" type="matrix" values="0 0 0 0 0 0 0 0 0 0 0 0 0 0 0 0 0 0 127 0"
                           result="hardAlpha"/>
            <feOffset dy="4.26795"/>
            <feGaussianBlur stdDeviation="4.26795"/>
            <feColorMatrix type="matrix" values="0 0 0 0 0 0 0 0 0 0 0 0 0 0 0 0 0 0 0.04 0"/>
            <feBlend mode="normal" in2="effect2_dropShadow" result="effect3_dropShadow"/>
            <feBlend mode="normal" in="SourceGraphic" in2="effect3_dropShadow" result="shape"/>
        </filter>
        <filter id="filter2_ddd" x="121.463" y="13.0414" width="150.801" height="166.45" filterUnits="userSpaceOnUse"
                color-interpolation-filters="sRGB">
            <feFlood flood-opacity="0" result="BackgroundImageFix"/>
            <feColorMatrix in="SourceAlpha" type="matrix" values="0 0 0 0 0 0 0 0 0 0 0 0 0 0 0 0 0 0 127 0"
                           result="hardAlpha"/>
            <feOffset dy="8.5359"/>
            <feGaussianBlur stdDeviation="9.24723"/>
            <feColorMatrix type="matrix" values="0 0 0 0 0 0 0 0 0 0 0 0 0 0 0 0 0 0 0.03 0"/>
            <feBlend mode="normal" in2="BackgroundImageFix" result="effect1_dropShadow"/>
            <feColorMatrix in="SourceAlpha" type="matrix" values="0 0 0 0 0 0 0 0 0 0 0 0 0 0 0 0 0 0 127 0"
                           result="hardAlpha"/>
            <feOffset dy="1.42265"/>
            <feGaussianBlur stdDeviation="1.42265"/>
            <feColorMatrix type="matrix" values="0 0 0 0 0 0 0 0 0 0 0 0 0 0 0 0 0 0 0.11 0"/>
            <feBlend mode="normal" in2="effect1_dropShadow" result="effect2_dropShadow"/>
            <feColorMatrix in="SourceAlpha" type="matrix" values="0 0 0 0 0 0 0 0 0 0 0 0 0 0 0 0 0 0 127 0"
                           result="hardAlpha"/>
            <feOffset dy="4.26795"/>
            <feGaussianBlur stdDeviation="4.26795"/>
            <feColorMatrix type="matrix" values="0 0 0 0 0 0 0 0 0 0 0 0 0 0 0 0 0 0 0.04 0"/>
            <feBlend mode="normal" in2="effect2_dropShadow" result="effect3_dropShadow"/>
            <feBlend mode="normal" in="SourceGraphic" in2="effect3_dropShadow" result="shape"/>
        </filter>
        <filter id="filter3_ddd" x="121.463" y="151.041" width="150.989" height="145.989" filterUnits="userSpaceOnUse"
                color-interpolation-filters="sRGB">
            <feFlood flood-opacity="0" result="BackgroundImageFix"/>
            <feColorMatrix in="SourceAlpha" type="matrix" values="0 0 0 0 0 0 0 0 0 0 0 0 0 0 0 0 0 0 127 0"
                           result="hardAlpha"/>
            <feOffset dy="8.5359"/>
            <feGaussianBlur stdDeviation="9.24723"/>
            <feColorMatrix type="matrix" values="0 0 0 0 0 0 0 0 0 0 0 0 0 0 0 0 0 0 0.03 0"/>
            <feBlend mode="normal" in2="BackgroundImageFix" result="effect1_dropShadow"/>
            <feColorMatrix in="SourceAlpha" type="matrix" values="0 0 0 0 0 0 0 0 0 0 0 0 0 0 0 0 0 0 127 0"
                           result="hardAlpha"/>
            <feOffset dy="1.42265"/>
            <feGaussianBlur stdDeviation="1.42265"/>
            <feColorMatrix type="matrix" values="0 0 0 0 0 0 0 0 0 0 0 0 0 0 0 0 0 0 0.11 0"/>
            <feBlend mode="normal" in2="effect1_dropShadow" result="effect2_dropShadow"/>
            <feColorMatrix in="SourceAlpha" type="matrix" values="0 0 0 0 0 0 0 0 0 0 0 0 0 0 0 0 0 0 127 0"
                           result="hardAlpha"/>
            <feOffset dy="4.26795"/>
            <feGaussianBlur stdDeviation="4.26795"/>
            <feColorMatrix type="matrix" values="0 0 0 0 0 0 0 0 0 0 0 0 0 0 0 0 0 0 0.04 0"/>
            <feBlend mode="normal" in2="effect2_dropShadow" result="effect3_dropShadow"/>
            <feBlend mode="normal" in="SourceGraphic" in2="effect3_dropShadow" result="shape"/>
        </filter>
        <filter id="filter4_ddd" x="242.463" y="53.0414" width="150.801" height="166.45" filterUnits="userSpaceOnUse"
                color-interpolation-filters="sRGB">
            <feFlood flood-opacity="0" result="BackgroundImageFix"/>
            <feColorMatrix in="SourceAlpha" type="matrix" values="0 0 0 0 0 0 0 0 0 0 0 0 0 0 0 0 0 0 127 0"
                           result="hardAlpha"/>
            <feOffset dy="8.5359"/>
            <feGaussianBlur stdDeviation="9.24723"/>
            <feColorMatrix type="matrix" values="0 0 0 0 0 0 0 0 0 0 0 0 0 0 0 0 0 0 0.03 0"/>
            <feBlend mode="normal" in2="BackgroundImageFix" result="effect1_dropShadow"/>
            <feColorMatrix in="SourceAlpha" type="matrix" values="0 0 0 0 0 0 0 0 0 0 0 0 0 0 0 0 0 0 127 0"
                           result="hardAlpha"/>
            <feOffset dy="1.42265"/>
            <feGaussianBlur stdDeviation="1.42265"/>
            <feColorMatrix type="matrix" values="0 0 0 0 0 0 0 0 0 0 0 0 0 0 0 0 0 0 0.11 0"/>
            <feBlend mode="normal" in2="effect1_dropShadow" result="effect2_dropShadow"/>
            <feColorMatrix in="SourceAlpha" type="matrix" values="0 0 0 0 0 0 0 0 0 0 0 0 0 0 0 0 0 0 127 0"
                           result="hardAlpha"/>
            <feOffset dy="4.26795"/>
            <feGaussianBlur stdDeviation="4.26795"/>
            <feColorMatrix type="matrix" values="0 0 0 0 0 0 0 0 0 0 0 0 0 0 0 0 0 0 0.04 0"/>
            <feBlend mode="normal" in2="effect2_dropShadow" result="effect3_dropShadow"/>
            <feBlend mode="normal" in="SourceGraphic" in2="effect3_dropShadow" result="shape"/>
        </filter>
        <filter id="filter5_ddd" x="242.463" y="191.041" width="150.801" height="166.45" filterUnits="userSpaceOnUse"
                color-interpolation-filters="sRGB">
            <feFlood flood-opacity="0" result="BackgroundImageFix"/>
            <feColorMatrix in="SourceAlpha" type="matrix" values="0 0 0 0 0 0 0 0 0 0 0 0 0 0 0 0 0 0 127 0"
                           result="hardAlpha"/>
            <feOffset dy="8.5359"/>
            <feGaussianBlur stdDeviation="9.24723"/>
            <feColorMatrix type="matrix" values="0 0 0 0 0 0 0 0 0 0 0 0 0 0 0 0 0 0 0.03 0"/>
            <feBlend mode="normal" in2="BackgroundImageFix" result="effect1_dropShadow"/>
            <feColorMatrix in="SourceAlpha" type="matrix" values="0 0 0 0 0 0 0 0 0 0 0 0 0 0 0 0 0 0 127 0"
                           result="hardAlpha"/>
            <feOffset dy="1.42265"/>
            <feGaussianBlur stdDeviation="1.42265"/>
            <feColorMatrix type="matrix" values="0 0 0 0 0 0 0 0 0 0 0 0 0 0 0 0 0 0 0.11 0"/>
            <feBlend mode="normal" in2="effect1_dropShadow" result="effect2_dropShadow"/>
            <feColorMatrix in="SourceAlpha" type="matrix" values="0 0 0 0 0 0 0 0 0 0 0 0 0 0 0 0 0 0 127 0"
                           result="hardAlpha"/>
            <feOffset dy="4.26795"/>
            <feGaussianBlur stdDeviation="4.26795"/>
            <feColorMatrix type="matrix" values="0 0 0 0 0 0 0 0 0 0 0 0 0 0 0 0 0 0 0.04 0"/>
            <feBlend mode="normal" in2="effect2_dropShadow" result="effect3_dropShadow"/>
            <feBlend mode="normal" in="SourceGraphic" in2="effect3_dropShadow" result="shape"/>
        </filter>
        <linearGradient id="paint0_linear" x1="154.502" y1="158.603" x2="191.208" y2="121.133"
                        gradientUnits="userSpaceOnUse">
            <stop stop-color="white"/>
            <stop offset="0.147864" stop-color="#F6640E"/>
            <stop offset="0.443974" stop-color="#BA03A7"/>
            <stop offset="0.733337" stop-color="#6A01B9"/>
            <stop offset="1" stop-color="#6B01B9"/>
        </linearGradient>
        <clipPath id="clip0">
            <rect width="396" height="264" fill="white" transform="translate(0.957031)"/>
        </clipPath>
        <clipPath id="clip1">
            <path d="M18.957 65.3711C18.957 64.0616 20.0186 63 21.3281 63H130.398C131.708 63 132.769 64.0616 132.769 65.3711V156.895H18.957V65.3711Z"
                  fill="white"/>
        </clipPath>
        <clipPath id="clip2">
            <path d="M18.957 203.371C18.957 202.062 20.0186 201 21.3281 201H130.398C131.708 201 132.769 202.062 132.769 203.371V294.895H18.957V203.371Z"
                  fill="white"/>
        </clipPath>
        <clipPath id="clip3">
            <path d="M139.957 25.3711C139.957 24.0616 141.019 23 142.328 23H251.398C252.708 23 253.769 24.0616 253.769 25.3711V116.895H139.957V25.3711Z"
                  fill="white"/>
        </clipPath>
        <clipPath id="clip4">
            <path d="M260.957 65.3711C260.957 64.0616 262.019 63 263.328 63H372.398C373.708 63 374.769 64.0616 374.769 65.3711V156.895H260.957V65.3711Z"
                  fill="white"/>
        </clipPath>
        <clipPath id="clip5">
            <path d="M260.957 203.371C260.957 202.062 262.019 201 263.328 201H372.398C373.708 201 374.769 202.062 374.769 203.371V294.895H260.957V203.371Z"
                  fill="white"/>
        </clipPath>
        <clipPath id="clip6">
            <path d="M139.957 228H253.957V296C253.957 296.552 253.509 297 252.957 297H140.957C140.405 297 139.957 296.552 139.957 296V228Z"
                  fill="white"/>
        </clipPath>
    </defs>
</svg>