<svg width="396" height="264" viewBox="0 0 396 264" fill="none" xmlns="http://www.w3.org/2000/svg">
    <g clip-path="url(#cliptagged0_506_22672)">
        <g clip-path="url(#cliptagged1_506_22672)">
            <g filter="url(#filtertagged0_ddd_506_22672)">
                <g clip-path="url(#cliptagged2_506_22672)">
                    <rect x="139.63" y="64.4107" width="164.72" height="166.806" rx="4.17014"
                          transform="rotate(2 139.63 64.4107)" fill="white"/>
                    <g clip-path="url(#cliptagged3_506_22672)">
                        <path d="M139.131 52.643L305.835 58.4644L300.45 212.666L133.746 206.844L139.131 52.643Z"
                              fill="#59AB46"/>
                        <path d="M170.246 102.41L297.611 238.993L56.4177 230.57L170.246 102.41Z" fill="#76C064"/>
                    </g>
                    <path fill-rule="evenodd" clip-rule="evenodd"
                          d="M157.064 194.828C159.201 194.48 161.393 194.773 163.363 195.671C165.333 196.569 166.993 198.031 168.132 199.872C169.271 201.713 169.839 203.85 169.763 206.014L169.707 207.635C169.671 208.674 169.223 209.656 168.463 210.364C167.703 211.073 166.692 211.451 165.653 211.415C164.615 211.379 163.633 210.931 162.924 210.171C162.792 210.029 162.671 209.879 162.563 209.721C161.492 210.7 160.081 211.22 158.63 211.17C157.162 211.118 155.773 210.486 154.771 209.411C153.769 208.336 153.235 206.907 153.286 205.439C153.337 203.97 153.97 202.582 155.045 201.58C156.119 200.578 157.548 200.043 159.017 200.095C160.486 200.146 161.874 200.779 162.876 201.853C163.878 202.928 164.412 204.357 164.361 205.826L164.304 207.446C164.291 207.84 164.434 208.224 164.703 208.512C164.972 208.8 165.344 208.97 165.738 208.984C166.132 208.998 166.516 208.854 166.804 208.585C167.092 208.316 167.262 207.944 167.276 207.55L167.332 205.929C167.391 204.246 166.95 202.584 166.063 201.152C165.177 199.72 163.887 198.583 162.354 197.885C160.822 197.186 159.117 196.958 157.455 197.229C155.793 197.499 154.249 198.257 153.017 199.405C151.785 200.554 150.922 202.042 150.536 203.681C150.15 205.32 150.259 207.037 150.849 208.614C151.438 210.191 152.483 211.558 153.849 212.542C155.216 213.526 156.844 214.082 158.526 214.141L158.528 214.141C160.021 214.195 161.502 213.853 162.819 213.15C163.412 212.834 164.148 213.058 164.465 213.651C164.781 214.243 164.557 214.98 163.964 215.296C162.267 216.202 160.362 216.641 158.44 216.572L158.484 215.357L158.442 216.572C158.441 216.572 158.441 216.572 158.44 216.572C156.277 216.496 154.185 215.781 152.428 214.516C150.671 213.251 149.328 211.494 148.57 209.466C147.812 207.438 147.672 205.231 148.168 203.123C148.665 201.016 149.775 199.103 151.358 197.626C152.941 196.15 154.927 195.176 157.064 194.828ZM161.93 205.741C161.959 204.917 161.659 204.115 161.097 203.512C160.535 202.909 159.756 202.555 158.932 202.526C158.108 202.497 157.307 202.797 156.704 203.359C156.101 203.921 155.746 204.7 155.717 205.524C155.688 206.348 155.988 207.149 156.55 207.752C157.113 208.355 157.891 208.71 158.715 208.739C159.539 208.767 160.34 208.468 160.943 207.905C161.546 207.343 161.901 206.564 161.93 205.741Z"
                          fill="#59AB46"/>
                    <rect x="184.048" y="200.256" width="60.467" height="14.5955" rx="2.08507"
                          transform="rotate(2 184.048 200.256)" fill="#B6DDAD"/>
                </g>
            </g>
            <g filter="url(#filtertagged1_ddd_506_22672)">
                <g clip-path="url(#cliptagged4_506_22672)">
                    <rect x="73.3418" y="28.4567" width="164.72" height="166.806" rx="4.17014"
                          transform="rotate(-2 73.3418 28.4567)" fill="white"/>
                    <g clip-path="url(#cliptagged5_506_22672)">
                        <path d="M72.0225 16.7529L238.726 10.9315L244.111 165.133L77.4073 170.954L72.0225 16.7529Z"
                              fill="#43A6DB"/>
                        <circle cx="268.485" cy="149.951" r="96.9557" transform="rotate(-2 268.485 149.951)"
                                fill="#0068A0"/>
                    </g>
                    <path fill-rule="evenodd" clip-rule="evenodd"
                          d="M99.8296 157.341C101.937 156.845 104.144 156.985 106.172 157.743C108.2 158.501 109.958 159.844 111.223 161.601C112.487 163.358 113.203 165.451 113.279 167.615L113.335 169.235C113.371 170.274 112.994 171.285 112.285 172.045C111.576 172.805 110.594 173.253 109.555 173.289C108.516 173.325 107.506 172.947 106.745 172.238C106.604 172.106 106.473 171.965 106.354 171.815C105.354 172.866 103.983 173.483 102.532 173.534C101.063 173.585 99.6345 173.051 98.5597 172.049C97.485 171.047 96.8524 169.659 96.8011 168.19C96.7498 166.721 97.284 165.292 98.2862 164.218C99.2885 163.143 100.677 162.51 102.145 162.459C103.614 162.408 105.043 162.942 106.117 163.944C107.192 164.946 107.825 166.335 107.876 167.803L107.933 169.424C107.946 169.818 108.116 170.19 108.405 170.459C108.693 170.728 109.076 170.871 109.47 170.858C109.864 170.844 110.237 170.674 110.506 170.386C110.774 170.098 110.918 169.714 110.904 169.32L110.847 167.699C110.789 166.017 110.232 164.389 109.248 163.022C108.265 161.656 106.898 160.611 105.32 160.022C103.743 159.432 102.026 159.323 100.387 159.709C98.7481 160.095 97.2602 160.958 96.1118 162.19C94.9634 163.422 94.2059 164.966 93.9353 166.628C93.6646 168.29 93.8928 169.995 94.5911 171.527C95.2895 173.06 96.4265 174.35 97.8584 175.236C99.2903 176.123 100.953 176.564 102.636 176.505L102.637 176.505C104.13 176.455 105.584 176.011 106.849 175.218C107.418 174.861 108.169 175.033 108.525 175.602C108.882 176.171 108.71 176.922 108.141 177.279C106.511 178.3 104.641 178.871 102.719 178.937L102.678 177.721L102.721 178.937C102.72 178.937 102.72 178.937 102.719 178.937C100.556 179.012 98.419 178.444 96.5783 177.305C94.7373 176.166 93.2754 174.506 92.3776 172.536C91.4798 170.566 91.1863 168.374 91.5343 166.237C91.8823 164.1 92.8562 162.114 94.3327 160.531C95.8093 158.948 97.7222 157.838 99.8296 157.341ZM105.445 167.888C105.416 167.064 105.061 166.286 104.458 165.723C103.856 165.161 103.054 164.861 102.23 164.89C101.406 164.919 100.628 165.274 100.065 165.877C99.5031 166.48 99.2034 167.281 99.2322 168.105C99.261 168.929 99.6158 169.708 100.219 170.27C100.822 170.832 101.623 171.132 102.447 171.103C103.271 171.074 104.05 170.719 104.612 170.116C105.174 169.514 105.474 168.712 105.445 167.888Z"
                          fill="#0068A0"/>
                    <rect x="127.129" y="160.874" width="60.467" height="14.5955" rx="2.08507"
                          transform="rotate(-2 127.129 160.874)" fill="#86D0F9"/>
                </g>
            </g>
        </g>
    </g>
    <defs>
        <filter id="filtertagged0_ddd_506_22672" x="106.703" y="49.8152" width="224.653" height="226.664"
                filterUnits="userSpaceOnUse" color-interpolation-filters="sRGB">
            <feFlood flood-opacity="0" result="BackgroundImageFix"/>
            <feColorMatrix in="SourceAlpha" type="matrix" values="0 0 0 0 0 0 0 0 0 0 0 0 0 0 0 0 0 0 127 0"
                           result="hardAlpha"/>
            <feOffset dy="12.5104"/>
            <feGaussianBlur stdDeviation="13.5529"/>
            <feColorMatrix type="matrix" values="0 0 0 0 0 0 0 0 0 0 0 0 0 0 0 0 0 0 0.03 0"/>
            <feBlend mode="normal" in2="BackgroundImageFix" result="effect1_dropShadow_506_22672"/>
            <feColorMatrix in="SourceAlpha" type="matrix" values="0 0 0 0 0 0 0 0 0 0 0 0 0 0 0 0 0 0 127 0"
                           result="hardAlpha"/>
            <feOffset dy="2.08507"/>
            <feGaussianBlur stdDeviation="2.08507"/>
            <feColorMatrix type="matrix" values="0 0 0 0 0 0 0 0 0 0 0 0 0 0 0 0 0 0 0.11 0"/>
            <feBlend mode="normal" in2="effect1_dropShadow_506_22672" result="effect2_dropShadow_506_22672"/>
            <feColorMatrix in="SourceAlpha" type="matrix" values="0 0 0 0 0 0 0 0 0 0 0 0 0 0 0 0 0 0 127 0"
                           result="hardAlpha"/>
            <feOffset dy="6.25521"/>
            <feGaussianBlur stdDeviation="6.25521"/>
            <feColorMatrix type="matrix" values="0 0 0 0 0 0 0 0 0 0 0 0 0 0 0 0 0 0 0.04 0"/>
            <feBlend mode="normal" in2="effect2_dropShadow_506_22672" result="effect3_dropShadow_506_22672"/>
            <feBlend mode="normal" in="SourceGraphic" in2="effect3_dropShadow_506_22672" result="shape"/>
        </filter>
        <filter id="filtertagged1_ddd_506_22672" x="46.2359" y="8.11258" width="224.653" height="226.664"
                filterUnits="userSpaceOnUse" color-interpolation-filters="sRGB">
            <feFlood flood-opacity="0" result="BackgroundImageFix"/>
            <feColorMatrix in="SourceAlpha" type="matrix" values="0 0 0 0 0 0 0 0 0 0 0 0 0 0 0 0 0 0 127 0"
                           result="hardAlpha"/>
            <feOffset dy="12.5104"/>
            <feGaussianBlur stdDeviation="13.5529"/>
            <feColorMatrix type="matrix" values="0 0 0 0 0 0 0 0 0 0 0 0 0 0 0 0 0 0 0.03 0"/>
            <feBlend mode="normal" in2="BackgroundImageFix" result="effect1_dropShadow_506_22672"/>
            <feColorMatrix in="SourceAlpha" type="matrix" values="0 0 0 0 0 0 0 0 0 0 0 0 0 0 0 0 0 0 127 0"
                           result="hardAlpha"/>
            <feOffset dy="2.08507"/>
            <feGaussianBlur stdDeviation="2.08507"/>
            <feColorMatrix type="matrix" values="0 0 0 0 0 0 0 0 0 0 0 0 0 0 0 0 0 0 0.11 0"/>
            <feBlend mode="normal" in2="effect1_dropShadow_506_22672" result="effect2_dropShadow_506_22672"/>
            <feColorMatrix in="SourceAlpha" type="matrix" values="0 0 0 0 0 0 0 0 0 0 0 0 0 0 0 0 0 0 127 0"
                           result="hardAlpha"/>
            <feOffset dy="6.25521"/>
            <feGaussianBlur stdDeviation="6.25521"/>
            <feColorMatrix type="matrix" values="0 0 0 0 0 0 0 0 0 0 0 0 0 0 0 0 0 0 0.04 0"/>
            <feBlend mode="normal" in2="effect2_dropShadow_506_22672" result="effect3_dropShadow_506_22672"/>
            <feBlend mode="normal" in="SourceGraphic" in2="effect3_dropShadow_506_22672" result="shape"/>
        </filter>
        <clipPath id="cliptagged0_506_22672">
            <rect width="396" height="264" fill="white"/>
        </clipPath>
        <clipPath id="cliptagged1_506_22672">
            <rect width="530" height="250.308" fill="white" transform="translate(-67 6.84601)"/>
        </clipPath>
        <clipPath id="cliptagged2_506_22672">
            <rect x="139.63" y="64.4107" width="164.72" height="166.806" rx="4.17014"
                  transform="rotate(2 139.63 64.4107)" fill="white"/>
        </clipPath>
        <clipPath id="cliptagged3_506_22672">
            <path d="M139.373 45.6973C139.44 43.7792 141.049 42.2786 142.967 42.3456L302.725 47.9245C304.643 47.9914 306.144 49.6006 306.077 51.5187L301.395 185.576L134.691 179.755L139.373 45.6973Z"
                  fill="white"/>
        </clipPath>
        <clipPath id="cliptagged4_506_22672">
            <rect x="73.3418" y="28.4567" width="164.72" height="166.806" rx="4.17014"
                  transform="rotate(-2 73.3418 28.4567)" fill="white"/>
        </clipPath>
        <clipPath id="cliptagged5_506_22672">
            <path d="M71.7785 9.80722C71.7115 7.88913 73.2121 6.27993 75.1302 6.21295L234.888 0.634078C236.806 0.567097 238.415 2.06771 238.482 3.9858L243.164 138.044L76.4599 143.865L71.7785 9.80722Z"
                  fill="white"/>
        </clipPath>
    </defs>
</svg>