<svg width="20px" height="20px" viewBox="0 0 20 20" xmlns="http://www.w3.org/2000/svg" style="enable-background:new 0 0 20 20;" xml:space="preserve">
<path fill="#1D1D1F" d="M16.4,20H3.6c-1.3,0-2.4-0.6-3.1-1.7c-0.7-1.1-0.7-2.4-0.2-3.5l1.7-3.4C2.7,10.1,3.6,9.9,4,9.8
	c0.4,0,1.3,0,2.2,1.1l0.2,0.3c0.3,0.4,1.1,1.2,2.1,1.1c1-0.1,1.6-0.9,1.9-1.4l1.9-3.4c0.9-1.5,1.8-1.7,2.3-1.7
	c0.5,0,1.4,0.3,2.1,1.9l3.1,7.3c0.5,1.1,0.4,2.4-0.3,3.4C18.7,19.4,17.6,20,16.4,20z M4.2,12c0,0.1-0.1,0.1-0.2,0.3l-1.7,3.4
	c-0.2,0.5-0.2,1,0.1,1.4c0.3,0.4,0.7,0.7,1.2,0.7h12.8c0.5,0,1-0.2,1.2-0.7c0.3-0.4,0.3-0.9,0.1-1.4l-3.1-7.3c0,0,0,0,0,0
	c-0.1-0.2-0.2-0.3-0.2-0.4c-0.1,0.1-0.2,0.2-0.3,0.4l-1.9,3.4c-0.8,1.5-2.1,2.4-3.6,2.5c-1.5,0.1-2.9-0.6-4-1.9l-0.2-0.3
	C4.4,12.1,4.3,12,4.2,12z M14.6,7.8L14.6,7.8L14.6,7.8z"/>
<path fill="#1D1D1F" d="M5.4,7.9c-2.2,0-3.9-1.8-3.9-3.9S3.2,0,5.4,0s3.9,1.8,3.9,3.9S7.5,7.9,5.4,7.9z M5.4,2.1c-1,0-1.8,0.8-1.8,1.8
	s0.8,1.8,1.8,1.8s1.8-0.8,1.8-1.8S6.3,2.1,5.4,2.1z"/>
</svg>
