<svg width="14" height="14" viewBox="0 0 14 14" fill="none" xmlns="http://www.w3.org/2000/svg">
    <path fill-rule="evenodd" clip-rule="evenodd" d="M2.80371 6.37645C2.80371 4.40326 4.40329 2.80368 6.37648 2.80368C8.34967 2.80368 9.94925 4.40326 9.94925 6.37645C9.94925 7.35107 9.559 8.23455 8.92623 8.87914C8.91816 8.8867 8.91019 8.89441 8.90231 8.90229C8.89444 8.91016 8.88673 8.91813 8.87917 8.9262C8.23458 9.55896 7.3511 9.94921 6.37648 9.94921C4.40329 9.94921 2.80371 8.34963 2.80371 6.37645ZM9.54631 10.9605C8.64643 11.5839 7.55411 11.9492 6.37648 11.9492C3.29873 11.9492 0.803711 9.4542 0.803711 6.37645C0.803711 3.29869 3.29873 0.80368 6.37648 0.80368C9.45424 0.80368 11.9493 3.29869 11.9493 6.37645C11.9493 7.55408 11.584 8.64641 10.9605 9.54629L12.9035 11.4892C13.294 11.8798 13.294 12.5129 12.9035 12.9034C12.5129 13.294 11.8798 13.294 11.4893 12.9034L9.54631 10.9605Z" fill="white"/>
</svg>
