<svg width="60" height="49" viewBox="0 0 60 49" fill="none" xmlns="http://www.w3.org/2000/svg">
<path fill-rule="evenodd" clip-rule="evenodd" d="M58.292 1.08755C56.5487 2.20994 52.546 3.84093 50.572 3.84093V3.84428C48.318 1.47754 45.1447 0 41.6253 0C34.79 0 29.2473 5.57109 29.2473 12.4388C29.2473 13.393 29.3573 14.3237 29.5607 15.2163H29.5587C20.2867 14.9717 10.146 10.3006 4.04133 2.30576C0.288 8.83575 3.536 16.0981 7.79533 18.7443C6.33733 18.8549 3.65333 18.5754 2.39 17.3365C2.30533 21.6706 4.37867 27.4132 11.9387 29.4965C10.4827 30.2838 7.90533 30.058 6.78467 29.8905C7.178 33.5492 12.2753 38.3322 17.8493 38.3322C15.8627 40.642 8.388 44.8314 0 43.4986C5.69667 46.9824 12.336 49 19.3633 49C39.3333 49 54.842 32.7323 54.0073 12.6639C54.004 12.6418 54.004 12.6197 54.002 12.5956C54.004 12.544 54.0073 12.4924 54.0073 12.4388C54.0073 12.3765 54.002 12.3175 54 12.2572C55.818 11.0075 58.2573 8.79688 60 5.88737C58.9893 6.44689 55.9573 7.56728 53.136 7.84536C54.9467 6.86302 57.6293 3.64594 58.292 1.08755Z" fill="white"/>
</svg>
