<svg width="36" height="36" clip-rule="evenodd" fill-rule="evenodd" stroke-linejoin="round" stroke-miterlimit="2" viewBox="0 0 34 34" xmlns="http://www.w3.org/2000/svg" xmlns:xlink="http://www.w3.org/1999/xlink"><linearGradient id="a" gradientTransform="matrix(0 34 -34 0 18 0)" gradientUnits="userSpaceOnUse" x1="0" x2="1" y1="0" y2="0"><stop offset="0" stop-color="#f45c43"/><stop offset="1" stop-color="#eb3349"/></linearGradient><path d="m34 5.049c0-2.787-2.262-5.049-5.049-5.049h-23.902c-2.787 0-5.049 2.262-5.049 5.049v23.902c0 2.787 2.262 5.049 5.049 5.049h23.902c2.787 0 5.049-2.262 5.049-5.049z" fill="url(#a)"/><path d="m6.558 10.137c0-1.408 1.141-2.55 2.55-2.55h3.75c.919 0 1.664.745 1.664 1.664v.002c0 .442-.175.865-.487 1.177s-.736.488-1.177.488c-.363 0-.751 0-1.125 0-.528 0-1.034.209-1.407.582s-.582.879-.582 1.407v8.186c0 .528.209 1.034.582 1.407s.879.582 1.407.582h1.125c.441 0 .865.176 1.177.488s.487.735.487 1.177v.002c0 .919-.745 1.664-1.664 1.664-1.085 0-2.523 0-3.75 0-1.409 0-2.55-1.142-2.55-2.55 0-3.598 0-10.128 0-13.726zm20.884-.042c0-1.385-1.123-2.508-2.508-2.508-1.237 0-2.695 0-3.792 0-.919 0-1.664.745-1.664 1.664v.002c0 .442.175.865.487 1.177s.736.488 1.177.488h1.146c.522 0 1.023.207 1.392.576.369.37.576.87.576 1.392v8.212c0 .526-.209 1.031-.581 1.403s-.876.581-1.402.581c-.376 0-.766 0-1.131 0-.441 0-.865.176-1.177.488s-.487.735-.487 1.177v.002c0 .919.745 1.664 1.664 1.664h3.761c.674 0 1.319-.268 1.796-.744.476-.476.743-1.122.743-1.795 0-3.61 0-10.186 0-13.779z" fill="#fff"/></svg>