<svg width="102" height="102" viewBox="0 0 102 102" fill="none" xmlns="http://www.w3.org/2000/svg">
    <rect x="0.5" y="0.5" width="101" height="101" rx="1.5" fill="white"/>
    <path d="M51 31.08C40 31.08 31 40.06 31 51.12C31 61.12 38.32 69.42 47.88 70.92V56.92H42.8V51.12H47.88V46.7C47.88 41.68 50.86 38.92 55.44 38.92C57.62 38.92 59.9 39.3 59.9 39.3V44.24H57.38C54.9 44.24 54.12 45.78 54.12 47.36V51.12H59.68L58.78 56.92H54.12V70.92C58.8329 70.1757 63.1244 67.771 66.2199 64.1401C69.3153 60.5092 71.0107 55.8913 71 51.12C71 40.06 62 31.08 51 31.08V31.08Z"
          fill="#006BFA"/>
    <rect x="0.5" y="0.5" width="101" height="101" rx="1.5" stroke="#CFD8E3"/>
    <rect x="57" y="56" width="24" height="24" rx="12" fill="#59AB46"/>
    <path d="M73.6666 68.6667H69.6666V72.6667H68.3333V68.6667H64.3333V67.3333H68.3333V63.3333H69.6666V67.3333H73.6666V68.6667Z"
          fill="white"/>
    <rect x="57" y="56" width="24" height="24" rx="12" stroke="white" stroke-width="2"/>
</svg>
