<svg width="40" height="40" viewBox="0 0 40 40" fill="none" xmlns="http://www.w3.org/2000/svg">
    <path d="M19.9997 3.40002C10.833 3.40002 3.33301 10.8834 3.33301 20.1C3.33301 28.4334 9.43301 35.35 17.3997 36.6V24.9334H13.1663V20.1H17.3997V16.4167C17.3997 12.2334 19.883 9.93336 23.6997 9.93336C25.5163 9.93336 27.4163 10.25 27.4163 10.25V14.3667H25.3163C23.2497 14.3667 22.5997 15.65 22.5997 16.9667V20.1H27.233L26.483 24.9334H22.5997V36.6C26.5271 35.9798 30.1034 33.9759 32.6829 30.9501C35.2624 27.9244 36.6753 24.0761 36.6663 20.1C36.6663 10.8834 29.1663 3.40002 19.9997 3.40002Z"
          fill="#1C68F5"/>
</svg>
