<svg width="75" height="74" viewBox="0 0 75 74" fill="none" xmlns="http://www.w3.org/2000/svg">
    <g filter="url(#filter0_dd_168_5702)">
        <path d="M5.5 26.6C5.5 17.6392 5.5 13.1587 7.2439 9.73615C8.77787 6.72556 11.2256 4.27787 14.2362 2.7439C17.6587 1 22.1392 1 31.1 1H43.9C52.8608 1 57.3413 1 60.7638 2.7439C63.7744 4.27787 66.2221 6.72556 67.7561 9.73615C69.5 13.1587 69.5 17.6392 69.5 26.6V39.4C69.5 48.3608 69.5 52.8413 67.7561 56.2638C66.2221 59.2744 63.7744 61.7221 60.7638 63.2561C57.3413 65 52.8608 65 43.9 65H31.1C22.1392 65 17.6587 65 14.2362 63.2561C11.2256 61.7221 8.77787 59.2744 7.2439 56.2638C5.5 52.8413 5.5 48.3608 5.5 39.4V26.6Z"
              fill="white"/>
        <path d="M6 26.6C6 22.1113 6.00039 18.7749 6.21633 16.1319C6.43179 13.4948 6.85935 11.5922 7.6894 9.96315C9.17544 7.04664 11.5466 4.67544 14.4631 3.1894C16.0922 2.35935 17.9948 1.93179 20.6319 1.71633C23.2749 1.50039 26.6113 1.5 31.1 1.5H43.9C48.3887 1.5 51.7251 1.50039 54.3681 1.71633C57.0052 1.93179 58.9078 2.35935 60.5369 3.1894C63.4534 4.67544 65.8246 7.04664 67.3106 9.96315C68.1406 11.5922 68.5682 13.4948 68.7837 16.1319C68.9996 18.7749 69 22.1113 69 26.6V39.4C69 43.8887 68.9996 47.2251 68.7837 49.8681C68.5682 52.5052 68.1406 54.4078 67.3106 56.0369C65.8246 58.9534 63.4534 61.3246 60.5369 62.8106C58.9078 63.6406 57.0052 64.0682 54.3681 64.2837C51.7251 64.4996 48.3887 64.5 43.9 64.5H31.1C26.6113 64.5 23.2749 64.4996 20.6319 64.2837C17.9948 64.0682 16.0922 63.6406 14.4631 62.8106C11.5466 61.3246 9.17544 58.9534 7.6894 56.0369C6.85935 54.4078 6.43179 52.5052 6.21633 49.8681C6.00039 47.2251 6 43.8887 6 39.4V26.6Z"
              stroke="#E6E6EB"/>
        <mask id="mask0_168_5702" style="mask-type:alpha" maskUnits="userSpaceOnUse" x="26" y="22" width="37"
              height="36">
            <rect x="26.5" y="22" width="36" height="36" fill="#D9D9D9"/>
        </mask>
        <g mask="url(#mask0_168_5702)">
            <path d="M29.9078 42.8461C29.2869 42.8461 28.7559 42.6252 28.3149 42.1833C27.8738 41.7415 27.6533 41.2103 27.6533 40.5898V35.2563C27.6533 34.6358 27.8744 34.1046 28.3167 33.6627C28.759 33.2209 29.2906 33 29.9115 33C30.5326 33 31.0637 33.2209 31.5047 33.6627C31.9457 34.1046 32.1662 34.6358 32.1662 35.2563V40.5898C32.1662 41.2103 31.9451 41.7415 31.5029 42.1833C31.0606 42.6252 30.5289 42.8461 29.9078 42.8461ZM37.4976 42.8461C36.8767 42.8461 36.3457 42.6252 35.9047 42.1833C35.4637 41.7415 35.2432 41.2103 35.2432 40.5898V25.4101C35.2432 24.7896 35.4643 24.2584 35.9066 23.8166C36.3486 23.3747 36.8802 23.1538 37.5013 23.1538C38.1222 23.1538 38.6532 23.3747 39.0942 23.8166C39.5353 24.2584 39.7558 24.7896 39.7558 25.4101V40.5898C39.7558 41.2103 39.5347 41.7415 39.0924 42.1833C38.6503 42.6252 38.1188 42.8461 37.4976 42.8461ZM45.0875 42.8461C44.4663 42.8461 43.9353 42.6252 43.4942 42.1833C43.0532 41.7415 42.8327 41.2103 42.8327 40.5898V31.564C42.8327 30.9435 43.0538 30.4123 43.4961 29.9704C43.9383 29.5286 44.47 29.3077 45.0912 29.3077C45.7121 29.3077 46.2431 29.5286 46.6841 29.9704C47.1251 30.4123 47.3456 30.9435 47.3456 31.564V40.5898C47.3456 41.2103 47.1245 41.7415 46.6822 42.1833C46.24 42.6252 45.7084 42.8461 45.0875 42.8461Z"
                  fill="url(#paint0_linear_168_5702)"/>
        </g>
    </g>
    <defs>
        <filter id="filter0_dd_168_5702" x="0.5" y="0" width="74" height="74" filterUnits="userSpaceOnUse"
                color-interpolation-filters="sRGB">
            <feFlood flood-opacity="0" result="BackgroundImageFix"/>
            <feColorMatrix in="SourceAlpha" type="matrix" values="0 0 0 0 0 0 0 0 0 0 0 0 0 0 0 0 0 0 127 0"
                           result="hardAlpha"/>
            <feOffset dy="4"/>
            <feGaussianBlur stdDeviation="2.5"/>
            <feColorMatrix type="matrix" values="0 0 0 0 0 0 0 0 0 0 0 0 0 0 0 0 0 0 0.05 0"/>
            <feBlend mode="normal" in2="BackgroundImageFix" result="effect1_dropShadow_168_5702"/>
            <feColorMatrix in="SourceAlpha" type="matrix" values="0 0 0 0 0 0 0 0 0 0 0 0 0 0 0 0 0 0 127 0"
                           result="hardAlpha"/>
            <feOffset dy="1"/>
            <feGaussianBlur stdDeviation="1"/>
            <feColorMatrix type="matrix" values="0 0 0 0 0 0 0 0 0 0 0 0 0 0 0 0 0 0 0.05 0"/>
            <feBlend mode="normal" in2="effect1_dropShadow_168_5702" result="effect2_dropShadow_168_5702"/>
            <feBlend mode="normal" in="SourceGraphic" in2="effect2_dropShadow_168_5702" result="shape"/>
        </filter>
        <linearGradient id="paint0_linear_168_5702" x1="37.4995" y1="23.1538" x2="37.4995" y2="42.8461"
                        gradientUnits="userSpaceOnUse">
            <stop stop-color="#ED4944"/>
            <stop offset="1" stop-color="#FCA699"/>
        </linearGradient>
    </defs>
</svg>
