<svg width="41" height="40" viewBox="0 0 41 40" fill="none" xmlns="http://www.w3.org/2000/svg">
    <path d="M20.333 11.0156C15.333 11.0156 11.3486 15.0781 11.3486 20C11.3486 25 15.333 28.9844 20.333 28.9844C25.2549 28.9844 29.3174 25 29.3174 20C29.3174 15.0781 25.2549 11.0156 20.333 11.0156ZM20.333 25.8594C17.1299 25.8594 14.4736 23.2812 14.4736 20C14.4736 16.7969 17.0518 14.2188 20.333 14.2188C23.5361 14.2188 26.1143 16.7969 26.1143 20C26.1143 23.2812 23.5361 25.8594 20.333 25.8594ZM31.7393 10.7031C31.7393 9.53125 30.8018 8.59375 29.6299 8.59375C28.458 8.59375 27.5205 9.53125 27.5205 10.7031C27.5205 11.875 28.458 12.8125 29.6299 12.8125C30.8018 12.8125 31.7393 11.875 31.7393 10.7031ZM37.6768 12.8125C37.5205 10 36.8955 7.5 34.8643 5.46875C32.833 3.4375 30.333 2.8125 27.5205 2.65625C24.6299 2.5 15.958 2.5 13.0674 2.65625C10.2549 2.8125 7.83301 3.4375 5.72363 5.46875C3.69238 7.5 3.06738 10 2.91113 12.8125C2.75488 15.7031 2.75488 24.375 2.91113 27.2656C3.06738 30.0781 3.69238 32.5 5.72363 34.6094C7.83301 36.6406 10.2549 37.2656 13.0674 37.4219C15.958 37.5781 24.6299 37.5781 27.5205 37.4219C30.333 37.2656 32.833 36.6406 34.8643 34.6094C36.8955 32.5 37.5205 30.0781 37.6768 27.2656C37.833 24.375 37.833 15.7031 37.6768 12.8125ZM33.9268 30.3125C33.3799 31.875 32.1299 33.0469 30.6455 33.6719C28.3018 34.6094 22.833 34.375 20.333 34.375C17.7549 34.375 12.2861 34.6094 10.0205 33.6719C8.45801 33.0469 7.28613 31.875 6.66113 30.3125C5.72363 28.0469 5.95801 22.5781 5.95801 20C5.95801 17.5 5.72363 12.0312 6.66113 9.6875C7.28613 8.20312 8.45801 7.03125 10.0205 6.40625C12.2861 5.46875 17.7549 5.70312 20.333 5.70312C22.833 5.70312 28.3018 5.46875 30.6455 6.40625C32.1299 6.95312 33.3018 8.20312 33.9268 9.6875C34.8643 12.0312 34.6299 17.5 34.6299 20C34.6299 22.5781 34.8643 28.0469 33.9268 30.3125Z"
          fill="url(#paint0_linear_168_5637)"/>
    <defs>
        <linearGradient id="paint0_linear_168_5637" x1="15.2627" y1="69.4766" x2="88.9814" y2="-5.77344"
                        gradientUnits="userSpaceOnUse">
            <stop stop-color="white"/>
            <stop offset="0.147864" stop-color="#F6640E"/>
            <stop offset="0.443974" stop-color="#BA03A7"/>
            <stop offset="0.733337" stop-color="#6A01B9"/>
            <stop offset="1" stop-color="#6B01B9"/>
        </linearGradient>
    </defs>
</svg>
