<svg width="41" height="40" viewBox="0 0 41 40" fill="none" xmlns="http://www.w3.org/2000/svg">
    <path d="M34.2927 3.75H6.95874C5.07953 3.75 3.54199 5.28754 3.54199 7.16675V27.0523C3.54199 29.1401 5.20851 30.8462 7.29573 30.8951L15.3503 31.084L17.5096 34.446C18.6577 36.25 20.1474 36.0895 21.2237 35.0132L25.1358 31.084H34.2927C36.1719 31.084 37.7095 29.5464 37.7095 27.6672V7.16675C37.7095 5.28754 36.1719 3.75 34.2927 3.75Z"
          fill="#FF611E"/>
    <path d="M20.0553 10.6453C20.2386 10.1182 20.984 10.1182 21.1672 10.6453L22.651 14.9138C22.6671 14.9603 22.7105 14.9918 22.7598 14.9928L27.2778 15.0849C27.8357 15.0963 28.0661 15.8052 27.6214 16.1424L24.0203 18.8725C23.9811 18.9022 23.9645 18.9533 23.9788 19.0004L25.2874 23.3257C25.449 23.8599 24.8459 24.298 24.3878 23.9793L20.6785 21.3981C20.6381 21.37 20.5845 21.37 20.5441 21.3981L16.8348 23.9793C16.3767 24.298 15.7736 23.8599 15.9352 23.3257L17.2438 19.0004C17.2581 18.9532 17.2415 18.9022 17.2023 18.8725L13.6012 16.1424C13.1565 15.8052 13.3869 15.0963 13.9448 15.0849L18.4628 14.9928C18.5121 14.9918 18.5555 14.9603 18.5716 14.9138L20.0553 10.6453Z"
          fill="white"/>
</svg>
