<svg xmlns="http://www.w3.org/2000/svg" width="42" height="48" viewBox="0 0 42 48">
    <defs>
        <style>.a{fill:#777;}.b{fill:#ca4a1f;}</style>
    </defs>
    <path class="a"
          d="M23-79a6.005,6.005,0,0,1-6-6h10.06a12.066,12.066,0,0,0,1.791,1.308,6.021,6.021,0,0,1-2.077,3.352A6.008,6.008,0,0,1,23-79Zm1.605-9H5.009a2.955,2.955,0,0,1-2.173-.923A3.088,3.088,0,0,1,2-91a2.919,2.919,0,0,1,.807-2.036c.111-.12.229-.243.351-.371a14.936,14.936,0,0,0,3.126-4.409A23.283,23.283,0,0,0,8.007-107.5a14.846,14.846,0,0,1,.906-5.145,14.5,14.5,0,0,1,2.509-4.324A15.279,15.279,0,0,1,20-122.046V-124a3,3,0,0,1,3-3,3,3,0,0,1,3,3v1.954a15.28,15.28,0,0,1,8.58,5.078,14.5,14.5,0,0,1,2.509,4.324,14.846,14.846,0,0,1,.906,5.145c0,.645.016,1.281.047,1.888A12.036,12.036,0,0,0,35-106a11.921,11.921,0,0,0-8.485,3.515A11.923,11.923,0,0,0,23-94a12,12,0,0,0,1.6,6Z"
          transform="translate(-2 127)"/>
    <circle class="b" cx="9" cy="9" r="9" transform="translate(24 24)"/>
</svg>