<svg width="18" height="18" viewBox="0 0 18 18" fill="none" xmlns="http://www.w3.org/2000/svg">
    <path d="M9.00008 9.83332C9.23619 9.83332 9.43425 9.75332 9.59425 9.59332C9.75369 9.43388 9.83341 9.2361 9.83341 8.99999V5.64582C9.83341 5.40971 9.75369 5.21527 9.59425 5.06249C9.43425 4.90971 9.23619 4.83332 9.00008 4.83332C8.76397 4.83332 8.56619 4.91305 8.40675 5.07249C8.24675 5.23249 8.16675 5.43055 8.16675 5.66666V9.02082C8.16675 9.25693 8.24675 9.45138 8.40675 9.60416C8.56619 9.75693 8.76397 9.83332 9.00008 9.83332ZM9.00008 13.1667C9.23619 13.1667 9.43425 13.0867 9.59425 12.9267C9.75369 12.7672 9.83341 12.5694 9.83341 12.3333C9.83341 12.0972 9.75369 11.8992 9.59425 11.7392C9.43425 11.5797 9.23619 11.5 9.00008 11.5C8.76397 11.5 8.56619 11.5797 8.40675 11.7392C8.24675 11.8992 8.16675 12.0972 8.16675 12.3333C8.16675 12.5694 8.24675 12.7672 8.40675 12.9267C8.56619 13.0867 8.76397 13.1667 9.00008 13.1667ZM9.00008 17.3333C7.8473 17.3333 6.76397 17.1144 5.75008 16.6767C4.73619 16.2394 3.85425 15.6458 3.10425 14.8958C2.35425 14.1458 1.76064 13.2639 1.32341 12.25C0.885637 11.2361 0.666748 10.1528 0.666748 8.99999C0.666748 7.84721 0.885637 6.76388 1.32341 5.74999C1.76064 4.7361 2.35425 3.85416 3.10425 3.10416C3.85425 2.35416 4.73619 1.76027 5.75008 1.32249C6.76397 0.885268 7.8473 0.666656 9.00008 0.666656C10.1529 0.666656 11.2362 0.885268 12.2501 1.32249C13.264 1.76027 14.1459 2.35416 14.8959 3.10416C15.6459 3.85416 16.2395 4.7361 16.6767 5.74999C17.1145 6.76388 17.3334 7.84721 17.3334 8.99999C17.3334 10.1528 17.1145 11.2361 16.6767 12.25C16.2395 13.2639 15.6459 14.1458 14.8959 14.8958C14.1459 15.6458 13.264 16.2394 12.2501 16.6767C11.2362 17.1144 10.1529 17.3333 9.00008 17.3333ZM9.00008 15.6667C10.8473 15.6667 12.4204 15.0175 13.7192 13.7192C15.0176 12.4203 15.6667 10.8472 15.6667 8.99999C15.6667 7.15277 15.0176 5.57971 13.7192 4.28082C12.4204 2.98249 10.8473 2.33332 9.00008 2.33332C7.15286 2.33332 5.58008 2.98249 4.28175 4.28082C2.98286 5.57971 2.33341 7.15277 2.33341 8.99999C2.33341 10.8472 2.98286 12.4203 4.28175 13.7192C5.58008 15.0175 7.15286 15.6667 9.00008 15.6667Z"
          fill="currentColor"/>
</svg>
