<svg width="80" height="16" viewBox="0 0 80 16" fill="none" xmlns="http://www.w3.org/2000/svg">
    <path d="M7.53834 1.10997C7.70914 0.699319 8.29086 0.699318 8.46166 1.10996L9.99874 4.80556C10.0707 4.97868 10.2336 5.09696 10.4204 5.11194L14.4102 5.4318C14.8535 5.46734 15.0332 6.02059 14.6955 6.30993L11.6557 8.91378C11.5133 9.03576 11.4512 9.22715 11.4947 9.40952L12.4234 13.3028C12.5265 13.7354 12.0559 14.0773 11.6764 13.8455L8.26063 11.7592C8.10062 11.6615 7.89938 11.6615 7.73937 11.7592L4.32363 13.8455C3.94408 14.0773 3.47345 13.7354 3.57665 13.3028L4.50534 9.40952C4.54884 9.22715 4.48665 9.03576 4.34426 8.91378L1.30453 6.30993C0.966758 6.02059 1.14652 5.46734 1.58985 5.4318L5.57955 5.11194C5.76645 5.09696 5.92925 4.97868 6.00126 4.80556L7.53834 1.10997Z"
          fill="#0068A0"/>
    <path d="M23.5383 1.10997C23.7091 0.699319 24.2909 0.699318 24.4617 1.10996L25.9987 4.80556C26.0707 4.97868 26.2336 5.09696 26.4204 5.11194L30.4102 5.4318C30.8535 5.46734 31.0332 6.02059 30.6955 6.30993L27.6557 8.91378C27.5133 9.03576 27.4512 9.22715 27.4947 9.40952L28.4234 13.3028C28.5265 13.7354 28.0559 14.0773 27.6764 13.8455L24.2606 11.7592C24.1006 11.6615 23.8994 11.6615 23.7394 11.7592L20.3236 13.8455C19.9441 14.0773 19.4735 13.7354 19.5766 13.3028L20.5053 9.40952C20.5488 9.22715 20.4867 9.03576 20.3443 8.91378L17.3045 6.30993C16.9668 6.02059 17.1465 5.46734 17.5898 5.4318L21.5796 5.11194C21.7664 5.09696 21.9293 4.97868 22.0013 4.80556L23.5383 1.10997Z"
          fill="#0068A0"/>
    <path d="M39.5383 1.10997C39.7091 0.699319 40.2909 0.699318 40.4617 1.10996L41.9987 4.80556C42.0707 4.97868 42.2336 5.09696 42.4204 5.11194L46.4102 5.4318C46.8535 5.46734 47.0332 6.02059 46.6955 6.30993L43.6557 8.91378C43.5133 9.03576 43.4512 9.22715 43.4947 9.40952L44.4234 13.3028C44.5265 13.7354 44.0559 14.0773 43.6764 13.8455L40.2606 11.7592C40.1006 11.6615 39.8994 11.6615 39.7394 11.7592L36.3236 13.8455C35.9441 14.0773 35.4735 13.7354 35.5766 13.3028L36.5053 9.40952C36.5488 9.22715 36.4867 9.03576 36.3443 8.91378L33.3045 6.30993C32.9668 6.02059 33.1465 5.46734 33.5898 5.4318L37.5796 5.11194C37.7664 5.09696 37.9293 4.97868 38.0013 4.80556L39.5383 1.10997Z"
          fill="#0068A0"/>
    <path d="M55.5383 1.10997C55.7091 0.699319 56.2909 0.699318 56.4617 1.10996L57.9987 4.80556C58.0707 4.97868 58.2336 5.09696 58.4204 5.11194L62.4102 5.4318C62.8535 5.46734 63.0332 6.02059 62.6955 6.30993L59.6557 8.91378C59.5133 9.03576 59.4512 9.22715 59.4947 9.40952L60.4234 13.3028C60.5265 13.7354 60.0559 14.0773 59.6764 13.8455L56.2606 11.7592C56.1006 11.6615 55.8994 11.6615 55.7394 11.7592L52.3236 13.8455C51.9441 14.0773 51.4735 13.7354 51.5766 13.3028L52.5053 9.40952C52.5488 9.22715 52.4867 9.03576 52.3443 8.91378L49.3045 6.30993C48.9668 6.02059 49.1465 5.46734 49.5898 5.4318L53.5796 5.11194C53.7664 5.09696 53.9293 4.97868 54.0013 4.80556L55.5383 1.10997Z"
          fill="#0068A0"/>
    <path d="M71.5383 1.10997C71.7091 0.699319 72.2909 0.699318 72.4617 1.10996L73.9987 4.80556C74.0707 4.97868 74.2336 5.09696 74.4204 5.11194L78.4102 5.4318C78.8535 5.46734 79.0332 6.02059 78.6955 6.30993L75.6557 8.91378C75.5133 9.03576 75.4512 9.22715 75.4947 9.40952L76.4234 13.3028C76.5265 13.7354 76.0559 14.0773 75.6764 13.8455L72.2606 11.7592C72.1006 11.6615 71.8994 11.6615 71.7394 11.7592L68.3236 13.8455C67.9441 14.0773 67.4735 13.7354 67.5766 13.3028L68.5053 9.40952C68.5488 9.22715 68.4867 9.03576 68.3443 8.91378L65.3045 6.30993C64.9668 6.02059 65.1465 5.46734 65.5898 5.4318L69.5796 5.11194C69.7664 5.09696 69.9293 4.97868 70.0013 4.80556L71.5383 1.10997Z"
          fill="#0068A0"/>
</svg>
