<svg width="41" height="40" viewBox="0 0 41 40" fill="none" xmlns="http://www.w3.org/2000/svg">
    <path d="M38.1001 9.99996C36.8167 10.5833 35.4334 10.9666 34.0001 11.15C35.4667 10.2666 36.6001 8.86663 37.1334 7.18329C35.7501 8.01663 34.2167 8.59996 32.6001 8.93329C31.2834 7.49996 29.4334 6.66663 27.3334 6.66663C23.4167 6.66663 20.2167 9.86663 20.2167 13.8166C20.2167 14.3833 20.2834 14.9333 20.4001 15.45C14.4667 15.15 9.1834 12.3 5.66673 7.98329C5.05007 9.03329 4.70007 10.2666 4.70007 11.5666C4.70007 14.05 5.95007 16.25 7.8834 17.5C6.70007 17.5 5.60007 17.1666 4.6334 16.6666V16.7166C4.6334 20.1833 7.10007 23.0833 10.3667 23.7333C9.31794 24.0203 8.21689 24.0602 7.15007 23.85C7.60274 25.2708 8.48929 26.514 9.68509 27.4048C10.8809 28.2957 12.3258 28.7894 13.8167 28.8166C11.2894 30.8174 8.15673 31.8988 4.9334 31.8833C4.36673 31.8833 3.80007 31.85 3.2334 31.7833C6.40007 33.8166 10.1667 35 14.2001 35C27.3334 35 34.5501 24.1 34.5501 14.65C34.5501 14.3333 34.5501 14.0333 34.5334 13.7166C35.9334 12.7166 37.1334 11.45 38.1001 9.99996Z"
          fill="#1B90EF"/>
</svg>
