<svg width="40" height="40" viewBox="0 0 40 40" fill="none" xmlns="http://www.w3.org/2000/svg">
    <path d="M16.6663 24.9999L25.3163 19.9999L16.6663 14.9999V24.9999ZM35.933 11.9499C36.1497 12.7333 36.2997 13.7833 36.3997 15.1166C36.5163 16.4499 36.5663 17.5999 36.5663 18.5999L36.6663 19.9999C36.6663 23.6499 36.3997 26.3333 35.933 28.0499C35.5163 29.5499 34.5497 30.5166 33.0497 30.9333C32.2663 31.1499 30.833 31.2999 28.633 31.3999C26.4663 31.5166 24.483 31.5666 22.6497 31.5666L19.9997 31.6666C13.0163 31.6666 8.66634 31.3999 6.94967 30.9333C5.44967 30.5166 4.48301 29.5499 4.06634 28.0499C3.84967 27.2666 3.69967 26.2166 3.59967 24.8833C3.48301 23.5499 3.43301 22.3999 3.43301 21.3999L3.33301 19.9999C3.33301 16.3499 3.59967 13.6666 4.06634 11.9499C4.48301 10.4499 5.44967 9.48325 6.94967 9.06659C7.73301 8.84992 9.16634 8.69992 11.3663 8.59992C13.533 8.48325 15.5163 8.43325 17.3497 8.43325L19.9997 8.33325C26.983 8.33325 31.333 8.59992 33.0497 9.06659C34.5497 9.48325 35.5163 10.4499 35.933 11.9499Z"
          fill="#EB2121"/>
</svg>
