<?xml version="1.0" encoding="utf-8"?>
<!-- Generator: Adobe Illustrator 16.0.0, SVG Export Plug-In . SVG Version: 6.00 Build 0)  -->
<!DOCTYPE svg PUBLIC "-//W3C//DTD SVG 1.1//EN" "http://www.w3.org/Graphics/SVG/1.1/DTD/svg11.dtd">
<svg version="1.1" id="Layer_1" xmlns="http://www.w3.org/2000/svg" xmlns:xlink="http://www.w3.org/1999/xlink" x="0px" y="0px"
	 width="90px" height="90px" viewBox="-17.5 -17.5 90 90" enable-background="new -17.5 -17.5 90 90" xml:space="preserve">
<linearGradient id="SVGID_1_" gradientUnits="userSpaceOnUse" x1="35.2285" y1="71.3311" x2="19.7713" y2="-16.3313">
	<stop  offset="0" style="stop-color:#8E2DE2"/>
	<stop  offset="1" style="stop-color:#4A00E0"/>
</linearGradient>
<path fill="url(#SVGID_1_)" d="M27.5-17C2.918-17-17,2.928-17,27.501C-17,52.076,2.918,72,27.5,72C52.076,72,72,52.076,72,27.501
	C72,2.928,52.076-17,27.5-17z M24.236,29.491c0,1.896-0.238,3.664-0.711,5.307c-0.474,1.64-1.205,3.075-2.192,4.308
	c-0.987,1.229-2.245,2.199-3.769,2.904c-1.527,0.705-3.34,1.059-5.442,1.059c-2.18,0-4.039-0.373-5.576-1.115
	c-1.539-0.743-2.789-1.738-3.749-2.983c-0.962-1.242-1.667-2.684-2.117-4.327c-0.448-1.64-0.673-3.356-0.673-5.151V15.529h6.308
	v13.962c0,1.051,0.102,2.051,0.308,2.999s0.539,1.795,1,2.541c0.461,0.74,1.057,1.331,1.788,1.767
	c0.731,0.437,1.635,0.654,2.712,0.654c1.078,0,1.987-0.229,2.731-0.673c0.743-0.449,1.347-1.046,1.808-1.789
	c0.461-0.742,0.788-1.596,0.979-2.557c0.193-0.964,0.288-1.943,0.288-2.942V15.53h6.308V29.491z M53.122,42.835h-5.228v-2.693
	h-0.003c-2.076,1.925-4.477,2.886-7.19,2.886c-1.797,0-3.487-0.338-5.079-1.018c-1.589-0.68-2.979-1.634-4.175-2.866
	c-1.188-1.229-2.132-2.712-2.822-4.442c-0.692-1.729-1.041-3.632-1.041-5.711c0-1.87,0.349-3.641,1.041-5.307
	c0.69-1.667,1.646-3.117,2.865-4.347c1.215-1.232,2.659-2.206,4.325-2.923c1.667-0.718,3.461-1.078,5.384-1.078
	c2.538,0,4.755,0.534,6.653,1.598c1.899,1.063,3.319,2.518,4.268,4.364l-4.689,3.539c-0.613-1.23-1.508-2.186-2.67-2.866
	c-1.171-0.678-2.432-1.018-3.791-1.018c-1.052,0-2.005,0.21-2.866,0.634c-0.859,0.423-1.593,1.011-2.209,1.77
	c-0.616,0.756-1.091,1.635-1.426,2.633c-0.335,1-0.499,2.078-0.499,3.232c0,1.179,0.177,2.268,0.539,3.268
	c0.356,1.002,0.857,1.868,1.499,2.599c0.642,0.729,1.403,1.299,2.288,1.713c0.884,0.41,1.865,0.612,2.941,0.612
	c2.46,0,4.681-1.138,6.654-3.423v-0.845h-5.307v-4.578h10.537V42.835z"/>
</svg>
