<?xml version="1.0" encoding="utf-8"?>
<!-- Generator: Adobe Illustrator 16.0.0, SVG Export Plug-In . SVG Version: 6.00 Build 0)  -->
<!DOCTYPE svg PUBLIC "-//W3C//DTD SVG 1.1//EN" "http://www.w3.org/Graphics/SVG/1.1/DTD/svg11.dtd">
<svg version="1.1" id="Layer_1" xmlns="http://www.w3.org/2000/svg" xmlns:xlink="http://www.w3.org/1999/xlink" x="0px" y="0px"
	 width="255px" height="54px" viewBox="0 0 255 54" enable-background="new 0 0 255 54" xml:space="preserve">
<g>
	<path fill="#453E69" d="M64.247,19.667v-7.894h3.221v7.894c0,0.794,0.195,1.402,0.586,1.829c0.389,0.426,0.959,0.641,1.713,0.641
		s1.331-0.215,1.734-0.641c0.404-0.427,0.604-1.035,0.604-1.829v-7.894h3.221v7.894c0,1.168-0.272,2.178-0.82,3.024
		c-0.546,0.847-1.236,1.468-2.072,1.856c-0.834,0.39-1.744,0.584-2.721,0.584c-1.533,0-2.828-0.478-3.883-1.432
		C64.775,22.745,64.247,21.401,64.247,19.667z"/>
	<path fill="#453E69" d="M78.641,11.773h3.223V22.55h4.015V25h-7.237L78.641,11.773L78.641,11.773z"/>
	<path fill="#453E69" d="M87.328,14.223v-2.449h10.438v2.449h-3.618V25h-3.224V14.223H87.328z"/>
	<path fill="#453E69" d="M100.253,25V11.773h3.223V25H100.253z"/>
	<path fill="#453E69" d="M121.845,11.773V25h-3.221v-7.461L115.55,25h-2.39l-3.072-7.461V25h-3.222V11.773h3.691l3.808,9.119
		l3.786-9.119H121.845z"/>
	<path fill="#453E69" d="M133.641,25l-0.736-2.223h-4.747L127.422,25h-3.429l4.599-13.265h3.918L137.088,25H133.641z
		 M128.969,20.329h3.127l-1.563-4.713L128.969,20.329z"/>
	<path fill="#453E69" d="M138.33,14.223v-2.449h10.439v2.449h-3.617V25h-3.223V14.223H138.33z"/>
	<path fill="#453E69" d="M159.264,11.735v2.449h-4.785v2.845h4.222v2.451h-4.222v3.069h4.785V25h-8.006V11.735H159.264z"/>
	<path fill="#453E69" d="M177.219,25l-0.732-2.223h-4.75L171.002,25h-3.43l4.598-13.265h3.92L180.668,25H177.219z M172.547,20.329
		h3.131l-1.568-4.713L172.547,20.329z"/>
	<path fill="#453E69" d="M187.469,11.773c2.111,0,3.844,0.612,5.199,1.835c1.357,1.227,2.037,2.815,2.037,4.769
		c0,1.955-0.68,3.545-2.037,4.775C191.313,24.385,189.58,25,187.469,25h-4.652V11.773H187.469z M186.037,22.55h1.432
		c1.23,0,2.199-0.376,2.904-1.13c0.701-0.753,1.053-1.765,1.053-3.033c0-1.268-0.352-2.278-1.053-3.033
		c-0.705-0.754-1.674-1.131-2.904-1.131h-1.432V22.55z"/>
	<path fill="#453E69" d="M201.959,11.773c2.109,0,3.842,0.612,5.199,1.835c1.357,1.227,2.035,2.815,2.035,4.769
		c0,1.955-0.678,3.545-2.035,4.775c-1.357,1.232-3.09,1.848-5.199,1.848h-4.654V11.773H201.959z M200.527,22.55h1.432
		c1.229,0,2.197-0.376,2.9-1.13c0.703-0.753,1.057-1.765,1.057-3.033c0-1.268-0.354-2.278-1.057-3.033
		c-0.703-0.754-1.672-1.131-2.9-1.131h-1.432V22.55z"/>
	<path fill="#453E69" d="M212.99,23.21c-1.313-1.282-1.971-2.901-1.971-4.86c0-1.962,0.658-3.578,1.971-4.852
		c1.313-1.275,2.922-1.913,4.824-1.913c1.901,0,3.506,0.638,4.805,1.913c1.299,1.273,1.949,2.89,1.949,4.852
		c0,1.959-0.652,3.578-1.957,4.86c-1.31,1.281-2.91,1.922-4.807,1.922C215.906,25.132,214.303,24.491,212.99,23.21z M220.34,21.119
		c0.633-0.691,0.949-1.613,0.949-2.77c0-1.155-0.316-2.08-0.949-2.771c-0.637-0.69-1.482-1.036-2.543-1.036
		c-1.063,0-1.914,0.346-2.545,1.036c-0.635,0.69-0.951,1.615-0.951,2.771c0,1.156,0.316,2.078,0.951,2.77
		c0.631,0.69,1.482,1.036,2.545,1.036C218.857,22.155,219.703,21.81,220.34,21.119z"/>
	<path fill="#453E69" d="M235.818,11.735h3.221V25h-3.221l-5.392-8.347V25h-3.221V11.735h3.221l5.392,8.349V11.735z"/>
	<path fill="#453E69" d="M246.914,14.128c-0.4,0-0.73,0.108-0.988,0.32c-0.258,0.214-0.387,0.521-0.387,0.925
		c0,0.4,0.117,0.726,0.357,0.971c0.24,0.244,0.551,0.432,0.932,0.563c0.385,0.133,0.813,0.259,1.283,0.377
		c0.471,0.119,0.938,0.266,1.402,0.434c0.463,0.17,0.891,0.381,1.272,0.632c0.381,0.251,0.692,0.605,0.932,1.063
		c0.238,0.461,0.359,1.009,0.359,1.651c0,1.116-0.457,2.075-1.367,2.872c-0.91,0.798-2.108,1.196-3.601,1.196
		c-1.485,0-2.688-0.357-3.598-1.074c-0.912-0.716-1.365-1.732-1.365-3.053h3.429c0.088,1.055,0.627,1.584,1.618,1.584
		c0.468,0,0.832-0.122,1.095-0.368c0.264-0.244,0.396-0.556,0.396-0.934c0-0.375-0.119-0.684-0.358-0.922
		c-0.236-0.239-0.55-0.426-0.933-0.566c-0.383-0.138-0.811-0.267-1.279-0.387c-0.475-0.117-0.94-0.267-1.403-0.44
		c-0.465-0.177-0.892-0.387-1.272-0.632c-0.384-0.244-0.695-0.597-0.933-1.056c-0.237-0.458-0.356-1-0.356-1.631
		c0-1.229,0.457-2.215,1.375-2.956c0.916-0.741,2.09-1.112,3.514-1.112s2.578,0.324,3.455,0.97c0.881,0.647,1.34,1.668,1.377,3.062
		h-3.506c-0.049-0.477-0.203-0.845-0.461-1.102C247.646,14.257,247.316,14.128,246.914,14.128z"/>
</g>
<g>
	<path fill="#453E69" d="M65.315,43.902v-9.938h6.676v1.694h-4.746v2.562h3.947v1.566h-3.947V43.9h-1.93V43.902z"/>
	<path fill="#453E69" d="M83.241,43.973c-0.727,0-1.389-0.143-1.981-0.427c-0.591-0.285-1.1-0.663-1.522-1.135
		c-0.427-0.472-0.756-1.009-0.988-1.616c-0.234-0.605-0.349-1.227-0.349-1.861c0-0.662,0.122-1.295,0.37-1.902
		c0.248-0.604,0.589-1.143,1.02-1.608c0.435-0.467,0.951-0.837,1.549-1.112c0.596-0.274,1.244-0.412,1.945-0.412
		c0.716,0,1.371,0.146,1.965,0.439c0.593,0.294,1.098,0.68,1.519,1.155c0.419,0.476,0.745,1.017,0.979,1.622
		c0.233,0.605,0.351,1.224,0.351,1.848c0,0.662-0.121,1.296-0.364,1.896c-0.241,0.601-0.577,1.132-1.008,1.596
		c-0.427,0.461-0.941,0.829-1.538,1.105C84.589,43.834,83.941,43.973,83.241,43.973z M80.358,38.934
		c0,0.431,0.066,0.846,0.197,1.248c0.129,0.397,0.316,0.754,0.565,1.062c0.247,0.309,0.55,0.557,0.908,0.741
		c0.36,0.188,0.769,0.281,1.228,0.281c0.465,0,0.879-0.097,1.238-0.287c0.358-0.191,0.662-0.445,0.908-0.763
		c0.246-0.317,0.435-0.675,0.56-1.069c0.128-0.397,0.188-0.801,0.188-1.213c0-0.429-0.066-0.844-0.202-1.246
		c-0.135-0.397-0.327-0.754-0.573-1.062c-0.248-0.31-0.552-0.554-0.91-0.735c-0.359-0.183-0.764-0.272-1.209-0.272
		c-0.469,0-0.883,0.096-1.247,0.286c-0.364,0.191-0.667,0.445-0.91,0.757c-0.241,0.313-0.425,0.667-0.552,1.063
		C80.423,38.12,80.358,38.521,80.358,38.934z"/>
	<path fill="#453E69" d="M95.458,43.902v-9.938h4.393c0.457,0,0.879,0.098,1.268,0.287c0.385,0.193,0.72,0.443,1,0.756
		c0.279,0.313,0.498,0.667,0.657,1.063c0.158,0.396,0.239,0.797,0.239,1.197c0,0.644-0.161,1.229-0.484,1.756
		c-0.32,0.525-0.758,0.906-1.309,1.142l2.268,3.735h-2.168l-2.029-3.332h-1.904V43.9h-1.931V43.902z M97.388,38.88h2.422
		c0.177,0,0.343-0.044,0.496-0.128c0.154-0.084,0.287-0.197,0.396-0.343c0.113-0.146,0.202-0.315,0.269-0.511
		c0.064-0.196,0.1-0.406,0.1-0.631c0-0.231-0.039-0.447-0.113-0.643s-0.177-0.368-0.302-0.514c-0.125-0.143-0.271-0.254-0.434-0.336
		c-0.163-0.077-0.33-0.116-0.496-0.116h-2.338V38.88z"/>
	<path fill="#453E69" d="M126.775,42.782c-0.793,0.794-1.717,1.188-2.772,1.188c-0.652,0-1.267-0.131-1.84-0.391
		c-0.574-0.264-1.072-0.621-1.498-1.079c-0.422-0.457-0.759-0.995-1.006-1.616c-0.248-0.619-0.371-1.289-0.371-2.006
		c0-0.684,0.123-1.324,0.371-1.926c0.247-0.604,0.586-1.129,1.02-1.582c0.436-0.45,0.945-0.811,1.535-1.078
		c0.587-0.266,1.225-0.396,1.916-0.396c0.933,0,1.733,0.195,2.403,0.588c0.664,0.391,1.166,0.92,1.502,1.582l-1.441,1.062
		c-0.252-0.494-0.604-0.872-1.057-1.133c-0.453-0.263-0.946-0.392-1.478-0.392c-0.422,0-0.805,0.088-1.154,0.267
		c-0.35,0.178-0.648,0.419-0.895,0.728c-0.249,0.309-0.439,0.662-0.574,1.063c-0.135,0.399-0.203,0.825-0.203,1.272
		c0,0.467,0.074,0.902,0.225,1.31c0.146,0.405,0.354,0.757,0.615,1.057c0.262,0.298,0.571,0.534,0.93,0.705
		c0.359,0.175,0.75,0.261,1.17,0.261c0.96,0,1.827-0.455,2.603-1.358v-0.699h-2.001v-1.413h3.597v5.107h-1.596L126.775,42.782
		L126.775,42.782z"/>
	<path fill="#453E69" d="M140.098,42.266c0.457,0,0.842-0.094,1.154-0.281c0.313-0.186,0.564-0.428,0.756-0.728
		c0.191-0.299,0.326-0.641,0.406-1.028c0.078-0.388,0.117-0.785,0.117-1.196v-5.065h1.918v5.065c0,0.682-0.082,1.319-0.246,1.918
		c-0.162,0.597-0.418,1.12-0.77,1.567c-0.351,0.446-0.8,0.801-1.351,1.063c-0.549,0.26-1.207,0.392-1.974,0.392
		c-0.793,0-1.467-0.139-2.021-0.412c-0.555-0.276-1.004-0.641-1.351-1.095c-0.348-0.45-0.596-0.977-0.747-1.573
		c-0.154-0.596-0.232-1.216-0.232-1.86v-5.065h1.931v5.065c0,0.42,0.039,0.823,0.119,1.212c0.082,0.387,0.217,0.729,0.405,1.027
		c0.19,0.299,0.44,0.537,0.75,0.72C139.273,42.175,139.648,42.266,140.098,42.266z"/>
	<path fill="#453E69" d="M159.705,35.66h-3.18v8.242h-1.916V35.66h-3.176v-1.694h8.271L159.705,35.66L159.705,35.66z"/>
	<path fill="#453E69" d="M173.709,42.208v1.694h-6.896v-9.938h6.771v1.694h-4.842v2.392h4.186v1.568h-4.186v2.588L173.709,42.208
		L173.709,42.208z"/>
	<path fill="#453E69" d="M183.029,37.534v6.368h-1.93v-9.938h1.498l5.176,6.521V33.98h1.93v9.922h-1.564L183.029,37.534z"/>
	<path fill="#453E69" d="M205.656,41.341c0,0.42-0.084,0.788-0.25,1.104c-0.17,0.318-0.398,0.584-0.693,0.799
		c-0.295,0.216-0.635,0.377-1.021,0.49c-0.387,0.109-0.801,0.168-1.237,0.168h-4.8v-9.938h5.314c0.346,0,0.66,0.076,0.939,0.225
		c0.281,0.149,0.518,0.344,0.715,0.58c0.193,0.238,0.348,0.51,0.455,0.813c0.107,0.302,0.158,0.606,0.158,0.916
		c0,0.485-0.121,0.938-0.363,1.364c-0.242,0.424-0.596,0.738-1.063,0.943c0.567,0.168,1.018,0.469,1.352,0.902
		C205.49,40.146,205.656,40.688,205.656,41.341z M199.584,35.617v2.506h2.576c0.326,0,0.602-0.112,0.83-0.336
		c0.23-0.225,0.344-0.533,0.344-0.924c0-0.383-0.104-0.688-0.314-0.909c-0.209-0.226-0.469-0.337-0.774-0.337H199.584z
		 M203.711,40.977c0-0.177-0.029-0.347-0.09-0.511c-0.061-0.163-0.143-0.305-0.244-0.427c-0.104-0.12-0.225-0.216-0.365-0.287
		c-0.141-0.068-0.293-0.104-0.461-0.104h-2.967v2.617h2.869c0.178,0,0.342-0.033,0.496-0.1c0.156-0.064,0.287-0.156,0.4-0.271
		c0.11-0.117,0.198-0.254,0.264-0.414C203.68,41.322,203.711,41.154,203.711,40.977z"/>
	<path fill="#453E69" d="M219.945,42.208v1.694h-6.9v-9.938h6.773v1.694h-4.842v2.392h4.186v1.568h-4.186v2.588L219.945,42.208
		L219.945,42.208z"/>
	<path fill="#453E69" d="M227.334,43.902v-9.938h4.393c0.455,0,0.881,0.098,1.267,0.287c0.389,0.193,0.723,0.443,1.002,0.756
		c0.28,0.313,0.5,0.667,0.657,1.063c0.156,0.396,0.236,0.797,0.236,1.197c0,0.644-0.16,1.229-0.479,1.756
		c-0.324,0.525-0.761,0.906-1.312,1.142l2.269,3.735h-2.171l-2.028-3.332h-1.901V43.9h-1.932V43.902z M229.264,38.88h2.422
		c0.178,0,0.342-0.044,0.494-0.128c0.156-0.084,0.289-0.197,0.4-0.343c0.113-0.146,0.201-0.315,0.266-0.511
		c0.066-0.196,0.1-0.406,0.1-0.631c0-0.231-0.036-0.447-0.112-0.643c-0.074-0.195-0.174-0.368-0.299-0.514
		c-0.127-0.143-0.272-0.254-0.437-0.336c-0.164-0.077-0.328-0.116-0.496-0.116h-2.338V38.88z"/>
	<path fill="#453E69" d="M249.416,42.782c-0.793,0.794-1.717,1.188-2.771,1.188c-0.651,0-1.268-0.131-1.84-0.391
		c-0.574-0.264-1.072-0.621-1.498-1.079c-0.424-0.457-0.76-0.995-1.008-1.616c-0.246-0.619-0.369-1.289-0.369-2.006
		c0-0.684,0.123-1.324,0.369-1.926c0.248-0.604,0.588-1.129,1.021-1.582c0.436-0.45,0.945-0.811,1.533-1.078
		c0.586-0.266,1.227-0.396,1.918-0.396c0.932,0,1.731,0.195,2.397,0.588c0.668,0.391,1.17,0.92,1.506,1.582l-1.442,1.062
		c-0.252-0.494-0.604-0.872-1.058-1.133c-0.45-0.263-0.942-0.392-1.475-0.392c-0.423,0-0.806,0.088-1.156,0.267
		c-0.349,0.178-0.646,0.419-0.894,0.728c-0.25,0.309-0.44,0.662-0.573,1.063c-0.138,0.399-0.203,0.825-0.203,1.272
		c0,0.467,0.073,0.902,0.224,1.31c0.147,0.405,0.354,0.757,0.616,1.057c0.261,0.298,0.57,0.534,0.931,0.705
		c0.356,0.175,0.748,0.261,1.168,0.261c0.961,0,1.828-0.455,2.604-1.358v-0.699h-2.004v-1.413h3.598v5.107h-1.594V42.782z"/>
</g>
<linearGradient id="SVGID_1_" gradientUnits="userSpaceOnUse" x1="32.9766" y1="52.9395" x2="23.762" y2="0.6812">
	<stop  offset="0" style="stop-color:#8E2DE2"/>
	<stop  offset="1" style="stop-color:#4A00E0"/>
</linearGradient>
<path fill="url(#SVGID_1_)" d="M28.37,0.282c-14.654,0-26.529,11.879-26.529,26.53S13.715,53.339,28.37,53.339
	c14.652,0,26.529-11.877,26.529-26.527S43.021,0.282,28.37,0.282z M26.424,27.997c0,1.132-0.142,2.187-0.424,3.165
	c-0.283,0.979-0.718,1.833-1.307,2.566c-0.589,0.733-1.338,1.313-2.247,1.731c-0.91,0.42-1.991,0.631-3.245,0.631
	c-1.299,0-2.407-0.222-3.325-0.665c-0.917-0.443-1.663-1.035-2.235-1.777c-0.573-0.74-0.994-1.601-1.261-2.58
	c-0.268-0.978-0.401-2.002-0.401-3.071v-8.322h3.76v8.322c0,0.628,0.061,1.224,0.184,1.789s0.321,1.069,0.596,1.514
	c0.275,0.442,0.63,0.794,1.066,1.054s0.975,0.39,1.617,0.39c0.642,0,1.185-0.136,1.628-0.402s0.802-0.622,1.077-1.065
	c0.275-0.442,0.47-0.95,0.584-1.523c0.115-0.574,0.172-1.158,0.172-1.755v-8.322h3.761V27.997z M43.643,35.955h-3.118v-1.607
	c-1.238,1.146-2.667,1.719-4.287,1.719c-1.07,0-2.079-0.2-3.026-0.605c-0.948-0.404-1.777-0.975-2.488-1.708
	c-0.71-0.733-1.272-1.617-1.685-2.649c-0.413-1.03-0.619-2.166-0.619-3.403c0-1.115,0.207-2.17,0.619-3.164
	c0.412-0.994,0.981-1.858,1.708-2.591c0.726-0.734,1.585-1.314,2.579-1.743c0.993-0.428,2.063-0.642,3.209-0.642
	c1.513,0,2.835,0.318,3.967,0.952c1.131,0.634,1.979,1.501,2.545,2.602l-2.797,2.109c-0.367-0.733-0.898-1.303-1.593-1.708
	c-0.696-0.404-1.449-0.607-2.259-0.607c-0.627,0-1.196,0.125-1.708,0.378c-0.512,0.253-0.951,0.604-1.318,1.055
	c-0.367,0.451-0.65,0.975-0.849,1.57c-0.199,0.596-0.298,1.238-0.298,1.926c0,0.703,0.107,1.354,0.321,1.948
	c0.214,0.597,0.512,1.113,0.894,1.549c0.382,0.436,0.837,0.775,1.365,1.021c0.527,0.244,1.111,0.365,1.754,0.365
	c1.467,0,2.79-0.679,3.966-2.039v-0.506h-3.164v-2.727h6.282V35.955z"/>
</svg>
