<svg height="14" viewBox="0 0 14 14" width="14" xmlns="http://www.w3.org/2000/svg"><g fill="#69737d"><path d="m13.125 6.125c.4832492 0 .875.39175084.875.875s-.3917508.875-.875.875h-12.25c-.48324916 0-.875-.39175084-.875-.875s.39175084-.875.875-.875z"/><path d="m2.11243687 7 5.50628156 5.5062816c.34170876.3417087.34170876.8957281 0 1.2374368-.34170875.3417088-.89572811.3417088-1.23743686 0l-6.125-6.12499997c-.34170876-.34170875-.34170876-.89572811 0-1.23743686l6.125-6.125c.34170875-.34170876.89572811-.34170876 1.23743686 0 .34170876.34170875.34170876.89572811 0 1.23743686z"/></g></svg>