<?xml version="1.0" encoding="UTF-8"?>
<svg width="15px" height="18px" viewBox="0 0 15 18" version="1.1" xmlns="http://www.w3.org/2000/svg" xmlns:xlink="http://www.w3.org/1999/xlink">
    <title></title>
    <desc></desc>
    <defs></defs>
    <g id="Design" stroke="none" stroke-width="1" class="fill-layer" fill="#232D37" fill-rule="evenodd">
        <g id="Home-Desktop" transform="translate(-347.000000, -583.000000)" fill="" fill-rule="nonzero">
            <path d="M359.598889,585.699762 C359.598889,585.20275 359.195981,584.799841 358.698969,584.799841 L349.699762,584.799841 C349.20275,584.799841 348.799841,585.20275 348.799841,585.699762 L348.799841,598.349777 L353.676297,594.866594 C353.989197,594.643094 354.409533,594.643094 354.722434,594.866594 L359.598889,598.349777 L359.598889,585.699762 Z M348.422989,600.830788 C347.82736,601.256238 347,600.830464 347,600.098493 L347,585.699762 C347,584.208725 348.208725,583 349.699762,583 L358.698969,583 C360.190006,583 361.398731,584.208725 361.398731,585.699762 L361.398731,600.098493 C361.398731,600.830464 360.571371,601.256238 359.975742,600.830788 L354.199365,596.704805 L348.422989,600.830788 Z" id="Shape"></path>
        </g>
    </g>
</svg>