<svg height="19" viewBox="0 0 18 19" width="18" xmlns="http://www.w3.org/2000/svg"><g fill="#232d37"><path d="m3.25 4.09375c-.77665043 0-1.40625.62959957-1.40625 1.40625v10.375c0 .7766504.62959957 1.40625 1.40625 1.40625h11.5c.7766504 0 1.40625-.6295996 1.40625-1.40625v-10.375c0-.77665043-.6295996-1.40625-1.40625-1.40625zm0-1.6875h11.5c1.7086309 0 3.09375 1.38511906 3.09375 3.09375v10.375c0 1.7086309-1.3851191 3.09375-3.09375 3.09375h-11.5c-1.70863094 0-3.09375-1.3851191-3.09375-3.09375v-10.375c0-1.70863094 1.38511906-3.09375 3.09375-3.09375z"/><path d="m11.7118056 1c0-.46599026.3777597-.84375.84375-.84375.4659902 0 .84375.37775974.84375.84375v3.55555556c0 .46599025-.3777598.84375-.84375.84375-.4659903 0-.84375-.37775975-.84375-.84375z"/><path d="m4.60069444 1c0-.46599026.37775975-.84375.84375-.84375.46599026 0 .84375.37775974.84375.84375v3.55555556c0 .46599025-.37775974.84375-.84375.84375-.46599025 0-.84375-.37775975-.84375-.84375z"/><path d="m1 8.95486111c-.46599026 0-.84375-.37775974-.84375-.84375s.37775974-.84375.84375-.84375h16c.4659903 0 .84375.37775974.84375.84375s-.3777597.84375-.84375.84375z"/></g></svg>