<svg height="49" viewBox="0 0 48 49" width="48" xmlns="http://www.w3.org/2000/svg"><path d="m722.003954 523.067837 19.73153-19.731529c.976471-.976472 2.559645-.976472 3.536116 0 .976472.976471.976472 2.559644 0 3.536116l-19.73153 19.73153 19.73153 19.73153c.976472.976471.976472 2.559645 0 3.536116-.976471.976472-2.559645.976472-3.536116 0l-19.73153-19.73153-19.73153 19.73153c-.976472.976472-2.559645.976472-3.536116 0-.976472-.976471-.976472-2.559645 0-3.536116l19.731529-19.73153-19.731529-19.73153c-.976472-.976472-.976472-2.559645 0-3.536116.976471-.976472 2.559644-.976472 3.536116 0z" fill="#232d37" transform="translate(-698 -502)"/></svg>