<svg height="18" viewBox="0 0 18 18" width="18" xmlns="http://www.w3.org/2000/svg"><g fill="#232d37"><path d="m14.7272727 11.1763636c0-.4518693.3663125-.8181818.8181818-.8181818.4518694 0 .8181819.3663125.8181819.8181818v4.3690909c0 1.3556081-1.0989375 2.4545455-2.4545455 2.4545455h-11.45454545c-1.35560802 0-2.45454545-1.0989374-2.45454545-2.4545455v-11.45454541c0-1.35560802 1.09893743-2.45454545 2.45454545-2.45454545h4.36909091c.45186934 0 .81818182.36631247.81818182.81818181 0 .45186935-.36631248.81818182-.81818182.81818182h-4.36909091c-.45186934 0-.81818181.36631248-.81818181.81818182v11.45454541c0 .4518694.36631247.8181819.81818181.8181819h11.45454545c.4518693 0 .8181818-.3663125.8181818-.8181819z"/><path d="m6.54545455 9.33890201v2.11564349h2.11564344l7.36363641-7.36363641-2.1156435-2.11564345zm7.94217825-9.0992621 3.2727273 3.27272727c.3195199.31951987.3195199.83756395 0 1.15708382l-8.18181819 8.1818182c-.15343885.1534388-.3615466.2396399-.57854191.2396399h-3.27272727c-.45186934 0-.81818182-.3663125-.81818182-.8181818v-3.2727273c0-.21699531.08620105-.42510306.23963991-.57854191l8.18181818-8.18181818c.3195199-.31951988.8375639-.31951988 1.1570838 0z"/></g></svg>