<svg height="19" viewBox="0 0 20 19" width="20" xmlns="http://www.w3.org/2000/svg"><path d="m144.8 1.85c-.524671 0-.95.42532949-.95.95v12.6c0 .5246705.425329.95.95.95h14.4c.524671 0 .95-.4253295.95-.95v-9.9c0-.52467051-.425329-.95-.95-.95h-8.1c-.2842 0-.549597-.14203597-.707243-.37850483l-1.547663-2.32149517zm14.4 1c1.463555 0 2.65 1.18644541 2.65 2.65v9.9c0 1.4635546-1.186445 2.65-2.65 2.65h-14.4c-1.463555 0-2.65-1.1864454-2.65-2.65v-12.6c0-1.46355459 1.186445-2.65 2.65-2.65h4.5c.2842 0 .549597.14203597.707243.37850483l1.547663 2.32149517z" fill="#232d37" transform="translate(-142)"/></svg>