<?xml version="1.0" encoding="UTF-8"?>
<svg width="20px" height="19px" viewBox="0 0 20 19" version="1.1" xmlns="http://www.w3.org/2000/svg" xmlns:xlink="http://www.w3.org/1999/xlink">
    <title></title>
    <desc></desc>
    <defs></defs>
    <g id="Design" stroke="none" stroke-width="1" fill="none" fill-rule="evenodd">
        <g id="Singular-Desktop" transform="translate(-795.000000, -1185.000000)" class="fill-layer" fill="#232D37" fill-rule="nonzero">
            <g id="Group-7" transform="translate(653.000000, 1185.000000)">
                <path d="M144.8,1.85 C144.275329,1.85 143.85,2.27532949 143.85,2.8 L143.85,15.4 C143.85,15.9246705 144.275329,16.35 144.8,16.35 L159.2,16.35 C159.724671,16.35 160.15,15.9246705 160.15,15.4 L160.15,5.5 C160.15,4.97532949 159.724671,4.55 159.2,4.55 L151.1,4.55 C150.8158,4.55 150.550403,4.40796403 150.392757,4.17149517 L148.845094,1.85 L144.8,1.85 Z M159.2,2.85 C160.663555,2.85 161.85,4.03644541 161.85,5.5 L161.85,15.4 C161.85,16.8635546 160.663555,18.05 159.2,18.05 L144.8,18.05 C143.336445,18.05 142.15,16.8635546 142.15,15.4 L142.15,2.8 C142.15,1.33644541 143.336445,0.15 144.8,0.15 L149.3,0.15 C149.5842,0.15 149.849597,0.292035965 150.007243,0.528504833 L151.554906,2.85 L159.2,2.85 Z" id="Shape"></path>
            </g>
        </g>
    </g>
</svg>