<svg height="48" viewBox="0 0 48 48" width="48" xmlns="http://www.w3.org/2000/svg"><path d="m38.4765585 35.0824459 8.8204978 8.8204978c.9372583.9372583.9372583 2.4568543 0 3.3941126s-2.4568543.9372583-3.3941126 0l-8.8204978-8.8204978c-3.69521 2.9559066-8.382413 4.7234415-13.4824459 4.7234415-11.9293506 0-21.6-9.6706494-21.6-21.6s9.6706494-21.6 21.6-21.6 21.6 9.6706494 21.6 21.6c0 5.1000329-1.7675349 9.7872359-4.7234415 13.4824459zm-4.7772322-1.8271073c2.9106972-3.0208709 4.7006737-7.129069 4.7006737-11.6553386 0-9.2783838-7.5216162-16.8-16.8-16.8s-16.8 7.5216162-16.8 16.8 7.5216162 16.8 16.8 16.8c4.5262696 0 8.6344677-1.7899765 11.6553386-4.7006737.0631614-.0821455.1323631-.1611405.2076051-.2363826.0752421-.075242.1542371-.1444437.2363826-.2076051z" fill="#69737d"/></svg>