<?xml version="1.0" encoding="UTF-8"?>
<svg width="48px" height="48px" viewBox="0 0 48 48" version="1.1" xmlns="http://www.w3.org/2000/svg" xmlns:xlink="http://www.w3.org/1999/xlink">
    <title></title>
    <desc></desc>
    <defs></defs>
    <g id="Page-1" stroke="none" stroke-width="1" fill="none" fill-rule="evenodd">
        <g id="spyglass-white" fill="#FFFFFF" fill-rule="nonzero">
            <path d="M38.4765585,35.0824459 L47.2970563,43.9029437 C48.2343146,44.840202 48.2343146,46.359798 47.2970563,47.2970563 C46.359798,48.2343146 44.840202,48.2343146 43.9029437,47.2970563 L35.0824459,38.4765585 C31.3872359,41.4324651 26.7000329,43.2 21.6,43.2 C9.6706494,43.2 0,33.5293506 0,21.6 C0,9.6706494 9.6706494,0 21.6,0 C33.5293506,0 43.2,9.6706494 43.2,21.6 C43.2,26.7000329 41.4324651,31.3872359 38.4765585,35.0824459 Z M33.6993263,33.2553386 C36.6100235,30.2344677 38.4,26.1262696 38.4,21.6 C38.4,12.3216162 30.8783838,4.8 21.6,4.8 C12.3216162,4.8 4.8,12.3216162 4.8,21.6 C4.8,30.8783838 12.3216162,38.4 21.6,38.4 C26.1262696,38.4 30.2344677,36.6100235 33.2553386,33.6993263 C33.3185,33.6171808 33.3877017,33.5381858 33.4629437,33.4629437 C33.5381858,33.3877017 33.6171808,33.3185 33.6993263,33.2553386 Z" id="Combined-Shape"></path>
        </g>
    </g>
</svg>