<svg height="18" viewBox="0 0 18 18" width="18" xmlns="http://www.w3.org/2000/svg"><g fill="#232d37" fill-rule="evenodd"><path d="m15.4496399 8.42490555-6.78854191-6.78854191h-7.02473435v7.02445521l6.78886363 6.78096115c.15346494.1536358.36171062.2399618.57886364.2399618s.4253987-.086326.57918536-.2402837l5.86535763-5.86535762c.3165156-.31917613.3162794-.83403494.001006-1.15119493zm1.1588024 2.30554895-5.8677605 5.8677655c-.4603948.4609073-1.08513183.7198854-1.73659089.7198854s-1.2761961-.2589781-1.73593214-.7192266l-7.02818182-7.02000004c-.15364502-.15346616-.23997695-.36171832-.23997695-.57887876v-8.18181818c0-.45186934.36631248-.81818182.81818182-.81818182h8.18181818c.21699531 0 .42510306.08620105.57854191.23963991l7.02990039 7.02990554c.9516852.95736467.9516852 2.50354443 0 3.46090905z" fill-rule="nonzero"/><circle cx="5" cy="5" r="1"/></g></svg>