<?xml version="1.0" encoding="UTF-8"?>
<svg width="125px" height="47px" viewBox="0 0 125 47" version="1.1" xmlns="http://www.w3.org/2000/svg" xmlns:xlink="http://www.w3.org/1999/xlink">
    <defs></defs>
    <g id="Page-1" stroke="none" stroke-width="1" fill="none" fill-rule="evenodd">
        <g id="09.4.8.1_direct_sell" transform="translate(-149.000000, -4370.000000)">
            <g id="footer" transform="translate(0.000000, 4284.000000)">
                <g id="logo_footer" transform="translate(150.000000, 87.000000)">
                    <path d="M22.2142857,44.5714286 C34.5,44.5714286 44.4285714,34.6428571 44.4285714,22.2857143 C44.4285714,10 34.5,0 22.2142857,0 C9.92857143,0.0714285714 0,10 0,22.2857143 C0,34.5714286 9.92857143,44.5714286 22.2142857,44.5714286" id="Fill-1" fill="#FFF200"></path>
                    <path d="M22.1428571,45 C34.3571429,45 44.2857143,34.9285714 44.2857143,22.5 C44.2857143,10.0714286 34.3571429,0 22.1428571,0 C9.92857143,0 0,10.0714286 0,22.5 C0,34.9285714 9.92857143,45 22.1428571,45 L22.1428571,45 L22.1428571,45 L22.1428571,45 L22.1428571,45 Z" id="Stroke-2" stroke="#000000" stroke-width="2"></path>
                    <path d="M16,31.8571429 L20.2857143,31.8571429 L26.2142857,17.2142857 L21.7857143,17.2142857 L19.9285714,21.8571429 C19.3571429,23.3571429 18.7142857,25.0714286 18.1428571,26.5 L18.1428571,26.5 C17.6428571,25 17.0714286,23.4285714 16.5,21.8571429 L14.7857143,17.1428571 L10,17.1428571 L16,31.8571429 L16,31.8571429 L16,31.8571429 L16,31.8571429 L16,31.8571429 Z M27.7142857,31.8571429 L32.2142857,31.8571429 L32.2142857,17.2142857 L27.7142857,17.2142857 L27.7142857,31.8571429 L27.7142857,31.8571429 L27.7142857,31.8571429 L27.7142857,31.8571429 Z" id="Fill-4" fill="#000000"></path>
                    <polygon id="Fill-5" fill="#000000" points="27.7100067 15.2142857 32.2100067 15.2142857 32.2100067 10.7142857 27.7100067 10.7142857"></polygon>
                    <path d="M52.1428571,32.1428571 L54.1428571,32.1428571 L54.1428571,25.7142857 L52.1428571,25.7142857 L52.1428571,32.1428571 L52.1428571,32.1428571 L52.1428571,32.1428571 L52.1428571,32.1428571 Z M55.7857143,32.1428571 L57.7857143,32.1428571 L57.7857143,27.7857143 C58.1428571,27.5 58.6428571,27.2142857 59.1428571,27.2142857 C59.4285714,27.2142857 59.6428571,27.2857143 59.8571429,27.5 C60,27.7142857 60.0714286,27.9285714 60.0714286,28.4285714 L60.0714286,32.1428571 L62.0714286,32.1428571 L62.0714286,28.1428571 C62.0714286,27.2142857 61.9285714,26.6428571 61.5,26.2142857 C61.0714286,25.7857143 60.5,25.5714286 59.7857143,25.5714286 C59,25.5714286 58.2857143,25.9285714 57.7857143,26.2857143 L57.7857143,26.2857143 L57.7857143,25.7142857 L55.7857143,25.7142857 L55.7857143,32.1428571 L55.7857143,32.1428571 L55.7857143,32.1428571 L55.7857143,32.1428571 L55.7857143,32.1428571 Z M64.7142857,31.6428571 C65.1428571,32.0714286 65.7142857,32.2857143 66.3571429,32.2857143 C66.9285714,32.2857143 67.5,32.1428571 67.7857143,31.9285714 L67.7857143,30.3571429 C67.5,30.5 67.1428571,30.6428571 66.8571429,30.6428571 C66.2857143,30.6428571 66.1428571,30.1428571 66.1428571,29.5714286 L66.1428571,27.4285714 L67.8571429,27.4285714 L67.8571429,25.7142857 L66.1428571,25.7142857 L66.1428571,23.7142857 L64.1428571,24.0714286 L64.1428571,25.7142857 L63.0714286,25.7142857 L63.0714286,27.3571429 L64.1428571,27.3571429 L64.1428571,29.7142857 C64.1428571,30.7857143 64.3571429,31.2857143 64.7142857,31.6428571 L64.7142857,31.6428571 L64.7142857,31.6428571 L64.7142857,31.6428571 L64.7142857,31.6428571 Z M75,29.4285714 C75,29.2857143 75.0714286,29 75.0714286,28.7142857 C75.0714286,26.5714286 73.5714286,25.5 72,25.5 C70.2142857,25.5 68.6428571,26.8571429 68.6428571,28.9285714 C68.6428571,30.9285714 70.1428571,32.2857143 72.2857143,32.2857143 C73.1428571,32.2857143 74.1428571,32.0714286 74.7142857,31.7142857 L74.7142857,30.0714286 C74,30.5 73.2142857,30.7857143 72.5,30.7857143 C71.5714286,30.7857143 70.8571429,30.3571429 70.6428571,29.5 L75,29.5 L75,29.4285714 L75,29.4285714 L75,29.4285714 L75,29.4285714 Z M71.9285714,27.0714286 C72.5714286,27.0714286 73.0714286,27.5 73.2142857,28.2142857 L70.6428571,28.2142857 C70.7142857,27.5 71.2857143,27.0714286 71.9285714,27.0714286 L71.9285714,27.0714286 L71.9285714,27.0714286 L71.9285714,27.0714286 L71.9285714,27.0714286 Z M76.2857143,32.1428571 L78.2857143,32.1428571 L78.2857143,22.1428571 L76.2857143,22.1428571 L76.2857143,32.1428571 L76.2857143,32.1428571 L76.2857143,32.1428571 L76.2857143,32.1428571 Z M79.9285714,32.1428571 L81.9285714,32.1428571 L81.9285714,22.1428571 L79.9285714,22.1428571 L79.9285714,32.1428571 L79.9285714,32.1428571 L79.9285714,32.1428571 L79.9285714,32.1428571 Z M83.5714286,32.1428571 L85.5714286,32.1428571 L85.5714286,25.7142857 L83.5714286,25.7142857 L83.5714286,32.1428571 L83.5714286,32.1428571 L83.5714286,32.1428571 L83.5714286,32.1428571 Z M87.7857143,34.7142857 C88.3571429,35 89.1428571,35.2142857 90,35.2142857 C92.0714286,35.2142857 93.4285714,34.0714286 93.4285714,32.0714286 L93.4285714,25.7142857 L91.8571429,26 C91.4285714,25.7857143 90.8571429,25.6428571 90.2142857,25.6428571 C88.2142857,25.6428571 86.8571429,27.1428571 86.8571429,29 C86.8571429,30.9285714 88.2857143,32.1428571 89.8571429,32.1428571 C90.4285714,32.1428571 91,32 91.3571429,31.7142857 L91.3571429,31.7142857 L91.3571429,32.0714286 C91.3571429,33 90.7857143,33.5 89.7857143,33.5 C89.0714286,33.5 88.3571429,33.2857143 87.7142857,32.8571429 L87.7142857,34.7142857 L87.7857143,34.7142857 L87.7857143,34.7142857 L87.7857143,34.7142857 L87.7857143,34.7142857 Z M88.9285714,28.8571429 C88.9285714,28 89.4285714,27.2857143 90.4285714,27.2857143 C90.7857143,27.2857143 91.1428571,27.3571429 91.4285714,27.5 L91.4285714,30.2142857 C91.1428571,30.3571429 90.7857143,30.5 90.4285714,30.5 C89.5,30.5 88.9285714,29.7857143 88.9285714,28.8571429 L88.9285714,28.8571429 L88.9285714,28.8571429 L88.9285714,28.8571429 L88.9285714,28.8571429 Z M101.071429,29.4285714 C101.071429,29.2857143 101.142857,29 101.142857,28.7142857 C101.142857,26.5714286 99.6428571,25.5 98.0714286,25.5 C96.2857143,25.5 94.7142857,26.8571429 94.7142857,28.9285714 C94.7142857,30.9285714 96.2142857,32.2857143 98.3571429,32.2857143 C99.2142857,32.2857143 100.142857,32.0714286 100.785714,31.7142857 L100.785714,30.0714286 C100.071429,30.5 99.2857143,30.7857143 98.5714286,30.7857143 C97.6428571,30.7857143 96.9285714,30.3571429 96.7142857,29.5 L101.071429,29.5 L101.071429,29.4285714 L101.071429,29.4285714 L101.071429,29.4285714 L101.071429,29.4285714 Z M98,27.0714286 C98.6428571,27.0714286 99.1428571,27.5 99.2857143,28.2142857 L96.7142857,28.2142857 C96.8571429,27.5 97.4285714,27.0714286 98,27.0714286 L98,27.0714286 L98,27.0714286 L98,27.0714286 L98,27.0714286 Z M102.428571,32.1428571 L104.428571,32.1428571 L104.428571,27.7857143 C104.785714,27.5 105.285714,27.2142857 105.785714,27.2142857 C106.071429,27.2142857 106.285714,27.2857143 106.5,27.5 C106.642857,27.7142857 106.714286,27.9285714 106.714286,28.4285714 L106.714286,32.1428571 L108.714286,32.1428571 L108.714286,28.1428571 C108.714286,27.2142857 108.571429,26.6428571 108.142857,26.2142857 C107.714286,25.7857143 107.142857,25.5714286 106.428571,25.5714286 C105.642857,25.5714286 104.928571,25.9285714 104.428571,26.2857143 L104.428571,26.2857143 L104.428571,25.7142857 L102.428571,25.7142857 L102.428571,32.1428571 L102.428571,32.1428571 L102.428571,32.1428571 L102.428571,32.1428571 L102.428571,32.1428571 Z M109.928571,28.9285714 C109.928571,30.8571429 111.428571,32.2857143 113.5,32.2857143 C114.214286,32.2857143 115,32.1428571 115.642857,31.7857143 L115.642857,30 C115.071429,30.4285714 114.357143,30.6428571 113.785714,30.6428571 C112.714286,30.6428571 112,29.9285714 112,29 C112,28 112.714286,27.2857143 113.785714,27.2857143 C114.428571,27.2857143 115,27.5 115.571429,27.8571429 L115.571429,26 C115.071429,25.7142857 114.357143,25.5714286 113.642857,25.5714286 C111.571429,25.5714286 109.928571,26.9285714 109.928571,28.9285714 L109.928571,28.9285714 L109.928571,28.9285714 L109.928571,28.9285714 L109.928571,28.9285714 Z M123,29.4285714 C123,29.2857143 123.071429,29 123.071429,28.7142857 C123.071429,26.5714286 121.571429,25.5 120,25.5 C118.214286,25.5 116.642857,26.8571429 116.642857,28.9285714 C116.642857,30.9285714 118.142857,32.2857143 120.285714,32.2857143 C121.142857,32.2857143 122.142857,32.0714286 122.714286,31.7142857 L122.714286,30.0714286 C122,30.5 121.214286,30.7857143 120.5,30.7857143 C119.571429,30.7857143 118.857143,30.3571429 118.642857,29.5 L123,29.5 L123,29.4285714 L123,29.4285714 L123,29.4285714 L123,29.4285714 Z M119.928571,27.0714286 C120.571429,27.0714286 121.071429,27.5 121.214286,28.2142857 L118.571429,28.2142857 C118.785714,27.5 119.285714,27.0714286 119.928571,27.0714286 L119.928571,27.0714286 L119.928571,27.0714286 L119.928571,27.0714286 L119.928571,27.0714286 Z" id="Fill-6" fill="#000000"></path>
                    <path d="M52.1428571,24.8571429 L54.1428571,24.8571429 L54.1428571,22.8571429 L52.1428571,22.8571429 L52.1428571,24.8571429 L52.1428571,24.8571429 L52.1428571,24.8571429 L52.1428571,24.8571429 Z M83.5714286,24.8571429 L85.5714286,24.8571429 L85.5714286,22.8571429 L83.5714286,22.8571429 L83.5714286,24.8571429 L83.5714286,24.8571429 L83.5714286,24.8571429 L83.5714286,24.8571429 Z" id="Fill-7" fill="#000000"></path>
                    <path d="M54.7857143,20.7142857 L56.7142857,20.7142857 L59.3571429,14.2857143 L57.3571429,14.2857143 L56.5714286,16.3571429 C56.2857143,17 56,17.7857143 55.7857143,18.4285714 L55.7857143,18.4285714 C55.5714286,17.7857143 55.2857143,17.0714286 55.0714286,16.3571429 L54.2142857,14.2857143 L52.1428571,14.2857143 L54.7857143,20.7142857 L54.7857143,20.7142857 L54.7857143,20.7142857 L54.7857143,20.7142857 L54.7857143,20.7142857 Z M60.2142857,20.7142857 L62.2142857,20.7142857 L62.2142857,14.2857143 L60.2142857,14.2857143 L60.2142857,20.7142857 L60.2142857,20.7142857 L60.2142857,20.7142857 L60.2142857,20.7142857 Z M63.5,17.6428571 C63.5,19.6428571 64.9285714,20.8571429 66.5,20.8571429 C67.1428571,20.8571429 67.7142857,20.6428571 68.1428571,20.3571429 L68.1428571,20.3571429 L68.1428571,20.7142857 L70.0714286,20.7142857 L70.0714286,10.7142857 L68.0714286,10.7142857 L68.0714286,14.3571429 L68.0714286,14.3571429 C67.7142857,14.2142857 67.3571429,14.1428571 66.8571429,14.1428571 C64.9285714,14.1428571 63.5,15.5714286 63.5,17.6428571 L63.5,17.6428571 L63.5,17.6428571 L63.5,17.6428571 L63.5,17.6428571 Z M65.5,17.5714286 C65.5,16.5714286 66.0714286,15.7857143 67.1428571,15.7857143 C67.5714286,15.7857143 67.8571429,15.8571429 68.1428571,16 L68.1428571,18.8571429 C67.8571429,19.0714286 67.4285714,19.2142857 67,19.2142857 C66,19.2142857 65.5,18.5 65.5,17.5714286 L65.5,17.5714286 L65.5,17.5714286 L65.5,17.5714286 L65.5,17.5714286 Z M77.7857143,18 C77.7857143,17.8571429 77.8571429,17.5714286 77.8571429,17.2857143 C77.8571429,15.1428571 76.3571429,14.0714286 74.7857143,14.0714286 C73,14.0714286 71.4285714,15.4285714 71.4285714,17.5 C71.4285714,19.5 72.9285714,20.8571429 75.0714286,20.8571429 C75.9285714,20.8571429 76.9285714,20.6428571 77.5,20.2857143 L77.5,18.6428571 C76.7857143,19.0714286 76,19.3571429 75.2857143,19.3571429 C74.3571429,19.3571429 73.6428571,18.9285714 73.4285714,18.0714286 L77.7857143,18.0714286 L77.7857143,18 L77.7857143,18 L77.7857143,18 L77.7857143,18 Z M74.7142857,15.6428571 C75.3571429,15.6428571 75.8571429,16.0714286 76,16.7857143 L73.4285714,16.7857143 C73.5714286,16.0714286 74.0714286,15.6428571 74.7142857,15.6428571 L74.7142857,15.6428571 L74.7142857,15.6428571 L74.7142857,15.6428571 L74.7142857,15.6428571 Z M80.7142857,17.5 C80.7142857,16.5714286 81.4285714,15.8571429 82.2857143,15.8571429 C83.1428571,15.8571429 83.8571429,16.5714286 83.8571429,17.5 C83.8571429,18.4285714 83.1428571,19.1428571 82.2857143,19.1428571 C81.4285714,19.1428571 80.7142857,18.4285714 80.7142857,17.5 L80.7142857,17.5 L80.7142857,17.5 L80.7142857,17.5 L80.7142857,17.5 Z M78.7142857,17.5 C78.7142857,19.4285714 80.2142857,20.8571429 82.2857143,20.8571429 C84.3571429,20.8571429 85.8571429,19.3571429 85.8571429,17.5 C85.8571429,15.6428571 84.3571429,14.1428571 82.2857143,14.1428571 C80.2142857,14.1428571 78.7142857,15.5714286 78.7142857,17.5 L78.7142857,17.5 L78.7142857,17.5 L78.7142857,17.5 L78.7142857,17.5 Z" id="Fill-8" fill="#000000"></path>
                    <polygon id="Fill-9" fill="#000000" points="60.2100067 13.4285714 62.2100067 13.4285714 62.2100067 11.4285714 60.2100067 11.4285714"></polygon>
                </g>
            </g>
        </g>
    </g>
</svg>