<?xml version="1.0" standalone="no"?>
<!DOCTYPE svg PUBLIC "-//W3C//DTD SVG 1.1//EN" "http://www.w3.org/Graphics/SVG/1.1/DTD/svg11.dtd" >
<svg xmlns="http://www.w3.org/2000/svg">
<metadata>Generated by IcoMoon</metadata>
<defs>
<font id="premio-folder" horiz-adv-x="1024">
<font-face units-per-em="1024" ascent="960" descent="-64" />
<missing-glyph horiz-adv-x="1024" />
<glyph unicode="&#x20;" horiz-adv-x="512" d="" />
<glyph unicode="&#xe900;" glyph-name="dynamic-folder" d="M694.622 758.624c-12.501 12.501-32.75 12.501-45.25 0l-639.998-639.997c-12.5-12.501-12.5-32.749 0-45.25l128-128c6.249-6.25 14.437-9.374 22.626-9.374s16.374 3.125 22.626 9.374l639.995 639.998c12.501 12.499 12.501 32.749 0 45.248l-127.998 128zM159.998 13.25l-82.748 82.752 434.747 434.747 82.752-82.75c0 0.002-434.751-434.749-434.751-434.749zM639.997 493.25l-82.75 82.75 114.749 114.75 82.752-82.752-114.75-114.749zM448.002 704c32 63.998 63.998 96 128 128-64 32-96 63.999-128 128-32.002-63.999-64.003-96-128-128 64-32 95.998-64.002 128-128v0zM959.998 512c-15.998-32-32.005-48-63.998-63.998 32-16 48-32.002 63.998-64 16 32.002 32.002 48 64 64-31.998 15.998-47.998 32-64 63.998zM959.998 864c-47.998 24.001-72 48-95.998 96-24.002-48-48.005-72.001-96-96 48-24.001 72-48 96-95.999 24 47.999 48 72 95.998 95.999z" />
<glyph unicode="&#xe901;" glyph-name="star" d="M1021.295 592.423c-6.605 19.354-24.064 33.025-44.442 34.612l-291.903 23.194-126.315 279.612c-8.244 18.381-26.522 30.158-46.645 30.158s-38.401-11.776-46.645-30.107l-126.315-279.664-291.9-23.194c-20.020-1.587-37.275-14.746-44.085-33.639s-1.997-40.040 12.391-54.069l215.712-210.285-76.291-330.356c-4.71-20.429 3.534-41.677 20.788-53.606 8.807-6.042 18.945-9.114 29.134-9.114 9.882 0 19.815 2.867 28.417 8.602l278.793 185.863 278.793-185.863c17.818-11.878 41.217-11.418 58.626 1.229 17.304 12.646 24.933 34.816 19.045 55.398l-93.646 327.694 232.253 209.005c15.206 13.722 20.787 35.124 14.234 54.53z" />
<glyph unicode="&#xe902;" glyph-name="move" d="M1014.704 469.51l-167.38 157.538c-8.58 8.078-21.138 10.282-31.963 5.606-10.818-4.675-17.818-15.33-17.818-27.116v-68.924h-196.926v196.924h68.924c11.784 0 22.442 7.004 27.116 17.822s2.472 23.38-5.606 31.96l-157.54 167.386c-5.582 5.93-13.366 9.294-21.51 9.294s-15.928-3.364-21.51-9.294l-157.538-167.386c-8.078-8.58-10.28-21.142-5.606-31.96s15.33-17.822 27.116-17.822h68.924v-196.924h-196.924v68.924c0 11.784-7.004 22.442-17.822 27.116-10.82 4.674-23.38 2.471-31.96-5.606l-167.386-157.538c-5.93-5.582-9.294-13.366-9.294-21.51s3.364-15.928 9.294-21.51l167.384-157.538c8.58-8.078 21.14-10.282 31.96-5.606 10.819 4.675 17.822 15.33 17.822 27.116v68.924h196.924v-196.921h-68.924c-11.784 0-22.442-7.007-27.116-17.825s-2.472-23.376 5.606-31.963l157.538-167.38c5.58-5.932 13.366-9.296 21.51-9.296s15.928 3.365 21.51 9.296l157.539 167.38c8.078 8.587 10.279 21.146 5.606 31.963s-15.33 17.825-27.116 17.825h-68.924v196.921h196.923v-68.924c0-11.784 7.007-22.442 17.825-27.116s23.376-2.471 31.956 5.606l167.387 157.538c5.932 5.58 9.289 13.366 9.289 21.51s-3.357 15.928-9.289 21.51z" />
<glyph unicode="&#xe903;" glyph-name="folder-open" d="M8.448 61.399c9.523-14.336 25.549-22.992 42.752-22.992h767.994c20.48 0 39.014 12.186 47.049 31.027l153.6 358.398c6.806 15.82 5.168 33.945-4.301 48.332-9.523 14.387-25.552 23.039-42.749 23.039h-51.2v153.599c0 56.473-45.93 102.399-102.4 102.399h-340.734l-130.866 102.399h-245.195c-56.473 0-102.399-45.926-102.399-102.399v-665.595h0.358c0-9.83 2.509-19.709 8.090-28.208zM819.193 652.802v-153.599h-614.395c-20.48 0-39.014-12.185-47.052-31.027l-55.347-129.176v313.801h716.795z" />
<glyph unicode="&#xe904;" glyph-name="edit-folder" d="M372.090 132.805l-214.445 214.448 518.671 518.671 214.445-214.445-518.672-518.675zM137.6 309.479l196.715-196.713-294.931-98.217 98.216 294.93zM956.715 717.154l-37.195-37.196-214.726 214.728 37.196 37.196c37.468 37.491 98.225 37.491 135.696 0l79.029-79.033c37.203-37.593 37.203-98.113 0-135.695z" />
<glyph unicode="&#xe905;" glyph-name="pin" d="M588.646 348.696l166.548 166.544 59.627-59.63 59.633 59.63c32.913 32.916 32.913 86.344 0 119.26l-178.893 178.89c-32.913 32.916-86.341 32.916-119.258 0l-59.63-59.63 59.63-59.63-166.546-166.546-131.603 29.815c-11.181 0.030-21.884-4.413-29.815-12.343l-59.63-59.63c-16.488-16.488-16.457-43.172 0-59.63l119.26-119.258-89.445-89.449-29.815-89.443 89.445 29.816 89.445 89.443 119.26-119.26c16.488-16.486 43.142-16.486 59.63 0l59.63 59.633c7.933 7.927 12.372 18.631 12.342 29.81l-29.814 131.608z" />
<glyph unicode="&#xe906;" glyph-name="search" d="M437.911 84.18c101.048 0 193.94 34.757 268.056 92.394l201.934-201.925c21.372-21.38 56.027-21.38 77.4 0 21.372 21.372 21.372 56.027 0 77.4l-201.933 201.93c57.695 74.171 92.453 167.063 92.453 268.111 0 241.453-196.456 437.911-437.909 437.911s-437.911-196.458-437.911-437.911c0-241.453 196.458-437.909 437.911-437.909zM437.911 850.522c181.131 0 328.436-147.302 328.436-328.433s-147.305-328.436-328.436-328.436c-181.131 0-328.433 147.305-328.433 328.436s147.302 328.433 328.433 328.433z" />
<glyph unicode="&#xe907;" glyph-name="folder-close" d="M921.6 818.215h-490.803l-87.398 87.398c-9.574 9.626-22.63 15.002-36.198 15.002h-204.8c-56.474 0-102.4-45.926-102.4-102.4v-716.8c0-56.47 45.926-102.4 102.4-102.4h819.2c56.47 0 102.4 45.93 102.4 102.4v614.4c0 56.474-45.93 102.4-102.4 102.4z" />
<glyph unicode="&#xe908;" glyph-name="arrow-sort" horiz-adv-x="783" d="M246.971 919.211l166.793-225.886c13.697-18.512 0.676-45.166-22.235-45.166h-83.766v-536.477c0-15.607-12.063-28.232-27.428-28.232h-111.194c-15.365 0-27.799 12.625-27.799 28.232v536.477h-83.397c-22.891 0-35.945 26.635-22.233 45.166l166.793 225.886c10.478 14.229 33.988 14.229 44.466 0zM641.349 248.459h83.769c22.914 0 35.93-26.654 22.233-45.164l-166.792-225.882c-11.082-15.047-33.367-15.071-44.466 0l-166.795 225.888c-13.712 18.528-0.66 45.164 22.233 45.164h83.398v536.474c0 15.607 12.433 28.235 27.799 28.235h111.196c15.366 0 27.425-12.628 27.425-28.235v-536.48z" />
<glyph unicode="&#xe909;" glyph-name="arrow-down" horiz-adv-x="1843" d="M921.606 195.504l-729.346 731.432c-43.959 44.085-115.231 44.085-159.19 0s-43.959-115.56 0-159.645l795.951-798.228c25.289-25.36 59.619-36.133 92.586-32.313 32.967-3.82 67.295 6.953 92.586 32.313l795.951 798.228c43.958 44.085 43.958 115.56 0 159.645-43.96 44.085-115.231 44.085-159.191 0l-729.346-731.432z" />
<glyph unicode="&#xe90a;" glyph-name="add-folder" d="M512 960c42.415 0 76.8-34.385 76.8-76.8v-870.4c0-42.415-34.385-76.8-76.8-76.8s-76.8 34.385-76.8 76.8v870.4c0 42.415 34.385 76.8 76.8 76.8zM1024 448c0-42.415-34.385-76.8-76.8-76.8h-870.4c-42.415 0-76.8 34.385-76.8 76.8s34.385 76.8 76.8 76.8h870.4c42.415 0 76.8-34.385 76.8-76.8z" />
<glyph unicode="&#xe90b;" glyph-name="remove" d="M612.572 960v-64h319.999v-127.999h-896v127.999h320v64h256.001zM228.571-64c-70.594 0-127.999 57.439-127.999 128v639.999h768v-639.999c0-70.561-57.403-128-128-128h-512.001z" />
<glyph unicode="&#xe90c;" glyph-name="edit" d="M360.346 64.088l-232.261 232.259 561.763 561.762 232.264-232.26-561.766-561.761zM106.375 255.434l213.059-213.055-319.434-106.379 106.375 319.434zM993.543 696.978l-40.28-40.286-232.571 232.568 40.286 40.286c40.58 40.605 106.386 40.605 146.966 0l85.599-85.6c40.287-40.716 40.287-106.265 0-146.968z" />
<glyph unicode="&#xe90d;" glyph-name="zip-file" horiz-adv-x="768" d="M754 750l-195.8 196c-9 9-21.2 14-34 14h-12.2v-256h256v12.2c0 12.6-5 24.8-14 33.8zM256.8 288c-35.8 0-64.8-24.2-64.8-54 0-30 29.2-54 65-54s64.8 24.2 64.8 54-29.2 54-65 54zM448 688v272h-127.2v-64h-64v64h-208.8c-26.6 0-48-21.4-48-48v-928c0-26.6 21.4-48 48-48h672c26.6 0 48 21.4 48 48v656h-272c-26.4 0-48 21.6-48 48zM191.8 896h64v-64h-64zM256.4 128c-66.4 0-116 60.8-102.8 125.8l39.2 194.2v64h64v64h-64v64h64v64h-64v64h64v64h64v-64h-64v-64h64v-64h-64v-64h64v-64h-64v-64h44.2c11.4 0 21.4-8.2 23.6-19.4l34.6-175.4c12.8-64.8-36.8-125.2-102.8-125.2z" />
<glyph unicode="&#xe90e;" glyph-name="clone" horiz-adv-x="896" d="M640 64v-80c0-26.51-21.49-48-48-48h-544c-26.51 0-48 21.49-48 48v736c0 26.51 21.49 48 48 48h144v-592c0-61.758 50.242-112 112-112h336zM640 752v208h-336c-26.51 0-48-21.49-48-48v-736c0-26.51 21.49-48 48-48h544c26.51 0 48 21.49 48 48v528h-208c-26.4 0-48 21.6-48 48zM881.942 814.058l-131.884 131.884c-8.686 8.686-20.686 14.058-33.94 14.058h-12.118v-192h192v12.118c0 13.254-5.372 25.254-14.058 33.94v0z" />
<glyph unicode="&#xe90f;" glyph-name="copy" d="M195.2 807.527l-0.146-103.521v-512.196c0-42.028 16.696-82.337 46.416-112.062 29.72-29.718 70.029-46.416 112.059-46.416h420.133c-7.57-21.387-21.585-39.907-40.116-53.007s-40.665-20.129-63.356-20.136h-316.66c-61.429 0-120.342 24.408-163.779 67.84-43.437 43.44-67.839 102.356-67.839 163.781v512.196c0 47.786 30.574 88.503 73.289 103.521zM792.387 935.625c14.408 0 28.679-2.838 41.983-8.352 13.312-5.514 25.41-13.595 35.599-23.783s18.271-22.283 23.779-35.594c5.515-13.311 8.353-27.578 8.353-41.985v-633.904c0-14.409-2.838-28.679-8.353-41.984-5.508-13.312-13.59-25.41-23.779-35.599s-22.287-18.271-35.599-23.779c-13.305-5.515-27.575-8.353-41.983-8.353h-438.857c-29.098 0-57.004 11.557-77.58 32.132s-32.135 48.486-32.135 77.583v633.904c0 29.098 11.559 57.004 32.135 77.58s48.482 32.135 77.58 32.135h438.857zM792.387 862.482h-438.857c-9.699 0-19.001-3.853-25.86-10.712s-10.712-16.16-10.712-25.86v-633.904c0-20.187 16.384-36.571 36.571-36.571h438.857c9.699 0 19.002 3.855 25.863 10.708 6.853 6.861 10.708 16.165 10.708 25.863v633.904c0 9.699-3.855 19.001-10.708 25.86-6.861 6.859-16.163 10.712-25.863 10.712z" />
<glyph unicode="&#xe910;" glyph-name="cut" d="M372.541 684.983c11.216 24.381 17.554 51.2 17.554 79.969 0 107.764-87.284 195.048-195.047 195.048s-195.048-87.284-195.048-195.048c0-107.764 87.284-195.047 195.048-195.047 28.769 0 55.589 6.339 79.969 17.554l115.078-115.079-115.078-115.078c-24.381 11.215-51.2 17.554-79.969 17.554-107.764 0-195.048-87.284-195.048-195.050 0-107.761 87.284-195.043 195.048-195.043s195.047 87.281 195.047 195.043c0 28.774-6.339 55.591-17.554 79.972l115.079 115.078 341.331-341.336h146.286v48.764l-602.695 602.697zM195.048 667.429c-53.639 0-97.524 43.398-97.524 97.524s43.886 97.524 97.524 97.524c53.638 0 97.524-43.399 97.524-97.524s-43.886-97.524-97.524-97.524zM195.048 82.286c-53.639 0-97.524 43.396-97.524 97.521 0 54.128 43.886 97.526 97.524 97.526s97.524-43.399 97.524-97.526c0-54.126-43.886-97.521-97.524-97.521zM487.619 448c-13.654 0-24.381 10.728-24.381 24.381s10.728 24.381 24.381 24.381c13.653 0 24.381-10.728 24.381-24.381s-10.728-24.381-24.381-24.381zM828.95 911.238l-292.569-292.572 97.524-97.524 341.331 341.334v48.762h-146.286z" />
<glyph unicode="&#xe911;" glyph-name="menu-settings" d="M41.151 288.505l97.524-168.719c6.475-11.191 17.129-19.346 29.619-22.689 12.491-3.335 25.796-1.573 36.989 4.893l68.072 39.3c28.282-22.279 59.538-40.565 92.404-54.221v-77.919c0-12.932 5.138-25.337 14.283-34.48s21.547-14.285 34.48-14.285h195.048c12.932 0 25.335 5.142 34.48 14.285s14.282 21.548 14.282 34.48v77.919c33.123 13.795 64.211 32.037 92.401 54.221l68.074-39.3c23.259-13.407 53.197-5.361 66.611 17.796l97.521 168.719c6.422 11.206 8.148 24.493 4.813 36.969-3.328 12.475-11.461 23.129-22.608 29.64l-66.904 38.668c5.23 35.962 5.193 72.493-0.095 108.447l66.896 38.668c23.216 13.409 31.261 43.398 17.803 66.609l-97.529 168.716c-6.473 11.192-17.123 19.353-29.616 22.69s-25.797 1.578-36.988-4.892l-68.074-39.303c-28.156 22.217-59.232 40.462-92.354 54.224v77.921c0 12.932-5.138 25.335-14.283 34.48s-21.547 14.282-34.48 14.282h-195.048c-12.932 0-25.335-5.137-34.48-14.282s-14.282-21.547-14.282-34.48v-77.921c-33.123-13.79-64.211-32.033-92.404-54.224l-68.023 39.303c-5.541 3.21-11.66 5.296-18.008 6.139s-12.8 0.426-18.986-1.227c-6.186-1.653-11.987-4.51-17.068-8.406s-9.345-8.757-12.546-14.304l-97.524-168.716c-6.418-11.205-8.148-24.493-4.815-36.969s11.461-23.129 22.613-29.64l66.901-38.668c-5.26-35.958-5.26-72.49 0-108.447l-66.901-38.668c-23.211-13.409-31.256-43.398-17.798-66.609zM511.996 643.054c107.568 0 195.047-87.479 195.047-195.048s-87.479-195.048-195.047-195.048c-107.569 0-195.048 87.479-195.048 195.048s87.479 195.048 195.048 195.048z" />
<glyph unicode="&#xe912;" glyph-name="paste" d="M133.908 833.969h99.879c6.518-18.437 18.595-34.399 34.565-45.685s35.047-17.341 54.602-17.331h189.046c19.555-0.010 38.632 6.045 54.602 17.331s28.047 27.248 34.565 45.685h99.879c8.357 0 16.371-3.319 22.279-9.229s9.229-13.922 9.229-22.279v-63.015c0-8.357 3.319-16.371 9.229-22.279s13.922-9.229 22.279-9.229c8.357 0 16.371 3.319 22.279 9.229s9.229 13.922 9.229 22.279v63.015c0 25.069-9.959 49.111-27.685 66.838s-41.769 27.685-66.838 27.685h-99.879c-6.518 18.437-18.595 34.398-34.565 45.684s-35.047 17.341-54.602 17.331h-189.046c-19.555 0.010-38.632-6.045-54.602-17.331s-28.047-27.247-34.565-45.684h-99.879c-25.069 0-49.111-9.959-66.838-27.685s-27.685-41.769-27.685-66.838v-756.185c0-25.072 9.959-49.113 27.685-66.836 17.727-17.731 41.769-27.687 66.838-27.687h189.046c8.357 0 16.371 3.316 22.279 9.232 5.909 5.908 9.229 13.919 9.229 22.276s-3.319 16.368-9.229 22.276c-5.908 5.916-13.922 9.232-22.279 9.232h-189.046c-8.357 0-16.37 3.316-22.279 9.232-5.909 5.908-9.228 13.919-9.228 22.276v756.185c0 8.357 3.32 16.371 9.228 22.279s13.923 9.229 22.279 9.229zM322.954 833.969c-8.357 0-16.371 3.319-22.279 9.229s-9.229 13.922-9.229 22.279c0 8.357 3.319 16.37 9.229 22.279s13.922 9.228 22.279 9.228h189.046c8.357 0 16.371-3.32 22.279-9.228s9.229-13.923 9.229-22.279c0-8.357-3.319-16.371-9.229-22.279s-13.922-9.229-22.279-9.229h-189.046zM512.004 644.923c-25.069 0-49.112-9.959-66.838-27.685s-27.685-41.769-27.685-66.838v-504.123c0-25.072 9.959-49.113 27.685-66.836 17.726-17.731 41.769-27.687 66.838-27.687h315.073c25.072 0 49.113 9.956 66.844 27.687 17.723 17.723 27.68 41.763 27.68 66.836v504.123c0 25.069-9.956 49.111-27.68 66.838-17.731 17.726-41.771 27.685-66.844 27.685h-315.073z" />
<glyph unicode="&#xe913;" glyph-name="undo" d="M511.090 943.999c-132.538-0.238-252.876-52.466-341.72-137.37l-71.428 71.428c-30.24 30.24-81.942 8.824-81.942-33.94v-268.118c0-26.51 21.49-48 48-48h268.118c42.764 0 64.18 51.702 33.942 81.942l-83.5 83.5c61.728 57.798 141.602 89.814 226.46 90.546 184.797 1.596 340.567-147.954 338.967-338.884-1.517-181.123-148.352-333.103-335.987-333.103-82.254 0-159.994 29.357-221.26 83.11-9.486 8.32-23.812 7.814-32.736-1.107l-79.324-79.322c-9.744-9.747-9.261-25.632 0.964-34.867 87.952-79.443 204.504-127.814 332.356-127.814 273.933 0 496 222.067 496 495.996 0 273.618-223.29 496.494-496.91 496.004z" />
<glyph unicode="&#xe914;" glyph-name="upload" d="M281.603 294.394c-45.848 0.057-89.929 17.692-123.174 49.266s-53.121 74.688-55.541 120.472c-2.421 45.784 12.8 90.755 42.529 125.658s71.706 57.084 117.292 61.978c-13.423 52.639-5.385 108.455 22.345 155.168s72.881 80.497 125.521 93.92c52.639 13.423 108.455 5.385 155.168-22.345 46.716-27.73 80.497-72.881 93.922-125.52 31.306 4.359 63.169 2.23 93.622-6.255 30.447-8.485 58.823-23.144 83.365-43.065 24.536-19.921 44.715-44.679 59.278-72.732s23.194-58.804 25.361-90.338c2.173-31.534-2.173-63.176-12.754-92.959-10.587-29.784-27.187-57.070-48.765-80.162-21.584-23.097-47.684-41.5-76.686-54.073-28.996-12.572-60.274-19.046-91.881-19.012h-128.002v183.653l66.204-66.202c9.654-9.327 22.585-14.487 36.011-14.371s26.266 5.501 35.76 14.994c9.495 9.493 14.876 22.335 14.996 35.759 0.114 13.424-5.046 26.357-14.37 36.014l-153.602 153.6c-9.601 9.598-22.622 14.99-36.198 14.99s-26.597-5.392-36.198-14.99l-153.6-153.6c-9.326-9.657-14.487-22.59-14.371-36.014s5.502-26.266 14.994-35.759c9.493-9.493 22.335-14.878 35.759-14.994s26.358 5.044 36.014 14.371l66.202 66.15v-183.601h-179.2zM460.806 294.4h102.4v-256c0-13.574-5.394-26.601-14.996-36.198-9.602-9.603-22.625-14.996-36.204-14.996s-26.602 5.393-36.204 14.996c-9.602 9.597-14.996 22.625-14.996 36.198v256z" />
<glyph unicode="&#xe915;" glyph-name="active-icon" d="M512 753.2c-195.646 0-373.068-107.040-503.988-280.901-10.683-14.244-10.683-34.144 0-48.388 130.92-174.071 308.342-281.11 503.988-281.11s373.068 107.040 503.988 280.901c10.683 14.244 10.683 34.144 0 48.388-130.92 174.071-308.342 281.11-503.988 281.11zM526.035 233.083c-129.872-8.169-237.121 98.87-228.952 228.952 6.703 107.249 93.634 194.18 200.883 200.883 129.872 8.169 237.121-98.87 228.952-228.952-6.913-107.040-93.843-193.97-200.883-200.883zM519.541 332.372c-69.963-4.399-127.777 53.206-123.169 123.169 3.561 57.814 50.483 104.526 108.297 108.297 69.963 4.399 127.777-53.206 123.169-123.169-3.77-58.024-50.692-104.736-108.297-108.297z" />
</font>
</defs>
</svg>
