<svg fill="none" height="24" viewBox="0 0 96 24" width="96" xmlns="http://www.w3.org/2000/svg"><g clip-rule="evenodd" fill-rule="evenodd"><path d="m23.4693 1.3231-15.01549 12.9876-7.77419-9.48911z" fill="#335eea"/><path d="m23.2942 1.17322-15.05551 12.93868 7.77421 9.4891z" fill="#beccf9"/><path d="m54.4275 12.8764c0-2.1182-1.4877-3.32595-3.1567-3.32595s-2.431 1.28205-2.431 1.28205v-6.29882h-2.177v14.04692h2.177v-5.7971s.5806-1.152 1.7053-1.152c.9434 0 1.7054.5388 1.7054 1.8023v5.1468h2.177zm-14.4813 5.7042v-10.88821h-3.5014v-2.11819h9.1797v2.11819h-3.5013v10.88821zm-3.3423-5.7414c0-2.0067-1.4513-3.28875-3.9186-3.28875-1.796 0-3.3925.79895-3.3925.79895l.7075 1.8395s1.3244-.6503 2.5762-.6503c.7619 0 1.8504.3716 1.8504 1.5236v.5017s-.8164-.6318-2.3947-.6318c-1.8686 0-3.3744 1.2264-3.3744 2.9172 0 1.8766 1.4877 2.9543 3.1023 2.9543 1.9411 0 2.8301-1.3378 2.8301-1.3378v1.1148h2.0137zm-2.177 3.0844s-.6894 1.0219-1.9956 1.0219c-.6712 0-1.5602-.2043-1.5602-1.1334 0-.9476.9253-1.2449 1.5965-1.2449 1.1792 0 1.9593.446 1.9593.446zm25.3566-6.37315c2.3584 0 4.3358 1.87665 4.3358 4.58945 0 .1672 0 .5017-.0181.8361h-6.4222c.1633.7804 1.0522 1.7837 2.4129 1.7837 1.5057 0 2.3584-.8918 2.3584-.8918l1.0885 1.6722s-1.3606 1.2635-3.4469 1.2635c-2.6124 0-4.6262-2.0439-4.6262-4.6266s1.8324-4.62655 4.3178-4.62655zm2.1588 3.80905h-4.2633c.0726-.7804.7076-1.7838 2.1045-1.7838 1.4332 0 2.1225 1.022 2.1588 1.7838zm10.4539-2.2669c.0024-.0051.729-1.54215 2.7394-1.54215 1.7416 0 3.0115 1.24495 3.0115 3.36305v5.6671h-2.177v-5.0911c0-1.2077-.4536-1.858-1.5421-1.858-1.1429 0-1.6871 1.1334-1.6871 1.1334v5.8157h-2.177v-5.0911c0-1.2077-.4536-1.858-1.5421-1.858-1.1429 0-1.6872 1.1334-1.6872 1.1334v5.8157h-2.177v-8.80718h2.0319v1.28208s.7801-1.50505 2.5398-1.50505c2.0653 0 2.6652 1.53795 2.6669 1.54215zm15.4428 3.0473c0-2.7128-1.9775-4.58945-4.3359-4.58945-2.4854 0-4.3177 2.04385-4.3177 4.62655s2.0137 4.6266 4.6261 4.6266c2.0863 0 3.4469-1.2635 3.4469-1.2635l-1.0885-1.6722s-.8526.8918-2.3584.8918c-1.3606 0-2.2496-1.0033-2.4129-1.7837h6.4222c.0182-.3344.0182-.6689.0182-.8361zm-6.4404-.7804h4.2634c-.0363-.7618-.7257-1.7838-2.1589-1.7838-1.3969 0-2.0319 1.0034-2.1045 1.7838zm8.1499 2.2297-1.2155 1.6165s1.3606 1.5979 3.8823 1.5979c2.1952 0 3.7553-1.2077 3.7553-2.7128 0-1.8209-1.2155-2.3969-2.9208-2.7685-1.4513-.3158-2.0319-.4459-2.0319-.9848 0-.5388.7439-.8361 1.5602-.8361 1.1611 0 2.1408.7618 2.1408.7618l1.0885-1.6351s-1.2881-1.07765-3.2293-1.07765c-2.3584 0-3.7009 1.37495-3.7009 2.74995 0 1.6722 1.4876 2.4155 3.193 2.7871 1.3062.2787 1.7053.3902 1.7053.9662 0 .5388-.7438.7989-1.6328.7989-1.4513 0-2.5942-1.2634-2.5942-1.2634z" fill="#131a2b"/></g></svg>