<svg width="11" height="14" viewBox="0 0 11 14" fill="none" xmlns="http://www.w3.org/2000/svg">
<path d="M7.66667 1.99998H10.1667C10.6667 1.99998 11 2.33331 11 2.83331V3.66665H0.166668V2.83331C0.166668 2.33331 0.583335 1.99998 1 1.99998H3.5C3.66667 1.08331 4.58333 0.333313 5.58333 0.333313C6.58333 0.333313 7.5 1.08331 7.66667 1.99998ZM4.33333 1.99998H6.83333C6.66667 1.49998 6.08333 1.16665 5.58333 1.16665C5.08333 1.16665 4.5 1.49998 4.33333 1.99998ZM1 4.49998H10.1667L9.41667 12.9166C9.41667 13.3333 9 13.6666 8.58333 13.6666H2.58333C2.16667 13.6666 1.83333 13.3333 1.75 12.9166L1 4.49998Z" fill="black"/>
</svg>