<svg width="22" height="22" viewBox="0 0 22 22" fill="none" xmlns="http://www.w3.org/2000/svg">
    <path d="M22 4.1085L15.5094 0L11 3.70272L17.7387 7.62422L22 4.1085Z" fill="#242748"/>
    <path d="M0 11.2408L6.68189 15.1562L11 11.8427L4.59983 7.77026L0 11.2408Z" fill="#242748"/>
    <path d="M6.68189 0L0 4.30589L4.59983 7.76967L11 3.70211L6.68189 0Z" fill="#242748"/>
    <path d="M11 11.8426L15.4061 15.1561L22 11.2407L17.7387 7.62415L11 11.8426Z" fill="#242748"/>
    <path d="M16.0081 16.2085L15.3066 16.6265L14.6545 16.1345L11.0001 13.387L7.42872 16.1278L6.77728 16.6289L6.07083 16.2134L4.27783 15.1629V16.7957L10.9927 21.2336L17.7223 16.8294V15.1916L16.0081 16.2085Z" fill="#242748"/>
</svg>
