<svg class="lds-gear" width="200px"  height="200px"  xmlns="http://www.w3.org/2000/svg" xmlns:xlink="http://www.w3.org/1999/xlink" viewBox="0 0 100 100" preserveAspectRatio="xMidYMid" style="background: none;"><g transform="translate(50 50)">
<g transform="rotate(255.961)">
<animateTransform attributeName="transform" type="rotate" values="0;360" keyTimes="0;1" dur="3s" repeatCount="indefinite"></animateTransform><path d="M29.491524206117255 -5.5 L44.491524206117255 -5.5 L44.491524206117255 5.5 L29.491524206117255 5.5 A30 30 0 0 1 27.091963160377592 12.885089526919998 L27.091963160377592 12.885089526919998 L39.227218076001805 21.701868311307095 L32.7615803007846 30.601055249431518 L20.62632538516039 21.78427646504442 A30 30 0 0 1 14.344193009333706 26.34851280264186 L14.344193009333706 26.34851280264186 L18.979447924957917 40.61436054706916 L8.517826245711232 44.013547485193584 L3.88257133008702 29.747699740766283 A30 30 0 0 1 -3.882571330087016 29.747699740766283 L-3.882571330087016 29.747699740766283 L-8.517826245711227 44.013547485193584 L-18.97944792495792 40.61436054706916 L-14.34419300933371 26.34851280264186 A30 30 0 0 1 -20.62632538516038 21.784276465044428 L-20.62632538516038 21.784276465044428 L-32.761580300784594 30.601055249431525 L-39.227218076001805 21.701868311307095 L-27.091963160377592 12.885089526919996 A30 30 0 0 1 -29.491524206117255 5.500000000000009 L-29.491524206117255 5.500000000000009 L-44.491524206117255 5.500000000000011 L-44.491524206117255 -5.5 L-29.491524206117255 -5.500000000000002 A30 30 0 0 1 -27.091963160377595 -12.88508952691999 L-27.091963160377595 -12.88508952691999 L-39.227218076001805 -21.701868311307084 L-32.7615803007846 -30.601055249431518 L-20.626325385160385 -21.78427646504442 A30 30 0 0 1 -14.344193009333717 -26.348512802641856 L-14.344193009333717 -26.348512802641856 L-18.97944792495793 -40.614360547069154 L-8.51782624571123 -44.013547485193584 L-3.8825713300870164 -29.747699740766283 A30 30 0 0 1 3.8825713300870057 -29.747699740766286 L3.8825713300870057 -29.747699740766286 L8.517826245711214 -44.01354748519359 L18.979447924957913 -40.61436054706916 L14.344193009333706 -26.34851280264186 A30 30 0 0 1 20.626325385160378 -21.784276465044428 L20.626325385160378 -21.784276465044428 L32.76158030078459 -30.601055249431525 L39.227218076001805 -21.701868311307095 L27.091963160377592 -12.885089526919998 A30 30 0 0 1 29.491524206117255 -5.500000000000013 M0 -10A10 10 0 1 0 0 10 A10 10 0 1 0 0 -10" fill="#1d0e0b"></path></g></g></svg>