<svg width="73" height="23" viewBox="0 0 73 23" fill="none" xmlns="http://www.w3.org/2000/svg">
<mask id="mask0" mask-type="alpha" maskUnits="userSpaceOnUse" x="0" y="0" width="73" height="23">
<path d="M69.1 0H3.79999C1.69999 0 0 1.69999 0 3.79999V19.2C0 21.3 1.69999 23 3.79999 23H69.1C71.2 23 72.9 21.3 72.9 19.2V3.79999C72.9 1.69999 71.2 0 69.1 0Z" fill="#50ABF1"/>
</mask>
<g mask="url(#mask0)">
<rect width="73" height="23" fill="#0274B3"/>
<rect width="73" height="23" fill="#50ABF1"/>
<path d="M27.6 16V7H33.7V8.5H29.4V10.6H33.1V12.1H29.4V15.9H27.6V16Z" fill="white"/>
<path d="M34.8 12.6C34.8 12 34.9 11.5 35.2 10.9C35.5 10.4 35.9 10 36.4 9.70001C36.9 9.40001 37.5 9.29999 38.1 9.29999C39.1 9.29999 39.9 9.59999 40.5 10.3C41.1 11 41.4 11.7 41.4 12.7C41.4 13.7 41.1 14.5 40.5 15.1C39.9 15.7 39.1 16.1 38.1 16.1C37.5 16.1 36.9 16 36.4 15.7C35.9 15.4 35.4 15 35.2 14.5C35 14 34.8 13.4 34.8 12.6ZM36.6 12.7C36.6 13.3 36.8 13.8 37.1 14.2C37.4 14.5 37.8 14.7 38.2 14.7C38.6 14.7 39 14.5 39.3 14.2C39.6 13.9 39.8 13.4 39.8 12.7C39.8 12.1 39.6 11.6 39.3 11.2C39 10.9 38.6 10.7 38.2 10.7C37.8 10.7 37.4 10.9 37.1 11.2C36.8 11.6 36.6 12.1 36.6 12.7Z" fill="white"/>
<path d="M42.9 16V7H44.6V16H42.9Z" fill="white"/>
<path d="M46.4 16V7H48.1V16H46.4Z" fill="white"/>
<path d="M49.4 12.6C49.4 12 49.5 11.5 49.8 10.9C50.1 10.4 50.5 10 51 9.70001C51.5 9.40001 52.1 9.29999 52.7 9.29999C53.7 9.29999 54.5 9.59999 55.1 10.3C55.7 10.9 56 11.7 56 12.7C56 13.7 55.7 14.5 55 15.1C54.4 15.7 53.6 16.1 52.6 16.1C52 16.1 51.4 16 50.9 15.7C50.4 15.4 49.9 15 49.7 14.5C49.5 14 49.4 13.4 49.4 12.6ZM51.2 12.7C51.2 13.3 51.4 13.8 51.7 14.2C52 14.5 52.4 14.7 52.8 14.7C53.2 14.7 53.6 14.5 53.9 14.2C54.2 13.9 54.4 13.4 54.4 12.7C54.4 12.1 54.2 11.6 53.9 11.2C53.6 10.9 53.2 10.7 52.8 10.7C52.4 10.7 52 10.9 51.7 11.2C51.4 11.6 51.2 12.1 51.2 12.7Z" fill="white"/>
<path d="M58.7 16L56.6 9.5H58.3L59.5 13.8L60.6 9.5H62.3L63.4 13.8L64.6001 9.5H66.3L64.2 16H62.5L61.4 11.8L60.3 16H58.7Z" fill="white"/>
<path d="M11.3726 14.3343C10.7002 14.3343 10.1959 14.0751 9.69158 13.6431C9.35537 13.3839 9.18726 12.9519 9.01916 12.6063C9.35537 12.6927 9.77563 12.6926 10.1118 12.5198C9.52347 12.3471 9.01915 12.0879 8.68294 11.5695C8.34674 11.0511 8.09459 10.5327 8.09459 9.92787C8.43079 10.1007 8.85105 10.2735 9.18726 10.2735C8.5989 9.84149 8.17864 9.23671 8.09459 8.45912C8.01053 7.85432 8.17864 7.33588 8.4308 6.90389C9.77563 8.54548 11.5407 9.4095 13.5579 9.5823C13.5579 9.4959 13.558 9.40951 13.4739 9.32311C13.3899 8.89112 13.4739 8.45912 13.642 8.02712C13.9782 7.24953 14.5666 6.64469 15.4071 6.47189C16.3317 6.29909 17.0881 6.55833 17.7605 7.16313C17.7605 7.16313 17.7605 7.16313 17.8446 7.16313C18.3489 7.07673 18.8532 6.81752 19.3575 6.55832C19.3575 6.64472 19.1054 7.16309 18.9373 7.33588C18.7692 7.59508 18.517 7.76789 18.2648 7.94069C18.7692 7.85429 19.1894 7.76789 19.6937 7.50869C19.6937 7.50869 19.6937 7.50873 19.6937 7.59512C19.6937 7.59512 19.6937 7.5951 19.6937 7.6815C19.4416 8.0271 19.1054 8.37271 18.7692 8.71831C18.6851 8.80471 18.6011 8.89112 18.517 8.89112C18.517 8.89112 18.517 8.89109 18.517 8.97749C18.517 9.40949 18.517 9.84151 18.4329 10.1871C18.3489 10.8783 18.1808 11.5695 17.8446 12.2607C17.5924 12.8655 17.1722 13.4703 16.7519 14.0751C16.1636 14.7663 15.5752 15.2846 14.7347 15.7166C14.1463 16.0622 13.4739 16.3214 12.8015 16.4078C12.2131 16.4942 11.6248 16.5806 10.9524 16.5806C10.1118 16.5806 9.27131 16.3214 8.51484 15.9758C8.17864 15.803 7.84243 15.6302 7.50623 15.4575C9.10321 15.5438 10.2799 15.1983 11.3726 14.3343Z" fill="white"/>
</g>
</svg>
