<?xml version="1.0" encoding="UTF-8"?><svg width="66" height="20" xmlns="http://www.w3.org/2000/svg" xmlns:xlink="http://www.w3.org/1999/xlink"> <!-- Generator: Sketch 3.0.4 (8054) - http://www.bohemiancoding.com/sketch --> <title>Fb Active</title> <desc>Created with Sketch.</desc> <defs>  <linearGradient x1="50%" y1="0%" x2="50%" y2="100%" id="linearGradient-1">   <stop stop-color="#5C7BD4" offset="0%"/>   <stop stop-color="#4D6ABA" offset="100%"/>  </linearGradient>  <path d="m11.95313,10l0,-2l2,0l0,-2l-3,0l0,1l-1,0l0,3l-2,0l0,2l2,0l0,4l2,0l0,-4l2,0l0,-2l-2,0zm-6.95066,-6c-0.55365,0 -1.00247,0.45576 -1.00247,1.00247l0,9.99506c0,0.55365 0.45576,1.00247 1.00247,1.00247l9.99506,0c0.55365,0 1.00247,-0.45576 1.00247,-1.00247l0,-9.99506c0,-0.55365 -0.45576,-1.00247 -1.00247,-1.00247l-9.99506,0z" id="path-3"/> </defs> <g>  <title>Layer 1</title>  <g id="Page-1" fill="none" fill-rule="evenodd">   <g id="Fb-Active">    <rect id="Rectangle-1" fill="url(#linearGradient-1)" x="0" y="-1" width="66" height="20" rx="2"/>    <text id="Visit-Us" fill="white" font-family="Helvetica" font-size="11" font-weight="normal" y="-1" x="0">     <tspan font-weight="700" x="19" y="14" fill="#FFFFFF" id="svg_1">Visit Us</tspan>    </text>    <mask id="mask-4">     <use xlink:href="#path-3" id="svg_2"/>    </mask>    <use id="Rectangle-2" fill="#FFFFFF" xlink:href="#path-3" y="-1" x="0"/>   </g>  </g> </g></svg>