<?xml version="1.0" encoding="UTF-8"?><svg width="66" height="20" xmlns="http://www.w3.org/2000/svg" xmlns:xlink="http://www.w3.org/1999/xlink"> <!-- Generator: Sketch 3.0.4 (8054) - http://www.bohemiancoding.com/sketch --> <title>Fb Normal</title> <desc>Created with Sketch.</desc> <defs>  <linearGradient x1="50%" y1="0%" x2="50%" y2="100%" id="linearGradient-1">   <stop stop-color="#4C69BA" offset="0%"/>   <stop stop-color="#3B55A0" offset="100%"/>  </linearGradient>  <path d="m11.953125,10l0,-2l2,0l0,-2l-3,0l0,1l-1,0l0,3l-2,0l0,2l2,0l0,4l2,0l0,-4l2,0l0,-2l-2,0zm-6.950652,-6c-0.553651,0 -1.002473,0.455761 -1.002473,1.002473l0,9.995054c0,0.55365 0.455761,1.002473 1.002473,1.002473l9.995054,0c0.55365,0 1.002473,-0.455761 1.002473,-1.002473l0,-9.995054c0,-0.553651 -0.455761,-1.002473 -1.002473,-1.002473l-9.995054,0z" id="path-3"/> </defs> <g>  <title>Layer 1</title>  <g id="Page-1" fill="none" fill-rule="evenodd">   <g id="Fb-Normal">    <g id="svg_4">     <rect id="Rectangle-1" fill="url(#linearGradient-1)" x="0" y="0" width="66" height="20" rx="2"/>     <text id="Visit-Us" fill="white" font-family="Helvetica" font-size="11" font-weight="normal">      <tspan font-weight="700" x="20" y="14" fill="#FFFFFF" id="svg_5">Visit Us</tspan>     </text>     <mask id="mask-4">      <use xlink:href="#path-3" id="svg_6"/>     </mask>     <use id="Rectangle-2" fill="#FFFFFF" xlink:href="#path-3"/>    </g>   </g>  </g> </g></svg>