<?xml version="1.0" encoding="UTF-8" standalone="no"?><svg width="66px" height="22px" viewBox="0 0 66 22" version="1.1" xmlns="http://www.w3.org/2000/svg" xmlns:xlink="http://www.w3.org/1999/xlink" xmlns:sketch="http://www.bohemiancoding.com/sketch/ns">    <!-- Generator: Sketch 3.1 (8751) - http://www.bohemiancoding.com/sketch -->    <title>Pinterest</title>    <desc>Created with Sketch.</desc>    <defs>        <linearGradient x1="50%" y1="1.59717363%" x2="50%" y2="97.6124043%" id="linearGradient-1">            <stop stop-color="#FCF9F9" offset="0%"></stop>            <stop stop-color="#F7F4F4" offset="46.9387755%"></stop>            <stop stop-color="#F6F3F3" offset="55.4807079%"></stop>            <stop stop-color="#ECEAEA" offset="100%"></stop>        </linearGradient>        <filter x="-50%" y="-50%" width="200%" height="200%" filterUnits="objectBoundingBox" id="filter-2">            <feOffset dx="0" dy="-1" in="SourceAlpha" result="shadowOffsetOuter1"></feOffset>            <feGaussianBlur stdDeviation="0" in="shadowOffsetOuter1" result="shadowBlurOuter1"></feGaussianBlur>            <feColorMatrix values="0 0 0 0 1   0 0 0 0 1   0 0 0 0 1  0 0 0 0.7 0" in="shadowBlurOuter1" type="matrix" result="shadowMatrixOuter1"></feColorMatrix>            <feMerge>                <feMergeNode in="shadowMatrixOuter1"></feMergeNode>                <feMergeNode in="SourceGraphic"></feMergeNode>            </feMerge>        </filter>    </defs>    <g id="Page-1" stroke="none" stroke-width="1" fill="none" fill-rule="evenodd" sketch:type="MSPage">        <g id="Pinterest" sketch:type="MSLayerGroup" transform="translate(1.000000, 1.000000)">            <g id="Fb-Normal">                <rect id="Rectangle-1" stroke="#969696" fill="url(#linearGradient-1)" sketch:type="MSShapeGroup" x="0" y="0" width="64" height="20" rx="2"></rect>                <text id="Visit-Us" fill="white"  sketch:type="MSTextLayer" font-family="Helvetica" font-size="11" font-weight="420">                    <tspan x="18" y="14" fill="#CC2420" font-weight="bold">Visit Us</tspan>                </text>                <path d="M10.7703852,3.40508627 C6.89249847,3.40508627 4.937,6.14416917 4.937,8.42880052 C4.937,9.81184053 5.46847543,11.0421781 6.60820764,11.5002855 C6.79516597,11.5762149 6.96271488,11.5030977 7.01694707,11.2992132 C7.05462416,11.1586032 7.14396455,10.8025786 7.18363968,10.6538132 C7.2381573,10.4521785 7.21703529,10.3818735 7.06604147,10.2055485 C6.73750859,9.82393299 6.52714479,9.32954822 6.52714479,8.62874795 C6.52714479,6.59665216 8.07047864,4.77743992 10.5457498,4.77743992 C12.7375864,4.77743992 13.9418264,6.09692421 13.9418264,7.85876757 C13.9418264,10.1777078 12.900283,12.1347178 11.3543802,12.1347178 C10.500366,12.1347178 9.86156796,11.4392607 10.0659377,10.585758 C10.3111242,9.5668979 10.7863695,8.46789011 10.7863695,7.73193734 C10.7863695,7.07388252 10.4275807,6.52494106 9.6857415,6.52494106 C8.81288873,6.52494106 8.11158093,7.41472117 8.11158093,8.60625035 C8.11158093,9.36526316 8.37189543,9.87877089 8.37189543,9.87877089 C8.37189543,9.87877089 7.47877695,13.6077482 7.32207447,14.2607411 C7.01038212,15.5613836 7.27526353,17.1553386 7.2978127,17.3161965 C7.3109426,17.4118113 7.4353912,17.4348713 7.49190685,17.362879 C7.57211339,17.2591088 8.61222964,15.9947437 8.96530972,14.7309409 C9.06549655,14.3735103 9.5393146,12.5208329 9.5393146,12.5208329 C9.82303456,13.054026 10.6519307,13.5225386 11.5333465,13.5225386 C14.1567571,13.5225386 15.937,11.1661961 15.937,8.01203247 C15.9372854,5.62644313 13.8867379,3.40508627 10.7703852,3.40508627 L10.7703852,3.40508627 Z" id="Shape" fill="#CA2421" sketch:type="MSShapeGroup"></path>            </g>        </g>    </g></svg>