<svg width="32" height="32" viewBox="0 0 32 32" fill="none" xmlns="http://www.w3.org/2000/svg">
<path d="M4 24V16C4 12.8174 5.26428 9.76516 7.51472 7.51472C9.76516 5.26428 12.8174 4 16 4C19.1826 4 22.2348 5.26428 24.4853 7.51472C26.7357 9.76516 28 12.8174 28 16V24" stroke="white" stroke-width="2" stroke-linecap="round" stroke-linejoin="round"/>
<path d="M28 25.3333C28 26.0405 27.719 26.7188 27.219 27.2189C26.7189 27.719 26.0406 28 25.3333 28H24C23.2928 28 22.6145 27.719 22.1144 27.2189C21.6143 26.7188 21.3333 26.0405 21.3333 25.3333V21.3333C21.3333 20.626 21.6143 19.9478 22.1144 19.4477C22.6145 18.9476 23.2928 18.6666 24 18.6666H28V25.3333ZM4 25.3333C4 26.0405 4.28095 26.7188 4.78105 27.2189C5.28115 27.719 5.95942 28 6.66667 28H8C8.70724 28 9.38552 27.719 9.88562 27.2189C10.3857 26.7188 10.6667 26.0405 10.6667 25.3333V21.3333C10.6667 20.626 10.3857 19.9478 9.88562 19.4477C9.38552 18.9476 8.70724 18.6666 8 18.6666H4V25.3333Z" stroke="white" stroke-width="2" stroke-linecap="round" stroke-linejoin="round"/>
</svg>
