<svg width="32" height="32" viewBox="0 0 32 32" fill="none" xmlns="http://www.w3.org/2000/svg">
<path d="M15.9993 29.3333C23.3631 29.3333 29.3327 23.3638 29.3327 16C29.3327 8.63616 23.3631 2.66663 15.9993 2.66663C8.63555 2.66663 2.66602 8.63616 2.66602 16C2.66602 23.3638 8.63555 29.3333 15.9993 29.3333Z" stroke="white" stroke-width="2" stroke-linecap="round" stroke-linejoin="round"/>
<path d="M12.1191 12C12.4326 11.1089 13.0513 10.3575 13.8657 9.87887C14.6801 9.40024 15.6377 9.22528 16.5687 9.38498C17.4997 9.54467 18.3442 10.0287 18.9526 10.7514C19.5609 11.4741 19.8939 12.3887 19.8925 13.3334C19.8925 16 15.8925 17.3334 15.8925 17.3334" stroke="white" stroke-width="2" stroke-linecap="round" stroke-linejoin="round"/>
<path d="M16 22.6666H16.0133" stroke="white" stroke-width="2" stroke-linecap="round" stroke-linejoin="round"/>
</svg>
