<svg width="24" height="24" viewBox="0 0 24 24" fill="none" xmlns="http://www.w3.org/2000/svg"><mask id="mask0_5672_6483" style="mask-type:alpha" maskUnits="userSpaceOnUse" x="0" y="0" width="24" height="24"><rect width="24" height="24" fill="#D9D9D9"/></mask><g mask="url(#mask0_5672_6483)"><path d="M10.9493 12.7001L9.54933 11.3001C9.34933 11.1001 9.11599 11.0001 8.84933 11.0001C8.58266 11.0001 8.34933 11.1001 8.14933 11.3001C7.94933 11.5001 7.84933 11.7376 7.84933 12.0126C7.84933 12.2876 7.94933 12.5251 8.14933 12.7251L10.2493 14.8501C10.4493 15.0501 10.6827 15.1501 10.9493 15.1501C11.216 15.1501 11.4493 15.0501 11.6493 14.8501L15.8993 10.6001C16.0993 10.4001 16.1993 10.1626 16.1993 9.88758C16.1993 9.61258 16.0993 9.37508 15.8993 9.17508C15.6993 8.97508 15.4618 8.87508 15.1868 8.87508C14.9118 8.87508 14.6743 8.97508 14.4743 9.17508L10.9493 12.7001ZM11.9993 21.9001C11.8827 21.9001 11.7743 21.8918 11.6743 21.8751C11.5743 21.8584 11.4743 21.8334 11.3743 21.8001C9.12433 21.0501 7.33266 19.6626 5.99933 17.6376C4.666 15.6126 3.99933 13.4334 3.99933 11.1001V6.37508C3.99933 5.95842 4.12016 5.58342 4.36183 5.25009C4.6035 4.91675 4.916 4.67509 5.29933 4.52509L11.2993 2.27509C11.5327 2.19175 11.766 2.15009 11.9993 2.15009C12.2327 2.15009 12.466 2.19175 12.6993 2.27509L18.6993 4.52509C19.0827 4.67509 19.3952 4.91675 19.6368 5.25009C19.8785 5.58342 19.9993 5.95842 19.9993 6.37508V11.1001C19.9993 13.4334 19.3327 15.6126 17.9993 17.6376C16.666 19.6626 14.8743 21.0501 12.6243 21.8001C12.5243 21.8334 12.4243 21.8584 12.3243 21.8751C12.2243 21.8918 12.116 21.9001 11.9993 21.9001ZM11.9993 19.9001C13.7327 19.3501 15.166 18.2501 16.2993 16.6001C17.4327 14.9501 17.9993 13.1168 17.9993 11.1001V6.37508L11.9993 4.12509L5.99933 6.37508V11.1001C5.99933 13.1168 6.56599 14.9501 7.69933 16.6001C8.83266 18.2501 10.266 19.3501 11.9993 19.9001Z" fill="#468737"/></g></svg>