<svg width="24" height="24" viewBox="0 0 24 24" fill="none" xmlns="http://www.w3.org/2000/svg"><mask id="mask0_5672_6499" style="mask-type:alpha" maskUnits="userSpaceOnUse" x="0" y="0" width="24" height="24"><rect width="24" height="24" fill="#D9D9D9"/></mask><g mask="url(#mask0_5672_6499)"><path d="M11.9987 7.99963C10.8987 7.99963 9.95699 8.3913 9.17366 9.17463C8.39032 9.95797 7.99866 10.8996 7.99866 11.9996C7.99866 12.7496 8.18616 13.4413 8.56116 14.0746C8.93616 14.708 9.45699 15.1996 10.1237 15.5496C10.3903 15.683 10.5778 15.8788 10.6862 16.1371C10.7945 16.3955 10.7903 16.658 10.6737 16.9246C10.557 17.158 10.382 17.333 10.1487 17.4496C9.91532 17.5663 9.68199 17.5663 9.44866 17.4496C8.39866 16.9496 7.56116 16.208 6.93616 15.2246C6.31116 14.2413 5.99866 13.1663 5.99866 11.9996C5.99866 10.333 6.58199 8.9163 7.74866 7.74963C8.91532 6.58297 10.332 5.99963 11.9987 5.99963C13.182 5.99963 14.2695 6.31213 15.2612 6.93713C16.2528 7.56213 16.9903 8.4163 17.4737 9.49963C17.5737 9.73297 17.5695 9.9663 17.4612 10.1996C17.3528 10.433 17.182 10.5996 16.9487 10.6996C16.682 10.8163 16.4153 10.8163 16.1487 10.6996C15.882 10.583 15.682 10.3913 15.5487 10.1246C15.1987 9.45797 14.707 8.93713 14.0737 8.56213C13.4403 8.18713 12.7487 7.99963 11.9987 7.99963ZM11.9987 3.99963C9.76532 3.99963 7.87366 4.77463 6.32366 6.32463C4.77366 7.87463 3.99866 9.7663 3.99866 11.9996C3.99866 14.0996 4.69032 15.8996 6.07366 17.3996C7.45699 18.8996 9.19032 19.7496 11.2737 19.9496C11.557 19.983 11.8028 20.108 12.0112 20.3246C12.2195 20.5413 12.3153 20.7913 12.2987 21.0746C12.282 21.358 12.1778 21.5913 11.9862 21.7746C11.7945 21.958 11.557 22.0413 11.2737 22.0246C9.97366 21.9413 8.76116 21.6163 7.63616 21.0496C6.51116 20.483 5.52782 19.7455 4.68616 18.8371C3.84449 17.9288 3.18616 16.8871 2.71116 15.7121C2.23616 14.5371 1.99866 13.2996 1.99866 11.9996C1.99866 10.6163 2.26116 9.3163 2.78616 8.09963C3.31116 6.88297 4.02366 5.82463 4.92366 4.92463C5.82366 4.02463 6.88199 3.31213 8.09866 2.78713C9.31532 2.26213 10.6153 1.99963 11.9987 1.99963C14.6153 1.99963 16.8945 2.8913 18.8362 4.67463C20.7778 6.45797 21.8403 8.65797 22.0237 11.2746C22.057 11.5413 21.9778 11.7705 21.7862 11.9621C21.5945 12.1538 21.357 12.258 21.0737 12.2746C20.7903 12.2913 20.5362 12.1996 20.3112 11.9996C20.0862 11.7996 19.957 11.558 19.9237 11.2746C19.6737 9.27463 18.8028 7.56213 17.3112 6.13713C15.8195 4.71213 14.0487 3.99963 11.9987 3.99963ZM19.5487 21.4996L16.2487 18.2246L15.4987 20.4996C15.4153 20.733 15.257 20.8455 15.0237 20.8371C14.7903 20.8288 14.632 20.708 14.5487 20.4746L12.2737 12.8996C12.207 12.7163 12.2487 12.5496 12.3987 12.3996C12.5487 12.2496 12.7153 12.208 12.8987 12.2746L20.4737 14.5496C20.707 14.633 20.8278 14.7913 20.8362 15.0246C20.8445 15.258 20.732 15.4163 20.4987 15.4996L18.2237 16.2496L21.5237 19.5496C21.807 19.833 21.9487 20.158 21.9487 20.5246C21.9487 20.8913 21.807 21.2163 21.5237 21.4996C21.2403 21.783 20.9112 21.9246 20.5362 21.9246C20.1612 21.9246 19.832 21.783 19.5487 21.4996Z" fill="#468737"/></g></svg>