<svg width="24" height="24" viewBox="0 0 24 24" fill="none" xmlns="http://www.w3.org/2000/svg"><mask id="mask0_5672_6491" style="mask-type:alpha" maskUnits="userSpaceOnUse" x="0" y="0" width="24" height="24"><rect width="24" height="24" fill="#D9D9D9"/></mask><g mask="url(#mask0_5672_6491)"><path d="M11.8755 19.9996C11.9421 19.9996 12.0088 19.983 12.0755 19.9496C12.1421 19.9163 12.1921 19.883 12.2255 19.8496L20.4254 11.6496C20.6255 11.4496 20.7713 11.2246 20.8629 10.9746C20.9546 10.7246 21.0005 10.4746 21.0005 10.2246C21.0005 9.95797 20.9546 9.7038 20.8629 9.46213C20.7713 9.22047 20.6255 9.00797 20.4254 8.82464L16.1755 4.57463C15.9921 4.37463 15.7796 4.2288 15.538 4.13713C15.2963 4.04547 15.0421 3.99963 14.7755 3.99963C14.5255 3.99963 14.2755 4.04547 14.0255 4.13713C13.7755 4.2288 13.5505 4.37463 13.3505 4.57463L13.0755 4.84963L14.9255 6.72463C15.1755 6.95797 15.3588 7.22463 15.4755 7.52463C15.5921 7.82463 15.6505 8.1413 15.6505 8.47463C15.6505 9.17463 15.413 9.76214 14.938 10.2371C14.463 10.7121 13.8755 10.9496 13.1755 10.9496C12.8421 10.9496 12.5213 10.8913 12.213 10.7746C11.9046 10.658 11.6338 10.483 11.4005 10.2496L9.52545 8.39963L5.15045 12.7746C5.10045 12.8246 5.06295 12.8788 5.03795 12.9371C5.01295 12.9955 5.00045 13.058 5.00045 13.1246C5.00045 13.258 5.05045 13.3788 5.15045 13.4871C5.25045 13.5955 5.36712 13.6496 5.50045 13.6496C5.56712 13.6496 5.63379 13.633 5.70045 13.5996C5.76712 13.5663 5.81712 13.533 5.85045 13.4996L8.55045 10.7996C8.73378 10.6163 8.96295 10.5205 9.23795 10.5121C9.51295 10.5038 9.75045 10.5996 9.95045 10.7996C10.1338 10.983 10.2255 11.2163 10.2255 11.4996C10.2255 11.783 10.1338 12.0163 9.95045 12.1996L7.27545 14.8996C7.22545 14.9496 7.18795 15.0038 7.16295 15.0621C7.13795 15.1205 7.12545 15.183 7.12545 15.2496C7.12545 15.383 7.17545 15.4996 7.27545 15.5996C7.37545 15.6996 7.49212 15.7496 7.62545 15.7496C7.69212 15.7496 7.75878 15.733 7.82545 15.6996C7.89212 15.6663 7.94212 15.633 7.97545 15.5996L10.6755 12.9246C10.8588 12.7413 11.088 12.6455 11.363 12.6371C11.638 12.6288 11.8755 12.7246 12.0755 12.9246C12.2588 13.108 12.3505 13.3413 12.3505 13.6246C12.3505 13.908 12.2588 14.1413 12.0755 14.3246L9.40045 17.0246C9.35045 17.058 9.31295 17.108 9.28795 17.1746C9.26295 17.2413 9.25045 17.308 9.25045 17.3746C9.25045 17.508 9.30045 17.6246 9.40045 17.7246C9.50045 17.8246 9.61712 17.8746 9.75045 17.8746C9.81712 17.8746 9.87962 17.8621 9.93795 17.8371C9.99628 17.8121 10.0505 17.7746 10.1005 17.7246L12.8005 15.0496C12.9838 14.8663 13.213 14.7705 13.488 14.7621C13.763 14.7538 14.0005 14.8496 14.2005 15.0496C14.3838 15.233 14.4755 15.4663 14.4755 15.7496C14.4755 16.033 14.3838 16.2663 14.2005 16.4496L11.5005 19.1496C11.4505 19.1996 11.413 19.2538 11.388 19.3121C11.363 19.3705 11.3505 19.433 11.3505 19.4996C11.3505 19.633 11.4046 19.7496 11.513 19.8496C11.6213 19.9496 11.7421 19.9996 11.8755 19.9996ZM11.8505 21.9996C11.2338 21.9996 10.688 21.7955 10.213 21.3871C9.73795 20.9788 9.45879 20.4663 9.37545 19.8496C8.80878 19.7663 8.33378 19.533 7.95045 19.1496C7.56712 18.7663 7.33379 18.2913 7.25045 17.7246C6.68378 17.6413 6.21295 17.4038 5.83795 17.0121C5.46295 16.6205 5.23379 16.1496 5.15045 15.5996C4.51712 15.5163 4.00045 15.2413 3.60045 14.7746C3.20045 14.308 3.00045 13.758 3.00045 13.1246C3.00045 12.7913 3.06295 12.4705 3.18795 12.1621C3.31295 11.8538 3.49212 11.583 3.72545 11.3496L8.10045 6.97463C8.48378 6.5913 8.95462 6.39963 9.51295 6.39963C10.0713 6.39963 10.5421 6.5913 10.9255 6.97463L12.8005 8.84963C12.8338 8.89963 12.8838 8.93713 12.9505 8.96213C13.0171 8.98713 13.0838 8.99963 13.1505 8.99963C13.3005 8.99963 13.4255 8.9538 13.5255 8.86213C13.6255 8.77047 13.6755 8.64963 13.6755 8.49963C13.6755 8.43297 13.663 8.3663 13.638 8.29963C13.613 8.23297 13.5755 8.18297 13.5255 8.14963L9.95045 4.57463C9.76712 4.37463 9.55462 4.2288 9.31295 4.13713C9.07129 4.04547 8.81712 3.99963 8.55045 3.99963C8.30045 3.99963 8.05045 4.04547 7.80045 4.13713C7.55045 4.2288 7.32545 4.37463 7.12545 4.57463L3.60045 8.12463C3.36712 8.35797 3.20045 8.63297 3.10045 8.94964C3.00045 9.2663 2.97545 9.58297 3.02545 9.89963C3.07545 10.183 3.01712 10.433 2.85045 10.6496C2.68379 10.8663 2.45879 10.9913 2.17545 11.0246C1.89212 11.058 1.64212 10.9955 1.42545 10.8371C1.20879 10.6788 1.08379 10.458 1.05045 10.1746C0.950452 9.5413 0.996285 8.92047 1.18795 8.31213C1.37962 7.7038 1.70879 7.1663 2.17545 6.69963L5.70045 3.17463C6.10045 2.7913 6.54629 2.49963 7.03795 2.29963C7.52962 2.09963 8.03378 1.99963 8.55045 1.99963C9.06712 1.99963 9.57129 2.09963 10.063 2.29963C10.5546 2.49963 10.9921 2.7913 11.3755 3.17463L11.6505 3.44963L11.9255 3.17463C12.3255 2.7913 12.7713 2.49963 13.263 2.29963C13.7546 2.09963 14.2588 1.99963 14.7755 1.99963C15.2921 1.99963 15.7963 2.09963 16.288 2.29963C16.7796 2.49963 17.2171 2.7913 17.6005 3.17463L21.8255 7.39963C22.2088 7.78297 22.5005 8.22463 22.7005 8.72463C22.9005 9.22463 23.0005 9.73297 23.0005 10.2496C23.0005 10.7663 22.9005 11.2705 22.7005 11.7621C22.5005 12.2538 22.2088 12.6913 21.8255 13.0746L13.6255 21.2496C13.3921 21.483 13.1213 21.6663 12.813 21.7996C12.5046 21.933 12.1838 21.9996 11.8505 21.9996Z" fill="#468737"/></g></svg>