<?xml version="1.0" encoding="utf-8"?>
<!-- Generator: Adobe Illustrator 16.0.0, SVG Export Plug-In . SVG Version: 6.00 Build 0)  -->
<!DOCTYPE svg PUBLIC "-//W3C//DTD SVG 1.1//EN" "http://www.w3.org/Graphics/SVG/1.1/DTD/svg11.dtd">
<svg version="1.1" id="Layer_1" xmlns="http://www.w3.org/2000/svg" xmlns:xlink="http://www.w3.org/1999/xlink" x="0px" y="0px"
	 width="32px" height="32px" viewBox="0 0 100 100" enable-background="new 0 0 100 100" xml:space="preserve">
<g>
	<path class="bstwbst-logo-layer bstwbst-logo-layer-1" fill="#fff" d="M93.223,60.751c-2.088,3.631-4.549,7.218-7.364,10.68C79.171,80.829,67.045,89.517,61,92.481
		c-3.753,1.839-8.686,3.249-12.367,4.145c19.94,3.697,39.343-10.706,45.451-32.965c0.691-2.511,1.173-4.966,1.501-7.369
		C94.857,57.786,94.077,59.269,93.223,60.751z"/>
	<path class="bstwbst-logo-layer bstwbst-logo-layer-2" fill="#fff" d="M32.173,82.938c-6.837-5.798-11.139-14.422-11.139-24.752c0-19.367,15.104-35.063,33.734-35.063
		c11.505,0,21.669,5.998,27.752,15.148c0.143-0.423,0.303-0.846,0.431-1.269c1.657-5.411,2.284-10.607,1.836-15.231
		c-3.45-3.267-7.609-5.891-12.371-7.738c-20.242-7.845-46.591,5.931-52.994,29.273c-3.973,14.455-0.96,28.997,6.882,39.347
		C28.154,82.979,30.119,83.069,32.173,82.938z"/>
	<path class="bstwbst-logo-layer bstwbst-logo-layer-3" fill="#fff" d="M91.284,7.625c-11.678-10.262-31.767-7.394-49.53,5.554c4.354-2.09,8.988-3.442,13.641-3.937
		c10.07-3.883,19.596-3.59,25.821,1.807c6.889,5.977,8.174,16.855,4.529,28.748c-2.457,8.009-7.14,16.482-13.86,24.23
		C56.811,81.402,27.561,96.01,11.4,76.903c1.322,5.113,3.854,9.543,7.673,12.894c9.391,8.254,24.223,8.009,38.91,0.875
		c8.338-4.052,16.631-10.324,23.854-18.542c3.73-4.245,6.911-8.709,9.521-13.244C102.692,39.188,103.252,18.134,91.284,7.625z"/>
	<g>
		<path class="bstwbst-logo-layer bstwbst-logo-layer-4" fill="#fff" d="M77.352,35.474c-0.425-0.548-2.314-2.453-2.826-2.847c-5.467-4.217-12.192-6.708-19.471-6.708
			c-4.582,0-8.943,0.982-12.908,2.757c1.479,0.627,2.954,1.334,4.414,2.133c15.206,8.333,23.469,23.183,20.064,34.818
			c0.271-0.31,0.541-0.613,0.78-0.915c5.34-6.647,11.205-14.72,14.141-22.799C80.365,39.694,78.969,37.535,77.352,35.474z"/>
		<path class="bstwbst-logo-layer bstwbst-logo-layer-5" fill="#fff" d="M2.524,35.652c-7.002,16.51,2.255,35.986,20.224,46.431c-2.431-3.128-4.078-6.772-5.482-11.348
			C3.868,61.12-1.692,46.576,4.189,35.843c3.88-7.078,12.069-10.76,21.595-10.699c3.226-3.841,7.091-6.971,11.314-9.283
			C21.631,15.685,7.927,22.899,2.524,35.652z"/>
	</g>
	<path class="bstwbst-logo-layer bstwbst-logo-layer-6" fill="#fff" d="M25.91,48.781c0.053-0.986,0.149-1.961,0.292-2.917c-1.251,3.071-2.027,6.424-2.21,9.947
		c-0.567,10.873,4.589,20.639,12.7,26.097c3.723-0.409,7.285-1.516,10.59-3.216C34.409,75.612,25.156,63.155,25.91,48.781z"/>
</g>
</svg>
