<svg id="Layer_5" enable-background="new 0 0 64 64" height="512" viewBox="0 0 64 64" width="512" xmlns="http://www.w3.org/2000/svg"><g><g><g><path d="m54 54h8c0 2.21-1.79 4-4 4h-8-6-6-32c-2.21 0-4-1.79-4-4h12 17 6z" fill="#838f9b"/></g><g><path d="m14 43v11h-12v-24c0-2.21 1.79-4 4-4h2 6v11z" fill="#969faa"/></g><g><path d="m54 54v-9-6-13h2 2c2.21 0 4 1.79 4 4v4l-4 1v10l4 1v8z" fill="#969faa"/></g><g><path d="m47.86 8h-6.86c-.55 0-1.05.22-1.41.59-.37.36-.59.86-.59 1.41 0 1.1.9 2 2 2h3c.55 0 1.05.22 1.41.59.37.36.59.86.59 1.41 0 1.1-.9 2-2 2h-9c-1.66 0-3 1.34-3 3v2.1c-1.27-1.3-3.04-2.1-5-2.1-1.94 0-3.68.78-4.95 2.05s-2.05 3.01-2.05 4.95h-6-6c0-2.07.26-4.08.76-6h6.6c.95 0 1.77-.67 1.96-1.61l.36-1.78c.19-.94 1.01-1.61 1.96-1.61h2.12c.76 0 1.45-.43 1.79-1.11l.9-1.78c.34-.68 1.03-1.11 1.79-1.11h2.76c1.1 0 2-.9 2-2 0-.55-.22-1.05-.59-1.41-.36-.37-.86-.59-1.41-.59h-11.65c4.06-3.14 9.14-5 14.65-5 6.07 0 11.63 2.27 15.86 6z" fill="#69d6f4"/></g><g><path d="m56 26h-2-8-6-6c0-1.49-.46-2.87-1.26-4h22.92c.23 1.3.34 2.64.34 4z" fill="#69d6f4"/></g><g><path d="m30.41 7.59c.37.36.59.86.59 1.41 0 1.1-.9 2-2 2h-2.76c-.76 0-1.45.43-1.79 1.11l-.9 1.78c-.34.68-1.03 1.11-1.79 1.11h-2.12c-.95 0-1.77.67-1.96 1.61l-.36 1.78c-.19.94-1.01 1.61-1.96 1.61h-6.6c1.35-5.25 4.43-9.79 8.59-13h11.65c.55 0 1.05.22 1.41.59z" fill="#b4dd7f"/></g><g><path d="m55.66 22h-22.92c-.22-.32-.47-.62-.74-.9v-2.1c0-1.66 1.34-3 3-3h9c1.1 0 2-.9 2-2 0-.55-.22-1.05-.59-1.41-.36-.37-.86-.59-1.41-.59h-3c-1.1 0-2-.9-2-2 0-.55.22-1.05.59-1.41.36-.37.86-.59 1.41-.59h6.86c.01-.01.01 0 .01 0 4.04 3.56 6.87 8.46 7.79 14z" fill="#b4dd7f"/></g><g><path d="m46 26h8v13h-8z" fill="#e6e9ed"/></g><g><path d="m37 45h17v9h-17z" fill="#e6e9ed"/></g><g><path d="m14 43h17v11h-17z" fill="#e6e9ed"/></g><g><path d="m20 26v.22c0 1.17.29 2.32.85 3.35l4.06 7.43h-10.91v-11z" fill="#e6e9ed"/></g><g><path d="m40 26v11h-10.91l4.06-7.43c.56-1.03.85-2.18.85-3.35v-.22z" fill="#e6e9ed"/></g><g><path d="m54 39v6h-17v9h-6v-11h-17v-6h10.91l.61 1.12c.3.54.86.88 1.48.88s1.18-.34 1.48-.88l.61-1.12h10.91v-11h6v13z" fill="#b4dd7f"/></g><g><path d="m62 34v12l-4-1v-10z" fill="#fcd770"/></g><g><path d="m38 58v2c0 1.1.9 2 2 2h8c1.1 0 2-.9 2-2v-2z" fill="#ccd1d9"/></g><g><path d="m10 37v6c0 .55-.45 1-1 1h-2c-.55 0-1-.45-1-1v-6c0-.55.45-1 1-1h2c.55 0 1 .45 1 1z" fill="#e6e9ed"/></g><g><path d="m34 26v.22c0 1.17-.29 2.32-.85 3.35l-4.06 7.43-.61 1.12c-.3.54-.86.88-1.48.88s-1.18-.34-1.48-.88l-.61-1.12-4.06-7.43c-.56-1.03-.85-2.18-.85-3.35v-.22c0-1.94.78-3.68 2.05-4.95s3.01-2.05 4.95-2.05c1.96 0 3.73.8 5 2.1.27.28.52.58.74.9.8 1.13 1.26 2.51 1.26 4z" fill="#ff826e"/></g><g><circle cx="27" cy="26" fill="#ffeaa7" r="3"/></g></g><g><path d="m7 45h2c1.103 0 2-.897 2-2v-6c0-1.103-.897-2-2-2h-2c-1.103 0-2 .897-2 2v6c0 1.103.897 2 2 2zm0-8h2v6l-2 .001z"/><circle cx="58" cy="50" r="1"/><path d="m23 26c0 2.206 1.794 4 4 4s4-1.794 4-4-1.794-4-4-4-4 1.794-4 4zm6 0c0 1.103-.897 2-2 2s-2-.897-2-2 .897-2 2-2 2 .897 2 2z"/><path d="m58 25h-1.025c-.528-13.323-11.525-24-24.975-24s-24.447 10.677-24.975 24h-1.025c-2.757 0-5 2.243-5 5v24c0 2.757 2.243 5 5 5h31v1c0 1.654 1.346 3 3 3h8c1.654 0 3-1.346 3-3v-1h7c2.757 0 5-2.243 5-5v-24c0-2.757-2.243-5-5-5zm3 5v3.219l-4 1v11.562l4 1v6.219h-6v-26h3c1.654 0 3 1.346 3 3zm0 5.281v9.438l-2-.5v-8.438zm-41.951-8.281c.106 1.064.414 2.104.927 3.046l3.249 5.954h-8.225v-9zm19.951 0v9h-8.225l3.248-5.955c.513-.941.821-1.982.927-3.045zm-6-1v.215c0 1-.253 1.994-.732 2.873l-4.667 8.556c-.24.439-.961.44-1.201 0l-4.667-8.555c-.48-.88-.733-1.874-.733-2.874v-.215c0-3.309 2.691-6 6-6s6 2.691 6 6zm-18 18h15v9h-15zm0-2v-4h9.316l.328.601c.47.863 1.373 1.399 2.356 1.399s1.886-.536 2.356-1.399l.328-.601h11.316v-11h4v13h8v4h-17v9h-4v-11zm38-4h-6v-11h6zm-15 8h15v7h-15zm-3.069-21c-.088-.698-.263-1.369-.52-2h20.387c.086.659.148 1.325.177 2zm19.515-4h-21.211c-.075-.094-.155-.183-.235-.274v-1.726c0-1.103.897-2 2-2h9c1.654 0 3-1.346 3-3s-1.346-3-3-3h-3c-.552 0-1-.449-1-1s.448-1 1-1h6.476c3.44 3.135 5.924 7.3 6.97 12zm-36.739-13h11.293c.552 0 1 .449 1 1s-.448 1-1 1h-2.764c-1.144 0-2.172.635-2.684 1.658l-.895 1.789c-.17.341-.512.553-.893.553h-2.124c-1.426 0-2.663 1.015-2.941 2.412l-.357 1.785c-.094.465-.506.803-.982.803h-5.268c1.405-4.383 4.091-8.196 7.615-11zm-8.153 13h5.807c1.426 0 2.663-1.015 2.941-2.412l.357-1.785c.093-.465.505-.803.981-.803h2.124c1.144 0 2.172-.635 2.684-1.658l.895-1.789c.17-.341.512-.553.893-.553h2.764c1.654 0 3-1.346 3-3s-1.346-3-3-3h-8.336c3.348-1.905 7.215-3 11.336-3 4.797 0 9.254 1.478 12.944 4h-3.944c-1.654 0-3 1.346-3 3s1.346 3 3 3h3c.552 0 1 .449 1 1s-.448 1-1 1h-9c-2.206 0-4 1.794-4 4v.082c-1.178-.684-2.542-1.082-4-1.082-4.072 0-7.436 3.06-7.931 7h-10.044c.059-1.368.24-2.704.529-4zm-3.554 6h7v26h-10v-23c0-1.654 1.346-3 3-3zm33 33v-1h4v2h-3c-.552 0-1-.449-1-1zm10 0c0 .551-.448 1-1 1h-3v-2h4zm9-3h-52c-1.302 0-2.402-.839-2.816-2h57.631c-.413 1.161-1.513 2-2.815 2z"/></g></g></svg>