<svg id="Layer_5" enable-background="new 0 0 64 64" height="512" viewBox="0 0 64 64" width="512" xmlns="http://www.w3.org/2000/svg"><g><g><g><path d="m49.31 19h8.69c2.21 0 4 1.79 4 4v24h-12.69c4.08-3.3 6.69-8.34 6.69-14s-2.61-10.7-6.69-14z" fill="#ccd1d9"/></g><g><path d="m38 51c-4.28 0-8.22-1.5-11.31-4-4.08-3.3-6.69-8.34-6.69-14s2.61-10.7 6.69-14c3.09-2.5 7.03-4 11.31-4s8.22 1.5 11.31 4c4.08 3.3 6.69 8.34 6.69 14s-2.61 10.7-6.69 14c-3.09 2.5-7.03 4-11.31 4z" fill="#69d6f4"/></g><g><path d="m58 51h-20c4.28 0 8.22-1.5 11.31-4h12.69c0 2.21-1.79 4-4 4z" fill="#aab2bd"/></g><g><path d="m38 47c-7.73 0-14-6.27-14-14s6.27-14 14-14 14 6.27 14 14-6.27 14-14 14z" fill="#3bafda"/></g><g><path d="m38 39c-3.31 0-6-2.69-6-6s2.69-6 6-6 6 2.69 6 6-2.69 6-6 6z" fill="#69d6f4"/></g><g><circle cx="38" cy="33" fill="#4fc1e9" r="2"/></g><g><path d="m26.69 47c3.09 2.5 7.03 4 11.31 4h-32c-2.21 0-4-1.79-4-4h12z" fill="#aab2bd"/></g><g><path d="m26.69 47h-12.69v-21-1-6h6 6.69c-4.08 3.3-6.69 8.34-6.69 14s2.61 10.7 6.69 14z" fill="#ccd1d9"/></g><g><path d="m20 15v4h-6-6v-4c0-1.1.9-2 2-2h8c1.1 0 2 .9 2 2z" fill="#aab2bd"/></g><g><path d="m14 26v21h-12v-16h7c2.76 0 5-2.24 5-5z" fill="#cf9e76"/></g><g><path d="m6 35h4v4h-4z" fill="#fcd770"/></g><g><path d="m14 25v1c0 2.76-2.24 5-5 5h-7v-8c0-2.21 1.79-4 4-4h2 6z" fill="#d3a06c"/></g><g><circle cx="8" cy="25" fill="#e6e9ed" r="2"/></g></g><g><path d="m38 36c1.654 0 3-1.346 3-3s-1.346-3-3-3-3 1.346-3 3 1.346 3 3 3zm0-4c.552 0 1 .449 1 1s-.448 1-1 1-1-.449-1-1 .448-1 1-1z"/><path d="m38 40c3.859 0 7-3.14 7-7s-3.141-7-7-7-7 3.14-7 7 3.141 7 7 7zm0-12c2.757 0 5 2.243 5 5s-2.243 5-5 5-5-2.243-5-5 2.243-5 5-5z"/><path d="m38 48c8.271 0 15-6.729 15-15s-6.729-15-15-15-15 6.729-15 15 6.729 15 15 15zm0-28c7.168 0 13 5.832 13 13s-5.832 13-13 13-13-5.832-13-13 5.832-13 13-13z"/><path d="m58 18h-8.381c-3.216-2.497-7.241-4-11.619-4s-8.403 1.503-11.619 4h-5.381v-3c0-1.654-1.346-3-3-3h-8c-1.654 0-3 1.346-3 3v3h-1c-2.757 0-5 2.243-5 5v24c0 2.757 2.243 5 5 5h52c2.757 0 5-2.243 5-5v-24c0-2.757-2.243-5-5-5zm3 5v23h-9.182c3.203-3.402 5.182-7.97 5.182-13s-1.979-9.598-5.182-13h6.182c1.654 0 3 1.346 3 3zm-6 10c0 9.374-7.626 17-17 17s-17-7.626-17-17 7.626-17 17-17 17 7.626 17 17zm-42 13h-10v-14h6c1.538 0 2.937-.586 4-1.54zm2-20v-1-5h9.182c-3.203 3.402-5.182 7.97-5.182 13s1.979 9.598 5.182 13h-9.182zm-6-11c0-.551.448-1 1-1h8c.552 0 1 .449 1 1v3h-10zm-3 5h7v5 1c0 2.206-1.794 4-4 4h-6v-7c0-1.654 1.346-3 3-3zm0 30c-1.302 0-2.402-.839-2.816-2h23.197c.989.768 2.054 1.437 3.185 2zm52 0h-11.566c1.13-.563 2.195-1.232 3.185-2h11.197c-.414 1.161-1.514 2-2.816 2z"/><path d="m8 28c1.654 0 3-1.346 3-3s-1.346-3-3-3-3 1.346-3 3 1.346 3 3 3zm0-4c.552 0 1 .449 1 1s-.448 1-1 1-1-.449-1-1 .448-1 1-1z"/><path d="m5 40h6v-6h-6zm2-4h2v2h-2z"/></g></g></svg>