<svg id="Layer_5" enable-background="new 0 0 64 64" height="512" viewBox="0 0 64 64" width="512" xmlns="http://www.w3.org/2000/svg"><g><g><g><path d="m46 24h-5c2.34 0 4.21-2.01 3.98-4.39-.2-2.08-2.06-3.61-4.15-3.61h-4.83c0 2.21-1.79 4-4 4s-4-1.79-4-4h-4.83c-2.09 0-3.95 1.53-4.15 3.61-.23 2.38 1.64 4.39 3.98 4.39h-5c-2.21 0-4 1.79-4 4v30c0 2.21 1.79 4 4 4h28c2.21 0 4-1.79 4-4v-30c0-2.21-1.79-4-4-4z" fill="#e6e9ed"/></g><g><path d="m46 49v8c0 .55-.45 1-1 1h-26c-.55 0-1-.45-1-1v-8c0-.55.45-1 1-1h26c.55 0 1 .45 1 1z" fill="#fcd770"/></g></g><g><path d="m60 1c-1.302 0-2.402.839-2.816 2h-53.184c-1.654 0-3 1.346-3 3s1.346 3 3 3h26c.552 0 1 .448 1 1v1.101c-1.956.399-3.5 1.943-3.899 3.899h-3.929c-2.646 0-4.907 1.982-5.148 4.513-.12 1.249.233 2.496.976 3.487h-1c-2.757 0-5 2.243-5 5v30c0 2.757 2.243 5 5 5h28c2.757 0 5-2.243 5-5v-30c0-2.757-2.243-5-5-5h-1c.743-.991 1.096-2.238.977-3.487-.242-2.531-2.502-4.513-5.149-4.513h-3.929c-.399-1.956-1.943-3.5-3.899-3.899v-1.101c0-1.654-1.346-3-3-3h-26c-.552 0-1-.448-1-1s.448-1 1-1h53.184c.414 1.161 1.514 2 2.816 2 1.654 0 3-1.346 3-3s-1.346-3-3-3zm-23.101 16h3.929c1.626 0 3.014 1.187 3.158 2.702.082.86-.19 1.683-.766 2.315-.567.625-1.376.983-2.22.983v2h5c1.654 0 3 1.346 3 3v30c0 1.654-1.346 3-3 3h-28c-1.654 0-3-1.346-3-3v-30c0-1.654 1.346-3 3-3h5v-2c-.844 0-1.653-.358-2.221-.982-.575-.633-.848-1.455-.766-2.315.145-1.516 1.533-2.703 3.159-2.703h3.929c.465 2.279 2.484 4 4.899 4s4.434-1.721 4.899-4zm-1.899-1c0 1.654-1.346 3-3 3s-3-1.346-3-3 1.346-3 3-3 3 1.346 3 3zm25-11c-.552 0-1-.448-1-1s.448-1 1-1 1 .448 1 1-.448 1-1 1z"/><path d="m25 23h2v2h-2z"/><path d="m29 23h2v2h-2z"/><path d="m33 23h2v2h-2z"/><path d="m37 23h2v2h-2z"/><path d="m23 42.883v2.117h2v-2.117c1.716-.411 3-1.948 3-3.789 0-1.684-1.073-3.173-2.671-3.705l-2.025-.676c-.781-.26-1.304-.986-1.304-1.808 0-1.051.854-1.905 1.905-1.905h.189c1.052 0 1.906.854 1.906 1.905v.095l2-.095c0-1.84-1.284-3.378-3-3.789v-2.116h-2v2.117c-1.716.411-3 1.948-3 3.789 0 1.684 1.073 3.173 2.671 3.705l2.025.676c.781.26 1.304.986 1.304 1.808 0 1.051-.854 1.905-1.905 1.905h-.189c-1.052 0-1.906-.854-1.906-1.905v-1.095h-2v1.095c0 1.84 1.284 3.378 3 3.788z"/><path d="m26.183 35h21.633v2h-21.633z" transform="matrix(.555 -.832 .832 .555 -13.478 46.817)"/><path d="m41 36c-1.654 0-3 1.346-3 3s1.346 3 3 3 3-1.346 3-3-1.346-3-3-3zm0 4c-.552 0-1-.448-1-1s.448-1 1-1 1 .448 1 1-.448 1-1 1z"/><path d="m30 33c0 1.654 1.346 3 3 3s3-1.346 3-3-1.346-3-3-3-3 1.346-3 3zm3-1c.552 0 1 .448 1 1s-.448 1-1 1-1-.448-1-1 .448-1 1-1z"/><path d="m17 49v8c0 1.103.897 2 2 2h26c1.103 0 2-.897 2-2v-8c0-1.103-.897-2-2-2h-26c-1.103 0-2 .897-2 2zm28.002 8h-26.002v-8h26z"/><path d="m21 51h2v4h-2z"/><path d="m25 51h2v4h-2z"/><path d="m29 51h2v4h-2z"/><path d="m33 51h2v4h-2z"/><path d="m37 51h2v4h-2z"/><path d="m41 51h2v4h-2z"/></g></g></svg>