<svg id="Layer_5" enable-background="new 0 0 64 64" height="512" viewBox="0 0 64 64" width="512" xmlns="http://www.w3.org/2000/svg"><g><g><g><path d="m58 17h-52v-10c0-1.105.895-2 2-2h50z" fill="#b4dd7f"/></g><g><path d="m56 55h-50v-38h52v36c0 1.105-.895 2-2 2z" fill="#e6e9ed"/></g><g><path d="m30 36.83c0 .75-.3 1.47-.83 2l-.13.13-3.21 3.21-2.66 2.66-3.21 3.21-.13.13c-.53.53-1.25.83-2 .83-.78 0-1.49-.32-2-.83s-.83-1.22-.83-2c0-.75.3-1.47.83-2l.13-.13 3.21-3.21 2.66-2.66 3.21-3.21.13-.13c.53-.53 1.25-.83 2-.83.78 0 1.49.32 2 .83s.83 1.22.83 2z" fill="#ffc729"/></g><g><path d="m49 17.83c0 .75-.3 1.47-.83 2l-.13.13-3.21 3.21-2.66 2.66-3.21 3.21-.13.13c-.53.53-1.25.83-2 .83-.78 0-1.49-.32-2-.83s-.83-1.22-.83-2c0-.75.3-1.47.83-2l.13-.13 3.21-3.21 2.66-2.66 3.21-3.21.13-.13c.53-.53 1.25-.83 2-.83.78 0 1.49.32 2 .83s.83 1.22.83 2z" fill="#ffc729"/></g><g><path d="m24 48.49c0 2.25-.89 4.4-2.49 6l-.51.51-4.51 4.51c-1.6 1.6-3.75 2.49-6 2.49-4.69 0-8.49-3.8-8.49-8.49 0-2.25.89-4.4 2.49-6l1.51-1.51 3.51-3.51c1.6-1.6 3.75-2.49 6-2.49 1.31 0 2.55.31 3.66.83l-3.21 3.21c-.15-.01-.29-.04-.44-.04h-.01c-1.18 0-2.33.47-3.17 1.31l-5.03 5.03c-.84.84-1.31 1.99-1.31 3.17 0 2.48 2.01 4.49 4.48 4.49h.01c1.18 0 2.33-.47 3.17-1.31l5.03-5.03c.84-.84 1.31-1.99 1.31-3.18 0-.15-.03-.29-.04-.44l3.21-3.21c.52 1.11.83 2.35.83 3.66z" fill="#fcd770"/></g><g><path d="m29.49 39c1.18 0 2.33-.47 3.17-1.31l5.03-5.03c.84-.84 1.31-1.99 1.31-3.18 0-.15-.03-.29-.04-.44l3.21-3.21c.52 1.11.83 2.35.83 3.66 0 2.25-.89 4.4-2.49 6l-5.02 5.02c-1.6 1.6-3.75 2.49-6 2.49-1.31 0-2.55-.31-3.66-.83l3.21-3.21c.15.01.29.04.44.04z" fill="#fcd770"/></g><g><path d="m38.17 21.83-3.21 3.21c-.15-.01-.29-.04-.44-.04h-.01c-1.18 0-2.33.47-3.17 1.31l-5.03 5.03c-.84.84-1.31 1.99-1.31 3.17 0 .16.03.3.04.45l-3.21 3.21c-.52-1.11-.83-2.35-.83-3.66 0-2.25.89-4.4 2.49-6l5.02-5.02c1.6-1.6 3.75-2.49 6-2.49 1.31 0 2.55.31 3.66.83z" fill="#fcd770"/></g><g><path d="m48.49 20c1.18 0 2.33-.47 3.17-1.31l5.03-5.03c.84-.84 1.31-1.99 1.31-3.18 0-2.47-2.01-4.48-4.48-4.48h-.01c-1.18 0-2.33.47-3.17 1.31l-5.03 5.03c-.84.84-1.31 1.99-1.31 3.17 0 .16.03.3.04.45l-3.21 3.21c-.32-.68-.56-1.41-.69-2.17-.09-.48-.14-.98-.14-1.49 0-2.25.89-4.4 2.49-6l4.51-4.51.51-.51c1.6-1.6 3.75-2.49 6-2.49 2.35 0 4.47.95 6 2.49 1.54 1.53 2.49 3.65 2.49 6 0 2.25-.89 4.4-2.49 6l-1.51 1.51-3.51 3.51c-1.6 1.6-3.75 2.49-6 2.49-1.31 0-2.55-.31-3.66-.83l3.21-3.21c.15.01.29.04.44.04z" fill="#fcd770"/></g><g><path d="m26 9h4v4h-4z" fill="#e6e9ed"/></g><g><path d="m18 9h4v4h-4z" fill="#e6e9ed"/></g><g><path d="m10 9h4v4h-4z" fill="#e6e9ed"/></g></g><g><path d="m63 10.485c0-5.23-4.255-9.485-9.485-9.485-2.533 0-4.915.987-6.707 2.778l-.222.222h-38.586c-1.654 0-3 1.346-3 3v38.586l-1.222 1.222c-1.792 1.791-2.778 4.172-2.778 6.707 0 5.23 4.255 9.485 9.485 9.485 2.533 0 4.915-.987 6.707-2.778l4.222-4.222h34.586c1.654 0 3-1.346 3-3v-34.586l1.222-1.222c1.792-1.791 2.778-4.172 2.778-6.707zm-9.485-7.485c4.128 0 7.485 3.358 7.485 7.485 0 2-.778 3.879-2.192 5.293l-5.029 5.029c-1.415 1.414-3.295 2.193-5.294 2.193-.623 0-1.234-.086-1.832-.239l1.766-1.766c.023 0 .044.005.066.005 1.465 0 2.842-.57 3.878-1.606l5.03-5.03c1.037-1.036 1.607-2.414 1.607-3.879 0-3.025-2.461-5.485-5.485-5.485-1.465 0-2.842.57-3.878 1.606l-5.03 5.03c-1.037 1.036-1.607 2.414-1.607 3.879 0 .023.005.044.005.066l-1.766 1.766c-.153-.598-.239-1.209-.239-1.832 0-2 .778-3.879 2.192-5.293l5.029-5.029c1.415-1.414 3.295-2.193 5.294-2.193zm-11.515 26.485c0 2-.778 3.879-2.192 5.293l-5.029 5.029c-1.415 1.414-3.295 2.193-5.294 2.193-.623 0-1.234-.086-1.832-.239l1.766-1.766c.023 0 .044.005.066.005 1.465 0 2.842-.57 3.878-1.606l5.03-5.03c1.037-1.036 1.607-2.414 1.607-3.879 0-.023-.005-.044-.005-.066l1.766-1.766c.153.598.239 1.209.239 1.832zm-22.879 17.98c-.341.34-.811.535-1.293.535-1.008 0-1.828-.82-1.828-1.829 0-.488.19-.948.535-1.293l9.344-9.343c.341-.34.811-.535 1.293-.535 1.008 0 1.828.82 1.828 1.829 0 .488-.19.948-.535 1.293zm-1.293 2.535c.296 0 .584-.043.865-.107-.173.39-.41.753-.714 1.057l-5.03 5.03c-.658.658-1.533 1.02-2.464 1.02-1.922 0-3.485-1.563-3.485-3.485 0-.931.362-1.806 1.021-2.464l5.03-5.03c.309-.309.67-.547 1.058-.719-.066.283-.109.572-.109.869 0 2.112 1.718 3.829 3.828 3.829zm4.172-15.485c0-2 .778-3.879 2.192-5.293l5.029-5.029c1.415-1.414 3.295-2.193 5.294-2.193.623 0 1.234.086 1.832.239l-1.766 1.766c-.023 0-.044-.005-.066-.005-1.465 0-2.842.57-3.878 1.606l-5.03 5.03c-1.037 1.036-1.607 2.414-1.607 3.879 0 .023.005.044.005.066l-1.766 1.766c-.153-.598-.239-1.209-.239-1.832zm5.172-1.515c-.298 0-.587.043-.87.109.172-.389.409-.749.719-1.058l5.03-5.03c.309-.309.67-.547 1.058-.719-.066.283-.109.572-.109.869 0 2.112 1.718 3.829 3.828 3.829.296 0 .584-.043.865-.107-.173.39-.41.753-.714 1.057l-5.03 5.03c-.309.309-.67.547-1.058.719.066-.284.109-.573.109-.87 0-2.112-1.718-3.829-3.828-3.829zm10.949-4.535c-.341.34-.811.535-1.293.535-1.008 0-1.828-.82-1.828-1.829 0-.488.19-.948.535-1.293l9.344-9.343c.341-.34.811-.535 1.293-.535 1.008 0 1.828.82 1.828 1.829 0 .488-.19.948-.535 1.293zm8.051-14.465c-.298 0-.587.043-.87.109.172-.389.409-.749.719-1.058l5.03-5.03c.658-.659 1.533-1.021 2.464-1.021 1.922 0 3.485 1.563 3.485 3.485 0 .917-.372 1.816-1.021 2.464l-5.03 5.03c-.309.309-.67.547-1.058.719.066-.283.109-.572.109-.869 0-2.112-1.718-3.829-3.828-3.829zm-38.172-8h36.586l-2.808 2.808c-1.792 1.791-2.778 4.172-2.778 6.707 0 .163.019.323.027.485h-32.027v-9c0-.551.448-1 1-1zm-1 12h32.349c.086.314.188.624.307.93l-1.727 1.727c-1.096-.428-2.239-.657-3.414-.657-2.533 0-4.915.987-6.707 2.778l-5.029 5.029c-1.793 1.792-2.779 4.173-2.779 6.708 0 1.176.229 2.32.656 3.415l-1.727 1.727c-1.096-.428-2.239-.657-3.414-.657-2.533 0-4.915.987-6.707 2.778l-1.808 1.808zm8.778 40.808c-1.414 1.413-3.294 2.192-5.293 2.192-4.128 0-7.485-3.358-7.485-7.485 0-2 .778-3.879 2.192-5.293l5.029-5.029c1.415-1.414 3.295-2.193 5.294-2.193.623 0 1.234.086 1.832.239l-1.766 1.766c-.023 0-.044-.005-.066-.005-1.465 0-2.842.57-3.878 1.606l-5.03 5.03c-1.037 1.036-1.607 2.414-1.607 3.879 0 3.025 2.461 5.485 5.485 5.485 1.465 0 2.842-.57 3.878-1.606l5.03-5.03c1.037-1.036 1.607-2.414 1.607-3.879 0-.023-.005-.044-.005-.066l1.766-1.766c.153.598.239 1.209.239 1.832 0 2-.778 3.879-2.192 5.293zm41.222-5.808c0 .551-.448 1-1 1h-32.778c1.15-1.599 1.778-3.506 1.778-5.515 0-1.176-.229-2.32-.656-3.415l1.727-1.727c1.096.428 2.239.657 3.414.657 2.533 0 4.915-.987 6.707-2.778l5.029-5.029c1.793-1.792 2.779-4.173 2.779-6.708 0-1.176-.229-2.32-.656-3.415l1.727-1.727c1.096.428 2.239.657 3.414.657 2.533 0 4.915-.987 6.707-2.778l1.808-1.808z"/><path d="m15 8h-6v6h6zm-2 4h-2v-2h2z"/><path d="m23 8h-6v6h6zm-2 4h-2v-2h2z"/><path d="m31 8h-6v6h6zm-2 4h-2v-2h2z"/><path d="m17.781 31.625-1.562-1.25-2.219 2.774v-13.149h-2v13.149l-2.219-2.774-1.562 1.25 4.781 5.976z"/><path d="m46.219 40.375 1.562 1.25 2.219-2.774v13.149h2v-13.149l2.219 2.774 1.562-1.25-4.781-5.976z"/><path d="m32 50h16v2h-16z"/><path d="m32 46h16v2h-16z"/></g></g></svg>