<svg id="Layer_5" enable-background="new 0 0 64 64" height="512" viewBox="0 0 64 64" width="512" xmlns="http://www.w3.org/2000/svg"><g><g><g><path d="m48.32 14.37c-1.22 1.22-2.04 2.84-2.26 4.64v2.99h-11.06v-5h-6v5h-15c-2.21 0-4 1.79-4 4v2c-4.42 0-8-3.58-8-8 0-4.2 3.24-7.64 7.35-7.97 1.35-5.74 6.49-10.03 12.65-10.03 5.21 0 9.69 3.07 11.76 7.49 1.53-.94 3.32-1.49 5.24-1.49 4.24 0 7.87 2.64 9.32 6.37z" fill="#e6e9ed"/></g><g><path d="m54 12c4.42 0 8 3.58 8 8s-3.58 8-8 8v-2c0-2.21-1.79-4-4-4h-3.94v-2.99c.22-1.8 1.04-3.42 2.26-4.64 1.45-1.46 3.46-2.37 5.68-2.37z" fill="#e6e9ed"/></g><g><path d="m54 54c1.1 0 2 .9 2 2 0 1.66-.67 3.16-1.76 4.24-1.08 1.09-2.58 1.76-4.24 1.76h-36c-3.31 0-6-2.69-6-6 0-.55.22-1.05.59-1.41.36-.37.86-.59 1.41-.59h4 36z" fill="#969faa"/></g><g><path d="m50 22h-36c-2.21 0-4 1.79-4 4v2 22c0 2.21 1.79 4 4 4h36c2.21 0 4-1.79 4-4v-22-2c0-2.21-1.79-4-4-4z" fill="#ccd1d9"/></g><g><path d="m49 26h-34c-.55 0-1 .45-1 1v22c0 .55.45 1 1 1h34c.55 0 1-.45 1-1v-22c0-.55-.45-1-1-1z" fill="#69d6f4"/></g><g><path d="m39 35.57c0 .28-.08.56-.22.8l-5.27 8.77c-.31.53-.89.86-1.51.86s-1.2-.33-1.51-.86l-5.27-8.77c-.14-.24-.22-.52-.22-.8 0-.87.7-1.57 1.57-1.57h2.43v-8-4-5h6v5 4 8h2.43c.87 0 1.57.7 1.57 1.57z" fill="#ff826e"/></g></g><g><path d="m55 28.941c4.493-.5 8-4.317 8-8.941 0-4.962-4.037-9-9-9-1.984 0-3.834.648-5.335 1.754-1.907-3.533-5.564-5.754-9.665-5.754-1.672 0-3.318.385-4.82 1.122-2.468-4.359-7.139-7.122-12.18-7.122-6.296 0-11.727 4.127-13.443 10.123-4.291.697-7.557 4.465-7.557 8.877 0 4.624 3.507 8.442 8 8.941v21.059c0 1.13.391 2.162 1.026 3h-.026c-1.654 0-3 1.346-3 3 0 3.86 3.141 7 7 7h36c3.859 0 7-3.14 7-7 0-1.654-1.346-3-3-3h-.026c.635-.838 1.026-1.87 1.026-3zm-52-8.941c0-3.619 2.826-6.681 6.434-6.971l.728-.058.166-.711c1.274-5.452 6.074-9.26 11.672-9.26 4.625 0 8.887 2.715 10.857 6.917l.476 1.015.955-.589c1.425-.878 3.054-1.343 4.712-1.343 3.537 0 6.655 2.03 8.132 5.197-1.096 1.294-1.842 2.901-2.063 4.687l1.984.245c.433-3.494 3.419-6.129 6.947-6.129 3.859 0 7 3.14 7 7 0 3.519-2.614 6.432-6 6.92v-.92c0-2.757-2.243-5-5-5h-14v-4h-2v18h3.434c.312 0 .566.254.566.566 0 .102-.028.203-.081.291l-5.262 8.771c-.275.459-1.039.459-1.314 0l-5.262-8.771c-.053-.088-.081-.189-.081-.291 0-.312.254-.566.566-.566h3.434v-18h-2v4h-14c-2.757 0-5 2.243-5 5v.92c-3.386-.488-6-3.401-6-6.92zm21.366 16.887 5.262 8.771c.497.827 1.406 1.342 2.372 1.342s1.875-.515 2.372-1.343l5.262-8.77c.239-.399.366-.855.366-1.321 0-1.415-1.151-2.566-2.566-2.566h-1.434v-6h13v22h-34v-22h13v6h-1.434c-1.415 0-2.566 1.151-2.566 2.566 0 .466.127.922.366 1.321zm30.634 19.113c0 2.757-2.243 5-5 5h-36c-2.757 0-5-2.243-5-5 0-.551.448-1 1-1h4 36 4c.552 0 1 .449 1 1zm-41-3c-1.654 0-3-1.346-3-3v-24c0-1.654 1.346-3 3-3h14v2h-13c-1.103 0-2 .897-2 2v22c0 1.103.897 2 2 2h34c1.103 0 2-.897 2-2v-22c0-1.103-.897-2-2-2h-13v-2h14c1.654 0 3 1.346 3 3v24c0 1.654-1.346 3-3 3z"/><path d="m49 57h2v2h-2z"/><path d="m45 57h2v2h-2z"/><path d="m41 57h2v2h-2z"/><path d="m28 13h2v2h-2z"/><path d="m22 7c2.137 0 4.146.832 5.657 2.343l1.414-1.414c-1.888-1.889-4.4-2.929-7.071-2.929s-5.183 1.04-7.071 2.929l1.414 1.414c1.511-1.511 3.52-2.343 5.657-2.343z"/></g></g></svg>