<svg id="Layer_5" enable-background="new 0 0 64 64" height="512" viewBox="0 0 64 64" width="512" xmlns="http://www.w3.org/2000/svg"><g><g><g><path d="m20 22v8h-4v-4.84c1.59-.69 2.97-1.79 4-3.16z" fill="#ccd1d9"/></g><g><path d="m56 2v22h-4v-18h-32v4c-1.03-1.37-2.41-2.47-4-3.16v-4.84z" fill="#ccd1d9"/></g><g><path d="m20 6v4c1.25 1.67 2 3.75 2 6s-.75 4.33-2 6v8h32v-24z" fill="#e6e9ed"/></g><g><path d="m16 6.84c1.59.69 2.97 1.79 4 3.16 1.25 1.67 2 3.75 2 6s-.75 4.33-2 6c-1.03 1.37-2.41 2.47-4 3.16-1.22.54-2.58.84-4 .84-5.52 0-10-4.48-10-10s4.48-10 10-10c1.42 0 2.78.3 4 .84z" fill="#fcd770"/></g><g><path d="m43.43 14c.8 1.28.73 2.8-.02 4 .75 1.2.82 2.72.02 4-.79 1.28-2.24 1.98-3.72 1.98-.75 1.2-2.12 2.02-3.71 2.02s-2.97-.82-3.71-2.02c-1.48 0-2.93-.7-3.72-1.98-.8-1.28-.73-2.8.02-4-.75-1.2-.82-2.72-.02-4 .79-1.28 2.24-1.98 3.72-1.98.74-1.2 2.12-2.02 3.71-2.02s2.96.82 3.71 2.02c1.48 0 2.93.7 3.72 1.98z" fill="#ff826e"/></g><g><circle cx="36" cy="18" fill="#fc6e51" r="2"/></g><g><path d="m58 26v4h-12v-4c0-1.1.9-2 2-2h4 4c1.1 0 2 .9 2 2z" fill="#a0d468"/></g><g><path d="m58 38v1c0 .55-.45 1-1 1h-4c-.55 0-1-.45-1-1v-1-3c0-.55.45-1 1-1h4c.55 0 1 .45 1 1z" fill="#e6e9ed"/></g><g><path d="m10 38h10v20h-10z" fill="#aab2bd"/></g><g><path d="m36 58h-16v-20h7.05c-1.9 2.12-3.05 4.92-3.05 8 0 6.63 5.37 12 12 12z" fill="#ccd1d9"/></g><g><path d="m62 58h-26c4.35 0 8.16-2.31 10.27-5.77.46 1.04 1.51 1.77 2.73 1.77 1.66 0 3-1.34 3-3s-1.34-3-3-3c-.44 0-.84.1-1.21.26.14-.73.21-1.49.21-2.26 0-3.07-1.15-5.86-3.03-7.98l.03-.02h7v1c0 .55.45 1 1 1h4c.55 0 1-.45 1-1v-1h4z" fill="#ccd1d9"/></g><g><path d="m36 58h26c0 2.21-1.79 4-4 4h-44c-2.21 0-4-1.79-4-4h10z" fill="#b4dd7f"/></g><g><path d="m28.24 29.03c.45-1.78 2.05-3.03 3.88-3.03h3.88 3.88c1.83 0 3.43 1.25 3.88 3.03l.24.97h2 12c2.21 0 4 1.79 4 4v4h-4v-3c0-.55-.45-1-1-1h-4c-.55 0-1 .45-1 1v3h-7l-.03.02c-2.2-2.47-5.4-4.02-8.97-4.02-3.56 0-6.75 1.54-8.95 4h-7.05-10v-4c0-2.21 1.79-4 4-4h2 4 8z" fill="#b4dd7f"/></g><g><path d="m49 48c1.66 0 3 1.34 3 3s-1.34 3-3 3c-1.22 0-2.27-.73-2.73-1.77.72-1.2 1.25-2.54 1.52-3.97.37-.16.77-.26 1.21-.26z" fill="#969faa"/></g><g><path d="m27.05 38c2.2-2.46 5.39-4 8.95-4 3.57 0 6.77 1.55 8.97 4.02 1.88 2.12 3.03 4.91 3.03 7.98 0 .77-.07 1.53-.21 2.26-.27 1.43-.8 2.77-1.52 3.97-2.11 3.46-5.92 5.77-10.27 5.77-6.63 0-12-5.37-12-12 0-3.08 1.15-5.88 3.05-8z" fill="#69d6f4"/></g><g><path d="m36 38c4.42 0 8 3.58 8 8s-3.58 8-8 8-8-3.58-8-8 3.58-8 8-8z" fill="#4fc1e9"/></g><g><path d="m40 45v2c0 .55-.45 1-1 1h-6c-.55 0-1-.45-1-1v-2c0-.55.45-1 1-1h6c.55 0 1 .45 1 1z" fill="#e6e9ed"/></g></g><g><path d="m13 13c.551 0 1 .448 1 1h2c0-1.654-1.346-3-3-3v-2h-2v2h-3v3c0 1.654 1.346 3 3 3h2c.551 0 1 .448 1 1v1h-3c-.551 0-1-.448-1-1h-2c0 1.654 1.346 3 3 3v2h2v-2h3v-3c0-1.654-1.346-3-3-3h-2c-.551 0-1-.448-1-1v-1z"/><path d="m39 43h-6c-1.103 0-2 .897-2 2v2c0 1.103.897 2 2 2h6c1.103 0 2-.897 2-2v-2c0-1.103-.897-2-2-2zm-6 4v-2h6l.001 2z"/><path d="m36 37c-4.962 0-9 4.037-9 9s4.038 9 9 9 9-4.037 9-9-4.038-9-9-9zm0 16c-3.86 0-7-3.141-7-7s3.14-7 7-7 7 3.141 7 7-3.14 7-7 7z"/><path d="m59 29.101v-3.101c0-1.302-.839-2.402-2-2.816v-22.184h-42v4.426c-.955-.271-1.959-.426-3-.426-6.065 0-11 4.935-11 11s4.935 11 11 11c1.041 0 2.045-.155 3-.426v2.426h-1c-2.757 0-5 2.243-5 5v24c0 2.757 2.243 5 5 5h44c2.757 0 5-2.243 5-5v-24c0-2.414-1.721-4.434-4-4.899zm-25.855-5.643-.293-.476-.559.001c-.001 0-.003 0-.005 0-1.194 0-2.293-.578-2.871-1.51-.565-.914-.558-2.015.021-2.946l.328-.527-.328-.527c-.578-.932-.586-2.032-.021-2.946.577-.932 1.677-1.51 2.871-1.51h.005l.559.001.293-.476c.588-.951 1.682-1.542 2.855-1.542s2.267.591 2.855 1.542l.293.476.559-.001h.005c1.194 0 2.293.578 2.871 1.51.565.914.558 2.015-.021 2.946l-.328.527.328.527c.578.932.586 2.032.021 2.946-.577.932-1.677 1.51-2.871 1.51-.002 0-.003 0-.005 0l-.559-.001-.293.476c-.588.951-1.682 1.542-2.855 1.542s-2.267-.591-2.855-1.542zm7.099 1.5c1.674-.158 3.189-1.06 4.039-2.432.854-1.381.942-3.067.264-4.526.678-1.459.591-3.146-.264-4.526-.85-1.372-2.364-2.273-4.039-2.432-.992-1.271-2.572-2.042-4.244-2.042s-3.252.771-4.244 2.042c-1.674.158-3.189 1.06-4.039 2.432-.854 1.381-.942 3.067-.264 4.526-.678 1.459-.591 3.146.264 4.526.85 1.372 2.364 2.273 4.039 2.432.019.024.041.044.06.068-2.166.133-4.012 1.633-4.544 3.761l-.053.213h-6.219v-6.695c1.256-1.787 2-3.959 2-6.305s-.744-4.517-2-6.305v-2.695h30v16h-3c-1.654 0-3 1.346-3 3v3h-.219l-.053-.212c-.532-2.129-2.378-3.629-4.544-3.762.019-.024.041-.044.06-.068zm6.756 1.042c0-.552.449-1 1-1h8c.551 0 1 .448 1 1v3h-10zm-30-23h38v20h-2v-18h-34v2.521c-.613-.507-1.286-.941-2-1.307zm-14 13c0-4.963 4.038-9 9-9s9 4.037 9 9-4.038 9-9 9-9-4.037-9-9zm14 9.786c.714-.366 1.387-.8 2-1.307v4.521h-2zm-3 5.214h14.781l.432-1.728c.334-1.337 1.531-2.272 2.91-2.272h7.754c1.379 0 2.576.935 2.91 2.273l.432 1.727h14.781c1.654 0 3 1.346 3 3v3h-2v-2c0-1.103-.897-2-2-2h-4c-1.103 0-2 .897-2 2v2h-5.641c-2.367-2.46-5.684-4-9.359-4s-6.992 1.54-9.359 4h-15.641v-3c0-1.654 1.346-3 3-3zm28.896 26c1.303-.82 2.449-1.862 3.387-3.077.727.676 1.689 1.077 2.717 1.077 2.206 0 4-1.794 4-4s-1.794-4-4-4c-.017 0-.034.005-.051.005.026-.332.051-.666.051-1.005 0-2.578-.764-4.977-2.063-7h4.063c0 1.103.897 2 2 2h4c1.103 0 2-.897 2-2h2v18zm-31.896 0v-18h8v18zm10-18h4.063c-1.299 2.023-2.063 4.422-2.063 7 0 4.633 2.444 8.697 6.104 11h-8.104zm4 7c0-6.065 4.935-11 11-11s11 4.935 11 11-4.935 11-11 11-11-4.935-11-11zm23.626 3.041c.124-.025.249-.041.374-.041 1.103 0 2 .897 2 2s-.897 2-2 2c-.63 0-1.205-.307-1.578-.798.536-.983.936-2.047 1.204-3.161zm4.374-10.041v-4h4l.001 4zm5 22h-44c-1.302 0-2.402-.839-2.816-2h49.631c-.413 1.161-1.513 2-2.815 2z"/><path d="m31 29h10v2h-10z"/><path d="m13 33h4v2h-4z"/><path d="m19 33h2v2h-2z"/><path d="m57 45h2v2h-2z"/><path d="m57 53h2v2h-2z"/><path d="m57 49h2v2h-2z"/><path d="m36 15c-1.654 0-3 1.346-3 3s1.346 3 3 3 3-1.346 3-3-1.346-3-3-3zm0 4c-.551 0-1-.448-1-1s.449-1 1-1 1 .448 1 1-.449 1-1 1z"/><path d="m47 13h2v2h-2z"/><path d="m47 17h2v2h-2z"/><path d="m47 9h2v2h-2z"/></g></g></svg>