<svg id="Layer_5" enable-background="new 0 0 64 64" height="512" viewBox="0 0 64 64" width="512" xmlns="http://www.w3.org/2000/svg"><g><g><g><path d="m16 10v24h-14v-24z" fill="#969faa"/></g><g><path d="m31 4v2h-6v-2c0-1.1.9-2 2-2h2c1.1 0 2 .9 2 2z" fill="#ccd1d9"/></g><g><path d="m19 4v2h-12v-2c0-1.1.9-2 2-2h8c1.1 0 2 .9 2 2z" fill="#aab2bd"/></g><g><path d="m41 4v2h-6v-2c0-1.1.9-2 2-2h2c1.1 0 2 .9 2 2z" fill="#ccd1d9"/></g><g><path d="m16 10h-14c0-2.21 1.79-4 4-4h1 12 6 6 4 6 7c2.21 0 4 1.79 4 4h-18z" fill="#ffeaa7"/></g><g><path d="m34 38h-16-4-8c-2.21 0-4-1.79-4-4h14 8.2c2.53 2.47 5.99 4 9.8 4z" fill="#ffeaa7"/></g><g><path d="m43.8 34h8.2c0 2.21-1.79 4-4 4h-2-12c3.81 0 7.27-1.53 9.8-4z" fill="#ffeaa7"/></g><g><path d="m16 10h18c-7.73 0-14 6.27-14 14 0 3.91 1.61 7.45 4.2 10h-8.2z" fill="#ccd1d9"/></g><g><path d="m52 34h-8.2c2.59-2.55 4.2-6.09 4.2-10 0-7.73-6.27-14-14-14h18v18 4z" fill="#ccd1d9"/></g><g><path d="m58 30v2h-6v-4h4c1.1 0 2 .9 2 2z" fill="#969faa"/></g><g><path d="m58 32h-6v2c0 2.21-1.79 4-4 4h-34v20c0 2.21 1.79 4 4 4h40c2.21 0 4-1.79 4-4v-8-14c0-2.21-1.79-4-4-4z" fill="#aab2bd"/></g><g><path d="m6 14h6v4h-6z" fill="#ff826e"/></g><g><circle cx="9" cy="27" fill="#fcd770" r="3"/></g><g><circle cx="55" cy="43" fill="#fcd770" r="3"/></g><g><path d="m50 54h8v4h-8z" fill="#ff826e"/></g><g><path d="m34 38h-16v19c0 .24.08.46.22.63l27.61-.08c.11-.16.17-.35.17-.55v-7-12z" fill="#e6e9ed"/></g><g><path d="m29.03 49.71 2.51 4.19-1.54 4.1h-11c-.31 0-.59-.14-.78-.37l4.75-7.92c.64-1.06 1.79-1.71 3.03-1.71s2.39.65 3.03 1.71z" fill="#b4dd7f"/></g><g><path d="m40.7 43.87 5.13 13.68c-.17.27-.48.45-.83.45h-15l1.54-4.1 3.76-10.03c.42-1.12 1.5-1.87 2.7-1.87s2.28.75 2.7 1.87z" fill="#a0d468"/></g><g><path d="m34 10c7.73 0 14 6.27 14 14 0 3.91-1.61 7.45-4.2 10-2.53 2.47-5.99 4-9.8 4s-7.27-1.53-9.8-4c-2.59-2.55-4.2-6.09-4.2-10 0-7.73 6.27-14 14-14z" fill="#69d6f4"/></g><g><path d="m34 18c3.31 0 6 2.69 6 6s-2.69 6-6 6-6-2.69-6-6 2.69-6 6-6z" fill="#4fc1e9"/></g><g><circle cx="34" cy="24" fill="#3bafda" r="2"/></g></g><g><path d="m13 13h-8v6h8zm-2 4h-4v-2h4z"/><path d="m34 27c1.654 0 3-1.346 3-3s-1.346-3-3-3-3 1.346-3 3 1.346 3 3 3zm0-4c.551 0 1 .449 1 1s-.449 1-1 1-1-.449-1-1 .449-1 1-1z"/><path d="m34 31c3.86 0 7-3.14 7-7s-3.14-7-7-7-7 3.14-7 7 3.14 7 7 7zm0-12c2.757 0 5 2.243 5 5s-2.243 5-5 5-5-2.243-5-5 2.243-5 5-5z"/><path d="m9 23c-2.206 0-4 1.794-4 4s1.794 4 4 4 4-1.794 4-4-1.794-4-4-4zm0 6c-1.103 0-2-.897-2-2s.897-2 2-2 2 .897 2 2-.897 2-2 2z"/><path d="m59 31.101v-1.101c0-1.654-1.346-3-3-3h-3v-17c0-2.757-2.243-5-5-5h-6v-1c0-1.654-1.346-3-3-3h-2c-1.654 0-3 1.346-3 3v1h-2v-1c0-1.654-1.346-3-3-3h-2c-1.654 0-3 1.346-3 3v1h-4v-1c0-1.654-1.346-3-3-3h-8c-1.654 0-3 1.346-3 3v1c-2.757 0-5 2.243-5 5v24c0 2.757 2.243 5 5 5h7v19c0 2.757 2.243 5 5 5h40c2.757 0 5-2.243 5-5v-22c0-2.414-1.721-4.434-4-4.899zm-3-2.101c.551 0 1 .449 1 1v1h-4v-2zm-26.693 28h-9.541l4.063-6.771c.455-.758 1.287-1.229 2.171-1.229s1.716.471 2.171 1.229l2.261 3.768zm6.927-12.776c.275-.732.984-1.224 1.766-1.224s1.491.492 1.766 1.225l4.79 12.775h-13.113zm8.766 8.261-3.361-8.963c-.566-1.508-2.028-2.522-3.639-2.522s-3.073 1.014-3.639 2.521l-3.032 8.084-1.443-2.405c-.814-1.357-2.303-2.2-3.886-2.2s-3.072.843-3.886 2.2l-3.114 5.19v-15.39h26zm-30-41.485v22h-12v-22zm2 0h9.549c-4.503 2.591-7.549 7.442-7.549 13 0 3.379 1.136 6.49 3.029 9h-5.029zm4 13c0-7.168 5.832-13 13-13s13 5.832 13 13-5.832 13-13 13-13-5.832-13-13zm24.971 9c1.893-2.51 3.029-5.621 3.029-9 0-5.558-3.046-10.409-7.549-13h9.549v22zm-4.52 4c.98-.564 1.887-1.237 2.712-2h6.652c-.414 1.161-1.514 2-2.816 2zm-5.451-33c0-.551.449-1 1-1h2c.551 0 1 .449 1 1v1h-4zm-10 0c0-.551.449-1 1-1h2c.551 0 1 .449 1 1v1h-4zm-18 0c0-.551.449-1 1-1h8c.551 0 1 .449 1 1v1h-10zm-2 3h42c1.302 0 2.402.839 2.816 2h-47.632c.414-1.161 1.514-2 2.816-2zm-2.816 28h20.652c.825.763 1.732 1.436 2.712 2h-20.548c-1.302 0-2.402-.839-2.816-2zm57.816 23c0 1.654-1.346 3-3 3h-40c-1.654 0-3-1.346-3-3v-19h2v18c0 1.103.897 2 2 2h26c1.103 0 2-.897 2-2v-18h1c2.757 0 5-2.243 5-5v-1h5c1.654 0 3 1.346 3 3z"/><path d="m55 39c-2.206 0-4 1.794-4 4s1.794 4 4 4 4-1.794 4-4-1.794-4-4-4zm0 6c-1.103 0-2-.897-2-2s.897-2 2-2 2 .897 2 2-.897 2-2 2z"/><path d="m55 35h4v2h-4z"/><path d="m49 59h10v-6h-10zm2-4h6v2h-6z"/><path d="m53 49h2v2h-2z"/><path d="m49 49h2v2h-2z"/><path d="m57 49h2v2h-2z"/></g></g></svg>