<svg id="Layer_5" enable-background="new 0 0 64 64" height="512" viewBox="0 0 64 64" width="512" xmlns="http://www.w3.org/2000/svg"><g><g><g><path d="m2 2h60v60h-60z" fill="#ccd1d9"/></g><g><path d="m6 6h52v52h-52z" fill="#e6e9ed"/></g><g><path d="m36 20v9.7l-4.16 1.82-.84-2.52v-2l.63-.32c.84-.42 1.37-1.27 1.37-2.21 0-1.36-1.11-2.47-2.47-2.47h-.53l-1-3h-5c-1.66 0-3-1.34-3-3 0-.83.34-1.58.88-2.12s1.29-.88 2.12-.88h5c3.48 0 6.36 2.53 6.9 5.86.07.37.1.75.1 1.14z" fill="#b27946"/></g><g><path d="m32 40c0 4.8 1.98 9.38 5.47 12.67 1.59 1.49 2.53 3.33 2.53 5.33h-26c0-2.34 1.29-4.47 3.4-6.07 2.99-2.26 4.6-5.92 4.6-9.66v-1.44l2.23 2.23c.6.6 1.42.94 2.27.94s1.67-.34 2.27-.94l3.06-3.07c.06.01.11.01.17.01z" fill="#b4dd7f"/></g><g><path d="m26 34.08 5.84-2.56.16.48c-1.66 0-3 1.79-3 4 0 .37.04.72.11 1.06l-2.61 2.61-3.09-3.08c-.37-.38-.88-.59-1.41-.59-.22 0-.44.04-.65.12z" fill="#b4dd7f"/></g><g><path d="m32 32c1.66 0 3 1.79 3 4s-1.34 4-3 4c-.06 0-.11 0-.17-.01-1.31-.09-2.39-1.3-2.72-2.93-.07-.34-.11-.69-.11-1.06 0-2.21 1.34-4 3-4z" fill="#a0d468"/></g><g><path d="m31.83 39.99-3.06 3.07c-.6.6-1.42.94-2.27.94s-1.67-.34-2.27-.94l-2.23-2.23-1.41-1.42c-.38-.37-.59-.88-.59-1.41s.21-1.04.59-1.41c.15-.15.32-.28.51-.36l.25-.11c.21-.08.43-.12.65-.12.53 0 1.04.21 1.41.59l3.09 3.08 2.61-2.61c.33 1.63 1.41 2.84 2.72 2.93z" fill="#f0d0b4"/></g><g><path d="m31.84 31.52-5.84 2.56v-3.08l.02-.07c-.2-.05-.39-.11-.57-.21-.89-.44-1.45-1.35-1.45-2.34v-1.38l-3-1c0-3 1-7 1-7h2 5l1 3h.53c1.36 0 2.47 1.11 2.47 2.47 0 .94-.53 1.79-1.37 2.21l-.63.32v2z" fill="#f0d0b4"/></g><g><path d="m49.52 24.56c1.52 4.49-.71 9.44-5.32 11.44l-2.78-5.81c.24-.11.48-.21.73-.32 3.53-1.63 6.31-3.69 7.37-5.31z" fill="#ff826e"/></g><g><path d="m36 18.85c4.42-1.92 9.54-.48 12.2 3.18-1.88-.17-5.01.57-8.35 2.1-.37.17-.72.35-1.07.53z" fill="#ff826e"/></g><g><path d="m49.11 23.52c.16.34.3.69.41 1.04-1.06 1.62-3.84 3.68-7.37 5.31-.25.11-.49.21-.73.32l-1.13-2.37-1.51-3.16c.35-.18.7-.36 1.07-.53 3.34-1.53 6.47-2.27 8.35-2.1.36.46.66.96.91 1.49z" fill="#ffeaa7"/></g></g><g><path d="m1 1v62h62v-62zm56.586 4h-51.172l-2-2h55.172zm-30.586 27h1v-2h-1.382c-.25 0-.5-.059-.724-.171-.551-.276-.894-.83-.894-1.447v-2.103l-2.982-.994c.094-1.939.53-4.151.778-5.285h5.483l1 3h1.249c.811 0 1.472.661 1.472 1.472 0 .562-.312 1.066-.814 1.317l-1.186.593v2.78l.603 1.81-3.603 1.58zm-5-16c0-1.103.897-2 2-2h5c2.718 0 5.015 1.817 5.751 4.299l-.1.043.233.488c.075.38.116.77.116 1.17v9.045l-2.557 1.121-.443-1.328v-1.22l.08-.04c1.184-.591 1.92-1.781 1.92-3.105 0-1.849-1.453-3.365-3.277-3.467l-1.002-3.006h-5.721c-1.103 0-2-.897-2-2zm16.94 11.318-1.94.85v-4.91zm9.548 2.916c-.703 1.877-2.043 3.419-3.824 4.42l-1.901-3.976c2.518-1.177 4.714-2.598 6.195-3.974.108 1.182-.041 2.382-.47 3.53zm-6.587-1.36-1.794-3.753c.055-.026.106-.053.161-.078 2.822-1.295 5.592-2.048 7.401-2.032.195.301.38.611.538.942.07.147.126.297.187.447-1.146 1.424-3.601 3.124-6.493 4.474zm-2.467-5.648c-.065.03-.125.061-.189.091l-1.87-3.912c3.055-.932 6.336-.204 8.642 1.739-1.911.282-4.22.997-6.583 2.082zm-18.141 15.481c-.191-.191-.293-.436-.293-.707s.102-.516.293-.707c.076-.075.167-.124.259-.169l.131-.057c.349-.114.752-.045 1.024.227l3.793 3.793 2.227-2.227c.347.618.808 1.12 1.338 1.49l-2.005 2.005c-.833.834-2.286.834-3.12 0zm10.707.293c-1.084 0-2-1.374-2-3s.916-3 2-3 2 1.374 2 3-.916 3-2 3zm-3.714-4.828c-.18.567-.286 1.181-.286 1.828 0 .24.03.47.057.701l-1.557 1.557-2.297-2.297zm-4.761 9.596c.795.795 1.851 1.232 2.975 1.232s2.18-.438 2.974-1.232l1.658-1.658c.499 4.288 2.492 8.317 5.655 11.286 1.153 1.083 1.865 2.314 2.11 3.604h-23.79c.302-1.57 1.298-3.06 2.9-4.272 2.894-2.19 4.687-5.708 4.941-9.537zm17.4 13.232c-.251-1.846-1.191-3.58-2.768-5.063-3.081-2.892-4.904-6.913-5.114-11.131 1.697-.577 2.957-2.502 2.957-4.806 0-1.855-.822-3.459-2.025-4.322l5.829-2.555 3.909 8.177.884-.383c2.713-1.176 4.761-3.301 5.765-5.983.963-2.573.838-5.358-.35-7.844-2.338-4.89-8.178-7.228-13.398-5.54-1.038-3.215-4.057-5.55-7.614-5.55h-5c-2.206 0-4 1.794-4 4 0 1.033.404 1.967 1.05 2.678l-.02.08c-.042.168-1.03 4.155-1.03 7.242v.721l3 1v.661c0 1.38.767 2.62 2 3.236v1.81l-4.133 1.812c-.007.003-.014.007-.022.009l-.247.108.006.015c-.262.133-.512.293-.726.507-.566.566-.878 1.32-.878 2.121s.312 1.555.879 2.121l1.121 1.121v1.023c0 3.563-1.57 6.877-4.2 8.867-.753.57-1.388 1.2-1.926 1.867h-3.874v-5h-2v7h4.645c-.282.647-.48 1.316-.574 2h-6.071v-49.999h50v50zm-35.925-50.586v51.172l-2 2v-55.172zm1.414 52.586h51.172l2 2h-55.172zm52.586-1.414v-51.172l2-2v55.172z"/><path d="m9 16h2v-5h5v-2h-7z"/><path d="m48 11h5v5h2v-7h-7z"/><path d="m53 53h-5v2h7v-7h-2z"/></g></g></svg>