<svg id="_x33_0" enable-background="new 0 0 64 64" height="512" viewBox="0 0 64 64" width="512" xmlns="http://www.w3.org/2000/svg"><g><g><g><path d="m24 44v16c0 1.1-.9 2-2 2h-4c-1.1 0-2-.9-2-2v-16z" fill="#cf9e76"/></g><g><path d="m24 40v4h-8v-4c0-.85.27-1.65.73-2.3 1.06.2 2.15.3 3.27.3s2.21-.1 3.27-.29c.46.65.73 1.44.73 2.29z" fill="#ccd1d9"/></g><g><path d="m36.98 14h-4.33c-2.24-4.73-7.07-8-12.65-8-7.73 0-14 6.27-14 14s6.27 14 14 14c5.58 0 10.41-3.27 12.65-8h4.33c-.79 2.24-2.01 4.27-3.56 6h-.42c-.55 0-1 .45-1 1v.42c-2.41 2.16-5.41 3.68-8.73 4.28v.01c-1.06.19-2.15.29-3.27.29s-2.21-.1-3.27-.3c-8.38-1.53-14.73-8.88-14.73-17.7 0-9.94 8.06-18 18-18 7.84 0 14.5 5.01 16.98 12z" fill="#fcd770"/></g><g><path d="m32.65 14h-7.65c-.55 0-1 .45-1 1v10c0 .55.45 1 1 1h7.65c-2.24 4.73-7.07 8-12.65 8-7.73 0-14-6.27-14-14s6.27-14 14-14c5.58 0 10.41 3.27 12.65 8z" fill="#69d6f4"/></g><g><path d="m57 50c-7.681-.179-20.582 0-28 0-.55 0-1 .45-1 1v10c0 .55.45 1 1 1h28c.55 0 1-.45 1-1v-10c0-.55-.45-1-1-1z" fill="#e6e9ed"/></g><g><path d="m61 32.079c-7.681-.179-20.582 0-28 0-.55 0-1 .45-1 1v10c0 .55.45 1 1 1h28c.55 0 1-.45 1-1v-10c0-.55-.45-1-1-1z" fill="#e6e9ed"/></g><g><path d="m61 14c-10.905-.006-25.863 0-36 0-.55 0-1 .45-1 1v10c0 .55.45 1 1 1h36c.55 0 1-.45 1-1v-10c0-.55-.45-1-1-1z" fill="#e6e9ed"/></g></g><g><path d="m61 27c1.103 0 2-.897 2-2v-10c0-1.103-.897-2-2-2h-23.347c-2.858-7.203-9.854-12-17.653-12-10.477 0-19 8.523-19 19 0 8.843 6.082 16.273 14.276 18.381-.177.517-.276 1.061-.276 1.619v20c0 1.654 1.346 3 3 3h4c1.654 0 3-1.346 3-3v-20c0-.555-.097-1.096-.273-1.611 2.246-.577 4.37-1.559 6.273-2.913v7.524c0 1.103.897 2 2 2h28c1.103 0 2-.897 2-2v-10c0-1.103-.897-2-2-2h-25.519c.884-1.24 1.602-2.581 2.164-4zm-36 0h5.948c-2.369 3.688-6.505 6-10.948 6-7.168 0-13-5.832-13-13s5.832-13 13-13c4.443 0 8.579 2.312 10.948 6h-5.948c-1.103 0-2 .897-2 2v10c0 1.103.897 2 2 2zm0-2v-10h12v10zm36.001 0h-22.001v-10h22zm-39.001 36h-4c-.551 0-1-.449-1-1v-15h6v15c0 .551-.449 1-1 1zm1-21v3h-6v-3c0-.426.095-.838.265-1.22.896.13 1.804.22 2.735.22.923 0 1.834-.086 2.736-.217.17.381.264.792.264 1.217zm10-7h14v10h-14zm28 10h-12v-10h12zm-28.063-11.994c-1.052.034-1.897.879-1.93 1.932-3.072 2.615-6.959 4.062-11.007 4.062-9.374 0-17-7.626-17-17s7.626-17 17-17c6.711 0 12.765 3.965 15.493 10h-2.234c-2.583-4.877-7.713-8-13.259-8-8.271 0-15 6.729-15 15s6.729 15 15 15c5.546 0 10.676-3.123 13.259-8h2.228c-.653 1.447-1.511 2.786-2.55 4.006z"/><path d="m57 19h2v2h-2z"/><path d="m53 19h2v2h-2z"/><path d="m49 19h2v2h-2z"/><path d="m45 19h2v2h-2z"/><path d="m41 19h2v2h-2z"/><path d="m34.293 16.293-5.293 5.293-1.293-1.293-1.414 1.414 2.707 2.707 6.707-6.707z"/><path d="m57 49h-28c-1.103 0-2 .897-2 2v10c0 1.103.897 2 2 2h28c1.103 0 2-.897 2-2v-10c0-1.103-.897-2-2-2zm-28 2h12v10h-12zm14 10v-10h14l.001 10z"/><path d="m53 55h2v2h-2z"/><path d="m49 55h2v2h-2z"/><path d="m45 55h2v2h-2z"/><path d="m35 37h2v2h-2z"/><path d="m39 37h2v2h-2z"/><path d="m43 37h2v2h-2z"/><path d="m38.293 52.293-5.293 5.293-1.293-1.293-1.414 1.414 2.707 2.707 6.707-6.707z"/><path d="m51.293 40.293 1.414 1.414 2.293-2.293 2.293 2.293 1.414-1.414-2.293-2.293 2.293-2.293-1.414-1.414-2.293 2.293-2.293-2.293-1.414 1.414 2.293 2.293z"/></g></g></svg>