<svg id="_x33_0" enable-background="new 0 0 64 64" height="512" viewBox="0 0 64 64" width="512" xmlns="http://www.w3.org/2000/svg"><g><g><g><path d="m62 18.9v10.2c0 1.05-.85 1.9-1.9 1.9-.06 0-.13 0-.2-.01l-7.97-.89-9.04-1c-.13-.02-.25-.05-.35-.11-.33-.17-.54-.51-.54-.89v-.1-8-.1c0-.51.38-.94.89-1l17.01-1.89c.07-.01.14-.01.2-.01 1.05 0 1.9.85 1.9 1.9z" fill="#aab2bd"/></g><g><path d="m42 20v8h-4.3-.01c-.16-.38-.4-.72-.69-1-.28-.29-.62-.53-1-.69v-.01-6.3z" fill="#ccd1d9"/></g><g><path d="m36 20v6.3.01c-.42-.2-.9-.31-1.4-.31h-.19c-.9 0-1.77.36-2.41 1l-1 1h-.42c-.2 0-.39.02-.58.07v-4.07-5c0-.55.45-1 1-1h4c.55 0 1 .45 1 1z" fill="#ccd1d9"/></g><g><path d="m31 62h-22c1.32-3.97 2-8.14 2-12.32v-3.68l5 2 9.05 3.62c.63.25 1.3.38 1.97.38.73 0 1.42-.18 2.02-.51.17 3.57.83 7.11 1.96 10.51z" fill="#fcd770"/></g><g><path d="m19.67 41.58-3.67 6.42-5-2-1.12-.45c-1.17-.47-2.14-1.27-2.82-2.27s-1.06-2.2-1.06-3.46c0-2.83 1.93-5.3 4.68-5.99l3.32-.83.82 1.23c.74 1.1 1.98 1.77 3.31 1.77.85 0 1.67-.28 2.33-.75.66-.48 1.18-1.16 1.45-1.97l.09-.28 6.12 3.92-1.9 6.35c-.13.41-.2.84-.21 1.27z" fill="#fcd770"/></g><g><path d="m11.06 4.35.96.32c-.01.11-.02.22-.02.33 0 .46.1.9.29 1.29-.39-.19-.83-.29-1.29-.29-1.66 0-3 1.34-3 3 0 1.35.88 2.48 2.1 2.87-1.33 2.03-2.1 4.46-2.1 7.07v2.72c0 1.53-.45 3.02-1.3 4.28v.01c-.46.68-.7 1.49-.7 2.32 0 1.11.44 2.17 1.23 2.96l.77.77h-4l-.77-.77c-.79-.79-1.23-1.85-1.23-2.96 0-.83.24-1.64.7-2.32l.28-.42c.67-1 1.02-2.17 1.02-3.36 0-.77-.15-1.54-.43-2.25l-.28-.7c-.85-2.13-1.29-4.4-1.29-6.69v-1.65c0-3.8 3.08-6.88 6.88-6.88.74 0 1.48.12 2.18.35z" fill="#b27946"/></g><g><path d="m28.83 7.17c.72.73 1.17 1.73 1.17 2.83s-.45 2.1-1.17 2.83l-1.47.93c-.42.16-.88.24-1.36.24h-6-.76c-2.45 0-4.53 1.77-4.94 4.18l-.3 1.82c-.55 0-1.05.22-1.41.59-.37.36-.59.86-.59 1.41 0 .64.25 1.25.71 1.71l1.29 1.29v5l-1.34-1.12c-1.48-1.23-2.64-2.76-3.44-4.45-.79-1.7-1.22-3.57-1.22-5.49 0-2.61.77-5.04 2.1-7.07 1.05-1.61 2.45-2.97 4.1-3.98 1.05-.64 2.21-1.14 3.44-1.46 1.06-.28 2.16-.43 3.3-.43h5.06c1.1 0 2.1.45 2.83 1.17z" fill="#b27946"/></g><g><path d="m18 5c0 .52-.13 1-.36 1.42v.01c-1.23.32-2.39.82-3.44 1.46-.84-.23-1.54-.82-1.91-1.6-.19-.39-.29-.83-.29-1.29 0-.11.01-.22.02-.33.16-1.5 1.43-2.67 2.98-2.67 1.66 0 3 1.34 3 3z" fill="#b4dd7f"/></g><g><path d="m12.29 6.29c.37.78 1.07 1.37 1.91 1.6-1.65 1.01-3.05 2.37-4.1 3.98-1.22-.39-2.1-1.52-2.1-2.87 0-1.66 1.34-3 3-3 .46 0 .9.1 1.29.29z" fill="#b4dd7f"/></g><g><path d="m40.01 44.54c.01-.43.08-.86.21-1.27l2.78-9.27-.87-2.6c-.09-.27-.13-.54-.13-.82 0-.6.2-1.15.54-1.58v-.01c.1.06.22.09.35.11l9.04 1c-.04.16-.08.31-.13.46l-6.78 18.64c-.3.84-.86 1.54-1.56 2.03s-1.54.77-2.44.77c-.67 0-1.34-.13-1.97-.38l-7.78-3.11 2.83-7.77z" fill="#f0d0b4"/></g><g><path d="m34.6 26c.5 0 .98.11 1.4.31.38.16.72.4 1 .69.29.28.53.62.69 1 .2.42.31.9.31 1.4 0 .4-.07.79-.2 1.16l-3.7 10.18-2.83 7.77-.25.69c-.3.84-.86 1.54-1.56 2.03-.13.09-.27.18-.42.26-.6.33-1.29.51-2.02.51-.67 0-1.34-.13-1.97-.38l-9.05-3.62 3.67-6.42 6.34 2.96c.01-.43.08-.86.21-1.27l1.9-6.35.88-2.92-.87-2.6c-.09-.27-.13-.54-.13-.82 0-1.22.86-2.25 2-2.51.19-.05.38-.07.58-.07h.42l1-1c.64-.64 1.51-1 2.41-1z" fill="#f0d0b4"/></g><g><path d="m27.36 13.76c.79 1.78 2.64 6.32 2.64 10.24l-2 1c0 .71-.15 1.39-.42 2-.77 1.76-2.53 3-4.58 3h-1v3l-.09.28c-.27.81-.79 1.49-1.45 1.97-.66.47-1.48.75-2.33.75-1.33 0-2.57-.67-3.31-1.77l-.82-1.23v-3-5l-1.29-1.29c-.46-.46-.71-1.07-.71-1.71 0-.55.22-1.05.59-1.41.36-.37.86-.59 1.41-.59l.3-1.82c.41-2.41 2.49-4.18 4.94-4.18h.76 6c.48 0 .94-.08 1.36-.24z" fill="#f0d0b4"/></g></g><g><path d="m22.445 18.832 1.752 1.168-1.752 1.168 1.11 1.664 4.248-2.832-4.248-2.832z"/><path d="m59.784 16.018-17.004 1.89c-.694.076-1.265.505-1.561 1.093h-4.219c0-1.103-.897-2-2-2h-4c-.447 0-.856.153-1.189.401-.392-1.239-.816-2.34-1.165-3.176 1.408-.886 2.354-2.443 2.354-4.226 0-2.757-2.243-5-5-5h-5.061c-.663 0-1.31.063-1.949.153.002-.051.01-.102.01-.153 0-2.206-1.794-4-4-4-1.635 0-3.039.988-3.659 2.396-.794-.26-1.62-.396-2.458-.396-4.347 0-7.883 3.536-7.883 7.883v1.65c0 2.429.458 4.803 1.359 7.057l.279.698c.24.601.362 1.233.362 1.878 0 1.002-.293 1.972-.85 2.805l-.28.421c-.569.853-.87 1.847-.87 2.875 0 1.385.539 2.687 1.519 3.666l.774.774 1.414-1.414-.774-.774c-.601-.602-.933-1.402-.933-2.252 0-.631.185-1.241.535-1.766l.28-.421c.775-1.162 1.185-2.516 1.185-3.914 0-.901-.17-1.782-.504-2.62l-.28-.698c-.807-2.018-1.216-4.142-1.216-6.315v-1.65c0-3.244 2.639-5.883 5.883-5.883.392 0 .778.052 1.159.129-1.742.432-3.042 1.997-3.042 3.871 0 1.337.652 2.541 1.701 3.274-1.083 1.981-1.701 4.252-1.701 6.665v2.723c0 1.331-.391 2.621-1.129 3.729-.57.854-.871 1.848-.871 2.876 0 1.385.539 2.687 1.519 3.666l.774.774 1.414-1.414-.774-.774c-.601-.602-.933-1.402-.933-2.252 0-.631.185-1.241.536-1.767.333-.499.59-1.034.811-1.582.855 1.8 2.094 3.418 3.669 4.731l.984.82v1.751l-2.566.642c-3.2.798-5.434 3.66-5.434 6.958 0 2.95 1.77 5.565 4.509 6.661l.491.197v2.998c0 4.089-.656 8.129-1.949 12.008l-.439 1.316h24.775l-.439-1.316c-1.044-3.132-1.66-6.387-1.862-9.681.761-.548 1.367-1.302 1.749-2.191l6.844 2.737c.749.299 1.537.451 2.342.451 2.201 0 4.184-1.39 4.937-3.457l6.675-18.355 7.152.795c.106.011.213.017.32.017 1.596 0 2.895-1.299 2.895-2.896v-10.208c0-1.705-1.514-3.062-3.216-2.878zm-16.784 3.878 14-1.556v11.32l-14-1.556zm-3.711 22.994-3.984-2.552 3.43-9.433c.176-.485.265-.991.265-1.505 0-.137-.028-.266-.04-.4h2.26c.028.055.052.112.084.164-.193.444-.304.919-.304 1.417 0 .384.062.765.184 1.133l.768 2.302zm1.711-21.89v6h-2.721c-.334-.51-.769-.945-1.279-1.279v-4.721zm-10-2h4v6.041c-.134-.013-.264-.041-.401-.041h-.19c-1.175 0-2.281.458-3.112 1.289l-.297.297v-1.968-.618zm-8 12c1.698 0 3.216-.724 4.309-1.861-.196.442-.309.928-.309 1.442 0 .384.062.765.184 1.133l.768 2.302-.405 1.35-4.547-2.913zm5.241-3.107c.38-.685.64-1.443.726-2.258l.033-.017v1.766c-.276.137-.529.308-.759.509zm.744-4.503-1.985.992v.618c0 .347-.058.678-.142 1h-1.622c-.998 0-1.895-.555-2.341-1.447l-1.789.895c.788 1.574 2.37 2.553 4.13 2.553h.382c-.703.615-1.612 1-2.618 1h-4v2h2v1.837l-.042.124c-.406 1.219-1.542 2.038-2.828 2.038-.999 0-1.926-.496-2.48-1.327l-.65-.976v-8.111l-1.585-1.586c-.268-.268-.415-.622-.415-1 0-.552.449-1 1-1h.847l.443-2.658c.323-1.937 1.982-3.342 3.946-3.342h6.764.001.003c.262 0 .514-.039.765-.078.804 1.909 2.063 5.347 2.216 8.468zm-13.985-20.39c1.103 0 2 .897 2 2 0 .207-.043.408-.104.603-.966.293-1.885.691-2.75 1.176-.681-.328-1.146-1.003-1.146-1.779 0-1.103.897-2 2-2zm-6 6c0-1.103.897-2 2-2 .215 0 .42.045.618.11.202.324.446.619.731.874-.961.755-1.816 1.634-2.55 2.612-.492-.37-.799-.951-.799-1.596zm0 9.939c0-6.583 5.356-11.939 11.939-11.939h5.061c1.654 0 3 1.346 3 3 0 1.652-1.346 2.999-3 3-.267 0-.518-.104-.707-.293-.189-.188-.293-.439-.293-.707 0-.552.449-1 1-1h1v-2h-1c-1.654 0-3 1.346-3 3 0 .347.069.682.182 1h-3.182c-.551 0-1-.448-1-1s.449-1 1-1h1v-2h-1c-1.654 0-3 1.346-3 3 0 .478.122.923.322 1.324-2.054.688-3.63 2.445-4.004 4.689l-.186 1.114c-1.233.374-2.132 1.52-2.132 2.873 0 .911.355 1.769 1 2.414l1 1v2.422c-2.54-2.265-4-5.478-4-8.897zm-2 20.881c0-2.379 1.611-4.442 3.919-5.02l2.64-.66.428.641c.925 1.39 2.474 2.219 4.143 2.219 1.818 0 3.449-.987 4.321-2.523l4.497 2.881-1.686 5.621c-.01.032-.013.065-.022.097l-12.818-5.982-.846 1.813 6.685 3.12-2.698 4.722-5.311-2.124c-1.976-.791-3.252-2.677-3.252-4.805zm22.638 21.18h-19.276c1.088-3.678 1.638-7.48 1.638-11.324v-2.198l12.68 5.071c.748.299 1.536.451 2.341.451.384 0 .758-.057 1.123-.138.222 2.757.71 5.485 1.494 8.138zm.44-12.141c-.465 1.281-1.694 2.141-3.057 2.141-.55 0-1.087-.104-1.599-.309l-7.984-3.193 2.642-4.623 4.944 2.307c.056.821.265 1.633.633 2.369l.448.896 1.789-.895-.448-.896c-.292-.584-.446-1.237-.446-1.889 0-.411.06-.819.178-1.214l2.871-9.568-.967-2.901c-.055-.164-.082-.333-.082-.503 0-.872.709-1.581 1.581-1.581h.833l1.297-1.297c.447-.447 1.066-.703 1.698-.703h.19c1.324 0 2.401 1.077 2.401 2.4 0 .28-.049.558-.145.821zm14 0c-.465 1.281-1.694 2.141-3.057 2.141-.55 0-1.087-.104-1.599-.309l-6.882-2.752 2.064-5.675 4.414 2.828c.045.852.257 1.696.638 2.459l.448.896 1.789-.895-.448-.896c-.291-.584-.445-1.237-.445-1.889 0-.411.06-.819.178-1.214l2.871-9.568-.967-2.901c-.055-.164-.082-.333-.082-.503 0-.158.031-.309.075-.455l7.512.835zm16.922-19.755c0 .49-.396.89-.982.89-.004 0-.008 0-.012 0l-1.006-.112v-11.764l1.006-.112.099-.006c.494 0 .895.401.895.896z"/><path d="m41.293 13.707 1.414-1.414c-1.101-1.101-1.707-2.564-1.707-4.121v-1.172h-1.171c-1.557 0-3.021-.606-4.122-1.707l-1.414 1.414c1.292 1.291 2.954 2.075 4.746 2.254.178 1.793.963 3.456 2.254 4.746z"/><path d="m45.293 9.707 1.414-1.414c-1.101-1.101-1.707-2.564-1.707-4.121v-1.172h-1.171c-1.557 0-3.021-.606-4.122-1.707l-1.414 1.414c1.292 1.291 2.954 2.075 4.746 2.254.178 1.793.963 3.456 2.254 4.746z"/></g></g></svg>