<svg id="Layer_5" enable-background="new 0 0 64 64" height="512" viewBox="0 0 64 64" width="512" xmlns="http://www.w3.org/2000/svg"><g><g><g><circle cx="52" cy="52" fill="#e6e9ed" r="10"/></g><g><circle cx="11.825" cy="52" fill="#e6e9ed" r="10"/></g><g><circle cx="52" cy="12" fill="#e6e9ed" r="10"/></g><g><circle cx="11.825" cy="12" fill="#e6e9ed" r="10"/></g><g><path d="m59.33 58.79c-1.82 1.98-4.43 3.21-7.33 3.21s-5.51-1.23-7.33-3.21c1.24-2.82 4.05-4.79 7.33-4.79s6.09 1.97 7.33 4.79z" fill="#fcd770"/></g><g><path d="m59.33 18.79c-1.82 1.98-4.43 3.21-7.33 3.21s-5.51-1.23-7.33-3.21c1.24-2.82 4.05-4.79 7.33-4.79s6.09 1.97 7.33 4.79z" fill="#b4dd7f"/></g><g><path d="m19.33 18.79c-1.82 1.98-4.43 3.21-7.33 3.21s-5.51-1.23-7.33-3.21c1.24-2.82 4.05-4.79 7.33-4.79s6.09 1.97 7.33 4.79z" fill="#fcd770"/></g><g><path d="m19.33 58.79c-1.82 1.98-4.43 3.21-7.33 3.21s-5.51-1.23-7.33-3.21c1.24-2.82 4.05-4.79 7.33-4.79s6.09 1.97 7.33 4.79z" fill="#b4dd7f"/></g><g><circle cx="52" cy="50" fill="#f0d0b4" r="4"/></g><g><circle cx="52" cy="10" fill="#f0d0b4" r="4"/></g><g><circle cx="12" cy="10" fill="#f0d0b4" r="4"/></g><g><circle cx="12" cy="50" fill="#f0d0b4" r="4"/></g><g><path d="m47 25.69c0 .21-.02.41-.05.61l-.62 3.7-.82 4.91c-.29 1.78-1.83 3.09-3.64 3.09h-5.87v2.46c0 .85-.69 1.54-1.54 1.54-.3 0-.59-.09-.85-.26l-5.61-3.74h-5.87c-1.81 0-3.35-1.31-3.64-3.09l-.82-4.91-.62-3.7c-.03-.2-.05-.4-.05-.61 0-1.02.41-1.94 1.08-2.61s1.59-1.08 2.61-1.08h22.62c2.04 0 3.69 1.65 3.69 3.69z" fill="#ffeaa7"/></g><g><circle cx="40" cy="30" fill="#ef7385" r="2"/></g><g><circle cx="32" cy="30" fill="#ef7385" r="2"/></g><g><circle cx="24" cy="30" fill="#ef7385" r="2"/></g></g><g><path d="m12 23c6.065 0 11-4.935 11-11s-4.935-11-11-11-11 4.935-11 11 4.935 11 11 11zm-6.097-4.399c1.228-2.201 3.546-3.601 6.097-3.601s4.869 1.4 6.097 3.601c-1.606 1.484-3.744 2.399-6.097 2.399s-4.491-.915-6.097-2.399zm3.097-8.601c0-1.654 1.346-3 3-3s3 1.346 3 3-1.346 3-3 3-3-1.346-3-3zm3-7c4.963 0 9 4.038 9 9 0 1.854-.564 3.579-1.529 5.012-1.011-1.514-2.447-2.664-4.109-3.337 1-.914 1.638-2.217 1.638-3.675 0-2.757-2.243-5-5-5s-5 2.243-5 5c0 1.458.638 2.761 1.638 3.676-1.661.672-3.098 1.823-4.109 3.337-.965-1.434-1.529-3.159-1.529-5.013 0-4.962 4.037-9 9-9z"/><path d="m52 23c6.065 0 11-4.935 11-11s-4.935-11-11-11-11 4.935-11 11 4.935 11 11 11zm-6.097-4.399c1.228-2.201 3.546-3.601 6.097-3.601s4.869 1.4 6.097 3.601c-1.606 1.484-3.744 2.399-6.097 2.399s-4.491-.915-6.097-2.399zm3.097-8.601c0-1.654 1.346-3 3-3s3 1.346 3 3-1.346 3-3 3-3-1.346-3-3zm3-7c4.963 0 9 4.038 9 9 0 1.854-.564 3.579-1.529 5.012-1.011-1.514-2.447-2.664-4.109-3.337 1-.914 1.638-2.217 1.638-3.675 0-2.757-2.243-5-5-5s-5 2.243-5 5c0 1.458.638 2.761 1.638 3.676-1.661.672-3.098 1.823-4.109 3.337-.965-1.434-1.529-3.159-1.529-5.013 0-4.962 4.037-9 9-9z"/><path d="m12 41c-6.065 0-11 4.935-11 11s4.935 11 11 11 11-4.935 11-11-4.935-11-11-11zm-6.097 17.602c1.228-2.202 3.546-3.602 6.097-3.602s4.869 1.4 6.097 3.602c-1.606 1.483-3.744 2.398-6.097 2.398s-4.491-.915-6.097-2.398zm3.097-8.602c0-1.654 1.346-3 3-3s3 1.346 3 3-1.346 3-3 3-3-1.346-3-3zm10.471 7.013c-1.011-1.514-2.447-2.665-4.109-3.337 1-.915 1.638-2.218 1.638-3.676 0-2.757-2.243-5-5-5s-5 2.243-5 5c0 1.458.638 2.761 1.638 3.676-1.661.672-3.098 1.823-4.109 3.337-.965-1.434-1.529-3.159-1.529-5.013 0-4.963 4.037-9 9-9s9 4.037 9 9c0 1.854-.564 3.579-1.529 5.013z"/><path d="m52 41c-6.065 0-11 4.935-11 11s4.935 11 11 11 11-4.935 11-11-4.935-11-11-11zm-6.097 17.602c1.228-2.202 3.546-3.602 6.097-3.602s4.869 1.4 6.097 3.602c-1.606 1.483-3.744 2.398-6.097 2.398s-4.491-.915-6.097-2.398zm3.097-8.602c0-1.654 1.346-3 3-3s3 1.346 3 3-1.346 3-3 3-3-1.346-3-3zm10.471 7.013c-1.011-1.514-2.447-2.665-4.109-3.337 1-.915 1.638-2.218 1.638-3.676 0-2.757-2.243-5-5-5s-5 2.243-5 5c0 1.458.638 2.761 1.638 3.676-1.661.672-3.098 1.823-4.109 3.337-.965-1.434-1.529-3.159-1.529-5.013 0-4.963 4.037-9 9-9s9 4.037 9 9c0 1.854-.564 3.579-1.529 5.013z"/><path d="m46.501 35.077.013-.077h4.486v4h2v-6h-6.153l.333-2h5.82v-6h-2v4h-3.486l.423-2.535c.042-.255.063-.512.063-.771 0-2.588-2.105-4.694-4.694-4.694h-22.612c-2.589 0-4.694 2.106-4.694 4.694 0 .258.021.516.063.772l.423 2.534h-3.486v-4h-2v6h5.819l.333 2h-6.152v6h2v-4h4.486l.013.077c.379 2.274 2.326 3.923 4.631 3.923h5.567l5.361 3.574c.419.279.905.426 1.407.426 1.397 0 2.535-1.138 2.535-2.535v-1.465h4.87c2.305 0 4.252-1.649 4.631-3.923zm-11.501 1.923v3.465c0 .401-.501.666-.832.445l-5.865-3.91h-6.173c-1.323 0-2.44-.947-2.658-2.251l-1.436-8.61c-.024-.147-.036-.296-.036-.445 0-1.486 1.209-2.694 2.694-2.694h22.611c1.486 0 2.695 1.208 2.695 2.694 0 .149-.012.297-.036.443l-1.436 8.612c-.217 1.304-1.335 2.251-2.658 2.251z"/><path d="m24 27c-1.654 0-3 1.346-3 3s1.346 3 3 3 3-1.346 3-3-1.346-3-3-3zm0 4c-.552 0-1-.449-1-1s.448-1 1-1 1 .449 1 1-.448 1-1 1z"/><path d="m32 27c-1.654 0-3 1.346-3 3s1.346 3 3 3 3-1.346 3-3-1.346-3-3-3zm0 4c-.552 0-1-.449-1-1s.448-1 1-1 1 .449 1 1-.448 1-1 1z"/><path d="m43 30c0-1.654-1.346-3-3-3s-3 1.346-3 3 1.346 3 3 3 3-1.346 3-3zm-3 1c-.552 0-1-.449-1-1s.448-1 1-1 1 .449 1 1-.448 1-1 1z"/></g></g></svg>