<svg id="Layer_5" enable-background="new 0 0 64 64" height="512" viewBox="0 0 64 64" width="512" xmlns="http://www.w3.org/2000/svg"><g><g><g><path d="m58 26h4v12h-4z" fill="#aab2bd"/></g><g><path d="m62 50v8c0 2.21-1.79 4-4 4h-46c-2.21 0-4-1.79-4-4v-24h2.55c.7 1.19 1.97 2 3.45 2 2.52 0 4.5-2.33 3.89-4.96-.33-1.42-1.47-2.57-2.89-2.92-1.89-.46-3.6.43-4.45 1.88h-2.55v-24c0-2.21 1.79-4 4-4h46c2.21 0 4 1.79 4 4v8h-4v-7c0-.55-.45-1-1-1h-44c-.55 0-1 .45-1 1v13 4h8c1.1 0 2 .9 2 2v12c0 1.1-.9 2-2 2h-8v4 13c0 .55.45 1 1 1h44c.55 0 1-.45 1-1v-7z" fill="#aab2bd"/></g><g><path d="m58 50v7c0 .55-.45 1-1 1h-44c-.55 0-1-.45-1-1v-13h32c1.1 0 2-.9 2-2v-20c0-1.1-.9-2-2-2h-32v-13c0-.55.45-1 1-1h44c.55 0 1 .45 1 1v7h-2v4h-4v4h4v4h2v12h-2v4h-4v4h4v4z" fill="#ccd1d9"/></g><g><path d="m62 14v12h-6v-4-8h2z" fill="#cf9e76"/></g><g><path d="m62 38v12h-6v-4-8h2z" fill="#cf9e76"/></g><g><path d="m56 44v2h-4v-4h4z" fill="#d3a06c"/></g><g><path d="m56 20v2h-4v-4h4z" fill="#d3a06c"/></g><g><path d="m17.89 31.04c.61 2.63-1.37 4.96-3.89 4.96-1.48 0-2.75-.81-3.45-2h-2.55-3c-.83 0-1.58-.34-2.12-.88s-.88-1.29-.88-2.12c0-.55.45-1 1-1h5 2.55c.85-1.45 2.56-2.34 4.45-1.88 1.42.35 2.56 1.5 2.89 2.92z" fill="#fcd770"/></g><g><path d="m46 22v20c0 1.1-.9 2-2 2h-32v-4h8c1.1 0 2-.9 2-2v-12c0-1.1-.9-2-2-2h-8v-4h32c1.1 0 2 .9 2 2z" fill="#e6e9ed"/></g><g><circle cx="34" cy="32" fill="#ffc729" r="8"/></g><g><path d="m37.99 31.86v.14c.01 1.1-.44 2.1-1.17 2.83-.69.69-1.63 1.13-2.68 1.17-.05 0-.1 0-.15 0-1.1 0-2.1-.45-2.83-1.18-.68-.69-1.12-1.63-1.16-2.68 0-.05 0-.09 0-.14-.01-1.1.44-2.1 1.17-2.83.69-.69 1.63-1.13 2.68-1.17h.15c1.1 0 2.1.45 2.83 1.18.68.69 1.12 1.63 1.16 2.68z" fill="#fcd770"/></g></g><g><path d="m33.991 40.995c.106 0 .213-.002.32-.006 4.957-.174 8.848-4.349 8.673-9.306-.174-4.957-4.331-8.812-9.306-8.673-4.957.175-8.848 4.35-8.673 9.306.171 4.85 4.171 8.679 8.986 8.679zm-4.883-8c.126.628.372 1.216.724 1.748l-1.441 1.441c-.683-.914-1.15-2.001-1.319-3.188h2.036zm9.774-1.99c-.126-.628-.372-1.216-.723-1.748l1.436-1.436c.684.913 1.153 1.997 1.323 3.183h-2.036zm-7.081-1.05c.546-.586 1.288-.925 2.089-.953.036-.002.072-.002.108-.002.761 0 1.482.284 2.043.805.586.546.924 1.288.952 2.089s-.257 1.564-.804 2.151c-.546.586-1.288.924-2.089.952-.776.019-1.564-.257-2.151-.804-.586-.546-.924-1.288-.952-2.089-.028-.799.257-1.563.804-2.149zm-.561 6.207c.534.355 1.125.605 1.75.732v2.025c-1.182-.169-2.271-.633-3.187-1.32zm3.75.725c.628-.126 1.216-.372 1.748-.724l1.437 1.437c-.913.684-1.999 1.152-3.185 1.322zm1.758-9.047c-.532-.353-1.121-.593-1.748-.721v-2.034c1.178.171 2.264.635 3.18 1.322zm-3.748-.728c-.628.126-1.217.373-1.748.724l-1.437-1.437c.913-.684 1.999-1.152 3.185-1.321zm6.59 9.076-1.435-1.435c.354-.533.597-1.124.724-1.748h2.034c-.171 1.178-.635 2.266-1.323 3.183zm-11.19-8.376 1.435 1.435c-.354.533-.597 1.124-.724 1.748h-2.034c.172-1.178.635-2.266 1.323-3.183z"/><circle cx="33.995" cy="32" r="1"/><path d="m58 1h-46c-2.757 0-5 2.243-5 5v23h-4c-1.103 0-2 .897-2 2 0 2.206 1.794 4 4 4h2v23c0 2.757 2.243 5 5 5h46c2.757 0 5-2.243 5-5v-52c0-2.757-2.243-5-5-5zm-55 30h8.13l.289-.497c.688-1.185 2.002-1.739 3.348-1.409 1.042.255 1.905 1.128 2.148 2.173.219.941.019 1.864-.563 2.596-.575.723-1.431 1.137-2.352 1.137-1.068 0-2.033-.562-2.581-1.503l-.289-.497h-6.13c-1.103 0-2-.897-2-2zm55 30h-46c-1.654 0-3-1.346-3-3v-23h1.021c.939 1.246 2.416 2 3.979 2 1.534 0 2.962-.689 3.917-1.893.956-1.203 1.301-2.768.945-4.293-.416-1.789-1.837-3.226-3.621-3.662-1.996-.489-4.023.249-5.222 1.848h-1.019v-23c0-1.654 1.346-3 3-3h46c1.654 0 3 1.346 3 3v7h-2v-6c0-1.103-.897-2-2-2h-44c-1.103 0-2 .897-2 2v18h9c.552 0 1 .449 1 1v12c0 .552-.448 1-1 1h-9v18c0 1.103.897 2 2 2h44c1.103 0 2-.897 2-2v-6h2v7c0 1.654-1.346 3-3 3zm-38-38h-7v-2h31c.552 0 1 .449 1 1v20c0 .552-.448 1-1 1h-31v-2h7c1.654 0 3-1.346 3-3v-12c0-1.654-1.346-3-3-3zm-7 22h31c1.654 0 3-1.346 3-3v-20c0-1.654-1.346-3-3-3h-31v-12h44v6h-2v4h-4v6h4v4h2v10h-2v4h-4v6h4v4h2v6h-44zm42-24h-2v-2h2zm0 24h-2v-2h2zm2 4v-4h4v4zm0-6v-4h4v4zm2-6v-10h2v10zm-2-12v-4h4v4zm0-6v-4h4v4z"/><circle cx="42" cy="24" r="1"/><circle cx="42" cy="40" r="1"/><circle cx="26" cy="24" r="1"/><circle cx="26" cy="40" r="1"/><path d="m19 9h2v2h-2z"/><path d="m23 9h2v2h-2z"/><path d="m27 9h2v2h-2z"/><path d="m15 9h2v2h-2z"/><path d="m53 53h2v2h-2z"/><path d="m45 53h2v2h-2z"/><path d="m49 53h2v2h-2z"/><path d="m41 53h2v2h-2z"/></g></g></svg>