<svg id="Layer_5" enable-background="new 0 0 64 64" height="512" viewBox="0 0 64 64" width="512" xmlns="http://www.w3.org/2000/svg"><g><g><g><path d="m4 10c-1.1 0-2 .9-2 2v40c0 1.1.9 2 2 2h38v-44z" fill="#f0d0b4"/></g><g><path d="m6 14h36v36h-36z" fill="#69d6f4"/></g><g><path d="m36 26v20h-3v-2c0-1.01-.38-1.93-1-2.64v-7.59-7.77z" fill="#ffeaa7"/></g><g><path d="m15 44v2h-3v-20h4v7.77 7.59c-.62.71-1 1.63-1 2.64z" fill="#ffeaa7"/></g><g><path d="m36.94 19.94c.68.68 1.06 1.6 1.06 2.56s-.38 1.88-1.06 2.56l-.94.94h-4l-.94-.94c-.68-.68-1.06-1.6-1.06-2.56s.38-1.88 1.06-2.56l1.23-1.23c.46-.46 1.07-.71 1.71-.71s1.25.25 1.71.71z" fill="#fcd770"/></g><g><path d="m16.94 19.94c.68.68 1.06 1.6 1.06 2.56s-.38 1.88-1.06 2.56l-.94.94h-4l-.94-.94c-.68-.68-1.06-1.6-1.06-2.56s.38-1.88 1.06-2.56l1.23-1.23c.46-.46 1.07-.71 1.71-.71s1.25.25 1.71.71z" fill="#fcd770"/></g><g><path d="m38 48v2h-28v-2c0-1.1.9-2 2-2h3 18 3c1.1 0 2 .9 2 2z" fill="#969faa"/></g><g><path d="m33 44v2h-18v-2c0-1.01.38-1.93 1-2.64.73-.83 1.8-1.36 3-1.36h1 8 1c1.2 0 2.27.53 3 1.36.62.71 1 1.63 1 2.64z" fill="#aab2bd"/></g><g><path d="m32 33.77c0 1.43-.57 2.8-1.58 3.81l-2.42 2.42h-8l-2.42-2.42c-1.01-1.01-1.58-2.38-1.58-3.81 0-1.74.84-3.37 2.25-4.38l3.94-2.81c.53-.38 1.16-.58 1.81-.58s1.28.2 1.81.58l3.94 2.81c1.41 1.01 2.25 2.64 2.25 4.38z" fill="#ccd1d9"/></g><g><path d="m42 18h20v44h-20z" fill="#e6e9ed"/></g><g><path d="m42 2h20v16h-20z" fill="#69d6f4"/></g><g><path d="m54 54h4v4h-4z" fill="#fcd770"/></g><g><path d="m46 54h4v4h-4z" fill="#fcd770"/></g><g><circle cx="54" cy="24" fill="#ff826e" r="2"/></g><g><circle cx="52" cy="32" fill="#ff826e" r="2"/></g><g><circle cx="56" cy="40" fill="#ff826e" r="2"/></g><g><circle cx="50" cy="48" fill="#ff826e" r="2"/></g></g><g><path d="m45 59h6v-6h-6zm2-4h2v2h-2z"/><path d="m53 59h6v-6h-6zm2-4h2v2h-2z"/><path d="m50 45c-1.302 0-2.402.839-2.816 2h-2.184v2h2.184c.414 1.161 1.514 2 2.816 2s2.402-.839 2.816-2h6.184v-2h-6.184c-.414-1.161-1.514-2-2.816-2zm0 4c-.552 0-1-.449-1-1s.448-1 1-1 1 .449 1 1-.448 1-1 1z"/><path d="m41 1v8h-37c-1.654 0-3 1.346-3 3v40c0 1.654 1.346 3 3 3h37v8h22v-62zm20 2v6h-3.465l-2.659-3.988-2.956 5.912-3-5-2.538 5.076h-3.382v-8zm-24.768 21.354-.646.646h-3.172l-.646-.646c-.496-.496-.768-1.154-.768-1.854s.272-1.358.768-1.854l1.232-1.231c.535-.535 1.465-.535 2 0l1.232 1.232c.496.495.768 1.153.768 1.853s-.272 1.358-.768 1.854zm-3.232 2.646h2v18h-1v-1c0-1.116-.38-2.136-1-2.969zm-16 11.414.761.761c-.261.067-.518.143-.761.25zm-1 5.586c0-1.654 1.346-3 3-3h.586 8.828.586c1.654 0 3 1.346 3 3v1h-16zm15-4.576c-.243-.107-.5-.182-.76-.249l.76-.76zm-1.284-2.554-2.13 2.13h-7.172l-2.13-2.131c-.828-.827-1.284-1.928-1.284-3.099 0-1.412.687-2.745 1.835-3.566l3.933-2.809c.725-.517 1.74-.517 2.465 0l3.933 2.808c1.147.822 1.834 2.155 1.834 3.567 0 1.171-.456 2.272-1.284 3.1zm-14.716 4.161c-.62.833-1 1.854-1 2.969v1h-1v-18h2zm1.232-16.677-.646.646h-3.172l-.646-.646c-.496-.496-.768-1.154-.768-1.854s.272-1.358.768-1.854l1.232-1.231c.535-.535 1.465-.535 2 0l1.232 1.232c.496.495.768 1.153.768 1.853s-.272 1.358-.768 1.854zm-4.232 22.646h24c.552 0 1 .449 1 1v1h-26v-1c0-.551.448-1 1-1zm25-1.816v-18.77l.646-.646c.874-.874 1.354-2.034 1.354-3.268s-.48-2.394-1.354-3.268l-1.232-1.232c-1.291-1.289-3.537-1.29-4.828 0l-1.232 1.232c-.874.874-1.354 2.034-1.354 3.268s.48 2.394 1.354 3.268l.646.646v2.724c-.211-.2-.433-.391-.673-.562l-3.933-2.809c-1.406-1.004-3.383-1.004-4.789 0l-3.933 2.809c-.24.171-.462.362-.673.562v-2.724l.646-.646c.875-.874 1.355-2.034 1.355-3.268s-.48-2.394-1.354-3.268l-1.232-1.232c-1.291-1.289-3.537-1.29-4.828 0l-1.232 1.232c-.874.874-1.354 2.034-1.354 3.268s.48 2.394 1.354 3.268l.646.646v18.77c-1.161.414-2 1.514-2 2.816v1h-2v-34h34v34h-2v-1c0-1.302-.839-2.402-2-2.816zm6-32.184h4.618l1.462-2.923 3 5 3.044-6.088 1.341 2.011h4.535v6h-18zm-39 40c-.552 0-1-.449-1-1v-40c0-.551.448-1 1-1h37v2h-36v38h36v2zm39 8v-42h18v42z"/><path d="m56 37c-1.302 0-2.402.839-2.816 2h-8.184v2h8.184c.414 1.161 1.514 2 2.816 2 1.654 0 3-1.346 3-3s-1.346-3-3-3zm0 4c-.552 0-1-.449-1-1s.448-1 1-1 1 .449 1 1-.448 1-1 1z"/><path d="m52 29c-1.302 0-2.402.839-2.816 2h-4.184v2h4.184c.414 1.161 1.514 2 2.816 2s2.402-.839 2.816-2h4.184v-2h-4.184c-.414-1.161-1.514-2-2.816-2zm0 4c-.552 0-1-.449-1-1s.448-1 1-1 1 .449 1 1-.448 1-1 1z"/><path d="m54 21c-1.302 0-2.402.839-2.816 2h-6.184v2h6.184c.414 1.161 1.514 2 2.816 2s2.402-.839 2.816-2h2.184v-2h-2.184c-.414-1.161-1.514-2-2.816-2zm0 4c-.552 0-1-.449-1-1s.448-1 1-1 1 .449 1 1-.448 1-1 1z"/></g></g></svg>