<svg id="Layer_5" enable-background="new 0 0 64 64" height="512" viewBox="0 0 64 64" width="512" xmlns="http://www.w3.org/2000/svg"><g><g><g><path d="m58 16v2h-8v-2c0-1.1.9-2 2-2h4c1.1 0 2 .9 2 2z" fill="#ccd1d9"/></g><g><path d="m16 14h-8c-1.1 0-2 .9-2 2v2h12v-2c0-1.1-.9-2-2-2z" fill="#ccd1d9"/></g><g><path d="m36 50h-22v-22c0-2.21 1.79-4 4-4h1.87.01c-1.2 2.41-1.88 5.12-1.88 8 0 9.94 8.06 18 18 18z" fill="#ccd1d9"/></g><g><path d="m52.13 24h9.87v22c0 2.21-1.79 4-4 4h-22c5.67 0 10.73-2.63 14.03-6.73.13 1.53 1.4 2.73 2.97 2.73 1.66 0 3-1.34 3-3s-1.34-3-3-3c-.34 0-.66.07-.97.18 1.26-2.45 1.97-5.23 1.97-8.18 0-2.88-.68-5.59-1.88-8z" fill="#ccd1d9"/></g><g><path d="m2 24h16c-2.21 0-4 1.79-4 4v22h-8c-2.21 0-4-1.79-4-4z" fill="#969faa"/></g><g><path d="m18 24h-16v-2c0-2.21 1.79-4 4-4h4 4 4 6.69c-2.01 1.62-3.66 3.66-4.81 6h-.01z" fill="#ff826e"/></g><g><path d="m50 18h8c2.21 0 4 1.79 4 4v2h-9.87-.01c-1.15-2.34-2.8-4.38-4.81-6z" fill="#ff826e"/></g><g><path d="m6 28h4v8h-4z" fill="#fcd770"/></g><g><circle cx="8" cy="44" fill="#fcd770" r="2"/></g><g><path d="m53 40c1.66 0 3 1.34 3 3s-1.34 3-3 3c-1.57 0-2.84-1.2-2.97-2.73.77-.95 1.44-1.99 2-3.09.31-.11.63-.18.97-.18z" fill="#aab2bd"/></g><g><path d="m52.03 40.18c-.56 1.1-1.23 2.14-2 3.09-3.3 4.1-8.36 6.73-14.03 6.73-9.94 0-18-8.06-18-18 0-2.88.68-5.59 1.88-8 1.15-2.34 2.8-4.38 4.81-6 3.09-2.5 7.03-4 11.31-4s8.22 1.5 11.31 4c2.01 1.62 3.66 3.66 4.81 6 1.2 2.41 1.88 5.12 1.88 8 0 2.95-.71 5.73-1.97 8.18z" fill="#69d6f4"/></g><g><path d="m36 18c7.73 0 14 6.27 14 14s-6.27 14-14 14-14-6.27-14-14 6.27-14 14-14z" fill="#4fc1e9"/></g><g><path d="m42 25h-6-6c-2.21 0-4 1.79-4 4v6c0 2.21 1.79 4 4 4h6 6c2.21 0 4-1.79 4-4v-6c0-2.21-1.79-4-4-4z" fill="#e6e9ed"/></g><g><path d="m36 26c3.31 0 6 2.69 6 6s-2.69 6-6 6-6-2.69-6-6 2.69-6 6-6z" fill="#4fc1e9"/></g><g><circle cx="36" cy="32" fill="#69d6f4" r="2"/></g></g><g><path d="m36 35c1.654 0 3-1.346 3-3s-1.346-3-3-3-3 1.346-3 3 1.346 3 3 3zm0-4c.552 0 1 .449 1 1s-.448 1-1 1-1-.449-1-1 .448-1 1-1z"/><path d="m30 40h12c2.757 0 5-2.243 5-5v-6c0-2.757-2.243-5-5-5h-12c-2.757 0-5 2.243-5 5v6c0 2.757 2.243 5 5 5zm6-13c2.757 0 5 2.243 5 5s-2.243 5-5 5-5-2.243-5-5 2.243-5 5-5zm9 2v6c0 1.654-1.346 3-3 3h-2.413c2.04-1.225 3.413-3.452 3.413-6s-1.373-4.775-3.413-6h2.413c1.654 0 3 1.346 3 3zm-18 0c0-1.654 1.346-3 3-3h2.413c-2.04 1.225-3.413 3.452-3.413 6s1.373 4.775 3.413 6h-2.413c-1.654 0-3-1.346-3-3z"/><path d="m36 47c8.271 0 15-6.729 15-15s-6.729-15-15-15-15 6.729-15 15 6.729 15 15 15zm0-28c7.168 0 13 5.832 13 13s-5.832 13-13 13-13-5.832-13-13 5.832-13 13-13z"/><path d="m59 17.101v-1.101c0-1.654-1.346-3-3-3h-4c-1.654 0-3 1.346-3 3v1h-1.381c-3.216-2.497-7.241-4-11.619-4s-8.403 1.503-11.619 4h-5.381v-1c0-1.654-1.346-3-3-3h-8c-1.654 0-3 1.346-3 3v1.101c-2.279.465-4 2.485-4 4.899v24c0 2.757 2.243 5 5 5h52c2.757 0 5-2.243 5-5v-24c0-2.414-1.721-4.434-4-4.899zm2 4.899v1h-8.273c-.79-1.463-1.778-2.799-2.909-4h8.182c1.654 0 3 1.346 3 3zm-8 19c1.103 0 2 .897 2 2s-.897 2-2 2c-.921 0-1.692-.623-1.916-1.493.6-.785 1.156-1.605 1.63-2.479.098-.017.194-.028.286-.028zm-2-25c0-.551.448-1 1-1h4c.552 0 1 .449 1 1v1h-6zm2 16c0 9.374-7.626 17-17 17s-17-7.626-17-17 7.626-17 17-17 17 7.626 17 17zm-36-16v1h-2v-2h1c.552 0 1 .449 1 1zm-6 1v-2h2v2zm-3-2h1v2h-2v-1c0-.551.448-1 1-1zm-2 4h16.182c-1.131 1.201-2.119 2.537-2.909 4h-16.273v-1c0-1.654 1.346-3 3-3zm-3 27v-21h11.026c-.635.838-1.026 1.87-1.026 3v21h-7c-1.654 0-3-1.346-3-3zm12 3v-21c0-1.654 1.346-3 3-3h.353c-.864 2.169-1.353 4.527-1.353 7 0 7.445 4.315 13.886 10.566 17zm43 0h-13.566c1.958-.976 3.727-2.271 5.23-3.831.711 1.106 1.932 1.831 3.336 1.831 2.206 0 4-1.794 4-4 0-1.997-1.452-3.681-3.367-3.961.873-2.179 1.367-4.551 1.367-7.039 0-2.473-.489-4.831-1.353-7h7.353v21c0 1.654-1.346 3-3 3z"/><path d="m57 27h2v2h-2z"/><path d="m57 31h2v2h-2z"/><path d="m8 41c-1.654 0-3 1.346-3 3s1.346 3 3 3 3-1.346 3-3-1.346-3-3-3zm0 4c-.552 0-1-.448-1-1s.448-1 1-1 1 .448 1 1-.448 1-1 1z"/><path d="m5 27v10h6v-10zm4 8h-2v-6h2z"/></g></g></svg>