<svg id="Layer_5" enable-background="new 0 0 64 64" height="512" viewBox="0 0 64 64" width="512" xmlns="http://www.w3.org/2000/svg"><g><g><g><path d="m14 12h-4c-1.1 0-2 .9-2 2v4h8v-4c0-1.1-.9-2-2-2z" fill="#aab2bd"/></g><g><path d="m33.41 14.59c.37.36.59.86.59 1.41 0 1.1-.9 2-2 2h-10c-.55 0-1.05-.22-1.41-.59-.37-.36-.59-.86-.59-1.41 0-1.1.9-2 2-2h10c.55 0 1.05.22 1.41.59z" fill="#ccd1d9"/></g><g><path d="m57 16v2h-10v-2c0-1.1.9-2 2-2h6c1.1 0 2 .9 2 2z" fill="#ccd1d9"/></g><g><path d="m58 18h-1-10-5v34h16c2.21 0 4-1.79 4-4v-26c0-2.21-1.79-4-4-4z" fill="#aab2bd"/></g><g><path d="m42 22v4h-17-15v2c0 .55-.22 1.05-.59 1.41-.36.37-.86.59-1.41.59v22h-2c-2.21 0-4-1.79-4-4v-26c0-2.21 1.79-4 4-4h2 4 4 6 10 10z" fill="#fcd770"/></g><g><path d="m10 26h15c-7.18 0-13 5.82-13 13s5.82 13 13 13h-17v-22c.55 0 1.05-.22 1.41-.59.37-.36.59-.86.59-1.41z" fill="#ffeaa7"/></g><g><path d="m42 48v4h-17c7.18 0 13-5.82 13-13s-5.82-13-13-13h17v6 8 4z" fill="#ffeaa7"/></g><g><path d="m25 26c7.18 0 13 5.82 13 13s-5.82 13-13 13-13-5.82-13-13 5.82-13 13-13z" fill="#69d6f4"/></g><g><path d="m25 32c3.87 0 7 3.13 7 7s-3.13 7-7 7-7-3.13-7-7 3.13-7 7-7z" fill="#3bafda"/></g><g><circle cx="25" cy="39" fill="#4fc1e9" r="3"/></g><g><path d="m42 44h8v4h-8z" fill="#e6e9ed"/></g><g><circle cx="56" cy="46" fill="#ff826e" r="2"/></g><g><path d="m58 23v16c0 .55-.45 1-1 1h-5l-5.02-5.74c-1.26-1.44-3.07-2.26-4.98-2.26v-6-4h15c.55 0 1 .45 1 1zm-4 5c0-1.1-.9-2-2-2s-2 .9-2 2 .9 2 2 2 2-.9 2-2z" fill="#e6e9ed"/></g><g><circle cx="52" cy="28" fill="#fcd770" r="2"/></g><g><path d="m46.98 34.26 5.02 5.74h-10v-8c1.91 0 3.72.82 4.98 2.26z" fill="#b4dd7f"/></g></g><g><path d="m58 17v-1c0-1.654-1.346-3-3-3h-6c-1.654 0-3 1.346-3 3v1h-11.184c.112-.314.184-.648.184-1 0-1.654-1.346-3-3-3h-10c-1.654 0-3 1.346-3 3 0 .352.072.686.184 1h-2.184v-3c0-1.654-1.346-3-3-3h-4c-1.654 0-3 1.346-3 3v3h-1c-2.757 0-5 2.243-5 5v26c0 2.757 2.243 5 5 5h52c2.757 0 5-2.243 5-5v-26c0-2.757-2.243-5-5-5zm-10-1c0-.552.449-1 1-1h6c.551 0 1 .448 1 1v1h-8zm-5 29h6v2h-6zm0-11.903c1.24.225 2.38.856 3.223 1.819l3.574 4.084h-6.797zm9.453 5.903-4.725-5.4c-1.223-1.399-2.909-2.285-4.728-2.526v-8.074h14v16zm-31.453-23c0-.552.449-1 1-1h10c.551 0 1 .448 1 1s-.449 1-1 1h-10c-.551 0-1-.448-1-1zm-6-2v3h-2v-4h1c.551 0 1 .448 1 1zm-6 0c0-.552.449-1 1-1h1v4h-2zm-6 34v-26c0-1.654 1.346-3 3-3h16 10 9v6h-32v3c0 .552-.449 1-1 1h-1v22h-1c-1.654 0-3-1.346-3-3zm6 3v-20.171c1.164-.413 2-1.525 2-2.829v-1h6.826c-4.081 2.449-6.826 6.904-6.826 12s2.745 9.551 6.826 12zm16-24c6.617 0 12 5.383 12 12s-5.383 12-12 12-12-5.383-12-12 5.383-12 12-12zm14 12c0-5.096-2.745-9.551-6.826-12h8.826v24h-8.826c4.081-2.449 6.826-6.904 6.826-12zm22 9c0 1.654-1.346 3-3 3h-15v-2h8v-6h-8v-2h14c1.103 0 2-.897 2-2v-16c0-1.103-.897-2-2-2h-14v-2h15c1.654 0 3 1.346 3 3z"/><path d="m56 43c-1.654 0-3 1.346-3 3s1.346 3 3 3 3-1.346 3-3-1.346-3-3-3zm0 4c-.551 0-1-.448-1-1s.449-1 1-1 1 .448 1 1-.449 1-1 1z"/><path d="m25 47c4.411 0 8-3.589 8-8s-3.589-8-8-8-8 3.589-8 8 3.589 8 8 8zm0-14c3.309 0 6 2.691 6 6s-2.691 6-6 6-6-2.691-6-6 2.691-6 6-6z"/><path d="m25 43c2.206 0 4-1.794 4-4s-1.794-4-4-4-4 1.794-4 4 1.794 4 4 4zm0-6c1.103 0 2 .897 2 2s-.897 2-2 2-2-.897-2-2 .897-2 2-2z"/><path d="m5 21h6v2h-6z"/><path d="m13 21h2v2h-2z"/><path d="m37 21h2v2h-2z"/><path d="m33 21h2v2h-2z"/><path d="m29 21h2v2h-2z"/><path d="m52 25c-1.654 0-3 1.346-3 3s1.346 3 3 3 3-1.346 3-3-1.346-3-3-3zm0 4c-.551 0-1-.448-1-1s.449-1 1-1 1 .448 1 1-.449 1-1 1z"/><circle cx="6" cy="26" r="1"/></g></g></svg>