<svg id="Layer_5" enable-background="new 0 0 64 64" height="512" viewBox="0 0 64 64" width="512" xmlns="http://www.w3.org/2000/svg"><g><g><g><path d="m26 2h-22c-1.1 0-2 .9-2 2v10 10c0 1.1.9 2 2 2h9 6v-4c0-1.1.9-2 2-2h7v-6-10c0-1.1-.9-2-2-2z" fill="#e6e9ed"/></g><g><path d="m60 2h-22c-1.1 0-2 .9-2 2v10 6h7c1.1 0 2 .9 2 2v4h6 9c1.1 0 2-.9 2-2v-10-10c0-1.1-.9-2-2-2z" fill="#e6e9ed"/></g><g><path d="m60 62h-22c-1.105 0-2-.895-2-2v-20c0-1.105.895-2 2-2h22c1.105 0 2 .895 2 2v20c0 1.105-.895 2-2 2z" fill="#e6e9ed"/></g><g><path d="m26 62h-22c-1.105 0-2-.895-2-2v-20c0-1.105.895-2 2-2h22c1.105 0 2 .895 2 2v20c0 1.105-.895 2-2 2z" fill="#e6e9ed"/></g><g><path d="m24 44v6h-18v-8h13c0 1.1.9 2 2 2z" fill="#fcd770"/></g><g><path d="m58 42v8h-18v-6h3c1.1 0 2-.9 2-2z" fill="#ff826e"/></g><g><path d="m6 6h18v4h-18z" fill="#ff826e"/></g><g><path d="m40 6h18v4h-18z" fill="#fcd770"/></g><g><path d="m45 26v12 4c0 1.1-.9 2-2 2h-3-4-8-4-3c-1.1 0-2-.9-2-2v-4-12-4c0-1.1.9-2 2-2h7 8 7c1.1 0 2 .9 2 2z" fill="#f0d0b4"/></g><g><path d="m23 24h18v4h-18z" fill="#b4dd7f"/></g></g><g><path d="m22 29h20v-6h-20zm2-4h16v2h-16z"/><path d="m22 31h2v2h-2z"/><path d="m26 31h16v2h-16z"/><path d="m22 35h20v2h-20z"/><path d="m40 39h2v2h-2z"/><path d="m22 39h16v2h-16z"/><path d="m25 5h-20v6h20zm-2 4h-16v-2h16z"/><path d="m5 13h2v2h-2z"/><path d="m9 13h16v2h-16z"/><path d="m5 17h11v2h-11z"/><path d="m5 21h11v2h-11z"/><path d="m5 53h20v2h-20z"/><path d="m23 57h2v2h-2z"/><path d="m5 57h16v2h-16z"/><path d="m60 27c1.654 0 3-1.346 3-3v-20c0-1.654-1.346-3-3-3h-22c-1.654 0-3 1.346-3 3v9h-6v-9c0-1.654-1.346-3-3-3h-22c-1.654 0-3 1.346-3 3v20c0 1.654 1.346 3 3 3h8v10h-8c-1.654 0-3 1.346-3 3v20c0 1.654 1.346 3 3 3h22c1.654 0 3-1.346 3-3v-9h6v9c0 1.654 1.346 3 3 3h22c1.654 0 3-1.346 3-3v-20c0-1.654-1.346-3-3-3h-8v-10zm-31-12h6v4h-6zm-25 10c-.551 0-1-.448-1-1v-20c0-.552.449-1 1-1h22c.551 0 1 .448 1 1v15h-6c-1.654 0-3 1.346-3 3v3zm14.184 18c.414 1.161 1.514 2 2.816 2h2v4h-16v-6zm-.184-6h-4v-10h4zm9 23c0 .552-.449 1-1 1h-22c-.551 0-1-.448-1-1v-20c0-.552.449-1 1-1h14v2h-13v10h20v-6h2zm8-11h-6v-4h6zm-14-6c-.551 0-1-.448-1-1v-20c0-.552.449-1 1-1h22c.551 0 1 .448 1 1v20c0 .552-.449 1-1 1zm24.816 0h11.184v6h-16v-4h2c1.302 0 2.402-.839 2.816-2zm14.184-4c.551 0 1 .448 1 1v20c0 .552-.449 1-1 1h-22c-.551 0-1-.448-1-1v-15h2v6h20v-10h-13v-2zm-14-2v-10h4v10zm0-12v-3c0-1.654-1.346-3-3-3h-6v-15c0-.552.449-1 1-1h22c.551 0 1 .448 1 1v20c0 .552-.449 1-1 1z"/><path d="m39 11h20v-6h-20zm2-4h16v2h-16z"/><path d="m39 13h2v2h-2z"/><path d="m43 13h16v2h-16z"/><path d="m48 17h11v2h-11z"/><path d="m48 21h11v2h-11z"/><path d="m39 53h20v2h-20z"/><path d="m57 57h2v2h-2z"/><path d="m39 57h16v2h-16z"/></g></g></svg>