<svg id="_x33_0" enable-background="new 0 0 64 64" height="512" viewBox="0 0 64 64" width="512" xmlns="http://www.w3.org/2000/svg"><g><g><g><path d="m57 2h-44c-2.76 0-5 2.24-5 5v9 3 6 4.34c0 1.09.3 2.15.86 3.09l1.72 2.88c.26.43.73.69 1.23.69.07 0 .13 0 .19-.02v-10.98-6-12c0-.55.45-1 1-1h44c.55 0 1 .45 1 1v30c0 .55-.45 1-1 1h-3-10-10-14.19l.16 2.59c.02.27.03.55.03.82 0 .2 0 .39-.01.59h37.01c2.76 0 5-2.24 5-5v-30c0-2.76-2.24-5-5-5z" fill="#ccd1d9"/></g><g><path d="m18 55v6c0 .55-.45 1-1 1h-14c-.55 0-1-.45-1-1v-6c0-.55.45-1 1-1h1 12 1c.55 0 1 .45 1 1z" fill="#ff826e"/></g><g><path d="m57 38h-44c-.552 0-1-.448-1-1v-30c0-.552.448-1 1-1h44c.552 0 1 .448 1 1v30c0 .552-.448 1-1 1z" fill="#e6e9ed"/></g><g><path d="m19.97 40.59c.02.27.03.55.03.82 0 .2 0 .39-.01.59-.13 2.76-1.12 5.41-2.86 7.59l-.47.59c-.43.53-.66 1.19-.66 1.87v1.95h-12c-1.33-5.31-2-10.77-2-16.25v-12.53c0-1.43.51-2.82 1.44-3.91l4.56-5.31v3 6 4.34c0 1.09.3 2.15.86 3.09l1.72 2.88c.26.43.73.69 1.23.69.07 0 .13 0 .19-.02.61-.07 1.1-.53 1.21-1.15l1.51-8.29c.16-.89.94-1.54 1.84-1.54 1.37 0 2.51 1.07 2.59 2.43l.17 2.66.49 7.91z" fill="#f0d0b4"/></g><g><path d="m34.2 31.2c.3.3.57.63.8.98-.65.99-1 2.16-1 3.36v2.46h-14.19l-.49-7.91c.42-.22.87-.39 1.33-.5l2.35-.59 3 3 3-3 2.35.59c1.08.27 2.07.83 2.85 1.61z" fill="#fcd770"/></g><g><path d="m34 16v.75c0 .83-.13 1.65-.39 2.43-.4 1.2-1.09 2.27-2 3.14l-.71.68c.07-.32.1-.66.1-1v-2.28c0-.43-.28-.81-.68-.95-1.53-.51-2.91-1.36-4.05-2.5l-.27-.27-.27.27c-1.14 1.14-2.52 1.99-4.05 2.5-.4.14-.68.52-.68.95v2.28c0 .34.03.68.1 1l-.71-.68c-.91-.87-1.6-1.94-2-3.14-.26-.78-.39-1.6-.39-2.43v-.75c0-1.3.42-2.56 1.2-3.6 1.13-1.51 2.91-2.4 4.8-2.4h4c.94 0 1.86.22 2.68.63.83.41 1.56 1.01 2.12 1.77.78 1.04 1.2 2.3 1.2 3.6z" fill="#b27946"/></g><g><path d="m54 35.54v2.46h-10l2.78-5 1.98-3.56.59.15c1.08.27 2.07.83 2.85 1.61.31.31.58.64.81 1v.01c.64.99.99 2.14.99 3.33z" fill="#b4dd7f"/></g><g><path d="m44 16c-1.32 1.32-2.92 2.31-4.68 2.89l-.32.11v3c0 1.91 1.07 3.57 2.65 4.41l-.65 2.59-1.76.44-.59.15c-1.08.27-2.07.83-2.85 1.61-.3.3-.57.63-.8.98v-13.18c0-4.97 4.03-9 9-9 2.48 0 4.74 1.01 6.36 2.64 1.63 1.62 2.64 3.88 2.64 6.36l.01 13.2c-.23-.36-.5-.69-.81-1-.78-.78-1.77-1.34-2.85-1.61l-.59-.15-1.76-.44-.65-2.59c.44-.23.84-.52 1.19-.87.9-.91 1.46-2.16 1.46-3.54v-3l-.32-.11c-1.76-.58-3.36-1.57-4.68-2.89z" fill="#656d78"/></g><g><path d="m49 19v3c0 1.38-.56 2.63-1.46 3.54-.35.35-.75.64-1.19.87-.7.38-1.5.59-2.35.59s-1.65-.21-2.35-.59c-1.58-.84-2.65-2.5-2.65-4.41v-3l.32-.11c1.76-.58 3.36-1.57 4.68-2.89 1.32 1.32 2.92 2.31 4.68 2.89z" fill="#f0d0b4"/></g><g><path d="m48.76 29.44-1.98 3.56h-5.56l-1.98-3.56 1.76-.44.65-2.59c.7.38 1.5.59 2.35.59s1.65-.21 2.35-.59l.65 2.59z" fill="#f0d0b4"/></g><g><path d="m46.78 33-2.78 5-2.78-5z" fill="#ffeaa7"/></g><g><path d="m41.22 33 2.78 5h-10v-2.46c0-1.2.35-2.37 1-3.36.23-.35.5-.68.8-.98.78-.78 1.77-1.34 2.85-1.61l.59-.15z" fill="#b4dd7f"/></g><g><path d="m31 19.72v2.28c0 .34-.03.68-.1 1-.3 1.48-1.25 2.72-2.55 3.41-.7.38-1.5.59-2.35.59s-1.65-.21-2.35-.59c-.44-.23-.84-.52-1.19-.87-.68-.68-1.16-1.56-1.36-2.54-.07-.32-.1-.66-.1-1v-2.28c0-.43.28-.81.68-.95 1.53-.51 2.91-1.36 4.05-2.5l.27-.27.27.27c1.14 1.14 2.52 1.99 4.05 2.5.4.14.68.52.68.95z" fill="#f0d0b4"/></g><g><path d="m28.35 26.41.65 2.59-3 3-3-3 .65-2.59c.7.38 1.5.59 2.35.59s1.65-.21 2.35-.59z" fill="#f0d0b4"/></g></g><path d="m57 1h-44c-3.309 0-6 2.691-6 6v8.63l-4.315 5.034c-1.086 1.269-1.685 2.886-1.685 4.556v12.534c0 5.136.592 10.266 1.746 15.272-.982.126-1.746.958-1.746 1.974v6c0 1.103.897 2 2 2h14c1.103 0 2-.897 2-2v-6c0-1.103-.897-2-2-2v-.948c0-.453.155-.896.438-1.249l.476-.593c1.657-2.072 2.695-4.586 2.996-7.21h36.09c3.309 0 6-2.691 6-6v-30c0-3.309-2.691-6-6-6zm-36.64 29.724c.174-.064.352-.121.532-.167l1.802-.45 3.306 3.307 3.307-3.307 1.801.45c.904.226 1.729.693 2.389 1.352.111.111.196.244.297.365-.517.999-.794 2.112-.794 3.268v1.458h-12.248zm1.007-12.901c-.817.273-1.367 1.036-1.367 1.898v.539c-.27-.438-.494-.904-.657-1.393-.228-.682-.343-1.393-.343-2.115v-.752c0-1.075.355-2.141 1-3 .939-1.252 2.435-2 4-2h4c1.565 0 3.061.748 4 2 .645.859 1 1.925 1 3v.752c0 .722-.115 1.433-.343 2.116-.163.488-.387.955-.657 1.392v-.539c0-.862-.55-1.625-1.367-1.897-1.368-.456-2.632-1.237-3.652-2.257l-.981-.981-.98.98c-1.021 1.02-2.285 1.801-3.653 2.257zm24.822 14.177h-4.378l-1.059-1.907 1.074-.268.515-2.063c.527.152 1.083.238 1.659.238s1.132-.086 1.66-.239l.515 2.063 1.074.268zm-1.111 2-1.078 1.941-1.078-1.941zm-1.078-16.637c1.178 1.013 2.541 1.815 4 2.352v2.285c0 2.206-1.794 4-4 4s-4-1.794-4-4v-2.286c1.459-.536 2.821-1.338 4-2.351zm5.593 11.255-1.768-.442-.328-1.31c1.513-1.091 2.503-2.863 2.503-4.866v-3.722l-1.001-.333c-1.484-.495-2.853-1.327-3.999-2.392v-2.553h-2v2.554c-1.146 1.066-2.515 1.897-3.999 2.391l-1.001.335v3.72c0 2.003.99 3.775 2.503 4.866l-.328 1.31-1.768.442c-.871.217-1.683.606-2.407 1.122v-10.74c0-4.411 3.589-8 8-8s8 3.589 8 8.001l.011 10.746c-.727-.52-1.543-.911-2.418-1.129zm-15.593 1.122c-.724-.517-1.537-.905-2.407-1.123l-1.769-.442-.327-1.31c1.113-.802 1.938-1.975 2.298-3.337l.508-.484c.69-.657 1.257-1.433 1.697-2.276zm-12-10.019c1.473-.491 2.844-1.291 4-2.329 1.156 1.038 2.527 1.838 4 2.329v2.279c0 2.206-1.794 4-4 4s-4-1.794-4-4zm4 8.279c.576 0 1.132-.086 1.66-.239l.233.932-1.893 1.893-1.893-1.893.233-.932c.528.153 1.084.239 1.66.239zm9 7.542c0-1.373.534-2.663 1.505-3.633.622-.622 1.397-1.067 2.243-1.305l3.553 6.396h-7.301zm14.252-4.937c.846.238 1.62.682 2.243 1.305.971.97 1.505 2.26 1.505 3.632v1.458h-7.301zm4.761 1.327-.013-12.932c0-5.514-4.486-10-10-10-4.039 0-7.518 2.411-9.095 5.866-.183-1.107-.631-2.167-1.306-3.066-1.314-1.753-3.408-2.8-5.599-2.8h-4c-2.191 0-4.285 1.047-5.6 2.8-.903 1.203-1.4 2.695-1.4 4.2v.752c0 .938.15 1.862.446 2.748.447 1.343 1.226 2.569 2.25 3.544l.509.485c.36 1.362 1.185 2.535 2.298 3.337l-.327 1.31-1.77.442c-.059.015-.116.038-.175.055l-.081-1.301c-.119-1.892-1.695-3.372-3.588-3.372-1.388 0-2.576.991-2.824 2.357l-.738 4.052v-23.409h44v30h-2v-1.458c0-1.291-.348-2.526-.987-3.61zm-45.013-5.932h2v8.056l-1.287-2.146c-.467-.777-.713-1.666-.713-2.572zm2-2h-2v-4h2zm6.001 37h-14.001v-6h14zm-.649-12.04-.475.593c-.565.706-.877 1.593-.877 2.499v.948h-10.207c-1.185-4.992-1.793-10.116-1.793-15.246v-12.534c0-1.192.428-2.348 1.203-3.254l2.797-3.263v10.635c0 1.268.345 2.514.998 3.602l1.729 2.881c.435.727 1.233 1.179 2.082 1.179 1.175 0 2.179-.838 2.388-1.994l1.508-8.291c.075-.414.436-.715.857-.715.841 0 1.54.657 1.593 1.496l.822 13.157c.015.251.023.504.023.756 0 2.734-.94 5.416-2.648 7.551zm44.648-11.96c0 2.206-1.794 4-4 4h-36.006c-.005-.157-.012-.313-.021-.47l-.096-1.53h36.123c1.103 0 2-.897 2-2v-30c0-1.103-.897-2-2-2h-44c-1.103 0-2 .897-2 2v11h-2v-11c0-2.206 1.794-4 4-4h44c2.206 0 4 1.794 4 4z"/></g></svg>