<svg id="Layer_5" enable-background="new 0 0 64 64" height="512" viewBox="0 0 64 64" width="512" xmlns="http://www.w3.org/2000/svg"><g><g><g><path d="m34 6v10c-2.21 0-4 1.79-4 4v4 24h-20c-2.21 0-4-1.79-4-4v-38c0-2.21 1.79-4 4-4h20c2.21 0 4 1.79 4 4z" fill="#aab2bd"/></g><g><path d="m18 8v8c0 1.1-.9 2-2 2h-4c-1.1 0-2-.9-2-2v-8c0-1.1.9-2 2-2h4c1.1 0 2 .9 2 2z" fill="#e6e9ed"/></g><g><circle cx="14" cy="24" fill="#69d6f4" r="2"/></g><g><path d="m58 54v4c0 2.21-1.79 4-4 4h-20c-2.21 0-4-1.79-4-4v-4z" fill="#969faa"/></g><g><path d="m44 24h-14v-4c0-2.21 1.79-4 4-4h6v4c0 2.21 1.79 4 4 4z" fill="#969faa"/></g><g><path d="m58 20v4h-14c1.1 0 2.1-.45 2.83-1.17.72-.73 1.17-1.73 1.17-2.83v-4h6c2.21 0 4 1.79 4 4z" fill="#969faa"/></g><g><path d="m48 16v4c0 1.1-.45 2.1-1.17 2.83-.73.72-1.73 1.17-2.83 1.17-2.21 0-4-1.79-4-4v-4z" fill="#fcd770"/></g><g><path d="m58 24v30h-28v-6-24h14z" fill="#69d6f4"/></g><g><path d="m54 48.16v1.84h-20v-1.84c0-1.85 1.27-3.46 3.08-3.89l1.73-.41h.01l1-.24c1.07-.3 1.86-1.16 2.1-2.2v-.01c.61.38 1.32.59 2.08.59s1.47-.21 2.08-.59v.01c.24 1.04 1.03 1.9 2.1 2.2l2.74.65c1.81.43 3.08 2.04 3.08 3.89z" fill="#f0d0b4"/></g><g><path d="m48 35v3c0 .58-.13 1.14-.36 1.64-.32.74-.87 1.36-1.56 1.77-.61.38-1.32.59-2.08.59s-1.47-.21-2.08-.59c-.27-.16-.52-.36-.75-.58-.34-.34-.62-.75-.81-1.19-.23-.5-.36-1.06-.36-1.64v-2c0-1.1.9-2 2-2 1.32.66 2.77 1 4.24 1z" fill="#f0d0b4"/></g><g><path d="m50 34v2c0 1.62-.97 3.02-2.35 3.65l-.01-.01c.23-.5.36-1.06.36-1.64v-3h-1.76c-1.47 0-2.92-.34-4.24-1-1.1 0-2 .9-2 2v2c0 .58.13 1.14.36 1.64l-.01.01c-1.38-.63-2.35-2.03-2.35-3.65v-2c0-2.01.99-3.78 2.5-4.87.98-.71 2.19-1.13 3.5-1.13 1.66 0 3.16.67 4.24 1.76 1.09 1.08 1.76 2.58 1.76 4.24z" fill="#656d78"/></g><g><path d="m41.92 41.41v.01c-.24 1.04-1.03 1.9-2.1 2.2l-1 .24h-.01c-2.61-.36-4.32-1.32-5.37-2.2-1.05-.87-1.44-1.66-1.44-1.66 1.28-1.28 2-3.02 2-4.83v-3.42c0-1.03.42-1.97 1.1-2.65s1.62-1.1 2.65-1.1c.81 0 1.6.26 2.25.75l.5.38c-1.51 1.09-2.5 2.86-2.5 4.87v2c0 1.62.97 3.02 2.35 3.65l.01-.01c.19.44.47.85.81 1.19.23.22.48.42.75.58z" fill="#656d78"/></g></g><g><path d="m54 15h-19v-9c0-2.757-2.243-5-5-5h-20c-2.757 0-5 2.243-5 5v38c0 2.757 2.243 5 5 5h19v9c0 2.757 2.243 5 5 5h20c2.757 0 5-2.243 5-5v-38c0-2.757-2.243-5-5-5zm3 5v3h-9.026c.635-.838 1.026-1.87 1.026-3v-3h5c1.654 0 3 1.346 3 3zm-23-3h5v3c0 1.13.391 2.162 1.026 3h-9.026v-3c0-1.654 1.346-3 3-3zm10 6c-1.654 0-3-1.346-3-3v-3h6v3c0 1.654-1.346 3-3 3zm-13 17.236.105.211c.057.113 1.139 2.187 4.211 3.496-1.414.896-2.316 2.464-2.316 4.221v2.836h22v-2.836c0-2.329-1.583-4.33-3.849-4.866l-2.7-.637c-.502-.144-.914-.48-1.171-.918.437-.383.8-.838 1.083-1.351 1.608-.867 2.637-2.549 2.637-4.392v-2c0-3.859-3.14-7-7-7-1.255 0-2.431.337-3.451.918-.808-.59-1.798-.918-2.799-.918-2.619 0-4.75 2.131-4.75 4.75v3.422c0 1.557-.606 3.021-1.707 4.121l-.293.293v-14.586h26v28h-26zm16.946 4.359 2.746.65c1.359.321 2.308 1.522 2.308 2.919v.836h-18v-.836c0-1.397.949-2.598 2.309-2.919l2.791-.662c1.012-.29 1.849-.964 2.361-1.851.487.16.998.268 1.539.268s1.052-.108 1.54-.268c.515.887 1.361 1.565 2.406 1.863zm-.946-6.595c0 1.654-1.346 3-3 3s-3-1.346-3-3v-2c0-.486.349-.893.81-.981 1.38.642 2.904.981 4.426.981h.764zm-.764-4c-1.308 0-2.618-.31-3.789-.895l-.211-.105h-.236c-1.654 0-3 1.346-3 3v-2c0-2.757 2.243-5 5-5s5 2.243 5 5zm-6.599 6.392c.283.513.646.968 1.083 1.351-.254.436-.657.77-1.126.905l-.803.19c-3.247-.482-4.869-1.948-5.526-2.751 1.125-1.388 1.735-3.105 1.735-4.915v-3.422c0-1.517 1.234-2.75 2.75-2.75.388 0 .771.092 1.123.25-1.158 1.249-1.873 2.916-1.873 4.75v2c0 1.844 1.029 3.525 2.637 4.392zm-29.637 6.608c-1.654 0-3-1.346-3-3v-38c0-1.654 1.346-3 3-3h20c1.654 0 3 1.346 3 3v9.101c-2.279.465-4 2.484-4 4.899v27zm44 14h-20c-1.654 0-3-1.346-3-3v-3h26v3c0 1.654-1.346 3-3 3z"/><circle cx="44" cy="20" r="1"/><circle cx="54" cy="20" r="1"/><path d="m40 57h8v2h-8z"/><path d="m33 57h2v2h-2z"/><path d="m53 57h2v2h-2z"/><path d="m16 5h-4c-1.654 0-3 1.346-3 3v8c0 1.654 1.346 3 3 3h4c1.654 0 3-1.346 3-3v-8c0-1.654-1.346-3-3-3zm1 11c0 .552-.449 1-1 1h-4c-.551 0-1-.448-1-1v-8c0-.552.449-1 1-1h4c.551 0 1 .448 1 1z"/><circle cx="14" cy="10" r="1"/><circle cx="14" cy="14" r="1"/><path d="m14 21c-1.654 0-3 1.346-3 3s1.346 3 3 3 3-1.346 3-3-1.346-3-3-3zm0 4c-.551 0-1-.448-1-1s.449-1 1-1 1 .448 1 1-.449 1-1 1z"/><path d="m25 43h2v2h-2z"/><path d="m25 31h2v10h-2z"/></g></g></svg>