<svg id="Layer_5" enable-background="new 0 0 64 64" height="512" viewBox="0 0 64 64" width="512" xmlns="http://www.w3.org/2000/svg"><g><g><g><path d="m24 2v4c0 1.1-.45 2.1-1.17 2.83-.73.72-1.73 1.17-2.83 1.17-2.21 0-4-1.79-4-4v-4z" fill="#fcd770"/></g><g><path d="m20 10h-18v-4c0-2.21 1.79-4 4-4h10v4c0 2.21 1.79 4 4 4z" fill="#969faa"/></g><g><path d="m38 6v4h-18c1.1 0 2.1-.45 2.83-1.17.72-.73 1.17-1.73 1.17-2.83v-4h10c2.21 0 4 1.79 4 4z" fill="#969faa"/></g><g><path d="m2 10h36v40h-36z" fill="#69d6f4"/></g><g><path d="m38 50v8c0 2.21-1.79 4-4 4h-28c-2.21 0-4-1.79-4-4v-8z" fill="#969faa"/></g><g><path d="m10 55v2c0 .55-.45 1-1 1h-2c-.55 0-1-.45-1-1v-2c0-.55.45-1 1-1h2c.55 0 1 .45 1 1z" fill="#e6e9ed"/></g><g><path d="m24 55v2c0 .55-.45 1-1 1h-6c-.55 0-1-.45-1-1v-2c0-.55.45-1 1-1h6c.55 0 1 .45 1 1z" fill="#e6e9ed"/></g><g><path d="m34 55v2c0 .55-.45 1-1 1h-2c-.55 0-1-.45-1-1v-2c0-.55.45-1 1-1h2c.55 0 1 .45 1 1z" fill="#e6e9ed"/></g><g><path d="m28 18v17.16c-1.18-.75-2.56-1.16-4-1.16-2.5 0-4.83 1.25-6.22 3.33l-5.78 8.67v-28z" fill="#f0d0b4"/></g><g><path d="m62 14v28l-6.61-9.92c-.87-1.3-2.33-2.08-3.89-2.08s-3.02.78-3.89 2.08l-1.47 2.21-2.8-5.61c-.41-.82-1.04-1.49-1.79-1.96-.75-.46-1.63-.72-2.55-.72-1.84 0-3.52 1.04-4.34 2.68l-6.66 13.32v-6.84-17.16-4h10z" fill="#e6e9ed"/></g><g><path d="m46 42v4h-8-2l-2.67-4z" fill="#a0d468"/></g><g><path d="m33.33 42 2.67 4h-24l5.78-8.67c1.39-2.08 3.72-3.33 6.22-3.33 1.44 0 2.82.41 4 1.16v6.84z" fill="#b4dd7f"/></g><g><path d="m55.39 32.08 6.61 9.92h-12l-3.86-7.71 1.47-2.21c.87-1.3 2.33-2.08 3.89-2.08s3.02.78 3.89 2.08z" fill="#b4dd7f"/></g><g><path d="m46.14 34.29 3.86 7.71h-4-12.67-5.33l6.66-13.32c.82-1.64 2.5-2.68 4.34-2.68.92 0 1.8.26 2.55.72.75.47 1.38 1.14 1.79 1.96z" fill="#a0d468"/></g><g><circle cx="20" cy="26" fill="#fcd770" r="4"/></g><g><circle cx="34" cy="20" fill="#fcd770" r="2"/></g></g><g><path d="m23 53h-6c-1.103 0-2 .897-2 2v2c0 1.103.897 2 2 2h6c1.103 0 2-.897 2-2v-2c0-1.103-.897-2-2-2zm-6 4v-2h6l.001 2z"/><path d="m9 53h-2c-1.103 0-2 .897-2 2v2c0 1.103.897 2 2 2h2c1.103 0 2-.897 2-2v-2c0-1.103-.897-2-2-2zm-2 4v-2h2l.001 2z"/><path d="m33 53h-2c-1.103 0-2 .897-2 2v2c0 1.103.897 2 2 2h2c1.103 0 2-.897 2-2v-2c0-1.103-.897-2-2-2zm-2 4v-2h2l.001 2z"/><circle cx="20" cy="6" r="1"/><circle cx="34" cy="6" r="1"/><path d="m63 13h-24v-7c0-2.757-2.243-5-5-5h-28c-2.757 0-5 2.243-5 5v52c0 2.757 2.243 5 5 5h28c2.757 0 5-2.243 5-5v-11h8v-4h16zm-2 25.697-4.781-7.172c-1.054-1.581-2.819-2.525-4.719-2.525s-3.665.944-4.719 2.525l-.514.772-2.03-4.061c-.999-1.996-3.006-3.236-5.237-3.236s-4.238 1.24-5.236 3.236l-4.764 9.528v-22.764h32zm-34-5.126c-.956-.363-1.967-.571-3-.571-2.84 0-5.476 1.411-7.051 3.773l-3.949 5.924v-23.697h14zm-8.387 4.312c1.203-1.805 3.217-2.883 5.387-2.883 1.052 0 2.074.269 3 .755v7.245h5.798l1.333 2h-20.263zm11.005 3.117 5.935-11.87c.657-1.314 1.977-2.13 3.447-2.13s2.79.816 3.447 2.13l5.935 11.87zm17.679-6.643 1.148-1.722c.683-1.024 1.825-1.635 3.055-1.635s2.372.611 3.055 1.635l5.577 8.365h-9.513zm-10.297-28.357v3h-13.026c.635-.838 1.026-1.87 1.026-3v-3h9c1.654 0 3 1.346 3 3zm-20 0v-3h6v3c0 1.654-1.346 3-3 3s-3-1.346-3-3zm-11-3h9v3c0 1.13.391 2.162 1.026 3h-13.026v-3c0-1.654 1.346-3 3-3zm28 58h-28c-1.654 0-3-1.346-3-3v-7h34v7c0 1.654-1.346 3-3 3zm3-12h-34v-38h34v2h-10v4h-16v30h26zm8-4h-8.465l-1.333-2h9.798z"/><path d="m20 31c2.757 0 5-2.243 5-5s-2.243-5-5-5-5 2.243-5 5 2.243 5 5 5zm0-8c1.654 0 3 1.346 3 3s-1.346 3-3 3-3-1.346-3-3 1.346-3 3-3z"/><path d="m34 23c1.654 0 3-1.346 3-3s-1.346-3-3-3-3 1.346-3 3 1.346 3 3 3zm0-4c.552 0 1 .449 1 1s-.448 1-1 1-1-.449-1-1 .448-1 1-1z"/><path d="m55 21h-1v2h4v-2h-1c0-1.103.897-2 2-2v-2c-1.201 0-2.266.542-3 1.382-.734-.84-1.799-1.382-3-1.382v2c1.103 0 2 .897 2 2z"/></g></g></svg>