<svg id="Layer_5" enable-background="new 0 0 64 64" height="512" viewBox="0 0 64 64" width="512" xmlns="http://www.w3.org/2000/svg"><g><g><g><path d="m2 10h40v40h-40z" fill="#69d6f4"/></g><g><path d="m42 50v8c0 2.21-1.79 4-4 4h-32c-2.21 0-4-1.79-4-4v-8h10 20z" fill="#969faa"/></g><g><path d="m22 10h-20v-4c0-2.21 1.79-4 4-4h12v4c0 2.21 1.79 4 4 4z" fill="#969faa"/></g><g><path d="m42 6v4h-20c1.1 0 2.1-.45 2.83-1.17.72-.73 1.17-1.73 1.17-2.83v-4h12c2.21 0 4 1.79 4 4z" fill="#969faa"/></g><g><path d="m62 44v4c0 1.1-.9 2-2 2h-5l-3.59 3.59c-.26.26-.62.41-1 .41-.78 0-1.41-.63-1.41-1.41v-2.59h-1c-1.1 0-2-.9-2-2v-4c0-1.1.9-2 2-2h12c1.1 0 2 .9 2 2z" fill="#ffeaa7"/></g><g><path d="m62 20v12c0 1.1-.9 2-2 2h-7l-4.59 3.68c-.27.21-.59.32-.93.32-.82 0-1.48-.66-1.48-1.48v-2.52h-4-5c-1.1 0-2-.9-2-2v-12c0-1.1.9-2 2-2h2 3 18c1.1 0 2 .9 2 2z" fill="#e6e9ed"/></g><g><path d="m50 22c.64.64 1 1.51 1 2.41 0 1.01-.45 1.96-1.22 2.61l-4.78 3.98-4.78-3.98c-.77-.65-1.22-1.6-1.22-2.61 0-.9.36-1.77 1-2.41s1.51-1 2.41-1h.18c.9 0 1.77.36 2.41 1 .64-.64 1.51-1 2.41-1h.18c.9 0 1.77.36 2.41 1z" fill="#ff826e"/></g><g><path d="m36 55v2c0 .55-.45 1-1 1h-2c-.55 0-1-.45-1-1v-2c0-.55.45-1 1-1h2c.55 0 1 .45 1 1z" fill="#e6e9ed"/></g><g><path d="m32 49.96v.04h-20v-2.46c0-1.2.35-2.37 1-3.36.23-.35.5-.68.8-.98.78-.78 1.77-1.34 2.85-1.61l2.35-.59.37 1.1c.38 1.14 1.44 1.9 2.63 1.9s2.25-.76 2.63-1.9l.37-1.1 2.35.59c1.08.27 2.07.83 2.85 1.61.31.31.58.64.81 1v.01c.64.99.99 2.14.99 3.33z" fill="#b4dd7f"/></g><g><path d="m22 28c-1.32 1.32-2.92 2.31-4.68 2.89l-.32.11v3c0 1.91 1.07 3.57 2.65 4.41l-.65 2.59-2.35.59c-1.08.27-2.07.83-2.85 1.61-.3.3-.57.63-.8.98v-13.18c0-4.97 4.03-9 9-9 2.48 0 4.74 1.01 6.36 2.64 1.63 1.62 2.64 3.88 2.64 6.36l.01 13.2c-.23-.36-.5-.69-.81-1-.78-.78-1.77-1.34-2.85-1.61l-2.35-.59-.65-2.59c.44-.23.84-.52 1.19-.87.9-.91 1.46-2.16 1.46-3.54v-3l-.32-.11c-1.76-.58-3.36-1.57-4.68-2.89z" fill="#b27946"/></g><g><path d="m27 31v3c0 1.38-.56 2.63-1.46 3.54-.35.35-.75.64-1.19.87-.7.38-1.5.59-2.35.59s-1.65-.21-2.35-.59c-1.58-.84-2.65-2.5-2.65-4.41v-3l.32-.11c1.76-.58 3.36-1.57 4.68-2.89 1.32 1.32 2.92 2.31 4.68 2.89z" fill="#f0d0b4"/></g><g><path d="m26 55v2c0 .55-.45 1-1 1h-6c-.55 0-1-.45-1-1v-2c0-.55.45-1 1-1h6c.55 0 1 .45 1 1z" fill="#e6e9ed"/></g><g><path d="m26 2v4c0 1.1-.45 2.1-1.17 2.83-.73.72-1.73 1.17-2.83 1.17-2.21 0-4-1.79-4-4v-4z" fill="#fcd770"/></g><g><path d="m24.35 38.41.65 2.59-.37 1.1c-.38 1.14-1.44 1.9-2.63 1.9s-2.25-.76-2.63-1.9l-.37-1.1.65-2.59c.7.38 1.5.59 2.35.59s1.65-.21 2.35-.59z" fill="#f0d0b4"/></g><g><path d="m6 14h10v6h-10z" fill="#ff826e"/></g><g><path d="m12 55v2c0 .55-.45 1-1 1h-2c-.55 0-1-.45-1-1v-2c0-.55.45-1 1-1h2c.55 0 1 .45 1 1z" fill="#e6e9ed"/></g></g><g><path d="m25 53h-6c-1.103 0-2 .897-2 2v2c0 1.103.897 2 2 2h6c1.103 0 2-.897 2-2v-2c0-1.103-.897-2-2-2zm-6 4v-2h6l.001 2z"/><path d="m11 53h-2c-1.103 0-2 .897-2 2v2c0 1.103.897 2 2 2h2c1.103 0 2-.897 2-2v-2c0-1.103-.897-2-2-2zm-2 4v-2h2l.001 2z"/><path d="m35 53h-2c-1.103 0-2 .897-2 2v2c0 1.103.897 2 2 2h2c1.103 0 2-.897 2-2v-2c0-1.103-.897-2-2-2zm-2 4v-2h2l.001 2z"/><circle cx="22" cy="6" r="1"/><path d="m5 21h12v-8h-12zm2-6h8v4h-8z"/><path d="m19 13h20v2h-20z"/><path d="m47.586 20h-.172c-.871 0-1.703.25-2.414.717-.711-.467-1.543-.717-2.414-.717h-.172c-1.179 0-2.288.459-3.125 1.297-.831.831-1.289 1.936-1.289 3.111 0 1.31.577 2.542 1.583 3.379l5.417 4.515 5.417-4.514c1.006-.838 1.583-2.07 1.583-3.38 0-1.175-.458-2.279-1.293-3.115-.833-.834-1.942-1.293-3.121-1.293zm1.551 6.251-4.137 3.447-4.137-3.448c-.549-.456-.863-1.128-.863-1.842 0-.641.25-1.243.707-1.701.449-.449 1.072-.707 1.707-.707h.172c.635 0 1.258.258 1.707.707l.707.707.707-.707c.449-.449 1.072-.707 1.707-.707h.172c.635 0 1.258.258 1.711.711.453.454.703 1.056.703 1.697 0 .714-.314 1.386-.863 1.843z"/><path d="m60 17h-17v-11c0-2.757-2.243-5-5-5h-32c-2.757 0-5 2.243-5 5v52c0 2.757 2.243 5 5 5h32c2.757 0 5-2.243 5-5v-23h2v1.52c0 1.368 1.113 2.48 2.48 2.48.561 0 1.111-.193 1.55-.543l4.321-3.457h6.649c1.654 0 3-1.346 3-3v-12c0-1.654-1.346-3-3-3zm-19-11v3h-15.026c.635-.838 1.026-1.87 1.026-3v-3h11c1.654 0 3 1.346 3 3zm-22 0v-3h6v3c0 1.654-1.346 3-3 3s-3-1.346-3-3zm-13-3h11v3c0 1.13.391 2.162 1.026 3h-15.026v-3c0-1.654 1.346-3 3-3zm32 58h-32c-1.654 0-3-1.346-3-3v-7h38v7c0 1.654-1.346 3-3 3zm-16-31.637c1.178 1.013 2.541 1.815 4 2.352v2.285c0 2.206-1.794 4-4 4s-4-1.794-4-4v-2.286c1.458-.535 2.821-1.338 4-2.351zm-1.659 10.398c.527.153 1.083.239 1.659.239s1.132-.086 1.659-.239l.3 1.199-.276.827c-.241.725-.918 1.213-1.683 1.213s-1.442-.488-1.684-1.214l-.276-.826zm5.484.414-.328-1.31c1.513-1.09 2.503-2.862 2.503-4.865v-3.721l-1-.333c-1.485-.495-2.853-1.326-4-2.392v-2.554h-2v2.553c-1.147 1.066-2.514 1.897-4 2.392l-1 .334v3.721c0 2.003.99 3.775 2.503 4.866l-.328 1.31-1.768.442c-.87.217-1.682.606-2.407 1.122v-10.74c0-4.411 3.589-8 8-8s8 3.589 8 8.001l.012 10.747c-.728-.521-1.544-.912-2.418-1.13zm-12.825 7.367c0-1.373.535-2.663 1.505-3.633.659-.658 1.484-1.125 2.387-1.351l1.452-.363.075.224c.514 1.543 1.953 2.581 3.581 2.581s3.067-1.038 3.581-2.581l.075-.224 1.453.363c.903.226 1.728.693 2.387 1.351.969.971 1.504 2.261 1.504 3.633v1.458h-18zm28 1.458h-8v-1.458c0-1.291-.348-2.526-.986-3.609l-.014-12.933c0-5.514-4.486-10-10-10s-10 4.486-10 10v12.91c-.647 1.089-1 2.332-1 3.633v1.457h-8v-38h38v6h-2-2-18v2h15.184c-.112.314-.184.648-.184 1v12c0 1.654 1.346 3 3 3h4zm20-17c0 .551-.449 1-1 1h-7.351l-4.868 3.895c-.293.232-.781-.002-.781-.375v-3.52h-10c-.551 0-1-.449-1-1v-12c0-.551.449-1 1-1h2 21c.551 0 1 .449 1 1z"/><path d="m53.293 24.293 1.414 1.414 2.293-2.293v7.586h2v-10h-2.414z"/><path d="m49 45h2v2h-2z"/><path d="m53 45h2v2h-2z"/><path d="m57 45h2v2h-2z"/><path d="m60 41h-12c-1.654 0-3 1.346-3 3v4c0 1.654 1.346 3 3 3v1.586c0 1.331 1.083 2.414 2.414 2.414.645 0 1.251-.251 1.707-.707l3.293-3.293h4.586c1.654 0 3-1.346 3-3v-4c0-1.654-1.346-3-3-3zm1 7c0 .551-.449 1-1 1h-5.414l-3.879 3.879c-.238.239-.707.044-.707-.293v-3.586h-2c-.551 0-1-.449-1-1v-4c0-.551.449-1 1-1h12c.551 0 1 .449 1 1z"/></g></g></svg>