<svg id="Layer_5" enable-background="new 0 0 64 64" height="512" viewBox="0 0 64 64" width="512" xmlns="http://www.w3.org/2000/svg"><g><g><g><path d="m16 16v2h-8v-2c0-1.1.9-2 2-2h4c1.1 0 2 .9 2 2z" fill="#fcd770"/></g><g><path d="m40.57 18 1.43 2h-20l1.43-2 3.57-5h5 5z" fill="#ccd1d9"/></g><g><path d="m21.67 24 .33-4h20l.33 4 .67 8-.04.02c-2.3-3.62-6.35-6.02-10.96-6.02s-8.66 2.4-10.96 6.02l-.04-.02z" fill="#aab2bd"/></g><g><path d="m23.43 18-1.43 2-.33 4h-19.67v-3.65c0-1.3 1.05-2.35 2.35-2.35h3.65 8z" fill="#ff826e"/></g><g><path d="m60 20v4h-17.67l-.33-4-1.43-2h17.43c1.1 0 2 .9 2 2z" fill="#ff826e"/></g><g><path d="m2 49.65v-25.65h19.67l-.67 8 .04.02c-1.29 2.01-2.04 4.41-2.04 6.98 0 7.18 5.82 13 13 13h-27.65c-1.3 0-2.35-1.05-2.35-2.35z" fill="#ccd1d9"/></g><g><path d="m60 24v25.65c0 1.3-1.05 2.35-2.35 2.35h-25.65c7.18 0 13-5.82 13-13 0-2.57-.75-4.97-2.04-6.98l.04-.02-.67-8z" fill="#ccd1d9"/></g><g><circle cx="50" cy="46" fill="#fcd770" r="2"/></g><g><path d="m42.96 32.02c1.29 2.01 2.04 4.41 2.04 6.98 0 7.18-5.82 13-13 13s-13-5.82-13-13c0-2.57.75-4.97 2.04-6.98 2.3-3.62 6.35-6.02 10.96-6.02s8.66 2.4 10.96 6.02z" fill="#69d6f4"/></g><g><path d="m32 32c3.87 0 7 3.13 7 7s-3.13 7-7 7-7-3.13-7-7 3.13-7 7-7z" fill="#4fc1e9"/></g><g><circle cx="32" cy="39" fill="#3bafda" r="3"/></g></g><g><path d="m32 43c2.206 0 4-1.794 4-4s-1.794-4-4-4-4 1.794-4 4 1.794 4 4 4zm0-6c1.103 0 2 .897 2 2s-.897 2-2 2-2-.897-2-2 .897-2 2-2z"/><path d="m32 47c4.411 0 8-3.589 8-8s-3.589-8-8-8-8 3.589-8 8 3.589 8 8 8zm0-14c3.309 0 6 2.691 6 6s-2.691 6-6 6-6-2.691-6-6 2.691-6 6-6z"/><path d="m58 17h-16.914l-3.571-5h-11.03l-3.571 5h-5.914v-1c0-1.654-1.346-3-3-3h-4c-1.654 0-3 1.346-3 3v1h-2.652c-1.846 0-3.348 1.502-3.348 3.348v29.304c0 1.846 1.502 3.348 3.348 3.348h53.304c1.846 0 3.348-1.502 3.348-3.348v-29.652c0-1.654-1.346-3-3-3zm0 2c.551 0 1 .449 1 1v3h-15.747l-.28-3.357-.458-.643zm-16.92 2 .664 7.968c-2.523-2.451-5.957-3.968-9.744-3.968s-7.221 1.517-9.744 3.968l.664-7.968zm-9.08 6c6.617 0 12 5.383 12 12s-5.383 12-12 12-12-5.383-12-12 5.383-12 12-12zm-4.485-13h8.971l3.571 5h-16.114zm-18.515 2c0-.551.449-1 1-1h4c.551 0 1 .449 1 1v1h-6zm-4.652 3h17.137l-.459.643-.279 3.357h-17.747v-2.652c0-.743.605-1.348 1.348-1.348zm0 32c-.743 0-1.348-.605-1.348-1.348v-24.652h17.58l-.567 6.805c-1.269 2.106-2.013 4.562-2.013 7.195 0 5.096 2.745 9.551 6.826 12zm53.304 0h-18.478c4.081-2.449 6.826-6.904 6.826-12 0-2.633-.744-5.089-2.013-7.195l-.567-6.805h15.58v24.652c0 .743-.605 1.348-1.348 1.348z"/><path d="m50 43c-1.654 0-3 1.346-3 3s1.346 3 3 3 3-1.346 3-3-1.346-3-3-3zm0 4c-.551 0-1-.449-1-1s.449-1 1-1 1 .449 1 1-.449 1-1 1z"/><path d="m55 27h2v2h-2z"/><path d="m51 27h2v2h-2z"/><path d="m47 27h2v2h-2z"/><path d="m13 27h2v2h-2z"/><path d="m9 27h2v2h-2z"/><path d="m5 27h2v2h-2z"/></g></g></svg>