<svg xmlns="http://www.w3.org/2000/svg" width="160" height="160" viewBox="0 0 160 160">
    <g fill="none" fill-rule="evenodd">
        <g transform="translate(26 46)">
            <path fill="#ECF1F6" d="M112 80c0 2.76-25.07 5-56 5S0 82.76 0 80s25.07-5 56-5 56 2.24 56 5"/>
            <rect width="110" height="72" x="1" y="7" fill="#FFF" rx="2"/>
            <rect width="110" height="79" x="1" stroke="#94B2C1" stroke-linecap="round" stroke-linejoin="round"
                  stroke-width="2" rx="2"/>
            <path fill="#ECF1F6" d="M3 1h106a1 1 0 011 1v5H2V2a1 1 0 011-1z"/>
            <path stroke="#94B2C1" stroke-linejoin="round" stroke-width="2" d="M1 8h111v6H1z"/>
            <path fill="#ECF1F6" stroke="#94B2C1" stroke-linecap="round" stroke-linejoin="round" stroke-width="2"
                  d="M1 14h24v65H4a3 3 0 01-3-3V14h0z"/>
            <rect width="6" height="6" x="5" y="18" fill="#FFF" stroke="#94B2C1" stroke-linejoin="round"
                  stroke-width="2" rx="1"/>
            <rect width="6" height="6" x="15" y="18" fill="#FFF" stroke="#94B2C1" stroke-linejoin="round"
                  stroke-width="2" rx="1"/>
            <rect width="6" height="6" x="5" y="28" fill="#FFF" stroke="#94B2C1" stroke-linejoin="round"
                  stroke-width="2" rx="1"/>
            <rect width="6" height="6" x="15" y="28" fill="#FFF" stroke="#94B2C1" stroke-linejoin="round"
                  stroke-width="2" rx="1"/>
            <rect width="6" height="6" x="5" y="38" fill="#FFF" stroke="#94B2C1" stroke-linejoin="round"
                  stroke-width="2" rx="1"/>
            <rect width="6" height="6" x="15" y="38" fill="#FFF" stroke="#94B2C1" stroke-linejoin="round"
                  stroke-width="2" rx="1"/>
            <rect width="6" height="6" x="5" y="48" fill="#FFF" stroke="#94B2C1" stroke-linejoin="round"
                  stroke-width="2" rx="1"/>
            <rect width="6" height="6" x="15" y="48" fill="#FFF" stroke="#94B2C1" stroke-linejoin="round"
                  stroke-width="2" rx="1"/>
            <rect width="6" height="6" x="5" y="58" fill="#FFF" stroke="#94B2C1" stroke-linejoin="round"
                  stroke-width="2" rx="1"/>
            <rect width="6" height="6" x="15" y="58" fill="#FFF" stroke="#94B2C1" stroke-linejoin="round"
                  stroke-width="2" rx="1"/>
            <rect width="6" height="6" x="5" y="68" fill="#FFF" stroke="#94B2C1" stroke-linejoin="round"
                  stroke-width="2" rx="1"/>
            <path fill="#94B2C1"
                  d="M4 3h10v2H4zm12 0h2v2h-2zm4 0h10v2H20zm80 7h8v2h-8zm-11 0h8v2h-8zm-10 0h8v2h-8zM4 10h2v2H4zm3 0h2v2H7zm3 0h2v2h-2z"/>
            <path fill="#ECF1F6" stroke="#94B2C1" stroke-linejoin="round" stroke-width="2"
                  d="M34.4 21c-1.32 0-2.4 1.14-2.4 2.55v45.9c0 1.4 1.07 2.55 2.4 2.55h67.2c1.32 0 2.4-1.14 2.4-2.55v-45.9c0-1.41-1.08-2.55-2.4-2.55H34.4z"/>
            <path fill="#FFF"
                  d="M78.97 45.65L73 52.93 76.07 57h11.15c1.5 0 2.33-1.79 1.36-2.96l-6.87-8.39a1.76 1.76 0 00-2.74 0"/>
            <path stroke="#94B2C1" stroke-linejoin="round" stroke-width="2"
                  d="M78.97 45.65L73 52.93 76.07 57h11.15c1.5 0 2.33-1.79 1.36-2.96l-6.87-8.39a1.76 1.76 0 00-2.74 0z"/>
            <path fill="#FFF" d="M48.45 53.9l12.09-14.27a1.75 1.75 0 012.77.1L76 57H49.8c-1.55 0-2.37-1.9-1.35-3.1"/>
            <path stroke="#94B2C1" stroke-linejoin="round" stroke-width="2"
                  d="M48.45 53.9l12.09-14.27a1.75 1.75 0 012.77.1L76 57H49.8c-1.55 0-2.37-1.9-1.35-3.1z"/>
            <path fill="#FFF" d="M78 38a4 4 0 11-8 0 4 4 0 018 0"/>
            <path stroke="#94B2C1" stroke-linejoin="round" stroke-width="2" d="M78 38a4 4 0 11-8 0 4 4 0 018 0z"/>
        </g>
        <path fill="#ECF1F6" d="M136.5 138c-9.11 0-16.5-1.34-16.5-3s7.39-3 16.5-3 16.5 1.34 16.5 3-7.39 3-16.5 3z"/>
        <path fill="#FFF" stroke="#94B2C1" stroke-linejoin="round" stroke-width="2"
              d="M150 105h-28v25.18a3.8 3.8 0 003.77 3.82h20.46a3.8 3.8 0 003.77-3.82V105z"/>
        <path stroke="#94B2C1" stroke-linejoin="round" stroke-width="2"
              d="M150 105h-28v25.18a3.8 3.8 0 003.77 3.82h20.46a3.8 3.8 0 003.77-3.82V105z"/>
        <path fill="#ECF1F6"
              d="M134.48 105a2.53 2.53 0 00-2.48 2.57 2.53 2.53 0 002.48 2.58h1.64a5.06 5.06 0 004.95 5.14h2.49v3.85a3.8 3.8 0 003.72 3.86 3.79 3.79 0 003.72-3.85V105h-16.52z"/>
        <path stroke="#94B2C1" stroke-linejoin="round" stroke-width="2"
              d="M134.48 105a2.53 2.53 0 00-2.48 2.57 2.53 2.53 0 002.48 2.58h1.64a5.06 5.06 0 004.95 5.14h2.49v3.85a3.8 3.8 0 003.72 3.86 3.79 3.79 0 003.72-3.85V105h-16.52zm7.52 0l8.96-21.65a2.07 2.07 0 012.6-1.23 2.3 2.3 0 011.38 2.67L150.52 105H142z"/>
        <path stroke="#94B2C1" stroke-linejoin="round" stroke-width="2"
              d="M142 105l8.96-21.65a2.07 2.07 0 012.6-1.23 2.3 2.3 0 011.38 2.67L150.52 105H142z"/>
        <g>
            <path fill="#ECF1F6"
                  d="M103 142.76c0-.97-.77-1.76-1.73-1.76H40.73c-.36 0-.67.14-.95.33-.46.31-.78.82-.78 1.43v7.48c0 .97.77 1.76 1.73 1.76h60.54c.96 0 1.73-.79 1.73-1.76v-7.48z"/>
            <path fill="#FFF"
                  d="M40.73 148c-.96 0-1.73-.79-1.73-1.76v-7.48c0-.97.77-1.76 1.73-1.76h60.54c.96 0 1.73.79 1.73 1.76v7.48c0 .97-.77 1.76-1.73 1.76H40.73z"/>
            <path stroke="#94B2C1" stroke-linejoin="round" stroke-width="2"
                  d="M40.73 148c-.96 0-1.73-.79-1.73-1.76v-7.48c0-.97.77-1.76 1.73-1.76h60.54c.96 0 1.73.79 1.73 1.76v7.48c0 .97-.77 1.76-1.73 1.76H40.73z"/>
            <path fill="#94B2C1"
                  d="M42 136h2v6h-2zm4 1h2v6h-2zm4-1h2v6h-2zm4 1h2v6h-2zm4-1h2v6h-2zm4 1h2v6h-2zm4-1h2v6h-2zm4 1h2v6h-2zm4-1h2v6h-2zm4 1h2v6h-2zm4-1h2v6h-2zm4 1h2v6h-2zm4-1h2v6h-2zm4 1h2v6h-2zm4-1h2v6h-2z"/>
        </g>
        <g>
            <path fill="#FFF" d="M10 105v5h7v-5zm0-32h7v27h-7z"/>
            <path fill="#ECF1F6"
                  d="M17 73l-3.5-9-3.5 9zm0 40.25c0 2.07-1.57 3.75-3.5 3.75s-3.5-1.68-3.5-3.75V111h7v2.25z"/>
            <path stroke="#94B2C1" stroke-linejoin="round" stroke-width="2"
                  d="M17 112.25c0 2.07-1.57 3.75-3.5 3.75s-3.5-1.68-3.5-3.75V110h7v2.25zM10 105v5h7v-5zm0-32h7v32h-7zm7 0l-3.5-9-3.5 9z"/>
        </g>
        <g>
            <path fill="#FFF" d="M151 48a14 14 0 11-28 0 14 14 0 0128 0"/>
            <path stroke="#94B2C1" stroke-linejoin="round" stroke-width="2"
                  d="M151 48a14 14 0 11-28 0 14 14 0 0128 0z"/>
            <path fill="#94B2C1" d="M136 41h2v14h-2z"/>
            <path fill="#94B2C1" d="M130 47h14v2h-14z"/>
        </g>
        <g>
            <path stroke="#94B2C1" stroke-linejoin="round" stroke-width="2"
                  d="M95.14 33.21c-.2.38-.18.83.03 1.2.2.37.58.59.98.59h9.7c.4 0 .78-.23.99-.6.2-.36.22-.81.02-1.19l-4.84-9.57c-.2-.4-.6-.64-1.02-.64-.43 0-.82.25-1.02.64l-4.84 9.57zM35.5 27v-1.75c0-1.06-.87-1.92-1.94-1.92h-1.62A1.93 1.93 0 0130 21.42v-1.59c0-1.05-.87-1.91-1.94-1.91h-1.61A1.93 1.93 0 0124.5 16v-1.58c0-1.06-.87-1.92-1.94-1.92h-1.61A1.93 1.93 0 0119 10.6V9"/>
            <path fill="#94B2C1"
                  d="M73 15a1 1 0 011 1v2h2a1 1 0 010 2h-2v2a1 1 0 01-2 0v-2h-2a1 1 0 010-2h2v-2a1 1 0 011-1zm67.7-6.7l1.42 1.4 1.42-1.4a1 1 0 111.41 1.4l-1.42 1.42 1.42 1.42a1 1 0 11-1.41 1.41l-1.42-1.42-1.41 1.42a1 1 0 01-1.42-1.41l1.42-1.42-1.42-1.41a1 1 0 011.42-1.42zm-134 35l1.42 1.4 1.42-1.4a1 1 0 111.41 1.4l-1.42 1.42 1.42 1.42a1 1 0 01-1.41 1.41l-1.42-1.42-1.41 1.42a1 1 0 11-1.42-1.41l1.42-1.42-1.42-1.41a1 1 0 011.42-1.42z"/>
        </g>
    </g>
</svg>
