<svg xmlns="http://www.w3.org/2000/svg" width="160" height="160" viewBox="0 0 160 160">
    <g fill="none" fill-rule="evenodd">
        <g transform="translate(26 46)">
            <path fill="#ECF1F6" d="M112 80c0 2.76-25.07 5-56 5S0 82.76 0 80s25.07-5 56-5 56 2.24 56 5"/>
            <rect width="110" height="72" x="1" y="7" fill="#FFF" rx="2"/>
            <rect width="110" height="79" x="1" stroke="#94B2C1" stroke-linecap="round" stroke-linejoin="round"
                  stroke-width="2" rx="2"/>
            <path fill="#94B2C1" d="M2 7h109v2H2z"/>
            <path fill="#ECF1F6" d="M3 1h106a1 1 0 011 1v5H2V2a1 1 0 011-1z"/>
            <path fill="#94B2C1" d="M4 3h10v2H4zm12 0h2v2h-2zm4 0h10v2H20zM51 14h8v2h-8zm-28 0h8v2h-8z"/>
            <path fill="#ECF1F6" stroke="#94B2C1" stroke-linejoin="round" stroke-width="2" d="M34 13h14v4H34z"/>
            <path fill="#94B2C1" d="M81 14h8v2h-8zm-10 0h8v2h-8zm-10 0h8v2h-8z"/>
        </g>
        <path fill="#ECF1F6" stroke="#94B2C1" stroke-linejoin="round" stroke-width="2"
              d="M68.93 68c-.51 0-.93.45-.93 1v18c0 .55.42 1 .93 1h26.14c.51 0 .93-.45.93-1V69c0-.55-.42-1-.93-1H68.93z"/>
        <path fill="#FFF"
              d="M86.98 77.38L84 81.62 85.53 84h5.58c.75 0 1.17-1.04.68-1.73l-3.44-4.89c-.35-.5-1-.5-1.36 0"/>
        <path fill="#FFF" stroke="#94B2C1" stroke-linejoin="round" stroke-width="2"
              d="M86.98 77.38L84 81.62 85.53 84h5.58c.75 0 1.17-1.04.68-1.73l-3.44-4.89c-.35-.5-1-.5-1.36 0z"/>
        <path fill="#FFF" d="M72.23 82.28l6.04-7.93c.38-.49 1.04-.46 1.39.06L86 84H72.9c-.77 0-1.19-1.05-.67-1.72"/>
        <path fill="#FFF" stroke="#94B2C1" stroke-linejoin="round" stroke-width="2"
              d="M72.23 82.28l6.04-7.93c.38-.49 1.04-.46 1.39.06L86 84H72.9c-.77 0-1.19-1.05-.67-1.72z"/>
        <path fill="#FFF" d="M87 73a2 2 0 11-4 0 2 2 0 014 0"/>
        <path fill="#FFF" stroke="#94B2C1" stroke-linejoin="round" stroke-width="2"
              d="M87 73a2 2 0 11-4 0 2 2 0 014 0z"/>
        <path fill="#ECF1F6" stroke="#94B2C1" stroke-linejoin="round" stroke-width="2"
              d="M34.93 68c-.51 0-.93.45-.93 1v18c0 .55.42 1 .93 1h26.14c.51 0 .93-.45.93-1V69c0-.55-.42-1-.93-1H34.93z"/>
        <path fill="#FFF"
              d="M52.98 77.38L50 81.62 51.53 84h5.58c.75 0 1.17-1.04.68-1.73l-3.44-4.89c-.35-.5-1-.5-1.36 0"/>
        <path fill="#FFF" stroke="#94B2C1" stroke-linejoin="round" stroke-width="2"
              d="M52.98 77.38L50 81.62 51.53 84h5.58c.75 0 1.17-1.04.68-1.73l-3.44-4.89c-.35-.5-1-.5-1.36 0z"/>
        <path fill="#FFF" stroke="#94B2C1" stroke-linejoin="round" stroke-width="2"
              d="M38.23 82.28l6.04-7.93c.37-.49 1.04-.46 1.39.06L52 84H38.9c-.77 0-1.19-1.05-.67-1.72"/>
        <path stroke="#94B2C1" stroke-linejoin="round" stroke-width="2"
              d="M38.23 82.28l6.04-7.93c.37-.49 1.04-.46 1.39.06L52 84H38.9c-.77 0-1.19-1.05-.67-1.72z"/>
        <path fill="#FFF" stroke="#94B2C1" stroke-linejoin="round" stroke-width="2"
              d="M53 73a2 2 0 11-4 0 2 2 0 014 0"/>
        <path stroke="#94B2C1" stroke-linejoin="round" stroke-width="2" d="M53 73a2 2 0 11-4 0 2 2 0 014 0z"/>
        <g>
            <path fill="#ECF1F6" stroke="#94B2C1" stroke-linejoin="round" stroke-width="2"
                  d="M102.93 68c-.51 0-.93.45-.93 1v18c0 .55.42 1 .93 1h26.14c.51 0 .93-.45.93-1V69c0-.55-.42-1-.93-1h-26.14z"/>
            <path fill="#FFF"
                  d="M120.98 77.38L118 81.62l1.53 2.38h5.58c.75 0 1.17-1.04.68-1.73l-3.44-4.89c-.35-.5-1-.5-1.36 0"/>
            <path fill="#FFF" stroke="#94B2C1" stroke-linejoin="round" stroke-width="2"
                  d="M120.98 77.38L118 81.62l1.53 2.38h5.58c.75 0 1.17-1.04.68-1.73l-3.44-4.89c-.35-.5-1-.5-1.36 0z"/>
            <path fill="#FFF"
                  d="M106.23 82.28l6.04-7.93c.38-.49 1.04-.46 1.39.06L120 84h-13.1c-.77 0-1.19-1.05-.67-1.72"/>
            <path fill="#FFF" stroke="#94B2C1" stroke-linejoin="round" stroke-width="2"
                  d="M106.23 82.28l6.04-7.93c.38-.49 1.04-.46 1.39.06L120 84h-13.1c-.77 0-1.19-1.05-.67-1.72z"/>
            <path fill="#FFF" d="M121 73a2 2 0 11-4 0 2 2 0 014 0"/>
            <path fill="#FFF" stroke="#94B2C1" stroke-linejoin="round" stroke-width="2"
                  d="M121 73a2 2 0 11-4 0 2 2 0 014 0z"/>
        </g>
        <g>
            <path fill="#FFF" stroke="#94B2C1" stroke-linejoin="round" stroke-width="2"
                  d="M102.93 94c-.51 0-.93.45-.93 1v18c0 .55.42 1 .93 1h26.14c.51 0 .93-.45.93-1V95c0-.55-.42-1-.93-1h-26.14z"/>
            <path fill="#FFF" stroke="#94B2C1" stroke-linejoin="round" stroke-width="2"
                  d="M120.98 103.38l-2.98 4.24 1.53 2.38h5.58c.75 0 1.17-1.04.68-1.73l-3.44-4.89c-.35-.5-1-.5-1.36 0"/>
            <path fill="#ECF1F6" stroke="#94B2C1" stroke-linejoin="round" stroke-width="2"
                  d="M120.98 103.38l-2.98 4.24 1.53 2.38h5.58c.75 0 1.17-1.04.68-1.73l-3.44-4.89c-.35-.5-1-.5-1.36 0z"/>
            <path fill="#FFF" stroke="#94B2C1" stroke-linejoin="round" stroke-width="2"
                  d="M106.23 108.28l6.04-7.93c.38-.49 1.04-.46 1.39.06L120 110h-13.1c-.77 0-1.19-1.05-.67-1.72"/>
            <path fill="#ECF1F6" stroke="#94B2C1" stroke-linejoin="round" stroke-width="2"
                  d="M106.23 108.28l6.04-7.93c.38-.49 1.04-.46 1.39.06L120 110h-13.1c-.77 0-1.19-1.05-.67-1.72z"/>
            <path fill="#ECF1F6" d="M121 99a2 2 0 11-4 0 2 2 0 014 0"/>
            <path fill="#ECF1F6" stroke="#94B2C1" stroke-linejoin="round" stroke-width="2"
                  d="M121 99a2 2 0 11-4 0 2 2 0 014 0z"/>
        </g>
        <g>
            <path fill="#ECF1F6" stroke="#94B2C1" stroke-linejoin="round" stroke-width="2"
                  d="M34.93 94c-.51 0-.93.45-.93 1v18c0 .55.42 1 .93 1h26.14c.51 0 .93-.45.93-1V95c0-.55-.42-1-.93-1H34.93z"/>
            <path fill="#FFF"
                  d="M52.98 103.38L50 107.62l1.53 2.38h5.58c.75 0 1.17-1.04.68-1.73l-3.44-4.89c-.35-.5-1-.5-1.36 0"/>
            <path fill="#FFF" stroke="#94B2C1" stroke-linejoin="round" stroke-width="2"
                  d="M52.98 103.38L50 107.62l1.53 2.38h5.58c.75 0 1.17-1.04.68-1.73l-3.44-4.89c-.35-.5-1-.5-1.36 0z"/>
            <path fill="#FFF"
                  d="M38.23 108.28l6.04-7.93c.37-.49 1.04-.46 1.39.06L52 110H38.9c-.77 0-1.19-1.05-.67-1.72"/>
            <path fill="#FFF" stroke="#94B2C1" stroke-linejoin="round" stroke-width="2"
                  d="M38.23 108.28l6.04-7.93c.37-.49 1.04-.46 1.39.06L52 110H38.9c-.77 0-1.19-1.05-.67-1.72z"/>
            <path fill="#FFF" d="M53 99a2 2 0 11-4 0 2 2 0 014 0"/>
            <path fill="#FFF" stroke="#94B2C1" stroke-linejoin="round" stroke-width="2"
                  d="M53 99a2 2 0 11-4 0 2 2 0 014 0z"/>
        </g>
        <g stroke-linejoin="round">
            <path fill="#ECF1F6" stroke="#94B2C1" stroke-width="2"
                  d="M68.93 94c-.51 0-.93.45-.93 1v18c0 .55.42 1 .93 1h26.14c.51 0 .93-.45.93-1V95c0-.55-.42-1-.93-1H68.93z"/>
            <path fill="#FFF"
                  d="M86.98 103.38L84 107.62l1.53 2.38h5.58c.75 0 1.17-1.04.68-1.73l-3.44-4.89c-.35-.5-1-.5-1.36 0"/>
            <path fill="#FFF" stroke="#94B2C1" stroke-width="2"
                  d="M86.98 103.38L84 107.62l1.53 2.38h5.58c.75 0 1.17-1.04.68-1.73l-3.44-4.89c-.35-.5-1-.5-1.36 0z"/>
            <path fill="#FFF"
                  d="M72.23 108.28l6.04-7.93c.38-.49 1.04-.46 1.39.06L86 110H72.9c-.77 0-1.19-1.05-.67-1.72"/>
            <path fill="#FFF" stroke="#94B2C1" stroke-width="2"
                  d="M72.23 108.28l6.04-7.93c.38-.49 1.04-.46 1.39.06L86 110H72.9c-.77 0-1.19-1.05-.67-1.72z"/>
            <path fill="#FFF" d="M87 99a2 2 0 11-4 0 2 2 0 014 0"/>
            <path fill="#FFF" stroke="#94B2C1" stroke-width="2" d="M87 99a2 2 0 11-4 0 2 2 0 014 0z"/>
        </g>
        <g>
            <path fill="#ECF1F6"
                  d="M140.28 141.25c-.51 1.9-1.55 1.96-2.3.15l-11.7-28.2c-.76-1.81.1-2.68 1.91-1.93l28.08 11.75c1.81.76 1.75 1.8-.15 2.32l-9 2.47a6.96 6.96 0 00-4.38 4.4l-2.46 9.04z"/>
            <path stroke="#94B2C1" stroke-linejoin="round" stroke-width="2"
                  d="M140.28 141.25c-.51 1.9-1.55 1.96-2.3.15l-11.7-28.2c-.76-1.81.1-2.68 1.91-1.93l28.08 11.75c1.81.76 1.75 1.8-.15 2.32l-9 2.47a6.96 6.96 0 00-4.38 4.4l-2.46 9.04z"/>
        </g>
        <g>
            <path stroke="#94B2C1" stroke-linejoin="round" stroke-width="2"
                  d="M84 34c0-2.84-3.16-6-6-6 2.84 0 6-3.16 6-6 0 2.84 3.16 6 6 6-2.84 0-6 3.16-6 6z"/>
            <path fill="#94B2C1"
                  d="M99.7 15.3l1.42 1.4 1.42-1.4a1 1 0 011.41 1.4l-1.42 1.42 1.42 1.42a1 1 0 01-1.41 1.41l-1.42-1.41-1.41 1.41a1 1 0 01-1.42-1.41l1.42-1.42-1.42-1.41a1 1 0 011.42-1.42z"/>
            <path stroke="#94B2C1" stroke-linejoin="round" stroke-width="2"
                  d="M144.33 13.85a.34.34 0 01.34 0l4.02 2.3a.34.34 0 00.46-.46l-2.3-4.02a.34.34 0 010-.34l2.3-4.02a.34.34 0 10-.46-.46l-4.02 2.3a.34.34 0 01-.34 0l-4.02-2.3a.34.34 0 00-.46.46l2.3 4.02a.34.34 0 010 .34l-2.3 4.02a.34.34 0 10.46.46l4.02-2.3zm-125.29-.57a.34.34 0 01.24-.23l4.47-1.22a.34.34 0 000-.66l-4.47-1.22a.34.34 0 01-.24-.23l-1.21-4.47a.34.34 0 10-.66 0l-1.22 4.47a.34.34 0 01-.23.23l-4.47 1.22a.34.34 0 000 .66l4.47 1.22a.34.34 0 01.23.23l1.22 4.47a.34.34 0 00.66 0l1.21-4.47z"/>
            <path fill="#94B2C1"
                  d="M6.7 40.3l1.42 1.4 1.42-1.4a1 1 0 111.41 1.4l-1.41 1.42 1.41 1.42a1 1 0 01-1.41 1.41l-1.42-1.42-1.41 1.42a1 1 0 11-1.42-1.41l1.42-1.42-1.42-1.41a1 1 0 011.42-1.42z"/>
        </g>
        <g>
            <path fill="#FFF"
                  d="M65.88 116.25a4.83 4.83 0 00-3-1.06 4.88 4.88 0 00-4.89 4.87c0 .64.31.45-.88.45-2.9 0-5.33 2-6 4.69-1.43-1.77-4.65 1.05-4.65-7.52H42.9c0 8.54-3.23 5.75-4.65 7.52a6.2 6.2 0 00-6-4.7c-1.2 0-.89.2-.89-.44a4.88 4.88 0 00-4.88-4.87 4.84 4.84 0 00-3 1.06 10.2 10.2 0 00-8.54-4.61 10.2 10.2 0 00-10.2 10.2c0 2.99 1.3 7.8 3.34 9.67h73.18c2.05-1.87 3.35-6.68 3.35-9.67a10.2 10.2 0 00-10.2-10.2 10.2 10.2 0 00-8.54 4.6z"/>
            <path stroke="#94B2C1" stroke-linejoin="round" stroke-width="2"
                  d="M26.64 124.05a6.21 6.21 0 015.62-3.54m-10.65-.45a4.88 4.88 0 014.88-4.87m36.23 8.86a6.21 6.21 0 00-5.61-3.54m10.65-.45a4.88 4.88 0 00-4.88-4.87"/>
            <path stroke="#94B2C1" stroke-linejoin="round" stroke-width="2"
                  d="M74.41 111.64a10.2 10.2 0 00-8.53 4.6 4.83 4.83 0 00-3-1.05 4.88 4.88 0 00-4.89 4.87c0 .64.31.45-.88.45-2.9 0-5.33 2-6 4.69-1.43-1.77-4.65-.02-4.65-8.59H42.9c0 8.54-3.23 6.82-4.65 8.59a6.2 6.2 0 00-6-4.7c-1.2 0-.89.2-.89-.44a4.88 4.88 0 00-4.88-4.87 4.84 4.84 0 00-3 1.06 10.2 10.2 0 00-8.54-4.61 10.2 10.2 0 00-10.2 10.2c0 2.99 1.3 7.8 3.34 9.67h73.18c2.05-1.87 3.35-6.68 3.35-9.67a10.2 10.2 0 00-10.2-10.2z"/>
        </g>
        <g transform="translate(33 3)">
            <path stroke="#94B2C1" stroke-linejoin="round" stroke-width="2" d="M3 22h12"/>
            <path fill="#ECF1F6" stroke="#94B2C1" stroke-linejoin="round" stroke-width="2"
                  d="M15 33.38c0 3.14-4 5.62-4 5.62s-4-2.48-4-5.63S9.73 30 11 30s4 .23 4 3.38z"/>
            <path fill="#FFF" stroke="#94B2C1" stroke-linejoin="round" stroke-width="2"
                  d="M3.87 21l-1.7.95A4.37 4.37 0 000 25.78v6.14c0 .4.2.77.53.95a.94.94 0 001.02-.05L6 29.62M18.13 21l1.7.95A4.36 4.36 0 0122 25.78v6.14c0 .4-.2.77-.53.95a.94.94 0 01-1.02-.05L16 29.62M11 0L4.39 5.77a7.07 7.07 0 00-2.2 6.92L6.58 30h8.82l4.4-17.3a7.07 7.07 0 00-2.2-6.93L11 0z"/>
            <path fill="#94B2C1" d="M5 23h12v2H5z"/>
            <circle cx="11" cy="12" r="3" fill="#ECF1F6" stroke="#94B2C1" stroke-linejoin="round" stroke-width="2"/>
        </g>
        <g>
            <path fill="#FFF" d="M151 48a14 14 0 11-28 0 14 14 0 0128 0"/>
            <path stroke="#94B2C1" stroke-linejoin="round" stroke-width="2"
                  d="M151 48a14 14 0 11-28 0 14 14 0 0128 0z"/>
            <path fill="#94B2C1" fill-rule="nonzero"
                  d="M136 41v8.16c0 .14-.12.25-.26.25H134a1 1 0 00-.91.57.96.96 0 00.15 1.05l3 3.63a1 1 0 001.51 0l3-3.63a.96.96 0 00.16-1.05 1 1 0 00-.91-.57h-1.74a.26.26 0 01-.26-.25V41h-2z"/>
        </g>
    </g>
</svg>
