<?xml version="1.0" encoding="utf-8"?>
<!-- Generator: Adobe Illustrator 21.0.2, SVG Export Plug-In . SVG Version: 6.00 Build 0)  -->
<svg version="1.1"
	 id="Layer_1" xmlns:cc="http://creativecommons.org/ns#" xmlns:dc="http://purl.org/dc/elements/1.1/" xmlns:inkscape="http://www.inkscape.org/namespaces/inkscape" xmlns:rdf="http://www.w3.org/1999/02/22-rdf-syntax-ns#" xmlns:sodipodi="http://sodipodi.sourceforge.net/DTD/sodipodi-0.dtd" xmlns:svg="http://www.w3.org/2000/svg"
	 xmlns="http://www.w3.org/2000/svg" xmlns:xlink="http://www.w3.org/1999/xlink" x="0px" y="0px" viewBox="0 0 45 45"
	 style="enable-background:new 0 0 45 45;" xml:space="preserve">
<g transform="translate(0,-952.36218)">
	<path d="M27.6,953.9c-0.1,0-0.2,0.1-0.3,0.2l-16.5,23c-0.1,0.1-0.1,0.2-0.1,0.3l-0.5,9.5c0,0.2,0.1,0.4,0.3,0.5l0.7,0.4l-4.4,7.4
		c-0.1,0.2-0.1,0.5,0.2,0.7c0.1,0.1,0.2,0.1,0.3,0.1h5c0.2,0,0.3-0.1,0.4-0.2l3.5-5.3l0.8,0.4c0.2,0.1,0.3,0.1,0.5,0l8-5
		c0.1-0.1,0.1-0.1,0.2-0.2l12-25.5c0.1-0.2,0-0.5-0.2-0.6l-9.5-5.5C27.9,953.9,27.8,953.8,27.6,953.9z M27.9,955l8.7,5l-11.8,25
		l-7.6,4.8l-6-3.2l0.5-8.4l10.3,5.9c0.2,0.2,0.5,0.1,0.7-0.1s0.1-0.5-0.1-0.7c0,0-0.1,0-0.1-0.1l-10.5-6L27.9,955z M28.5,960.9
		c-1,0-2,0.5-2.6,1.4l-5.3,9.2c-0.8,1.4-0.3,3.1,1,3.9c1.4,0.8,3.1,0.3,3.9-1l5.3-9.2c0.8-1.4,0.3-3.1-1-3.9
		C29.4,961,28.9,960.9,28.5,960.9z M28.3,961.9c0.4,0,0.7,0.1,1.1,0.2c0.9,0.5,1.2,1.7,0.7,2.6l-5.3,9.2c-0.5,0.9-1.6,1.2-2.5,0.7
		s-1.2-1.7-0.7-2.6l5.3-9.2C27.1,962.2,27.7,961.9,28.3,961.9z M12.1,988.1l3.2,1.7l-3.3,5H8.1L12.1,988.1z M15.6,994.9
		c-0.3,0-0.5,0.3-0.5,0.5c0,0.3,0.3,0.5,0.5,0.5h15c0.3,0,0.5-0.2,0.5-0.5c0-0.3-0.2-0.5-0.5-0.5c0,0,0,0,0,0H15.6
		C15.7,994.9,15.7,994.9,15.6,994.9z"/>
</g>
</svg>
