<svg width="32" height="32" viewBox="0 0 32 32" fill="none" xmlns="http://www.w3.org/2000/svg">
<path d="M15.9999 17.3332C16.7363 17.3332 17.3333 16.7362 17.3333 15.9998C17.3333 15.2635 16.7363 14.6665 15.9999 14.6665C15.2635 14.6665 14.6666 15.2635 14.6666 15.9998C14.6666 16.7362 15.2635 17.3332 15.9999 17.3332Z" stroke="#1E1E1E" stroke-width="3" stroke-linecap="round" stroke-linejoin="round"/>
<path d="M25.3333 17.3332C26.0696 17.3332 26.6666 16.7362 26.6666 15.9998C26.6666 15.2635 26.0696 14.6665 25.3333 14.6665C24.5969 14.6665 23.9999 15.2635 23.9999 15.9998C23.9999 16.7362 24.5969 17.3332 25.3333 17.3332Z" stroke="#1E1E1E" stroke-width="3" stroke-linecap="round" stroke-linejoin="round"/>
<path d="M6.66659 17.3332C7.40297 17.3332 7.99992 16.7362 7.99992 15.9998C7.99992 15.2635 7.40297 14.6665 6.66659 14.6665C5.93021 14.6665 5.33325 15.2635 5.33325 15.9998C5.33325 16.7362 5.93021 17.3332 6.66659 17.3332Z" stroke="#1E1E1E" stroke-width="3" stroke-linecap="round" stroke-linejoin="round"/>
</svg>
