<svg width="22" height="24" viewBox="0 0 22 24" fill="none" xmlns="http://www.w3.org/2000/svg">
<path d="M14.6635 7.24759C15.4302 7.24711 16.1734 6.97994 16.7683 6.49093C17.3632 6.00192 17.7736 5.32084 17.9306 4.56206H20.832C20.9642 4.56112 21.0931 4.52083 21.2028 4.44623C21.3124 4.37162 21.3979 4.26601 21.4486 4.14258C21.4992 4.01915 21.5128 3.88336 21.4876 3.75218C21.4624 3.621 21.3995 3.50023 21.3069 3.40495C21.1803 3.27861 21.0098 3.20738 20.832 3.2065H17.9353C17.7823 2.44277 17.3728 1.75605 16.7762 1.26277C16.1796 0.769488 15.4326 0.5 14.662 0.5C13.8913 0.5 13.1443 0.769488 12.5477 1.26277C11.9511 1.75605 11.5416 2.44277 11.3886 3.2065H1.16956C0.997402 3.21496 0.835068 3.29006 0.716189 3.41624C0.59731 3.54242 0.531001 3.71001 0.531001 3.88428C0.531001 4.05855 0.59731 4.22614 0.716189 4.35232C0.835068 4.4785 0.997402 4.5536 1.16956 4.56206H11.3949C11.552 5.32138 11.9629 6.00286 12.5584 6.49194C13.154 6.98101 13.8979 7.24785 14.6651 7.24759M14.6651 5.83921C14.4095 5.83921 14.1563 5.78829 13.9201 5.68936C13.6839 5.59044 13.4692 5.44544 13.2884 5.26264C13.1076 5.07985 12.9642 4.86284 12.8664 4.624C12.7686 4.38517 12.7182 4.12919 12.7182 3.87068C12.7182 3.61216 12.7686 3.35618 12.8664 3.11735C12.9642 2.87852 13.1076 2.66151 13.2884 2.47871C13.4692 2.29592 13.6839 2.15092 13.9201 2.05199C14.1563 1.95306 14.4095 1.90214 14.6651 1.90214C15.1815 1.90214 15.6767 2.10954 16.0418 2.47871C16.4069 2.84788 16.6121 3.34859 16.6121 3.87068C16.6121 4.39276 16.4069 4.89347 16.0418 5.26264C15.6767 5.63181 15.1815 5.83921 14.6651 5.83921ZM7.69416 15.405C8.46371 15.4054 9.20978 15.1371 9.80623 14.6454C10.4027 14.1537 10.8129 13.4689 10.9675 12.7067L20.8336 12.6955C20.9654 12.6942 21.094 12.6538 21.2033 12.5793C21.3127 12.5048 21.3979 12.3994 21.4485 12.2763C21.4991 12.1532 21.5128 12.0178 21.4879 11.8869C21.463 11.7559 21.4006 11.6353 21.3084 11.54C21.1819 11.4136 21.0114 11.3424 20.8336 11.3415L10.9675 11.3511C10.8123 10.59 10.4021 9.90625 9.80619 9.41533C9.2103 8.92442 8.46518 8.65635 7.69653 8.65635C6.92788 8.65635 6.18276 8.92442 5.58687 9.41533C4.99098 9.90625 4.5808 10.59 4.42552 11.3511L1.16956 11.3415C0.991978 11.3415 0.821674 11.4128 0.696108 11.5398C0.570542 11.6667 0.5 11.8389 0.5 12.0185C0.5 12.198 0.570542 12.3702 0.696108 12.4972C0.821674 12.6241 0.991978 12.6955 1.16956 12.6955L4.42552 12.7067C4.58005 13.4684 4.98981 14.1528 5.58561 14.6444C6.1814 15.136 6.92515 15.4046 7.69416 15.405ZM7.69574 13.9966C7.17938 13.9966 6.68417 13.7892 6.31905 13.4201C5.95393 13.0509 5.74881 12.5502 5.74881 12.0281C5.74881 11.506 5.95393 11.0053 6.31905 10.6361C6.68417 10.267 7.17938 10.0596 7.69574 10.0596C8.2121 10.0596 8.70731 10.267 9.07243 10.6361C9.43755 11.0053 9.64267 11.506 9.64267 12.0281C9.64267 12.5502 9.43755 13.0509 9.07243 13.4201C8.70731 13.7892 8.2121 13.9966 7.69574 13.9966ZM14.6572 23.5C15.4285 23.4998 16.176 23.2296 16.7727 22.7354C17.3694 22.2412 17.7785 21.5534 17.9306 20.7889L20.832 20.8305C20.9642 20.8295 21.0931 20.7892 21.2028 20.7146C21.3124 20.64 21.3979 20.5344 21.4486 20.411C21.4992 20.2876 21.5128 20.1518 21.4876 20.0206C21.4624 19.8894 21.3995 19.7686 21.3069 19.6734C21.1803 19.547 21.0098 19.4758 20.832 19.4749L17.9258 19.4317C17.7684 18.6731 17.3575 17.9923 16.7624 17.5037C16.1672 17.0152 15.4239 16.7485 14.6572 16.7485C13.8906 16.7485 13.1473 17.0152 12.5521 17.5037C11.9569 17.9923 11.5461 18.6731 11.3886 19.4317L1.16797 19.4749C0.99582 19.4834 0.833485 19.5585 0.714606 19.6847C0.595727 19.8108 0.529418 19.9784 0.529418 20.1527C0.529418 20.327 0.595727 20.4945 0.714606 20.6207C0.833485 20.7469 0.99582 20.822 1.16797 20.8305L11.3838 20.7889C11.5359 21.5534 11.945 22.2412 12.5417 22.7354C13.1384 23.2296 13.8859 23.4998 14.6572 23.5ZM14.6572 22.0916C14.1409 22.0916 13.6456 21.8842 13.2805 21.515C12.9154 21.1459 12.7103 20.6452 12.7103 20.1231C12.7103 19.601 12.9154 19.1003 13.2805 18.7311C13.6456 18.3619 14.1409 18.1545 14.6572 18.1545C15.1736 18.1545 15.6688 18.3619 16.0339 18.7311C16.399 19.1003 16.6041 19.601 16.6041 20.1231C16.6041 20.6452 16.399 21.1459 16.0339 21.515C15.6688 21.8842 15.1736 22.0916 14.6572 22.0916Z" fill="black"/>
<path d="M14.6635 7.24759C15.4302 7.24711 16.1734 6.97994 16.7683 6.49093C17.3632 6.00192 17.7736 5.32084 17.9306 4.56206H20.832C20.9642 4.56112 21.0931 4.52083 21.2028 4.44623C21.3124 4.37162 21.3979 4.26601 21.4486 4.14258C21.4992 4.01915 21.5128 3.88336 21.4876 3.75218C21.4624 3.621 21.3995 3.50023 21.3069 3.40495C21.1803 3.27861 21.0098 3.20738 20.832 3.2065H17.9353C17.7823 2.44277 17.3728 1.75605 16.7762 1.26277C16.1796 0.769488 15.4326 0.5 14.662 0.5C13.8913 0.5 13.1443 0.769488 12.5477 1.26277C11.9511 1.75605 11.5416 2.44277 11.3886 3.2065H1.16956C0.997402 3.21496 0.835068 3.29006 0.716189 3.41624C0.59731 3.54242 0.531001 3.71001 0.531001 3.88428C0.531001 4.05855 0.59731 4.22614 0.716189 4.35232C0.835068 4.4785 0.997402 4.5536 1.16956 4.56206H11.3949C11.552 5.32138 11.9629 6.00286 12.5584 6.49194C13.154 6.98101 13.8979 7.24785 14.6651 7.24759M14.6651 5.83921C14.4095 5.83921 14.1563 5.78829 13.9201 5.68937C13.6839 5.59044 13.4692 5.44544 13.2884 5.26264C13.1076 5.07985 12.9642 4.86284 12.8664 4.624C12.7686 4.38517 12.7182 4.12919 12.7182 3.87068C12.7182 3.61217 12.7686 3.35618 12.8664 3.11735C12.9642 2.87852 13.1076 2.66151 13.2884 2.47871C13.4692 2.29592 13.6839 2.15092 13.9201 2.05199C14.1563 1.95306 14.4095 1.90214 14.6651 1.90214C15.1815 1.90214 15.6767 2.10954 16.0418 2.47871C16.4069 2.84788 16.6121 3.34859 16.6121 3.87068C16.6121 4.39276 16.4069 4.89347 16.0418 5.26264C15.6767 5.63181 15.1815 5.83921 14.6651 5.83921ZM7.69416 15.405C8.46371 15.4054 9.20978 15.1371 9.80623 14.6454C10.4027 14.1537 10.8129 13.4689 10.9675 12.7067L20.8336 12.6955C20.9654 12.6942 21.094 12.6538 21.2033 12.5793C21.3127 12.5048 21.3979 12.3994 21.4485 12.2763C21.4991 12.1532 21.5128 12.0178 21.4879 11.8869C21.463 11.7559 21.4006 11.6353 21.3084 11.54C21.1819 11.4136 21.0114 11.3424 20.8336 11.3415L10.9675 11.3511C10.8123 10.59 10.4021 9.90625 9.80619 9.41533C9.2103 8.92442 8.46518 8.65635 7.69653 8.65635C6.92788 8.65635 6.18276 8.92442 5.58687 9.41533C4.99098 9.90625 4.5808 10.59 4.42552 11.3511L1.16956 11.3415C0.991978 11.3415 0.821674 11.4128 0.696108 11.5398C0.570542 11.6667 0.5 11.8389 0.5 12.0185C0.5 12.198 0.570542 12.3702 0.696108 12.4972C0.821674 12.6241 0.991978 12.6955 1.16956 12.6955L4.42552 12.7067C4.58005 13.4684 4.98981 14.1528 5.58561 14.6444C6.1814 15.136 6.92515 15.4046 7.69416 15.405ZM7.69574 13.9966C7.17938 13.9966 6.68417 13.7892 6.31905 13.4201C5.95393 13.0509 5.74881 12.5502 5.74881 12.0281C5.74881 11.506 5.95393 11.0053 6.31905 10.6361C6.68417 10.267 7.17938 10.0596 7.69574 10.0596C8.2121 10.0596 8.70731 10.267 9.07243 10.6361C9.43755 11.0053 9.64267 11.506 9.64267 12.0281C9.64267 12.5502 9.43755 13.0509 9.07243 13.4201C8.70731 13.7892 8.2121 13.9966 7.69574 13.9966ZM14.6572 23.5C15.4285 23.4998 16.176 23.2296 16.7727 22.7354C17.3694 22.2412 17.7785 21.5534 17.9306 20.7889L20.832 20.8305C20.9642 20.8295 21.0931 20.7892 21.2028 20.7146C21.3124 20.64 21.3979 20.5344 21.4486 20.411C21.4992 20.2876 21.5128 20.1518 21.4876 20.0206C21.4624 19.8894 21.3995 19.7686 21.3069 19.6734C21.1803 19.547 21.0098 19.4758 20.832 19.4749L17.9258 19.4317C17.7684 18.6731 17.3575 17.9923 16.7624 17.5037C16.1672 17.0152 15.4239 16.7485 14.6572 16.7485C13.8906 16.7485 13.1473 17.0152 12.5521 17.5037C11.9569 17.9923 11.5461 18.6731 11.3886 19.4317L1.16797 19.4749C0.99582 19.4834 0.833485 19.5585 0.714606 19.6847C0.595727 19.8108 0.529418 19.9784 0.529418 20.1527C0.529418 20.327 0.595727 20.4945 0.714606 20.6207C0.833485 20.7469 0.99582 20.822 1.16797 20.8305L11.3838 20.7889C11.5359 21.5534 11.945 22.2412 12.5417 22.7354C13.1384 23.2296 13.8859 23.4998 14.6572 23.5ZM14.6572 22.0916C14.1409 22.0916 13.6456 21.8842 13.2805 21.515C12.9154 21.1459 12.7103 20.6452 12.7103 20.1231C12.7103 19.601 12.9154 19.1003 13.2805 18.7311C13.6456 18.3619 14.1409 18.1545 14.6572 18.1545C15.1736 18.1545 15.6688 18.3619 16.0339 18.7311C16.399 19.1003 16.6041 19.601 16.6041 20.1231C16.6041 20.6452 16.399 21.1459 16.0339 21.515C15.6688 21.8842 15.1736 22.0916 14.6572 22.0916Z" stroke="black"/>
</svg>
