<?xml version="1.0" encoding="utf-8"?>
<!-- Generator: Adobe Illustrator 24.0.3, SVG Export Plug-In . SVG Version: 6.00 Build 0)  -->
<svg version="1.1" id="Layer_1" xmlns="http://www.w3.org/2000/svg" xmlns:xlink="http://www.w3.org/1999/xlink" x="0px" y="0px"
	 viewBox="0 0 572 189" style="enable-background:new 0 0 572 189;" xml:space="preserve">
<style type="text/css">
	.st0{enable-background:new    ;}
	.st1{fill:#FBEF60;}
	.st2{fill:#75CAC5;}
	.st3{fill:#76C491;}
	.st4{fill:#F05B5B;}
	.st5{fill:#F05829;}
	.st6{fill:#CA4E4A;}
	.st7{fill:#C84E35;}
</style>
<g class="st0">
	<path d="M203.6,46.8c8.3,0,15.5,3,21.5,9.1c6,6,9,13.4,9,22.1c0,8.6-3,15.9-8.9,21.8c-5.9,6-13.1,8.9-21.5,8.9
		c-8.8,0-16.2-3.1-22-9.2c-5.9-6.1-8.8-13.4-8.8-21.8c0-5.6,1.4-10.8,4.1-15.5s6.5-8.5,11.2-11.2C193,48.2,198.1,46.8,203.6,46.8z
		 M203.5,57.8c-5.5,0-10,1.9-13.8,5.7c-3.7,3.8-5.6,8.6-5.6,14.5c0,6.5,2.3,11.7,7,15.5c3.6,3,7.8,4.4,12.5,4.4
		c5.3,0,9.9-1.9,13.6-5.8c3.7-3.8,5.6-8.6,5.6-14.2c0-5.6-1.9-10.4-5.7-14.2C213.5,59.7,208.9,57.8,203.5,57.8z"/>
	<path d="M244.6,48.3h11.9c6.4,0,11.1,0.6,13.9,1.8c2.8,1.2,5.1,3.1,6.7,5.8c1.6,2.7,2.5,5.8,2.5,9.6c0,4.1-1.1,7.5-3.2,10.3
		c-2.1,2.7-5.1,4.6-8.8,5.7c-2.2,0.6-6.1,0.9-11.8,0.9v25h-11.2V48.3z M255.9,71.3h3.6c2.8,0,4.8-0.2,5.8-0.6c1.1-0.4,2-1.1,2.6-2
		c0.6-0.9,0.9-2,0.9-3.4c0-2.3-0.9-3.9-2.6-5c-1.3-0.8-3.7-1.2-7.1-1.2h-3.2V71.3z"/>
	<path d="M290.7,48.3h32.2v11h-21v10.7h21v10.8h-21v15.5h21v11h-32.2V48.3z"/>
</g>
<g class="st0">
	<path d="M333.3,48.3h10.8l25.2,38.8V48.3h11.2v58.9h-10.8l-25.2-38.7v38.7h-11.2V48.3z"/>
</g>
<g class="st0">
	<path d="M396.1,48.3h5.9v53.2h22.7v5.7h-28.6V48.3z"/>
	<path d="M458.1,48.3l27.5,58.9h-6.4l-9.3-19.4h-25.4l-9.2,19.4h-6.6l27.8-58.9H458.1z M457.3,60.8l-10.1,21.3h20.1L457.3,60.8z"/>
	<path d="M494.8,48.3h11.6c4.7,0,8.3,0.6,10.8,1.7c2.5,1.1,4.5,2.8,5.9,5.1c1.5,2.3,2.2,4.8,2.2,7.7c0,2.6-0.6,5-1.9,7.2
		c-1.3,2.2-3.2,3.9-5.6,5.2c3.1,1,5.4,2.3,7.1,3.7s2.9,3.1,3.9,5.1c0.9,2,1.4,4.1,1.4,6.5c0,4.7-1.7,8.7-5.2,12
		c-3.5,3.3-8.1,4.9-13.9,4.9h-16.2V48.3z M500.6,54.1v18.9h3.4c4.1,0,7.1-0.4,9-1.1c1.9-0.8,3.5-2,4.6-3.6s1.7-3.5,1.7-5.5
		c0-2.7-0.9-4.8-2.8-6.4c-1.9-1.5-4.9-2.3-9-2.3H500.6z M500.6,78.9v22.6h7.3c4.3,0,7.5-0.4,9.5-1.3s3.6-2.2,4.8-3.9
		c1.2-1.8,1.8-3.7,1.8-5.8c0-2.6-0.9-4.9-2.6-6.9c-1.7-1.9-4.1-3.3-7.1-4c-2-0.5-5.5-0.7-10.5-0.7H500.6z"/>
</g>
<g class="st0">
	<path d="M190.9,129.5l8.7,19.5H197l-2.2-5.1h-10.9l-2.2,5.1h-2.5l8.8-19.5H190.9z M194.1,142.4l-4.7-11h-0.1l-4.7,11H194.1z"/>
	<path d="M218.8,131H212v-1.5H228v1.5h-6.8v18h-2.5V131z"/>
	<path d="M267.2,139.3c0-5.3,0.1-10.1,8.4-10.1c6.8,0,6.9,3.9,6.9,5.6h-2.5c0-2.2-0.8-4.2-4.4-4.2c-5.9,0-5.9,3.5-5.9,8.7
		s0.1,8.7,5.9,8.7c3.2,0,4.4-2,4.4-4.5h2.6c0,1.4-0.5,6-7.1,6C267.3,149.4,267.2,144.5,267.2,139.3z"/>
	<path d="M303.8,129.5V149h-2.5v-19.5H303.8z"/>
	<path d="M328.2,131h-6.8v-1.5h16.1v1.5h-6.8v18h-2.5V131z"/>
	<path d="M360.3,140.9l-7.9-11.4h2.8l6.4,9.7l6.7-9.7h2.5l-7.9,11.4v8.1h-2.5V140.9z"/>
	<path d="M415.1,131h-6.8v-1.5h16.1v1.5h-6.8v18h-2.5V131z"/>
	<path d="M454.3,129.5v1.5h-10.1v7.3h9.7v1.5h-9.7v7.8h10.4v1.5h-12.9v-19.5H454.3z"/>
	<path d="M472.1,139.3c0-5.3,0.1-10.1,8.4-10.1c6.8,0,6.9,3.9,6.9,5.6h-2.5c0-2.2-0.8-4.2-4.4-4.2c-5.9,0-5.9,3.5-5.9,8.7
		s0.1,8.7,5.9,8.7c3.2,0,4.4-2,4.4-4.5h2.6c0,1.4-0.5,6-7.1,6C472.2,149.4,472.1,144.5,472.1,139.3z"/>
	<path d="M506,149v-19.5h2.5v8.8h11v-8.8h2.5V149h-2.5v-9.3h-11v9.3H506z"/>
</g>
<g>
	<path class="st1" d="M93.1,116.4c-0.2-0.2-0.5-0.4-0.7-0.6c-3.3,3.1-7.2,5.6-11.6,7c3.1,2.4,6.5,4.4,10.3,5.8
		c-0.8-1.4-1.3-3.1-1.3-4.9C89.8,120.9,91,118.3,93.1,116.4z"/>
	<path class="st1" d="M137.5,106.4c1.4,0,2.7,0.2,3.9,0.6c1.9-4.6,2.9-9.7,2.9-14.9c0-15.3-8.8-28.5-21.5-35c1.4,4.1,2.2,8.5,2.2,13
		c0,11.5-5,21.9-12.9,29c1.4,2.1,2.2,4.6,2.2,7.2c0,4.9-2.7,9.2-6.7,11.4c1.3,1.7,2.1,3.8,2.1,6.1c0,3-1.3,5.6-3.3,7.5
		c7-0.2,13.6-2.3,19.2-5.7c-0.9-1.8-1.3-3.8-1.3-5.8C124.2,112.4,130.2,106.4,137.5,106.4z"/>
	<path class="st1" d="M141.4,107c-3.2,7.7-8.8,14.2-15.8,18.5c2.2,4.4,6.7,7.4,11.9,7.4c7.3,0,13.3-5.9,13.3-13.3
		C150.8,113.7,146.9,108.7,141.4,107z"/>
	<path class="st1" d="M141.4,107c-1.2-0.4-2.5-0.6-3.9-0.6c-7.3,0-13.3,5.9-13.3,13.3c0,2.1,0.5,4.1,1.3,5.8
		C132.6,121.2,138.2,114.8,141.4,107z"/>
	<circle class="st1" cx="123.4" cy="150.8" r="8.6"/>
	<path class="st2" d="M70.8,62.3c2.6,0,5.2,0.3,7.6,1c7-6.5,16.3-10.4,26.6-10.4c6.4,0,12.4,1.5,17.7,4.2C117.5,41.9,103,31,86,31
		c-21.6,0-39.1,17.5-39.1,39.1c0,1.1,0,2.2,0.1,3.2C52.8,66.6,61.3,62.3,70.8,62.3z"/>
	<path class="st3" d="M78.5,63.2c13.5,3.4,23.4,15.6,23.5,30.1c4.3,0.2,8,2.5,10.2,5.8c7.9-7.2,12.9-17.5,12.9-29
		c0-4.6-0.8-9-2.2-13c-5.3-2.7-11.3-4.2-17.7-4.2C94.8,52.8,85.5,56.8,78.5,63.2z"/>
	<circle class="st2" cx="92.4" cy="148.7" r="6.2"/>
	<path class="st3" d="M92.4,115.8c0.2,0.2,0.4,0.4,0.7,0.6c1.8-1.6,4.1-2.6,6.7-2.6c3.2,0,6.1,1.5,7.9,3.9c4-2.2,6.7-6.5,6.7-11.4
		c0-2.7-0.8-5.2-2.2-7.2c-3.8,3.5-8.4,6.2-13.3,7.9C97.2,110.3,95,113.3,92.4,115.8z"/>
	<path class="st3" d="M101.9,93.3C101.9,93.3,101.9,93.3,101.9,93.3c0,5-1.1,9.6-3.1,13.7c5-1.7,9.5-4.4,13.3-7.9
		C109.9,95.8,106.2,93.5,101.9,93.3z"/>
	<path class="st2" d="M91,128.7c1.7,3.1,5,5.1,8.7,5.1c2.6,0,4.9-1,6.7-2.5c-0.4,0-0.9,0-1.3,0C100.2,131.3,95.4,130.4,91,128.7z"/>
	<path class="st3" d="M109.7,123.8c0-2.3-0.8-4.4-2.1-6.1c-1.9,1-4,1.6-6.3,1.6c-3.1,0-6-1.1-8.2-2.9c-2,1.8-3.3,4.5-3.3,7.4
		c0,1.8,0.5,3.4,1.3,4.9c4.4,1.7,9.1,2.6,14.1,2.6c0.4,0,0.9,0,1.3,0C108.4,129.5,109.7,126.8,109.7,123.8z"/>
	<path class="st3" d="M99.8,113.9c-2.6,0-4.9,1-6.7,2.6c2.2,1.8,5.1,2.9,8.2,2.9c2.3,0,4.4-0.6,6.3-1.6
		C105.8,115.4,103,113.9,99.8,113.9z"/>
	<path class="st4" d="M67.9,104.7c-11.6-6-19.7-17.7-20.9-31.4c-4.6,5.4-7.3,12.4-7.3,20.1c0,7.2,2.5,13.8,6.6,19.1
		c1.9-1.3,4.2-2.2,6.7-2.2c6.4,0,11.6,5.2,11.6,11.6c0,0.6-0.1,1.3-0.2,1.9c2.1,0.4,4.2,0.7,6.4,0.7c3.5,0,6.8-0.6,9.9-1.6
		C74.9,118.2,70.4,111.9,67.9,104.7z"/>
	<path class="st5" d="M88.6,109.1c-0.8,0.1-1.7,0.1-2.6,0.1c-6.5,0-12.7-1.6-18.1-4.4c2.5,7.2,7,13.5,12.8,18.1
		c4.4-1.5,8.3-3.9,11.6-7C90.5,114,89.1,111.7,88.6,109.1z"/>
	<path class="st6" d="M67.9,104.7c-1.3-4-2.1-8.2-2.1-12.7c0-11.4,4.9-21.7,12.6-28.8c-2.4-0.6-5-1-7.6-1c-9.5,0-18.1,4.3-23.8,11.1
		C48.2,87,56.4,98.7,67.9,104.7z"/>
	<path class="st7" d="M101.3,93.3c0.2,0,0.4,0,0.7,0c0-14.5-10-26.7-23.5-30.1c-7.8,7.2-12.6,17.4-12.6,28.8c0,4.4,0.7,8.7,2.1,12.7
		c5.4,2.8,11.6,4.4,18.1,4.4c0.9,0,1.7,0,2.6-0.1c-0.2-0.9-0.3-1.8-0.3-2.7C88.3,99.1,94.1,93.3,101.3,93.3z"/>
	<path class="st7" d="M98.8,107c-3.2,1.1-6.7,1.8-10.3,2.1c0.6,2.6,1.9,5,3.8,6.8C95,113.3,97.2,110.3,98.8,107z"/>
	<path class="st7" d="M102,93.4C102,93.3,102,93.3,102,93.4c-0.2-0.1-0.4-0.1-0.7-0.1c-7.2,0-13,5.8-13,13c0,0.9,0.1,1.9,0.3,2.7
		c3.6-0.2,7-0.9,10.3-2.1C100.8,102.9,102,98.3,102,93.4z"/>
	<path class="st4" d="M46.3,112.5c-3,2.1-4.9,5.6-4.9,9.4c0,6.4,5.2,11.6,11.6,11.6c5.8,0,10.5-4.2,11.4-9.7
		C57.2,122.3,50.8,118.2,46.3,112.5z"/>
	<path class="st4" d="M53,110.3c-2.5,0-4.8,0.8-6.7,2.2c4.5,5.7,10.8,9.8,18.2,11.3c0.1-0.6,0.2-1.2,0.2-1.9
		C64.6,115.5,59.4,110.3,53,110.3z"/>
	<circle class="st4" cx="60.9" cy="148.7" r="8.6"/>
</g>
</svg>
