<svg width="24" height="24" viewBox="0 0 24 24" fill="none" xmlns="http://www.w3.org/2000/svg">
<path fill-rule="evenodd" clip-rule="evenodd" d="M16.3609 1.61325C16.124 0.795583 14.8756 0.795583 14.6387 1.61325L14.3034 2.77142C13.5801 5.26682 12.5917 7.21606 9.9063 7.88796L8.66004 8.19983C7.77999 8.41995 7.77999 9.58005 8.66004 9.80017L9.9063 10.112C12.5917 10.7839 13.5801 12.7332 14.3034 15.2286L14.6387 16.3867C14.8756 17.2044 16.124 17.2044 16.3609 16.3867L16.6966 15.2286C17.4195 12.7332 18.4083 10.7839 21.0937 10.112L22.34 9.80017C23.22 9.58005 23.22 8.41995 22.34 8.19983C21.4599 7.97971 21.0937 7.88796 21.0937 7.88796C18.4083 7.21606 17.4195 5.26682 16.6966 2.77142L16.3609 1.61325Z" fill="url(#paint0_linear_14297_185)"/>
<path fill-rule="evenodd" clip-rule="evenodd" d="M6.01653 13.3833C5.8744 12.8722 5.12534 12.8722 4.98321 13.3833L4.78203 14.1071C4.34806 15.6668 3.75504 16.885 2.14378 17.305L1.39602 17.4999C0.867993 17.6375 0.867993 18.3625 1.39602 18.5001L2.14378 18.695C3.75504 19.115 4.34806 20.3332 4.78203 21.8929L4.98321 22.6167C5.12534 23.1278 5.8744 23.1278 6.01653 22.6167L6.21797 21.8929C6.65168 20.3332 7.24496 19.115 8.85622 18.695L9.60398 18.5001C10.132 18.3625 10.132 17.6375 9.60398 17.4999C9.07595 17.3623 8.85622 17.305 8.85622 17.305C7.24496 16.885 6.65168 15.6668 6.21797 14.1071L6.01653 13.3833Z" fill="url(#paint1_linear_14297_185)"/>
<defs>
<linearGradient id="paint0_linear_14297_185" x1="15.36" y1="16.8" x2="23.04" y2="1.44004" gradientUnits="userSpaceOnUse">
<stop stop-color="#FF02F0"/>
<stop offset="1" stop-color="#FFC800"/>
</linearGradient>
<linearGradient id="paint1_linear_14297_185" x1="5.28004" y1="23.04" x2="10.08" y2="13.44" gradientUnits="userSpaceOnUse">
<stop stop-color="#8930FD"/>
<stop offset="1" stop-color="#49CCF9"/>
</linearGradient>
</defs>
</svg>