<svg width="92" height="92" viewBox="0 0 92 92" fill="none" xmlns="http://www.w3.org/2000/svg">
<path d="M65.168 12.8042C70.9497 16.1425 75.7592 20.9329 79.1206 26.7012C82.482 32.4695 84.2785 39.0157 84.3324 45.6917C84.3864 52.3677 82.6958 58.942 79.428 64.7639C76.1603 70.5857 71.4287 75.4532 65.7017 78.8845C59.9747 82.3157 53.4509 84.1917 46.776 84.3268C40.1012 84.4619 33.5067 82.8514 27.6456 79.6547C21.7844 76.4579 16.8598 71.7859 13.3592 66.101C9.85857 60.4162 7.90337 53.9156 7.68714 47.2429L7.66797 46.0009L7.68714 44.7589C7.90181 38.1387 9.82824 31.6871 13.2786 26.033C16.7289 20.379 21.5855 15.7155 27.3747 12.4971C33.164 9.27876 39.6884 7.61541 46.3118 7.66923C52.9353 7.72306 59.4318 9.49221 65.168 12.8042ZM60.2115 35.6241C59.5514 34.964 58.6732 34.5676 57.7416 34.509C56.81 34.4504 55.889 34.7338 55.1515 35.3059L54.7911 35.6241L42.168 48.2434L37.2115 43.2907L36.8511 42.9726C36.1135 42.4008 35.1927 42.1178 34.2614 42.1766C33.33 42.2353 32.452 42.6318 31.7921 43.2917C31.1323 43.9516 30.7358 44.8296 30.677 45.7609C30.6182 46.6923 30.9012 47.6131 31.473 48.3507L31.7911 48.7111L39.4578 56.3777L39.8181 56.6959C40.4904 57.2175 41.3171 57.5006 42.168 57.5006C43.0188 57.5006 43.8455 57.2175 44.5178 56.6959L44.8781 56.3777L60.2115 41.0444L60.5296 40.6841C61.1018 39.9465 61.3851 39.0255 61.3265 38.0939C61.268 37.1623 60.8715 36.2841 60.2115 35.6241Z" fill="#4AB067"/>
</svg>
