<svg width="182" height="140" viewBox="0 0 182 140" fill="none" xmlns="http://www.w3.org/2000/svg">
    <g filter="url(#filter0_d_59033_7785)">
        <rect x="21" y="11" width="140" height="112.636" rx="5.09091" fill="black" shape-rendering="crispEdges"/>
        <rect x="20.6818" y="10.6818" width="140.636" height="113.273" rx="5.40909" stroke="#143852" stroke-opacity="0.1" stroke-width="0.636364" shape-rendering="crispEdges"/>
        <rect width="140" height="25.0909" transform="translate(21 40.2725)" fill="white" fill-opacity="0.15"/>
        <g clip-path="url(#clip0_59033_7785)">
            <rect x="31.1816" y="48.0459" width="13.3636" height="9.54545" rx="1.90909" fill="#1A47B8"/>
            <path fill-rule="evenodd" clip-rule="evenodd" d="M32.6033 48.0459H31.1816V49.6368L43.1159 57.5914L44.5453 57.5914V56.0004L32.6033 48.0459Z" fill="white"/>
            <path d="M31.6558 48.0459L44.5453 56.6594V57.5914H44.0822L31.1816 48.969V48.0459H31.6558Z" fill="#F93939"/>
            <path fill-rule="evenodd" clip-rule="evenodd" d="M43.2725 48.0459H44.5453V49.6368C44.5453 49.6368 36.2788 54.9365 32.4544 57.5914H31.1816V56.0004L43.2725 48.0459Z" fill="white"/>
            <path d="M44.5453 48.0459H44.1137L31.1816 56.6668V57.5914H31.6558L44.5453 48.976V48.0459Z" fill="#F93939"/>
            <path fill-rule="evenodd" clip-rule="evenodd" d="M36.0416 48.0459H39.6964V50.9902H44.5453V54.6451H39.6964V57.5914H36.0416V54.6451H31.1816V50.9902H36.0416V48.0459Z" fill="white"/>
            <path fill-rule="evenodd" clip-rule="evenodd" d="M36.8084 48.0459H38.9185V51.7172H44.5453V53.92H38.9185V57.5914H36.8084V53.92H31.1816V51.7172H36.8084V48.0459Z" fill="#F93939"/>
        </g>
        <path d="M50.576 56.8184V48.8689H51.6527V56.8184H50.576ZM51.3091 56.8184V55.8333H55.868V56.8184H51.3091ZM51.3091 53.2216V52.2824H55.49V53.2216H51.3091ZM51.3091 49.854V48.8689H55.8107V49.854H51.3091ZM60.9978 56.8184V53.6455C60.9978 53.2331 60.868 52.8933 60.6084 52.626C60.3487 52.3587 60.0127 52.2251 59.6004 52.2251C59.3255 52.2251 59.0811 52.2862 58.8673 52.4084C58.6535 52.5305 58.4855 52.6985 58.3633 52.9124C58.2411 53.1262 58.18 53.3705 58.18 53.6455L57.7562 53.4049C57.7562 52.9925 57.8478 52.626 58.0311 52.3053C58.2144 51.9845 58.4702 51.7325 58.7986 51.5493C59.1269 51.3584 59.4973 51.2629 59.9097 51.2629C60.322 51.2629 60.6847 51.366 60.9978 51.5722C61.3186 51.7784 61.5706 52.0495 61.7538 52.3855C61.9371 52.7138 62.0287 53.0651 62.0287 53.4393V56.8184H60.9978ZM57.1491 56.8184V51.3775H58.18V56.8184H57.1491ZM65.681 59.2124C65.1236 59.2124 64.6272 59.1093 64.192 58.9031C63.7643 58.6969 63.4207 58.4067 63.161 58.0325L63.8254 57.3567C64.0469 57.6393 64.3103 57.8531 64.6158 57.9982C64.9212 58.1509 65.284 58.2273 65.704 58.2273C66.2614 58.2273 66.7005 58.0784 67.0212 57.7805C67.3496 57.4904 67.5138 57.0971 67.5138 56.6007V55.2491L67.697 54.0235L67.5138 52.8093V51.3775H68.5447V56.6007C68.5447 57.12 68.4225 57.5744 68.1781 57.9638C67.9414 58.3533 67.6054 58.6587 67.1701 58.8802C66.7425 59.1016 66.2461 59.2124 65.681 59.2124ZM65.681 56.7267C65.1847 56.7267 64.738 56.6084 64.3409 56.3716C63.9514 56.1349 63.6421 55.8104 63.413 55.398C63.184 54.978 63.0694 54.5084 63.0694 53.9891C63.0694 53.4698 63.184 53.0078 63.413 52.6031C63.6421 52.1907 63.9514 51.8662 64.3409 51.6295C64.738 51.3851 65.1847 51.2629 65.681 51.2629C66.1087 51.2629 66.4867 51.3469 66.815 51.5149C67.1434 51.6829 67.403 51.9196 67.594 52.2251C67.7925 52.5229 67.8994 52.8742 67.9147 53.2789V54.7222C67.8918 55.1193 67.781 55.4705 67.5825 55.776C67.3916 56.0738 67.132 56.3067 66.8036 56.4747C66.4752 56.6427 66.101 56.7267 65.681 56.7267ZM65.8872 55.7531C66.2232 55.7531 66.5172 55.6805 66.7692 55.5355C67.0289 55.3904 67.2274 55.188 67.3649 54.9284C67.5023 54.6611 67.571 54.3518 67.571 54.0005C67.571 53.6493 67.4985 53.3438 67.3534 53.0842C67.216 52.8169 67.0212 52.6107 66.7692 52.4656C66.5172 52.3129 66.2194 52.2365 65.8758 52.2365C65.5321 52.2365 65.2305 52.3129 64.9709 52.4656C64.7112 52.6107 64.505 52.8169 64.3523 53.0842C64.2072 53.3438 64.1347 53.6455 64.1347 53.9891C64.1347 54.3327 64.2072 54.6382 64.3523 54.9055C64.505 55.1727 64.7112 55.3827 64.9709 55.5355C65.2381 55.6805 65.5436 55.7531 65.8872 55.7531ZM70.0578 56.8184V48.6398H71.0888V56.8184H70.0578ZM72.6085 56.8184V51.3775H73.6395V56.8184H72.6085ZM73.124 50.2893C72.9331 50.2893 72.7765 50.2282 72.6544 50.106C72.5322 49.9762 72.4711 49.8158 72.4711 49.6249C72.4711 49.4416 72.5322 49.2889 72.6544 49.1667C72.7765 49.0369 72.9331 48.972 73.124 48.972C73.3149 48.972 73.4715 49.0369 73.5936 49.1667C73.7158 49.2889 73.7769 49.4416 73.7769 49.6249C73.7769 49.8158 73.7158 49.9762 73.5936 50.106C73.4715 50.2282 73.3149 50.2893 73.124 50.2893ZM76.8883 56.9329C76.5829 56.9329 76.2927 56.8947 76.0178 56.8184C75.7505 56.7344 75.5023 56.6198 75.2732 56.4747C75.0442 56.322 74.8456 56.1425 74.6776 55.9364L75.342 55.272C75.5405 55.5164 75.7696 55.6996 76.0292 55.8218C76.2889 55.9364 76.5791 55.9936 76.8998 55.9936C77.2205 55.9936 77.4687 55.9402 77.6443 55.8333C77.82 55.7187 77.9078 55.5622 77.9078 55.3636C77.9078 55.1651 77.8352 55.0124 77.6902 54.9055C77.5527 54.7909 77.3732 54.6993 77.1518 54.6305C76.9303 54.5542 76.6936 54.4816 76.4416 54.4129C76.1972 54.3365 75.9643 54.2411 75.7429 54.1265C75.5214 54.012 75.3382 53.8555 75.1931 53.6569C75.0556 53.4584 74.9869 53.1949 74.9869 52.8665C74.9869 52.5382 75.0671 52.2556 75.2274 52.0189C75.3878 51.7745 75.6092 51.5875 75.8918 51.4576C76.182 51.3278 76.5294 51.2629 76.9342 51.2629C77.3618 51.2629 77.7398 51.3393 78.0682 51.492C78.4042 51.6371 78.6791 51.8585 78.8929 52.1564L78.2285 52.8207C78.0758 52.6222 77.8849 52.4695 77.6558 52.3625C77.4343 52.2556 77.1823 52.2022 76.8998 52.2022C76.602 52.2022 76.3729 52.2556 76.2125 52.3625C76.0598 52.4618 75.9834 52.6031 75.9834 52.7864C75.9834 52.9696 76.0522 53.1109 76.1896 53.2102C76.3271 53.3095 76.5065 53.3935 76.728 53.4622C76.9571 53.5309 77.1938 53.6035 77.4382 53.6798C77.6825 53.7485 77.9154 53.844 78.1369 53.9662C78.3583 54.0884 78.5378 54.2525 78.6752 54.4587C78.8203 54.6649 78.8929 54.936 78.8929 55.272C78.8929 55.7836 78.7096 56.1884 78.3431 56.4862C77.9842 56.784 77.4992 56.9329 76.8883 56.9329ZM83.8957 56.8184V53.6455C83.8957 53.2331 83.7659 52.8933 83.5063 52.626C83.2467 52.3587 82.9107 52.2251 82.4983 52.2251C82.2234 52.2251 81.979 52.2862 81.7652 52.4084C81.5514 52.5305 81.3834 52.6985 81.2612 52.9124C81.139 53.1262 81.0779 53.3705 81.0779 53.6455L80.6541 53.4049C80.6541 52.9925 80.7457 52.626 80.929 52.3053C81.1123 51.9845 81.3681 51.7325 81.6965 51.5493C82.0248 51.3584 82.3952 51.2629 82.8076 51.2629C83.2199 51.2629 83.5827 51.3545 83.8957 51.5378C84.2165 51.7211 84.4685 51.9769 84.6517 52.3053C84.835 52.6336 84.9267 53.0116 84.9267 53.4393V56.8184H83.8957ZM80.047 56.8184V48.6398H81.0779V56.8184H80.047Z" fill="#F8FAFC"/>
        <g clip-path="url(#clip1_59033_7785)">
            <rect x="31.1816" y="20.0459" width="13.3636" height="9.54545" rx="1.90909" fill="white"/>
            <path fill-rule="evenodd" clip-rule="evenodd" d="M40.0898 20.0459H44.5444V29.5914H40.0898V20.0459Z" fill="#F93939"/>
            <path fill-rule="evenodd" clip-rule="evenodd" d="M31.1816 20.0459H35.6362V29.5914H31.1816V20.0459Z" fill="#1A47B8"/>
        </g>
        <path d="M50.576 28.8184V20.8689H51.6527V28.8184H50.576ZM51.3091 25.3247V24.3396H55.4556V25.3247H51.3091ZM51.3091 21.854V20.8689H55.6504V21.854H51.3091ZM56.8806 28.8184V23.3775H57.9116V28.8184H56.8806ZM57.9116 25.7142L57.5221 25.5424C57.5221 24.8475 57.6825 24.2938 58.0032 23.8815C58.3239 23.4691 58.7859 23.2629 59.3892 23.2629C59.6641 23.2629 59.9123 23.3125 60.1337 23.4118C60.3552 23.5035 60.5614 23.66 60.7523 23.8815L60.0765 24.5802C59.9619 24.458 59.8359 24.3702 59.6985 24.3167C59.561 24.2633 59.4006 24.2365 59.2174 24.2365C58.8356 24.2365 58.5225 24.3587 58.2781 24.6031C58.0337 24.8475 57.9116 25.2178 57.9116 25.7142ZM63.8191 28.9329C63.277 28.9329 62.7882 28.8107 62.353 28.5664C61.9177 28.3144 61.5741 27.9745 61.3221 27.5469C61.0701 27.1193 60.9441 26.6344 60.9441 26.0922C60.9441 25.5576 61.0662 25.0765 61.3106 24.6489C61.5626 24.2213 61.8986 23.8853 62.3186 23.6409C62.7462 23.3889 63.2235 23.2629 63.7504 23.2629C64.2544 23.2629 64.6973 23.3775 65.0791 23.6065C65.4686 23.8356 65.7702 24.1525 65.9841 24.5573C66.2055 24.962 66.3162 25.4202 66.3162 25.9318C66.3162 26.0082 66.3124 26.0922 66.3048 26.1838C66.2971 26.2678 66.2819 26.3671 66.259 26.4816H61.6657V25.6225H65.7091L65.3311 25.9547C65.3311 25.5882 65.2662 25.2789 65.1364 25.0269C65.0066 24.7673 64.8233 24.5687 64.5866 24.4313C64.3499 24.2862 64.0635 24.2136 63.7275 24.2136C63.3762 24.2136 63.067 24.29 62.7997 24.4427C62.5324 24.5955 62.3262 24.8093 62.1811 25.0842C62.0361 25.3591 61.9635 25.6836 61.9635 26.0578C61.9635 26.4396 62.0399 26.7756 62.1926 27.0658C62.3453 27.3484 62.563 27.5698 62.8455 27.7302C63.1281 27.8829 63.4526 27.9593 63.8191 27.9593C64.1246 27.9593 64.4033 27.9058 64.6553 27.7989C64.915 27.692 65.1364 27.5316 65.3197 27.3178L65.9841 27.9936C65.7244 28.2991 65.4037 28.532 65.0219 28.6924C64.6477 28.8527 64.2468 28.9329 63.8191 28.9329ZM71.289 28.8184V25.6455C71.289 25.2331 71.1592 24.8933 70.8996 24.626C70.6399 24.3587 70.3039 24.2251 69.8916 24.2251C69.6167 24.2251 69.3723 24.2862 69.1585 24.4084C68.9447 24.5305 68.7767 24.6985 68.6545 24.9124C68.5323 25.1262 68.4712 25.3705 68.4712 25.6455L68.0474 25.4049C68.0474 24.9925 68.139 24.626 68.3223 24.3053C68.5056 23.9845 68.7614 23.7325 69.0898 23.5493C69.4181 23.3584 69.7885 23.2629 70.2008 23.2629C70.6132 23.2629 70.9759 23.366 71.289 23.5722C71.6098 23.7784 71.8618 24.0495 72.045 24.3855C72.2283 24.7138 72.3199 25.0651 72.3199 25.4393V28.8184H71.289ZM67.4403 28.8184V23.3775H68.4712V28.8184H67.4403ZM76.2013 28.9329C75.6668 28.9329 75.1819 28.8069 74.7466 28.5549C74.319 28.3029 73.9791 27.9631 73.7271 27.5355C73.4828 27.1002 73.3606 26.6191 73.3606 26.0922C73.3606 25.5576 73.4828 25.0765 73.7271 24.6489C73.9791 24.2213 74.319 23.8853 74.7466 23.6409C75.1819 23.3889 75.6668 23.2629 76.2013 23.2629C76.6213 23.2629 77.0108 23.3431 77.3697 23.5035C77.7286 23.6562 78.0379 23.8815 78.2975 24.1793L77.6102 24.8665C77.4422 24.668 77.2361 24.5191 76.9917 24.4198C76.755 24.3129 76.4915 24.2595 76.2013 24.2595C75.8577 24.2595 75.5522 24.3396 75.285 24.5C75.0177 24.6527 74.8077 24.8665 74.655 25.1415C74.5022 25.4164 74.4259 25.7333 74.4259 26.0922C74.4259 26.4511 74.5022 26.768 74.655 27.0429C74.8077 27.3178 75.0177 27.5355 75.285 27.6958C75.5522 27.8562 75.8577 27.9364 76.2013 27.9364C76.4915 27.9364 76.755 27.8867 76.9917 27.7875C77.2361 27.6805 77.4461 27.5278 77.6217 27.3293L78.2975 28.0165C78.0455 28.3067 77.7362 28.532 77.3697 28.6924C77.0108 28.8527 76.6213 28.9329 76.2013 28.9329ZM83.1686 28.8184V25.6455C83.1686 25.2331 83.0388 24.8933 82.7792 24.626C82.5196 24.3587 82.1836 24.2251 81.7712 24.2251C81.4963 24.2251 81.2519 24.2862 81.0381 24.4084C80.8243 24.5305 80.6563 24.6985 80.5341 24.9124C80.4119 25.1262 80.3508 25.3705 80.3508 25.6455L79.927 25.4049C79.927 24.9925 80.0186 24.626 80.2019 24.3053C80.3852 23.9845 80.641 23.7325 80.9694 23.5493C81.2977 23.3584 81.6681 23.2629 82.0805 23.2629C82.4928 23.2629 82.8556 23.3545 83.1686 23.5378C83.4894 23.7211 83.7414 23.9769 83.9246 24.3053C84.1079 24.6336 84.1996 25.0116 84.1996 25.4393V28.8184H83.1686ZM79.3199 28.8184V20.6398H80.3508V28.8184H79.3199Z" fill="white"/>
        <g clip-path="url(#clip2_59033_7785)">
            <rect x="31.1816" y="101.5" width="13.3636" height="9.54545" rx="1.90909" fill="white"/>
            <path fill-rule="evenodd" clip-rule="evenodd" d="M40.0898 101.5H44.5444V111.045H40.0898V101.5Z" fill="#F93939"/>
            <path fill-rule="evenodd" clip-rule="evenodd" d="M31.1816 101.5H35.6362V111.045H31.1816V101.5Z" fill="#249F58"/>
        </g>
        <path d="M50.576 110.272V102.323H51.6527V110.272H50.576ZM54.182 110.272V102.552H55.2129V110.272H54.182ZM52.8418 105.771V104.832H56.5531V105.771H52.8418ZM59.709 110.387C59.2127 110.387 58.7621 110.265 58.3574 110.02C57.9527 109.768 57.6319 109.429 57.3952 109.001C57.1661 108.573 57.0516 108.092 57.0516 107.558C57.0516 107.023 57.1661 106.542 57.3952 106.114C57.6319 105.687 57.9488 105.347 58.3459 105.095C58.7507 104.843 59.205 104.717 59.709 104.717C60.1214 104.717 60.4879 104.805 60.8087 104.98C61.137 105.148 61.4005 105.385 61.599 105.691C61.7976 105.988 61.9083 106.336 61.9312 106.733V108.371C61.9083 108.76 61.7976 109.108 61.599 109.413C61.4081 109.719 61.1485 109.959 60.8201 110.135C60.4994 110.303 60.129 110.387 59.709 110.387ZM59.8808 109.413C60.3925 109.413 60.8048 109.242 61.1179 108.898C61.431 108.547 61.5876 108.1 61.5876 107.558C61.5876 107.184 61.515 106.859 61.3699 106.584C61.2325 106.302 61.0339 106.084 60.7743 105.931C60.5147 105.771 60.213 105.691 59.8694 105.691C59.5258 105.691 59.2203 105.771 58.953 105.931C58.6934 106.092 58.4872 106.313 58.3345 106.596C58.1894 106.87 58.1168 107.187 58.1168 107.546C58.1168 107.913 58.1894 108.237 58.3345 108.52C58.4872 108.795 58.6972 109.012 58.9645 109.173C59.2317 109.333 59.5372 109.413 59.8808 109.413ZM61.5188 110.272V108.806L61.7136 107.478L61.5188 106.16V104.832H62.5612V110.272H61.5188ZM64.0621 110.272V102.094H65.093V110.272H64.0621ZM66.6128 110.272V104.832H67.6437V110.272H66.6128ZM67.1283 103.743C66.9373 103.743 66.7808 103.682 66.6586 103.56C66.5364 103.43 66.4753 103.27 66.4753 103.079C66.4753 102.896 66.5364 102.743 66.6586 102.621C66.7808 102.491 66.9373 102.426 67.1283 102.426C67.3192 102.426 67.4757 102.491 67.5979 102.621C67.7201 102.743 67.7812 102.896 67.7812 103.079C67.7812 103.27 67.7201 103.43 67.5979 103.56C67.4757 103.682 67.3192 103.743 67.1283 103.743ZM71.4768 110.387C70.9804 110.387 70.5299 110.265 70.1251 110.02C69.7204 109.768 69.3997 109.429 69.163 109.001C68.9339 108.573 68.8193 108.092 68.8193 107.558C68.8193 107.023 68.9339 106.542 69.163 106.114C69.3997 105.687 69.7166 105.347 70.1137 105.095C70.5184 104.843 70.9728 104.717 71.4768 104.717C71.8891 104.717 72.2557 104.805 72.5764 104.98C72.9048 105.148 73.1682 105.385 73.3668 105.691C73.5653 105.988 73.6761 106.336 73.699 106.733V108.371C73.6761 108.76 73.5653 109.108 73.3668 109.413C73.1759 109.719 72.9162 109.959 72.5879 110.135C72.2671 110.303 71.8968 110.387 71.4768 110.387ZM71.6486 109.413C72.1602 109.413 72.5726 109.242 72.8857 108.898C73.1988 108.547 73.3553 108.1 73.3553 107.558C73.3553 107.184 73.2828 106.859 73.1377 106.584C73.0002 106.302 72.8017 106.084 72.5421 105.931C72.2824 105.771 71.9808 105.691 71.6371 105.691C71.2935 105.691 70.9881 105.771 70.7208 105.931C70.4611 106.092 70.255 106.313 70.1022 106.596C69.9571 106.87 69.8846 107.187 69.8846 107.546C69.8846 107.913 69.9571 108.237 70.1022 108.52C70.255 108.795 70.465 109.012 70.7322 109.173C70.9995 109.333 71.305 109.413 71.6486 109.413ZM73.2866 110.272V108.806L73.4813 107.478L73.2866 106.16V104.832H74.329V110.272H73.2866ZM79.6786 110.272V107.1C79.6786 106.687 79.5488 106.347 79.2891 106.08C79.0295 105.813 78.6935 105.679 78.2811 105.679C78.0062 105.679 77.7619 105.74 77.548 105.862C77.3342 105.985 77.1662 106.153 77.044 106.366C76.9219 106.58 76.8608 106.825 76.8608 107.1L76.437 106.859C76.437 106.447 76.5286 106.08 76.7119 105.759C76.8951 105.439 77.151 105.187 77.4793 105.003C77.8077 104.812 78.178 104.717 78.5904 104.717C79.0028 104.717 79.3655 104.82 79.6786 105.026C79.9993 105.232 80.2513 105.504 80.4346 105.84C80.6179 106.168 80.7095 106.519 80.7095 106.893V110.272H79.6786ZM75.8299 110.272V104.832H76.8608V110.272H75.8299Z" fill="white"/>
        <g clip-path="url(#clip3_59033_7785)">
            <rect x="31.1816" y="76.0459" width="13.3636" height="9.54545" rx="1.90909" fill="#F93939"/>
            <path fill-rule="evenodd" clip-rule="evenodd" d="M31.1816 82.4092H44.5453V85.591H31.1816V82.4092Z" fill="#FFDA2C"/>
            <path fill-rule="evenodd" clip-rule="evenodd" d="M31.1816 76.0459H44.5453V79.2277H31.1816V76.0459Z" fill="#151515"/>
        </g>
        <path d="M54.1727 84.9329C53.6153 84.9329 53.0922 84.8298 52.6034 84.6236C52.1224 84.4098 51.6985 84.1158 51.332 83.7416C50.9731 83.3675 50.6905 82.9322 50.4844 82.4358C50.2782 81.9395 50.1751 81.4049 50.1751 80.8322C50.1751 80.2595 50.2782 79.7287 50.4844 79.24C50.6905 78.7436 50.9769 78.3084 51.3434 77.9342C51.71 77.56 52.1376 77.2698 52.6264 77.0636C53.1227 76.8574 53.6611 76.7544 54.2414 76.7544C54.8753 76.7544 55.4594 76.8765 55.994 77.1209C56.5285 77.3653 56.9753 77.7165 57.3342 78.1747L56.5896 78.9193C56.3376 78.5527 56.0054 78.274 55.5931 78.0831C55.1807 77.8845 54.7302 77.7853 54.2414 77.7853C53.6611 77.7853 53.1456 77.9151 52.6951 78.1747C52.2522 78.4344 51.9047 78.7933 51.6527 79.2515C51.4084 79.7096 51.2862 80.2365 51.2862 80.8322C51.2862 81.4355 51.4122 81.9662 51.6642 82.4244C51.9162 82.8825 52.256 83.2415 52.6836 83.5011C53.1113 83.7607 53.6 83.8905 54.1498 83.8905C54.7073 83.8905 55.1884 83.7836 55.5931 83.5698C56.0054 83.356 56.3224 83.0429 56.5438 82.6305C56.7653 82.2105 56.876 81.6989 56.876 81.0956L57.5289 81.5653H54.0925V80.5802H57.9871V80.7405C57.9871 81.6645 57.8229 82.4396 57.4945 83.0658C57.1738 83.6844 56.7233 84.1502 56.1429 84.4633C55.5702 84.7764 54.9134 84.9329 54.1727 84.9329ZM61.7721 84.9329C61.2299 84.9329 60.7412 84.8107 60.3059 84.5664C59.8706 84.3144 59.527 83.9745 59.275 83.5469C59.023 83.1193 58.897 82.6344 58.897 82.0922C58.897 81.5576 59.0192 81.0765 59.2635 80.6489C59.5155 80.2213 59.8515 79.8853 60.2715 79.6409C60.6992 79.3889 61.1765 79.2629 61.7034 79.2629C62.2074 79.2629 62.6503 79.3775 63.0321 79.6065C63.4215 79.8356 63.7232 80.1525 63.937 80.5573C64.1585 80.962 64.2692 81.4202 64.2692 81.9318C64.2692 82.0082 64.2654 82.0922 64.2577 82.1838C64.2501 82.2678 64.2348 82.3671 64.2119 82.4816H59.6186V81.6225H63.6621L63.2841 81.9547C63.2841 81.5882 63.2192 81.2789 63.0894 81.0269C62.9595 80.7673 62.7763 80.5687 62.5395 80.4313C62.3028 80.2862 62.0165 80.2136 61.6805 80.2136C61.3292 80.2136 61.0199 80.29 60.7526 80.4427C60.4854 80.5955 60.2792 80.8093 60.1341 81.0842C59.989 81.3591 59.9165 81.6836 59.9165 82.0578C59.9165 82.4396 59.9928 82.7756 60.1455 83.0658C60.2983 83.3484 60.5159 83.5698 60.7985 83.7302C61.081 83.8829 61.4055 83.9593 61.7721 83.9593C62.0775 83.9593 62.3563 83.9058 62.6083 83.7989C62.8679 83.692 63.0894 83.5316 63.2726 83.3178L63.937 83.9936C63.6774 84.2991 63.3566 84.532 62.9748 84.6924C62.6006 84.8527 62.1997 84.9329 61.7721 84.9329ZM65.3933 84.8184V79.3775H66.4242V84.8184H65.3933ZM66.4242 81.7142L66.0347 81.5424C66.0347 80.8475 66.1951 80.2938 66.5158 79.8815C66.8365 79.4691 67.2985 79.2629 67.9018 79.2629C68.1767 79.2629 68.4249 79.3125 68.6463 79.4118C68.8678 79.5035 69.074 79.66 69.2649 79.8815L68.5891 80.5802C68.4745 80.458 68.3485 80.3702 68.2111 80.3167C68.0736 80.2633 67.9133 80.2365 67.73 80.2365C67.3482 80.2365 67.0351 80.3587 66.7907 80.6031C66.5463 80.8475 66.4242 81.2178 66.4242 81.7142ZM70.0131 84.8184V79.3775H71.044V84.8184H70.0131ZM73.69 84.8184V81.5309C73.69 81.1262 73.564 80.8093 73.312 80.5802C73.0676 80.3435 72.7584 80.2251 72.3842 80.2251C72.1322 80.2251 71.9069 80.2785 71.7084 80.3855C71.5098 80.4924 71.3495 80.6413 71.2273 80.8322C71.1051 81.0231 71.044 81.2522 71.044 81.5195L70.6202 81.3133C70.6202 80.9009 70.708 80.542 70.8836 80.2365C71.0669 79.9311 71.3151 79.6944 71.6282 79.5264C71.9413 79.3507 72.2926 79.2629 72.682 79.2629C73.0638 79.2629 73.4075 79.3469 73.7129 79.5149C74.026 79.6829 74.2704 79.9196 74.446 80.2251C74.6293 80.5305 74.7209 80.8933 74.7209 81.3133V84.8184H73.69ZM77.3669 84.8184V81.5309C77.3669 81.1262 77.2409 80.8093 76.9889 80.5802C76.7446 80.3435 76.4391 80.2251 76.0726 80.2251C75.8206 80.2251 75.5915 80.2785 75.3853 80.3855C75.1867 80.4924 75.0264 80.6413 74.9042 80.8322C74.782 81.0231 74.7209 81.2522 74.7209 81.5195L74.1367 81.3133C74.1596 80.8933 74.2704 80.5344 74.4689 80.2365C74.6751 79.9311 74.9386 79.6944 75.2593 79.5264C75.58 79.3507 75.9313 79.2629 76.3131 79.2629C76.7102 79.2629 77.0653 79.3469 77.3784 79.5149C77.6915 79.6829 77.9396 79.9196 78.1229 80.2251C78.3138 80.5305 78.4093 80.8971 78.4093 81.3247V84.8184H77.3669ZM82.1259 84.9329C81.6296 84.9329 81.179 84.8107 80.7743 84.5664C80.3696 84.3144 80.0488 83.9745 79.8121 83.5469C79.583 83.1193 79.4685 82.6382 79.4685 82.1036C79.4685 81.5691 79.583 81.088 79.8121 80.6604C80.0488 80.2327 80.3657 79.8929 80.7628 79.6409C81.1676 79.3889 81.6219 79.2629 82.1259 79.2629C82.5383 79.2629 82.9048 79.3507 83.2256 79.5264C83.5539 79.6944 83.8174 79.9311 84.0159 80.2365C84.2145 80.5344 84.3252 80.8818 84.3481 81.2789V82.9169C84.3252 83.3064 84.2145 83.6538 84.0159 83.9593C83.825 84.2647 83.5654 84.5053 83.237 84.6809C82.9163 84.8489 82.5459 84.9329 82.1259 84.9329ZM82.2977 83.9593C82.8094 83.9593 83.2217 83.7875 83.5348 83.4438C83.8479 83.0925 84.0045 82.6458 84.0045 82.1036C84.0045 81.7295 83.9319 81.4049 83.7868 81.13C83.6494 80.8475 83.4508 80.6298 83.1912 80.4771C82.9316 80.3167 82.6299 80.2365 82.2863 80.2365C81.9427 80.2365 81.6372 80.3167 81.3699 80.4771C81.1103 80.6375 80.9041 80.8589 80.7514 81.1415C80.6063 81.4164 80.5337 81.7333 80.5337 82.0922C80.5337 82.4587 80.6063 82.7833 80.7514 83.0658C80.9041 83.3407 81.1141 83.5584 81.3814 83.7187C81.6487 83.8791 81.9541 83.9593 82.2977 83.9593ZM83.9357 84.8184V83.3522L84.1305 82.0235L83.9357 80.7062V79.3775H84.9781V84.8184H83.9357ZM90.3277 84.8184V81.6455C90.3277 81.2331 90.1979 80.8933 89.9383 80.626C89.6786 80.3587 89.3426 80.2251 88.9303 80.2251C88.6554 80.2251 88.411 80.2862 88.1972 80.4084C87.9834 80.5305 87.8154 80.6985 87.6932 80.9124C87.571 81.1262 87.5099 81.3705 87.5099 81.6455L87.0861 81.4049C87.0861 80.9925 87.1777 80.626 87.361 80.3053C87.5443 79.9845 87.8001 79.7325 88.1285 79.5493C88.4568 79.3584 88.8272 79.2629 89.2396 79.2629C89.6519 79.2629 90.0146 79.366 90.3277 79.5722C90.6485 79.7784 90.9005 80.0495 91.0837 80.3855C91.267 80.7138 91.3586 81.0651 91.3586 81.4393V84.8184H90.3277ZM86.479 84.8184V79.3775H87.5099V84.8184H86.479Z" fill="white"/>
    </g>
    <defs>
        <filter id="filter0_d_59033_7785" x="-0.000354767" y="0.181463" width="182.001" height="154.636" filterUnits="userSpaceOnUse" color-interpolation-filters="sRGB">
            <feFlood flood-opacity="0" result="BackgroundImageFix"/>
            <feColorMatrix in="SourceAlpha" type="matrix" values="0 0 0 0 0 0 0 0 0 0 0 0 0 0 0 0 0 0 127 0" result="hardAlpha"/>
            <feOffset dy="10.1818"/>
            <feGaussianBlur stdDeviation="10.1818"/>
            <feComposite in2="hardAlpha" operator="out"/>
            <feColorMatrix type="matrix" values="0 0 0 0 0 0 0 0 0 0 0 0 0 0 0 0 0 0 0.05 0"/>
            <feBlend mode="normal" in2="BackgroundImageFix" result="effect1_dropShadow_59033_7785"/>
            <feBlend mode="normal" in="SourceGraphic" in2="effect1_dropShadow_59033_7785" result="shape"/>
        </filter>
        <clipPath id="clip0_59033_7785">
            <rect x="31.1816" y="48.0459" width="13.3636" height="9.54545" rx="1.90909" fill="white"/>
        </clipPath>
        <clipPath id="clip1_59033_7785">
            <rect x="31.1816" y="20.0459" width="13.3636" height="9.54545" rx="1.90909" fill="white"/>
        </clipPath>
        <clipPath id="clip2_59033_7785">
            <rect x="31.1816" y="101.5" width="13.3636" height="9.54545" rx="1.90909" fill="white"/>
        </clipPath>
        <clipPath id="clip3_59033_7785">
            <rect x="31.1816" y="76.0459" width="13.3636" height="9.54545" rx="1.90909" fill="white"/>
        </clipPath>
    </defs>
</svg>
