<svg width="184" height="141" viewBox="0 0 184 141" fill="none" xmlns="http://www.w3.org/2000/svg">
    <g filter="url(#filter0_d_59033_7802)">
        <rect x="22" y="12" width="140" height="112.636" rx="5" fill="white"/>
        <rect x="21.5" y="11.5" width="141" height="113.636" rx="5.5" stroke="#143852"/>
        <mask id="path-3-inside-1_59033_7802" fill="white">
            <path d="M22 41.2725H162V66.3634H22V41.2725Z"/>
        </mask>
        <path d="M22 41.2725H162V66.3634H22V41.2725Z" fill="black"/>
        <path d="M22 42.2725H162V40.2725H22V42.2725ZM162 65.3634H22V67.3634H162V65.3634Z" fill="black" mask="url(#path-3-inside-1_59033_7802)"/>
        <g clip-path="url(#clip0_59033_7802)">
            <rect x="32.1816" y="49.0459" width="13.3636" height="9.54545" rx="1.90909" fill="#1A47B8"/>
            <path fill-rule="evenodd" clip-rule="evenodd" d="M33.6033 49.0459H32.1816V50.6368L44.1159 58.5914L45.5453 58.5914V57.0004L33.6033 49.0459Z" fill="white"/>
            <path d="M32.6558 49.0459L45.5453 57.6594V58.5914H45.0822L32.1816 49.969V49.0459H32.6558Z" fill="#F93939"/>
            <path fill-rule="evenodd" clip-rule="evenodd" d="M44.2725 49.0459H45.5453V50.6368C45.5453 50.6368 37.2788 55.9365 33.4544 58.5914H32.1816V57.0004L44.2725 49.0459Z" fill="white"/>
            <path d="M45.5453 49.0459H45.1137L32.1816 57.6668V58.5914H32.6558L45.5453 49.976V49.0459Z" fill="#F93939"/>
            <path fill-rule="evenodd" clip-rule="evenodd" d="M37.0416 49.0459H40.6964V51.9902H45.5453V55.6451H40.6964V58.5914H37.0416V55.6451H32.1816V51.9902H37.0416V49.0459Z" fill="white"/>
            <path fill-rule="evenodd" clip-rule="evenodd" d="M37.8084 49.0459H39.9185V52.7172H45.5453V54.92H39.9185V58.5914H37.8084V54.92H32.1816V52.7172H37.8084V49.0459Z" fill="#F93939"/>
        </g>
        <path d="M51.576 57.8184V49.8689H52.6527V57.8184H51.576ZM52.3091 57.8184V56.8333H56.868V57.8184H52.3091ZM52.3091 54.2216V53.2824H56.49V54.2216H52.3091ZM52.3091 50.854V49.8689H56.8107V50.854H52.3091ZM61.9978 57.8184V54.6455C61.9978 54.2331 61.868 53.8933 61.6084 53.626C61.3487 53.3587 61.0127 53.2251 60.6004 53.2251C60.3255 53.2251 60.0811 53.2862 59.8673 53.4084C59.6535 53.5305 59.4855 53.6985 59.3633 53.9124C59.2411 54.1262 59.18 54.3705 59.18 54.6455L58.7562 54.4049C58.7562 53.9925 58.8478 53.626 59.0311 53.3053C59.2144 52.9845 59.4702 52.7325 59.7986 52.5493C60.1269 52.3584 60.4973 52.2629 60.9097 52.2629C61.322 52.2629 61.6847 52.366 61.9978 52.5722C62.3186 52.7784 62.5706 53.0495 62.7538 53.3855C62.9371 53.7138 63.0287 54.0651 63.0287 54.4393V57.8184H61.9978ZM58.1491 57.8184V52.3775H59.18V57.8184H58.1491ZM66.681 60.2124C66.1236 60.2124 65.6272 60.1093 65.192 59.9031C64.7643 59.6969 64.4207 59.4067 64.161 59.0325L64.8254 58.3567C65.0469 58.6393 65.3103 58.8531 65.6158 58.9982C65.9212 59.1509 66.284 59.2273 66.704 59.2273C67.2614 59.2273 67.7005 59.0784 68.0212 58.7805C68.3496 58.4904 68.5138 58.0971 68.5138 57.6007V56.2491L68.697 55.0235L68.5138 53.8093V52.3775H69.5447V57.6007C69.5447 58.12 69.4225 58.5744 69.1781 58.9638C68.9414 59.3533 68.6054 59.6587 68.1701 59.8802C67.7425 60.1016 67.2461 60.2124 66.681 60.2124ZM66.681 57.7267C66.1847 57.7267 65.738 57.6084 65.3409 57.3716C64.9514 57.1349 64.6421 56.8104 64.413 56.398C64.184 55.978 64.0694 55.5084 64.0694 54.9891C64.0694 54.4698 64.184 54.0078 64.413 53.6031C64.6421 53.1907 64.9514 52.8662 65.3409 52.6295C65.738 52.3851 66.1847 52.2629 66.681 52.2629C67.1087 52.2629 67.4867 52.3469 67.815 52.5149C68.1434 52.6829 68.403 52.9196 68.594 53.2251C68.7925 53.5229 68.8994 53.8742 68.9147 54.2789V55.7222C68.8918 56.1193 68.781 56.4705 68.5825 56.776C68.3916 57.0738 68.132 57.3067 67.8036 57.4747C67.4752 57.6427 67.101 57.7267 66.681 57.7267ZM66.8872 56.7531C67.2232 56.7531 67.5172 56.6805 67.7692 56.5355C68.0289 56.3904 68.2274 56.188 68.3649 55.9284C68.5023 55.6611 68.571 55.3518 68.571 55.0005C68.571 54.6493 68.4985 54.3438 68.3534 54.0842C68.216 53.8169 68.0212 53.6107 67.7692 53.4656C67.5172 53.3129 67.2194 53.2365 66.8758 53.2365C66.5321 53.2365 66.2305 53.3129 65.9709 53.4656C65.7112 53.6107 65.505 53.8169 65.3523 54.0842C65.2072 54.3438 65.1347 54.6455 65.1347 54.9891C65.1347 55.3327 65.2072 55.6382 65.3523 55.9055C65.505 56.1727 65.7112 56.3827 65.9709 56.5355C66.2381 56.6805 66.5436 56.7531 66.8872 56.7531ZM71.0578 57.8184V49.6398H72.0888V57.8184H71.0578ZM73.6085 57.8184V52.3775H74.6395V57.8184H73.6085ZM74.124 51.2893C73.9331 51.2893 73.7765 51.2282 73.6544 51.106C73.5322 50.9762 73.4711 50.8158 73.4711 50.6249C73.4711 50.4416 73.5322 50.2889 73.6544 50.1667C73.7765 50.0369 73.9331 49.972 74.124 49.972C74.3149 49.972 74.4715 50.0369 74.5936 50.1667C74.7158 50.2889 74.7769 50.4416 74.7769 50.6249C74.7769 50.8158 74.7158 50.9762 74.5936 51.106C74.4715 51.2282 74.3149 51.2893 74.124 51.2893ZM77.8883 57.9329C77.5829 57.9329 77.2927 57.8947 77.0178 57.8184C76.7505 57.7344 76.5023 57.6198 76.2732 57.4747C76.0442 57.322 75.8456 57.1425 75.6776 56.9364L76.342 56.272C76.5405 56.5164 76.7696 56.6996 77.0292 56.8218C77.2889 56.9364 77.5791 56.9936 77.8998 56.9936C78.2205 56.9936 78.4687 56.9402 78.6443 56.8333C78.82 56.7187 78.9078 56.5622 78.9078 56.3636C78.9078 56.1651 78.8352 56.0124 78.6902 55.9055C78.5527 55.7909 78.3732 55.6993 78.1518 55.6305C77.9303 55.5542 77.6936 55.4816 77.4416 55.4129C77.1972 55.3365 76.9643 55.2411 76.7429 55.1265C76.5214 55.012 76.3382 54.8555 76.1931 54.6569C76.0556 54.4584 75.9869 54.1949 75.9869 53.8665C75.9869 53.5382 76.0671 53.2556 76.2274 53.0189C76.3878 52.7745 76.6092 52.5875 76.8918 52.4576C77.182 52.3278 77.5294 52.2629 77.9342 52.2629C78.3618 52.2629 78.7398 52.3393 79.0682 52.492C79.4042 52.6371 79.6791 52.8585 79.8929 53.1564L79.2285 53.8207C79.0758 53.6222 78.8849 53.4695 78.6558 53.3625C78.4343 53.2556 78.1823 53.2022 77.8998 53.2022C77.602 53.2022 77.3729 53.2556 77.2125 53.3625C77.0598 53.4618 76.9834 53.6031 76.9834 53.7864C76.9834 53.9696 77.0522 54.1109 77.1896 54.2102C77.3271 54.3095 77.5065 54.3935 77.728 54.4622C77.9571 54.5309 78.1938 54.6035 78.4382 54.6798C78.6825 54.7485 78.9154 54.844 79.1369 54.9662C79.3583 55.0884 79.5378 55.2525 79.6752 55.4587C79.8203 55.6649 79.8929 55.936 79.8929 56.272C79.8929 56.7836 79.7096 57.1884 79.3431 57.4862C78.9842 57.784 78.4992 57.9329 77.8883 57.9329ZM84.8957 57.8184V54.6455C84.8957 54.2331 84.7659 53.8933 84.5063 53.626C84.2467 53.3587 83.9107 53.2251 83.4983 53.2251C83.2234 53.2251 82.979 53.2862 82.7652 53.4084C82.5514 53.5305 82.3834 53.6985 82.2612 53.9124C82.139 54.1262 82.0779 54.3705 82.0779 54.6455L81.6541 54.4049C81.6541 53.9925 81.7457 53.626 81.929 53.3053C82.1123 52.9845 82.3681 52.7325 82.6965 52.5493C83.0248 52.3584 83.3952 52.2629 83.8076 52.2629C84.2199 52.2629 84.5827 52.3545 84.8957 52.5378C85.2165 52.7211 85.4685 52.9769 85.6517 53.3053C85.835 53.6336 85.9267 54.0116 85.9267 54.4393V57.8184H84.8957ZM81.047 57.8184V49.6398H82.0779V57.8184H81.047Z" fill="white"/>
        <g clip-path="url(#clip1_59033_7802)">
            <rect x="32.1816" y="21.0459" width="13.3636" height="9.54545" rx="1.90909" fill="white"/>
            <path fill-rule="evenodd" clip-rule="evenodd" d="M41.0898 21.0459H45.5444V30.5914H41.0898V21.0459Z" fill="#F93939"/>
            <path fill-rule="evenodd" clip-rule="evenodd" d="M32.1816 21.0459H36.6362V30.5914H32.1816V21.0459Z" fill="#1A47B8"/>
        </g>
        <path d="M51.576 29.8184V21.8689H52.6527V29.8184H51.576ZM52.3091 26.3247V25.3396H56.4556V26.3247H52.3091ZM52.3091 22.854V21.8689H56.6504V22.854H52.3091ZM57.8806 29.8184V24.3775H58.9116V29.8184H57.8806ZM58.9116 26.7142L58.5221 26.5424C58.5221 25.8475 58.6825 25.2938 59.0032 24.8815C59.3239 24.4691 59.7859 24.2629 60.3892 24.2629C60.6641 24.2629 60.9123 24.3125 61.1337 24.4118C61.3552 24.5035 61.5614 24.66 61.7523 24.8815L61.0765 25.5802C60.9619 25.458 60.8359 25.3702 60.6985 25.3167C60.561 25.2633 60.4006 25.2365 60.2174 25.2365C59.8356 25.2365 59.5225 25.3587 59.2781 25.6031C59.0337 25.8475 58.9116 26.2178 58.9116 26.7142ZM64.8191 29.9329C64.277 29.9329 63.7882 29.8107 63.353 29.5664C62.9177 29.3144 62.5741 28.9745 62.3221 28.5469C62.0701 28.1193 61.9441 27.6344 61.9441 27.0922C61.9441 26.5576 62.0662 26.0765 62.3106 25.6489C62.5626 25.2213 62.8986 24.8853 63.3186 24.6409C63.7462 24.3889 64.2235 24.2629 64.7504 24.2629C65.2544 24.2629 65.6973 24.3775 66.0791 24.6065C66.4686 24.8356 66.7702 25.1525 66.9841 25.5573C67.2055 25.962 67.3162 26.4202 67.3162 26.9318C67.3162 27.0082 67.3124 27.0922 67.3048 27.1838C67.2971 27.2678 67.2819 27.3671 67.259 27.4816H62.6657V26.6225H66.7091L66.3311 26.9547C66.3311 26.5882 66.2662 26.2789 66.1364 26.0269C66.0066 25.7673 65.8233 25.5687 65.5866 25.4313C65.3499 25.2862 65.0635 25.2136 64.7275 25.2136C64.3762 25.2136 64.067 25.29 63.7997 25.4427C63.5324 25.5955 63.3262 25.8093 63.1811 26.0842C63.0361 26.3591 62.9635 26.6836 62.9635 27.0578C62.9635 27.4396 63.0399 27.7756 63.1926 28.0658C63.3453 28.3484 63.563 28.5698 63.8455 28.7302C64.1281 28.8829 64.4526 28.9593 64.8191 28.9593C65.1246 28.9593 65.4033 28.9058 65.6553 28.7989C65.915 28.692 66.1364 28.5316 66.3197 28.3178L66.9841 28.9936C66.7244 29.2991 66.4037 29.532 66.0219 29.6924C65.6477 29.8527 65.2468 29.9329 64.8191 29.9329ZM72.289 29.8184V26.6455C72.289 26.2331 72.1592 25.8933 71.8996 25.626C71.6399 25.3587 71.3039 25.2251 70.8916 25.2251C70.6167 25.2251 70.3723 25.2862 70.1585 25.4084C69.9447 25.5305 69.7767 25.6985 69.6545 25.9124C69.5323 26.1262 69.4712 26.3705 69.4712 26.6455L69.0474 26.4049C69.0474 25.9925 69.139 25.626 69.3223 25.3053C69.5056 24.9845 69.7614 24.7325 70.0898 24.5493C70.4181 24.3584 70.7885 24.2629 71.2008 24.2629C71.6132 24.2629 71.9759 24.366 72.289 24.5722C72.6098 24.7784 72.8618 25.0495 73.045 25.3855C73.2283 25.7138 73.3199 26.0651 73.3199 26.4393V29.8184H72.289ZM68.4403 29.8184V24.3775H69.4712V29.8184H68.4403ZM77.2013 29.9329C76.6668 29.9329 76.1819 29.8069 75.7466 29.5549C75.319 29.3029 74.9791 28.9631 74.7271 28.5355C74.4828 28.1002 74.3606 27.6191 74.3606 27.0922C74.3606 26.5576 74.4828 26.0765 74.7271 25.6489C74.9791 25.2213 75.319 24.8853 75.7466 24.6409C76.1819 24.3889 76.6668 24.2629 77.2013 24.2629C77.6213 24.2629 78.0108 24.3431 78.3697 24.5035C78.7286 24.6562 79.0379 24.8815 79.2975 25.1793L78.6102 25.8665C78.4422 25.668 78.2361 25.5191 77.9917 25.4198C77.755 25.3129 77.4915 25.2595 77.2013 25.2595C76.8577 25.2595 76.5522 25.3396 76.285 25.5C76.0177 25.6527 75.8077 25.8665 75.655 26.1415C75.5022 26.4164 75.4259 26.7333 75.4259 27.0922C75.4259 27.4511 75.5022 27.768 75.655 28.0429C75.8077 28.3178 76.0177 28.5355 76.285 28.6958C76.5522 28.8562 76.8577 28.9364 77.2013 28.9364C77.4915 28.9364 77.755 28.8867 77.9917 28.7875C78.2361 28.6805 78.4461 28.5278 78.6217 28.3293L79.2975 29.0165C79.0455 29.3067 78.7362 29.532 78.3697 29.6924C78.0108 29.8527 77.6213 29.9329 77.2013 29.9329ZM84.1686 29.8184V26.6455C84.1686 26.2331 84.0388 25.8933 83.7792 25.626C83.5196 25.3587 83.1836 25.2251 82.7712 25.2251C82.4963 25.2251 82.2519 25.2862 82.0381 25.4084C81.8243 25.5305 81.6563 25.6985 81.5341 25.9124C81.4119 26.1262 81.3508 26.3705 81.3508 26.6455L80.927 26.4049C80.927 25.9925 81.0186 25.626 81.2019 25.3053C81.3852 24.9845 81.641 24.7325 81.9694 24.5493C82.2977 24.3584 82.6681 24.2629 83.0805 24.2629C83.4928 24.2629 83.8556 24.3545 84.1686 24.5378C84.4894 24.7211 84.7414 24.9769 84.9246 25.3053C85.1079 25.6336 85.1996 26.0116 85.1996 26.4393V29.8184H84.1686ZM80.3199 29.8184V21.6398H81.3508V29.8184H80.3199Z" fill="#143852"/>
        <g clip-path="url(#clip2_59033_7802)">
            <rect x="32.1816" y="102.5" width="13.3636" height="9.54545" rx="1.90909" fill="white"/>
            <path fill-rule="evenodd" clip-rule="evenodd" d="M41.0898 102.5H45.5444V112.045H41.0898V102.5Z" fill="#F93939"/>
            <path fill-rule="evenodd" clip-rule="evenodd" d="M32.1816 102.5H36.6362V112.045H32.1816V102.5Z" fill="#249F58"/>
        </g>
        <path d="M51.576 111.272V103.323H52.6527V111.272H51.576ZM55.182 111.272V103.552H56.2129V111.272H55.182ZM53.8418 106.771V105.832H57.5531V106.771H53.8418ZM60.709 111.387C60.2127 111.387 59.7621 111.265 59.3574 111.02C58.9527 110.768 58.6319 110.429 58.3952 110.001C58.1661 109.573 58.0516 109.092 58.0516 108.558C58.0516 108.023 58.1661 107.542 58.3952 107.114C58.6319 106.687 58.9488 106.347 59.3459 106.095C59.7507 105.843 60.205 105.717 60.709 105.717C61.1214 105.717 61.4879 105.805 61.8087 105.98C62.137 106.148 62.4005 106.385 62.599 106.691C62.7976 106.988 62.9083 107.336 62.9312 107.733V109.371C62.9083 109.76 62.7976 110.108 62.599 110.413C62.4081 110.719 62.1485 110.959 61.8201 111.135C61.4994 111.303 61.129 111.387 60.709 111.387ZM60.8808 110.413C61.3925 110.413 61.8048 110.242 62.1179 109.898C62.431 109.547 62.5876 109.1 62.5876 108.558C62.5876 108.184 62.515 107.859 62.3699 107.584C62.2325 107.302 62.0339 107.084 61.7743 106.931C61.5147 106.771 61.213 106.691 60.8694 106.691C60.5258 106.691 60.2203 106.771 59.953 106.931C59.6934 107.092 59.4872 107.313 59.3345 107.596C59.1894 107.87 59.1168 108.187 59.1168 108.546C59.1168 108.913 59.1894 109.237 59.3345 109.52C59.4872 109.795 59.6972 110.012 59.9645 110.173C60.2317 110.333 60.5372 110.413 60.8808 110.413ZM62.5188 111.272V109.806L62.7136 108.478L62.5188 107.16V105.832H63.5612V111.272H62.5188ZM65.0621 111.272V103.094H66.093V111.272H65.0621ZM67.6128 111.272V105.832H68.6437V111.272H67.6128ZM68.1283 104.743C67.9373 104.743 67.7808 104.682 67.6586 104.56C67.5364 104.43 67.4753 104.27 67.4753 104.079C67.4753 103.896 67.5364 103.743 67.6586 103.621C67.7808 103.491 67.9373 103.426 68.1283 103.426C68.3192 103.426 68.4757 103.491 68.5979 103.621C68.7201 103.743 68.7812 103.896 68.7812 104.079C68.7812 104.27 68.7201 104.43 68.5979 104.56C68.4757 104.682 68.3192 104.743 68.1283 104.743ZM72.4768 111.387C71.9804 111.387 71.5299 111.265 71.1251 111.02C70.7204 110.768 70.3997 110.429 70.163 110.001C69.9339 109.573 69.8193 109.092 69.8193 108.558C69.8193 108.023 69.9339 107.542 70.163 107.114C70.3997 106.687 70.7166 106.347 71.1137 106.095C71.5184 105.843 71.9728 105.717 72.4768 105.717C72.8891 105.717 73.2557 105.805 73.5764 105.98C73.9048 106.148 74.1682 106.385 74.3668 106.691C74.5653 106.988 74.6761 107.336 74.699 107.733V109.371C74.6761 109.76 74.5653 110.108 74.3668 110.413C74.1759 110.719 73.9162 110.959 73.5879 111.135C73.2671 111.303 72.8968 111.387 72.4768 111.387ZM72.6486 110.413C73.1602 110.413 73.5726 110.242 73.8857 109.898C74.1988 109.547 74.3553 109.1 74.3553 108.558C74.3553 108.184 74.2828 107.859 74.1377 107.584C74.0002 107.302 73.8017 107.084 73.5421 106.931C73.2824 106.771 72.9808 106.691 72.6371 106.691C72.2935 106.691 71.9881 106.771 71.7208 106.931C71.4611 107.092 71.255 107.313 71.1022 107.596C70.9571 107.87 70.8846 108.187 70.8846 108.546C70.8846 108.913 70.9571 109.237 71.1022 109.52C71.255 109.795 71.465 110.012 71.7322 110.173C71.9995 110.333 72.305 110.413 72.6486 110.413ZM74.2866 111.272V109.806L74.4813 108.478L74.2866 107.16V105.832H75.329V111.272H74.2866ZM80.6786 111.272V108.1C80.6786 107.687 80.5488 107.347 80.2891 107.08C80.0295 106.813 79.6935 106.679 79.2811 106.679C79.0062 106.679 78.7619 106.74 78.548 106.862C78.3342 106.985 78.1662 107.153 78.044 107.366C77.9219 107.58 77.8608 107.825 77.8608 108.1L77.437 107.859C77.437 107.447 77.5286 107.08 77.7119 106.759C77.8951 106.439 78.151 106.187 78.4793 106.003C78.8077 105.812 79.178 105.717 79.5904 105.717C80.0028 105.717 80.3655 105.82 80.6786 106.026C80.9993 106.232 81.2513 106.504 81.4346 106.84C81.6179 107.168 81.7095 107.519 81.7095 107.893V111.272H80.6786ZM76.8299 111.272V105.832H77.8608V111.272H76.8299Z" fill="#143852"/>
        <g clip-path="url(#clip3_59033_7802)">
            <rect x="32.1816" y="77.0459" width="13.3636" height="9.54545" rx="1.90909" fill="#F93939"/>
            <path fill-rule="evenodd" clip-rule="evenodd" d="M32.1816 83.4092H45.5453V86.591H32.1816V83.4092Z" fill="#FFDA2C"/>
            <path fill-rule="evenodd" clip-rule="evenodd" d="M32.1816 77.0459H45.5453V80.2277H32.1816V77.0459Z" fill="#151515"/>
        </g>
        <path d="M55.1727 85.9329C54.6153 85.9329 54.0922 85.8298 53.6034 85.6236C53.1224 85.4098 52.6985 85.1158 52.332 84.7416C51.9731 84.3675 51.6905 83.9322 51.4844 83.4358C51.2782 82.9395 51.1751 82.4049 51.1751 81.8322C51.1751 81.2595 51.2782 80.7287 51.4844 80.24C51.6905 79.7436 51.9769 79.3084 52.3434 78.9342C52.71 78.56 53.1376 78.2698 53.6264 78.0636C54.1227 77.8574 54.6611 77.7544 55.2414 77.7544C55.8753 77.7544 56.4594 77.8765 56.994 78.1209C57.5285 78.3653 57.9753 78.7165 58.3342 79.1747L57.5896 79.9193C57.3376 79.5527 57.0054 79.274 56.5931 79.0831C56.1807 78.8845 55.7302 78.7853 55.2414 78.7853C54.6611 78.7853 54.1456 78.9151 53.6951 79.1747C53.2522 79.4344 52.9047 79.7933 52.6527 80.2515C52.4084 80.7096 52.2862 81.2365 52.2862 81.8322C52.2862 82.4355 52.4122 82.9662 52.6642 83.4244C52.9162 83.8825 53.256 84.2415 53.6836 84.5011C54.1113 84.7607 54.6 84.8905 55.1498 84.8905C55.7073 84.8905 56.1884 84.7836 56.5931 84.5698C57.0054 84.356 57.3224 84.0429 57.5438 83.6305C57.7653 83.2105 57.876 82.6989 57.876 82.0956L58.5289 82.5653H55.0925V81.5802H58.9871V81.7405C58.9871 82.6645 58.8229 83.4396 58.4945 84.0658C58.1738 84.6844 57.7233 85.1502 57.1429 85.4633C56.5702 85.7764 55.9134 85.9329 55.1727 85.9329ZM62.7721 85.9329C62.2299 85.9329 61.7412 85.8107 61.3059 85.5664C60.8706 85.3144 60.527 84.9745 60.275 84.5469C60.023 84.1193 59.897 83.6344 59.897 83.0922C59.897 82.5576 60.0192 82.0765 60.2635 81.6489C60.5155 81.2213 60.8515 80.8853 61.2715 80.6409C61.6992 80.3889 62.1765 80.2629 62.7034 80.2629C63.2074 80.2629 63.6503 80.3775 64.0321 80.6065C64.4215 80.8356 64.7232 81.1525 64.937 81.5573C65.1585 81.962 65.2692 82.4202 65.2692 82.9318C65.2692 83.0082 65.2654 83.0922 65.2577 83.1838C65.2501 83.2678 65.2348 83.3671 65.2119 83.4816H60.6186V82.6225H64.6621L64.2841 82.9547C64.2841 82.5882 64.2192 82.2789 64.0894 82.0269C63.9595 81.7673 63.7763 81.5687 63.5395 81.4313C63.3028 81.2862 63.0165 81.2136 62.6805 81.2136C62.3292 81.2136 62.0199 81.29 61.7526 81.4427C61.4854 81.5955 61.2792 81.8093 61.1341 82.0842C60.989 82.3591 60.9165 82.6836 60.9165 83.0578C60.9165 83.4396 60.9928 83.7756 61.1455 84.0658C61.2983 84.3484 61.5159 84.5698 61.7985 84.7302C62.081 84.8829 62.4055 84.9593 62.7721 84.9593C63.0775 84.9593 63.3563 84.9058 63.6083 84.7989C63.8679 84.692 64.0894 84.5316 64.2726 84.3178L64.937 84.9936C64.6774 85.2991 64.3566 85.532 63.9748 85.6924C63.6006 85.8527 63.1997 85.9329 62.7721 85.9329ZM66.3933 85.8184V80.3775H67.4242V85.8184H66.3933ZM67.4242 82.7142L67.0347 82.5424C67.0347 81.8475 67.1951 81.2938 67.5158 80.8815C67.8365 80.4691 68.2985 80.2629 68.9018 80.2629C69.1767 80.2629 69.4249 80.3125 69.6463 80.4118C69.8678 80.5035 70.074 80.66 70.2649 80.8815L69.5891 81.5802C69.4745 81.458 69.3485 81.3702 69.2111 81.3167C69.0736 81.2633 68.9133 81.2365 68.73 81.2365C68.3482 81.2365 68.0351 81.3587 67.7907 81.6031C67.5463 81.8475 67.4242 82.2178 67.4242 82.7142ZM71.0131 85.8184V80.3775H72.044V85.8184H71.0131ZM74.69 85.8184V82.5309C74.69 82.1262 74.564 81.8093 74.312 81.5802C74.0676 81.3435 73.7584 81.2251 73.3842 81.2251C73.1322 81.2251 72.9069 81.2785 72.7084 81.3855C72.5098 81.4924 72.3495 81.6413 72.2273 81.8322C72.1051 82.0231 72.044 82.2522 72.044 82.5195L71.6202 82.3133C71.6202 81.9009 71.708 81.542 71.8836 81.2365C72.0669 80.9311 72.3151 80.6944 72.6282 80.5264C72.9413 80.3507 73.2926 80.2629 73.682 80.2629C74.0638 80.2629 74.4075 80.3469 74.7129 80.5149C75.026 80.6829 75.2704 80.9196 75.446 81.2251C75.6293 81.5305 75.7209 81.8933 75.7209 82.3133V85.8184H74.69ZM78.3669 85.8184V82.5309C78.3669 82.1262 78.2409 81.8093 77.9889 81.5802C77.7446 81.3435 77.4391 81.2251 77.0726 81.2251C76.8206 81.2251 76.5915 81.2785 76.3853 81.3855C76.1867 81.4924 76.0264 81.6413 75.9042 81.8322C75.782 82.0231 75.7209 82.2522 75.7209 82.5195L75.1367 82.3133C75.1596 81.8933 75.2704 81.5344 75.4689 81.2365C75.6751 80.9311 75.9386 80.6944 76.2593 80.5264C76.58 80.3507 76.9313 80.2629 77.3131 80.2629C77.7102 80.2629 78.0653 80.3469 78.3784 80.5149C78.6915 80.6829 78.9396 80.9196 79.1229 81.2251C79.3138 81.5305 79.4093 81.8971 79.4093 82.3247V85.8184H78.3669ZM83.1259 85.9329C82.6296 85.9329 82.179 85.8107 81.7743 85.5664C81.3696 85.3144 81.0488 84.9745 80.8121 84.5469C80.583 84.1193 80.4685 83.6382 80.4685 83.1036C80.4685 82.5691 80.583 82.088 80.8121 81.6604C81.0488 81.2327 81.3657 80.8929 81.7628 80.6409C82.1676 80.3889 82.6219 80.2629 83.1259 80.2629C83.5383 80.2629 83.9048 80.3507 84.2256 80.5264C84.5539 80.6944 84.8174 80.9311 85.0159 81.2365C85.2145 81.5344 85.3252 81.8818 85.3481 82.2789V83.9169C85.3252 84.3064 85.2145 84.6538 85.0159 84.9593C84.825 85.2647 84.5654 85.5053 84.237 85.6809C83.9163 85.8489 83.5459 85.9329 83.1259 85.9329ZM83.2977 84.9593C83.8094 84.9593 84.2217 84.7875 84.5348 84.4438C84.8479 84.0925 85.0045 83.6458 85.0045 83.1036C85.0045 82.7295 84.9319 82.4049 84.7868 82.13C84.6494 81.8475 84.4508 81.6298 84.1912 81.4771C83.9316 81.3167 83.6299 81.2365 83.2863 81.2365C82.9427 81.2365 82.6372 81.3167 82.3699 81.4771C82.1103 81.6375 81.9041 81.8589 81.7514 82.1415C81.6063 82.4164 81.5337 82.7333 81.5337 83.0922C81.5337 83.4587 81.6063 83.7833 81.7514 84.0658C81.9041 84.3407 82.1141 84.5584 82.3814 84.7187C82.6487 84.8791 82.9541 84.9593 83.2977 84.9593ZM84.9357 85.8184V84.3522L85.1305 83.0235L84.9357 81.7062V80.3775H85.9781V85.8184H84.9357ZM91.3277 85.8184V82.6455C91.3277 82.2331 91.1979 81.8933 90.9383 81.626C90.6786 81.3587 90.3426 81.2251 89.9303 81.2251C89.6554 81.2251 89.411 81.2862 89.1972 81.4084C88.9834 81.5305 88.8154 81.6985 88.6932 81.9124C88.571 82.1262 88.5099 82.3705 88.5099 82.6455L88.0861 82.4049C88.0861 81.9925 88.1777 81.626 88.361 81.3053C88.5443 80.9845 88.8001 80.7325 89.1285 80.5493C89.4568 80.3584 89.8272 80.2629 90.2396 80.2629C90.6519 80.2629 91.0146 80.366 91.3277 80.5722C91.6485 80.7784 91.9005 81.0495 92.0837 81.3855C92.267 81.7138 92.3586 82.0651 92.3586 82.4393V85.8184H91.3277ZM87.479 85.8184V80.3775H88.5099V85.8184H87.479Z" fill="#143852"/>
    </g>
    <defs>
        <filter id="filter0_d_59033_7802" x="0.636364" y="0.818182" width="182.727" height="155.364" filterUnits="userSpaceOnUse" color-interpolation-filters="sRGB">
            <feFlood flood-opacity="0" result="BackgroundImageFix"/>
            <feColorMatrix in="SourceAlpha" type="matrix" values="0 0 0 0 0 0 0 0 0 0 0 0 0 0 0 0 0 0 127 0" result="hardAlpha"/>
            <feOffset dy="10.1818"/>
            <feGaussianBlur stdDeviation="10.1818"/>
            <feComposite in2="hardAlpha" operator="out"/>
            <feColorMatrix type="matrix" values="0 0 0 0 0 0 0 0 0 0 0 0 0 0 0 0 0 0 0.05 0"/>
            <feBlend mode="normal" in2="BackgroundImageFix" result="effect1_dropShadow_59033_7802"/>
            <feBlend mode="normal" in="SourceGraphic" in2="effect1_dropShadow_59033_7802" result="shape"/>
        </filter>
        <clipPath id="clip0_59033_7802">
            <rect x="32.1816" y="49.0459" width="13.3636" height="9.54545" rx="1.90909" fill="white"/>
        </clipPath>
        <clipPath id="clip1_59033_7802">
            <rect x="32.1816" y="21.0459" width="13.3636" height="9.54545" rx="1.90909" fill="white"/>
        </clipPath>
        <clipPath id="clip2_59033_7802">
            <rect x="32.1816" y="102.5" width="13.3636" height="9.54545" rx="1.90909" fill="white"/>
        </clipPath>
        <clipPath id="clip3_59033_7802">
            <rect x="32.1816" y="77.0459" width="13.3636" height="9.54545" rx="1.90909" fill="white"/>
        </clipPath>
    </defs>
</svg>
