<svg width="182" height="141" viewBox="0 0 182 141" fill="none" xmlns="http://www.w3.org/2000/svg">
    <g filter="url(#filter0_d_59033_7758)">
        <rect x="21" y="11.5" width="140" height="112.636" rx="5.09091" fill="white" shape-rendering="crispEdges"/>
        <rect x="20.6818" y="11.1818" width="140.636" height="113.273" rx="5.40909" stroke="#143852" stroke-opacity="0.1" stroke-width="0.636364" shape-rendering="crispEdges"/>
        <rect width="140" height="25.0909" transform="translate(21 40.7725)" fill="black" fill-opacity="0.05"/>
        <g clip-path="url(#clip0_59033_7758)">
            <rect x="31.1816" y="48.5459" width="13.3636" height="9.54545" rx="1.90909" fill="#1A47B8"/>
            <path fill-rule="evenodd" clip-rule="evenodd" d="M32.6033 48.5459H31.1816V50.1368L43.1159 58.0914L44.5453 58.0914V56.5004L32.6033 48.5459Z" fill="white"/>
            <path d="M31.6558 48.5459L44.5453 57.1594V58.0914H44.0822L31.1816 49.469V48.5459H31.6558Z" fill="#F93939"/>
            <path fill-rule="evenodd" clip-rule="evenodd" d="M43.2725 48.5459H44.5453V50.1368C44.5453 50.1368 36.2788 55.4365 32.4544 58.0914H31.1816V56.5004L43.2725 48.5459Z" fill="white"/>
            <path d="M44.5453 48.5459H44.1137L31.1816 57.1668V58.0914H31.6558L44.5453 49.476V48.5459Z" fill="#F93939"/>
            <path fill-rule="evenodd" clip-rule="evenodd" d="M36.0416 48.5459H39.6964V51.4902H44.5453V55.1451H39.6964V58.0914H36.0416V55.1451H31.1816V51.4902H36.0416V48.5459Z" fill="white"/>
            <path fill-rule="evenodd" clip-rule="evenodd" d="M36.8084 48.5459H38.9185V52.2172H44.5453V54.42H38.9185V58.0914H36.8084V54.42H31.1816V52.2172H36.8084V48.5459Z" fill="#F93939"/>
        </g>
        <path d="M50.576 57.3184V49.3689H51.6527V57.3184H50.576ZM51.3091 57.3184V56.3333H55.868V57.3184H51.3091ZM51.3091 53.7216V52.7824H55.49V53.7216H51.3091ZM51.3091 50.354V49.3689H55.8107V50.354H51.3091ZM60.9978 57.3184V54.1455C60.9978 53.7331 60.868 53.3933 60.6084 53.126C60.3487 52.8587 60.0127 52.7251 59.6004 52.7251C59.3255 52.7251 59.0811 52.7862 58.8673 52.9084C58.6535 53.0305 58.4855 53.1985 58.3633 53.4124C58.2411 53.6262 58.18 53.8705 58.18 54.1455L57.7562 53.9049C57.7562 53.4925 57.8478 53.126 58.0311 52.8053C58.2144 52.4845 58.4702 52.2325 58.7986 52.0493C59.1269 51.8584 59.4973 51.7629 59.9097 51.7629C60.322 51.7629 60.6847 51.866 60.9978 52.0722C61.3186 52.2784 61.5706 52.5495 61.7538 52.8855C61.9371 53.2138 62.0287 53.5651 62.0287 53.9393V57.3184H60.9978ZM57.1491 57.3184V51.8775H58.18V57.3184H57.1491ZM65.681 59.7124C65.1236 59.7124 64.6272 59.6093 64.192 59.4031C63.7643 59.1969 63.4207 58.9067 63.161 58.5325L63.8254 57.8567C64.0469 58.1393 64.3103 58.3531 64.6158 58.4982C64.9212 58.6509 65.284 58.7273 65.704 58.7273C66.2614 58.7273 66.7005 58.5784 67.0212 58.2805C67.3496 57.9904 67.5138 57.5971 67.5138 57.1007V55.7491L67.697 54.5235L67.5138 53.3093V51.8775H68.5447V57.1007C68.5447 57.62 68.4225 58.0744 68.1781 58.4638C67.9414 58.8533 67.6054 59.1587 67.1701 59.3802C66.7425 59.6016 66.2461 59.7124 65.681 59.7124ZM65.681 57.2267C65.1847 57.2267 64.738 57.1084 64.3409 56.8716C63.9514 56.6349 63.6421 56.3104 63.413 55.898C63.184 55.478 63.0694 55.0084 63.0694 54.4891C63.0694 53.9698 63.184 53.5078 63.413 53.1031C63.6421 52.6907 63.9514 52.3662 64.3409 52.1295C64.738 51.8851 65.1847 51.7629 65.681 51.7629C66.1087 51.7629 66.4867 51.8469 66.815 52.0149C67.1434 52.1829 67.403 52.4196 67.594 52.7251C67.7925 53.0229 67.8994 53.3742 67.9147 53.7789V55.2222C67.8918 55.6193 67.781 55.9705 67.5825 56.276C67.3916 56.5738 67.132 56.8067 66.8036 56.9747C66.4752 57.1427 66.101 57.2267 65.681 57.2267ZM65.8872 56.2531C66.2232 56.2531 66.5172 56.1805 66.7692 56.0355C67.0289 55.8904 67.2274 55.688 67.3649 55.4284C67.5023 55.1611 67.571 54.8518 67.571 54.5005C67.571 54.1493 67.4985 53.8438 67.3534 53.5842C67.216 53.3169 67.0212 53.1107 66.7692 52.9656C66.5172 52.8129 66.2194 52.7365 65.8758 52.7365C65.5321 52.7365 65.2305 52.8129 64.9709 52.9656C64.7112 53.1107 64.505 53.3169 64.3523 53.5842C64.2072 53.8438 64.1347 54.1455 64.1347 54.4891C64.1347 54.8327 64.2072 55.1382 64.3523 55.4055C64.505 55.6727 64.7112 55.8827 64.9709 56.0355C65.2381 56.1805 65.5436 56.2531 65.8872 56.2531ZM70.0578 57.3184V49.1398H71.0888V57.3184H70.0578ZM72.6085 57.3184V51.8775H73.6395V57.3184H72.6085ZM73.124 50.7893C72.9331 50.7893 72.7765 50.7282 72.6544 50.606C72.5322 50.4762 72.4711 50.3158 72.4711 50.1249C72.4711 49.9416 72.5322 49.7889 72.6544 49.6667C72.7765 49.5369 72.9331 49.472 73.124 49.472C73.3149 49.472 73.4715 49.5369 73.5936 49.6667C73.7158 49.7889 73.7769 49.9416 73.7769 50.1249C73.7769 50.3158 73.7158 50.4762 73.5936 50.606C73.4715 50.7282 73.3149 50.7893 73.124 50.7893ZM76.8883 57.4329C76.5829 57.4329 76.2927 57.3947 76.0178 57.3184C75.7505 57.2344 75.5023 57.1198 75.2732 56.9747C75.0442 56.822 74.8456 56.6425 74.6776 56.4364L75.342 55.772C75.5405 56.0164 75.7696 56.1996 76.0292 56.3218C76.2889 56.4364 76.5791 56.4936 76.8998 56.4936C77.2205 56.4936 77.4687 56.4402 77.6443 56.3333C77.82 56.2187 77.9078 56.0622 77.9078 55.8636C77.9078 55.6651 77.8352 55.5124 77.6902 55.4055C77.5527 55.2909 77.3732 55.1993 77.1518 55.1305C76.9303 55.0542 76.6936 54.9816 76.4416 54.9129C76.1972 54.8365 75.9643 54.7411 75.7429 54.6265C75.5214 54.512 75.3382 54.3555 75.1931 54.1569C75.0556 53.9584 74.9869 53.6949 74.9869 53.3665C74.9869 53.0382 75.0671 52.7556 75.2274 52.5189C75.3878 52.2745 75.6092 52.0875 75.8918 51.9576C76.182 51.8278 76.5294 51.7629 76.9342 51.7629C77.3618 51.7629 77.7398 51.8393 78.0682 51.992C78.4042 52.1371 78.6791 52.3585 78.8929 52.6564L78.2285 53.3207C78.0758 53.1222 77.8849 52.9695 77.6558 52.8625C77.4343 52.7556 77.1823 52.7022 76.8998 52.7022C76.602 52.7022 76.3729 52.7556 76.2125 52.8625C76.0598 52.9618 75.9834 53.1031 75.9834 53.2864C75.9834 53.4696 76.0522 53.6109 76.1896 53.7102C76.3271 53.8095 76.5065 53.8935 76.728 53.9622C76.9571 54.0309 77.1938 54.1035 77.4382 54.1798C77.6825 54.2485 77.9154 54.344 78.1369 54.4662C78.3583 54.5884 78.5378 54.7525 78.6752 54.9587C78.8203 55.1649 78.8929 55.436 78.8929 55.772C78.8929 56.2836 78.7096 56.6884 78.3431 56.9862C77.9842 57.284 77.4992 57.4329 76.8883 57.4329ZM83.8957 57.3184V54.1455C83.8957 53.7331 83.7659 53.3933 83.5063 53.126C83.2467 52.8587 82.9107 52.7251 82.4983 52.7251C82.2234 52.7251 81.979 52.7862 81.7652 52.9084C81.5514 53.0305 81.3834 53.1985 81.2612 53.4124C81.139 53.6262 81.0779 53.8705 81.0779 54.1455L80.6541 53.9049C80.6541 53.4925 80.7457 53.126 80.929 52.8053C81.1123 52.4845 81.3681 52.2325 81.6965 52.0493C82.0248 51.8584 82.3952 51.7629 82.8076 51.7629C83.2199 51.7629 83.5827 51.8545 83.8957 52.0378C84.2165 52.2211 84.4685 52.4769 84.6517 52.8053C84.835 53.1336 84.9267 53.5116 84.9267 53.9393V57.3184H83.8957ZM80.047 57.3184V49.1398H81.0779V57.3184H80.047Z" fill="#1D2327"/>
        <g clip-path="url(#clip1_59033_7758)">
            <rect x="31.1816" y="20.5459" width="13.3636" height="9.54545" rx="1.90909" fill="white"/>
            <path fill-rule="evenodd" clip-rule="evenodd" d="M40.0898 20.5459H44.5444V30.0914H40.0898V20.5459Z" fill="#F93939"/>
            <path fill-rule="evenodd" clip-rule="evenodd" d="M31.1816 20.5459H35.6362V30.0914H31.1816V20.5459Z" fill="#1A47B8"/>
        </g>
        <path d="M50.576 29.3184V21.3689H51.6527V29.3184H50.576ZM51.3091 25.8247V24.8396H55.4556V25.8247H51.3091ZM51.3091 22.354V21.3689H55.6504V22.354H51.3091ZM56.8806 29.3184V23.8775H57.9116V29.3184H56.8806ZM57.9116 26.2142L57.5221 26.0424C57.5221 25.3475 57.6825 24.7938 58.0032 24.3815C58.3239 23.9691 58.7859 23.7629 59.3892 23.7629C59.6641 23.7629 59.9123 23.8125 60.1337 23.9118C60.3552 24.0035 60.5614 24.16 60.7523 24.3815L60.0765 25.0802C59.9619 24.958 59.8359 24.8702 59.6985 24.8167C59.561 24.7633 59.4006 24.7365 59.2174 24.7365C58.8356 24.7365 58.5225 24.8587 58.2781 25.1031C58.0337 25.3475 57.9116 25.7178 57.9116 26.2142ZM63.8191 29.4329C63.277 29.4329 62.7882 29.3107 62.353 29.0664C61.9177 28.8144 61.5741 28.4745 61.3221 28.0469C61.0701 27.6193 60.9441 27.1344 60.9441 26.5922C60.9441 26.0576 61.0662 25.5765 61.3106 25.1489C61.5626 24.7213 61.8986 24.3853 62.3186 24.1409C62.7462 23.8889 63.2235 23.7629 63.7504 23.7629C64.2544 23.7629 64.6973 23.8775 65.0791 24.1065C65.4686 24.3356 65.7702 24.6525 65.9841 25.0573C66.2055 25.462 66.3162 25.9202 66.3162 26.4318C66.3162 26.5082 66.3124 26.5922 66.3048 26.6838C66.2971 26.7678 66.2819 26.8671 66.259 26.9816H61.6657V26.1225H65.7091L65.3311 26.4547C65.3311 26.0882 65.2662 25.7789 65.1364 25.5269C65.0066 25.2673 64.8233 25.0687 64.5866 24.9313C64.3499 24.7862 64.0635 24.7136 63.7275 24.7136C63.3762 24.7136 63.067 24.79 62.7997 24.9427C62.5324 25.0955 62.3262 25.3093 62.1811 25.5842C62.0361 25.8591 61.9635 26.1836 61.9635 26.5578C61.9635 26.9396 62.0399 27.2756 62.1926 27.5658C62.3453 27.8484 62.563 28.0698 62.8455 28.2302C63.1281 28.3829 63.4526 28.4593 63.8191 28.4593C64.1246 28.4593 64.4033 28.4058 64.6553 28.2989C64.915 28.192 65.1364 28.0316 65.3197 27.8178L65.9841 28.4936C65.7244 28.7991 65.4037 29.032 65.0219 29.1924C64.6477 29.3527 64.2468 29.4329 63.8191 29.4329ZM71.289 29.3184V26.1455C71.289 25.7331 71.1592 25.3933 70.8996 25.126C70.6399 24.8587 70.3039 24.7251 69.8916 24.7251C69.6167 24.7251 69.3723 24.7862 69.1585 24.9084C68.9447 25.0305 68.7767 25.1985 68.6545 25.4124C68.5323 25.6262 68.4712 25.8705 68.4712 26.1455L68.0474 25.9049C68.0474 25.4925 68.139 25.126 68.3223 24.8053C68.5056 24.4845 68.7614 24.2325 69.0898 24.0493C69.4181 23.8584 69.7885 23.7629 70.2008 23.7629C70.6132 23.7629 70.9759 23.866 71.289 24.0722C71.6098 24.2784 71.8618 24.5495 72.045 24.8855C72.2283 25.2138 72.3199 25.5651 72.3199 25.9393V29.3184H71.289ZM67.4403 29.3184V23.8775H68.4712V29.3184H67.4403ZM76.2013 29.4329C75.6668 29.4329 75.1819 29.3069 74.7466 29.0549C74.319 28.8029 73.9791 28.4631 73.7271 28.0355C73.4828 27.6002 73.3606 27.1191 73.3606 26.5922C73.3606 26.0576 73.4828 25.5765 73.7271 25.1489C73.9791 24.7213 74.319 24.3853 74.7466 24.1409C75.1819 23.8889 75.6668 23.7629 76.2013 23.7629C76.6213 23.7629 77.0108 23.8431 77.3697 24.0035C77.7286 24.1562 78.0379 24.3815 78.2975 24.6793L77.6102 25.3665C77.4422 25.168 77.2361 25.0191 76.9917 24.9198C76.755 24.8129 76.4915 24.7595 76.2013 24.7595C75.8577 24.7595 75.5522 24.8396 75.285 25C75.0177 25.1527 74.8077 25.3665 74.655 25.6415C74.5022 25.9164 74.4259 26.2333 74.4259 26.5922C74.4259 26.9511 74.5022 27.268 74.655 27.5429C74.8077 27.8178 75.0177 28.0355 75.285 28.1958C75.5522 28.3562 75.8577 28.4364 76.2013 28.4364C76.4915 28.4364 76.755 28.3867 76.9917 28.2875C77.2361 28.1805 77.4461 28.0278 77.6217 27.8293L78.2975 28.5165C78.0455 28.8067 77.7362 29.032 77.3697 29.1924C77.0108 29.3527 76.6213 29.4329 76.2013 29.4329ZM83.1686 29.3184V26.1455C83.1686 25.7331 83.0388 25.3933 82.7792 25.126C82.5196 24.8587 82.1836 24.7251 81.7712 24.7251C81.4963 24.7251 81.2519 24.7862 81.0381 24.9084C80.8243 25.0305 80.6563 25.1985 80.5341 25.4124C80.4119 25.6262 80.3508 25.8705 80.3508 26.1455L79.927 25.9049C79.927 25.4925 80.0186 25.126 80.2019 24.8053C80.3852 24.4845 80.641 24.2325 80.9694 24.0493C81.2977 23.8584 81.6681 23.7629 82.0805 23.7629C82.4928 23.7629 82.8556 23.8545 83.1686 24.0378C83.4894 24.2211 83.7414 24.4769 83.9246 24.8053C84.1079 25.1336 84.1996 25.5116 84.1996 25.9393V29.3184H83.1686ZM79.3199 29.3184V21.1398H80.3508V29.3184H79.3199Z" fill="#143852"/>
        <g clip-path="url(#clip2_59033_7758)">
            <rect x="31.1816" y="102" width="13.3636" height="9.54545" rx="1.90909" fill="white"/>
            <path fill-rule="evenodd" clip-rule="evenodd" d="M40.0898 102H44.5444V111.545H40.0898V102Z" fill="#F93939"/>
            <path fill-rule="evenodd" clip-rule="evenodd" d="M31.1816 102H35.6362V111.545H31.1816V102Z" fill="#249F58"/>
        </g>
        <path d="M50.576 110.772V102.823H51.6527V110.772H50.576ZM54.182 110.772V103.052H55.2129V110.772H54.182ZM52.8418 106.271V105.332H56.5531V106.271H52.8418ZM59.709 110.887C59.2127 110.887 58.7621 110.765 58.3574 110.52C57.9527 110.268 57.6319 109.929 57.3952 109.501C57.1661 109.073 57.0516 108.592 57.0516 108.058C57.0516 107.523 57.1661 107.042 57.3952 106.614C57.6319 106.187 57.9488 105.847 58.3459 105.595C58.7507 105.343 59.205 105.217 59.709 105.217C60.1214 105.217 60.4879 105.305 60.8087 105.48C61.137 105.648 61.4005 105.885 61.599 106.191C61.7976 106.488 61.9083 106.836 61.9312 107.233V108.871C61.9083 109.26 61.7976 109.608 61.599 109.913C61.4081 110.219 61.1485 110.459 60.8201 110.635C60.4994 110.803 60.129 110.887 59.709 110.887ZM59.8808 109.913C60.3925 109.913 60.8048 109.742 61.1179 109.398C61.431 109.047 61.5876 108.6 61.5876 108.058C61.5876 107.684 61.515 107.359 61.3699 107.084C61.2325 106.802 61.0339 106.584 60.7743 106.431C60.5147 106.271 60.213 106.191 59.8694 106.191C59.5258 106.191 59.2203 106.271 58.953 106.431C58.6934 106.592 58.4872 106.813 58.3345 107.096C58.1894 107.37 58.1168 107.687 58.1168 108.046C58.1168 108.413 58.1894 108.737 58.3345 109.02C58.4872 109.295 58.6972 109.512 58.9645 109.673C59.2317 109.833 59.5372 109.913 59.8808 109.913ZM61.5188 110.772V109.306L61.7136 107.978L61.5188 106.66V105.332H62.5612V110.772H61.5188ZM64.0621 110.772V102.594H65.093V110.772H64.0621ZM66.6128 110.772V105.332H67.6437V110.772H66.6128ZM67.1283 104.243C66.9373 104.243 66.7808 104.182 66.6586 104.06C66.5364 103.93 66.4753 103.77 66.4753 103.579C66.4753 103.396 66.5364 103.243 66.6586 103.121C66.7808 102.991 66.9373 102.926 67.1283 102.926C67.3192 102.926 67.4757 102.991 67.5979 103.121C67.7201 103.243 67.7812 103.396 67.7812 103.579C67.7812 103.77 67.7201 103.93 67.5979 104.06C67.4757 104.182 67.3192 104.243 67.1283 104.243ZM71.4768 110.887C70.9804 110.887 70.5299 110.765 70.1251 110.52C69.7204 110.268 69.3997 109.929 69.163 109.501C68.9339 109.073 68.8193 108.592 68.8193 108.058C68.8193 107.523 68.9339 107.042 69.163 106.614C69.3997 106.187 69.7166 105.847 70.1137 105.595C70.5184 105.343 70.9728 105.217 71.4768 105.217C71.8891 105.217 72.2557 105.305 72.5764 105.48C72.9048 105.648 73.1682 105.885 73.3668 106.191C73.5653 106.488 73.6761 106.836 73.699 107.233V108.871C73.6761 109.26 73.5653 109.608 73.3668 109.913C73.1759 110.219 72.9162 110.459 72.5879 110.635C72.2671 110.803 71.8968 110.887 71.4768 110.887ZM71.6486 109.913C72.1602 109.913 72.5726 109.742 72.8857 109.398C73.1988 109.047 73.3553 108.6 73.3553 108.058C73.3553 107.684 73.2828 107.359 73.1377 107.084C73.0002 106.802 72.8017 106.584 72.5421 106.431C72.2824 106.271 71.9808 106.191 71.6371 106.191C71.2935 106.191 70.9881 106.271 70.7208 106.431C70.4611 106.592 70.255 106.813 70.1022 107.096C69.9571 107.37 69.8846 107.687 69.8846 108.046C69.8846 108.413 69.9571 108.737 70.1022 109.02C70.255 109.295 70.465 109.512 70.7322 109.673C70.9995 109.833 71.305 109.913 71.6486 109.913ZM73.2866 110.772V109.306L73.4813 107.978L73.2866 106.66V105.332H74.329V110.772H73.2866ZM79.6786 110.772V107.6C79.6786 107.187 79.5488 106.847 79.2891 106.58C79.0295 106.313 78.6935 106.179 78.2811 106.179C78.0062 106.179 77.7619 106.24 77.548 106.362C77.3342 106.485 77.1662 106.653 77.044 106.866C76.9219 107.08 76.8608 107.325 76.8608 107.6L76.437 107.359C76.437 106.947 76.5286 106.58 76.7119 106.259C76.8951 105.939 77.151 105.687 77.4793 105.503C77.8077 105.312 78.178 105.217 78.5904 105.217C79.0028 105.217 79.3655 105.32 79.6786 105.526C79.9993 105.732 80.2513 106.004 80.4346 106.34C80.6179 106.668 80.7095 107.019 80.7095 107.393V110.772H79.6786ZM75.8299 110.772V105.332H76.8608V110.772H75.8299Z" fill="#143852"/>
        <g clip-path="url(#clip3_59033_7758)">
            <rect x="31.1816" y="76.5459" width="13.3636" height="9.54545" rx="1.90909" fill="#F93939"/>
            <path fill-rule="evenodd" clip-rule="evenodd" d="M31.1816 82.9092H44.5453V86.091H31.1816V82.9092Z" fill="#FFDA2C"/>
            <path fill-rule="evenodd" clip-rule="evenodd" d="M31.1816 76.5459H44.5453V79.7277H31.1816V76.5459Z" fill="#151515"/>
        </g>
        <path d="M54.1727 85.4329C53.6153 85.4329 53.0922 85.3298 52.6034 85.1236C52.1224 84.9098 51.6985 84.6158 51.332 84.2416C50.9731 83.8675 50.6905 83.4322 50.4844 82.9358C50.2782 82.4395 50.1751 81.9049 50.1751 81.3322C50.1751 80.7595 50.2782 80.2287 50.4844 79.74C50.6905 79.2436 50.9769 78.8084 51.3434 78.4342C51.71 78.06 52.1376 77.7698 52.6264 77.5636C53.1227 77.3574 53.6611 77.2544 54.2414 77.2544C54.8753 77.2544 55.4594 77.3765 55.994 77.6209C56.5285 77.8653 56.9753 78.2165 57.3342 78.6747L56.5896 79.4193C56.3376 79.0527 56.0054 78.774 55.5931 78.5831C55.1807 78.3845 54.7302 78.2853 54.2414 78.2853C53.6611 78.2853 53.1456 78.4151 52.6951 78.6747C52.2522 78.9344 51.9047 79.2933 51.6527 79.7515C51.4084 80.2096 51.2862 80.7365 51.2862 81.3322C51.2862 81.9355 51.4122 82.4662 51.6642 82.9244C51.9162 83.3825 52.256 83.7415 52.6836 84.0011C53.1113 84.2607 53.6 84.3905 54.1498 84.3905C54.7073 84.3905 55.1884 84.2836 55.5931 84.0698C56.0054 83.856 56.3224 83.5429 56.5438 83.1305C56.7653 82.7105 56.876 82.1989 56.876 81.5956L57.5289 82.0653H54.0925V81.0802H57.9871V81.2405C57.9871 82.1645 57.8229 82.9396 57.4945 83.5658C57.1738 84.1844 56.7233 84.6502 56.1429 84.9633C55.5702 85.2764 54.9134 85.4329 54.1727 85.4329ZM61.7721 85.4329C61.2299 85.4329 60.7412 85.3107 60.3059 85.0664C59.8706 84.8144 59.527 84.4745 59.275 84.0469C59.023 83.6193 58.897 83.1344 58.897 82.5922C58.897 82.0576 59.0192 81.5765 59.2635 81.1489C59.5155 80.7213 59.8515 80.3853 60.2715 80.1409C60.6992 79.8889 61.1765 79.7629 61.7034 79.7629C62.2074 79.7629 62.6503 79.8775 63.0321 80.1065C63.4215 80.3356 63.7232 80.6525 63.937 81.0573C64.1585 81.462 64.2692 81.9202 64.2692 82.4318C64.2692 82.5082 64.2654 82.5922 64.2577 82.6838C64.2501 82.7678 64.2348 82.8671 64.2119 82.9816H59.6186V82.1225H63.6621L63.2841 82.4547C63.2841 82.0882 63.2192 81.7789 63.0894 81.5269C62.9595 81.2673 62.7763 81.0687 62.5395 80.9313C62.3028 80.7862 62.0165 80.7136 61.6805 80.7136C61.3292 80.7136 61.0199 80.79 60.7526 80.9427C60.4854 81.0955 60.2792 81.3093 60.1341 81.5842C59.989 81.8591 59.9165 82.1836 59.9165 82.5578C59.9165 82.9396 59.9928 83.2756 60.1455 83.5658C60.2983 83.8484 60.5159 84.0698 60.7985 84.2302C61.081 84.3829 61.4055 84.4593 61.7721 84.4593C62.0775 84.4593 62.3563 84.4058 62.6083 84.2989C62.8679 84.192 63.0894 84.0316 63.2726 83.8178L63.937 84.4936C63.6774 84.7991 63.3566 85.032 62.9748 85.1924C62.6006 85.3527 62.1997 85.4329 61.7721 85.4329ZM65.3933 85.3184V79.8775H66.4242V85.3184H65.3933ZM66.4242 82.2142L66.0347 82.0424C66.0347 81.3475 66.1951 80.7938 66.5158 80.3815C66.8365 79.9691 67.2985 79.7629 67.9018 79.7629C68.1767 79.7629 68.4249 79.8125 68.6463 79.9118C68.8678 80.0035 69.074 80.16 69.2649 80.3815L68.5891 81.0802C68.4745 80.958 68.3485 80.8702 68.2111 80.8167C68.0736 80.7633 67.9133 80.7365 67.73 80.7365C67.3482 80.7365 67.0351 80.8587 66.7907 81.1031C66.5463 81.3475 66.4242 81.7178 66.4242 82.2142ZM70.0131 85.3184V79.8775H71.044V85.3184H70.0131ZM73.69 85.3184V82.0309C73.69 81.6262 73.564 81.3093 73.312 81.0802C73.0676 80.8435 72.7584 80.7251 72.3842 80.7251C72.1322 80.7251 71.9069 80.7785 71.7084 80.8855C71.5098 80.9924 71.3495 81.1413 71.2273 81.3322C71.1051 81.5231 71.044 81.7522 71.044 82.0195L70.6202 81.8133C70.6202 81.4009 70.708 81.042 70.8836 80.7365C71.0669 80.4311 71.3151 80.1944 71.6282 80.0264C71.9413 79.8507 72.2926 79.7629 72.682 79.7629C73.0638 79.7629 73.4075 79.8469 73.7129 80.0149C74.026 80.1829 74.2704 80.4196 74.446 80.7251C74.6293 81.0305 74.7209 81.3933 74.7209 81.8133V85.3184H73.69ZM77.3669 85.3184V82.0309C77.3669 81.6262 77.2409 81.3093 76.9889 81.0802C76.7446 80.8435 76.4391 80.7251 76.0726 80.7251C75.8206 80.7251 75.5915 80.7785 75.3853 80.8855C75.1867 80.9924 75.0264 81.1413 74.9042 81.3322C74.782 81.5231 74.7209 81.7522 74.7209 82.0195L74.1367 81.8133C74.1596 81.3933 74.2704 81.0344 74.4689 80.7365C74.6751 80.4311 74.9386 80.1944 75.2593 80.0264C75.58 79.8507 75.9313 79.7629 76.3131 79.7629C76.7102 79.7629 77.0653 79.8469 77.3784 80.0149C77.6915 80.1829 77.9396 80.4196 78.1229 80.7251C78.3138 81.0305 78.4093 81.3971 78.4093 81.8247V85.3184H77.3669ZM82.1259 85.4329C81.6296 85.4329 81.179 85.3107 80.7743 85.0664C80.3696 84.8144 80.0488 84.4745 79.8121 84.0469C79.583 83.6193 79.4685 83.1382 79.4685 82.6036C79.4685 82.0691 79.583 81.588 79.8121 81.1604C80.0488 80.7327 80.3657 80.3929 80.7628 80.1409C81.1676 79.8889 81.6219 79.7629 82.1259 79.7629C82.5383 79.7629 82.9048 79.8507 83.2256 80.0264C83.5539 80.1944 83.8174 80.4311 84.0159 80.7365C84.2145 81.0344 84.3252 81.3818 84.3481 81.7789V83.4169C84.3252 83.8064 84.2145 84.1538 84.0159 84.4593C83.825 84.7647 83.5654 85.0053 83.237 85.1809C82.9163 85.3489 82.5459 85.4329 82.1259 85.4329ZM82.2977 84.4593C82.8094 84.4593 83.2217 84.2875 83.5348 83.9438C83.8479 83.5925 84.0045 83.1458 84.0045 82.6036C84.0045 82.2295 83.9319 81.9049 83.7868 81.63C83.6494 81.3475 83.4508 81.1298 83.1912 80.9771C82.9316 80.8167 82.6299 80.7365 82.2863 80.7365C81.9427 80.7365 81.6372 80.8167 81.3699 80.9771C81.1103 81.1375 80.9041 81.3589 80.7514 81.6415C80.6063 81.9164 80.5337 82.2333 80.5337 82.5922C80.5337 82.9587 80.6063 83.2833 80.7514 83.5658C80.9041 83.8407 81.1141 84.0584 81.3814 84.2187C81.6487 84.3791 81.9541 84.4593 82.2977 84.4593ZM83.9357 85.3184V83.8522L84.1305 82.5235L83.9357 81.2062V79.8775H84.9781V85.3184H83.9357ZM90.3277 85.3184V82.1455C90.3277 81.7331 90.1979 81.3933 89.9383 81.126C89.6786 80.8587 89.3426 80.7251 88.9303 80.7251C88.6554 80.7251 88.411 80.7862 88.1972 80.9084C87.9834 81.0305 87.8154 81.1985 87.6932 81.4124C87.571 81.6262 87.5099 81.8705 87.5099 82.1455L87.0861 81.9049C87.0861 81.4925 87.1777 81.126 87.361 80.8053C87.5443 80.4845 87.8001 80.2325 88.1285 80.0493C88.4568 79.8584 88.8272 79.7629 89.2396 79.7629C89.6519 79.7629 90.0146 79.866 90.3277 80.0722C90.6485 80.2784 90.9005 80.5495 91.0837 80.8855C91.267 81.2138 91.3586 81.5651 91.3586 81.9393V85.3184H90.3277ZM86.479 85.3184V79.8775H87.5099V85.3184H86.479Z" fill="#143852"/>
    </g>
    <defs>
        <filter id="filter0_d_59033_7758" x="-0.000354767" y="0.681463" width="182.001" height="154.636" filterUnits="userSpaceOnUse" color-interpolation-filters="sRGB">
            <feFlood flood-opacity="0" result="BackgroundImageFix"/>
            <feColorMatrix in="SourceAlpha" type="matrix" values="0 0 0 0 0 0 0 0 0 0 0 0 0 0 0 0 0 0 127 0" result="hardAlpha"/>
            <feOffset dy="10.1818"/>
            <feGaussianBlur stdDeviation="10.1818"/>
            <feComposite in2="hardAlpha" operator="out"/>
            <feColorMatrix type="matrix" values="0 0 0 0 0 0 0 0 0 0 0 0 0 0 0 0 0 0 0.05 0"/>
            <feBlend mode="normal" in2="BackgroundImageFix" result="effect1_dropShadow_59033_7758"/>
            <feBlend mode="normal" in="SourceGraphic" in2="effect1_dropShadow_59033_7758" result="shape"/>
        </filter>
        <clipPath id="clip0_59033_7758">
            <rect x="31.1816" y="48.5459" width="13.3636" height="9.54545" rx="1.90909" fill="white"/>
        </clipPath>
        <clipPath id="clip1_59033_7758">
            <rect x="31.1816" y="20.5459" width="13.3636" height="9.54545" rx="1.90909" fill="white"/>
        </clipPath>
        <clipPath id="clip2_59033_7758">
            <rect x="31.1816" y="102" width="13.3636" height="9.54545" rx="1.90909" fill="white"/>
        </clipPath>
        <clipPath id="clip3_59033_7758">
            <rect x="31.1816" y="76.5459" width="13.3636" height="9.54545" rx="1.90909" fill="white"/>
        </clipPath>
    </defs>
</svg>
