<svg width="177" height="43" viewBox="0 0 177 43" fill="none" xmlns="http://www.w3.org/2000/svg">
<path d="M4.02148 8.63067C4.02148 7.74221 4.74172 7.02197 5.63018 7.02197H33.7824C34.6708 7.02197 35.391 7.74221 35.391 8.63067V36.7828C35.391 37.6713 34.6708 38.3915 33.7824 38.3915H5.63018C4.74172 38.3915 4.02148 37.6713 4.02148 36.7828V8.63067Z" fill="#EB4034"/>
<path fill-rule="evenodd" clip-rule="evenodd" d="M25.0745 18.3064C24.7776 19.5093 24.1777 21.4065 23.0279 23.4297C22.5674 24.2399 21.9927 25.1117 21.2817 25.9834L21.0925 26.2154L21.318 26.4123C23.1164 27.9826 25.2722 29.0838 27.762 29.706L27.2533 31.9047C24.0366 31.1062 21.5921 29.6529 19.7453 28.0153L19.5399 27.8332L19.3346 28.0153C17.4878 29.6529 15.0433 31.1062 11.8265 31.9047L11.3178 29.706C13.8076 29.0838 15.9635 27.9826 17.7618 26.4123L17.9873 26.2154L17.7981 25.9834C17.0871 25.1117 16.5124 24.2399 16.0519 23.4296C14.9021 21.4065 14.3022 19.5093 14.0053 18.3064L13.9473 18.071H10.7246V15.8053H18.4512V12.9204H20.5823V15.8053H28.3087V18.071H25.1325L25.0745 18.3064ZM22.6957 18.4677L22.8121 18.071H16.2677L16.3841 18.4677C16.6913 19.5145 17.2109 20.9284 18.0628 22.4058C18.4405 23.061 18.8512 23.677 19.2946 24.2532L19.5399 24.5721L19.7852 24.2532C20.2286 23.677 20.6393 23.061 21.017 22.4059C21.8689 20.9284 22.3885 19.5145 22.6957 18.4677Z" fill="white"/>
<path fill-rule="evenodd" clip-rule="evenodd" d="M1.59856 3H29.771C30.6539 3 31.3696 3.7157 31.3696 4.59856V5.41304H5.63043C3.85352 5.41304 2.41304 6.85352 2.41304 8.63043V34.3696H1.59856C0.715698 34.3696 0 33.6539 0 32.771V4.59856C0 3.7157 0.715698 3 1.59856 3Z" fill="#419DE0"/>
<path d="M49.7021 28V17.2246H45.7998V15.3174H55.8633V17.2246H51.9609V28H49.7021ZM56.8477 28V18.4111H59.0273V19.8877H59.1768C59.3408 19.3662 59.6338 18.9648 60.0557 18.6836C60.4834 18.3965 61.0107 18.2529 61.6377 18.2529C61.8018 18.2529 61.96 18.2617 62.1123 18.2793C62.2705 18.2969 62.4053 18.3203 62.5166 18.3496V20.3096C62.3408 20.2686 62.1621 20.2393 61.9805 20.2217C61.8047 20.1982 61.623 20.1865 61.4355 20.1865C60.9492 20.1865 60.5244 20.2773 60.1611 20.459C59.8037 20.6406 59.5254 20.8984 59.3262 21.2324C59.127 21.5664 59.0273 21.9648 59.0273 22.4277V28H56.8477ZM66.7705 28.1582C66.1611 28.1582 65.6191 28.041 65.1445 27.8066C64.6699 27.5723 64.2949 27.2412 64.0195 26.8135C63.75 26.3799 63.6152 25.873 63.6152 25.293V25.2754C63.6152 24.7012 63.7559 24.209 64.0371 23.7988C64.3184 23.3887 64.7285 23.0664 65.2676 22.832C65.8125 22.5977 66.4746 22.457 67.2539 22.4102L70.8047 22.1992V23.6406L67.5615 23.8516C66.9521 23.8867 66.501 24.0156 66.208 24.2383C65.915 24.4609 65.7686 24.7686 65.7686 25.1611V25.1787C65.7686 25.5889 65.9238 25.9082 66.2344 26.1367C66.5449 26.3652 66.9434 26.4795 67.4297 26.4795C67.8691 26.4795 68.2617 26.3916 68.6074 26.2158C68.9531 26.04 69.2256 25.8027 69.4248 25.5039C69.624 25.1992 69.7236 24.8564 69.7236 24.4756V21.4521C69.7236 20.9717 69.5713 20.6025 69.2666 20.3447C68.9619 20.0869 68.5137 19.958 67.9219 19.958C67.418 19.958 67.0078 20.0459 66.6914 20.2217C66.375 20.3975 66.1611 20.6436 66.0498 20.96L66.041 20.9951H63.9756L63.9844 20.9248C64.0605 20.3799 64.2715 19.9053 64.6172 19.501C64.9688 19.0967 65.4346 18.7832 66.0146 18.5605C66.5947 18.332 67.2656 18.2178 68.0273 18.2178C68.8477 18.2178 69.5449 18.3467 70.1191 18.6045C70.6992 18.8623 71.1387 19.2314 71.4375 19.7119C71.7363 20.1924 71.8857 20.7695 71.8857 21.4434V28H69.7236V26.6729H69.5742C69.3984 26.9834 69.1699 27.25 68.8887 27.4727C68.6133 27.6953 68.2969 27.8652 67.9395 27.9824C67.582 28.0996 67.1924 28.1582 66.7705 28.1582ZM74.4785 28V18.4111H76.6582V19.8789H76.8076C77.0361 19.3633 77.3818 18.959 77.8447 18.666C78.3076 18.3672 78.8877 18.2178 79.585 18.2178C80.6572 18.2178 81.4746 18.5283 82.0371 19.1494C82.6055 19.7705 82.8896 20.6523 82.8896 21.7949V28H80.7012V22.2959C80.7012 21.5518 80.543 20.9951 80.2266 20.626C79.916 20.251 79.4326 20.0635 78.7764 20.0635C78.3369 20.0635 77.959 20.1602 77.6426 20.3535C77.332 20.5469 77.0889 20.8193 76.9131 21.1709C76.7432 21.5166 76.6582 21.9297 76.6582 22.4102V28H74.4785ZM89.0684 28.1934C88.2598 28.1934 87.5596 28.0762 86.9678 27.8418C86.3818 27.6074 85.9189 27.2852 85.5791 26.875C85.2393 26.459 85.04 25.9814 84.9814 25.4424L84.9727 25.416H87.1436L87.1523 25.4336C87.2637 25.7734 87.4805 26.0488 87.8027 26.2598C88.1309 26.4707 88.5645 26.5762 89.1035 26.5762C89.4727 26.5762 89.792 26.5264 90.0615 26.4268C90.3369 26.3213 90.5537 26.1777 90.7119 25.9961C90.8701 25.8145 90.9492 25.6035 90.9492 25.3633V25.3545C90.9492 25.0732 90.835 24.8389 90.6064 24.6514C90.3779 24.458 90.0029 24.2998 89.4814 24.1768L87.917 23.834C87.3135 23.6992 86.8125 23.5117 86.4141 23.2715C86.0156 23.0312 85.7168 22.7354 85.5176 22.3838C85.3242 22.0322 85.2275 21.6221 85.2275 21.1533V21.1445C85.2275 20.5645 85.3887 20.0547 85.7109 19.6152C86.0391 19.1758 86.4932 18.833 87.0732 18.5869C87.6533 18.3408 88.3184 18.2178 89.0684 18.2178C89.8477 18.2178 90.5186 18.3379 91.0811 18.5781C91.6436 18.8125 92.083 19.1348 92.3994 19.5449C92.7158 19.9551 92.8975 20.4209 92.9443 20.9424V20.9688H90.8789V20.9424C90.8027 20.6318 90.6094 20.3711 90.2988 20.1602C89.9883 19.9434 89.5752 19.835 89.0596 19.835C88.7373 19.835 88.4502 19.8848 88.1982 19.9844C87.9463 20.0781 87.7471 20.2158 87.6006 20.3975C87.46 20.5732 87.3896 20.7812 87.3896 21.0215V21.0303C87.3896 21.2178 87.4365 21.3818 87.5303 21.5225C87.6299 21.6631 87.7852 21.7861 87.9961 21.8916C88.207 21.9971 88.4854 22.0908 88.8311 22.1729L90.3779 22.5156C91.3213 22.7266 92.0186 23.04 92.4697 23.4561C92.9209 23.8721 93.1465 24.4316 93.1465 25.1348V25.1436C93.1465 25.7529 92.9707 26.2891 92.6191 26.752C92.2676 27.209 91.7842 27.5635 91.1689 27.8154C90.5596 28.0674 89.8594 28.1934 89.0684 28.1934ZM95.4053 28V14.7021H97.5938V28H95.4053ZM102.946 28.1582C102.337 28.1582 101.795 28.041 101.32 27.8066C100.846 27.5723 100.471 27.2412 100.195 26.8135C99.9258 26.3799 99.791 25.873 99.791 25.293V25.2754C99.791 24.7012 99.9316 24.209 100.213 23.7988C100.494 23.3887 100.904 23.0664 101.443 22.832C101.988 22.5977 102.65 22.457 103.43 22.4102L106.98 22.1992V23.6406L103.737 23.8516C103.128 23.8867 102.677 24.0156 102.384 24.2383C102.091 24.4609 101.944 24.7686 101.944 25.1611V25.1787C101.944 25.5889 102.1 25.9082 102.41 26.1367C102.721 26.3652 103.119 26.4795 103.605 26.4795C104.045 26.4795 104.438 26.3916 104.783 26.2158C105.129 26.04 105.401 25.8027 105.601 25.5039C105.8 25.1992 105.899 24.8564 105.899 24.4756V21.4521C105.899 20.9717 105.747 20.6025 105.442 20.3447C105.138 20.0869 104.689 19.958 104.098 19.958C103.594 19.958 103.184 20.0459 102.867 20.2217C102.551 20.3975 102.337 20.6436 102.226 20.96L102.217 20.9951H100.151L100.16 20.9248C100.236 20.3799 100.447 19.9053 100.793 19.501C101.145 19.0967 101.61 18.7832 102.19 18.5605C102.771 18.332 103.441 18.2178 104.203 18.2178C105.023 18.2178 105.721 18.3467 106.295 18.6045C106.875 18.8623 107.314 19.2314 107.613 19.7119C107.912 20.1924 108.062 20.7695 108.062 21.4434V28H105.899V26.6729H105.75C105.574 26.9834 105.346 27.25 105.064 27.4727C104.789 27.6953 104.473 27.8652 104.115 27.9824C103.758 28.0996 103.368 28.1582 102.946 28.1582ZM114.416 28.0527C113.32 28.0527 112.529 27.8506 112.043 27.4463C111.557 27.042 111.313 26.377 111.313 25.4512V20.0986H109.828V18.4111H111.313V16.0469H113.537V18.4111H115.55V20.0986H113.537V24.9502C113.537 25.4248 113.637 25.7705 113.836 25.9873C114.041 26.2041 114.369 26.3125 114.82 26.3125C114.973 26.3125 115.099 26.3096 115.198 26.3037C115.304 26.292 115.421 26.2803 115.55 26.2686V27.9561C115.397 27.9795 115.222 28 115.022 28.0176C114.829 28.041 114.627 28.0527 114.416 28.0527ZM121.72 28.1934C120.771 28.1934 119.953 27.9912 119.268 27.5869C118.588 27.1826 118.063 26.6113 117.694 25.873C117.325 25.1289 117.141 24.2471 117.141 23.2275V23.2188C117.141 22.2109 117.322 21.335 117.686 20.5908C118.055 19.8408 118.576 19.2578 119.25 18.8418C119.924 18.4258 120.715 18.2178 121.623 18.2178C122.531 18.2178 123.313 18.4199 123.97 18.8242C124.632 19.2227 125.142 19.7822 125.499 20.5029C125.856 21.2236 126.035 22.0674 126.035 23.0342V23.7549H118.239V22.2871H124.963L123.926 23.6582V22.7881C123.926 22.1494 123.829 21.6191 123.636 21.1973C123.442 20.7754 123.173 20.459 122.827 20.248C122.487 20.0371 122.095 19.9316 121.649 19.9316C121.198 19.9316 120.797 20.043 120.445 20.2656C120.1 20.4824 119.824 20.8047 119.619 21.2324C119.42 21.6543 119.32 22.1729 119.32 22.7881V23.667C119.32 24.2529 119.42 24.7568 119.619 25.1787C119.818 25.6006 120.1 25.9229 120.463 26.1455C120.832 26.3682 121.269 26.4795 121.772 26.4795C122.165 26.4795 122.502 26.4238 122.783 26.3125C123.064 26.1953 123.293 26.0576 123.469 25.8994C123.65 25.7354 123.773 25.5771 123.838 25.4248L123.864 25.3633H125.938L125.921 25.4512C125.845 25.7617 125.704 26.0781 125.499 26.4004C125.3 26.7168 125.027 27.0127 124.682 27.2881C124.342 27.5576 123.926 27.7773 123.434 27.9473C122.941 28.1113 122.37 28.1934 121.72 28.1934ZM129.56 23.8076V21.9795H132.926C133.74 21.9795 134.373 21.7715 134.824 21.3555C135.275 20.9336 135.501 20.3418 135.501 19.5801V19.5625C135.501 18.7949 135.275 18.2031 134.824 17.7871C134.373 17.3711 133.74 17.1631 132.926 17.1631H129.56V15.3174H133.479C134.335 15.3174 135.085 15.4932 135.729 15.8447C136.38 16.1963 136.887 16.6914 137.25 17.3301C137.613 17.9629 137.795 18.7041 137.795 19.5537V19.5713C137.795 20.415 137.613 21.1562 137.25 21.7949C136.887 22.4277 136.38 22.9229 135.729 23.2803C135.085 23.6318 134.335 23.8076 133.479 23.8076H129.56ZM128.426 28V15.3174H130.685V28H128.426ZM140.027 28V18.4111H142.207V19.8877H142.356C142.521 19.3662 142.813 18.9648 143.235 18.6836C143.663 18.3965 144.19 18.2529 144.817 18.2529C144.981 18.2529 145.14 18.2617 145.292 18.2793C145.45 18.2969 145.585 18.3203 145.696 18.3496V20.3096C145.521 20.2686 145.342 20.2393 145.16 20.2217C144.984 20.1982 144.803 20.1865 144.615 20.1865C144.129 20.1865 143.704 20.2773 143.341 20.459C142.983 20.6406 142.705 20.8984 142.506 21.2324C142.307 21.5664 142.207 21.9648 142.207 22.4277V28H140.027ZM151.304 28.1934C150.354 28.1934 149.537 27.9912 148.852 27.5869C148.172 27.1826 147.647 26.6113 147.278 25.873C146.909 25.1289 146.725 24.2471 146.725 23.2275V23.2188C146.725 22.2109 146.906 21.335 147.27 20.5908C147.639 19.8408 148.16 19.2578 148.834 18.8418C149.508 18.4258 150.299 18.2178 151.207 18.2178C152.115 18.2178 152.897 18.4199 153.554 18.8242C154.216 19.2227 154.726 19.7822 155.083 20.5029C155.44 21.2236 155.619 22.0674 155.619 23.0342V23.7549H147.823V22.2871H154.547L153.51 23.6582V22.7881C153.51 22.1494 153.413 21.6191 153.22 21.1973C153.026 20.7754 152.757 20.459 152.411 20.248C152.071 20.0371 151.679 19.9316 151.233 19.9316C150.782 19.9316 150.381 20.043 150.029 20.2656C149.684 20.4824 149.408 20.8047 149.203 21.2324C149.004 21.6543 148.904 22.1729 148.904 22.7881V23.667C148.904 24.2529 149.004 24.7568 149.203 25.1787C149.402 25.6006 149.684 25.9229 150.047 26.1455C150.416 26.3682 150.853 26.4795 151.356 26.4795C151.749 26.4795 152.086 26.4238 152.367 26.3125C152.648 26.1953 152.877 26.0576 153.053 25.8994C153.234 25.7354 153.357 25.5771 153.422 25.4248L153.448 25.3633H155.522L155.505 25.4512C155.429 25.7617 155.288 26.0781 155.083 26.4004C154.884 26.7168 154.611 27.0127 154.266 27.2881C153.926 27.5576 153.51 27.7773 153.018 27.9473C152.525 28.1113 151.954 28.1934 151.304 28.1934ZM161.402 28.1934C160.594 28.1934 159.894 28.0762 159.302 27.8418C158.716 27.6074 158.253 27.2852 157.913 26.875C157.573 26.459 157.374 25.9814 157.315 25.4424L157.307 25.416H159.478L159.486 25.4336C159.598 25.7734 159.814 26.0488 160.137 26.2598C160.465 26.4707 160.898 26.5762 161.438 26.5762C161.807 26.5762 162.126 26.5264 162.396 26.4268C162.671 26.3213 162.888 26.1777 163.046 25.9961C163.204 25.8145 163.283 25.6035 163.283 25.3633V25.3545C163.283 25.0732 163.169 24.8389 162.94 24.6514C162.712 24.458 162.337 24.2998 161.815 24.1768L160.251 23.834C159.647 23.6992 159.146 23.5117 158.748 23.2715C158.35 23.0312 158.051 22.7354 157.852 22.3838C157.658 22.0322 157.562 21.6221 157.562 21.1533V21.1445C157.562 20.5645 157.723 20.0547 158.045 19.6152C158.373 19.1758 158.827 18.833 159.407 18.5869C159.987 18.3408 160.652 18.2178 161.402 18.2178C162.182 18.2178 162.853 18.3379 163.415 18.5781C163.978 18.8125 164.417 19.1348 164.733 19.5449C165.05 19.9551 165.231 20.4209 165.278 20.9424V20.9688H163.213V20.9424C163.137 20.6318 162.943 20.3711 162.633 20.1602C162.322 19.9434 161.909 19.835 161.394 19.835C161.071 19.835 160.784 19.8848 160.532 19.9844C160.28 20.0781 160.081 20.2158 159.935 20.3975C159.794 20.5732 159.724 20.7812 159.724 21.0215V21.0303C159.724 21.2178 159.771 21.3818 159.864 21.5225C159.964 21.6631 160.119 21.7861 160.33 21.8916C160.541 21.9971 160.819 22.0908 161.165 22.1729L162.712 22.5156C163.655 22.7266 164.353 23.04 164.804 23.4561C165.255 23.8721 165.48 24.4316 165.48 25.1348V25.1436C165.48 25.7529 165.305 26.2891 164.953 26.752C164.602 27.209 164.118 27.5635 163.503 27.8154C162.894 28.0674 162.193 28.1934 161.402 28.1934ZM171.105 28.1934C170.297 28.1934 169.597 28.0762 169.005 27.8418C168.419 27.6074 167.956 27.2852 167.616 26.875C167.276 26.459 167.077 25.9814 167.019 25.4424L167.01 25.416H169.181L169.189 25.4336C169.301 25.7734 169.518 26.0488 169.84 26.2598C170.168 26.4707 170.602 26.5762 171.141 26.5762C171.51 26.5762 171.829 26.5264 172.099 26.4268C172.374 26.3213 172.591 26.1777 172.749 25.9961C172.907 25.8145 172.986 25.6035 172.986 25.3633V25.3545C172.986 25.0732 172.872 24.8389 172.644 24.6514C172.415 24.458 172.04 24.2998 171.519 24.1768L169.954 23.834C169.351 23.6992 168.85 23.5117 168.451 23.2715C168.053 23.0312 167.754 22.7354 167.555 22.3838C167.361 22.0322 167.265 21.6221 167.265 21.1533V21.1445C167.265 20.5645 167.426 20.0547 167.748 19.6152C168.076 19.1758 168.53 18.833 169.11 18.5869C169.69 18.3408 170.355 18.2178 171.105 18.2178C171.885 18.2178 172.556 18.3379 173.118 18.5781C173.681 18.8125 174.12 19.1348 174.437 19.5449C174.753 19.9551 174.935 20.4209 174.981 20.9424V20.9688H172.916V20.9424C172.84 20.6318 172.646 20.3711 172.336 20.1602C172.025 19.9434 171.612 19.835 171.097 19.835C170.774 19.835 170.487 19.8848 170.235 19.9844C169.983 20.0781 169.784 20.2158 169.638 20.3975C169.497 20.5732 169.427 20.7812 169.427 21.0215V21.0303C169.427 21.2178 169.474 21.3818 169.567 21.5225C169.667 21.6631 169.822 21.7861 170.033 21.8916C170.244 21.9971 170.522 22.0908 170.868 22.1729L172.415 22.5156C173.358 22.7266 174.056 23.04 174.507 23.4561C174.958 23.8721 175.184 24.4316 175.184 25.1348V25.1436C175.184 25.7529 175.008 26.2891 174.656 26.752C174.305 27.209 173.821 27.5635 173.206 27.8154C172.597 28.0674 171.896 28.1934 171.105 28.1934Z" fill="#1D2327"/>
</svg>
