<svg width="92" height="91" viewBox="0 0 92 91" fill="none" xmlns="http://www.w3.org/2000/svg">
<path d="M10.3906 13.8476C10.3906 11.6625 12.162 9.89111 14.3471 9.89111H83.5863C85.7714 9.89111 87.5428 11.6625 87.5428 13.8476V83.0868C87.5428 85.2719 85.7714 87.0433 83.5863 87.0433H14.3471C12.162 87.0433 10.3906 85.2719 10.3906 83.0868V13.8476Z" fill="#EB4034"/>
<path fill-rule="evenodd" clip-rule="evenodd" d="M14.3466 5.93457H83.5858C87.956 5.93457 91.4988 9.47736 91.4988 13.8476V83.0867C91.4988 87.457 87.956 90.9998 83.5858 90.9998H14.3466C9.97638 90.9998 6.43359 87.457 6.43359 83.0867V13.8476C6.43359 9.47736 9.97638 5.93457 14.3466 5.93457ZM14.3466 9.89109C12.1615 9.89109 10.3901 11.6625 10.3901 13.8476V83.0867C10.3901 85.2719 12.1615 87.0433 14.3466 87.0433H83.5858C85.7709 87.0433 87.5423 85.2719 87.5423 83.0867V13.8476C87.5423 11.6625 85.7709 9.89109 83.5858 9.89109H14.3466Z" fill="white"/>
<path fill-rule="evenodd" clip-rule="evenodd" d="M62.1679 37.645C61.4378 40.6036 59.9624 45.2697 57.1346 50.2455C56.0019 52.2383 54.5885 54.3825 52.8398 56.5264L52.3745 57.0969L52.929 57.5811C57.352 61.4433 62.6543 64.1517 68.7777 65.6818L67.5265 71.0894C59.6152 69.1256 53.6032 65.5512 49.061 61.5236L48.5559 61.0758L48.0508 61.5236C43.5087 65.5512 37.4967 69.1256 29.5852 71.0895L28.334 65.6819C34.4574 64.1517 39.7598 61.4434 44.1828 57.5811L44.7373 57.0969L44.272 56.5264C42.5232 54.3825 41.1098 52.2383 39.9772 50.2454C37.1494 45.2697 35.6739 40.6036 34.9438 37.645L34.801 37.0661H26.875V31.4937H45.8784V24.3984H51.1195V31.4937H70.1224V37.0661H62.3107L62.1679 37.645ZM56.3173 38.0418L56.6036 37.0661H40.5081L40.7944 38.0418C41.5498 40.6163 42.8278 44.0937 44.9229 47.7275C45.8519 49.3388 46.862 50.8538 47.9525 52.2711L48.5559 53.0553L49.1593 52.271C50.2497 50.8538 51.2598 49.3388 52.1888 47.7276C54.284 44.0938 55.5619 40.6163 56.3173 38.0418Z" fill="white"/>
<path fill-rule="evenodd" clip-rule="evenodd" d="M4.43158 0H73.7206C75.8919 0 77.6522 1.76023 77.6522 3.93158V5.93478H14.3478C9.97758 5.93478 6.43478 9.47758 6.43478 13.8478V77.1522H4.43158C2.26023 77.1522 0.5 75.3919 0.5 73.2206V3.93158C0.5 1.76023 2.26023 0 4.43158 0Z" fill="#419DE0"/>
</svg>
