<svg viewBox="0 0 17 17">
    <path d="M12.1667 9.66667H13.8333V12.1667H16.3333V13.8333H13.8333V16.3333H12.1667V13.8333H9.66667V12.1667H12.1667V9.66667ZM2.16667 0.5H13.8333C14.7583 0.5 15.5 1.24167 15.5 2.16667V8.66667C14.9917 8.375 14.4333 8.16667 13.8333 8.06667V2.16667H2.16667V13.8333H8.06667C8.16667 14.4333 8.375 14.9917 8.66667 15.5H2.16667C1.24167 15.5 0.5 14.7583 0.5 13.8333V2.16667C0.5 1.24167 1.24167 0.5 2.16667 0.5ZM3.83333 3.83333H12.1667V5.5H3.83333V3.83333ZM3.83333 7.16667H12.1667V8.06667C11.4583 8.18333 10.8083 8.45 10.2333 8.83333H3.83333V7.16667ZM3.83333 10.5H8V12.1667H3.83333V10.5Z"/>
</svg>