<svg width="16" height="16" viewBox="0 0 16 16" fill="none" xmlns="http://www.w3.org/2000/svg">
    <path d="M1.33333 8C1.33333 6.13333 2.4 4.53333 4 3.8V2.33333C1.66667 3.2 0 5.4 0 8C0 10.6 1.66667 12.8 4 13.6667V12.2C2.4 11.4667 1.33333 9.86667 1.33333 8ZM10 2C6.66667 2 4 4.66667 4 8C4 11.3333 6.66667 14 10 14C13.3333 14 16 11.3333 16 8C16 4.66667 13.3333 2 10 2ZM13.3333 8.66667H10.6667V11.3333H9.33333V8.66667H6.66667V7.33333H9.33333V4.66667H10.6667V7.33333H13.3333V8.66667Z"
          fill="#0068A0"/>
</svg>