<svg viewBox="0 0 12 14">
    <path d="M2.0013 0.333496C1.64768 0.333496 1.30854 0.473972 1.05849 0.72402C0.808444 0.974069 0.667969 1.31321 0.667969 1.66683V12.3335C0.667969 12.6871 0.808444 13.0263 1.05849 13.2763C1.30854 13.5264 1.64768 13.6668 2.0013 13.6668H10.0013C10.3549 13.6668 10.6941 13.5264 10.9441 13.2763C11.1942 13.0263 11.3346 12.6871 11.3346 12.3335V4.3335L7.33463 0.333496H2.0013ZM2.0013 1.66683H6.66797V5.00016H10.0013V12.3335H2.0013V1.66683ZM3.33464 7.00016V8.3335H8.66797V7.00016H3.33464ZM3.33464 9.66683V11.0002H6.66797V9.66683H3.33464Z"/>
</svg>