<svg viewBox="0 0 16 16">
    <path d="M14.1667 12.8905H1.83333C1.47971 12.8905 1.14057 12.75 0.890524 12.5C0.640476 12.25 0.5 11.9108 0.5 11.5572V3.33333C0.5 2.97971 0.640476 2.64057 0.890524 2.39052C1.14057 2.14048 1.47971 2 1.83333 2H14.1667C14.5203 2 14.8594 2.14048 15.1095 2.39052C15.3595 2.64057 15.5 2.97971 15.5 3.33333V11.5572C15.5 11.9108 15.3595 12.25 15.1095 12.5C14.8594 12.75 14.5203 12.8905 14.1667 12.8905ZM1.83333 3.33333V11.5572H14.1667V3.33333H1.83333Z"/>
    <path d="M8 8H11V9H8V8Z"/>
    <path d="M6.5 9.5H3V5.5H6.5V9.5Z"/>
    <path d="M8 7V6H13V7H8Z"/>
</svg>