<svg width="28" height="28" viewBox="0 0 28 28" fill="none" xmlns="http://www.w3.org/2000/svg">
    <path d="M10.5007 3.5L8.36565 5.83333H4.66732C3.38398 5.83333 2.33398 6.88333 2.33398 8.16667V22.1667C2.33398 23.45 3.38398 24.5 4.66732 24.5H23.334C24.6173 24.5 25.6673 23.45 25.6673 22.1667V8.16667C25.6673 6.88333 24.6173 5.83333 23.334 5.83333H19.6357L17.5007 3.5H10.5007ZM14.0007 21C10.7807 21 8.16732 18.3867 8.16732 15.1667C8.16732 11.9467 10.7807 9.33333 14.0007 9.33333C17.2207 9.33333 19.834 11.9467 19.834 15.1667C19.834 18.3867 17.2207 21 14.0007 21Z"
          fill="#0096CC"/>
    <path d="M14.0007 19.8333L15.459 16.625L18.6673 15.1667L15.459 13.7083L14.0007 10.5L12.5423 13.7083L9.33398 15.1667L12.5423 16.625L14.0007 19.8333Z"
          fill="#0096CC"/>
</svg>