<svg width="14" height="14" viewBox="0 0 14 14" fill="none" xmlns="http://www.w3.org/2000/svg">
    <path d="M6.99989 9.33334C6.38105 9.33334 5.78756 9.0875 5.34998 8.64992C4.91239 8.21233 4.66656 7.61884 4.66656 7C4.66656 6.38117 4.91239 5.78767 5.34998 5.35009C5.78756 4.9125 6.38105 4.66667 6.99989 4.66667C7.61873 4.66667 8.21222 4.9125 8.64981 5.35009C9.08739 5.78767 9.33323 6.38117 9.33323 7C9.33323 7.61884 9.08739 8.21233 8.64981 8.64992C8.21222 9.0875 7.61873 9.33334 6.99989 9.33334ZM11.9532 7.64667C11.9799 7.43334 11.9999 7.22 11.9999 7C11.9999 6.78 11.9799 6.56 11.9532 6.33334L13.3599 5.24667C13.4866 5.14667 13.5199 4.96667 13.4399 4.82L12.1066 2.51334C12.0266 2.36667 11.8466 2.30667 11.6999 2.36667L10.0399 3.03334C9.69323 2.77334 9.33323 2.54667 8.91323 2.38L8.66656 0.613337C8.65302 0.534815 8.61212 0.463622 8.5511 0.412371C8.49009 0.361121 8.41291 0.333123 8.33323 0.333337H5.66656C5.49989 0.333337 5.35989 0.453337 5.33323 0.613337L5.08656 2.38C4.66656 2.54667 4.30656 2.77334 3.95989 3.03334L2.29989 2.36667C2.15323 2.30667 1.97323 2.36667 1.89323 2.51334L0.559893 4.82C0.473226 4.96667 0.513226 5.14667 0.639893 5.24667L2.04656 6.33334C2.01989 6.56 1.99989 6.78 1.99989 7C1.99989 7.22 2.01989 7.43334 2.04656 7.64667L0.639893 8.75334C0.513226 8.85334 0.473226 9.03334 0.559893 9.18L1.89323 11.4867C1.97323 11.6333 2.15323 11.6867 2.29989 11.6333L3.95989 10.96C4.30656 11.2267 4.66656 11.4533 5.08656 11.62L5.33323 13.3867C5.35989 13.5467 5.49989 13.6667 5.66656 13.6667H8.33323C8.49989 13.6667 8.63989 13.5467 8.66656 13.3867L8.91323 11.62C9.33323 11.4467 9.69323 11.2267 10.0399 10.96L11.6999 11.6333C11.8466 11.6867 12.0266 11.6333 12.1066 11.4867L13.4399 9.18C13.5199 9.03334 13.4866 8.85334 13.3599 8.75334L11.9532 7.64667Z"
          fill="#141B38"/>
</svg>