<svg viewBox="0 0 18 18">
    <path d="M14.5 9C14.1022 9 13.7206 8.84196 13.4393 8.56066C13.158 8.27936 13 7.89782 13 7.5C13 7.10218 13.158 6.72064 13.4393 6.43934C13.7206 6.15804 14.1022 6 14.5 6C14.8978 6 15.2794 6.15804 15.5607 6.43934C15.842 6.72064 16 7.10218 16 7.5C16 7.89782 15.842 8.27936 15.5607 8.56066C15.2794 8.84196 14.8978 9 14.5 9ZM11.5 5C11.1022 5 10.7206 4.84196 10.4393 4.56066C10.158 4.27936 10 3.89782 10 3.5C10 3.10218 10.158 2.72064 10.4393 2.43934C10.7206 2.15804 11.1022 2 11.5 2C11.8978 2 12.2794 2.15804 12.5607 2.43934C12.842 2.72064 13 3.10218 13 3.5C13 3.89782 12.842 4.27936 12.5607 4.56066C12.2794 4.84196 11.8978 5 11.5 5ZM6.5 5C6.10218 5 5.72064 4.84196 5.43934 4.56066C5.15804 4.27936 5 3.89782 5 3.5C5 3.10218 5.15804 2.72064 5.43934 2.43934C5.72064 2.15804 6.10218 2 6.5 2C6.89782 2 7.27936 2.15804 7.56066 2.43934C7.84196 2.72064 8 3.10218 8 3.5C8 3.89782 7.84196 4.27936 7.56066 4.56066C7.27936 4.84196 6.89782 5 6.5 5ZM3.5 9C3.10218 9 2.72064 8.84196 2.43934 8.56066C2.15804 8.27936 2 7.89782 2 7.5C2 7.10218 2.15804 6.72064 2.43934 6.43934C2.72064 6.15804 3.10218 6 3.5 6C3.89782 6 4.27936 6.15804 4.56066 6.43934C4.84196 6.72064 5 7.10218 5 7.5C5 7.89782 4.84196 8.27936 4.56066 8.56066C4.27936 8.84196 3.89782 9 3.5 9ZM9 0C6.61305 0 4.32387 0.948211 2.63604 2.63604C0.948211 4.32387 0 6.61305 0 9C0 11.3869 0.948211 13.6761 2.63604 15.364C4.32387 17.0518 6.61305 18 9 18C9.39782 18 9.77936 17.842 10.0607 17.5607C10.342 17.2794 10.5 16.8978 10.5 16.5C10.5 16.11 10.35 15.76 10.11 15.5C9.88 15.23 9.73 14.88 9.73 14.5C9.73 14.1022 9.88804 13.7206 10.1693 13.4393C10.4506 13.158 10.8322 13 11.23 13H13C14.3261 13 15.5979 12.4732 16.5355 11.5355C17.4732 10.5979 18 9.32608 18 8C18 3.58 13.97 0 9 0Z"/>
</svg>