<svg viewBox="0 0 12 13">
    <path d="M10.25 0.25H4.625C3.9375 0.25 3.375 0.8125 3.375 1.5V9C3.375 9.6875 3.9375 10.25 4.625 10.25H10.25C10.9375 10.25 11.5 9.6875 11.5 9V1.5C11.5 0.8125 10.9375 0.25 10.25 0.25ZM10.25 9H4.625V1.5H10.25V9ZM0.875 8.375V7.125H2.125V8.375H0.875ZM0.875 4.9375H2.125V6.1875H0.875V4.9375ZM5.25 11.5H6.5V12.75H5.25V11.5ZM0.875 10.5625V9.3125H2.125V10.5625H0.875ZM2.125 12.75C1.4375 12.75 0.875 12.1875 0.875 11.5H2.125V12.75ZM4.3125 12.75H3.0625V11.5H4.3125V12.75ZM7.4375 12.75V11.5H8.6875C8.6875 12.1875 8.125 12.75 7.4375 12.75ZM2.125 2.75V4H0.875C0.875 3.3125 1.4375 2.75 2.125 2.75Z"/>
</svg>