<svg width="56" height="56" viewBox="0 0 56 56" fill="none" xmlns="http://www.w3.org/2000/svg">
    <rect width="28.1951" height="27" transform="translate(17.0762 16.2861) rotate(3)" fill="#8C8F9A"/>
    <path d="M39.048 26.1275L35.707 25.9524L36.4614 23.0765C36.4807 22.9916 36.4813 22.9035 36.4633 22.8183C36.4453 22.7332 36.4091 22.6529 36.3571 22.5831C36.3051 22.5132 36.2386 22.4555 36.1622 22.4138C36.0858 22.3721 36.0012 22.3475 35.9144 22.3416L34.7104 22.2785C34.5715 22.2678 34.4331 22.3056 34.3188 22.3854C34.2046 22.4653 34.1216 22.5823 34.0839 22.7164L33.3052 25.8266L30.0545 25.6562L30.8089 22.7802C30.8279 22.6973 30.829 22.6112 30.8124 22.5278C30.7957 22.4443 30.7615 22.3653 30.7121 22.296C30.6627 22.2267 30.5992 22.1687 30.5258 22.1257C30.4523 22.0827 30.3706 22.0557 30.286 22.0466L29.082 21.9835C28.9431 21.9728 28.8047 22.0106 28.6904 22.0904C28.5762 22.1703 28.4931 22.2873 28.4555 22.4215L27.6888 25.5322L24.077 25.3429C23.9363 25.3327 23.7965 25.3721 23.6819 25.4544C23.5673 25.5366 23.4852 25.6564 23.4498 25.793L23.1399 26.984C23.1172 27.0715 23.1144 27.163 23.1319 27.2517C23.1493 27.3405 23.1865 27.4241 23.2407 27.4965C23.2949 27.5689 23.3646 27.6282 23.4448 27.67C23.525 27.7118 23.6136 27.735 23.704 27.7379L27.0449 27.913L25.8053 32.677L22.1935 32.4877C22.0528 32.4775 21.913 32.5169 21.7984 32.5991C21.6838 32.6814 21.6017 32.8012 21.5663 32.9377L21.2564 34.1287C21.2337 34.2163 21.2309 34.3078 21.2484 34.3965C21.2658 34.4852 21.303 34.5689 21.3572 34.6413C21.4114 34.7137 21.4811 34.773 21.5613 34.8148C21.6415 34.8565 21.7301 34.8797 21.8205 34.8826L25.1855 35.059L24.4311 37.935C24.4115 38.0213 24.4112 38.111 24.4302 38.1975C24.4491 38.284 24.4869 38.3653 24.5409 38.4356C24.5948 38.5058 24.6636 38.5633 24.7423 38.604C24.821 38.6447 24.9077 38.6675 24.9962 38.6708L26.2001 38.7339C26.3343 38.7375 26.4658 38.6962 26.5739 38.6166C26.6819 38.537 26.7603 38.4236 26.7966 38.2943L27.5874 35.1849L30.838 35.3552L30.0836 38.2312C30.0647 38.3142 30.0635 38.4002 30.0802 38.4837C30.0969 38.5671 30.131 38.6461 30.1804 38.7154C30.2298 38.7847 30.2933 38.8428 30.3668 38.8858C30.4402 38.9288 30.522 38.9557 30.6066 38.9648L31.8105 39.0279C31.9495 39.0386 32.0879 39.0008 32.2021 38.921C32.3163 38.8411 32.3994 38.7241 32.4371 38.5899L33.2338 35.4808L36.8456 35.6701C36.9863 35.6803 37.1261 35.6409 37.2407 35.5586C37.3553 35.4764 37.4375 35.3566 37.4729 35.2201L37.7767 34.0287C37.7995 33.9412 37.8022 33.8497 37.7847 33.761C37.7673 33.6722 37.7301 33.5886 37.6759 33.5162C37.6217 33.4438 37.552 33.3845 37.4718 33.3427C37.3916 33.3009 37.303 33.2777 37.2126 33.2748L33.8536 33.0988L35.0872 28.3344L38.6991 28.5237C38.8397 28.5339 38.9795 28.4945 39.0941 28.4123C39.2087 28.3301 39.2909 28.2102 39.3263 28.0737L39.6362 26.8827C39.6596 26.7931 39.662 26.6994 39.6434 26.6087C39.6247 26.5181 39.5854 26.4329 39.5285 26.3599C39.4716 26.2869 39.3987 26.2279 39.3154 26.1876C39.232 26.1473 39.1405 26.1268 39.048 26.1275ZM31.4458 32.9726L28.1951 32.8022L29.4347 28.0382L32.6854 28.2086L31.4458 32.9726Z"
          fill="white"/>
    <rect x="10" y="10" width="30.1951" height="30" fill="#0096CC"/>
    <path d="M32.4132 21.2806H29.4859L30.0134 18.733C30.0263 18.6579 30.0229 18.5809 30.0032 18.5073C29.9836 18.4337 29.9483 18.3653 29.8997 18.3066C29.851 18.248 29.7903 18.2006 29.7216 18.1676C29.6529 18.1347 29.5779 18.1171 29.5017 18.1159H28.4468C28.3249 18.1129 28.2057 18.1523 28.1096 18.2273C28.0134 18.3023 27.9462 18.4083 27.9194 18.5273L27.3814 21.2806H24.5332L25.0606 18.733C25.0734 18.6596 25.0705 18.5844 25.0521 18.5122C25.0337 18.4401 25.0002 18.3726 24.9539 18.3143C24.9076 18.256 24.8494 18.2082 24.7833 18.174C24.7171 18.1398 24.6445 18.12 24.5701 18.1159H23.5152C23.3933 18.1129 23.2741 18.1523 23.1779 18.2273C23.0818 18.3023 23.0146 18.4083 22.9878 18.5273L22.4603 21.2806H19.2957C19.1723 21.2781 19.0519 21.3189 18.9555 21.396C18.8591 21.4731 18.7929 21.5816 18.7682 21.7025L18.552 22.7574C18.5361 22.8349 18.5379 22.915 18.5572 22.9918C18.5765 23.0685 18.6129 23.1399 18.6635 23.2007C18.7142 23.2615 18.7779 23.3101 18.8498 23.3429C18.9218 23.3757 19.0003 23.3919 19.0794 23.3903H22.0067L21.1417 27.6099H17.977C17.8536 27.6074 17.7333 27.6483 17.6369 27.7254C17.5405 27.8025 17.4742 27.9109 17.4496 28.0319L17.2333 29.0868C17.2175 29.1643 17.2193 29.2444 17.2386 29.3211C17.2579 29.3978 17.2943 29.4692 17.3449 29.53C17.3956 29.5908 17.4592 29.6394 17.5312 29.6723C17.6032 29.7051 17.6817 29.7213 17.7608 29.7197H20.7092L20.1818 32.2673C20.1686 32.3437 20.1724 32.422 20.1929 32.4967C20.2135 32.5715 20.2502 32.6408 20.3006 32.6997C20.3509 32.7586 20.4137 32.8057 20.4843 32.8376C20.5549 32.8696 20.6317 32.8855 20.7092 32.8844H21.7641C21.8815 32.8814 21.9945 32.8393 22.0853 32.7648C22.1761 32.6902 22.2394 32.5876 22.2652 32.473L22.8137 29.7197H25.6619L25.1345 32.2673C25.1217 32.3406 25.1246 32.4159 25.143 32.488C25.1614 32.5602 25.1949 32.6277 25.2412 32.6859C25.2876 32.7442 25.3457 32.7921 25.4119 32.8263C25.478 32.8605 25.5507 32.8803 25.625 32.8844H26.6799C26.8018 32.8874 26.921 32.848 27.0172 32.773C27.1134 32.698 27.1806 32.592 27.2073 32.473L27.7612 29.7197H30.9258C31.0492 29.7222 31.1696 29.6813 31.266 29.6042C31.3623 29.5271 31.4286 29.4187 31.4533 29.2978L31.6643 28.2429C31.6801 28.1653 31.6783 28.0852 31.659 28.0085C31.6397 27.9318 31.6034 27.8604 31.5527 27.7996C31.502 27.7388 31.4384 27.6902 31.3664 27.6574C31.2944 27.6245 31.2159 27.6083 31.1368 27.6099H28.1937L29.0534 23.3903H32.2181C32.3415 23.3928 32.4618 23.352 32.5582 23.2749C32.6546 23.1978 32.7209 23.0893 32.7455 22.9684L32.9618 21.9135C32.9781 21.8342 32.976 21.7521 32.9555 21.6738C32.9351 21.5954 32.8968 21.5228 32.8438 21.4616C32.7907 21.4004 32.7243 21.3522 32.6496 21.3208C32.575 21.2894 32.4941 21.2757 32.4132 21.2806ZM26.0839 27.6099H23.2357L24.1007 23.3903H26.9489L26.0839 27.6099Z"
          fill="white"/>
    <rect x="10" y="10" width="30.1951" height="30" stroke="white" stroke-width="2"/>
</svg><svg width="56" height="56" viewBox="0 0 56 56" fill="none" xmlns="http://www.w3.org/2000/svg">
<path d="M38.7033 21.3195C38.8925 21.1158 39.158 21 39.4361 21H52C52.5523 21 53 21.4477 53 22V45C53 45.5523 52.5523 46 52 46H28C27.4477 46 27 45.5523 27 45V29C27 28.4477 27.4477 28 28 28H32.0639C32.342 28 32.6075 27.8842 32.7967 27.6805L38.7033 21.3195Z"
      fill="white"/>
<rect x="5.05664" y="7.01074" width="28" height="28" rx="1" transform="rotate(-4 5.05664 7.01074)" fill="#8C8F9A"/>
<rect x="10.3242" y="10.6523" width="8" height="11" transform="rotate(-4 10.3242 10.6523)" fill="white"/>
<path d="M11.2305 23.6206L19.211 23.0626L19.6993 30.0455L11.7188 30.6036L11.2305 23.6206Z" fill="white"/>
<rect x="20.2988" y="9.95459" width="8" height="7" transform="rotate(-4 20.2988 9.95459)" fill="white"/>
<path d="M20.9277 18.9326L28.9082 18.3746L29.6756 29.3478L21.6951 29.9058L20.9277 18.9326Z" fill="white"/>
<rect x="21.0097" y="18.0572" width="28" height="28" rx="2" transform="rotate(4 21.0097 18.0572)" fill="#0096CC"
      stroke="white" stroke-width="2"/>
<path d="M28.0332 25.1357L41.0015 26.0426L40.0299 39.9372L27.0616 39.0304L28.0332 25.1357Z" fill="white"/>
<path d="M21.5488 24.6821L26.1804 25.006L25.2088 38.9006L20.5772 38.5768L21.5488 24.6821Z" fill="#94E3FF"/>
<path d="M42.8535 26.1719L47.4851 26.4957L46.5135 40.3904L41.8819 40.0665L42.8535 26.1719Z" fill="#94E3FF"/>
</svg><svg width="56" height="56" viewBox="0 0 56 56" fill="none" xmlns="http://www.w3.org/2000/svg">
<rect x="8.57617" y="14.6885" width="38" height="25" rx="1" transform="rotate(-2 8.57617 14.6885)" fill="#0096CC"/>
<path fill-rule="evenodd" clip-rule="evenodd"
      d="M25.4867 30.0589C25.5889 30.1678 25.7632 30.1634 25.8598 30.0495L32.6624 22.0206C32.7577 21.9081 32.9292 21.9021 33.0321 22.0077L42.8234 32.0504C42.975 32.2058 42.8701 32.4672 42.6532 32.4748L28.2271 32.9786L23.2301 33.1531L14.7862 33.4479C14.5716 33.4554 14.448 33.2066 14.5837 33.0401L20.7716 25.4492C20.8672 25.332 21.0442 25.3258 21.1477 25.4361L25.4867 30.0589Z"
      fill="white"/>
<path d="M5.57322 24.4268C5.73072 24.2693 6 24.3808 6 24.6036V31.3964C6 31.6192 5.73071 31.7307 5.57322 31.5732L2.17678 28.1768C2.07915 28.0791 2.07915 27.9209 2.17678 27.8232L5.57322 24.4268Z"
      fill="#434960"/>
<path d="M50.4268 21.4268C50.2693 21.2693 50 21.3808 50 21.6036V28.3964C50 28.6192 50.2693 28.7307 50.4268 28.5732L53.8232 25.1768C53.9209 25.0791 53.9209 24.9209 53.8232 24.8232L50.4268 21.4268Z"
      fill="#434960"/>
</svg><svg width="56" height="56" viewBox="0 0 56 56" fill="none" xmlns="http://www.w3.org/2000/svg">
<g clip-path="url(#clip0_573_793)">
    <rect x="17.4102" y="10.708" width="31" height="31" rx="0.5" transform="rotate(5 17.4102 10.708)" fill="#8C8F9A"/>
    <circle cx="43.2994" cy="36.061" r="17" transform="rotate(5 43.2994 36.061)" fill="#434960"/>
    <rect x="15.4922" y="32.6245" width="31" height="9" transform="rotate(5 15.4922 32.6245)" fill="#E8E8EB"/>
</g>
<circle cx="17" cy="13" r="10" fill="#0096CC" stroke="white" stroke-width="2"/>
<rect x="12" y="10" width="10" height="1.5" rx="0.25" fill="white"/>
<path d="M13.5 13.25C13.5 13.1119 13.6119 13 13.75 13H20.25C20.3881 13 20.5 13.1119 20.5 13.25V14.25C20.5 14.3881 20.3881 14.5 20.25 14.5H13.75C13.6119 14.5 13.5 14.3881 13.5 14.25V13.25Z"
      fill="white"/>
<path d="M15.5 16.25C15.5 16.1119 15.6119 16 15.75 16H18.25C18.3881 16 18.5 16.1119 18.5 16.25V17.25C18.5 17.3881 18.3881 17.5 18.25 17.5H15.75C15.6119 17.5 15.5 17.3881 15.5 17.25V16.25Z"
      fill="white"/>
<defs>
    <clipPath id="clip0_573_793">
        <rect x="17.4102" y="10.708" width="31" height="31" rx="0.5" transform="rotate(5 17.4102 10.708)" fill="white"/>
    </clipPath>
</defs>
</svg>