<svg width="16" height="14" viewBox="0 0 16 14" fill="none" xmlns="http://www.w3.org/2000/svg">
    <path d="M13.9998 9.66667H1.99984V1.66667H13.9998V9.66667ZM13.9998 0.333336H1.99984C1.25984 0.333336 0.666504 0.926669 0.666504 1.66667V9.66667C0.666504 10.0203 0.80698 10.3594 1.05703 10.6095C1.30708 10.8595 1.64622 11 1.99984 11H6.6665V12.3333H5.33317V13.6667H10.6665V12.3333H9.33317V11H13.9998C14.3535 11 14.6926 10.8595 14.9426 10.6095C15.1927 10.3594 15.3332 10.0203 15.3332 9.66667V1.66667C15.3332 1.31305 15.1927 0.973909 14.9426 0.72386C14.6926 0.473812 14.3535 0.333336 13.9998 0.333336Z"
          fill="#141B38"/>
</svg>