<svg width="17" height="16" viewBox="0 0 17 16" fill="none" xmlns="http://www.w3.org/2000/svg">
    <mask id="mask0_4729_16115" style="mask-type:alpha" maskUnits="userSpaceOnUse" x="0" y="0" width="17" height="16">
        <rect x="0.5" width="16" height="16" fill="#D9D9D9"/>
    </mask>
    <g mask="url(#mask0_4729_16115)">
        <path d="M8.49902 11.4693C8.72041 11.4693 8.90628 11.3944 9.05664 11.2446C9.207 11.0949 9.28219 10.9093 9.28219 10.6879C9.28219 10.4665 9.20731 10.28 9.05755 10.1283C8.9078 9.97664 8.72223 9.90079 8.50085 9.90079C8.27947 9.90079 8.09359 9.97664 7.94324 10.1283C7.79287 10.28 7.71769 10.4665 7.71769 10.6879C7.71769 10.9093 7.79257 11.0949 7.94232 11.2446C8.09208 11.3944 8.27764 11.4693 8.49902 11.4693ZM8.49994 8.67506C8.71274 8.67506 8.89233 8.60187 9.0387 8.45549C9.18508 8.30911 9.25827 8.12953 9.25827 7.91673V5.34173C9.25827 5.12893 9.18508 4.94934 9.0387 4.80296C8.89233 4.65658 8.71274 4.58339 8.49994 4.58339C8.28714 4.58339 8.10755 4.65658 7.96117 4.80296C7.81479 4.94934 7.7416 5.12893 7.7416 5.34173V7.91673C7.7416 8.12953 7.81479 8.30911 7.96117 8.45549C8.10755 8.60187 8.28714 8.67506 8.49994 8.67506ZM8.49994 14.8026C7.55646 14.8026 6.67121 14.6242 5.84419 14.2673C5.01716 13.9104 4.29777 13.4261 3.686 12.8144C3.07424 12.2026 2.58992 11.4832 2.23305 10.6562C1.87619 9.82915 1.69775 8.9439 1.69775 8.00043C1.69775 7.05695 1.87619 6.1717 2.23305 5.34468C2.58992 4.51765 3.07424 3.79826 3.686 3.18649C4.29777 2.57473 5.01716 2.09041 5.84419 1.73354C6.67121 1.37668 7.55646 1.19824 8.49994 1.19824C9.44342 1.19824 10.3287 1.37668 11.1557 1.73354C11.9827 2.09041 12.7021 2.57473 13.3139 3.18649C13.9256 3.79826 14.41 4.51765 14.7668 5.34468C15.1237 6.1717 15.3021 7.05695 15.3021 8.00043C15.3021 8.9439 15.1237 9.82915 14.7668 10.6562C14.41 11.4832 13.9256 12.2026 13.3139 12.8144C12.7021 13.4261 11.9827 13.9104 11.1557 14.2673C10.3287 14.6242 9.44342 14.8026 8.49994 14.8026ZM8.49994 13.2859C9.97819 13.2859 11.2287 12.7746 12.2514 11.7519C13.2741 10.7292 13.7854 9.47868 13.7854 8.00043C13.7854 6.52217 13.2741 5.27169 12.2514 4.24898C11.2287 3.22628 9.97819 2.71493 8.49994 2.71493C7.02168 2.71493 5.7712 3.22628 4.74849 4.24898C3.72579 5.27169 3.21444 6.52217 3.21444 8.00043C3.21444 9.47868 3.72579 10.7292 4.74849 11.7519C5.7712 12.7746 7.02168 13.2859 8.49994 13.2859Z"
              fill="#841919"/>
    </g>
</svg>