<svg width="20" height="17" viewBox="0 0 20 17">
    <path d="M9.85801 5.5L12.4997 8.13333V8C12.4997 7.33696 12.2363 6.70107 11.7674 6.23223C11.2986 5.76339 10.6627 5.5 9.99967 5.5H9.85801ZM6.27467 6.16667L7.56634 7.45833C7.52467 7.63333 7.49967 7.80833 7.49967 8C7.49967 8.66304 7.76307 9.29893 8.23191 9.76777C8.70075 10.2366 9.33663 10.5 9.99967 10.5C10.183 10.5 10.3663 10.475 10.5413 10.4333L11.833 11.725C11.2747 12 10.658 12.1667 9.99967 12.1667C8.8946 12.1667 7.8348 11.7277 7.0534 10.9463C6.27199 10.1649 5.83301 9.10507 5.83301 8C5.83301 7.34167 5.99967 6.725 6.27467 6.16667ZM1.66634 1.55833L3.56634 3.45833L3.94134 3.83333C2.56634 4.91667 1.48301 6.33333 0.833008 8C2.27467 11.6583 5.83301 14.25 9.99967 14.25C11.2913 14.25 12.5247 14 13.6497 13.55L14.008 13.9L16.4413 16.3333L17.4997 15.275L2.72467 0.5L1.66634 1.55833ZM9.99967 3.83333C11.1047 3.83333 12.1645 4.27232 12.946 5.05372C13.7274 5.83512 14.1663 6.89493 14.1663 8C14.1663 8.53333 14.058 9.05 13.8663 9.51667L16.308 11.9583C17.558 10.9167 18.558 9.55 19.1663 8C17.7247 4.34167 14.1663 1.75 9.99967 1.75C8.83301 1.75 7.71634 1.95833 6.66634 2.33333L8.47467 4.125C8.94967 3.94167 9.45801 3.83333 9.99967 3.83333Z"/>
</svg>