<svg viewBox="0 0 18 18" fill="none">
    <path d="M17.3607 4.1775H14.0152L14.618 1.266C14.6328 1.18021 14.6288 1.09223 14.6064 1.00812C14.5839 0.924001 14.5436 0.845742 14.488 0.778722C14.4324 0.711703 14.363 0.657514 14.2845 0.619882C14.206 0.582251 14.1203 0.56207 14.0332 0.560727H12.8276C12.6883 0.557321 12.5521 0.602311 12.4422 0.688037C12.3323 0.773763 12.2555 0.894929 12.2249 1.03091L11.61 4.1775H8.3549L8.9577 1.266C8.97229 1.18215 8.96897 1.09617 8.94795 1.0137C8.92692 0.931226 8.88867 0.854142 8.83572 0.787518C8.78276 0.720894 8.71629 0.666239 8.64069 0.62715C8.56509 0.588061 8.48207 0.565423 8.3971 0.560727H7.1915C7.05216 0.557321 6.91594 0.602311 6.80604 0.688037C6.69613 0.773763 6.61933 0.894929 6.58871 1.03091L5.98591 4.1775H2.36914C2.22811 4.17466 2.09056 4.22136 1.98042 4.30947C1.87028 4.39759 1.79452 4.52153 1.76634 4.65974L1.51919 5.86533C1.50109 5.95393 1.50315 6.04546 1.52522 6.13316C1.5473 6.22085 1.58882 6.30245 1.64671 6.37192C1.7046 6.44139 1.77737 6.49694 1.85965 6.53446C1.94192 6.57199 2.03158 6.59052 2.12199 6.58869H5.46751L4.47892 11.4111H0.862146C0.721125 11.4082 0.583571 11.4549 0.473429 11.543C0.363287 11.6311 0.287532 11.7551 0.259351 11.8933L0.0122042 13.0989C-0.00589975 13.1875 -0.00383898 13.279 0.0182337 13.3667C0.0403064 13.4544 0.0818254 13.536 0.139715 13.6055C0.197605 13.6749 0.270382 13.7305 0.352656 13.768C0.43493 13.8055 0.524592 13.8241 0.615 13.8222H3.98463L3.38183 16.7338C3.36677 16.821 3.37112 16.9106 3.39459 16.996C3.41806 17.0814 3.46006 17.1606 3.51761 17.2279C3.57517 17.2953 3.64685 17.3491 3.72757 17.3856C3.80829 17.4221 3.89606 17.4403 3.98463 17.439H5.19022C5.3244 17.4356 5.45359 17.3875 5.55732 17.3023C5.66105 17.2171 5.73339 17.0998 5.76288 16.9688L6.38979 13.8222H9.64488L9.04209 16.7338C9.02749 16.8176 9.03081 16.9036 9.05184 16.9861C9.07286 17.0685 9.11111 17.1456 9.16407 17.2122C9.21702 17.2789 9.28349 17.3335 9.35909 17.3726C9.43469 17.4117 9.51771 17.4343 9.60269 17.439H10.8083C10.9476 17.4424 11.0838 17.3974 11.1937 17.3117C11.3037 17.226 11.3805 17.1048 11.4111 16.9688L12.044 13.8222H15.6608C15.8018 13.8251 15.9394 13.7784 16.0495 13.6903C16.1596 13.6022 16.2354 13.4782 16.2636 13.34L16.5047 12.1344C16.5228 12.0458 16.5207 11.9543 16.4987 11.8666C16.4766 11.7789 16.4351 11.6973 16.3772 11.6278C16.3193 11.5584 16.2465 11.5028 16.1642 11.4653C16.082 11.4278 15.9923 11.4092 15.9019 11.4111H12.5383L13.5209 6.58869H17.1376C17.2787 6.59153 17.4162 6.54483 17.5264 6.45672C17.6365 6.36861 17.7123 6.24466 17.7404 6.10645L17.9876 4.90086C18.0063 4.8102 18.0038 4.71645 17.9804 4.62689C17.957 4.53733 17.9133 4.45436 17.8527 4.3844C17.7921 4.31445 17.7162 4.2594 17.6308 4.22352C17.5455 4.18764 17.4531 4.1719 17.3607 4.1775ZM10.1271 11.4111H6.87202L7.86061 6.58869H11.1157L10.1271 11.4111Z"/>
</svg>