<svg viewBox="0 0 18 18" fill="none">
    <path d="M2.16667 0.5C1.72464 0.5 1.30072 0.675595 0.988155 0.988155C0.675595 1.30072 0.5 1.72464 0.5 2.16667V13.8333C0.5 14.2754 0.675595 14.6993 0.988155 15.0118C1.30072 15.3244 1.72464 15.5 2.16667 15.5H9.74167C9.69167 15.225 9.66667 14.95 9.66667 14.6667C9.66667 14.1 9.76667 13.5333 9.95833 13H2.16667L5.08333 9.25L7.16667 11.75L10.0833 8L11.9417 10.475C12.75 9.95 13.7 9.66667 14.6667 9.66667C14.95 9.66667 15.225 9.69167 15.5 9.74167V2.16667C15.5 1.72464 15.3244 1.30072 15.0118 0.988155C14.6993 0.675595 14.2754 0.5 13.8333 0.5H2.16667ZM13.8333 11.3333V13.8333H11.3333V15.5H13.8333V18H15.5V15.5H18V13.8333H15.5V11.3333H13.8333Z"/>
</svg>