<svg width="14" height="14" viewBox="0 0 14 14" fill="none" xmlns="http://www.w3.org/2000/svg">
    <path d="M6.3335 5H7.66683V3.66667H6.3335V5ZM7.00016 12.3333C4.06016 12.3333 1.66683 9.94 1.66683 7C1.66683 4.06 4.06016 1.66667 7.00016 1.66667C9.94016 1.66667 12.3335 4.06 12.3335 7C12.3335 9.94 9.94016 12.3333 7.00016 12.3333ZM7.00016 0.333332C6.12468 0.333332 5.25778 0.505771 4.44894 0.840802C3.6401 1.17583 2.90517 1.6669 2.28612 2.28595C1.03588 3.5362 0.333496 5.23189 0.333496 7C0.333496 8.76811 1.03588 10.4638 2.28612 11.714C2.90517 12.3331 3.6401 12.8242 4.44894 13.1592C5.25778 13.4942 6.12468 13.6667 7.00016 13.6667C8.76827 13.6667 10.464 12.9643 11.7142 11.714C12.9645 10.4638 13.6668 8.76811 13.6668 7C13.6668 6.12452 13.4944 5.25761 13.1594 4.44878C12.8243 3.63994 12.3333 2.90501 11.7142 2.28595C11.0952 1.6669 10.3602 1.17583 9.55139 0.840802C8.74255 0.505771 7.87564 0.333332 7.00016 0.333332ZM6.3335 10.3333H7.66683V6.33333H6.3335V10.3333Z"
          fill="#141B38"/>
</svg>