<svg width="18" height="18" viewBox="0 0 18 18" fill="none" xmlns="http://www.w3.org/2000/svg">
    <path d="M9 4.50781C6.5 4.50781 4.50781 6.53906 4.50781 9C4.50781 11.5 6.5 13.4922 9 13.4922C11.4609 13.4922 13.4922 11.5 13.4922 9C13.4922 6.53906 11.4609 4.50781 9 4.50781ZM9 11.9297C7.39844 11.9297 6.07031 10.6406 6.07031 9C6.07031 7.39844 7.35938 6.10938 9 6.10938C10.6016 6.10938 11.8906 7.39844 11.8906 9C11.8906 10.6406 10.6016 11.9297 9 11.9297ZM14.7031 4.35156C14.7031 3.76562 14.2344 3.29688 13.6484 3.29688C13.0625 3.29688 12.5938 3.76562 12.5938 4.35156C12.5938 4.9375 13.0625 5.40625 13.6484 5.40625C14.2344 5.40625 14.7031 4.9375 14.7031 4.35156ZM17.6719 5.40625C17.5938 4 17.2812 2.75 16.2656 1.73438C15.25 0.71875 14 0.40625 12.5938 0.328125C11.1484 0.25 6.8125 0.25 5.36719 0.328125C3.96094 0.40625 2.75 0.71875 1.69531 1.73438C0.679688 2.75 0.367188 4 0.289062 5.40625C0.210938 6.85156 0.210938 11.1875 0.289062 12.6328C0.367188 16.0391 0.679688 15.25 1.69531 16.3047C2.75 17.3203 3.96094 17.6328 5.36719 17.7109C6.8125 17.7891 11.1484 17.7891 12.5938 17.7109C14 17.6328 15.25 17.3203 16.2656 16.3047C17.2812 15.25 17.5938 16.0391 17.6719 12.6328C17.75 11.1875 17.75 6.85156 17.6719 5.40625ZM15.7969 14.1562C15.5234 14.9375 14.8984 15.5234 14.1562 15.8359C12.9844 16.3047 10.25 16.1875 9 16.1875C7.71094 16.1875 4.97656 16.3047 3.84375 15.8359C3.0625 15.5234 2.47656 14.9375 2.16406 14.1562C1.69531 13.0234 1.8125 10.2891 1.8125 9C1.8125 7.75 1.69531 5.01562 2.16406 3.84375C2.47656 3.10156 3.0625 2.51562 3.84375 2.20312C4.97656 1.73438 7.71094 1.85156 9 1.85156C10.25 1.85156 12.9844 1.73438 14.1562 2.20312C14.8984 2.47656 15.4844 3.10156 15.7969 3.84375C16.2656 5.01562 16.1484 7.75 16.1484 9C16.1484 10.2891 16.2656 13.0234 15.7969 14.1562Z"
          fill="url(#paint0_linear)"/>
    <defs>
        <linearGradient id="paint0_linear" x1="6.46484" y1="33.7383" x2="43.3242" y2="-3.88672"
                        gradientUnits="userSpaceOnUse">
            <stop stop-color="white"/>
            <stop offset="0.147864" stop-color="#F6640E"/>
            <stop offset="0.443974" stop-color="#BA03A7"/>
            <stop offset="0.733337" stop-color="#6A01B9"/>
            <stop offset="1" stop-color="#6B01B9"/>
        </linearGradient>
    </defs>
</svg>