<svg width="16" height="17" viewBox="0 0 16 17" fill="none" xmlns="http://www.w3.org/2000/svg">
    <path d="M12.213 3.34015C11.2019 2.51003 9.96799 1.99743 8.66634 1.86682V3.21349C9.63967 3.33349 10.5263 3.72015 11.2663 4.29349L12.213 3.34015ZM13.2863 7.83349H14.633C14.4997 6.49349 13.9663 5.27349 13.1597 4.28682L12.2063 5.23349C12.7944 5.98679 13.1676 6.88523 13.2863 7.83349ZM12.2063 11.7668L13.1597 12.7202C13.9887 11.7084 14.5012 10.4748 14.633 9.17349H13.2863C13.1663 10.1194 12.7932 11.0153 12.2063 11.7668ZM8.66634 13.7868V15.1335C10.0063 15.0002 11.2263 14.4668 12.213 13.6602L11.2597 12.7068C10.5263 13.2802 9.63967 13.6668 8.66634 13.7868ZM10.393 7.56015L8.66634 9.28015V5.16682H7.33301V9.28015L5.60634 7.55349L4.66634 8.50015L7.99967 11.8335L11.333 8.50015L10.393 7.56015ZM7.33301 13.7868V15.1335C3.96634 14.8002 1.33301 11.9602 1.33301 8.50015C1.33301 5.04015 3.96634 2.20015 7.33301 1.86682V3.21349C4.69967 3.54015 2.66634 5.78015 2.66634 8.50015C2.66634 11.2202 4.69967 13.4602 7.33301 13.7868Z"
          fill="white"/>
</svg>