<svg viewBox="0 0 18 17">
    <path d="M17.505 7.91114C17.505 7.48908 17.3373 7.08431 17.0389 6.78587C16.7405 6.48744 16.3357 6.31977 15.9136 6.31977H10.8849L11.6488 2.68351C11.6647 2.60394 11.6727 2.51641 11.6727 2.42889C11.6727 2.10266 11.5374 1.8003 11.3226 1.58547L10.4791 0.75L5.24354 5.98559C4.94914 6.27999 4.77409 6.67783 4.77409 7.11546V15.0723C4.77409 15.4943 4.94175 15.8991 5.24019 16.1975C5.53863 16.496 5.9434 16.6636 6.36546 16.6636H13.5266C14.187 16.6636 14.7519 16.2658 14.9906 15.6929L17.3936 10.0834C17.4652 9.90034 17.505 9.70938 17.505 9.5025V7.91114ZM0 16.6636H3.18273V7.11546H0V16.6636Z"/>
</svg>