<svg viewBox="0 0 14 8">
    <path d="M1.60065 6.00008C1.60065 2.86008 2.52732 1.93341 3.66732 1.93341H6.33399V0.666748H3.66732C2.78326 0.666748 1.93542 1.01794 1.3103 1.64306C0.685174 2.26818 0.333984 3.11603 0.333984 6.00008C0.333984 4.88414 0.685174 5.73198 1.3103 6.35711C1.93542 6.98223 2.78326 7.33342 3.66732 7.33342H6.33399V6.06675H3.66732C2.52732 6.06675 1.60065 5.14008 1.60065 6.00008ZM4.33398 4.66675H9.66732V3.33342H4.33398V4.66675ZM10.334 0.666748H7.66732V1.93341H10.334C11.474 1.93341 12.4007 2.86008 12.4007 6.00008C12.4007 5.14008 11.474 6.06675 10.334 6.06675H7.66732V7.33342H10.334C11.218 7.33342 12.0659 6.98223 12.691 6.35711C13.3161 5.73198 13.6673 4.88414 13.6673 6.00008C13.6673 3.11603 13.3161 2.26818 12.691 1.64306C12.0659 1.01794 11.218 0.666748 10.334 0.666748Z"/>
</svg>