<svg viewBox="0 0 18 18">
    <path fill-rule="evenodd" clip-rule="evenodd"
          d="M7.24419 0.172937C8.99002 -0.174331 10.7996 0.00389957 12.4442 0.685088C14.0887 1.36628 15.4943 2.51983 16.4832 3.99987C17.4722 5.47992 18 7.21997 18 9.00001V10.3333C18 11.1879 17.6605 12.0075 17.0562 12.6118C16.452 13.2161 15.6324 13.5556 14.7778 13.5556C13.9232 13.5556 13.1036 13.2161 12.4993 12.6118C12.3867 12.4992 12.2833 12.3791 12.1896 12.2527C11.3384 13.0874 10.1933 13.5556 9.00001 13.5556C7.7918 13.5556 6.63307 13.0756 5.77874 12.2213C4.92441 11.3669 4.44445 10.2082 4.44445 9.00001C4.44445 7.7918 4.92441 6.63307 5.77874 5.77874C6.63307 4.92441 7.7918 4.44445 9.00001 4.44445C10.2082 4.44445 11.3669 4.92441 12.2213 5.77874C13.0756 6.63307 13.5556 7.7918 13.5556 9.00001V10.3333C13.5556 10.6575 13.6843 10.9684 13.9135 11.1976C14.1428 11.4268 14.4536 11.5556 14.7778 11.5556C15.1019 11.5556 15.4128 11.4268 15.642 11.1976C15.8712 10.9684 16 10.6575 16 10.3333V9.00001C16 7.61554 15.5895 6.26216 14.8203 5.11101C14.0511 3.95987 12.9579 3.06266 11.6788 2.53285C10.3997 2.00303 8.99224 1.86441 7.63437 2.13451C6.27651 2.4046 5.02922 3.07129 4.05026 4.05026C3.07129 5.02922 2.4046 6.27651 2.13451 7.63437C1.86441 8.99224 2.00303 10.3997 2.53285 11.6788C3.06266 12.9579 3.95987 14.0511 5.11101 14.8203C6.26216 15.5895 7.61554 16 9.00001 16L9.001 16C10.2297 16.0012 11.4363 15.6782 12.4987 15.0627C12.9766 14.7859 13.5884 14.9488 13.8653 15.4267C14.1421 15.9046 13.9792 16.5164 13.5013 16.7933C12.1329 17.586 10.5796 18.0016 8.99901 18L9.00001 17V18C8.99968 18 8.99934 18 8.99901 18C7.21933 17.9998 5.47964 17.472 3.99987 16.4832C2.51983 15.4943 1.36628 14.0887 0.685088 12.4442C0.00389957 10.7996 -0.17433 8.99002 0.172936 7.24419C0.520204 5.49836 1.37737 3.89472 2.63604 2.63604C3.89472 1.37737 5.49836 0.520204 7.24419 0.172937ZM11.5556 9.00001C11.5556 8.32223 11.2863 7.67221 10.8071 7.19295C10.3278 6.7137 9.67778 6.44445 9.00001 6.44445C8.32223 6.44445 7.67221 6.7137 7.19295 7.19295C6.7137 7.67221 6.44445 8.32223 6.44445 9.00001C6.44445 9.67778 6.7137 10.3278 7.19295 10.8071C7.67221 11.2863 8.32223 11.5556 9.00001 11.5556C9.67778 11.5556 10.3278 11.2863 10.8071 10.8071C11.2863 10.3278 11.5556 9.67778 11.5556 9.00001Z"/>
</svg>