<svg viewBox="0 0 20 20">
    <path d="M11.0001 7H9.00012V5H11.0001V7ZM11.0001 15H9.00012V9H11.0001V15ZM10.0001 0C8.6869 0 7.38654 0.258658 6.17329 0.761205C4.96003 1.26375 3.85764 2.00035 2.92905 2.92893C1.05369 4.8043 0.00012207 7.34784 0.00012207 10C0.00012207 12.6522 1.05369 15.1957 2.92905 17.0711C3.85764 17.9997 4.96003 18.7362 6.17329 19.2388C7.38654 19.7413 8.6869 20 10.0001 20C12.6523 20 15.1958 18.9464 17.0712 17.0711C18.9466 15.1957 20.0001 12.6522 20.0001 10C20.0001 8.68678 19.7415 7.38642 19.2389 6.17317C18.7364 4.95991 17.9998 3.85752 17.0712 2.92893C16.1426 2.00035 15.0402 1.26375 13.827 0.761205C12.6137 0.258658 11.3133 0 10.0001 0Z"/>
</svg>