<svg viewBox="0 0 16 10">
    <path d="M8.0013 3C7.47087 3 6.96216 3.21071 6.58709 3.58579C6.21202 3.96086 6.0013 4.46957 6.0013 5C6.0013 5.53043 6.21202 6.03914 6.58709 6.41421C6.96216 6.78929 7.47087 7 8.0013 7C8.53173 7 9.04044 6.78929 9.41551 6.41421C9.79059 6.03914 10.0013 5.53043 10.0013 5C10.0013 4.46957 9.79059 3.96086 9.41551 3.58579C9.04044 3.21071 8.53173 3 8.0013 3ZM8.0013 8.33333C7.11725 8.33333 6.2694 7.98214 5.64428 7.35702C5.01916 6.7319 4.66797 5.88406 4.66797 5C4.66797 4.11595 5.01916 3.2681 5.64428 2.64298C6.2694 2.01786 7.11725 1.66667 8.0013 1.66667C8.88536 1.66667 9.7332 2.01786 10.3583 2.64298C10.9834 3.2681 11.3346 4.11595 11.3346 5C11.3346 5.88406 10.9834 6.7319 10.3583 7.35702C9.7332 7.98214 8.88536 8.33333 8.0013 8.33333ZM8.0013 0C4.66797 0 1.8213 2.07333 0.667969 5C1.8213 7.92667 4.66797 10 8.0013 10C11.3346 10 14.1813 7.92667 15.3346 5C14.1813 2.07333 11.3346 0 8.0013 0Z"/>
</svg>