<svg width="260" height="126" viewBox="0 0 260 126" fill="none" xmlns="http://www.w3.org/2000/svg">
    <g clip-path="url(#hashtagiconclip0)">
        <g filter="url(#hashtagiconfilter0_ddd)">
            <rect x="119.327" y="12.3203" width="80" height="91" rx="2" transform="rotate(4 119.327 12.3203)"
                  fill="white"/>
        </g>
        <g clip-path="url(#hashtagiconclip1)">
            <rect x="119.327" y="12.3203" width="80" height="80" transform="rotate(4 119.327 12.3203)" fill="#0096CC"/>
        </g>
        <path d="M130.918 88.5016L128.971 88.3655L129.441 86.6958C129.453 86.6464 129.454 86.5951 129.444 86.5452C129.435 86.4954 129.414 86.4482 129.385 86.4069C129.355 86.3657 129.317 86.3313 129.273 86.3062C129.229 86.2811 129.18 86.2659 129.129 86.2616L128.427 86.2125C128.347 86.2049 128.265 86.2255 128.198 86.2709C128.131 86.3163 128.081 86.3837 128.058 86.4616L127.572 88.2676L125.678 88.1352L126.147 86.4654C126.159 86.4172 126.16 86.3671 126.151 86.3182C126.142 86.2694 126.123 86.223 126.095 86.182C126.067 86.1411 126.031 86.1066 125.988 86.0808C125.946 86.055 125.899 86.0384 125.849 86.0322L125.148 85.9832C125.067 85.9755 124.986 85.9962 124.918 86.0416C124.851 86.087 124.801 86.1544 124.778 86.2322L124.299 88.0388L122.194 87.8916C122.112 87.8842 122.03 87.9058 121.963 87.9526C121.895 87.9994 121.846 88.0684 121.824 88.1477L121.631 88.8392C121.617 88.89 121.614 88.9433 121.624 88.9953C121.633 89.0472 121.654 89.0964 121.685 89.1391C121.716 89.1819 121.756 89.2172 121.802 89.2424C121.848 89.2676 121.9 89.282 121.952 89.2846L123.899 89.4208L123.128 92.1867L121.023 92.0396C120.941 92.0322 120.859 92.0537 120.791 92.1005C120.724 92.1473 120.675 92.2164 120.653 92.2957L120.46 92.9871C120.446 93.038 120.443 93.0913 120.452 93.1432C120.462 93.1952 120.483 93.2443 120.513 93.2871C120.544 93.3299 120.584 93.3652 120.631 93.3904C120.677 93.4156 120.728 93.43 120.781 93.4326L122.742 93.5697L122.273 95.2394C122.26 95.2896 122.259 95.3419 122.269 95.3926C122.28 95.4432 122.301 95.491 122.332 95.5325C122.362 95.5741 122.402 95.6083 122.447 95.6328C122.493 95.6573 122.543 95.6715 122.595 95.6744L123.296 95.7234C123.375 95.7269 123.452 95.7041 123.516 95.6588C123.579 95.6135 123.626 95.5481 123.649 95.4731L124.142 93.6676L126.036 93.8L125.566 95.4698C125.555 95.5179 125.553 95.5681 125.562 95.617C125.571 95.6658 125.59 95.7122 125.618 95.7531C125.646 95.7941 125.683 95.8286 125.725 95.8544C125.767 95.8802 125.815 95.8968 125.864 95.903L126.566 95.952C126.647 95.9597 126.728 95.939 126.795 95.8936C126.862 95.8482 126.912 95.7808 126.935 95.703L127.432 93.8977L129.536 94.0448C129.618 94.0522 129.7 94.0306 129.768 93.9839C129.836 93.9371 129.885 93.868 129.907 93.7887L130.096 93.097C130.11 93.0462 130.113 92.9928 130.104 92.9409C130.094 92.889 130.073 92.8398 130.043 92.797C130.012 92.7542 129.972 92.719 129.925 92.6938C129.879 92.6686 129.828 92.6542 129.775 92.6515L127.818 92.5147L128.586 89.7485L130.69 89.8956C130.772 89.903 130.854 89.8814 130.922 89.8347C130.989 89.7879 131.039 89.7188 131.061 89.6395L131.253 88.948C131.268 88.8961 131.27 88.8414 131.26 88.7883C131.25 88.7353 131.228 88.6852 131.196 88.642C131.164 88.5989 131.122 88.5637 131.073 88.5394C131.025 88.515 130.972 88.5021 130.918 88.5016ZM126.414 92.4166L124.52 92.2841L125.292 89.5181L127.186 89.6506L126.414 92.4166Z"
              fill="#0068A0"/>
        <rect x="138.037" y="88.8115" width="29" height="7" rx="1" transform="rotate(4 138.037 88.8115)"
              fill="#86D0F9"/>
        <g filter="url(#hashtagiconfilter1_ddd)">
            <rect x="119.327" y="12.3203" width="80" height="91" rx="2" transform="rotate(4 119.327 12.3203)"
                  fill="white"/>
        </g>
        <g clip-path="url(#hashtagiconclip2)">
            <rect x="119.327" y="12.3203" width="80" height="80" transform="rotate(4 119.327 12.3203)" fill="#0096CC"/>
            <circle cx="126.556" cy="44.5" r="46.5" fill="#0068A0"/>
        </g>
        <path d="M130.918 88.5016L128.971 88.3655L129.441 86.6958C129.453 86.6464 129.454 86.5951 129.444 86.5452C129.435 86.4954 129.414 86.4482 129.385 86.4069C129.355 86.3657 129.317 86.3313 129.273 86.3062C129.229 86.2811 129.18 86.2659 129.129 86.2616L128.427 86.2125C128.347 86.2049 128.265 86.2255 128.198 86.2709C128.131 86.3163 128.081 86.3837 128.058 86.4616L127.572 88.2676L125.678 88.1352L126.147 86.4654C126.159 86.4172 126.16 86.3671 126.151 86.3182C126.142 86.2694 126.123 86.223 126.095 86.182C126.067 86.1411 126.031 86.1066 125.988 86.0808C125.946 86.055 125.899 86.0384 125.849 86.0322L125.148 85.9832C125.067 85.9755 124.986 85.9962 124.918 86.0416C124.851 86.087 124.801 86.1544 124.778 86.2322L124.299 88.0388L122.194 87.8916C122.112 87.8842 122.03 87.9058 121.963 87.9526C121.895 87.9994 121.846 88.0684 121.824 88.1477L121.631 88.8392C121.617 88.89 121.614 88.9433 121.624 88.9953C121.633 89.0472 121.654 89.0964 121.685 89.1391C121.716 89.1819 121.756 89.2172 121.802 89.2424C121.848 89.2676 121.9 89.282 121.952 89.2846L123.899 89.4208L123.128 92.1867L121.023 92.0396C120.941 92.0322 120.859 92.0537 120.791 92.1005C120.724 92.1473 120.675 92.2164 120.653 92.2957L120.46 92.9871C120.446 93.038 120.443 93.0913 120.452 93.1432C120.462 93.1952 120.483 93.2443 120.513 93.2871C120.544 93.3299 120.584 93.3652 120.631 93.3904C120.677 93.4156 120.728 93.43 120.781 93.4326L122.742 93.5697L122.273 95.2394C122.26 95.2896 122.259 95.3419 122.269 95.3926C122.28 95.4432 122.301 95.491 122.332 95.5325C122.362 95.5741 122.402 95.6083 122.447 95.6328C122.493 95.6573 122.543 95.6715 122.595 95.6744L123.296 95.7234C123.375 95.7269 123.452 95.7041 123.516 95.6588C123.579 95.6135 123.626 95.5481 123.649 95.4731L124.142 93.6676L126.036 93.8L125.566 95.4698C125.555 95.5179 125.553 95.5681 125.562 95.617C125.571 95.6658 125.59 95.7122 125.618 95.7531C125.646 95.7941 125.683 95.8286 125.725 95.8544C125.767 95.8802 125.815 95.8968 125.864 95.903L126.566 95.952C126.647 95.9597 126.728 95.939 126.795 95.8936C126.862 95.8482 126.912 95.7808 126.935 95.703L127.432 93.8977L129.536 94.0448C129.618 94.0522 129.7 94.0306 129.768 93.9839C129.836 93.9371 129.885 93.868 129.907 93.7887L130.096 93.097C130.11 93.0462 130.113 92.9928 130.104 92.9409C130.094 92.889 130.073 92.8398 130.043 92.797C130.012 92.7542 129.972 92.719 129.925 92.6938C129.879 92.6686 129.828 92.6542 129.775 92.6515L127.818 92.5147L128.586 89.7485L130.69 89.8956C130.772 89.903 130.854 89.8814 130.922 89.8347C130.989 89.7879 131.039 89.7188 131.061 89.6395L131.253 88.948C131.268 88.8961 131.27 88.8414 131.26 88.7883C131.25 88.7353 131.228 88.6852 131.196 88.642C131.164 88.5989 131.122 88.5637 131.073 88.5394C131.025 88.515 130.972 88.5021 130.918 88.5016ZM126.414 92.4166L124.52 92.2841L125.292 89.5181L127.186 89.6506L126.414 92.4166Z"
              fill="#0068A0"/>
        <rect x="138.037" y="88.8115" width="29" height="7" rx="1" transform="rotate(4 138.037 88.8115)"
              fill="#86D0F9"/>
        <g filter="url(#hashtagiconfilter2_ddd)">
            <rect x="65.0557" y="21" width="80" height="91" rx="2" fill="white"/>
        </g>
        <g clip-path="url(#hashtagiconclip3)">
            <rect x="65.0557" y="21" width="80" height="80" fill="#F6966B"/>
            <path d="M80.8025 49.333L144.136 112.666H28.3887L80.8025 49.333Z" fill="#F9BBA0"/>
        </g>
        <path d="M81.9327 96.187H79.9812L80.3328 94.4887C80.3414 94.4386 80.3391 94.3873 80.3261 94.3382C80.313 94.2892 80.2894 94.2435 80.257 94.2044C80.2246 94.1653 80.1841 94.1337 80.1383 94.1118C80.0925 94.0898 80.0425 94.078 79.9917 94.0773H79.2885C79.2072 94.0753 79.1277 94.1015 79.0636 94.1515C78.9995 94.2015 78.9547 94.2722 78.9368 94.3515L78.5782 96.187H76.6794L77.031 94.4887C77.0395 94.4398 77.0376 94.3896 77.0253 94.3415C77.013 94.2934 76.9907 94.2484 76.9598 94.2095C76.9289 94.1707 76.8902 94.1388 76.8461 94.116C76.802 94.0932 76.7535 94.08 76.704 94.0773H76.0007C75.9194 94.0753 75.84 94.1015 75.7759 94.1515C75.7117 94.2015 75.6669 94.2722 75.6491 94.3515L75.2974 96.187H73.1877C73.1054 96.1854 73.0252 96.2126 72.9609 96.264C72.8967 96.3154 72.8525 96.3877 72.836 96.4683L72.6919 97.1716C72.6813 97.2233 72.6825 97.2767 72.6954 97.3278C72.7083 97.379 72.7325 97.4266 72.7662 97.4671C72.8 97.5076 72.8425 97.54 72.8905 97.5619C72.9385 97.5838 72.9908 97.5946 73.0435 97.5936H74.995L74.4184 100.407H72.3086C72.2263 100.405 72.1461 100.432 72.0818 100.484C72.0176 100.535 71.9734 100.607 71.957 100.688L71.8128 101.391C71.8022 101.443 71.8034 101.496 71.8163 101.547C71.8292 101.599 71.8534 101.646 71.8872 101.687C71.9209 101.727 71.9634 101.76 72.0114 101.782C72.0594 101.803 72.1117 101.814 72.1644 101.813H74.13L73.7784 103.512C73.7696 103.562 73.7722 103.615 73.7858 103.664C73.7995 103.714 73.824 103.761 73.8576 103.8C73.8912 103.839 73.933 103.87 73.9801 103.892C74.0272 103.913 74.0784 103.924 74.13 103.923H74.8333C74.9116 103.921 74.9869 103.893 75.0474 103.843C75.1079 103.793 75.1501 103.725 75.1673 103.649L75.533 101.813H77.4318L77.0802 103.512C77.0717 103.56 77.0736 103.611 77.0859 103.659C77.0982 103.707 77.1205 103.752 77.1514 103.791C77.1823 103.829 77.221 103.861 77.2651 103.884C77.3092 103.907 77.3577 103.92 77.4072 103.923H78.1105C78.1918 103.925 78.2712 103.899 78.3354 103.849C78.3995 103.799 78.4443 103.728 78.4621 103.649L78.8313 101.813H80.9411C81.0234 101.815 81.1036 101.788 81.1679 101.736C81.2321 101.685 81.2763 101.612 81.2928 101.532L81.4334 100.829C81.444 100.777 81.4428 100.723 81.4299 100.672C81.417 100.621 81.3928 100.574 81.359 100.533C81.3253 100.493 81.2828 100.46 81.2348 100.438C81.1868 100.416 81.1345 100.406 81.0818 100.407H79.1197L79.6928 97.5936H81.8026C81.8849 97.5952 81.9651 97.568 82.0294 97.5166C82.0936 97.4652 82.1378 97.3929 82.1543 97.3123L82.2984 96.609C82.3093 96.5561 82.3079 96.5014 82.2942 96.4492C82.2806 96.3969 82.2551 96.3485 82.2197 96.3077C82.1844 96.2669 82.1401 96.2348 82.0903 96.2139C82.0405 96.193 81.9866 96.1838 81.9327 96.187ZM77.7132 100.407H75.8143L76.391 97.5936H78.2898L77.7132 100.407Z"
              fill="#FE544F"/>
        <rect x="89.0557" y="96" width="29" height="7" rx="1" fill="#FCE1D5"/>
        <g filter="url(#hashtagiconfilter3_ddd)">
            <rect x="65.0557" y="21" width="80" height="91" rx="2" fill="white"/>
        </g>
        <g clip-path="url(#hashtagiconclip4)">
            <rect x="65.0557" y="21" width="80" height="80" fill="#F6966B"/>
            <path d="M80.8025 49.333L144.136 112.666H28.3887L80.8025 49.333Z" fill="#F9BBA0"/>
        </g>
        <path d="M81.9327 96.187H79.9812L80.3328 94.4887C80.3414 94.4386 80.3391 94.3873 80.3261 94.3382C80.313 94.2892 80.2894 94.2435 80.257 94.2044C80.2246 94.1653 80.1841 94.1337 80.1383 94.1118C80.0925 94.0898 80.0425 94.078 79.9917 94.0773H79.2885C79.2072 94.0753 79.1277 94.1015 79.0636 94.1515C78.9995 94.2015 78.9547 94.2722 78.9368 94.3515L78.5782 96.187H76.6794L77.031 94.4887C77.0395 94.4398 77.0376 94.3896 77.0253 94.3415C77.013 94.2934 76.9907 94.2484 76.9598 94.2095C76.9289 94.1707 76.8902 94.1388 76.8461 94.116C76.802 94.0932 76.7535 94.08 76.704 94.0773H76.0007C75.9194 94.0753 75.84 94.1015 75.7759 94.1515C75.7117 94.2015 75.6669 94.2722 75.6491 94.3515L75.2974 96.187H73.1877C73.1054 96.1854 73.0252 96.2126 72.9609 96.264C72.8967 96.3154 72.8525 96.3877 72.836 96.4683L72.6919 97.1716C72.6813 97.2233 72.6825 97.2767 72.6954 97.3278C72.7083 97.379 72.7325 97.4266 72.7662 97.4671C72.8 97.5076 72.8425 97.54 72.8905 97.5619C72.9385 97.5838 72.9908 97.5946 73.0435 97.5936H74.995L74.4184 100.407H72.3086C72.2263 100.405 72.1461 100.432 72.0818 100.484C72.0176 100.535 71.9734 100.607 71.957 100.688L71.8128 101.391C71.8022 101.443 71.8034 101.496 71.8163 101.547C71.8292 101.599 71.8534 101.646 71.8872 101.687C71.9209 101.727 71.9634 101.76 72.0114 101.782C72.0594 101.803 72.1117 101.814 72.1644 101.813H74.13L73.7784 103.512C73.7696 103.562 73.7722 103.615 73.7858 103.664C73.7995 103.714 73.824 103.761 73.8576 103.8C73.8912 103.839 73.933 103.87 73.9801 103.892C74.0272 103.913 74.0784 103.924 74.13 103.923H74.8333C74.9116 103.921 74.9869 103.893 75.0474 103.843C75.1079 103.793 75.1501 103.725 75.1673 103.649L75.533 101.813H77.4318L77.0802 103.512C77.0717 103.56 77.0736 103.611 77.0859 103.659C77.0982 103.707 77.1205 103.752 77.1514 103.791C77.1823 103.829 77.221 103.861 77.2651 103.884C77.3092 103.907 77.3577 103.92 77.4072 103.923H78.1105C78.1918 103.925 78.2712 103.899 78.3354 103.849C78.3995 103.799 78.4443 103.728 78.4621 103.649L78.8313 101.813H80.9411C81.0234 101.815 81.1036 101.788 81.1679 101.736C81.2321 101.685 81.2763 101.612 81.2928 101.532L81.4334 100.829C81.444 100.777 81.4428 100.723 81.4299 100.672C81.417 100.621 81.3928 100.574 81.359 100.533C81.3253 100.493 81.2828 100.46 81.2348 100.438C81.1868 100.416 81.1345 100.406 81.0818 100.407H79.1197L79.6928 97.5936H81.8026C81.8849 97.5952 81.9651 97.568 82.0294 97.5166C82.0936 97.4652 82.1378 97.3929 82.1543 97.3123L82.2984 96.609C82.3093 96.5561 82.3079 96.5014 82.2942 96.4492C82.2806 96.3969 82.2551 96.3485 82.2197 96.3077C82.1844 96.2669 82.1401 96.2348 82.0903 96.2139C82.0405 96.193 81.9866 96.1838 81.9327 96.187ZM77.7132 100.407H75.8143L76.391 97.5936H78.2898L77.7132 100.407Z"
              fill="#FE544F"/>
        <rect x="89.0557" y="96" width="29" height="7" rx="1" fill="#FCE1D5"/>
    </g>
    <defs>
        <filter id="hashtagiconfilter0_ddd" x="100.114" y="5.45508" width="111.884" height="122.09"
                filterUnits="userSpaceOnUse" color-interpolation-filters="sRGB">
            <feFlood flood-opacity="0" result="BackgroundImageFix"/>
            <feColorMatrix in="SourceAlpha" type="matrix" values="0 0 0 0 0 0 0 0 0 0 0 0 0 0 0 0 0 0 127 0"
                           result="hardAlpha"/>
            <feOffset dy="6"/>
            <feGaussianBlur stdDeviation="6.5"/>
            <feColorMatrix type="matrix" values="0 0 0 0 0 0 0 0 0 0 0 0 0 0 0 0 0 0 0.03 0"/>
            <feBlend mode="normal" in2="BackgroundImageFix" result="effect1_dropShadow"/>
            <feColorMatrix in="SourceAlpha" type="matrix" values="0 0 0 0 0 0 0 0 0 0 0 0 0 0 0 0 0 0 127 0"
                           result="hardAlpha"/>
            <feOffset dy="1"/>
            <feGaussianBlur stdDeviation="1"/>
            <feColorMatrix type="matrix" values="0 0 0 0 0 0 0 0 0 0 0 0 0 0 0 0 0 0 0.11 0"/>
            <feBlend mode="normal" in2="effect1_dropShadow" result="effect2_dropShadow"/>
            <feColorMatrix in="SourceAlpha" type="matrix" values="0 0 0 0 0 0 0 0 0 0 0 0 0 0 0 0 0 0 127 0"
                           result="hardAlpha"/>
            <feOffset dy="3"/>
            <feGaussianBlur stdDeviation="3"/>
            <feColorMatrix type="matrix" values="0 0 0 0 0 0 0 0 0 0 0 0 0 0 0 0 0 0 0.04 0"/>
            <feBlend mode="normal" in2="effect2_dropShadow" result="effect3_dropShadow"/>
            <feBlend mode="normal" in="SourceGraphic" in2="effect3_dropShadow" result="shape"/>
        </filter>
        <filter id="hashtagiconfilter1_ddd" x="100.114" y="5.45508" width="111.884" height="122.09"
                filterUnits="userSpaceOnUse" color-interpolation-filters="sRGB">
            <feFlood flood-opacity="0" result="BackgroundImageFix"/>
            <feColorMatrix in="SourceAlpha" type="matrix" values="0 0 0 0 0 0 0 0 0 0 0 0 0 0 0 0 0 0 127 0"
                           result="hardAlpha"/>
            <feOffset dy="6"/>
            <feGaussianBlur stdDeviation="6.5"/>
            <feColorMatrix type="matrix" values="0 0 0 0 0 0 0 0 0 0 0 0 0 0 0 0 0 0 0.03 0"/>
            <feBlend mode="normal" in2="BackgroundImageFix" result="effect1_dropShadow"/>
            <feColorMatrix in="SourceAlpha" type="matrix" values="0 0 0 0 0 0 0 0 0 0 0 0 0 0 0 0 0 0 127 0"
                           result="hardAlpha"/>
            <feOffset dy="1"/>
            <feGaussianBlur stdDeviation="1"/>
            <feColorMatrix type="matrix" values="0 0 0 0 0 0 0 0 0 0 0 0 0 0 0 0 0 0 0.11 0"/>
            <feBlend mode="normal" in2="effect1_dropShadow" result="effect2_dropShadow"/>
            <feColorMatrix in="SourceAlpha" type="matrix" values="0 0 0 0 0 0 0 0 0 0 0 0 0 0 0 0 0 0 127 0"
                           result="hardAlpha"/>
            <feOffset dy="3"/>
            <feGaussianBlur stdDeviation="3"/>
            <feColorMatrix type="matrix" values="0 0 0 0 0 0 0 0 0 0 0 0 0 0 0 0 0 0 0.04 0"/>
            <feBlend mode="normal" in2="effect2_dropShadow" result="effect3_dropShadow"/>
            <feBlend mode="normal" in="SourceGraphic" in2="effect3_dropShadow" result="shape"/>
        </filter>
        <filter id="hashtagiconfilter2_ddd" x="52.0557" y="14" width="106" height="117" filterUnits="userSpaceOnUse"
                color-interpolation-filters="sRGB">
            <feFlood flood-opacity="0" result="BackgroundImageFix"/>
            <feColorMatrix in="SourceAlpha" type="matrix" values="0 0 0 0 0 0 0 0 0 0 0 0 0 0 0 0 0 0 127 0"
                           result="hardAlpha"/>
            <feOffset dy="6"/>
            <feGaussianBlur stdDeviation="6.5"/>
            <feColorMatrix type="matrix" values="0 0 0 0 0 0 0 0 0 0 0 0 0 0 0 0 0 0 0.03 0"/>
            <feBlend mode="normal" in2="BackgroundImageFix" result="effect1_dropShadow"/>
            <feColorMatrix in="SourceAlpha" type="matrix" values="0 0 0 0 0 0 0 0 0 0 0 0 0 0 0 0 0 0 127 0"
                           result="hardAlpha"/>
            <feOffset dy="1"/>
            <feGaussianBlur stdDeviation="1"/>
            <feColorMatrix type="matrix" values="0 0 0 0 0 0 0 0 0 0 0 0 0 0 0 0 0 0 0.11 0"/>
            <feBlend mode="normal" in2="effect1_dropShadow" result="effect2_dropShadow"/>
            <feColorMatrix in="SourceAlpha" type="matrix" values="0 0 0 0 0 0 0 0 0 0 0 0 0 0 0 0 0 0 127 0"
                           result="hardAlpha"/>
            <feOffset dy="3"/>
            <feGaussianBlur stdDeviation="3"/>
            <feColorMatrix type="matrix" values="0 0 0 0 0 0 0 0 0 0 0 0 0 0 0 0 0 0 0.04 0"/>
            <feBlend mode="normal" in2="effect2_dropShadow" result="effect3_dropShadow"/>
            <feBlend mode="normal" in="SourceGraphic" in2="effect3_dropShadow" result="shape"/>
        </filter>
        <filter id="hashtagiconfilter3_ddd" x="52.0557" y="14" width="106" height="117" filterUnits="userSpaceOnUse"
                color-interpolation-filters="sRGB">
            <feFlood flood-opacity="0" result="BackgroundImageFix"/>
            <feColorMatrix in="SourceAlpha" type="matrix" values="0 0 0 0 0 0 0 0 0 0 0 0 0 0 0 0 0 0 127 0"
                           result="hardAlpha"/>
            <feOffset dy="6"/>
            <feGaussianBlur stdDeviation="6.5"/>
            <feColorMatrix type="matrix" values="0 0 0 0 0 0 0 0 0 0 0 0 0 0 0 0 0 0 0.03 0"/>
            <feBlend mode="normal" in2="BackgroundImageFix" result="effect1_dropShadow"/>
            <feColorMatrix in="SourceAlpha" type="matrix" values="0 0 0 0 0 0 0 0 0 0 0 0 0 0 0 0 0 0 127 0"
                           result="hardAlpha"/>
            <feOffset dy="1"/>
            <feGaussianBlur stdDeviation="1"/>
            <feColorMatrix type="matrix" values="0 0 0 0 0 0 0 0 0 0 0 0 0 0 0 0 0 0 0.11 0"/>
            <feBlend mode="normal" in2="effect1_dropShadow" result="effect2_dropShadow"/>
            <feColorMatrix in="SourceAlpha" type="matrix" values="0 0 0 0 0 0 0 0 0 0 0 0 0 0 0 0 0 0 127 0"
                           result="hardAlpha"/>
            <feOffset dy="3"/>
            <feGaussianBlur stdDeviation="3"/>
            <feColorMatrix type="matrix" values="0 0 0 0 0 0 0 0 0 0 0 0 0 0 0 0 0 0 0.04 0"/>
            <feBlend mode="normal" in2="effect2_dropShadow" result="effect3_dropShadow"/>
            <feBlend mode="normal" in="SourceGraphic" in2="effect3_dropShadow" result="shape"/>
        </filter>
        <clipPath id="hashtagiconclip0">
            <rect width="259.056" height="126" fill="white" transform="translate(0.0556641)"/>
        </clipPath>
        <clipPath id="hashtagiconclip1">
            <path d="M119.211 13.9829C119.275 13.0647 120.072 12.3724 120.99 12.4366L197.47 17.7846C198.388 17.8488 199.08 18.6452 199.016 19.5634L194.528 83.7401L114.723 78.1595L119.211 13.9829Z"
                  fill="white"/>
        </clipPath>
        <clipPath id="hashtagiconclip2">
            <path d="M119.211 13.9829C119.275 13.0647 120.072 12.3724 120.99 12.4366L197.47 17.7846C198.388 17.8488 199.08 18.6452 199.016 19.5634L194.528 83.7401L114.723 78.1595L119.211 13.9829Z"
                  fill="white"/>
        </clipPath>
        <clipPath id="hashtagiconclip3">
            <path d="M65.0557 22.6667C65.0557 21.7462 65.8019 21 66.7223 21H143.389C144.309 21 145.056 21.7462 145.056 22.6667V87H65.0557V22.6667Z"
                  fill="white"/>
        </clipPath>
        <clipPath id="hashtagiconclip4">
            <path d="M65.0557 22.6667C65.0557 21.7462 65.8019 21 66.7223 21H143.389C144.309 21 145.056 21.7462 145.056 22.6667V87H65.0557V22.6667Z"
                  fill="white"/>
        </clipPath>
    </defs>
</svg>