<svg width="32" height="32" viewBox="0 0 32 32" fill="none" xmlns="http://www.w3.org/2000/svg">
    <g clip-path="url(#clip0_free506_22296)">
        <g filter="url(#filter0free_d_506_22296)">
            <rect x="3" y="3" width="26.1602" height="26.1602" rx="2" fill="#EC352F"/>
        </g>
        <path d="M21.5738 12.7852H19.3434L19.7453 10.8442C19.7552 10.787 19.7525 10.7284 19.7376 10.6723C19.7226 10.6162 19.6957 10.564 19.6587 10.5194C19.6216 10.4747 19.5753 10.4386 19.523 10.4135C19.4707 10.3884 19.4135 10.3749 19.3555 10.374H18.5518C18.4589 10.3718 18.3681 10.4018 18.2948 10.4589C18.2215 10.5161 18.1703 10.5968 18.1499 10.6875L17.74 12.7852H15.5699L15.9718 10.8442C15.9815 10.7883 15.9793 10.731 15.9653 10.676C15.9513 10.621 15.9258 10.5696 15.8905 10.5252C15.8552 10.4808 15.8109 10.4444 15.7605 10.4183C15.7101 10.3923 15.6547 10.3772 15.5981 10.374H14.7943C14.7014 10.3718 14.6106 10.4018 14.5374 10.4589C14.4641 10.5161 14.4129 10.5968 14.3925 10.6875L13.9906 12.7852H11.5794C11.4854 12.7833 11.3937 12.8145 11.3203 12.8732C11.2469 12.9319 11.1963 13.0146 11.1776 13.1067L11.0128 13.9104C11.0007 13.9695 11.0021 14.0305 11.0168 14.089C11.0315 14.1474 11.0592 14.2018 11.0978 14.2482C11.1364 14.2945 11.1849 14.3315 11.2398 14.3565C11.2946 14.3815 11.3544 14.3939 11.4147 14.3927H13.645L12.9859 17.6076H10.5748C10.4807 17.6057 10.389 17.6368 10.3156 17.6956C10.2422 17.7543 10.1917 17.8369 10.1729 17.9291L10.0081 18.7328C9.99607 18.7919 9.99744 18.8529 10.0122 18.9114C10.0269 18.9698 10.0546 19.0242 10.0931 19.0705C10.1317 19.1168 10.1803 19.1539 10.2351 19.1789C10.29 19.2039 10.3497 19.2163 10.41 19.215H12.6564L12.2546 21.156C12.2445 21.2142 12.2474 21.2739 12.2631 21.3309C12.2787 21.3878 12.3067 21.4406 12.3451 21.4855C12.3834 21.5304 12.4312 21.5663 12.485 21.5906C12.5389 21.6149 12.5974 21.6271 12.6564 21.6262H13.4601C13.5496 21.6239 13.6357 21.5919 13.7049 21.5351C13.774 21.4783 13.8223 21.4001 13.8419 21.3128L14.2599 19.215H16.4299L16.0281 21.156C16.0183 21.2119 16.0205 21.2693 16.0346 21.3242C16.0486 21.3792 16.0741 21.4306 16.1094 21.475C16.1447 21.5194 16.189 21.5559 16.2394 21.5819C16.2898 21.608 16.3451 21.6231 16.4018 21.6262H17.2055C17.2984 21.6285 17.3892 21.5985 17.4625 21.5414C17.5358 21.4842 17.587 21.4034 17.6074 21.3128L18.0293 19.215H20.4405C20.5345 19.2169 20.6262 19.1858 20.6997 19.1271C20.7731 19.0683 20.8236 18.9857 20.8424 18.8935L21.0031 18.0898C21.0152 18.0308 21.0138 17.9697 20.9991 17.9113C20.9844 17.8528 20.9567 17.7984 20.9181 17.7521C20.8795 17.7058 20.831 17.6688 20.7762 17.6437C20.7213 17.6187 20.6615 17.6064 20.6013 17.6076H18.3589L19.0139 14.3927H21.4251C21.5191 14.3946 21.6108 14.3634 21.6842 14.3047C21.7577 14.2459 21.8082 14.1633 21.827 14.0712L21.9917 13.2675C22.0042 13.207 22.0025 13.1445 21.987 13.0848C21.9714 13.0251 21.9422 12.9698 21.9018 12.9231C21.8614 12.8765 21.8108 12.8398 21.7539 12.8159C21.697 12.792 21.6354 12.7815 21.5738 12.7852ZM16.7514 17.6076H14.5813L15.2404 14.3927H17.4105L16.7514 17.6076Z"
              fill="white"/>
    </g>
    <defs>
        <filter id="filter0free_d_506_22296" x="-3" y="0" width="38.1602" height="38.1602" filterUnits="userSpaceOnUse"
                color-interpolation-filters="sRGB">
            <feFlood flood-opacity="0" result="BackgroundImageFix"/>
            <feColorMatrix in="SourceAlpha" type="matrix" values="0 0 0 0 0 0 0 0 0 0 0 0 0 0 0 0 0 0 127 0"
                           result="hardAlpha"/>
            <feOffset dy="3"/>
            <feGaussianBlur stdDeviation="3"/>
            <feColorMatrix type="matrix" values="0 0 0 0 0 0 0 0 0 0 0 0 0 0 0 0 0 0 0.04 0"/>
            <feBlend mode="normal" in2="BackgroundImageFix" result="effect1_dropShadow_506_22296"/>
            <feBlend mode="normal" in="SourceGraphic" in2="effect1_dropShadow_506_22296" result="shape"/>
        </filter>
        <clipPath id="clip0_free506_22296">
            <rect width="32" height="32" fill="white"/>
        </clipPath>
    </defs>
</svg>