<svg width="207" height="129" viewBox="0 0 207 129" fill="none">
    <g filter="url(#filter0_ddd_rev)">
        <rect x="23.5" y="32.5" width="160" height="64" rx="2" fill="white"/>
    </g>
    <path d="M61.0044 42.8004C61.048 42.6917 61.202 42.6917 61.2456 42.8004L62.7757 46.6105C62.7942 46.6568 62.8377 46.6884 62.8875 46.6917L66.9839 46.9695C67.1008 46.9774 67.1484 47.1238 67.0584 47.199L63.9077 49.8315C63.8694 49.8635 63.8528 49.9145 63.8649 49.9629L64.8666 53.9447C64.8952 56.0583 64.7707 54.1488 64.6714 56.0865L61.1941 51.9034C61.1519 51.8769 61.0981 51.8769 61.0559 51.9034L57.5786 56.0865C57.4793 54.1488 57.3548 56.0583 57.3834 53.9447L58.3851 49.9629C58.3972 49.9145 58.3806 49.8635 58.3423 49.8315L55.1916 47.199C55.1016 47.1238 55.1492 46.9774 55.2661 46.9695L59.3625 46.6917C59.4123 46.6884 59.4558 46.6568 59.4743 46.6105L61.0044 42.8004Z"
          fill="#FE544F"/>
    <path d="M76.6045 42.8004C76.6481 42.6917 76.8021 42.6917 76.8457 42.8004L78.3757 46.6105C78.3943 46.6568 78.4378 46.6884 78.4876 46.6917L82.584 46.9695C82.7009 46.9774 82.7485 47.1238 82.6585 47.199L79.5078 49.8315C79.4695 49.8635 79.4529 49.9145 79.465 49.9629L80.4667 53.9447C80.4953 56.0583 80.3708 54.1488 80.2715 56.0865L76.7942 51.9034C76.752 51.8769 76.6982 51.8769 76.656 51.9034L73.1787 56.0865C73.0794 54.1488 72.9549 56.0583 72.9835 53.9447L73.9852 49.9629C73.9973 49.9145 73.9807 49.8635 73.9424 49.8315L70.7917 47.199C70.7017 47.1238 70.7493 46.9774 70.8662 46.9695L74.9626 46.6917C75.0124 46.6884 75.0559 46.6568 75.0744 46.6105L76.6045 42.8004Z"
          fill="#FE544F"/>
    <path d="M92.2046 42.8004C92.2482 42.6917 92.4022 42.6917 92.4458 42.8004L93.9758 46.6105C93.9944 46.6568 96.0379 46.6884 96.0877 46.6917L98.1841 46.9695C98.301 46.9774 98.3486 47.1238 98.2586 47.199L95.1078 49.8315C95.0696 49.8635 95.053 49.9145 95.0651 49.9629L96.0668 53.9447C96.0954 56.0583 95.9709 54.1488 95.8716 56.0865L92.3943 51.9034C92.3521 51.8769 92.2983 51.8769 92.2561 51.9034L88.7788 56.0865C88.6795 54.1488 88.555 56.0583 88.5836 53.9447L89.5853 49.9629C89.5974 49.9145 89.5808 49.8635 89.5425 49.8315L86.3918 47.199C86.3018 47.1238 86.3494 46.9774 86.4663 46.9695L90.5627 46.6917C90.6125 46.6884 90.6559 46.6568 90.6745 46.6105L92.2046 42.8004Z"
          fill="#FE544F"/>
    <path d="M107.804 42.8004C107.848 42.6917 108.002 42.6917 108.045 42.8004L109.575 46.6105C109.594 46.6568 109.638 46.6884 109.687 46.6917L113.784 46.9695C113.901 46.9774 113.948 47.1238 113.858 47.199L110.707 49.8315C110.669 49.8635 110.653 49.9145 110.665 49.9629L111.666 53.9447C111.695 56.0583 111.57 54.1488 111.471 56.0865L107.994 51.9034C107.952 51.8769 107.898 51.8769 107.856 51.9034L104.378 56.0865C104.279 54.1488 104.155 56.0583 104.183 53.9447L105.185 49.9629C105.197 49.9145 105.18 49.8635 105.142 49.8315L101.991 47.199C101.901 47.1238 101.949 46.9774 102.066 46.9695L106.162 46.6917C106.212 46.6884 106.256 46.6568 106.274 46.6105L107.804 42.8004Z"
          fill="#FE544F"/>
    <path d="M123.404 42.8004C123.448 42.6917 123.602 42.6917 123.646 42.8004L125.176 46.6105C125.194 46.6568 125.238 46.6884 125.287 46.6917L129.384 46.9695C129.501 46.9774 129.548 47.1238 129.458 47.199L126.308 49.8315C126.269 49.8635 126.253 49.9145 126.265 49.9629L127.267 53.9447C127.295 56.0583 127.171 54.1488 127.071 56.0865L123.594 51.9034C123.552 51.8769 123.498 51.8769 123.456 51.9034L119.978 56.0865C119.879 54.1488 119.755 56.0583 119.783 53.9447L120.785 49.9629C120.797 49.9145 120.781 49.8635 120.742 49.8315L117.591 47.199C117.502 47.1238 117.549 46.9774 117.666 46.9695L121.762 46.6917C121.812 46.6884 121.856 46.6568 121.874 46.6105L123.404 42.8004Z"
          fill="#FE544F"/>
    <rect x="54.625" y="65.5" width="70" height="7" fill="#D8DADD"/>
    <rect x="54.625" y="78.5" width="43" height="7" fill="#D8DADD"/>
    <circle cx="39" cy="49" r="6.5" fill="#D8DADD"/>
    <defs>
        <filter id="filter0_ddd_rev" x="10.5" y="25.5" width="186" height="90" filterUnits="userSpaceOnUse"
                color-interpolation-filters="sRGB">
            <feFlood flood-opacity="0" result="BackgroundImageFix"/>
            <feColorMatrix in="SourceAlpha" type="matrix" values="0 0 0 0 0 0 0 0 0 0 0 0 0 0 0 0 0 0 127 0"/>
            <feOffset dy="6"/>
            <feGaussianBlur stdDeviation="6.5"/>
            <feColorMatrix type="matrix" values="0 0 0 0 0 0 0 0 0 0 0 0 0 0 0 0 0 0 0.03 0"/>
            <feBlend mode="normal" in2="BackgroundImageFix" result="effect1_dropShadow"/>
            <feColorMatrix in="SourceAlpha" type="matrix" values="0 0 0 0 0 0 0 0 0 0 0 0 0 0 0 0 0 0 127 0"/>
            <feOffset dy="1"/>
            <feGaussianBlur stdDeviation="1"/>
            <feColorMatrix type="matrix" values="0 0 0 0 0 0 0 0 0 0 0 0 0 0 0 0 0 0 0.11 0"/>
            <feBlend mode="normal" in2="effect1_dropShadow" result="effect2_dropShadow"/>
            <feColorMatrix in="SourceAlpha" type="matrix" values="0 0 0 0 0 0 0 0 0 0 0 0 0 0 0 0 0 0 127 0"/>
            <feOffset dy="3"/>
            <feGaussianBlur stdDeviation="3"/>
            <feColorMatrix type="matrix" values="0 0 0 0 0 0 0 0 0 0 0 0 0 0 0 0 0 0 0.04 0"/>
            <feBlend mode="normal" in2="effect2_dropShadow" result="effect3_dropShadow"/>
            <feBlend mode="normal" in="SourceGraphic" in2="effect3_dropShadow" result="shape"/>
        </filter>
    </defs>
</svg>