<svg xmlns="http://www.w3.org/2000/svg" width="17" height="16" viewBox="0 0 17 16" fill="none">
    <path d="M9.33573 14.7933L8.24906 12.24C9.29573 11.8533 10.2757 11.3333 11.1824 10.7267L9.33573 14.7933ZM4.3424 8.33333L1.78906 7.24667L5.85573 5.4C5.24906 6.30667 4.72906 7.28667 4.3424 8.33333ZM14.9891 1.59333C14.9891 1.59333 11.6891 0.179333 7.91573 3.95333C6.45573 5.41333 5.5824 7.02 5.01573 8.42667C4.82906 8.92667 4.95573 9.47333 5.3224 9.84667L6.7424 11.26C7.10906 11.6333 7.65573 11.7533 8.15573 11.5667C9.83476 10.9265 11.3593 9.93814 12.6291 8.66667C16.4024 4.89333 14.9891 1.59333 14.9891 1.59333ZM10.2757 6.30667C9.75573 5.78667 9.75573 4.94 10.2757 4.42C10.7957 3.9 11.6424 3.9 12.1624 4.42C12.6757 4.94 12.6824 5.78667 12.1624 6.30667C11.6424 6.82667 10.7957 6.82667 10.2757 6.30667ZM5.40919 14L7.16906 12.24C6.9424 12.18 6.7224 12.08 6.5224 11.94L4.46919 14H5.40919ZM2.58252 14H3.52252L6.03573 11.4933L5.08906 10.5533L2.58252 13.06V14ZM2.58252 12.1133L4.6424 10.06C4.5024 9.86 4.4024 9.64667 4.3424 9.41333L2.58252 11.1733V12.1133Z"
          fill="#0068A0"/>
</svg>