<svg width="20" height="20" viewBox="0 0 20 20" fill="none" xmlns="http://www.w3.org/2000/svg">
    <path d="M10.9411 18.4918L9.58281 15.3001C10.8911 14.8168 12.1161 14.1668 13.2495 13.4085L10.9411 18.4918ZM4.69948 10.4168L1.50781 9.05846L6.59115 6.75013C5.83281 7.88346 5.18281 9.10846 4.69948 10.4168ZM18.0078 1.9918C18.0078 1.9918 13.8828 0.224296 9.16615 4.9418C7.34115 6.7668 6.24948 8.77513 5.54115 10.5335C5.30781 11.1585 5.46615 11.8418 5.92448 12.3085L7.69948 14.0751C8.15781 14.5418 8.84115 14.6918 9.46615 14.4585C11.5649 13.6582 13.4706 12.4228 15.0578 10.8335C19.7745 6.1168 18.0078 1.9918 18.0078 1.9918ZM12.1161 7.88346C11.4661 7.23346 11.4661 6.17513 12.1161 5.52513C12.7661 4.87513 13.8245 4.87513 14.4745 5.52513C15.1161 6.17513 15.1245 7.23346 14.4745 7.88346C13.8245 8.53346 12.7661 8.53346 12.1161 7.88346ZM6.03297 17.5001L8.23281 15.3001C7.94948 15.2251 7.67448 15.1001 7.42448 14.9251L4.85797 17.5001H6.03297ZM2.49963 17.5001H3.67463L6.81615 14.3668L5.63281 13.1918L2.49963 16.3251V17.5001ZM2.49963 15.1418L5.07448 12.5751C4.89948 12.3251 4.77448 12.0585 4.69948 11.7668L2.49963 13.9668V15.1418Z"
          fill="white"/>
</svg>