<svg width="303" height="145" viewBox="0 0 303 145" fill="none" xmlns="http://www.w3.org/2000/svg">
    <path d="M124.919 67.2058C130.919 72.7058 150.519 81.4058 180.919 72.2058" stroke="#8C8F9A" stroke-width="2"
          stroke-dasharray="3 3"/>
    <path d="M181.999 69L185.797 70.4241L183.5 74L181.999 69Z" fill="#8C8F9A"/>
    <g filter="url(#shopp_disabled_filter0_dddd)">
        <rect x="24.6006" y="17.6504" width="81" height="98" rx="2" transform="rotate(-4 24.6006 17.6504)"
              fill="white"/>
        <rect x="24.3338" y="17.4184" width="81.5" height="98.5" rx="2.25" transform="rotate(-4 24.3338 17.4184)"
              stroke="url(#shopp_disabled_paint0_linear)" stroke-width="0.5"/>
    </g>
    <g clip-path="url(#shopp_disabled_clip0)">
        <path d="M94.5298 21.3615C92.9088 21.4749 91.7091 22.8823 91.8207 24.478C91.9341 26.0991 93.3162 27.3005 94.9372 27.1872C96.5329 27.0756 97.7597 25.6917 97.6463 24.0707C97.5348 22.4749 96.1256 21.2499 94.5298 21.3615ZM94.8664 26.174C93.8279 26.2466 92.9083 25.471 92.8339 24.4072C92.7613 23.3687 93.5387 22.4744 94.6025 22.4C95.6409 22.3274 96.5352 23.1048 96.6079 24.1433C96.6822 25.2071 95.9048 26.1014 94.8664 26.174ZM98.2208 21.0016C98.1942 20.6217 97.869 20.339 97.4891 20.3656C97.1091 20.3921 96.8264 20.7173 96.853 21.0973C96.8796 21.4772 97.2048 21.7599 97.5847 21.7333C97.9646 21.7068 98.2473 21.3816 98.2208 21.0016ZM100.194 21.5509C100.079 20.6426 99.8198 19.8463 99.1152 19.2338C98.4106 18.6213 97.586 18.4753 96.6706 18.4884C95.7299 18.5033 92.9184 18.6999 91.9848 18.8161C91.0765 18.9305 90.3054 19.188 89.6676 19.8944C89.0551 20.599 88.9092 21.4237 88.9223 22.3391C88.9371 23.2798 89.1337 26.0913 89.2499 27.0249C89.3644 27.9332 89.6219 28.7042 90.3283 29.342C91.0582 29.9528 91.8575 30.1005 92.7729 30.0874C93.7136 30.0725 96.5251 29.8759 97.4587 29.7597C98.367 29.6453 99.1634 29.386 99.7759 28.6814C100.387 27.9515 100.534 27.1521 100.521 26.2367C100.506 25.296 100.31 22.4845 100.194 21.5509ZM99.3745 27.3096C99.2327 27.8285 98.854 28.2368 98.3869 28.4731C97.6483 28.8302 95.8699 28.8782 95.0594 28.9348C94.2236 28.9933 92.4559 29.1933 91.7001 28.9407C91.1793 28.7735 90.7728 28.4201 90.5348 27.9277C90.1795 27.2144 90.1315 25.4361 90.073 24.6002C90.0164 23.7897 89.8164 22.022 90.0672 21.2409C90.2362 20.7455 90.5895 20.339 91.082 20.1009C91.7952 19.7456 93.5736 19.6976 94.4094 19.6392C95.2199 19.5825 96.9876 19.3825 97.7687 19.6333C98.2624 19.777 98.6707 20.1557 98.9069 20.6228C99.264 21.3614 99.312 23.1397 99.3687 23.9502C99.4271 24.7861 99.6271 26.5538 99.3745 27.3096Z"
              fill="url(#shopp_disabled_paint1_linear)"/>
    </g>
    <g clip-path="url(#shopp_disabled_clip1)">
        <rect x="26.1348" y="39.5967" width="81" height="76" rx="2" transform="rotate(-4 26.1348 39.5967)"
              fill="#B5E5FF"/>
        <circle cx="30.7388" cy="105.436" r="54" transform="rotate(-4 30.7388 105.436)" fill="#86D0F9"/>
        <g filter="url(#shopp_disabled_filter1_dd)">
            <mask id="shopp_disabled_mask0" style="mask-type:alpha" maskUnits="userSpaceOnUse" x="35" y="47" width="60"
                  height="54">
                <path fill-rule="evenodd" clip-rule="evenodd"
                      d="M68.7966 50.3478C68.534 50.4332 68.3943 50.7154 68.4401 50.9877C68.8644 53.5073 66.4327 56.3732 62.7333 57.5753C59.0338 58.7773 55.382 57.888 54.2442 55.6002C54.1213 55.3529 53.8423 55.2068 53.5797 55.2921L47.2555 57.347C47.1786 57.372 47.109 57.4152 47.0525 57.473L42.6186 62.008L35.8445 69.2862C35.7004 69.441 35.6693 69.6698 35.7668 69.8574L40.9681 79.8652C41.1015 80.1217 41.4239 80.212 41.6711 80.0621L47.8083 76.3393C48.0715 76.1797 48.4151 76.2935 48.5309 76.5788L58.2754 100.594C58.374 100.837 58.6437 100.963 58.8932 100.881L92.2457 90.0446C92.4952 89.9635 92.6396 89.7034 92.5765 89.4488L86.3412 64.2801C86.2678 63.9837 86.4749 63.6913 86.7789 63.6622L94.424 62.9299C94.7094 62.9026 94.9134 62.6414 94.8708 62.358L93.1967 51.2062C93.1647 50.9929 92.9995 50.8242 92.787 50.7877L82.5629 49.0293L76.3102 47.9666C76.2305 47.953 76.1488 47.959 76.0719 47.984L68.7966 50.3478Z"
                      fill="white"/>
            </mask>
            <g mask="url(#shopp_disabled_mask0)">
                <rect x="28.3076" y="60.3479" width="72" height="54" transform="rotate(-16 28.3076 60.3479)"
                      fill="white"/>
                <path fill-rule="evenodd" clip-rule="evenodd"
                      d="M66.4321 69.6639C65.1395 69.4776 63.7264 69.0512 62.5105 69.0127C63.1766 69.8427 63.7987 70.7521 64.429 71.6465C63.8884 72.3619 63.1987 72.9948 62.5553 73.6533C63.3952 74.1125 64.4294 74.2212 65.3292 74.5723C64.947 75.4717 64.0024 76.5635 63.9089 77.3062C65.0894 76.8017 66.445 76.1437 67.5698 75.7666C68.181 76.9532 68.7057 78.2958 69.3922 79.3464C69.485 77.6689 69.5124 75.9552 69.7351 74.3498C70.8246 74.4733 72.1524 74.6242 73.1713 74.589C72.2358 73.8444 71.3419 73.0247 70.4606 72.1824C71.1537 71.2976 71.8595 70.42 72.5116 69.5125C71.2887 69.7444 70.035 70.0316 68.7692 70.3408C68.2001 69.1068 67.8102 67.5497 67.1648 66.4536C66.98 67.5567 66.688 68.6002 66.4321 69.6639ZM70.0641 80.1946C70.0998 80.9132 70.6974 81.0407 70.7363 81.4713C70.1738 81.4417 69.7628 81.4615 69.1035 81.7558C68.9743 81.2243 69.4256 81.0144 69.1426 80.3976C61.5808 81.6649 57.7717 68.4365 64.8194 65.5342C73.6314 61.9053 78.4249 77.5439 70.0641 80.1946Z"
                      fill="#FE544F"/>
                <path fill-rule="evenodd" clip-rule="evenodd"
                      d="M67.1649 66.4536C67.8103 67.5497 68.2003 69.1068 68.7693 70.3407C70.0352 70.0316 71.2888 69.7444 72.5117 69.5125C71.8597 70.42 71.1538 71.2976 70.4608 72.1824C71.3421 73.0248 72.2359 73.8444 73.1714 74.589C72.1526 74.6242 70.8247 74.4733 69.7352 74.3498C69.5126 75.9552 69.4852 77.6689 69.3924 79.3464C68.7058 78.2958 68.1811 76.9532 67.5699 75.7666C66.4451 76.1438 65.0896 76.8017 63.9091 77.3062C64.0026 76.5635 64.9472 75.4718 65.3294 74.5723C64.4295 74.2212 63.3954 74.1125 62.5555 73.6533C63.1989 72.9948 63.8885 72.362 64.4292 71.6465C63.7988 70.7521 63.1767 69.8427 62.5106 69.0128C63.7266 69.0512 65.1396 69.4776 66.4323 69.6639C66.6881 68.6002 66.9802 67.5567 67.1649 66.4536Z"
                      fill="white"/>
            </g>
        </g>
    </g>
    <g filter="url(#shopp_disabled_filter2_dddd)">
        <rect x="199.592" y="17.7058" width="79" height="102" rx="2" transform="rotate(4 199.592 17.7058)"
              fill="#E2F5FF"/>
    </g>
    <rect x="231.919" y="100.162" width="36" height="17" rx="2" transform="rotate(4 231.919 100.162)" fill="#0096CC"/>
    <path d="M241.707 111.873L244.07 112.038C245.123 112.112 245.827 111.602 245.887 110.743L245.888 110.736C245.931 110.112 245.469 109.576 244.827 109.497L244.831 109.432C245.358 109.397 245.785 108.978 245.821 108.453L245.822 108.446C245.875 107.686 245.328 107.182 244.346 107.113L242.051 106.953L241.707 111.873ZM243.95 107.973C244.376 108.003 244.61 108.232 244.586 108.579L244.585 108.586C244.561 108.931 244.281 109.123 243.824 109.091L243.162 109.045L243.241 107.923L243.95 107.973ZM243.859 109.858C244.377 109.894 244.652 110.136 244.624 110.538L244.623 110.545C244.594 110.958 244.295 111.166 243.777 111.13L243.02 111.077L243.109 109.805L243.859 109.858ZM248.86 112.507C250.155 112.597 251.031 111.925 251.108 110.824L251.334 107.602L250.086 107.515L249.869 110.617C249.829 111.19 249.498 111.51 248.935 111.47C248.376 111.431 248.09 111.069 248.13 110.496L248.347 107.393L247.099 107.306L246.874 110.528C246.796 111.633 247.581 112.417 248.86 112.507ZM253.583 112.703L254.834 112.791L254.952 111.1L256.873 107.989L255.539 107.896L254.448 109.838L254.383 109.833L253.565 107.758L252.232 107.665L253.701 111.012L253.583 112.703Z"
          fill="white"/>
    <g filter="url(#shopp_disabled_filter3_dd)">
        <mask id="shopp_disabled_mask1" style="mask-type:alpha" maskUnits="userSpaceOnUse" x="207" y="35" width="61"
              height="48">
            <path fill-rule="evenodd" clip-rule="evenodd"
                  d="M244.802 36.7068C244.526 36.6972 244.298 36.9146 244.248 37.1861C243.785 39.699 240.52 41.5604 236.632 41.4246C232.745 41.2889 229.618 39.2042 229.331 36.6652C229.3 36.3908 229.088 36.1581 228.812 36.1485L222.166 35.9164C222.085 35.9136 222.005 35.9304 221.932 35.9653L216.215 38.7104L207.36 43.2328C207.171 43.329 207.064 43.5333 207.091 43.743L208.556 54.9261C208.594 55.2128 208.866 55.408 209.149 55.3516L216.19 53.9524C216.492 53.8924 216.776 54.117 216.787 54.4246L217.73 80.3242C217.74 80.5864 217.95 80.7966 218.212 80.8057L253.26 82.0296C253.522 82.0388 253.747 81.8438 253.774 81.5829L256.523 55.7995C256.556 55.4959 256.85 55.2919 257.146 55.3685L264.581 57.2952C264.858 57.3671 265.139 57.1915 265.196 56.9106L267.437 45.8588C267.48 45.6474 267.382 45.4324 267.195 45.3253L258.189 40.1762L252.677 37.039C252.607 36.999 252.528 36.9766 252.447 36.9738L244.802 36.7068Z"
                  fill="white"/>
        </mask>
        <g mask="url(#shopp_disabled_mask1)">
            <rect x="203.335" y="32.2556" width="72" height="54" transform="rotate(4 203.335 32.2556)" fill="white"/>
            <path fill-rule="evenodd" clip-rule="evenodd"
                  d="M235.974 54.0491C234.823 53.4321 233.641 52.548 232.512 52.096C232.854 53.1038 233.128 54.171 233.414 55.2271C232.661 55.7145 231.797 56.0733 230.967 56.472C231.599 57.1908 232.534 57.6466 233.259 58.2843C232.592 58.9988 231.331 59.7017 230.99 60.3676C232.271 60.2973 233.77 60.1426 234.956 60.173C235.125 61.497 235.159 62.9381 235.444 64.1601C236.105 62.6156 236.717 61.0146 237.476 59.5821C238.457 60.0709 239.653 60.6668 240.623 60.9822C239.998 59.9626 239.439 58.8866 238.899 57.7936C239.852 57.1992 240.816 56.616 241.739 55.9862C240.511 55.7859 239.234 55.627 237.939 55.4846C237.826 54.1304 237.992 52.5338 237.761 51.2831C237.21 52.2564 236.579 53.1372 235.974 54.0491ZM235.786 65.187C235.573 65.8745 236.091 66.1987 235.981 66.6166C235.462 66.3964 235.069 66.2745 234.349 66.3255C234.409 65.7818 234.905 65.739 234.85 65.0626C227.311 63.6672 228.256 49.9337 235.871 49.6169C245.393 49.2208 244.549 65.5558 235.786 65.187Z"
                  fill="#FE544F"/>
            <path fill-rule="evenodd" clip-rule="evenodd"
                  d="M237.761 51.283C237.993 52.5337 237.827 54.1303 237.939 55.4844C239.235 55.6268 240.511 55.7857 241.739 55.9861C240.816 56.6159 239.853 57.1991 238.899 57.7935C239.439 58.8865 239.998 59.9624 240.623 60.9821C239.653 60.6667 238.457 60.0708 237.476 59.582C236.717 61.0145 236.106 62.6155 235.445 64.16C235.159 62.938 235.125 61.4969 234.956 60.1729C233.77 60.1425 232.272 60.2972 230.99 60.3675C231.332 59.7016 232.593 58.9987 233.259 58.2842C232.534 57.6465 231.599 57.1907 230.967 56.4719C231.797 56.0732 232.662 55.7144 233.414 55.227C233.128 54.1709 232.854 53.1037 232.512 52.0959C233.642 52.5479 234.824 53.432 235.975 54.049C236.579 53.1371 237.21 52.2563 237.761 51.283Z"
                  fill="white"/>
        </g>
    </g>
    <path d="M266.144 121.304L266.2 120.51L265.32 120.449L265.375 119.655L263.615 119.532L263.67 118.739L261.03 118.554L261.085 117.761L259.325 117.637L259.547 114.463L258.666 114.402L258.722 113.608L256.962 113.485L256.906 114.279L256.026 114.217L255.526 121.359L254.646 121.297L254.702 120.504L252.061 120.319L251.839 123.493L252.719 123.555L252.608 125.142L253.489 125.203L253.378 126.79L254.258 126.852L254.147 128.439L255.027 128.501L254.861 130.881L264.543 131.558L264.765 128.384L265.645 128.446L265.811 126.065L264.931 126.003L264.765 128.384L263.885 128.322L263.718 130.703L255.796 130.149L255.907 128.562L255.027 128.501L255.138 126.913L254.258 126.852L254.369 125.265L253.489 125.203L253.6 123.616L252.719 123.555L252.886 121.174L254.646 121.297L254.591 122.091L255.471 122.152L255.305 124.533L256.185 124.594L256.906 114.279L258.666 114.402L258.167 121.544L259.047 121.605L259.269 118.431L261.03 118.554L260.808 121.728L261.688 121.79L261.854 119.409L263.615 119.532L263.393 122.706L264.273 122.768L264.439 120.387L265.32 120.449L265.264 121.242L266.144 121.304L265.811 126.065L266.692 126.127L267.025 121.365L266.144 121.304Z"
          fill="#141B38"/>
    <path d="M264.932 126.003L265.812 126.065L266.145 121.304L265.265 121.242L265.32 120.449L264.44 120.387L264.274 122.768L263.393 122.706L263.615 119.532L261.855 119.409L261.688 121.79L260.808 121.728L261.03 118.554L259.27 118.431L259.048 121.605L258.168 121.543L258.667 114.402L256.907 114.279L256.185 124.594L255.305 124.533L255.471 122.152L254.591 122.091L254.647 121.297L252.886 121.174L252.72 123.555L253.6 123.616L253.489 125.203L254.369 125.265L254.258 126.852L255.139 126.913L255.028 128.5L255.908 128.562L255.797 130.149L263.719 130.703L263.885 128.322L264.765 128.384L264.932 126.003Z"
          fill="white"/>
    <path fill-rule="evenodd" clip-rule="evenodd"
          d="M258.001 123.924L258.881 123.986L258.62 127.726L257.739 127.665L258.001 123.924ZM260.641 124.109L259.761 124.047L259.5 127.788L260.38 127.85L260.641 124.109ZM262.402 124.232L261.521 124.17L261.26 127.911L262.14 127.973L262.402 124.232Z"
          fill="#141B38"/>
    <defs>
        <filter id="shopp_disabled_filter0_dddd" x="16.6698" y="10.1217" width="103.5" height="119.273"
                filterUnits="userSpaceOnUse" color-interpolation-filters="sRGB">
            <feFlood flood-opacity="0" result="BackgroundImageFix"/>
            <feColorMatrix in="SourceAlpha" type="matrix" values="0 0 0 0 0 0 0 0 0 0 0 0 0 0 0 0 0 0 127 0"
                           result="hardAlpha"/>
            <feOffset dy="0.749837"/>
            <feGaussianBlur stdDeviation="0.468648"/>
            <feColorMatrix type="matrix" values="0 0 0 0 0 0 0 0 0 0.101961 0 0 0 0 0.466667 0 0 0 0.1137 0"/>
            <feBlend mode="normal" in2="BackgroundImageFix" result="effect1_dropShadow"/>
            <feColorMatrix in="SourceAlpha" type="matrix" values="0 0 0 0 0 0 0 0 0 0 0 0 0 0 0 0 0 0 127 0"
                           result="hardAlpha"/>
            <feOffset dy="1.80196"/>
            <feGaussianBlur stdDeviation="1.12623"/>
            <feColorMatrix type="matrix" values="0 0 0 0 0 0 0 0 0 0.101961 0 0 0 0 0.466667 0 0 0 0.0484671 0"/>
            <feBlend mode="normal" in2="effect1_dropShadow" result="effect2_dropShadow"/>
            <feColorMatrix in="SourceAlpha" type="matrix" values="0 0 0 0 0 0 0 0 0 0 0 0 0 0 0 0 0 0 127 0"
                           result="hardAlpha"/>
            <feOffset dy="3.39293"/>
            <feGaussianBlur stdDeviation="2.12058"/>
            <feColorMatrix type="matrix" values="0 0 0 0 0 0 0 0 0 0.101961 0 0 0 0 0.466667 0 0 0 0.06 0"/>
            <feBlend mode="normal" in2="effect2_dropShadow" result="effect3_dropShadow"/>
            <feColorMatrix in="SourceAlpha" type="matrix" values="0 0 0 0 0 0 0 0 0 0 0 0 0 0 0 0 0 0 127 0"
                           result="hardAlpha"/>
            <feOffset dy="6.05242"/>
            <feGaussianBlur stdDeviation="3.78276"/>
            <feColorMatrix type="matrix" values="0 0 0 0 0 0 0 0 0 0.101961 0 0 0 0 0.466667 0 0 0 0.0715329 0"/>
            <feBlend mode="normal" in2="effect3_dropShadow" result="effect4_dropShadow"/>
            <feBlend mode="normal" in="SourceGraphic" in2="effect4_dropShadow" result="shape"/>
        </filter>
        <filter id="shopp_disabled_filter1_dd" x="32.7109" y="44.9595" width="67.165" height="60.9465"
                filterUnits="userSpaceOnUse" color-interpolation-filters="sRGB">
            <feFlood flood-opacity="0" result="BackgroundImageFix"/>
            <feColorMatrix in="SourceAlpha" type="matrix" values="0 0 0 0 0 0 0 0 0 0 0 0 0 0 0 0 0 0 127 0"
                           result="hardAlpha"/>
            <feOffset dx="1" dy="1"/>
            <feGaussianBlur stdDeviation="2"/>
            <feColorMatrix type="matrix" values="0 0 0 0 0 0 0 0 0 0 0 0 0 0 0 0 0 0 0.13 0"/>
            <feBlend mode="normal" in2="BackgroundImageFix" result="effect1_dropShadow"/>
            <feColorMatrix in="SourceAlpha" type="matrix" values="0 0 0 0 0 0 0 0 0 0 0 0 0 0 0 0 0 0 127 0"
                           result="hardAlpha"/>
            <feOffset dy="0.5"/>
            <feGaussianBlur stdDeviation="0.25"/>
            <feColorMatrix type="matrix" values="0 0 0 0 0 0 0 0 0 0 0 0 0 0 0 0 0 0 0.15 0"/>
            <feBlend mode="normal" in2="effect1_dropShadow" result="effect2_dropShadow"/>
            <feBlend mode="normal" in="SourceGraphic" in2="effect2_dropShadow" result="shape"/>
        </filter>
        <filter id="shopp_disabled_filter2_dddd" x="185.046" y="16.3272" width="100.784" height="122.124"
                filterUnits="userSpaceOnUse" color-interpolation-filters="sRGB">
            <feFlood flood-opacity="0" result="BackgroundImageFix"/>
            <feColorMatrix in="SourceAlpha" type="matrix" values="0 0 0 0 0 0 0 0 0 0 0 0 0 0 0 0 0 0 127 0"
                           result="hardAlpha"/>
            <feOffset dy="0.749837"/>
            <feGaussianBlur stdDeviation="0.468648"/>
            <feColorMatrix type="matrix" values="0 0 0 0 0 0 0 0 0 0.101961 0 0 0 0 0.466667 0 0 0 0.1137 0"/>
            <feBlend mode="normal" in2="BackgroundImageFix" result="effect1_dropShadow"/>
            <feColorMatrix in="SourceAlpha" type="matrix" values="0 0 0 0 0 0 0 0 0 0 0 0 0 0 0 0 0 0 127 0"
                           result="hardAlpha"/>
            <feOffset dy="1.80196"/>
            <feGaussianBlur stdDeviation="1.12623"/>
            <feColorMatrix type="matrix" values="0 0 0 0 0 0 0 0 0 0.101961 0 0 0 0 0.466667 0 0 0 0.0484671 0"/>
            <feBlend mode="normal" in2="effect1_dropShadow" result="effect2_dropShadow"/>
            <feColorMatrix in="SourceAlpha" type="matrix" values="0 0 0 0 0 0 0 0 0 0 0 0 0 0 0 0 0 0 127 0"
                           result="hardAlpha"/>
            <feOffset dy="3.39293"/>
            <feGaussianBlur stdDeviation="2.12058"/>
            <feColorMatrix type="matrix" values="0 0 0 0 0 0 0 0 0 0.101961 0 0 0 0 0.466667 0 0 0 0.06 0"/>
            <feBlend mode="normal" in2="effect2_dropShadow" result="effect3_dropShadow"/>
            <feColorMatrix in="SourceAlpha" type="matrix" values="0 0 0 0 0 0 0 0 0 0 0 0 0 0 0 0 0 0 127 0"
                           result="hardAlpha"/>
            <feOffset dy="6.05242"/>
            <feGaussianBlur stdDeviation="3.78276"/>
            <feColorMatrix type="matrix" values="0 0 0 0 0 0 0 0 0 0.101961 0 0 0 0 0.466667 0 0 0 0.0715329 0"/>
            <feBlend mode="normal" in2="effect3_dropShadow" result="effect4_dropShadow"/>
            <feBlend mode="normal" in="SourceGraphic" in2="effect4_dropShadow" result="shape"/>
        </filter>
        <filter id="shopp_disabled_filter3_dd" x="204.087" y="32.916" width="68.3604" height="54.114"
                filterUnits="userSpaceOnUse" color-interpolation-filters="sRGB">
            <feFlood flood-opacity="0" result="BackgroundImageFix"/>
            <feColorMatrix in="SourceAlpha" type="matrix" values="0 0 0 0 0 0 0 0 0 0 0 0 0 0 0 0 0 0 127 0"
                           result="hardAlpha"/>
            <feOffset dx="1" dy="1"/>
            <feGaussianBlur stdDeviation="2"/>
            <feColorMatrix type="matrix" values="0 0 0 0 0 0 0 0 0 0 0 0 0 0 0 0 0 0 0.13 0"/>
            <feBlend mode="normal" in2="BackgroundImageFix" result="effect1_dropShadow"/>
            <feColorMatrix in="SourceAlpha" type="matrix" values="0 0 0 0 0 0 0 0 0 0 0 0 0 0 0 0 0 0 127 0"
                           result="hardAlpha"/>
            <feOffset dy="0.5"/>
            <feGaussianBlur stdDeviation="0.25"/>
            <feColorMatrix type="matrix" values="0 0 0 0 0 0 0 0 0 0 0 0 0 0 0 0 0 0 0.15 0"/>
            <feBlend mode="normal" in2="effect1_dropShadow" result="effect2_dropShadow"/>
            <feBlend mode="normal" in="SourceGraphic" in2="effect2_dropShadow" result="shape"/>
        </filter>
        <linearGradient id="shopp_disabled_paint0_linear" x1="32.1943" y1="17.6504" x2="120.163" y2="93.7021"
                        gradientUnits="userSpaceOnUse">
            <stop stop-color="#B5CBEC"/>
            <stop offset="1" stop-color="#B6CFF4" stop-opacity="0.32"/>
        </linearGradient>
        <linearGradient id="shopp_disabled_paint1_linear" x1="94.2114" y1="40.43" x2="116.406" y2="14.3621"
                        gradientUnits="userSpaceOnUse">
            <stop stop-color="white"/>
            <stop offset="0.147864" stop-color="#F6640E"/>
            <stop offset="0.443974" stop-color="#BA03A7"/>
            <stop offset="0.733337" stop-color="#6A01B9"/>
            <stop offset="1" stop-color="#6B01B9"/>
        </linearGradient>
        <clipPath id="shopp_disabled_clip0">
            <rect width="13" height="13" fill="white" transform="translate(87.7959 18.2437) rotate(-4)"/>
        </clipPath>
        <clipPath id="shopp_disabled_clip1">
            <rect x="26.1348" y="39.5967" width="81" height="76" rx="2" transform="rotate(-4 26.1348 39.5967)"
                  fill="white"/>
        </clipPath>
    </defs>
</svg>