<svg height="18" viewBox="0 0 28 36" fill="none" xmlns="http://www.w3.org/2000/svg">
    <path fill-rule="evenodd" clip-rule="evenodd"
          d="M27.2235 16.8291C27.2235 7.53469 21.1311 0 13.6131 0C6.09513 0 0 7.53469 0 16.8291C0 25.7393 5.5828 33.0095 12.6525 33.6193L11.9007 36L16.6147 35.599L14.9608 33.5775C21.8439 32.7422 27.2235 25.5639 27.2235 16.8291Z"
          fill="#FE544F"/>
    <path fill-rule="evenodd" clip-rule="evenodd"
          d="M16.8586 5.91699L17.5137 12.6756L24.3006 12.8705L19.3911 17.4354L23.2687 23.044L16.7362 21.816L14.7557 28.3487L11.7488 22.4987L5.67719 25.2808L8.01283 19.0094L2.09131 16.0227L8.43013 13.9841L6.68099 7.73959L12.678 11.1585L16.8586 5.91699Z"
          fill="white"/>
</svg>