<svg width="33" height="32" viewBox="0 0 33 32" fill="none" xmlns="http://www.w3.org/2000/svg">
    <g clip-path="url(#socialWallFreeclip0)">
        <path d="M8.49935 2.19C5.29102 2.19 2.66602 4.80917 2.66602 8.035C2.66602 10.9517 4.80102 13.3725 7.58935 13.81V9.72667H6.10768V8.035H7.58935V6.74584C7.58935 5.28167 8.45852 4.47667 9.79435 4.47667C10.4302 4.47667 11.0952 4.5875 11.0952 4.5875V6.02834H10.3602C9.63685 6.02834 9.40935 6.4775 9.40935 6.93834V8.035H11.031L10.7685 9.72667H9.40935V13.81C10.7839 13.5929 12.0356 12.8916 12.9385 11.8325C13.8413 10.7735 14.3358 9.42663 14.3327 8.035C14.3327 4.80917 11.7077 2.19 8.49935 2.19Z"
              fill="#006BFA"/>
        <path d="M8.5 21.3047C7 21.3047 5.80469 22.5234 5.80469 24C5.80469 25.5 7 26.6953 8.5 26.6953C9.97656 26.6953 11.1953 25.5 11.1953 24C11.1953 22.5234 9.97656 21.3047 8.5 21.3047ZM8.5 25.7578C7.53906 25.7578 6.74219 24.9844 6.74219 24C6.74219 23.0391 7.51562 22.2656 8.5 22.2656C9.46094 22.2656 10.2344 23.0391 10.2344 24C10.2344 24.9844 9.46094 25.7578 8.5 25.7578ZM11.9219 21.2109C11.9219 20.8594 11.6406 20.5781 11.2891 20.5781C10.9375 20.5781 10.6562 20.8594 10.6562 21.2109C10.6562 21.5625 10.9375 21.8438 11.2891 21.8438C11.6406 21.8438 11.9219 21.5625 11.9219 21.2109ZM13.7031 21.8438C13.6562 21 13.4688 20.25 12.8594 19.6406C12.25 19.0312 11.5 18.8438 10.6562 18.7969C9.78906 18.75 7.1875 18.75 6.32031 18.7969C5.47656 18.8438 4.75 19.0312 4.11719 19.6406C3.50781 20.25 3.32031 21 3.27344 21.8438C3.22656 22.7109 3.22656 25.3125 3.27344 26.1797C3.32031 27.0234 3.50781 27.75 4.11719 28.3828C4.75 28.9922 5.47656 29.1797 6.32031 29.2266C7.1875 29.2734 9.78906 29.2734 10.6562 29.2266C11.5 29.1797 12.25 28.9922 12.8594 28.3828C13.4688 27.75 13.6562 27.0234 13.7031 26.1797C13.75 25.3125 13.75 22.7109 13.7031 21.8438ZM12.5781 27.0938C12.4141 27.5625 12.0391 27.9141 11.5938 28.1016C10.8906 28.3828 9.25 28.3125 8.5 28.3125C7.72656 28.3125 6.08594 28.3828 5.40625 28.1016C4.9375 27.9141 4.58594 27.5625 4.39844 27.0938C4.11719 26.4141 4.1875 24.7734 4.1875 24C4.1875 23.25 4.11719 21.6094 4.39844 20.9062C4.58594 20.4609 4.9375 20.1094 5.40625 19.9219C6.08594 19.6406 7.72656 19.7109 8.5 19.7109C9.25 19.7109 10.8906 19.6406 11.5938 19.9219C12.0391 20.0859 12.3906 20.4609 12.5781 20.9062C12.8594 21.6094 12.7891 23.25 12.7891 24C12.7891 24.7734 12.8594 26.4141 12.5781 27.0938Z"
              fill="url(#socialWallFreepaint0_linear)"/>
        <path d="M30.6018 4.50001C30.1526 4.70418 29.6684 4.83834 29.1668 4.90251C29.6801 4.59334 30.0768 4.10334 30.2634 3.51418C29.7793 3.80584 29.2426 4.01001 28.6768 4.12668C28.2159 3.62501 27.5684 3.33334 26.8334 3.33334C25.4626 3.33334 24.3426 4.45334 24.3426 5.83584C24.3426 6.03418 24.3659 6.22668 24.4068 6.40751C22.3301 6.30251 20.4809 5.30501 19.2501 3.79418C19.0343 4.16168 18.9118 4.59334 18.9118 5.04834C18.9118 5.91751 19.3493 6.68751 20.0259 7.12501C19.6118 7.12501 19.2268 7.00834 18.8884 6.83334V6.85084C18.8884 8.06418 19.7518 9.07918 20.8951 9.30668C20.528 9.40713 20.1427 9.42111 19.7693 9.34751C19.9277 9.84479 20.238 10.2799 20.6565 10.5917C21.0751 10.9035 21.5808 11.0763 22.1026 11.0858C21.2181 11.7861 20.1216 12.1646 18.9934 12.1592C18.7951 12.1592 18.5968 12.1475 18.3984 12.1242C19.5068 12.8358 20.8251 13.25 22.2368 13.25C26.8334 13.25 29.3593 9.43501 29.3593 6.12751C29.3593 6.01668 29.3593 5.91168 29.3534 5.80084C29.8434 5.45084 30.2634 5.00751 30.6018 4.50001Z"
              fill="#1B90EF"/>
        <path d="M23.3327 25.75L26.3602 24L23.3327 22.25V25.75ZM30.076 21.1825C30.1518 21.4567 30.2043 21.8242 30.2393 22.2908C30.2802 22.7575 30.2977 23.16 30.2977 23.51L30.3327 24C30.3327 25.2775 30.2393 26.2167 30.076 26.8175C29.9302 27.3425 29.5918 27.6808 29.0668 27.8267C28.7927 27.9025 28.291 27.955 27.521 27.99C26.7627 28.0308 26.0685 28.0483 25.4268 28.0483L24.4993 28.0833C22.0552 28.0833 20.5327 27.99 19.9318 27.8267C19.4068 27.6808 19.0685 27.3425 18.9227 26.8175C18.8468 26.5433 18.7943 26.1758 18.7593 25.7092C18.7185 25.2425 18.701 24.84 18.701 24.49L18.666 24C18.666 22.7225 18.7593 21.7833 18.9227 21.1825C19.0685 20.6575 19.4068 20.3192 19.9318 20.1733C20.206 20.0975 20.7077 20.045 21.4777 20.01C22.236 19.9692 22.9302 19.9517 23.5718 19.9517L24.4993 19.9167C26.9435 19.9167 28.466 20.01 29.0668 20.1733C29.5918 20.3192 29.9302 20.6575 30.076 21.1825Z"
              fill="#EB2121"/>
    </g>
    <defs>
        <linearGradient id="socialWallFreepaint0_linear" x1="6.97891" y1="38.843" x2="29.0945" y2="16.268"
                        gradientUnits="userSpaceOnUse">
            <stop stop-color="white"/>
            <stop offset="0.147864" stop-color="#F6640E"/>
            <stop offset="0.443974" stop-color="#BA03A7"/>
            <stop offset="0.733337" stop-color="#6A01B9"/>
            <stop offset="1" stop-color="#6B01B9"/>
        </linearGradient>
        <clipPath id="socialWallFreeclip0">
            <rect width="32" height="32" fill="white" transform="translate(0.5)"/>
        </clipPath>
    </defs>
</svg>