<svg width="260" height="126" viewBox="0 0 260 126" fill="none" xmlns="http://www.w3.org/2000/svg">
    <g filter="url(#social1filter0_ddd)">
        <rect x="44.416" y="44.9111" width="42" height="42" rx="2.10303" transform="rotate(-5 44.416 44.9111)"
              fill="white"/>
        <path d="M66.2979 54.0796C60.8188 54.559 56.7273 59.4241 57.2092 64.933C57.645 69.914 61.6528 73.7292 66.48 74.0598L65.8699 67.0864L63.3395 67.3078L63.0868 64.4188L65.6171 64.1974L65.4245 61.9959C65.2057 59.4954 66.5698 57.9908 68.8511 57.7912C69.9369 57.6962 71.0892 57.7861 71.0892 57.7861L71.3044 60.2467L70.0492 60.3565C68.8139 60.4646 68.4925 61.2657 68.5614 62.0527L68.7252 63.9255L71.4947 63.6832L71.2991 66.6114L68.978 66.8145L69.5881 73.7878C71.9031 73.2117 73.9359 71.827 75.3195 69.8835C76.7031 67.9401 77.3464 65.566 77.1331 63.1899C76.6512 57.681 71.777 53.6003 66.2979 54.0796Z"
              fill="#006BFA"/>
    </g>
    <g filter="url(#social1filter1_ddd)">
        <rect x="83.0967" y="39.1279" width="42" height="42" rx="2.10303" transform="rotate(-3 83.0967 39.1279)"
              fill="white"/>
        <path d="M104.886 53.6171C101.89 53.7741 99.6299 56.3334 99.7844 59.2824C99.9414 62.2783 102.454 64.5406 105.45 64.3836C108.399 64.229 110.708 61.7141 110.551 58.7182C110.396 55.7691 107.835 53.4625 104.886 53.6171ZM105.352 62.5111C103.432 62.6117 101.76 61.1504 101.657 59.1843C101.556 57.2651 103.02 55.6394 104.986 55.5363C106.905 55.4357 108.531 56.8995 108.632 58.8188C108.735 60.7848 107.271 62.4105 105.352 62.5111ZM111.71 53.0717C111.673 52.3695 111.082 51.8372 110.38 51.874C109.678 51.9108 109.146 52.502 109.182 53.2041C109.219 53.9063 109.81 54.4386 110.512 54.4018C111.215 54.365 111.747 53.7738 111.71 53.0717ZM115.334 54.1491C115.152 52.4688 114.699 50.9905 113.418 49.8372C112.137 48.6839 110.62 48.3879 108.93 48.3826C107.193 48.3798 101.997 48.6521 100.27 48.8365C98.5894 49.0184 97.1579 49.469 95.9578 50.7523C94.8045 52.0331 94.5085 53.5507 94.5032 55.2408C94.5003 56.9777 94.7726 62.1737 94.957 63.9008C95.139 65.5811 95.5895 67.0126 96.8728 68.2127C98.2005 69.3635 99.6712 69.662 101.361 69.6673C103.098 69.6701 108.294 69.3978 110.021 69.2134C111.702 69.0315 113.18 68.5785 114.333 67.2976C115.484 65.97 115.783 64.4992 115.788 62.8091C115.791 61.0722 115.518 55.8762 115.334 54.1491ZM113.637 64.7525C113.358 65.7059 112.646 66.4473 111.776 66.8684C110.401 67.5037 107.117 67.535 105.619 67.6135C104.074 67.6945 100.805 68.0066 99.418 67.516C98.4621 67.1906 97.7232 66.5252 97.2996 65.6087C96.6667 64.2806 96.6354 60.9965 96.5545 59.4517C96.476 57.9538 96.1638 54.6844 96.652 53.2506C96.9798 52.3416 97.6452 51.6026 98.5618 51.1791C99.8899 50.5462 103.174 50.5149 104.719 50.4339C106.217 50.3554 109.486 50.0433 110.92 50.5314C111.826 50.8125 112.568 51.5247 112.989 52.3944C113.624 53.7693 113.656 57.0534 113.734 58.5514C113.815 60.0961 114.127 63.3655 113.637 64.7525Z"
              fill="url(#social1paint0_linear)"/>
    </g>
    <g filter="url(#social1filter2_ddd)">
        <rect x="122.913" y="35.2803" width="42" height="42" rx="2.10303" transform="rotate(2 122.913 35.2803)"
              fill="white"/>
        <path d="M153.831 51.3695C153.049 51.6924 152.211 51.8933 151.348 51.9732C152.246 51.4743 152.955 50.6585 153.31 49.6603C152.463 50.131 151.531 50.4487 150.555 50.6147C149.795 49.7277 148.704 49.1892 147.444 49.1453C145.096 49.0633 143.11 50.9151 143.027 53.2836C143.015 53.6234 143.044 53.9546 143.103 54.2669C139.551 53.9627 136.443 52.1432 134.425 49.4811C134.033 50.0978 133.797 50.83 133.77 51.6095C133.718 53.0986 134.421 54.444 135.555 55.234C134.845 55.2093 134.192 54.9863 133.623 54.6663L133.622 54.6963C133.55 56.775 134.968 58.5656 136.913 59.0238C136.278 59.1739 135.617 59.1748 134.982 59.0264C135.224 59.8878 135.729 60.6518 136.428 61.2111C137.126 61.7703 137.982 62.0966 138.875 62.1441C137.318 63.2909 135.417 63.8738 133.485 63.797C133.145 63.7851 132.806 63.7533 132.467 63.7014C134.323 64.987 136.557 65.7755 138.976 65.8599C146.851 66.1349 151.407 59.75 151.605 54.0835C151.611 53.8936 151.617 53.7137 151.614 53.5235C152.475 52.9531 153.221 52.2187 153.831 51.3695Z"
              fill="#1B90EF"/>
    </g>
    <g filter="url(#social1filter3_ddd)">
        <rect x="161.295" y="39.9297" width="42" height="42" rx="2.10303" transform="rotate(3 161.295 39.9297)"
              fill="white"/>
        <path d="M179.013 64.8913L184.352 62.167L179.327 58.8995L179.013 64.8913ZM190.966 57.677C191.072 58.1532 191.129 58.7871 191.147 59.5891C191.175 60.3917 191.169 61.0823 191.137 61.6815L191.153 62.5235C191.038 64.7105 190.794 66.3099 190.461 67.3238C190.164 68.2095 189.555 68.7583 188.643 68.9609C188.167 69.0661 187.303 69.111 185.982 69.1018C184.68 69.1037 183.49 69.0714 182.391 69.0138L180.8 68.9905C176.616 68.7712 174.018 68.4748 173.004 68.1413C172.119 67.8446 171.57 67.235 171.367 66.3231C171.262 65.847 171.205 65.2131 171.187 64.4111C171.159 63.6085 171.165 62.9179 171.196 62.3187L171.181 61.4767C171.295 59.2897 171.539 57.6903 171.873 56.6764C172.169 55.7907 172.779 55.2418 173.691 55.0393C174.167 54.9341 175.031 54.8892 176.352 54.8984C177.654 54.8965 178.844 54.9288 179.942 54.9864L181.533 55.0097C185.717 55.229 188.315 55.5254 189.329 55.8589C190.215 56.1556 190.764 56.7652 190.966 57.677Z"
              fill="#EB2121"/>
    </g>
    <defs>
        <filter id="social1filter0_ddd" x="30.7463" y="33.8904" width="72.8401" height="72.8401"
                filterUnits="userSpaceOnUse" color-interpolation-filters="sRGB">
            <feFlood flood-opacity="0" result="BackgroundImageFix"/>
            <feColorMatrix in="SourceAlpha" type="matrix" values="0 0 0 0 0 0 0 0 0 0 0 0 0 0 0 0 0 0 127 0"
                           result="hardAlpha"/>
            <feOffset dy="6.30909"/>
            <feGaussianBlur stdDeviation="6.83485"/>
            <feColorMatrix type="matrix" values="0 0 0 0 0 0 0 0 0 0 0 0 0 0 0 0 0 0 0.03 0"/>
            <feBlend mode="normal" in2="BackgroundImageFix" result="effect1_dropShadow"/>
            <feColorMatrix in="SourceAlpha" type="matrix" values="0 0 0 0 0 0 0 0 0 0 0 0 0 0 0 0 0 0 127 0"
                           result="hardAlpha"/>
            <feOffset dy="1.05151"/>
            <feGaussianBlur stdDeviation="1.05151"/>
            <feColorMatrix type="matrix" values="0 0 0 0 0 0 0 0 0 0 0 0 0 0 0 0 0 0 0.11 0"/>
            <feBlend mode="normal" in2="effect1_dropShadow" result="effect2_dropShadow"/>
            <feColorMatrix in="SourceAlpha" type="matrix" values="0 0 0 0 0 0 0 0 0 0 0 0 0 0 0 0 0 0 127 0"
                           result="hardAlpha"/>
            <feOffset dy="3.15454"/>
            <feGaussianBlur stdDeviation="3.15454"/>
            <feColorMatrix type="matrix" values="0 0 0 0 0 0 0 0 0 0 0 0 0 0 0 0 0 0 0.04 0"/>
            <feBlend mode="normal" in2="effect2_dropShadow" result="effect3_dropShadow"/>
            <feBlend mode="normal" in="SourceGraphic" in2="effect3_dropShadow" result="shape"/>
        </filter>
        <filter id="social1filter1_ddd" x="69.427" y="29.5691" width="71.4799" height="71.4799"
                filterUnits="userSpaceOnUse" color-interpolation-filters="sRGB">
            <feFlood flood-opacity="0" result="BackgroundImageFix"/>
            <feColorMatrix in="SourceAlpha" type="matrix" values="0 0 0 0 0 0 0 0 0 0 0 0 0 0 0 0 0 0 127 0"
                           result="hardAlpha"/>
            <feOffset dy="6.30909"/>
            <feGaussianBlur stdDeviation="6.83485"/>
            <feColorMatrix type="matrix" values="0 0 0 0 0 0 0 0 0 0 0 0 0 0 0 0 0 0 0.03 0"/>
            <feBlend mode="normal" in2="BackgroundImageFix" result="effect1_dropShadow"/>
            <feColorMatrix in="SourceAlpha" type="matrix" values="0 0 0 0 0 0 0 0 0 0 0 0 0 0 0 0 0 0 127 0"
                           result="hardAlpha"/>
            <feOffset dy="1.05151"/>
            <feGaussianBlur stdDeviation="1.05151"/>
            <feColorMatrix type="matrix" values="0 0 0 0 0 0 0 0 0 0 0 0 0 0 0 0 0 0 0.11 0"/>
            <feBlend mode="normal" in2="effect1_dropShadow" result="effect2_dropShadow"/>
            <feColorMatrix in="SourceAlpha" type="matrix" values="0 0 0 0 0 0 0 0 0 0 0 0 0 0 0 0 0 0 127 0"
                           result="hardAlpha"/>
            <feOffset dy="3.15454"/>
            <feGaussianBlur stdDeviation="3.15454"/>
            <feColorMatrix type="matrix" values="0 0 0 0 0 0 0 0 0 0 0 0 0 0 0 0 0 0 0.04 0"/>
            <feBlend mode="normal" in2="effect2_dropShadow" result="effect3_dropShadow"/>
            <feBlend mode="normal" in="SourceGraphic" in2="effect3_dropShadow" result="shape"/>
        </filter>
        <filter id="social1filter2_ddd" x="107.778" y="27.9197" width="70.7796" height="70.7796"
                filterUnits="userSpaceOnUse" color-interpolation-filters="sRGB">
            <feFlood flood-opacity="0" result="BackgroundImageFix"/>
            <feColorMatrix in="SourceAlpha" type="matrix" values="0 0 0 0 0 0 0 0 0 0 0 0 0 0 0 0 0 0 127 0"
                           result="hardAlpha"/>
            <feOffset dy="6.30909"/>
            <feGaussianBlur stdDeviation="6.83485"/>
            <feColorMatrix type="matrix" values="0 0 0 0 0 0 0 0 0 0 0 0 0 0 0 0 0 0 0.03 0"/>
            <feBlend mode="normal" in2="BackgroundImageFix" result="effect1_dropShadow"/>
            <feColorMatrix in="SourceAlpha" type="matrix" values="0 0 0 0 0 0 0 0 0 0 0 0 0 0 0 0 0 0 127 0"
                           result="hardAlpha"/>
            <feOffset dy="1.05151"/>
            <feGaussianBlur stdDeviation="1.05151"/>
            <feColorMatrix type="matrix" values="0 0 0 0 0 0 0 0 0 0 0 0 0 0 0 0 0 0 0.11 0"/>
            <feBlend mode="normal" in2="effect1_dropShadow" result="effect2_dropShadow"/>
            <feColorMatrix in="SourceAlpha" type="matrix" values="0 0 0 0 0 0 0 0 0 0 0 0 0 0 0 0 0 0 127 0"
                           result="hardAlpha"/>
            <feOffset dy="3.15454"/>
            <feGaussianBlur stdDeviation="3.15454"/>
            <feColorMatrix type="matrix" values="0 0 0 0 0 0 0 0 0 0 0 0 0 0 0 0 0 0 0.04 0"/>
            <feBlend mode="normal" in2="effect2_dropShadow" result="effect3_dropShadow"/>
            <feBlend mode="normal" in="SourceGraphic" in2="effect3_dropShadow" result="shape"/>
        </filter>
        <filter id="social1filter3_ddd" x="145.427" y="32.5691" width="71.4799" height="71.4799"
                filterUnits="userSpaceOnUse" color-interpolation-filters="sRGB">
            <feFlood flood-opacity="0" result="BackgroundImageFix"/>
            <feColorMatrix in="SourceAlpha" type="matrix" values="0 0 0 0 0 0 0 0 0 0 0 0 0 0 0 0 0 0 127 0"
                           result="hardAlpha"/>
            <feOffset dy="6.30909"/>
            <feGaussianBlur stdDeviation="6.83485"/>
            <feColorMatrix type="matrix" values="0 0 0 0 0 0 0 0 0 0 0 0 0 0 0 0 0 0 0.03 0"/>
            <feBlend mode="normal" in2="BackgroundImageFix" result="effect1_dropShadow"/>
            <feColorMatrix in="SourceAlpha" type="matrix" values="0 0 0 0 0 0 0 0 0 0 0 0 0 0 0 0 0 0 127 0"
                           result="hardAlpha"/>
            <feOffset dy="1.05151"/>
            <feGaussianBlur stdDeviation="1.05151"/>
            <feColorMatrix type="matrix" values="0 0 0 0 0 0 0 0 0 0 0 0 0 0 0 0 0 0 0.11 0"/>
            <feBlend mode="normal" in2="effect1_dropShadow" result="effect2_dropShadow"/>
            <feColorMatrix in="SourceAlpha" type="matrix" values="0 0 0 0 0 0 0 0 0 0 0 0 0 0 0 0 0 0 127 0"
                           result="hardAlpha"/>
            <feOffset dy="3.15454"/>
            <feGaussianBlur stdDeviation="3.15454"/>
            <feColorMatrix type="matrix" values="0 0 0 0 0 0 0 0 0 0 0 0 0 0 0 0 0 0 0.04 0"/>
            <feBlend mode="normal" in2="effect2_dropShadow" result="effect3_dropShadow"/>
            <feBlend mode="normal" in="SourceGraphic" in2="effect3_dropShadow" result="shape"/>
        </filter>
        <linearGradient id="social1paint0_linear" x1="103.683" y1="88.8048" x2="145.491" y2="41.4018"
                        gradientUnits="userSpaceOnUse">
            <stop stop-color="white"/>
            <stop offset="0.147864" stop-color="#F6640E"/>
            <stop offset="0.443974" stop-color="#BA03A7"/>
            <stop offset="0.733337" stop-color="#6A01B9"/>
            <stop offset="1" stop-color="#6B01B9"/>
        </linearGradient>
    </defs>
</svg>