<svg width="207" height="129" viewBox="0 0 207 129" fill="none">
    <path d="M96.6875 47.5C96.6875 42.1484 92.3516 37.8125 87 37.8125C81.6484 37.8125 77.3125 42.1484 77.3125 47.5C77.3125 52.3438 80.8281 56.3672 85.4766 57.0703V50.3125H83.0156V47.5H85.4766V45.3906C85.4766 42.9688 86.9219 41.6016 89.1094 41.6016C90.2031 41.6016 91.2969 41.7969 91.2969 41.7969V44.1797H90.0859C88.875 44.1797 88.4844 44.9219 88.4844 45.7031V47.5H91.1797L90.75 50.3125H88.4844V57.0703C93.1328 56.3672 96.6875 52.3438 96.6875 47.5Z"
          fill="#2A65DB"/>
    <path d="M128.695 42.3828C128.461 41.4453 127.719 40.7031 126.82 40.4688C125.141 40 118.5 40 118.5 40C118.5 40 111.82 40 110.141 40.4688C109.242 40.7031 108.5 41.4453 108.266 42.3828C107.797 46.0234 107.797 47.5391 107.797 47.5391C107.797 47.5391 107.797 51.0156 108.266 52.6953C108.5 53.6328 109.242 54.3359 110.141 54.5703C111.82 55 118.5 55 118.5 55C118.5 55 125.141 55 126.82 54.5703C127.719 54.3359 128.461 53.6328 128.695 52.6953C129.164 51.0156 129.164 47.5391 129.164 47.5391C129.164 47.5391 129.164 46.0234 128.695 42.3828ZM116.312 50.7031V44.375L121.859 47.5391L116.312 50.7031Z"
          fill="url(#paint0_linear_sclwl)"/>
    <path d="M86 78.0078C83.5 78.0078 81.5078 80.0391 81.5078 82.5C81.5078 85 83.5 86.9922 86 86.9922C88.4609 86.9922 90.4922 85 90.4922 82.5C90.4922 80.0391 88.4609 78.0078 86 78.0078ZM86 85.4297C84.3984 85.4297 83.0703 84.1406 83.0703 82.5C83.0703 80.8984 84.3594 79.6094 86 79.6094C87.6016 79.6094 88.8906 80.8984 88.8906 82.5C88.8906 84.1406 87.6016 85.4297 86 85.4297ZM91.7031 77.8516C91.7031 77.2656 91.2344 76.7969 90.6484 76.7969C90.0625 76.7969 89.5938 77.2656 89.5938 77.8516C89.5938 78.4375 90.0625 78.9062 90.6484 78.9062C91.2344 78.9062 91.7031 78.4375 91.7031 77.8516ZM94.6719 78.9062C94.5938 77.5 94.2812 76.25 93.2656 75.2344C92.25 74.2188 91 73.9062 89.5938 73.8281C88.1484 73.75 83.8125 73.75 82.3672 73.8281C80.9609 73.9062 79.75 74.2188 78.6953 75.2344C77.6797 76.25 77.3672 77.5 77.2891 78.9062C77.2109 80.3516 77.2109 84.6875 77.2891 86.1328C77.3672 87.5391 77.6797 88.75 78.6953 89.8047C79.75 90.8203 80.9609 91.1328 82.3672 91.2109C83.8125 91.2891 88.1484 91.2891 89.5938 91.2109C91 91.1328 92.25 90.8203 93.2656 89.8047C94.2812 88.75 94.5938 87.5391 94.6719 86.1328C94.75 84.6875 94.75 80.3516 94.6719 78.9062ZM92.7969 87.6562C92.5234 88.4375 91.8984 89.0234 91.1562 89.3359C89.9844 89.8047 87.25 89.6875 86 89.6875C84.7109 89.6875 81.9766 89.8047 80.8438 89.3359C80.0625 89.0234 79.4766 88.4375 79.1641 87.6562C78.6953 86.5234 78.8125 83.7891 78.8125 82.5C78.8125 81.25 78.6953 78.5156 79.1641 77.3438C79.4766 76.6016 80.0625 76.0156 80.8438 75.7031C81.9766 75.2344 84.7109 75.3516 86 75.3516C87.25 75.3516 89.9844 75.2344 91.1562 75.7031C91.8984 75.9766 92.4844 76.6016 92.7969 77.3438C93.2656 78.5156 93.1484 81.25 93.1484 82.5C93.1484 83.7891 93.2656 86.5234 92.7969 87.6562Z"
          fill="url(#paint1_linear_swwl)"/>
    <path d="M127.93 78.4375C128.711 77.8516 129.414 77.1484 129.961 76.3281C129.258 76.6406 128.438 76.875 127.617 76.9531C128.477 76.4453 129.102 75.6641 129.414 74.6875C128.633 75.1562 127.734 75.5078 126.836 75.7031C126.055 74.8828 125 74.4141 123.828 74.4141C121.562 74.4141 119.727 76.25 119.727 78.5156C119.727 78.8281 119.766 79.1406 119.844 79.4531C116.445 79.2578 113.398 77.6172 111.367 75.1562C111.016 75.7422 110.82 76.4453 110.82 77.2266C110.82 78.6328 111.523 79.8828 112.656 80.625C111.992 80.5859 111.328 80.4297 110.781 80.1172V80.1562C110.781 82.1484 112.188 83.7891 116.062 84.1797C113.75 84.2578 113.359 84.3359 113.008 84.3359C112.734 84.3359 112.5 84.2969 112.227 84.2578C112.734 85.8984 114.258 87.0703 116.055 87.1094C114.648 88.2031 112.891 88.8672 110.977 88.8672C110.625 88.8672 110.312 88.8281 110 88.7891C111.797 89.9609 113.945 90.625 116.289 90.625C123.828 90.625 127.93 84.4141 127.93 78.9844C127.93 78.7891 127.93 78.6328 127.93 78.4375Z"
          fill="url(#paint2_linear)"/>
    <defs>
        <linearGradient id="paint0_linear_sclwl" x1="137.667" y1="33.4445" x2="109.486" y2="62.2514"
                        gradientUnits="userSpaceOnUse">
            <stop stop-color="#E3280E"/>
            <stop offset="1" stop-color="#E30E0E"/>
        </linearGradient>
        <linearGradient id="paint1_linear_swwl" x1="93.8998" y1="73.3444" x2="78.4998" y2="89.4444"
                        gradientUnits="userSpaceOnUse">
            <stop stop-color="#5F0EE3"/>
            <stop offset="0.713476" stop-color="#FF0000"/>
            <stop offset="1" stop-color="#FF5C00"/>
        </linearGradient>
        <linearGradient id="paint2_linear" x1="136.667" y1="68.4445" x2="108.674" y2="93.3272"
                        gradientUnits="userSpaceOnUse">
            <stop stop-color="#0E96E3"/>
            <stop offset="1" stop-color="#0EBDE3"/>
        </linearGradient>
    </defs>
</svg>