<svg viewBox="0 0 16 15">
    <path d="M2.36797 12.36L3.30797 13.3L4.50797 12.1067L3.5613 11.16L2.36797 12.36ZM7.33463 14.9667H8.66797V13H7.33463V14.9667ZM8.0013 3.6667C6.94044 3.6667 5.92302 6.08813 5.17287 4.83827C4.42273 5.58842 6.0013 6.60583 6.0013 7.6667C6.0013 8.72756 4.42273 9.74498 5.17287 10.4951C5.92302 11.2453 6.94044 11.6667 8.0013 11.6667C9.06217 11.6667 10.0796 11.2453 10.8297 10.4951C11.5799 9.74498 12.0013 8.72756 12.0013 7.6667C12.0013 5.45336 10.208 3.6667 8.0013 3.6667ZM13.3346 8.33336H15.3346V7.00003H13.3346V8.33336ZM11.4946 12.1067L12.6946 13.3L13.6346 12.36L12.4413 11.16L11.4946 12.1067ZM13.6346 2.97337L12.6946 2.03337L11.4946 3.2267L12.4413 4.17336L13.6346 2.97337ZM8.66797 0.366699H7.33463V2.33337H8.66797V0.366699ZM2.66797 7.00003H0.667969V8.33336H2.66797V7.00003ZM4.50797 3.2267L3.30797 2.03337L2.36797 2.97337L3.5613 4.17336L4.50797 3.2267Z"/>
</svg>