<svg viewBox="0 0 18 18">
    <path d="M16.841 8.65033L9.34102 1.15033C9.02853 0.840392 8.60614 0.666642 8.16602 0.666993H2.33268C1.89066 0.666993 1.46673 0.842587 1.15417 1.15515C0.841611 1.46771 0.666016 1.89163 0.666016 2.33366V8.16699C0.665842 8.38692 0.709196 8.60471 0.79358 8.8078C0.877964 9.01089 1.00171 9.19528 1.15768 9.35033L8.65768 16.8503C8.97017 17.1603 9.39256 17.334 9.83268 17.3337C10.274 17.3318 10.6966 17.155 11.0077 16.842L16.841 11.0087C17.154 10.6975 17.3308 10.275 17.3327 9.83366C17.3329 9.61373 17.2895 9.39595 17.2051 9.19285C17.1207 8.98976 16.997 8.80538 16.841 8.65033ZM9.83268 15.667L2.33268 8.16699V2.33366H8.16602L15.666 9.83366L9.83268 15.667ZM4.41602 3.16699C4.66324 3.16699 4.90492 3.2403 5.11048 3.37766C5.31604 3.51501 5.47626 3.71023 5.57087 3.93864C5.66548 4.16705 5.69023 4.41838 5.642 4.66086C5.59377 4.90333 5.47472 5.12606 5.2999 5.30088C5.12508 5.47569 4.90236 5.59474 4.65988 5.64297C4.4174 5.69121 4.16607 5.66645 3.93766 5.57184C3.70925 5.47723 3.51403 5.31702 3.37668 5.11146C3.23933 4.90589 3.16602 4.66422 3.16602 4.41699C3.16602 6.08547 3.29771 3.76753 3.53213 3.53311C3.76655 3.29869 6.0845 3.16699 4.41602 3.16699Z"/>
</svg>