<svg width="260" height="126" viewBox="0 0 260 126" fill="none" xmlns="http://www.w3.org/2000/svg">
    <g clip-path="url(#taggedpostclip0)">
        <g filter="url(#taggedpostfilter0_ddd)">
            <g clip-path="url(#taggedpostclip1)">
                <rect x="104.316" y="29.0303" width="83.0697" height="84.1212" rx="2.10303"
                      transform="rotate(2 104.316 29.0303)" fill="white"/>
                <g clip-path="url(#taggedpostclip2)">
                    <path d="M104.063 23.0957L188.133 26.0315L185.418 103.796L101.348 100.86L104.063 23.0957Z"
                          fill="#59AB46"/>
                    <path d="M119.756 48.194L183.987 117.073L62.3516 112.826L119.756 48.194Z" fill="#76C064"/>
                </g>
                <path fill-rule="evenodd" clip-rule="evenodd"
                      d="M113.109 94.8001C114.187 94.6246 115.292 94.7726 116.286 95.2254C117.279 95.6782 118.116 96.4154 118.691 97.3439C119.265 98.2723 119.552 99.3503 119.513 100.441L119.485 101.259C119.467 101.783 119.241 102.278 118.858 102.635C118.474 102.993 117.964 103.183 117.441 103.165C116.917 103.147 116.422 102.921 116.064 102.538C115.997 102.466 115.937 102.391 115.882 102.311C115.342 102.804 114.63 103.067 113.899 103.041C113.158 103.016 112.458 102.697 111.953 102.155C111.447 101.613 111.178 100.892 111.204 100.151C111.23 99.4107 111.549 98.7106 112.091 98.2052C112.633 97.6998 113.353 97.4304 114.094 97.4562C114.834 97.4821 115.535 97.8011 116.04 98.3431C116.545 98.8851 116.815 99.6057 116.789 100.346L116.76 101.164C116.753 101.362 116.826 101.556 116.961 101.701C117.097 101.847 117.285 101.932 117.483 101.939C117.682 101.946 117.875 101.874 118.021 101.738C118.166 101.603 118.252 101.415 118.259 101.216L118.287 100.399C118.317 99.55 118.094 98.7115 117.647 97.9894C117.201 97.2673 116.55 96.6939 115.777 96.3417C115.004 95.9896 114.144 95.8745 113.306 96.011C112.468 96.1475 111.689 96.5295 111.068 97.1086C110.447 97.6878 110.012 98.4381 109.817 99.2647C109.622 100.091 109.677 100.957 109.975 101.752C110.272 102.548 110.799 103.237 111.488 103.733C112.177 104.23 112.998 104.51 113.846 104.54L113.847 104.54C114.6 104.567 115.347 104.395 116.011 104.04C116.31 103.881 116.682 103.994 116.841 104.293C117.001 104.591 116.888 104.963 116.589 105.123C115.733 105.579 114.772 105.801 113.803 105.766L113.825 105.153L113.804 105.766C113.803 105.766 113.803 105.766 113.803 105.766C112.712 105.728 111.657 105.367 110.771 104.729C109.885 104.091 109.208 103.205 108.825 102.182C108.443 101.159 108.373 100.046 108.623 98.9835C108.873 97.9208 109.433 96.956 110.231 96.2114C111.03 95.4668 112.031 94.9757 113.109 94.8001ZM115.563 100.304C115.577 99.888 115.426 99.4838 115.143 99.1798C114.859 98.8757 114.466 98.6967 114.051 98.6822C113.636 98.6677 113.231 98.8189 112.927 99.1024C112.623 99.3859 112.444 99.7786 112.43 100.194C112.415 100.61 112.566 101.014 112.85 101.318C113.133 101.622 113.526 101.801 113.942 101.815C114.357 101.83 114.761 101.679 115.065 101.395C115.369 101.112 115.548 100.719 115.563 100.304Z"
                      fill="#59AB46"/>
                <rect x="126.717" y="97.5381" width="30.4939" height="7.3606" rx="1.05151"
                      transform="rotate(2 126.717 97.5381)" fill="#B6DDAD"/>
            </g>
        </g>
        <g filter="url(#taggedpostfilter1_ddd)">
            <g clip-path="url(#taggedpostclip3)">
                <rect x="70.8867" y="10.8984" width="83.0697" height="84.1212" rx="2.10303"
                      transform="rotate(-2 70.8867 10.8984)" fill="white"/>
                <g clip-path="url(#taggedpostclip4)">
                    <path d="M70.2217 4.99609L154.292 2.06031L157.007 79.825L72.9373 82.7608L70.2217 4.99609Z"
                          fill="#43A6DB"/>
                    <circle cx="169.299" cy="72.169" r="48.8954" transform="rotate(-2 169.299 72.169)" fill="#0068A0"/>
                </g>
                <path fill-rule="evenodd" clip-rule="evenodd"
                      d="M84.2452 75.8962C85.308 75.646 86.4211 75.7165 87.4438 76.0989C88.4665 76.4813 89.3529 77.1583 89.9908 78.0444C90.6287 78.9305 90.9895 79.9859 91.0276 81.0771L91.0562 81.8944C91.0745 82.4183 90.8839 82.928 90.5264 83.3114C90.1689 83.6947 89.6738 83.9204 89.1499 83.9387C88.626 83.957 88.1163 83.7664 87.733 83.4089C87.6615 83.3423 87.5956 83.2709 87.5354 83.1954C87.0315 83.7253 86.3396 84.0368 85.6081 84.0623C84.8674 84.0882 84.1468 83.8188 83.6048 83.3134C83.0628 82.8079 82.7438 82.1079 82.7179 81.3673C82.6921 80.6266 82.9615 79.906 83.4669 79.364C83.9723 78.822 84.6724 78.503 85.413 78.4771C86.1537 78.4513 86.8742 78.7207 87.4162 79.2261C87.9583 79.7315 88.2773 80.4316 88.3031 81.1722L88.3317 81.9896C88.3386 82.1883 88.4242 82.3761 88.5696 82.5117C88.715 82.6473 88.9084 82.7196 89.1071 82.7126C89.3058 82.7057 89.4936 82.6201 89.6292 82.4747C89.7648 82.3293 89.8371 82.136 89.8301 81.9372L89.8016 81.1199C89.772 80.2712 89.4913 79.4504 88.9952 78.7612C88.499 78.072 87.8096 77.5454 87.0142 77.248C86.2188 76.9506 85.353 76.8957 84.5264 77.0904C83.6998 77.285 82.9495 77.7204 82.3703 78.3415C81.7912 78.9625 81.4092 79.7414 81.2727 80.5796C81.1362 81.4177 81.2513 82.2776 81.6034 83.0503C81.9556 83.8231 82.529 84.474 83.2511 84.9209C83.9733 85.3678 84.8117 85.5905 85.6604 85.5608L85.661 85.5608C86.4142 85.5352 87.147 85.3114 87.7851 84.9114C88.0721 84.7314 88.4506 84.8182 88.6306 85.1052C88.8105 85.3922 88.7237 85.7708 88.4367 85.9507C87.6149 86.466 86.6715 86.754 85.7026 86.7869L85.6818 86.1738L85.7032 86.7868C85.703 86.7868 85.7028 86.7869 85.7026 86.7869C84.6116 86.8248 83.5339 86.5385 82.6056 85.9641C81.6771 85.3895 80.9399 84.5526 80.4871 83.559C80.0344 82.5655 79.8864 81.46 80.0619 80.3824C80.2374 79.3047 80.7285 78.3033 81.4731 77.5048C82.2178 76.7063 83.1825 76.1465 84.2452 75.8962ZM87.0771 81.215C87.0626 80.7996 86.8836 80.4069 86.5796 80.1233C86.2755 79.8398 85.8713 79.6887 85.4558 79.7032C85.0403 79.7177 84.6476 79.8966 84.3641 80.2007C84.0806 80.5047 83.9294 80.909 83.944 81.3245C83.9585 81.7399 84.1374 82.1326 84.4415 82.4162C84.7455 82.6997 85.1498 82.8508 85.5652 82.8363C85.9807 82.8218 86.3734 82.6429 86.657 82.3388C86.9405 82.0348 87.0916 81.6305 87.0771 81.215Z"
                      fill="#0068A0"/>
                <rect x="98.0117" y="77.6768" width="30.4939" height="7.3606" rx="1.05151"
                      transform="rotate(-2 98.0117 77.6768)" fill="#86D0F9"/>
            </g>
        </g>
    </g>
    <defs>
        <filter id="taggedpostfilter0_ddd" x="87.7112" y="21.6697" width="113.294" height="114.308"
                filterUnits="userSpaceOnUse" color-interpolation-filters="sRGB">
            <feFlood flood-opacity="0" result="BackgroundImageFix"/>
            <feColorMatrix in="SourceAlpha" type="matrix" values="0 0 0 0 0 0 0 0 0 0 0 0 0 0 0 0 0 0 127 0"
                           result="hardAlpha"/>
            <feOffset dy="6.30909"/>
            <feGaussianBlur stdDeviation="6.83485"/>
            <feColorMatrix type="matrix" values="0 0 0 0 0 0 0 0 0 0 0 0 0 0 0 0 0 0 0.03 0"/>
            <feBlend mode="normal" in2="BackgroundImageFix" result="effect1_dropShadow"/>
            <feColorMatrix in="SourceAlpha" type="matrix" values="0 0 0 0 0 0 0 0 0 0 0 0 0 0 0 0 0 0 127 0"
                           result="hardAlpha"/>
            <feOffset dy="1.05151"/>
            <feGaussianBlur stdDeviation="1.05151"/>
            <feColorMatrix type="matrix" values="0 0 0 0 0 0 0 0 0 0 0 0 0 0 0 0 0 0 0.11 0"/>
            <feBlend mode="normal" in2="effect1_dropShadow" result="effect2_dropShadow"/>
            <feColorMatrix in="SourceAlpha" type="matrix" values="0 0 0 0 0 0 0 0 0 0 0 0 0 0 0 0 0 0 127 0"
                           result="hardAlpha"/>
            <feOffset dy="3.15454"/>
            <feGaussianBlur stdDeviation="3.15454"/>
            <feColorMatrix type="matrix" values="0 0 0 0 0 0 0 0 0 0 0 0 0 0 0 0 0 0 0.04 0"/>
            <feBlend mode="normal" in2="effect2_dropShadow" result="effect3_dropShadow"/>
            <feBlend mode="normal" in="SourceGraphic" in2="effect3_dropShadow" result="shape"/>
        </filter>
        <filter id="taggedpostfilter1_ddd" x="57.217" y="0.638418" width="113.294" height="114.308"
                filterUnits="userSpaceOnUse" color-interpolation-filters="sRGB">
            <feFlood flood-opacity="0" result="BackgroundImageFix"/>
            <feColorMatrix in="SourceAlpha" type="matrix" values="0 0 0 0 0 0 0 0 0 0 0 0 0 0 0 0 0 0 127 0"
                           result="hardAlpha"/>
            <feOffset dy="6.30909"/>
            <feGaussianBlur stdDeviation="6.83485"/>
            <feColorMatrix type="matrix" values="0 0 0 0 0 0 0 0 0 0 0 0 0 0 0 0 0 0 0.03 0"/>
            <feBlend mode="normal" in2="BackgroundImageFix" result="effect1_dropShadow"/>
            <feColorMatrix in="SourceAlpha" type="matrix" values="0 0 0 0 0 0 0 0 0 0 0 0 0 0 0 0 0 0 127 0"
                           result="hardAlpha"/>
            <feOffset dy="1.05151"/>
            <feGaussianBlur stdDeviation="1.05151"/>
            <feColorMatrix type="matrix" values="0 0 0 0 0 0 0 0 0 0 0 0 0 0 0 0 0 0 0.11 0"/>
            <feBlend mode="normal" in2="effect1_dropShadow" result="effect2_dropShadow"/>
            <feColorMatrix in="SourceAlpha" type="matrix" values="0 0 0 0 0 0 0 0 0 0 0 0 0 0 0 0 0 0 127 0"
                           result="hardAlpha"/>
            <feOffset dy="3.15454"/>
            <feGaussianBlur stdDeviation="3.15454"/>
            <feColorMatrix type="matrix" values="0 0 0 0 0 0 0 0 0 0 0 0 0 0 0 0 0 0 0.04 0"/>
            <feBlend mode="normal" in2="effect2_dropShadow" result="effect3_dropShadow"/>
            <feBlend mode="normal" in="SourceGraphic" in2="effect3_dropShadow" result="shape"/>
        </filter>
        <clipPath id="taggedpostclip0">
            <rect width="259.056" height="126" fill="white" transform="translate(0.111328)"/>
        </clipPath>
        <clipPath id="taggedpostclip1">
            <rect x="104.316" y="29.0303" width="83.0697" height="84.1212" rx="2.10303"
                  transform="rotate(2 104.316 29.0303)" fill="white"/>
        </clipPath>
        <clipPath id="taggedpostclip2">
            <path d="M104.187 19.5933C104.221 18.626 105.032 17.8692 106 17.903L186.567 20.7164C187.534 20.7502 188.291 21.5617 188.257 22.529L185.896 90.1353L101.826 87.1995L104.187 19.5933Z"
                  fill="white"/>
        </clipPath>
        <clipPath id="taggedpostclip3">
            <rect x="70.8867" y="10.8984" width="83.0697" height="84.1212" rx="2.10303"
                  transform="rotate(-2 70.8867 10.8984)" fill="white"/>
        </clipPath>
        <clipPath id="taggedpostclip4">
            <path d="M70.0983 1.49365C70.0645 0.526345 70.8213 -0.285196 71.7886 -0.318975L152.356 -3.13244C153.323 -3.16622 154.134 -2.40945 154.168 -1.44214L156.529 66.1641L72.4591 69.0999L70.0983 1.49365Z"
                  fill="white"/>
        </clipPath>
    </defs>
</svg>