<svg width="33" height="32" viewBox="0 0 33 32" fill="none" xmlns="http://www.w3.org/2000/svg">
    <g clip-path="url(#clip0tagged_506_22299)">
        <g filter="url(#filter0_taggedd_506_22299)">
            <rect x="3.33398" y="3" width="26.1602" height="26.1602" rx="2" fill="#0096CC"/>
        </g>
        <path fill-rule="evenodd" clip-rule="evenodd"
              d="M15.0171 9.37969C16.3265 9.11924 17.6837 9.25292 18.9171 9.76381C20.1505 10.2747 21.2047 11.1399 21.9464 12.2499C22.6881 13.3599 23.084 14.665 23.084 16V17C23.084 17.6409 22.8294 18.2556 22.3762 18.7088C21.923 19.1621 21.3083 19.4167 20.6673 19.4167C20.0264 19.4167 19.4117 19.1621 18.9585 18.7088C18.874 18.6244 18.7965 18.5343 18.7261 18.4395C18.0878 19.0655 17.229 19.4167 16.334 19.4167C15.4278 19.4167 14.5588 19.0567 13.918 18.4159C13.2773 17.7752 12.9173 16.9062 12.9173 16C12.9173 15.0938 13.2773 14.2248 13.918 13.584C14.5588 12.9433 15.4278 12.5833 16.334 12.5833C17.2401 12.5833 18.1092 12.9433 18.7499 13.584C19.3907 14.2248 19.7507 15.0938 19.7507 16V17C19.7507 17.2431 19.8472 17.4763 20.0191 17.6482C20.191 17.8201 20.4242 17.9167 20.6673 17.9167C20.9104 17.9167 21.1436 17.8201 21.3155 17.6482C21.4874 17.4763 21.584 17.2431 21.584 17V16C21.584 14.9616 21.2761 13.9466 20.6992 13.0833C20.1223 12.2199 19.3024 11.547 18.3431 11.1496C17.3838 10.7523 16.3282 10.6483 15.3098 10.8509C14.2914 11.0534 13.3559 11.5535 12.6217 12.2877C11.8875 13.0219 11.3874 13.9574 11.1849 14.9758C10.9823 15.9942 11.0863 17.0498 11.4836 18.0091C11.881 18.9684 12.5539 19.7883 13.4172 20.3652C14.2806 20.9421 15.2956 21.25 16.334 21.25L16.3347 21.25C17.2562 21.2509 18.1612 21.0087 18.958 20.547C19.3164 20.3394 19.7753 20.4616 19.9829 20.82C20.1906 21.1784 20.0684 21.6373 19.71 21.845C18.6837 22.4395 17.5187 22.7512 16.3332 22.75L16.334 22V22.75C16.3337 22.75 16.3335 22.75 16.3332 22.75C14.9985 22.7498 13.6937 22.354 12.5839 21.6124C11.4739 20.8707 10.6087 19.8165 10.0978 18.5831C9.58691 17.3497 9.45324 15.9925 9.71369 14.6831C9.97414 13.3738 10.617 12.171 11.561 11.227C12.505 10.283 13.7078 9.64015 15.0171 9.37969ZM18.2507 16C18.2507 15.4917 18.0487 15.0042 17.6893 14.6447C17.3298 14.2853 16.8423 14.0833 16.334 14.0833C15.8257 14.0833 15.3381 14.2853 14.9787 14.6447C14.6193 15.0042 14.4173 15.4917 14.4173 16C14.4173 16.5083 14.6193 16.9958 14.9787 17.3553C15.3381 17.7147 15.8257 17.9167 16.334 17.9167C16.8423 17.9167 17.3298 17.7147 17.6893 17.3553C18.0487 16.9958 18.2507 16.5083 18.2507 16Z"
              fill="white"/>
    </g>
    <defs>
        <filter id="filter0_taggedd_506_22299" x="-2.66602" y="0" width="38.1602" height="38.1602"
                filterUnits="userSpaceOnUse" color-interpolation-filters="sRGB">
            <feFlood flood-opacity="0" result="BackgroundImageFix"/>
            <feColorMatrix in="SourceAlpha" type="matrix" values="0 0 0 0 0 0 0 0 0 0 0 0 0 0 0 0 0 0 127 0"
                           result="hardAlpha"/>
            <feOffset dy="3"/>
            <feGaussianBlur stdDeviation="3"/>
            <feColorMatrix type="matrix" values="0 0 0 0 0 0 0 0 0 0 0 0 0 0 0 0 0 0 0.04 0"/>
            <feBlend mode="normal" in2="BackgroundImageFix" result="effect1_dropShadow_506_22299"/>
            <feBlend mode="normal" in="SourceGraphic" in2="effect1_dropShadow_506_22299" result="shape"/>
        </filter>
        <clipPath id="clip0tagged_506_22299">
            <rect width="32" height="32" fill="white" transform="translate(0.333984)"/>
        </clipPath>
    </defs>
</svg>