<svg viewBox="0 0 14 12">
    <path d="M12.332 11.3334H1.66536C1.31174 11.3334 0.972604 11.1929 0.722555 10.9429C0.472507 10.6928 0.332031 10.3537 0.332031 10.0001V2.00008C0.332031 1.64646 0.472507 1.30732 0.722555 1.05727C0.972604 0.807224 1.31174 0.666748 1.66536 0.666748H12.332C12.6857 0.666748 13.0248 0.807224 13.2748 1.05727C13.5249 1.30732 13.6654 1.64646 13.6654 2.00008V10.0001C13.6654 10.3537 13.5249 10.6928 13.2748 10.9429C13.0248 11.1929 12.6857 11.3334 12.332 11.3334ZM1.66536 2.00008V10.0001H12.332V2.00008H1.66536ZM2.9987 6.00008H10.9987V5.33341H2.9987V6.00008ZM2.9987 6.66675H9.66537V8.00008H2.9987V6.66675Z"/>
</svg>