<svg width="20" height="21" viewBox="0 0 20 21" fill="#0068A0" xmlns="http://www.w3.org/2000/svg">
    <path d="M9.1665 8H10.8332V6.33333H9.1665V8ZM9.99984 17.1667C6.32484 17.1667 3.33317 14.175 3.33317 10.5C3.33317 6.825 6.32484 3.83333 9.99984 3.83333C13.6748 3.83333 16.6665 6.825 16.6665 10.5C16.6665 14.175 13.6748 17.1667 9.99984 17.1667ZM9.99984 2.16666C8.90549 2.16666 7.82186 2.38221 6.81081 2.801C5.79976 3.21979 4.8811 3.83362 4.10728 4.60744C2.54448 6.17024 1.6665 8.28986 1.6665 10.5C1.6665 12.7101 2.54448 14.8298 4.10728 16.3926C4.8811 17.1664 5.79976 17.7802 6.81081 18.199C7.82186 18.6178 8.90549 18.8333 9.99984 18.8333C12.21 18.8333 14.3296 17.9554 15.8924 16.3926C17.4552 14.8298 18.3332 12.7101 18.3332 10.5C18.3332 9.40565 18.1176 8.32202 17.6988 7.31097C17.28 6.29992 16.6662 5.38126 15.8924 4.60744C15.1186 3.83362 14.1999 3.21979 13.1889 2.801C12.1778 2.38221 11.0942 2.16666 9.99984 2.16666ZM9.1665 14.6667H10.8332V9.66666H9.1665V14.6667Z"
          fill="#0068A0"/>
</svg>