<svg viewBox="0 0 14 12" fill="none">
    <path d="M13.9735 1.50001C13.4602 1.73334 12.9069 1.88667 12.3335 1.96001C12.9202 1.60667 13.3735 1.04667 13.5869 0.373338C13.0335 0.706672 12.4202 0.940005 11.7735 1.07334C11.2469 0.500005 10.5069 0.166672 9.66686 0.166672C8.10019 0.166672 6.82019 1.44667 6.82019 3.02667C6.82019 3.25334 6.84686 3.47334 6.89352 3.68001C4.52019 3.56001 2.40686 2.42 1.00019 0.693338C0.753522 1.11334 0.613522 1.60667 0.613522 2.12667C0.613522 3.12 1.11352 4 1.88686 4.5C1.41352 4.5 0.973522 4.36667 0.586856 4.16667V4.18667C0.586856 5.57334 1.57352 6.73334 2.88019 6.99334C2.46067 7.10814 2.02025 7.12412 1.59352 7.04C1.77459 7.60832 2.12921 8.10561 2.60753 8.46196C3.08585 8.81831 3.66382 9.0158 4.26019 9.02667C3.24928 9.82696 1.99619 10.2595 0.706855 10.2533C0.480189 10.2533 0.253522 10.24 0.0268555 10.2133C1.29352 11.0267 2.80019 11.5 4.41352 11.5C9.66686 11.5 12.5535 7.14 12.5535 3.36C12.5535 3.23334 12.5535 3.11334 12.5469 2.98667C13.1069 2.58667 13.5869 2.08 13.9735 1.50001Z"/>
</svg>