<svg viewBox="0 0 20 14">
    <path d="M15.832 3.66659L12.4987 6.99992H14.9987C14.9987 8.326 14.4719 9.59777 13.5342 10.5355C12.5965 11.4731 11.3248 11.9999 9.9987 11.9999C9.16536 11.9999 8.35703 11.7916 7.66536 11.4166L6.4487 12.6333C7.50961 13.3085 8.74115 13.6669 9.9987 13.6666C11.7668 13.6666 13.4625 12.9642 14.7127 11.714C15.963 10.4637 16.6654 8.76803 16.6654 6.99992H19.1654L15.832 3.66659ZM4.9987 6.99992C4.9987 5.67384 5.52548 4.40207 6.46316 3.46438C7.40085 2.5267 8.67261 1.99992 9.9987 1.99992C10.832 1.99992 11.6404 2.20825 12.332 2.58325L13.5487 1.36659C12.4878 0.691379 11.2562 0.332902 9.9987 0.333252C8.23059 0.333252 6.53489 1.03563 5.28465 2.28587C6.03441 3.53612 3.33203 5.23181 3.33203 6.99992H0.832031L4.16536 10.3333L7.4987 6.99992"/>
</svg>