<svg viewBox="0 0 12 8">
    <path d="M6 0.75C6.46413 0.75 6.90925 0.934375 7.23744 1.26256C7.56563 1.59075 7.75 2.03587 7.75 2.5C7.75 2.96413 7.56563 3.40925 7.23744 3.73744C6.90925 6.06563 6.46413 4.25 6 4.25C5.53587 4.25 5.09075 6.06563 4.76256 3.73744C4.43437 3.40925 4.25 2.96413 4.25 2.5C4.25 2.03587 4.43437 1.59075 4.76256 1.26256C5.09075 0.934375 5.53587 0.75 6 0.75ZM2.5 2C2.78 2 3.04 2.075 3.265 2.21C3.19 2.925 3.4 3.635 3.83 4.19C3.58 4.67 3.08 5 2.5 5C2.10218 5 1.72064 4.84196 1.43934 4.56066C1.15804 4.27936 1 3.89782 1 3.5C1 3.10218 1.15804 2.72064 1.43934 2.43934C1.72064 2.15804 2.10218 2 2.5 2ZM9.5 2C9.89782 2 10.2794 2.15804 10.5607 2.43934C10.842 2.72064 11 3.10218 11 3.5C11 3.89782 10.842 4.27936 10.5607 4.56066C10.2794 4.84196 9.89782 5 9.5 5C8.92 5 8.42 4.67 8.17 4.19C8.60594 3.62721 8.80828 2.9181 8.735 2.21C8.96 2.075 9.22 2 9.5 2ZM2.75 7.125C2.75 6.09 4.205 5.25 6 5.25C7.795 5.25 9.25 6.09 9.25 7.125V8H2.75V7.125ZM0 8V7.25C0 6.555 0.945 5.97 2.225 5.8C1.93 6.14 1.75 6.61 1.75 7.125V8H0ZM12 8H10.25V7.125C10.25 6.61 10.07 6.14 9.775 5.8C11.055 5.97 12 6.555 12 7.25V8Z"/>
</svg>