<svg viewBox="0 0 11 9">
    <path d="M9.55 4.25L10.25 4.955L6.985 8.25L5.25 6.5L5.95 5.795L6.985 6.835L9.55 4.25ZM4 6.5L5.5 8H0.5V7C0.5 5.895 2.29 5 4.5 5L5.445 5.055L4 6.5ZM4.5 0C5.03043 0 5.53914 0.210714 5.91421 0.585786C6.28929 0.960859 6.5 1.46957 6.5 2C6.5 2.53043 6.28929 3.03914 5.91421 3.41421C5.53914 3.78929 5.03043 4 4.5 4C3.96957 4 3.46086 3.78929 3.08579 3.41421C2.71071 3.03914 2.5 2.53043 2.5 2C2.5 1.46957 2.71071 0.960859 3.08579 0.585786C3.46086 0.210714 3.96957 0 4.5 0Z"/>
</svg>