<svg viewBox="0 0 14 11" fill="none">
    <path d="M5.66683 7.5L9.12683 5.5L5.66683 3.5V7.5ZM13.3735 2.28C13.4602 2.59334 13.5202 3.01334 13.5602 3.54667C13.6068 4.08 13.6268 4.54 13.6268 4.94L13.6668 5.5C13.6668 6.96 13.5602 8.03334 13.3735 8.72C13.2068 9.32 12.8202 9.70667 12.2202 9.87334C11.9068 9.96 11.3335 10.02 10.4535 10.06C9.58683 10.1067 8.7935 10.1267 8.06016 10.1267L7.00016 10.1667C4.20683 10.1667 2.46683 10.06 1.78016 9.87334C1.18016 9.70667 0.793496 9.32 0.626829 8.72C0.540163 8.40667 0.480163 7.98667 0.440163 7.45334C0.393496 6.92 0.373496 6.46 0.373496 6.06L0.333496 5.5C0.333496 4.04 0.440163 2.96667 0.626829 2.28C0.793496 1.68 1.18016 1.29334 1.78016 1.12667C2.0935 1.04 2.66683 0.980002 3.54683 0.940002C4.4135 0.893336 5.20683 0.873336 5.94016 0.873336L7.00016 0.833336C9.7935 0.833336 11.5335 0.940003 12.2202 1.12667C12.8202 1.29334 13.2068 1.68 13.3735 2.28Z"/>
</svg>