<svg width="286" height="68" viewBox="0 0 286 68" fill="none" xmlns="http://www.w3.org/2000/svg">
<path d="M67.5155 33.7577C67.5155 52.4016 52.4016 67.5155 33.7577 67.5155C15.1139 67.5155 0 52.4016 0 33.7577C0 15.1139 15.1139 0 33.7577 0C52.4016 0 67.5155 15.1139 67.5155 33.7577Z" fill="#708090"/>
<path fill-rule="evenodd" clip-rule="evenodd" d="M33.7577 66.847C52.0324 66.847 66.847 52.0324 66.847 33.7577C66.847 15.483 52.0324 0.66847 33.7577 0.66847C15.483 0.66847 0.66847 15.483 0.66847 33.7577C0.66847 52.0324 15.483 66.847 33.7577 66.847ZM33.7577 67.5155C52.4016 67.5155 67.5155 52.4016 67.5155 33.7577C67.5155 15.1139 52.4016 0 33.7577 0C15.1139 0 0 15.1139 0 33.7577C0 52.4016 15.1139 67.5155 33.7577 67.5155Z" fill="#E47C20"/>
<path d="M58.1569 33.7577C58.1569 47.233 47.233 58.1569 33.7577 58.1569C20.2825 58.1569 9.35858 47.233 9.35858 33.7577C9.35858 20.2825 20.2825 9.35858 33.7577 9.35858C47.233 9.35858 58.1569 20.2825 58.1569 33.7577Z" fill="#0E346D"/>
<path fill-rule="evenodd" clip-rule="evenodd" d="M58.8254 33.7577C58.8254 47.6022 47.6022 58.8254 33.7577 58.8254C19.9133 58.8254 8.69012 47.6022 8.69012 33.7577C8.69012 19.9133 19.9133 8.69012 33.7577 8.69012C47.6022 8.69012 58.8254 19.9133 58.8254 33.7577ZM33.7577 58.1569C47.233 58.1569 58.1569 47.233 58.1569 33.7577C58.1569 20.2825 47.233 9.35859 33.7577 9.35859C20.2825 9.35859 9.35859 20.2825 9.35859 33.7577C9.35859 47.233 20.2825 58.1569 33.7577 58.1569Z" fill="#E47C20"/>
<path d="M45.444 28.0588C46.5833 28.0588 47.5551 28.2568 48.3594 28.6528V31.4494L48.3411 31.4677C47.9999 30.9437 47.281 30.5964 46.1842 30.4258C45.8613 30.371 45.4531 30.3436 44.9596 30.3436C44.4661 30.3436 43.9817 30.438 43.5064 30.6269C43.0312 30.8097 42.6413 31.0717 42.3366 31.4129C41.7456 32.077 41.4501 33.0244 41.4501 34.2552C41.4501 35.687 41.8248 36.7532 42.5742 37.4539C43.1957 38.0388 44.0182 38.3313 45.0418 38.3313C46.1995 38.3313 47.1378 38.0845 47.8567 37.591C48.1187 37.4143 48.3411 37.195 48.5239 36.933L48.5513 36.9513V39.5102C47.6191 40.284 46.364 40.6709 44.7859 40.6709C42.9276 40.6709 41.4714 40.0799 40.4174 38.8979C39.406 37.7707 38.9003 36.278 38.9003 34.4197C38.9003 32.4517 39.4547 30.9011 40.5636 29.7678C41.6847 28.6285 43.3115 28.0588 45.444 28.0588Z" fill="white"/>
<path d="M30.2619 40.4973C29.9694 40.4607 29.4058 40.4424 28.5711 40.4424H27.84V28.2507C28.2299 28.2751 28.6595 28.2873 29.1286 28.2873C29.5977 28.2873 29.9298 28.2629 30.1248 28.2141L33.1956 33.4326L36.1475 28.2141C36.3425 28.2629 36.7142 28.2873 37.2625 28.2873C37.8109 28.2873 38.28 28.2751 38.67 28.2507V40.4424H37.9388C37.1041 40.4424 36.5405 40.4607 36.2481 40.4973V32.3085L33.2595 37.655L30.2619 32.7381V40.4973Z" fill="white"/>
<path d="M26.4033 38.249C26.781 38.249 27.043 38.2125 27.1892 38.1394L27.2258 38.1485L27.1344 40.4424H20.2891V28.2233C20.4536 28.2355 20.6364 28.2446 20.8375 28.2507L21.4772 28.269C21.9037 28.2812 22.3668 28.2873 22.8664 28.2873C24.2616 28.2873 25.6417 28.2629 27.0065 28.2141C26.9394 28.7503 26.9059 29.4662 26.9059 30.3619C26.9059 30.4593 26.912 30.5325 26.9242 30.5812L26.9059 30.6086C26.5891 30.5172 26.1382 30.4715 25.5533 30.4715H22.6745V32.802H24.8405C25.5107 32.802 25.9128 32.7838 26.0468 32.7472L26.0743 35.0046C25.7818 34.9741 25.4041 34.9589 24.941 34.9589H22.6745V38.249H26.4033Z" fill="white"/>
<path fill-rule="evenodd" clip-rule="evenodd" d="M48.6936 28.4448V31.5879L48.2859 31.9955L48.061 31.6501C47.7999 31.2491 47.2037 30.9227 46.1328 30.7561L46.1282 30.7554C45.8306 30.7048 45.4427 30.6778 44.9595 30.6778C44.5098 30.6778 44.0673 30.7636 43.6299 30.9375L43.6264 30.9389C43.1951 31.1048 42.8513 31.3382 42.5859 31.6355C42.0674 32.2183 41.7843 33.0751 41.7843 34.2552C41.7843 35.632 42.1439 36.594 42.8025 37.2097L42.8033 37.2105C43.3508 37.7258 44.0853 37.997 45.0418 37.997C46.1537 37.997 47.0198 37.76 47.6675 37.3154L47.6698 37.3139C47.8973 37.1604 48.0902 36.9703 48.2497 36.7417L48.437 36.4733L48.8855 36.7724V39.6672L48.7647 39.7674C47.7564 40.6044 46.418 41.0051 44.7859 41.0051C42.8507 41.0051 41.2969 40.3861 40.1683 39.1209C39.3667 38.2274 38.8713 37.1255 38.6699 35.8294V32.9967C38.8841 31.6079 39.4307 30.4477 40.3247 29.534L40.3253 29.5334C41.5281 28.311 43.2528 27.7245 45.4439 27.7245C46.621 27.7245 47.6461 27.929 48.507 28.353L48.6936 28.4448ZM40.4173 38.8979C41.4714 40.0799 42.9276 40.6709 44.7859 40.6709C46.3639 40.6709 47.6191 40.284 48.5513 39.5102V36.9512L48.5239 36.933C48.5238 36.933 48.5239 36.9329 48.5239 36.933C48.5196 36.9391 48.5153 36.9452 48.511 36.9512C48.4222 37.0763 48.3242 37.1915 48.217 37.2968C48.1066 37.4054 47.9865 37.5034 47.8567 37.591C47.1377 38.0845 46.1994 38.3313 45.0418 38.3313C44.0182 38.3313 43.1957 38.0388 42.5742 37.4539C41.8248 36.7532 41.4501 35.687 41.4501 34.2552C41.4501 33.0244 41.7456 32.077 42.3366 31.4129C42.6412 31.0717 43.0312 30.8097 43.5064 30.6269C43.9816 30.438 44.466 30.3436 44.9595 30.3436C45.4531 30.3436 45.8613 30.371 46.1842 30.4258C47.0142 30.5549 47.6278 30.7852 48.0251 31.1168C48.1041 31.1826 48.1745 31.2525 48.2363 31.3264C48.2697 31.3663 48.3006 31.4073 48.329 31.4494C48.333 31.4555 48.3371 31.4616 48.3411 31.4677L48.3593 31.4494V28.6528C47.5551 28.2568 46.5833 28.0588 45.4439 28.0588C43.3114 28.0588 41.6847 28.6284 40.5636 29.7678C39.4547 30.9011 38.9002 32.4517 38.9002 34.4197C38.9002 36.278 39.4059 37.7707 40.4173 38.8979Z" fill="#E47C20"/>
<path fill-rule="evenodd" clip-rule="evenodd" d="M30.5961 40.8759L30.2204 40.8289C29.9517 40.7953 29.4084 40.7767 28.5711 40.7767H27.5057V27.8949L27.8608 27.9171C28.2426 27.941 28.6651 27.953 29.1286 27.953C29.5969 27.953 29.8924 27.9277 30.0437 27.8899L30.2861 27.8293L33.1899 32.7639L35.9819 27.8282L36.2286 27.8899C36.378 27.9272 36.71 27.953 37.2625 27.953C37.8065 27.953 38.2683 27.9409 38.6491 27.9171L39.0042 27.8949V33.0221C38.9349 33.4619 38.9003 33.9278 38.9003 34.4197C38.9003 34.906 38.9349 35.3674 39.0042 35.8037V40.7767H37.9388C37.1015 40.7767 36.5582 40.7953 36.2895 40.8289L35.9138 40.8759V33.5915L33.2721 38.3176L30.5961 33.9284V40.8759ZM30.2619 32.7381V40.4973C30.1746 40.4864 30.0632 40.4771 29.9276 40.4694C29.6089 40.4514 29.1567 40.4424 28.5711 40.4424H27.84V28.2507C27.9483 28.2575 28.0597 28.2633 28.1742 28.2682C28.4717 28.2809 28.7898 28.2872 29.1286 28.2872C29.5978 28.2872 29.9298 28.2629 30.1248 28.2141L33.1956 33.4326L36.1475 28.2141C36.3425 28.2629 36.7142 28.2872 37.2625 28.2872C37.6624 28.2872 38.0201 28.2808 38.3357 28.2678C38.453 28.263 38.5644 28.2573 38.67 28.2507V40.4424H37.9388C37.3532 40.4424 36.901 40.4514 36.5823 40.4694C36.4468 40.4771 36.3353 40.4864 36.2481 40.4973V32.3085L33.2595 37.655L30.2619 32.7381Z" fill="#E47C20"/>
<path fill-rule="evenodd" clip-rule="evenodd" d="M27.1504 37.7851L27.5706 37.8902L27.4556 40.7767H19.9549V27.8634L20.3138 27.89C20.4725 27.9017 20.6503 27.9106 20.8474 27.9166C20.8473 27.9166 20.8475 27.9166 20.8474 27.9166L21.4868 27.9349C21.9096 27.947 22.3694 27.953 22.8664 27.953C24.2578 27.953 25.6338 27.9287 26.9945 27.8801L27.3868 27.8661L27.3381 28.2556C27.2736 28.772 27.2402 29.4723 27.2402 30.3619C27.2402 30.4041 27.2415 30.4372 27.2436 30.4621C27.2446 30.4744 27.2457 30.4837 27.2468 30.4905C27.2478 30.4973 27.2485 30.5002 27.2485 30.5001L27.2843 30.6436L27.0483 30.9976L26.8133 30.9298C26.5413 30.8513 26.1271 30.8058 25.5533 30.8058H23.0087V32.4678H24.8405C25.1734 32.4678 25.4357 32.4633 25.6295 32.4544C25.7265 32.45 25.8035 32.4447 25.862 32.4387C25.8912 32.4357 25.9141 32.4327 25.9315 32.43C25.9401 32.4286 25.9467 32.4274 25.9516 32.4264L25.9571 32.4252C25.9584 32.4249 25.9589 32.4247 25.9589 32.4247L26.3758 32.311L26.413 35.3759L26.0396 35.337C25.7633 35.3082 25.3982 35.2931 24.941 35.2931H23.0087V37.9148H26.4033C26.7802 37.9148 26.9705 37.875 27.0398 37.8404L27.1504 37.7851ZM22.6745 38.249V34.9589H24.941C25.2437 34.9589 25.5099 34.9654 25.7397 34.9784C25.8614 34.9853 25.973 34.994 26.0743 35.0046L26.0468 32.7472C25.9877 32.7633 25.8765 32.7759 25.713 32.7849C25.5059 32.7963 25.2151 32.802 24.8405 32.802H22.6745V30.4715H25.5533C25.9602 30.4715 26.3022 30.4936 26.5793 30.5379C26.6828 30.5544 26.7772 30.574 26.8626 30.5966C26.8773 30.6005 26.8917 30.6045 26.9059 30.6086L26.9242 30.5812C26.9226 30.5748 26.9211 30.568 26.9197 30.5608C26.9105 30.5129 26.9059 30.4466 26.9059 30.3619C26.9059 30.3286 26.906 30.2955 26.9061 30.2627C26.908 29.586 26.9296 29.0151 26.9709 28.5498C26.9815 28.4311 26.9933 28.3192 27.0065 28.2141C26.8939 28.2182 26.7812 28.222 26.6684 28.2257C25.4139 28.2667 24.1465 28.2873 22.8664 28.2873C22.3668 28.2873 21.9037 28.2812 21.4772 28.269L20.8375 28.2507C20.7636 28.2485 20.6923 28.2458 20.6234 28.2428C20.5046 28.2375 20.3932 28.231 20.2891 28.2233V40.4424H27.1344L27.2258 38.1485L27.1893 38.1394C27.1844 38.1418 27.1795 38.1441 27.1745 38.1464C27.1036 38.179 27.0083 38.2038 26.8884 38.2209C26.7564 38.2396 26.5947 38.249 26.4033 38.249H22.6745Z" fill="#E47C20"/>
<path d="M84.928 44.24C84.256 44.24 83.592 44.16 82.936 44C82.28 43.824 81.696 43.616 81.184 43.376C80.672 43.12 80.288 42.864 80.032 42.608L81.304 40.328C81.48 40.472 81.752 40.664 82.12 40.904C82.504 41.128 82.944 41.328 83.44 41.504C83.936 41.68 84.432 41.768 84.928 41.768C85.744 41.768 86.424 41.576 86.968 41.192C87.528 40.808 87.808 40.248 87.808 39.512C87.808 38.904 87.648 38.4 87.328 38C87.008 37.6 86.584 37.248 86.056 36.944C85.544 36.64 84.984 36.352 84.376 36.08C83.784 35.792 83.216 35.472 82.672 35.12C82.048 34.704 81.504 34.152 81.04 33.464C80.576 32.776 80.344 31.888 80.344 30.8C80.344 29.728 80.584 28.848 81.064 28.16C81.56 27.472 82.208 26.96 83.008 26.624C83.824 26.272 84.712 26.096 85.672 26.096C86.44 26.096 87.096 26.176 87.64 26.336C88.184 26.496 88.64 26.688 89.008 26.912C89.376 27.136 89.664 27.336 89.872 27.512L88.6 29.696C88.328 29.408 87.92 29.144 87.376 28.904C86.832 28.648 86.224 28.52 85.552 28.52C84.768 28.52 84.144 28.704 83.68 29.072C83.216 29.424 82.984 29.952 82.984 30.656C82.984 31.28 83.192 31.816 83.608 32.264C84.024 32.696 84.552 33.096 85.192 33.464C85.848 33.816 86.52 34.176 87.208 34.544C87.896 34.912 88.504 35.344 89.032 35.84C89.464 36.224 89.832 36.704 90.136 37.28C90.44 37.856 90.592 38.504 90.592 39.224C90.592 40.312 90.336 41.232 89.824 41.984C89.328 42.736 88.656 43.304 87.808 43.688C86.96 44.056 86 44.24 84.928 44.24ZM96.9156 44.24C95.8436 44.24 94.8676 44.008 93.9876 43.544C93.1236 43.08 92.4276 42.408 91.8996 41.528C91.3876 40.648 91.1316 39.592 91.1316 38.36C91.1316 37.208 91.3636 36.208 91.8276 35.36C92.3076 34.512 92.9716 33.856 93.8196 33.392C94.6836 32.928 95.6756 32.696 96.7956 32.696C97.7236 32.696 98.4836 32.816 99.0756 33.056C99.6836 33.296 100.14 33.552 100.444 33.824L99.2916 35.912C99.2276 35.832 99.0996 35.712 98.9076 35.552C98.7156 35.392 98.4596 35.248 98.1396 35.12C97.8356 34.976 97.4596 34.904 97.0116 34.904C95.9556 34.904 95.1636 35.224 94.6356 35.864C94.1236 36.504 93.8676 37.328 93.8676 38.336C93.8676 39.504 94.1396 40.424 94.6836 41.096C95.2436 41.752 96.0196 42.08 97.0116 42.08C97.5396 42.08 98.0356 42.008 98.4996 41.864C98.9636 41.704 99.3156 41.536 99.5556 41.36L100.492 43.184C100.204 43.408 99.7476 43.64 99.1236 43.88C98.4996 44.12 97.7636 44.24 96.9156 44.24ZM101.546 44V26.36H104.066V32.984L103.97 35.024C104.258 34.368 104.73 33.816 105.386 33.368C106.058 32.92 106.858 32.696 107.786 32.696C108.97 32.696 109.858 32.944 110.45 33.44C111.042 33.92 111.434 34.608 111.626 35.504C111.834 36.4 111.938 37.464 111.938 38.696V44H109.37V38.672C109.37 37.392 109.242 36.44 108.986 35.816C108.73 35.192 108.146 34.88 107.234 34.88C106.786 34.88 106.314 35.024 105.818 35.312C105.338 35.584 104.93 35.992 104.594 36.536C104.258 37.064 104.09 37.728 104.09 38.528V44H101.546ZM118.787 44.24C117.411 44.24 116.291 43.976 115.427 43.448C114.563 42.904 113.931 42.192 113.531 41.312C113.131 40.432 112.931 39.496 112.931 38.504C112.931 37.304 113.171 36.272 113.651 35.408C114.147 34.544 114.827 33.88 115.691 33.416C116.555 32.936 117.531 32.696 118.619 32.696C120.363 32.696 121.635 33.184 122.435 34.16C123.235 35.12 123.635 36.416 123.635 38.048C123.635 38.48 123.611 38.928 123.563 39.392H115.643C115.819 40.384 116.171 41.096 116.699 41.528C117.243 41.944 117.963 42.152 118.859 42.152C119.723 42.152 120.403 42.072 120.899 41.912C121.395 41.752 121.803 41.592 122.123 41.432L122.915 43.28C122.595 43.488 122.099 43.704 121.427 43.928C120.755 44.136 119.875 44.24 118.787 44.24ZM115.643 37.592H121.115C121.131 36.552 120.899 35.84 120.419 35.456C119.939 35.072 119.315 34.88 118.547 34.88C117.747 34.88 117.091 35.096 116.579 35.528C116.083 35.944 115.771 36.632 115.643 37.592ZM129.785 44.24C128.809 44.24 127.897 44.008 127.049 43.544C126.217 43.08 125.545 42.416 125.033 41.552C124.521 40.688 124.265 39.656 124.265 38.456C124.265 37.288 124.481 36.28 124.913 35.432C125.361 34.568 125.985 33.896 126.785 33.416C127.601 32.936 128.569 32.696 129.689 32.696C130.329 32.696 130.929 32.808 131.489 33.032C132.049 33.24 132.529 33.52 132.929 33.872C133.329 34.224 133.617 34.608 133.793 35.024L133.673 33.152V26.36H136.217V44H133.745L133.697 42.056C133.537 42.408 133.265 42.752 132.881 43.088C132.513 43.424 132.065 43.704 131.537 43.928C131.009 44.136 130.425 44.24 129.785 44.24ZM130.217 42.056C130.809 42.056 131.345 41.92 131.825 41.648C132.321 41.36 132.713 40.96 133.001 40.448C133.305 39.936 133.457 39.328 133.457 38.624V38.456C133.457 37.736 133.305 37.112 133.001 36.584C132.713 36.04 132.321 35.624 131.825 35.336C131.345 35.032 130.809 34.88 130.217 34.88C129.145 34.88 128.337 35.224 127.793 35.912C127.265 36.6 127.001 37.448 127.001 38.456C127.001 39.48 127.265 40.336 127.793 41.024C128.337 41.712 129.145 42.056 130.217 42.056ZM141.797 44.24C140.693 44.24 139.853 44.008 139.277 43.544C138.701 43.08 138.309 42.464 138.101 41.696C137.909 40.928 137.813 40.08 137.813 39.152V32.984H140.405V38.504C140.405 39.352 140.453 40.04 140.549 40.568C140.661 41.096 140.869 41.488 141.173 41.744C141.493 41.984 141.965 42.104 142.589 42.104C143.037 42.104 143.461 41.984 143.861 41.744C144.277 41.488 144.621 41.144 144.893 40.712C145.165 40.264 145.301 39.768 145.301 39.224V32.984H147.869V44H145.757L145.469 42.392C145.069 43 144.573 43.464 143.981 43.784C143.389 44.088 142.661 44.24 141.797 44.24ZM149.553 44V26.36H152.121V44H149.553ZM153.996 44V32.984H156.684V44H153.996ZM155.34 30.92C154.844 30.92 154.428 30.752 154.092 30.416C153.772 30.08 153.612 29.664 153.612 29.168C153.612 28.72 153.772 28.336 154.092 28.016C154.428 27.696 154.844 27.536 155.34 27.536C155.836 27.536 156.244 27.696 156.564 28.016C156.9 28.336 157.068 28.72 157.068 29.168C157.068 29.664 156.9 30.08 156.564 30.416C156.244 30.752 155.836 30.92 155.34 30.92ZM158.317 44V32.984H160.861L160.885 35C161.173 34.344 161.637 33.8 162.277 33.368C162.933 32.92 163.717 32.696 164.629 32.696C165.813 32.696 166.701 32.944 167.293 33.44C167.885 33.92 168.277 34.608 168.469 35.504C168.677 36.4 168.781 37.464 168.781 38.696V44H166.189V38.768C166.189 37.488 166.061 36.512 165.805 35.84C165.565 35.168 164.997 34.832 164.101 34.832C163.637 34.832 163.157 34.976 162.661 35.264C162.165 35.552 161.749 35.968 161.413 36.512C161.077 37.056 160.909 37.728 160.909 38.528V44H158.317ZM175.823 49.76C175.199 49.76 174.599 49.696 174.023 49.568C173.463 49.44 172.975 49.296 172.559 49.136C172.143 48.992 171.863 48.88 171.719 48.8L172.295 46.4C172.679 46.656 173.151 46.888 173.711 47.096C174.271 47.32 174.951 47.432 175.751 47.432C176.119 47.432 176.495 47.392 176.879 47.312C177.279 47.248 177.655 47.096 178.007 46.856C178.359 46.632 178.639 46.288 178.847 45.824C179.071 45.376 179.183 44.776 179.183 44.024V42.056C178.863 42.648 178.327 43.16 177.575 43.592C176.839 44.024 175.999 44.24 175.055 44.24C174.095 44.24 173.215 44.008 172.415 43.544C171.631 43.064 170.999 42.392 170.519 41.528C170.055 40.648 169.823 39.616 169.823 38.432C169.823 37.296 170.039 36.304 170.471 35.456C170.919 34.592 171.543 33.92 172.343 33.44C173.159 32.944 174.119 32.696 175.223 32.696C175.895 32.696 176.511 32.816 177.071 33.056C177.631 33.28 178.095 33.56 178.463 33.896C178.847 34.216 179.103 34.528 179.231 34.832L179.279 32.984H181.727V43.928C181.727 45.736 181.255 47.16 180.311 48.2C179.383 49.24 177.887 49.76 175.823 49.76ZM175.775 42.056C176.367 42.056 176.903 41.92 177.383 41.648C177.879 41.36 178.271 40.96 178.559 40.448C178.863 39.936 179.015 39.328 179.015 38.624V38.456C179.015 37.736 178.863 37.112 178.559 36.584C178.271 36.04 177.879 35.624 177.383 35.336C176.903 35.032 176.367 34.88 175.775 34.88C174.703 34.88 173.895 35.224 173.351 35.912C172.823 36.6 172.559 37.448 172.559 38.456C172.559 39.48 172.823 40.336 173.351 41.024C173.895 41.712 174.703 42.056 175.775 42.056ZM197.003 44L192.755 35.768L191.651 33.272L191.147 35.768L189.515 44H186.851L190.499 26.36H190.787L195.635 35.888L197.075 39.08L198.515 35.888L203.267 26.36H203.531L207.323 44H204.683L202.907 35.768L202.379 33.272L201.419 35.768L197.147 44H197.003ZM212.859 44.24C211.883 44.24 210.971 44.008 210.123 43.544C209.291 43.08 208.619 42.416 208.107 41.552C207.595 40.688 207.339 39.656 207.339 38.456C207.339 37.304 207.555 36.296 207.987 35.432C208.435 34.568 209.059 33.896 209.859 33.416C210.675 32.936 211.643 32.696 212.763 32.696C213.435 32.696 214.043 32.816 214.587 33.056C215.147 33.28 215.611 33.56 215.979 33.896C216.363 34.216 216.619 34.528 216.747 34.832L216.795 32.984H219.267V44H216.819L216.771 42.056C216.611 42.408 216.339 42.752 215.955 43.088C215.587 43.424 215.139 43.704 214.611 43.928C214.083 44.136 213.499 44.24 212.859 44.24ZM213.291 42.08C213.883 42.08 214.419 41.944 214.899 41.672C215.395 41.384 215.787 40.984 216.075 40.472C216.379 39.96 216.531 39.352 216.531 38.648V38.48C216.531 37.76 216.379 37.136 216.075 36.608C215.787 36.064 215.395 35.648 214.899 35.36C214.419 35.056 213.883 34.904 213.291 34.904C212.219 34.904 211.411 35.248 210.867 35.936C210.339 36.624 210.075 37.472 210.075 38.48C210.075 39.504 210.339 40.36 210.867 41.048C211.411 41.736 212.219 42.08 213.291 42.08ZM220.914 44V32.984H223.458L223.482 35C223.77 34.344 224.234 33.8 224.874 33.368C225.53 32.92 226.314 32.696 227.226 32.696C228.41 32.696 229.298 32.944 229.89 33.44C230.482 33.92 230.874 34.608 231.066 35.504C231.274 36.4 231.378 37.464 231.378 38.696V44H228.786V38.768C228.786 37.488 228.658 36.512 228.402 35.84C228.162 35.168 227.594 34.832 226.698 34.832C226.234 34.832 225.754 34.976 225.258 35.264C224.762 35.552 224.346 35.968 224.01 36.512C223.674 37.056 223.506 37.728 223.506 38.528V44H220.914ZM237.916 44.24C236.94 44.24 236.028 44.008 235.18 43.544C234.348 43.08 233.676 42.416 233.164 41.552C232.652 40.688 232.396 39.656 232.396 38.456C232.396 37.304 232.612 36.296 233.044 35.432C233.492 34.568 234.116 33.896 234.916 33.416C235.732 32.936 236.7 32.696 237.82 32.696C238.492 32.696 239.1 32.816 239.644 33.056C240.204 33.28 240.668 33.56 241.036 33.896C241.42 34.216 241.676 34.528 241.804 34.832L241.852 32.984H244.324V44H241.876L241.828 42.056C241.668 42.408 241.396 42.752 241.012 43.088C240.644 43.424 240.196 43.704 239.668 43.928C239.14 44.136 238.556 44.24 237.916 44.24ZM238.348 42.08C238.94 42.08 239.476 41.944 239.956 41.672C240.452 41.384 240.844 40.984 241.132 40.472C241.436 39.96 241.588 39.352 241.588 38.648V38.48C241.588 37.76 241.436 37.136 241.132 36.608C240.844 36.064 240.452 35.648 239.956 35.36C239.476 35.056 238.94 34.904 238.348 34.904C237.276 34.904 236.468 35.248 235.924 35.936C235.396 36.624 235.132 37.472 235.132 38.48C235.132 39.504 235.396 40.36 235.924 41.048C236.468 41.736 237.276 42.08 238.348 42.08ZM251.487 49.76C250.863 49.76 250.263 49.696 249.687 49.568C249.127 49.44 248.639 49.296 248.223 49.136C247.807 48.992 247.527 48.88 247.383 48.8L247.959 46.4C248.343 46.656 248.815 46.888 249.375 47.096C249.935 47.32 250.615 47.432 251.415 47.432C251.783 47.432 252.159 47.392 252.543 47.312C252.943 47.248 253.319 47.096 253.671 46.856C254.023 46.632 254.303 46.288 254.511 45.824C254.735 45.376 254.847 44.776 254.847 44.024V42.056C254.527 42.648 253.991 43.16 253.239 43.592C252.503 44.024 251.663 44.24 250.719 44.24C249.759 44.24 248.879 44.008 248.079 43.544C247.295 43.064 246.663 42.392 246.183 41.528C245.719 40.648 245.487 39.616 245.487 38.432C245.487 37.296 245.703 36.304 246.135 35.456C246.583 34.592 247.207 33.92 248.007 33.44C248.823 32.944 249.783 32.696 250.887 32.696C251.559 32.696 252.175 32.816 252.735 33.056C253.295 33.28 253.759 33.56 254.127 33.896C254.511 34.216 254.767 34.528 254.895 34.832L254.943 32.984H257.391V43.928C257.391 45.736 256.919 47.16 255.975 48.2C255.047 49.24 253.551 49.76 251.487 49.76ZM251.439 42.056C252.031 42.056 252.567 41.92 253.047 41.648C253.543 41.36 253.935 40.96 254.223 40.448C254.527 39.936 254.679 39.328 254.679 38.624V38.456C254.679 37.736 254.527 37.112 254.223 36.584C253.935 36.04 253.543 35.624 253.047 35.336C252.567 35.032 252.031 34.88 251.439 34.88C250.367 34.88 249.559 35.224 249.015 35.912C248.487 36.6 248.223 37.448 248.223 38.456C248.223 39.48 248.487 40.336 249.015 41.024C249.559 41.712 250.367 42.056 251.439 42.056ZM264.317 44.24C262.941 44.24 261.821 43.976 260.957 43.448C260.093 42.904 259.461 42.192 259.061 41.312C258.661 40.432 258.461 39.496 258.461 38.504C258.461 37.304 258.701 36.272 259.181 35.408C259.677 34.544 260.357 33.88 261.221 33.416C262.085 32.936 263.061 32.696 264.149 32.696C265.893 32.696 267.165 33.184 267.965 34.16C268.765 35.12 269.165 36.416 269.165 38.048C269.165 38.48 269.141 38.928 269.093 39.392H261.173C261.349 40.384 261.701 41.096 262.229 41.528C262.773 41.944 263.493 42.152 264.389 42.152C265.253 42.152 265.933 42.072 266.429 41.912C266.925 41.752 267.333 41.592 267.653 41.432L268.445 43.28C268.125 43.488 267.629 43.704 266.957 43.928C266.285 44.136 265.405 44.24 264.317 44.24ZM261.173 37.592H266.645C266.661 36.552 266.429 35.84 265.949 35.456C265.469 35.072 264.845 34.88 264.077 34.88C263.277 34.88 262.621 35.096 262.109 35.528C261.613 35.944 261.301 36.632 261.173 37.592ZM270.207 44V32.984H272.799V35.144C273.055 34.424 273.463 33.84 274.023 33.392C274.599 32.928 275.263 32.696 276.015 32.696C276.527 32.696 276.879 32.744 277.071 32.84L276.711 35.456C276.567 35.36 276.255 35.312 275.775 35.312C275.375 35.312 274.943 35.4 274.479 35.576C274.015 35.752 273.615 36.064 273.279 36.512C272.959 36.944 272.799 37.552 272.799 38.336V44H270.207Z" fill="#DFDFDF"/>
</svg>
