<svg xmlns="http://www.w3.org/2000/svg" viewBox="0 0 165.71 35.3"><title>Asset 7</title><g id="96b2efb9-ac3b-4254-9b38-d7f175aa3aba" data-name="Layer 2"><g id="b938c2d3-033e-4ec9-a121-ac0c87ecc5c2" data-name="Layer 1"><path d="M18,35.3A17.85,17.85,0,0,1,0,17.65,17.85,17.85,0,0,1,18,0,17.85,17.85,0,0,1,36,17.65,17.85,17.85,0,0,1,18,35.3ZM18,1.58A16.25,16.25,0,0,0,1.62,17.65,16.25,16.25,0,0,0,18,33.72,16.25,16.25,0,0,0,34.4,17.65,16.25,16.25,0,0,0,18,1.58Z" fill="#fff"/><path d="M18,34.19A16.73,16.73,0,0,1,1.13,17.65,16.73,16.73,0,0,1,18,1.11,16.73,16.73,0,0,1,34.88,17.65,16.73,16.73,0,0,1,18,34.19ZM18,2.1A15.73,15.73,0,0,0,2.14,17.65,15.73,15.73,0,0,0,18,33.2,15.72,15.72,0,0,0,33.87,17.65,15.72,15.72,0,0,0,18,2.1Z" fill="#20d9f2"/><ellipse cx="18.01" cy="17.65" rx="14.57" ry="14.28" fill="#fff"/><path d="M13.31,22.34H8.74V14.57h4.57v1.35H10.42v1.71h2.69V19H10.42v2h2.89Z" fill="#116dec"/><path d="M16.84,22.34l-1.91-6.09h0c.07,1.24.11,2.06.11,2.48v3.61H13.48V14.57h2.29l1.88,5.94h0l2-5.94H22v7.77H20.39V18.67c0-.18,0-.38,0-.6s0-.83.07-1.81h0l-2,6.08Z" fill="#116dec"/><path d="M25.84,15.83a1.75,1.75,0,0,0-1.47.7,3.27,3.27,0,0,0-.52,1.95c0,1.73.67,2.6,2,2.6a6.45,6.45,0,0,0,2-.41v1.38a5.61,5.61,0,0,1-2.18.4,3.33,3.33,0,0,1-2.64-1,4.29,4.29,0,0,1-.92-3,4.7,4.7,0,0,1,.45-2.12,3.15,3.15,0,0,1,1.3-1.4,3.82,3.82,0,0,1,2-.49,5.51,5.51,0,0,1,2.32.55l-.54,1.34a8.29,8.29,0,0,0-.89-.36A2.84,2.84,0,0,0,25.84,15.83Z" fill="#116dec"/><path d="M52.49,22.14h-7.1V9.8h7.1v2.14H48v2.71h4.18V16.8H48V20h4.49Z" fill="#fff"/><path d="M62,22.14H59.45V16.63a2.75,2.75,0,0,0-.35-1.53A1.18,1.18,0,0,0,58,14.59a1.57,1.57,0,0,0-1.44.72,4.75,4.75,0,0,0-.45,2.39v4.44H53.57V12.7h2l.34,1.21H56a2.69,2.69,0,0,1,1.09-1,3.64,3.64,0,0,1,1.65-.36,3,3,0,0,1,2.87,1.38h.23a2.48,2.48,0,0,1,1.12-1,3.74,3.74,0,0,1,1.66-.36,3.29,3.29,0,0,1,2.43.82A3.62,3.62,0,0,1,67.9,16v6.15H65.32V16.63A2.75,2.75,0,0,0,65,15.1a1.21,1.21,0,0,0-1.08-.51,1.59,1.59,0,0,0-1.41.67A3.87,3.87,0,0,0,62,17.41Z" fill="#fff"/><path d="M74.5,12.53a3,3,0,0,1,2.62,1.3,6,6,0,0,1,.94,3.58,5.88,5.88,0,0,1-1,3.62,3.18,3.18,0,0,1-2.66,1.28,3.12,3.12,0,0,1-2.61-1.21h-.17l-.43,1h-2V9h2.57v3.05c0,.39,0,1-.1,1.87h.1A3,3,0,0,1,74.5,12.53Zm-.83,2.06a1.62,1.62,0,0,0-1.39.58,3.47,3.47,0,0,0-.46,1.94v.28a4,4,0,0,0,.46,2.18,1.6,1.6,0,0,0,1.43.66A1.44,1.44,0,0,0,75,19.5a4,4,0,0,0,.47-2.13A3.8,3.8,0,0,0,75,15.28,1.5,1.5,0,0,0,73.67,14.59Z" fill="#fff"/><path d="M83.17,22.31a4.89,4.89,0,0,1-3.57-1.26,4.77,4.77,0,0,1-1.28-3.56,5.26,5.26,0,0,1,1.19-3.67,4.23,4.23,0,0,1,3.28-1.29,4.15,4.15,0,0,1,3.11,1.14A4.32,4.32,0,0,1,87,16.82v1.24H80.93a2.46,2.46,0,0,0,.65,1.72,2.27,2.27,0,0,0,1.7.61,7.06,7.06,0,0,0,1.62-.17,8.2,8.2,0,0,0,1.58-.57v2a5.87,5.87,0,0,1-1.44.51A9.11,9.11,0,0,1,83.17,22.31Zm-.37-7.95a1.62,1.62,0,0,0-1.28.52A2.36,2.36,0,0,0,81,16.35H84.6a2.14,2.14,0,0,0-.5-1.47A1.67,1.67,0,0,0,82.8,14.36Z" fill="#fff"/><path d="M90.8,22.31A3.06,3.06,0,0,1,88.19,21a5.88,5.88,0,0,1-1-3.58,6,6,0,0,1,1-3.62,3.16,3.16,0,0,1,2.67-1.29,3.09,3.09,0,0,1,2.72,1.38h.08A10.39,10.39,0,0,1,93.48,12V9h2.58V22.14h-2l-.49-1.22h-.11A3,3,0,0,1,90.8,22.31Zm.9-2a1.76,1.76,0,0,0,1.45-.57,3.29,3.29,0,0,0,.5-2v-.28a3.88,3.88,0,0,0-.46-2.18,1.76,1.76,0,0,0-1.53-.66,1.51,1.51,0,0,0-1.34.73,4,4,0,0,0-.47,2.12,3.69,3.69,0,0,0,.48,2.09A1.56,1.56,0,0,0,91.7,20.26Z" fill="#fff"/><path d="M106.1,11.8a2.66,2.66,0,0,0-2.29,1.11A5.16,5.16,0,0,0,103,16c0,2.76,1,4.13,3.1,4.13a9.59,9.59,0,0,0,3.14-.65v2.2a8.75,8.75,0,0,1-3.39.63,5.18,5.18,0,0,1-4.12-1.63A6.92,6.92,0,0,1,100.3,16a7.71,7.71,0,0,1,.7-3.37,5,5,0,0,1,2-2.22,5.9,5.9,0,0,1,3.08-.78,8.32,8.32,0,0,1,3.61.87l-.85,2.13a12.7,12.7,0,0,0-1.39-.57A4,4,0,0,0,106.1,11.8Z" fill="#fff"/><path d="M116.36,22.14l-.49-1.28h-.07A3.89,3.89,0,0,1,114.46,22a4.19,4.19,0,0,1-1.79.32,2.89,2.89,0,0,1-2.14-.78,3,3,0,0,1-.78-2.21,2.48,2.48,0,0,1,1-2.21,6,6,0,0,1,3.17-.79l1.63-.05v-.42a1.28,1.28,0,0,0-1.46-1.43,6.73,6.73,0,0,0-2.66.68l-.86-1.74a7.67,7.67,0,0,1,3.62-.85,4.52,4.52,0,0,1,2.91.83,3.07,3.07,0,0,1,1,2.51v6.29Zm-.76-4.37-1,0a3.21,3.21,0,0,0-1.67.41,1.26,1.26,0,0,0-.55,1.13c0,.73.41,1.09,1.25,1.09a2,2,0,0,0,1.43-.52,1.79,1.79,0,0,0,.53-1.36Z" fill="#fff"/><path d="M122.09,22.14h-2.57V9h2.57Z" fill="#fff"/><path d="M127.77,22.31a4.89,4.89,0,0,1-3.57-1.26,4.77,4.77,0,0,1-1.28-3.56,5.26,5.26,0,0,1,1.19-3.67,4.23,4.23,0,0,1,3.28-1.29,4.15,4.15,0,0,1,3.11,1.14,4.33,4.33,0,0,1,1.12,3.15v1.24h-6.09a2.46,2.46,0,0,0,.65,1.72,2.29,2.29,0,0,0,1.71.61,7,7,0,0,0,1.61-.17,8.2,8.2,0,0,0,1.58-.57v2a5.87,5.87,0,0,1-1.44.51A9.11,9.11,0,0,1,127.77,22.31Zm-.37-7.95a1.62,1.62,0,0,0-1.28.52,2.36,2.36,0,0,0-.53,1.47h3.61a2.14,2.14,0,0,0-.5-1.47A1.67,1.67,0,0,0,127.4,14.36Z" fill="#fff"/><path d="M141.13,22.14h-2.58V16.63a2.66,2.66,0,0,0-.36-1.53,1.32,1.32,0,0,0-1.16-.51,1.74,1.74,0,0,0-1.56.72A4.48,4.48,0,0,0,135,17.7v4.44h-2.58V12.7h2l.35,1.21h.14a2.72,2.72,0,0,1,1.19-1,3.9,3.9,0,0,1,1.71-.35,3.28,3.28,0,0,1,2.5.89,3.56,3.56,0,0,1,.86,2.57Z" fill="#fff"/><path d="M145.47,22.31A3.06,3.06,0,0,1,142.86,21a5.88,5.88,0,0,1-1-3.58,6,6,0,0,1,1-3.62,3.15,3.15,0,0,1,2.67-1.29,3.07,3.07,0,0,1,2.71,1.38h.09a10.48,10.48,0,0,1-.2-1.88V9h2.59V22.14h-2l-.5-1.22h-.11A2.92,2.92,0,0,1,145.47,22.31Zm.9-2a1.76,1.76,0,0,0,1.45-.57,3.36,3.36,0,0,0,.5-2v-.28a3.87,3.87,0,0,0-.47-2.18,1.73,1.73,0,0,0-1.52-.66,1.5,1.5,0,0,0-1.34.73,3.89,3.89,0,0,0-.48,2.12,3.6,3.6,0,0,0,.49,2.09A1.55,1.55,0,0,0,146.37,20.26Z" fill="#fff"/><path d="M154.7,22.14h-2.58V9h2.58Z" fill="#fff"/><path d="M155.88,12.7h2.82L160.48,18a7.85,7.85,0,0,1,.31,1.64h.05A7.25,7.25,0,0,1,161.2,18L163,12.7h2.76l-4,10.65a4.65,4.65,0,0,1-1.57,2.21,4,4,0,0,1-2.37.74,5.66,5.66,0,0,1-1.31-.15v-2a4.53,4.53,0,0,0,1,.11,1.8,1.8,0,0,0,1.19-.42,2.72,2.72,0,0,0,.8-1.26l.15-.47Z" fill="#fff"/></g></g></svg>