<svg xmlns="http://www.w3.org/2000/svg" viewBox="0 0 5.96 5.84"><title>Asset 8</title><g id="d49134c9-c362-4f20-89fe-3f11c8aa07c3" data-name="Layer 2"><g id="35e1c6cb-bdec-4b50-bcdb-68508895247a" data-name="Layer 1"><path d="M3,5.84A3,3,0,0,1,0,2.92,3,3,0,0,1,3,0,3,3,0,0,1,6,2.92,3,3,0,0,1,3,5.84ZM3,.26A2.68,2.68,0,0,0,.27,2.92,2.69,2.69,0,0,0,3,5.58,2.7,2.7,0,0,0,5.69,2.92,2.69,2.69,0,0,0,3,.26Z" fill="#fff"/><path d="M3,5.65A2.76,2.76,0,0,1,.19,2.92,2.77,2.77,0,0,1,3,.18,2.77,2.77,0,0,1,5.77,2.92,2.76,2.76,0,0,1,3,5.65ZM3,.35A2.6,2.6,0,0,0,.35,2.92,2.6,2.6,0,0,0,3,5.49,2.6,2.6,0,0,0,5.6,2.92,2.6,2.6,0,0,0,3,.35Z" fill="#a8a8a8"/><ellipse cx="2.98" cy="2.92" rx="2.41" ry="2.36" fill="#fff"/><path d="M2.2,3.69H1.45V2.41H2.2v.22H1.72v.29h.45v.22H1.72v.33H2.2Z" fill="#383838"/><path d="M2.78,3.69l-.31-1h0c0,.2,0,.34,0,.41v.59H2.23V2.41h.38l.31,1h0l.33-1h.38V3.69H3.37V3s0-.14,0-.3h0L3,3.69Z" fill="#383838"/><path d="M4.27,2.62A.3.3,0,0,0,4,2.73a.54.54,0,0,0-.09.33c0,.28.11.43.33.43a1.28,1.28,0,0,0,.34-.07v.23a1,1,0,0,1-.36.06.54.54,0,0,1-.44-.17.7.7,0,0,1-.15-.49.78.78,0,0,1,.07-.35A.54.54,0,0,1,4,2.47a.66.66,0,0,1,.32-.08.92.92,0,0,1,.39.09l-.09.22-.15-.06Z" fill="#383838"/></g></g></svg>