<svg xmlns="http://www.w3.org/2000/svg" viewBox="0 0 141.17 138.37"><title>Asset 5</title><g id="03f7bc06-dae8-47c4-ac3c-03fc72522d49" data-name="Layer 2"><g id="82fedd8e-9a39-44b7-8011-81614b2adff1" data-name="Layer 1"><path d="M70.59,138.37C31.66,138.37,0,107.33,0,69.18S31.66,0,70.59,0s70.58,31,70.58,69.18S109.51,138.37,70.59,138.37Zm0-132.16c-35.43,0-64.25,28.25-64.25,63s28.82,63,64.25,63,64.24-28.25,64.24-63S106,6.21,70.59,6.21Z" fill="#116dec"/><path d="M70.59,134C34.11,134,4.44,104.93,4.44,69.18S34.11,4.35,70.59,4.35s66.14,29.09,66.14,64.83S107.06,134,70.59,134Zm0-125.78C36.3,8.24,8.4,35.58,8.4,69.18s27.9,60.95,62.19,60.95,62.18-27.34,62.18-60.95S104.87,8.24,70.59,8.24Z" fill="#20d9f2"/><ellipse cx="70.58" cy="69.18" rx="57.12" ry="55.98" fill="#116dec"/><path d="M52.16,87.57H34.27V57.13H52.16v5.29H40.86V69.1H51.37v5.29H40.86v7.85h11.3Z" fill="#fff"/><path d="M66,87.57,58.53,63.69h-.19c.26,4.86.4,8.1.4,9.72V87.57H52.85V57.13h9l7.35,23.28h.13l7.8-23.28h9V87.57H79.92V73.16c0-.68,0-1.46,0-2.35s.12-3.25.29-7.08h-.19L72,87.57Z" fill="#fff"/><path d="M101.29,62.06a6.75,6.75,0,0,0-5.76,2.74q-2,2.74-2,7.63,0,10.18,7.8,10.19A25.06,25.06,0,0,0,109.21,81v5.42A22.4,22.4,0,0,1,100.67,88q-6.78,0-10.37-4T86.71,72.39a18.53,18.53,0,0,1,1.77-8.32,12.56,12.56,0,0,1,5.06-5.48,15.27,15.27,0,0,1,7.75-1.9,21.2,21.2,0,0,1,9.09,2.14l-2.12,5.25a34.74,34.74,0,0,0-3.51-1.41A10.44,10.44,0,0,0,101.29,62.06Z" fill="#fff"/></g></g></svg>