<svg width="166" height="166" viewBox="0 0 166 166" fill="none" xmlns="http://www.w3.org/2000/svg">
<path d="M166 83C166 128.84 128.84 166 83 166C37.1604 166 0 128.84 0 83C0 37.1604 37.1604 0 83 0C128.84 0 166 37.1604 166 83Z" fill="#708090"/>
<path fill-rule="evenodd" clip-rule="evenodd" d="M83 164.356C127.932 164.356 164.356 127.932 164.356 83C164.356 38.0681 127.932 1.64356 83 1.64356C38.0681 1.64356 1.64356 38.0681 1.64356 83C1.64356 127.932 38.0681 164.356 83 164.356ZM83 166C128.84 166 166 128.84 166 83C166 37.1604 128.84 0 83 0C37.1604 0 0 37.1604 0 83C0 128.84 37.1604 166 83 166Z" fill="#E47C20"/>
<path d="M142.99 83C142.99 116.132 116.132 142.99 83 142.99C49.8684 142.99 23.0099 116.132 23.0099 83C23.0099 49.8684 49.8684 23.0099 83 23.0099C116.132 23.0099 142.99 49.8684 142.99 83Z" fill="#0E346D"/>
<path fill-rule="evenodd" clip-rule="evenodd" d="M144.634 83C144.634 117.039 117.039 144.634 83 144.634C48.9607 144.634 21.3663 117.039 21.3663 83C21.3663 48.9607 48.9607 21.3663 83 21.3663C117.039 21.3663 144.634 48.9607 144.634 83ZM83 142.99C116.132 142.99 142.99 116.132 142.99 83C142.99 49.8684 116.132 23.0099 83 23.0099C49.8684 23.0099 23.0099 49.8684 23.0099 83C23.0099 116.132 49.8684 142.99 83 142.99Z" fill="#E47C20"/>
<path d="M111.733 68.988C114.534 68.988 116.924 69.4748 118.901 70.4486V77.3246L118.856 77.3695C118.017 76.0812 116.249 75.2273 113.553 74.8078C112.759 74.673 111.755 74.6056 110.542 74.6056C109.328 74.6056 108.138 74.8378 106.969 75.3022C105.801 75.7516 104.842 76.3958 104.093 77.2347C102.64 78.8675 101.913 81.197 101.913 84.223C101.913 87.7434 102.834 90.365 104.677 92.0877C106.205 93.5259 108.227 94.2449 110.744 94.2449C113.59 94.2449 115.897 93.6382 117.665 92.4248C118.309 91.9904 118.856 91.4511 119.305 90.8069L119.373 90.8519V97.1436C117.081 99.0461 113.995 99.9974 110.115 99.9974C105.546 99.9974 101.966 98.5443 99.374 95.6381C96.8873 92.8667 95.6439 89.1965 95.6439 84.6275C95.6439 79.7888 97.0071 75.9763 99.7335 73.19C102.49 70.3886 106.49 68.988 111.733 68.988Z" fill="white"/>
<path d="M74.4047 99.5705C73.6856 99.4806 72.2999 99.4356 70.2476 99.4356H68.45V69.4598C69.4087 69.5198 70.4648 69.5497 71.6183 69.5497C72.7718 69.5497 73.5882 69.4898 74.0676 69.37L81.6177 82.2007L88.8757 69.37C89.3551 69.4898 90.2689 69.5497 91.6172 69.5497C92.9654 69.5497 94.1189 69.5198 95.0776 69.4598V99.4356H93.28C91.2277 99.4356 89.842 99.4806 89.1229 99.5705V79.4368L81.775 92.5821L74.4047 80.4929V99.5705Z" fill="white"/>
<path d="M64.9176 94.0427C65.8464 94.0427 66.4905 93.9528 66.8501 93.773L66.9399 93.7955L66.7152 99.4356H49.8847V69.3924C50.2892 69.4224 50.7386 69.4449 51.233 69.4598L52.8059 69.5048C53.8546 69.5347 54.9931 69.5497 56.2215 69.5497C59.652 69.5497 63.045 69.4898 66.4006 69.37C66.2359 70.6882 66.1535 72.4484 66.1535 74.6506C66.1535 74.8902 66.1684 75.07 66.1984 75.1898L66.1535 75.2573C65.3745 75.0326 64.2659 74.9202 62.8278 74.9202H55.7496V80.6502H61.0751C62.723 80.6502 63.7117 80.6053 64.0412 80.5154L64.1086 86.0656C63.3896 85.9907 62.4608 85.9533 61.3223 85.9533H55.7496V94.0427H64.9176Z" fill="white"/>
<path fill-rule="evenodd" clip-rule="evenodd" d="M119.723 69.9372V77.6649L118.72 78.6673L118.167 77.8179C117.525 76.8322 116.06 76.0294 113.427 75.6199L113.415 75.6181C112.683 75.4938 111.73 75.4274 110.542 75.4274C109.436 75.4274 108.348 75.6385 107.273 76.0659L107.264 76.0693C106.204 76.4771 105.358 77.0512 104.706 77.782C103.431 79.2151 102.735 81.3215 102.735 84.223C102.735 87.6083 103.619 89.9736 105.238 91.4875L105.24 91.4893C106.586 92.7563 108.392 93.4231 110.744 93.4231C113.478 93.4231 115.608 92.8404 117.2 91.7473L117.206 91.7435C117.765 91.3662 118.239 90.8988 118.631 90.3367L119.092 89.6769L120.195 90.4121V97.5295L119.898 97.776C117.419 99.8338 114.128 100.819 110.115 100.819C105.357 100.819 101.537 99.2972 98.7618 96.1863C96.7909 93.9895 95.5728 91.2803 95.0776 88.0936V81.129C95.6041 77.7143 96.9481 74.8616 99.1462 72.6152L99.1478 72.6136C102.105 69.6082 106.346 68.1662 111.733 68.1662C114.627 68.1662 117.147 68.669 119.264 69.7113L119.723 69.9372ZM99.374 95.6381C101.966 98.5443 105.546 99.9974 110.115 99.9974C113.995 99.9974 117.081 99.0461 119.373 97.1436V90.8519L119.305 90.8069C119.305 90.807 119.305 90.8069 119.305 90.8069C119.295 90.8219 119.284 90.837 119.274 90.8519C119.055 91.1594 118.815 91.4426 118.551 91.7016C118.28 91.9684 117.984 92.2095 117.665 92.4248C115.897 93.6382 113.59 94.2449 110.744 94.2449C108.227 94.2449 106.205 93.5259 104.677 92.0877C102.834 90.365 101.913 87.7434 101.913 84.223C101.913 81.197 102.64 78.8675 104.093 77.2347C104.842 76.3958 105.801 75.7516 106.969 75.3022C108.138 74.8378 109.328 74.6056 110.542 74.6056C111.755 74.6056 112.759 74.673 113.553 74.8078C115.594 75.1253 117.102 75.6916 118.079 76.5066C118.273 76.6687 118.446 76.8405 118.599 77.0222C118.681 77.1201 118.756 77.2209 118.826 77.3246C118.836 77.3395 118.846 77.3545 118.856 77.3695L118.901 77.3246V70.4486C116.924 69.4748 114.534 68.988 111.733 68.988C106.49 68.988 102.49 70.3886 99.7335 73.19C97.0071 75.9763 95.6439 79.7888 95.6439 84.6275C95.6439 89.1965 96.8873 92.8667 99.374 95.6381Z" fill="#E47C20"/>
<path fill-rule="evenodd" clip-rule="evenodd" d="M75.2265 100.501L74.3027 100.386C73.6422 100.303 72.3063 100.257 70.2476 100.257H67.6282V68.5851L68.5012 68.6397C69.4399 68.6983 70.4787 68.7279 71.6183 68.7279C72.7698 68.7279 73.4963 68.6657 73.8683 68.5727L74.4643 68.4237L81.6037 80.5564L88.4684 68.421L89.0751 68.5727C89.4424 68.6645 90.2586 68.7279 91.6172 68.7279C92.9545 68.7279 94.0899 68.6982 95.0264 68.6397L95.8994 68.5851V81.1914C95.7291 82.2727 95.6439 83.418 95.6439 84.6275C95.6439 85.8234 95.7291 86.9576 95.8994 88.0303V100.257H93.28C91.2213 100.257 89.8854 100.303 89.2248 100.386L88.3011 100.501V82.5912L81.8058 94.2113L75.2265 83.4195V100.501ZM74.4047 80.4929V99.5704C74.1901 99.5436 73.9162 99.5208 73.5829 99.502C72.7993 99.4577 71.6875 99.4356 70.2476 99.4356H68.45V69.4598C68.7164 69.4765 68.9903 69.4908 69.2717 69.5029C70.0032 69.5341 70.7854 69.5497 71.6183 69.5497C72.7718 69.5497 73.5882 69.4898 74.0676 69.37L81.6177 82.2007L88.8757 69.37C89.3551 69.4898 90.2689 69.5497 91.6172 69.5497C92.6003 69.5497 93.4798 69.5338 94.2558 69.5019C94.5441 69.4901 94.818 69.4761 95.0776 69.4598V99.4356H93.28C91.8401 99.4356 90.7283 99.4577 89.9447 99.502C89.6114 99.5208 89.3375 99.5436 89.1229 99.5704V79.4368L81.775 92.5821L74.4047 80.4929Z" fill="#E47C20"/>
<path fill-rule="evenodd" clip-rule="evenodd" d="M66.7544 92.9021L67.7877 93.1604L67.5049 100.257H49.063V68.5076L49.9455 68.5729C50.3356 68.6018 50.7727 68.6238 51.2573 68.6385C51.2572 68.6384 51.2575 68.6385 51.2573 68.6385L52.8294 68.6834C53.869 68.7131 54.9996 68.728 56.2215 68.728C59.6424 68.728 63.0257 68.6682 66.3713 68.5487L67.3358 68.5143L67.2161 69.4719C67.0574 70.7417 66.9752 72.4635 66.9752 74.6506C66.9752 74.7545 66.9785 74.8357 66.9836 74.8969C66.9862 74.9272 66.9889 74.9502 66.9914 74.9669C66.9939 74.9835 66.9957 74.9908 66.9957 74.9906L67.0838 75.3432L66.5036 76.2136L65.9257 76.0469C65.2568 75.8539 64.2386 75.742 62.8278 75.742H56.5714V79.8285H61.0751C61.8936 79.8285 62.5387 79.8173 63.0152 79.7956C63.2537 79.7848 63.443 79.7716 63.5869 79.7569C63.6586 79.7495 63.7149 79.7422 63.7576 79.7354C63.7788 79.7321 63.7951 79.7291 63.807 79.7266L63.8205 79.7237C63.8237 79.7229 63.8251 79.7226 63.825 79.7226L64.85 79.443L64.9416 86.9786L64.0235 86.883C63.344 86.8122 62.4465 86.7751 61.3223 86.7751H56.5714V93.2209H64.9176C65.8442 93.2209 66.3123 93.1232 66.4825 93.038L66.7544 92.9021ZM55.7496 94.0427V85.9533H61.3223C62.0665 85.9533 62.721 85.9693 63.286 86.0013C63.5854 86.0183 63.8596 86.0397 64.1086 86.0657L64.0412 80.5154C63.8959 80.5551 63.6223 80.586 63.2205 80.6081C62.7113 80.6362 61.9962 80.6502 61.0751 80.6502H55.7496V74.9202H62.8278C63.8281 74.9202 64.6689 74.9746 65.3503 75.0833C65.6047 75.1239 65.8369 75.172 66.0468 75.2278C66.083 75.2374 66.1186 75.2472 66.1535 75.2573L66.1984 75.1899C66.1945 75.1742 66.1908 75.1574 66.1874 75.1397C66.1648 75.0219 66.1535 74.8589 66.1535 74.6506C66.1535 74.5687 66.1536 74.4875 66.1538 74.4069C66.1585 72.7431 66.2117 71.3393 66.3133 70.1954C66.3393 69.9033 66.3684 69.6282 66.4006 69.37C66.1238 69.3799 65.8467 69.3894 65.5693 69.3984C62.4849 69.4993 59.3689 69.5498 56.2215 69.5498C54.9931 69.5498 53.8546 69.5348 52.8059 69.5048L51.233 69.4599C51.0514 69.4544 50.876 69.4479 50.7065 69.4403C50.4146 69.4274 50.1407 69.4114 49.8847 69.3925V99.4357H66.7152L66.9399 93.7955L66.8501 93.7731C66.8382 93.779 66.8261 93.7848 66.8137 93.7905C66.6396 93.8705 66.4051 93.9315 66.1104 93.9735C65.7859 94.0196 65.3883 94.0427 64.9176 94.0427H55.7496Z" fill="#E47C20"/>
</svg>
