<?xml version="1.0" encoding="UTF-8"?>
<svg width="16px" height="16px" viewBox="0 0 16 16" version="1.1" xmlns="http://www.w3.org/2000/svg" xmlns:xlink="http://www.w3.org/1999/xlink">
    <title>Shape</title>
    <g id="Modale-editor" stroke="none" stroke-width="1" fill="none" fill-rule="evenodd">
        <g id="empty-page---3rd-party-themes---step-2" transform="translate(-568, -312)" fill="#5246F1" fill-rule="nonzero">
            <g id="Group" transform="translate(568, 306)">
                <g id="check_circle_FILL0_wght400_GRAD0_opsz24" transform="translate(0, 6)">
                    <path d="M6.88,11.68 L12.52,6.04 L11.4,4.92 L6.88,9.44 L4.6,7.16 L3.48,8.28 L6.88,11.68 Z M8,16 C6.89333333,16 5.85333333,15.79 4.88,15.37 C3.90666667,14.95 3.06,14.38 2.34,13.66 C1.62,12.94 1.05,12.0933333 0.63,11.12 C0.21,10.1466667 0,9.10666667 0,8 C0,6.89333333 0.21,5.85333333 0.63,4.88 C1.05,3.90666667 1.62,3.06 2.34,2.34 C3.06,1.62 3.90666667,1.05 4.88,0.63 C5.85333333,0.21 6.89333333,0 8,0 C9.10666667,0 10.1466667,0.21 11.12,0.63 C12.0933333,1.05 12.94,1.62 13.66,2.34 C14.38,3.06 14.95,3.90666667 15.37,4.88 C15.79,5.85333333 16,6.89333333 16,8 C16,9.10666667 15.79,10.1466667 15.37,11.12 C14.95,12.0933333 14.38,12.94 13.66,13.66 C12.94,14.38 12.0933333,14.95 11.12,15.37 C10.1466667,15.79 9.10666667,16 8,16 Z M8,14.4 C9.78666667,14.4 11.3,13.78 12.54,12.54 C13.78,11.3 14.4,9.78666667 14.4,8 C14.4,6.21333333 13.78,4.7 12.54,3.46 C11.3,2.22 9.78666667,1.6 8,1.6 C6.21333333,1.6 4.7,2.22 3.46,3.46 C2.22,4.7 1.6,6.21333333 1.6,8 C1.6,9.78666667 2.22,11.3 3.46,12.54 C4.7,13.78 6.21333333,14.4 8,14.4 Z" id="Shape"></path>
                </g>
            </g>
        </g>
    </g>
</svg>