<svg width="24" height="25" viewBox="0 0 24 25" fill="none" xmlns="http://www.w3.org/2000/svg">
<path d="M5.25 4.5H18.75C19.5801 4.49995 20.3788 4.81755 20.9822 5.38767C21.5856 5.95779 21.948 6.73719 21.995 7.566L22 7.75V17.25C22.0001 18.0801 21.6824 18.8788 21.1123 19.4822C20.5422 20.0856 19.7628 20.448 18.934 20.495L18.75 20.5H5.25C4.41986 20.5001 3.62117 20.1824 3.01777 19.6123C2.41437 19.0422 2.052 18.2628 2.005 17.434L2 17.25V7.75C1.99995 6.91986 2.31755 6.12117 2.88767 5.51777C3.45779 4.91437 4.23719 4.552 5.066 4.505L5.25 4.5H18.75H5.25ZM20.5 9.873L12.35 14.163C12.258 14.2116 12.1568 14.2405 12.053 14.2479C11.9492 14.2553 11.845 14.2411 11.747 14.206L11.651 14.164L3.5 9.874V17.25C3.50002 17.6892 3.66517 18.1123 3.96268 18.4354C4.26019 18.7585 4.6683 18.9579 5.106 18.994L5.25 19H18.75C19.1893 19 19.6126 18.8347 19.9357 18.537C20.2588 18.2392 20.4581 17.8309 20.494 17.393L20.5 17.25V9.873ZM18.75 6H5.25C4.81081 6.00002 4.38768 6.16517 4.06461 6.46268C3.74154 6.76019 3.54214 7.1683 3.506 7.606L3.5 7.75V8.179L12 12.652L20.5 8.178V7.75C20.5 7.31065 20.3347 6.88739 20.037 6.56429C19.7392 6.24119 19.3309 6.0419 18.893 6.006L18.75 6Z" fill="#94A3B8"/>
</svg>
