<svg xmlns="http://www.w3.org/2000/svg" fill="none" width="800" height="600" viewBox="0 0 800 600">
  <mask id="a" width="800" height="600" x="0" y="0" maskUnits="userSpaceOnUse">
    <path fill="#F3F4F5" d="M0 0h800v600H0z"/>
  </mask>
  <g mask="url(#a)">
    <path fill="#072CF0" d="M853.829-20.257L316.874 153.456l35.434 77.615L871.567 66.866l-17.738-87.123z" style="mix-blend-mode:multiply"/>
    <path fill="#0878FF" d="M877.023 29.742l-607.122 256.91 29.457 73.191 606.394-257.578-28.729-72.523zM643.648 301.04l255.595-69.656-15.513-38.858-249.833 57.917 9.751 50.597z" style="mix-blend-mode:multiply"/>
    <path fill="#0285D7" d="M865.831 173.885L410.253 280.154l25.976 123.883L910.091 292.56l-44.26-118.675z" style="mix-blend-mode:multiply"/>
    <path fill="#0878FF" d="M887.95 232.742L509.289 432.591l21.821 50.337 361.35-191.269-4.51-58.917z" style="mix-blend-mode:multiply"/>
    <path fill="#0740B3" d="M994.937 277.099L698.736 429.196 716.9 471.27l301.59-155.227-23.553-38.944z" style="mix-blend-mode:multiply"/>
    <path fill="#0878FF" d="M874.438-3.662L195.517 78.62 205.999-15l648.625-53.767 19.814 65.105z" style="mix-blend-mode:multiply"/>
    <path fill="#1A81BA" d="M784.876-55L415.306 70.026l9.573 31.667L793.487-23.183 784.876-55z" style="mix-blend-mode:multiply"/>
  </g>
  <path fill="#197BB3" fill-rule="evenodd" d="M294.397 121.367a8.003 8.003 0 019.895 5.485 8.002 8.002 0 01-5.485 9.895 8.003 8.003 0 01-9.895-5.485 8.003 8.003 0 015.485-9.895zm9.119 5.708a7.187 7.187 0 00-8.896-4.931 7.186 7.186 0 00-4.931 8.895 7.187 7.187 0 008.896 4.931 7.186 7.186 0 004.931-8.895zm-7.381 6.127l-4.156-5.641c.37-.131.79-.293.79-.293.319-.133.069-.86-.265-.748 0 0-.97.362-1.616.547-.115.033-.253.073-.402.107a6.42 6.42 0 014.359-4.246 6.386 6.386 0 014.621.414c-.479.071-1.038.589-.802 1.412.136.473.506.806.928 1.187l.094.085c.358.346.654.827.872 1.589.295 1.03.011 3.725.011 3.725l-3.738-5.17a1.76 1.76 0 00.542-.288c.319-.134.049-.93-.277-.82 0 0-.975.371-1.621.557-.6.172-1.647.38-1.647.38-.335.08-.135.921.2.842l.663-.124 1.532 2.091-.088 4.394zm5.573-5.609l-.47 5.935c1.524-1.593 2.146-3.952 1.493-6.228-.306-1.069-.827-1.985-1.563-2.723.683 1.568.54 3.016.54 3.016zm-11.447.594l5.248 7.217c-2.34-.411-4.337-2.152-5.036-4.59-.256-.892-.338-1.759-.212-2.627zm9.867 6.142l-3.139-4.301-.28 5.382a5.888 5.888 0 001.651-.224 5.717 5.717 0 001.768-.857zM348.306 84.436l-67.288 19.294 3.583 12.497 67.288-19.295-3.583-12.496zm-58.589 24.83c.185-.282.238-.61.159-.985l-.704.201c.044.213.027.385-.053.516-.078.129-.225.225-.443.287-.241.069-.442.035-.604-.104-.16-.138-.293-.392-.398-.761l-.074-.259c-.099-.354-.114-.632-.046-.832.069-.203.22-.338.455-.405.216-.062.391-.058.524.012.135.068.243.21.323.426l.704-.202c-.147-.371-.371-.628-.673-.77-.301-.142-.649-.156-1.043-.043-.285.081-.516.22-.694.417a1.347 1.347 0 00-.33.717c-.044.283-.019.589.075.918l.06.209c.148.514.389.884.724 1.108.337.222.724.27 1.162.144.4-.115.692-.313.876-.594zm5.069-1.969c.046-.288.021-.6-.076-.936l-.043-.152a2.113 2.113 0 00-.437-.833 1.387 1.387 0 00-.683-.441 1.458 1.458 0 00-.817.01 1.403 1.403 0 00-1.046 1.161c-.048.29-.023.603.073.939l.049.169c.095.328.241.602.435.82.195.217.422.362.684.434.261.073.533.068.816-.013.287-.082.52-.224.701-.425.183-.201.298-.445.344-.733zm-1.26-1.648c.182.15.324.404.427.762l.047.166c.101.356.114.645.041.868a.647.647 0 01-.465.433.653.653 0 01-.637-.13c-.183-.156-.325-.408-.425-.757l-.048-.167c-.1-.355-.113-.643-.037-.863a.654.654 0 01.468-.434.654.654 0 01.629.122zm2.89-1.71l.98 3.417 1.058-.303c.299-.088.547-.233.746-.438.199-.204.328-.448.387-.733.06-.285.045-.586-.046-.903l-.045-.158a1.852 1.852 0 00-.443-.792 1.463 1.463 0 00-.722-.418 1.65 1.65 0 00-.863.027l-1.052.301zm1.522 2.65l-.654-2.281.347-.1c.277-.079.513-.05.709.089.195.137.342.379.442.727l.052.18c.092.336.092.615-.002.836-.094.222-.279.372-.554.451l-.34.098zm4.57-2.301l1.351-.388-.158-.551-1.352.387-.233-.814 1.582-.454-.164-.57-2.286.656.98 3.417 2.291-.657-.163-.566-1.586.455-.262-.915zm7.078-.427l.704-.202-.98-3.417-.704.202.98 3.417zm4.351-2.548c.114.043.19.131.229.264a.353.353 0 01-.059.327c-.075.094-.196.165-.363.213-.451.13-.73.006-.838-.371l-.707.202c.064.221.176.399.336.534.162.134.365.219.609.254.243.034.496.013.759-.062.379-.109.656-.279.832-.511a.861.861 0 00.136-.793.933.933 0 00-.466-.588c-.234-.125-.569-.191-1.004-.197a1.98 1.98 0 01-.556-.069c-.132-.043-.215-.12-.246-.232a.351.351 0 01.061-.327c.074-.1.197-.176.369-.225.179-.051.33-.047.453.012a.471.471 0 01.252.321l.705-.201a1.013 1.013 0 00-.318-.504 1.063 1.063 0 00-.55-.246 1.588 1.588 0 00-.691.053c-.242.07-.45.174-.622.31a1.062 1.062 0 00-.351.47.857.857 0 00-.013.537c.102.355.377.582.825.68.164.036.38.059.647.069.266.008.457.035.571.08zm6.984-.703l-.345-1.204.617-.176c.405-.117.695-.304.868-.562.174-.26.213-.557.117-.892a1.154 1.154 0 00-.326-.544 1.073 1.073 0 00-.565-.272 1.602 1.602 0 00-.717.053l-1.333.382.98 3.417.704-.202zm.12-1.954l-.629.18-.307-1.072.645-.185a.574.574 0 01.454.042.584.584 0 01.265.364c.046.162.033.302-.041.418-.071.115-.2.2-.387.253zm6.399-.723a2.14 2.14 0 00-.075-.935l-.044-.153a2.098 2.098 0 00-.437-.832 1.388 1.388 0 00-.682-.442 1.461 1.461 0 00-.818.01 1.476 1.476 0 00-.701.425c-.181.2-.296.445-.345.737-.047.29-.023.602.074.939l.048.169c.096.328.241.601.436.82a1.411 1.411 0 001.5.42c.286-.082.52-.223.701-.424a1.39 1.39 0 00.343-.734zm-1.26-1.647c.182.15.324.403.427.761l.048.167c.1.356.114.645.04.867a.646.646 0 01-.465.433.65.65 0 01-.636-.13c-.184-.155-.326-.408-.426-.757l-.047-.166c-.101-.356-.113-.644-.037-.863a.651.651 0 01.467-.434.651.651 0 01.629.122zm4.15.024l1.352-.388-.158-.551-1.352.387-.234-.814 1.582-.454-.164-.57-2.285.656.979 3.417 2.291-.657-.162-.566-1.587.455-.262-.915zm4.886-2.88l1.047-.3-.163-.57-2.784.798.164.57 1.032-.296.817 2.847.704-.202-.817-2.846zm4.319.49l.56-.161 1 1.067.756-.217-.01-.033-1.14-1.184a1.07 1.07 0 00.352-.502 1.09 1.09 0 00-.015-.628c-.094-.329-.277-.552-.548-.669-.27-.117-.607-.118-1.011-.002l-1.27.364.98 3.417.704-.202-.358-1.25zm.404-.734l-.568.163-.294-1.025.566-.163c.189-.054.342-.048.459.018.119.066.202.18.248.34a.507.507 0 01-.039.416c-.071.117-.195.2-.372.251zm4.823-3.11l-.27 1.744-1.148-1.337-.772.221 1.747 1.856.355 1.24.716-.206-.356-1.239.498-2.5-.77.221z" clip-rule="evenodd"/>
  <path fill="#197BB3" d="M319.818 125.35l-.763-9.802 2.121-.608.688 13.115-2.044.586-4.916-8.309.185 9.666-2.053.589-6.366-11.487 2.12-.609 4.56 8.696-.302-9.917 1.791-.513 4.979 8.593zm14.594-7.202c.345 1.206.441 2.324.285 3.356-.156 1.027-.553 1.896-1.19 2.609-.633.706-1.453 1.203-2.461 1.492-.997.286-1.957.299-2.878.039-.918-.267-1.72-.79-2.407-1.568-.681-.78-1.193-1.758-1.536-2.934l-.198-.692c-.344-1.2-.437-2.32-.278-3.359.165-1.041.564-1.914 1.197-2.619.636-.713 1.456-1.214 2.459-1.501 1.002-.287 1.959-.3 2.869-.037.915.256 1.713.777 2.396 1.563.681.78 1.196 1.769 1.545 2.967l.197.684zm-2.322-.029c-.391-1.363-.949-2.333-1.676-2.911-.721-.58-1.554-.734-2.501-.463-.923.265-1.543.836-1.858 1.713-.312.869-.283 1.967.085 3.294l.203.71c.388 1.352.949 2.321 1.685 2.909.741.586 1.579.745 2.514.477.946-.271 1.569-.84 1.869-1.707.306-.867.261-1.994-.137-3.38l-.184-.642zm9.283-.787l-2.382.683 1.359 4.739-2.138.613-3.527-12.301 4.326-1.24c1.419-.407 2.606-.403 3.56.012.954.415 1.604 1.226 1.95 2.431.235.822.233 1.57-.007 2.242-.236.665-.666 1.248-1.29 1.75l4.233 4.337.032.109-2.29.657-3.826-4.032zm-2.874-1.032l2.197-.63c.721-.207 1.232-.549 1.534-1.025.301-.483.361-1.039.18-1.67-.189-.659-.524-1.115-1.005-1.367-.475-.254-1.086-.28-1.832-.078l-2.256.647 1.182 4.123zm10.511 3.971l-3.528-12.301 3.633-1.042c1.087-.311 2.12-.345 3.098-.102a5.148 5.148 0 012.551 1.5c.717.757 1.24 1.711 1.57 2.86l.177.616c.334 1.166.394 2.258.18 3.277a5.055 5.055 0 01-1.399 2.614c-.719.724-1.633 1.245-2.742 1.563l-3.54 1.015zm-.896-11.19l2.544 8.871 1.394-.4c1.121-.321 1.879-.917 2.276-1.786.401-.877.419-1.974.054-3.289l-.196-.684c-.383-1.335-.966-2.272-1.748-2.809-.782-.538-1.725-.649-2.829-.332l-1.495.429zm13.027 2.765l1.31 4.571-2.137.613-3.527-12.301 4.705-1.35c1.375-.394 2.567-.349 3.578.136 1.016.483 1.693 1.312 2.03 2.49.346 1.205.218 2.257-.384 3.155-.597.896-1.607 1.548-3.032 1.957l-2.543.729zm-.492-1.715l2.568-.736c.761-.218 1.29-.562 1.588-1.032.297-.475.348-1.05.154-1.726-.19-.665-.545-1.136-1.064-1.414-.52-.284-1.136-.329-1.849-.137l-2.628.753 1.231 4.292zm13.893-2.31l-2.382.683 1.359 4.739-2.137.613-3.528-12.301 4.326-1.24c1.419-.407 2.606-.403 3.56.012.954.415 1.604 1.226 1.95 2.431.236.822.233 1.569-.007 2.242-.236.665-.666 1.248-1.29 1.75l4.234 4.336.031.11-2.289.657-3.827-4.032zm-2.874-1.032l2.197-.63c.721-.207 1.232-.549 1.534-1.025.301-.483.361-1.039.18-1.67-.189-.659-.524-1.115-1.005-1.367-.475-.254-1.086-.28-1.832-.078l-2.256.647 1.182 4.123zm16.126-3.582l-5.052 1.449 1.085 3.785 5.906-1.694.489 1.707-8.043 2.306-3.527-12.3 7.983-2.29.495 1.723-5.847 1.677.974 3.396 5.052-1.449.485 1.69zm9.689-.264c-.155-.541-.466-.903-.933-1.086-.461-.184-1.23-.284-2.307-.298-1.077-.014-1.961-.121-2.652-.319-1.322-.382-2.146-1.14-2.471-2.272-.284-.991-.115-1.923.506-2.796.627-.875 1.585-1.497 2.875-1.867.856-.246 1.665-.307 2.425-.184a3.898 3.898 0 011.968.9c.549.47.926 1.06 1.129 1.77l-2.129.61c-.184-.642-.531-1.085-1.04-1.33-.504-.251-1.131-.27-1.881-.055-.698.2-1.199.506-1.502.916-.297.408-.369.88-.216 1.415.13.45.446.768.95.953.503.179 1.274.275 2.314.287 1.038.007 1.899.11 2.585.31.683.195 1.228.489 1.634.885.404.39.697.9.878 1.531.294 1.025.134 1.955-.48 2.789-.611.828-1.589 1.434-2.935 1.82-.89.255-1.756.327-2.599.215-.839-.119-1.55-.409-2.133-.869-.577-.463-.977-1.08-1.198-1.851l2.138-.613c.2.698.586 1.173 1.158 1.423.571.251 1.288.253 2.15.005.743-.213 1.258-.522 1.544-.927.29-.412.364-.866.222-1.362zm10.443-2.994c-.155-.541-.466-.903-.933-1.086-.462-.185-1.231-.284-2.308-.298-1.077-.015-1.961-.12-2.651-.319-1.323-.383-2.147-1.14-2.471-2.272-.285-.991-.116-1.924.505-2.797.627-.874 1.586-1.497 2.875-1.866.857-.246 1.665-.307 2.426-.184a3.9 3.9 0 011.967.899c.55.47.926 1.06 1.129 1.77l-2.129.61c-.184-.642-.53-1.085-1.039-1.329-.505-.251-1.132-.27-1.881-.055-.698.2-1.199.505-1.502.915-.298.409-.37.88-.216 1.416.129.45.446.768.95.952.502.18 1.273.275 2.313.288 1.038.007 1.9.11 2.585.31.684.194 1.228.49 1.634.885.405.39.697.9.878 1.53.294 1.026.134 1.956-.48 2.79-.61.827-1.588 1.434-2.934 1.82-.89.255-1.757.327-2.599.215-.839-.119-1.55-.409-2.133-.87-.578-.462-.977-1.079-1.198-1.851l2.137-.613c.2.699.586 1.173 1.158 1.424.572.251 1.288.252 2.15.005.744-.213 1.258-.522 1.545-.927.29-.413.364-.867.222-1.362z"/>
  <path stroke="#197BB3" d="M280.741 133.605c1.294 4.512-.965 9.704-5.93 14.482-4.947 4.76-12.486 9.004-21.448 11.574-8.963 2.57-17.605 2.966-24.323 1.55-6.742-1.42-11.409-4.626-12.703-9.138-1.294-4.512.965-9.704 5.93-14.482 4.947-4.76 12.486-9.004 21.448-11.574 8.963-2.57 17.605-2.966 24.323-1.55 6.742 1.42 11.409 4.626 12.703 9.138z"/>
  <path fill="#197BB3" d="M257.704 142.052l-.74-4.262 4.404-1.263.34 1.183-3.267.936.336 2.025a2.643 2.643 0 011.191-.695c.781-.224 1.459-.148 2.034.228.579.374.989.984 1.232 1.829.239.833.189 1.567-.15 2.2-.339.63-.928 1.065-1.765 1.305-.751.215-1.435.182-2.052-.1-.615-.287-1.043-.774-1.285-1.461l1.324-.379c.167.383.397.648.691.795.293.144.628.162 1.003.054.421-.121.704-.365.851-.732.15-.368.151-.811.003-1.329-.144-.5-.386-.857-.728-1.072-.343-.218-.742-.262-1.196-.132a1.803 1.803 0 00-.602.282c-.154.114-.306.295-.453.545l-1.171.043zm7.884.58c.255-.074.473-.057.654.05a.77.77 0 01.363.481.764.764 0 01-.055.595c-.099.178-.276.304-.531.378-.244.07-.458.055-.64-.043a.742.742 0 01-.368-.473.777.777 0 01.054-.601c.097-.186.271-.315.523-.387zm6.486-3.463l1.019-.293.315 1.099-1.019.292.523 1.825-1.369.392-.523-1.825-3.543 1.016-.278-.822 1.948-6.557 1.413-.405 1.514 5.278zm-3.515 1.007l2.146-.615-.982-3.424-.05.209-1.114 3.83z"/>
</svg>
