<svg width="16" height="16" viewBox="0, 0, 20, 20" fill="none" xmlns="http://www.w3.org/2000/svg"><path d="M19 10a9 9 0 1 1-18 0 9 9 0 0 1 18 0Z" fill="#EEFCF0" stroke="#AED9B6" stroke-width="2"/><path fill-rule="evenodd" clip-rule="evenodd" d="M13.707 8.707a1 1 0 0 0-1.414-1.414L9 10.586 7.707 9.293a1 1 0 0 0-1.414 1.414l2 2a1 1 0 0 0 1.414 0l4-4Z" fill="#399F4B"/><path d="M13.707 8.707a1 1 0 0 0-1.414-1.414L9 10.586 7.707 9.293a1 1 0 0 0-1.414 1.414l2 2a1 1 0 0 0 1.414 0l4-4Z" fill="#399F4B"/></svg>
