<svg xmlns="http://www.w3.org/2000/svg" width="22" height="21" fill="none" viewBox="0 0 22 21"><mask id="iJGXzna" width="18" height="18" x="2" y="2" maskUnits="userSpaceOnUse"><path fill="#fff" fill-rule="evenodd" d="M12 8.5H17V6.5H12V8.5ZM12 15.5H17V13.5H12V15.5ZM18 20H4C2.9 20 2 19.1 2 18V4C2 2.9 2.9 2 4 2H18C19.1 2 20 2.9 20 4V18C20 19.1 19.1 20 18 20ZM5 10H10V5H5V10ZM6 6H9V9H6V6ZM5 17H10V12H5V17ZM6 13H9V16H6V13Z" clip-rule="evenodd"/></mask><g mask="url(#iJGXzna)"><path fill="#000" d="M0 0H22V21H0z"/></g></svg>
