<svg width="12" height="12" viewBox="0 0 12 12" fill="none" xmlns="http://www.w3.org/2000/svg">
<path fill-rule="evenodd" clip-rule="evenodd" d="M1.18306 1.18306C0.938981 1.42714 0.938981 1.82286 1.18306 2.06694L5.11612 6L1.18306 9.93306C0.938981 10.1771 0.938981 10.5729 1.18306 10.8169C1.42714 11.061 1.82286 11.061 2.06694 10.8169L6 6.88388L9.93306 10.8169C10.1771 11.061 10.5729 11.061 10.8169 10.8169C11.061 10.5729 11.061 10.1771 10.8169 9.93306L6.88388 6L10.8169 2.06694C11.061 1.82286 11.061 1.42714 10.8169 1.18306C10.5729 0.938981 10.1771 0.938981 9.93306 1.18306L6 5.11612L2.06694 1.18306C1.82286 0.938981 1.42714 0.938981 1.18306 1.18306Z" fill="#E54C3B"/>
<path d="M1.18306 2.06694L0.829505 2.4205H0.829505L1.18306 2.06694ZM1.18306 1.18306L0.829505 0.829505L1.18306 1.18306ZM5.11612 6L5.46967 6.35355L5.82322 6L5.46967 5.64645L5.11612 6ZM1.18306 9.93306L0.829505 9.5795L1.18306 9.93306ZM1.18306 10.8169L0.829505 11.1705L1.18306 10.8169ZM6 6.88388L6.35355 6.53033L6 6.17678L5.64645 6.53033L6 6.88388ZM9.93306 10.8169L10.2866 10.4634L9.93306 10.8169ZM10.8169 9.93306L10.4634 10.2866L10.8169 9.93306ZM6.88388 6L6.53033 5.64645L6.17678 6L6.53033 6.35355L6.88388 6ZM10.8169 1.18306L11.1705 0.829505L10.8169 1.18306ZM9.93306 1.18306L9.5795 0.829505L9.93306 1.18306ZM6 5.11612L5.64645 5.46967L6 5.82322L6.35355 5.46967L6 5.11612ZM2.06694 1.18306L2.4205 0.829505V0.829505L2.06694 1.18306ZM1.53661 1.71339C1.4878 1.66457 1.4878 1.58543 1.53661 1.53661L0.829505 0.829505C0.390165 1.26884 0.390165 1.98116 0.829505 2.4205L1.53661 1.71339ZM5.46967 5.64645L1.53661 1.71339L0.829505 2.4205L4.76256 6.35355L5.46967 5.64645ZM1.53661 10.2866L5.46967 6.35355L4.76256 5.64645L0.829505 9.5795L1.53661 10.2866ZM1.53661 10.4634C1.4878 10.4146 1.4878 10.3354 1.53661 10.2866L0.829505 9.5795C0.390165 10.0188 0.390165 10.7312 0.829505 11.1705L1.53661 10.4634ZM1.71339 10.4634C1.66457 10.5122 1.58543 10.5122 1.53661 10.4634L0.829505 11.1705C1.26884 11.6098 1.98116 11.6098 2.4205 11.1705L1.71339 10.4634ZM5.64645 6.53033L1.71339 10.4634L2.4205 11.1705L6.35355 7.23744L5.64645 6.53033ZM10.2866 10.4634L6.35355 6.53033L5.64645 7.23744L9.5795 11.1705L10.2866 10.4634ZM10.4634 10.4634C10.4146 10.5122 10.3354 10.5122 10.2866 10.4634L9.5795 11.1705C10.0188 11.6098 10.7312 11.6098 11.1705 11.1705L10.4634 10.4634ZM10.4634 10.2866C10.5122 10.3354 10.5122 10.4146 10.4634 10.4634L11.1705 11.1705C11.6098 10.7312 11.6098 10.0188 11.1705 9.5795L10.4634 10.2866ZM6.53033 6.35355L10.4634 10.2866L11.1705 9.5795L7.23744 5.64645L6.53033 6.35355ZM10.4634 1.71339L6.53033 5.64645L7.23744 6.35355L11.1705 2.4205L10.4634 1.71339ZM10.4634 1.53661C10.5122 1.58543 10.5122 1.66457 10.4634 1.71339L11.1705 2.4205C11.6098 1.98116 11.6098 1.26884 11.1705 0.829505L10.4634 1.53661ZM10.2866 1.53661C10.3354 1.4878 10.4146 1.4878 10.4634 1.53661L11.1705 0.829505C10.7312 0.390165 10.0188 0.390165 9.5795 0.829505L10.2866 1.53661ZM6.35355 5.46967L10.2866 1.53661L9.5795 0.829505L5.64645 4.76256L6.35355 5.46967ZM1.71339 1.53661L5.64645 5.46967L6.35355 4.76256L2.4205 0.829505L1.71339 1.53661ZM1.53661 1.53661C1.58543 1.4878 1.66457 1.4878 1.71339 1.53661L2.4205 0.829505C1.98116 0.390165 1.26884 0.390165 0.829505 0.829505L1.53661 1.53661Z" fill="#E54C3B"/>
</svg>
