<?xml version="1.0" encoding="utf-8"?>
<svg id="Icons" viewBox="11.699 2.477 10.886 10.047" xmlns="http://www.w3.org/2000/svg">
  <defs>
    <style>.cls-1{fill:#232323;}</style>
  </defs>
  <path class="cls-1" d="M 21.593 6.508 L 15.078 6.508 L 17.346 4.204 C 17.895 3.667 17.664 2.729 16.932 2.516 C 16.58 2.414 16.202 2.517 15.947 2.783 L 11.989 6.802 C 11.602 7.194 11.602 7.831 11.989 8.222 L 15.947 12.241 C 16.496 12.779 17.411 12.512 17.595 11.761 C 17.677 11.425 17.585 11.07 17.346 10.821 L 15.078 8.517 L 21.593 8.517 C 22.357 8.517 22.832 7.68 22.451 7.01 C 22.274 6.699 21.948 6.508 21.593 6.508 Z" style="fill-rule: nonzero; transform-box: fill-box; transform-origin: 50% 50%;" transform="matrix(-1, 0, 0, -1, 0.000001, -0.000001)"/>
</svg>