<?xml version="1.0" encoding="UTF-8"?>
<svg width="31px" height="30px" viewBox="0 0 31 30" version="1.1" xmlns="http://www.w3.org/2000/svg" xmlns:xlink="http://www.w3.org/1999/xlink">
    <title>ai-icon</title>
    <g id="Page-1" stroke="none" stroke-width="1" fill="none" fill-rule="evenodd">
        <g id="3rd-party-themes---pop-up---step-1" transform="translate(-793, -437)" fill-rule="nonzero">
            <g id="Group-5" transform="translate(644, 248)">
                <g id="Group-8" transform="translate(29.9525, 119)">
                    <g id="ai-icon" transform="translate(119.8098, 70)">
                        <path d="M11.0815016,23.1414972 L12.492791,23.1414972 C12.7059245,23.1414972 12.8902561,22.9972595 12.9363391,22.7895572 L13.4317304,20.7125343 C13.4490115,20.6548392 13.5008548,20.6086831 13.5584584,20.6086831 L16.2197469,20.6086831 C16.283111,20.6086831 16.3349542,20.6490697 16.346475,20.7125343 L16.8303456,22.7837877 C16.8764285,22.99149 17.0607602,23.1357277 17.2738937,23.1357277 L18.7658281,23.1357277 C18.9098373,23.1357277 19.0365653,23.0722631 19.1229708,22.9626424 C19.2093762,22.8530218 19.2381781,22.7087841 19.2093762,22.5703159 L16.4444012,11.2274629 C16.3925579,11.0197606 16.2139866,10.8812924 16.0008531,10.8812924 L13.8867992,10.8812924 C13.6736657,10.8812924 13.4950944,11.0255301 13.4432511,11.2274629 L10.6264328,22.5703159 C10.5918706,22.7087841 10.6206724,22.8530218 10.7070779,22.9626424 C10.8107645,23.0780326 10.9432529,23.1414972 11.0815016,23.1414972 Z M13.8291956,18.2720323 L14.9006234,13.8352805 C14.9006234,13.829511 14.9063838,13.806433 14.940946,13.806433 C14.9755082,13.806433 14.9812685,13.829511 14.9812685,13.8410501 L15.9662909,18.2778018 C15.9778116,18.3239579 15.9662909,18.3758835 15.9317287,18.41627 C15.8971665,18.4566566 15.8510836,18.4797346 15.7992403,18.4797346 L13.9962462,18.4797346 C13.9444029,18.4797346 13.89832,18.4566566 13.8637578,18.41627 C13.8291956,18.3701139 13.8176749,18.3181884 13.8291956,18.2720323 Z" id="Shape" fill="#1E1E1E"></path>
                        <path d="M20.3499284,21.23179 L20.2520022,21.23179 C19.9812651,21.23179 19.7623712,21.4510313 19.7623712,21.7221982 L19.7623712,22.651089 C19.7623712,22.9222559 19.9812651,23.1414972 20.2520022,23.1414972 L20.6782692,23.1414972 L22.7001572,23.1414972 L23.1264242,23.1414972 C23.3971614,23.1414972 23.6160552,22.9222559 23.6160552,22.651089 L23.6160552,21.7221982 C23.6160552,21.4510313 23.3971614,21.23179 23.1264242,21.23179 L23.028498,21.23179 C22.9363322,21.23179 22.8614475,21.1567864 22.8614475,21.0644743 L22.8614475,12.9583153 C22.8614475,12.8660032 22.9363322,12.7909996 23.028498,12.7909996 L23.1264242,12.7909996 C23.3971614,12.7909996 23.6160552,12.5717583 23.6160552,12.3005914 L23.6160552,11.3717006 C23.6160552,11.1005337 23.3971614,10.8812924 23.1264242,10.8812924 L22.7001572,10.8812924 L20.6782692,10.8812924 L20.2520022,10.8812924 C19.9812651,10.8812924 19.7623712,11.1005337 19.7623712,11.3717006 L19.7623712,12.3005914 C19.7623712,12.5717583 19.9812651,12.7909996 20.2520022,12.7909996 L20.3499284,12.7909996 C20.4420943,12.7909996 20.516979,12.8660032 20.516979,12.9583153 L20.516979,21.0644743 C20.516979,21.1567864 20.4420943,21.23179 20.3499284,21.23179 Z" id="Path" fill="#1E1E1E"></path>
                        <path d="M28.0169739,4.15981538 L12.5043117,4.15981538 L12.4409477,4.15981538 L12.2796575,4.15981538 L12.2796575,4.3213616 C12.2738971,4.82907832 12.4697495,5.31371701 12.8326525,5.67719602 C13.1897951,6.04067503 13.6679054,6.23683831 14.1805778,6.23683831 L27.1241173,6.23683831 C27.5388636,6.23683831 27.8787251,6.57723929 27.8787251,6.99264388 L27.8787251,27.0301457 C27.8787251,27.4455503 27.5388636,27.7859512 27.1241173,27.7859512 L7.11837069,27.7859512 C6.70362444,27.7859512 6.36376292,27.4455503 6.36376292,27.0301457 L6.36376292,21.3241021 C6.36376292,20.2855907 5.5169893,19.437473 4.48012366,19.437473 C4.46860293,19.437473 4.46284256,19.437473 4.45132183,19.437473 L4.29003162,19.437473 L4.29003162,19.5990192 L4.29003162,27.9244194 C4.29003162,28.9917785 5.15984669,29.8629742 6.22551416,29.8629742 L28.0169739,29.8629742 C29.0826413,29.8629742 29.9524564,28.9917785 29.9524564,27.9244194 L29.9524564,6.09837011 C29.9524564,5.0252416 29.0826413,4.15981538 28.0169739,4.15981538 Z" id="Path" fill="#1E1E1E"></path>
                        <path d="M6.04694286,9.6293091 C6.24855562,9.97547959 6.62297933,10.1947209 7.02044449,10.1947209 C7.42367002,10.1947209 7.79233337,9.9812491 7.99394613,9.6293091 L10.2865713,5.665657 C10.4881841,5.31948651 10.4881841,4.88100389 10.2865713,4.53483341 L7.99394613,0.565411799 C7.79233337,0.21924131 7.41790966,0 7.02044449,0 C6.61721896,0 6.24855562,0.213471802 6.04694286,0.565411799 L3.76007807,4.5290639 C3.5584653,4.87523439 3.5584653,5.3079475 3.76007807,5.65988749 L6.04694286,9.6293091 Z M7.16445361,6.56570027 C7.12413106,6.64070388 7.05500668,6.64647339 7.02620486,6.64647339 C6.99740304,6.64647339 6.92827866,6.64070388 6.88795611,6.56570027 L6.08726541,5.17524881 C6.05846359,5.12332324 6.05846359,5.06562816 6.08726541,5.01370258 L6.88219574,3.62325112 C6.92251829,3.54824751 6.99164267,3.542478 7.02044449,3.542478 C7.04924632,3.542478 7.11837069,3.54824751 7.15869325,3.62325112 L7.95938394,5.01370258 C7.98818577,5.06562816 7.98818577,5.12332324 7.95938394,5.17524881 L7.16445361,6.56570027 Z" id="Shape" fill="#EB7442"></path>
                        <path d="M3.61606895,17.6720035 L5.47090639,14.4583874 C5.63795696,14.1641425 5.63795696,13.8006635 5.47090639,13.5064186 L3.61606895,10.298572 C3.44901837,10.0043271 3.13219831,9.82547238 2.79809716,9.82547238 C2.45823564,9.82547238 2.14717595,10.0100966 1.98012537,10.298572 L0.125287933,13.5064186 C-0.0417626442,13.8006635 -0.0417626442,14.1641425 0.125287933,14.4583874 L1.97436501,17.666234 C2.14141558,17.9604789 2.45823564,18.1393336 2.79233679,18.1393336 C3.13219831,18.1451031 3.44901837,17.9604789 3.61606895,17.6720035 Z M2.87874227,15.1564979 C2.85570081,15.1968845 2.81537825,15.202654 2.79809716,15.202654 C2.78081607,15.202654 2.74049351,15.1968845 2.71745205,15.1564979 L2.06653084,14.0314438 C2.04924975,14.0025963 2.04924975,13.9679792 2.06653084,13.9391317 L2.71745205,12.8140776 C2.74049351,12.773691 2.78081607,12.7679215 2.79809716,12.7679215 C2.81537825,12.7679215 2.85570081,12.773691 2.87874227,12.8140776 L3.52966348,13.9391317 C3.54694457,13.9679792 3.54694457,14.0025963 3.52966348,14.0314438 L2.87874227,15.1564979 Z" id="Shape" fill="#EB7442"></path>
                        <path d="M8.73703318,11.4178566 C8.55846187,11.4178566 8.39717166,11.5101688 8.31076619,11.6659455 L7.44095112,13.1775566 C7.35454565,13.3275638 7.35454565,13.5179576 7.44095112,13.6737343 L8.31076619,15.1853454 C8.39717166,15.3353527 8.56422224,15.4334343 8.73703318,15.4334343 C8.91560449,15.4334343 9.0768947,15.3411222 9.16330017,15.1853454 L10.0331152,13.6737343 C10.1195207,13.5179576 10.1195207,13.3333333 10.0331152,13.1775566 L9.16330017,11.6659455 C9.0768947,11.5159383 8.91560449,11.4178566 8.73703318,11.4178566 Z" id="Path" fill="#EB7442"></path>
                    </g>
                </g>
            </g>
        </g>
    </g>
</svg>