<?xml version="1.0" encoding="UTF-8"?>
<svg width="24px" height="30px" viewBox="0 0 24 30" version="1.1" xmlns="http://www.w3.org/2000/svg" xmlns:xlink="http://www.w3.org/1999/xlink">
    <title>Shape</title>
    <g id="Page-1" stroke="none" stroke-width="1" fill="none" fill-rule="evenodd">
        <g id="3rd-party-themes---pop-up---step-1" transform="translate(-1076, -434)" fill="#EB7442" fill-rule="nonzero">
            <g id="Group-5" transform="translate(644, 248)">
                <g id="Group-6" transform="translate(314.5246, 119)">
                    <g id="lock_FILL0_wght400_GRAD0_opsz24" transform="translate(117.7971, 67)">
                        <path d="M2.88827258,30 C2.09399762,30 1.41405012,29.7202381 0.848430071,29.1607143 C0.282810024,28.6011905 0,27.9285714 0,27.1428571 L0,12.8571429 C0,12.0714286 0.282810024,11.3988095 0.848430071,10.8392857 C1.41405012,10.2797619 2.09399762,10 2.88827258,10 L4.33240887,10 L4.33240887,7.14285714 C4.33240887,5.16666667 5.03642532,3.48214286 6.4444582,2.08928571 C7.85249109,0.696428571 9.55536846,0 11.5530903,0 C13.5508122,0 15.2536896,0.696428571 16.6617225,2.08928571 C18.0697553,3.48214286 18.7737718,5.16666667 18.7737718,7.14285714 L18.7737718,10 L20.2179081,10 C21.012183,10 21.6921305,10.2797619 22.2577506,10.8392857 C22.8233706,11.3988095 23.1061807,12.0714286 23.1061807,12.8571429 L23.1061807,27.1428571 C23.1061807,27.9285714 22.8233706,28.6011905 22.2577506,29.1607143 C21.6921305,29.7202381 21.012183,30 20.2179081,30 L2.88827258,30 Z M2.88827258,27.1428571 L20.2179081,27.1428571 L20.2179081,12.8571429 L2.88827258,12.8571429 L2.88827258,27.1428571 Z M11.5530903,22.8571429 C12.3473653,22.8571429 13.0273128,22.577381 13.5929328,22.0178571 C14.1585529,21.4583333 14.4413629,20.7857143 14.4413629,20 C14.4413629,19.2142857 14.1585529,18.5416667 13.5929328,17.9821429 C13.0273128,17.422619 12.3473653,17.1428571 11.5530903,17.1428571 C10.7588154,17.1428571 10.0788679,17.422619 9.51324782,17.9821429 C8.94762777,18.5416667 8.66481775,19.2142857 8.66481775,20 C8.66481775,20.7857143 8.94762777,21.4583333 9.51324782,22.0178571 C10.0788679,22.577381 10.7588154,22.8571429 11.5530903,22.8571429 Z M7.22068146,10 L15.8854992,10 L15.8854992,7.14285714 C15.8854992,5.95238095 15.4642928,4.94047619 14.62188,4.10714286 C13.7794671,3.27380952 12.7565372,2.85714286 11.5530903,2.85714286 C10.3496434,2.85714286 9.32671355,3.27380952 8.48430071,4.10714286 C7.64188788,4.94047619 7.22068146,5.95238095 7.22068146,7.14285714 L7.22068146,10 Z M2.94242769,27.1428571 L2.94242769,12.8571429 L2.94242769,27.1428571 Z" id="Shape"></path>
                    </g>
                </g>
            </g>
        </g>
    </g>
</svg>