<svg width="32" height="32" viewBox="0 0 32 32" fill="none" xmlns="http://www.w3.org/2000/svg">
<path opacity="0.2" d="M29.9726 10.8275L25.3476 25C25.3476 25 22.0001 23 16.0001 23C10.0001 23 6.65259 25 6.65259 25L2.02759 10.8288C1.9943 10.7324 1.99052 10.6283 2.01673 10.5298C2.04294 10.4312 2.09795 10.3427 2.17472 10.2756C2.25149 10.2085 2.34653 10.1658 2.44769 10.1531C2.54885 10.1403 2.65152 10.1579 2.74259 10.2038L9.41884 13.5313C9.53455 13.5891 9.66782 13.6011 9.79202 13.565C9.91622 13.5289 10.0222 13.4472 10.0888 13.3363L15.5601 4.25005C15.6061 4.17534 15.6704 4.11365 15.747 4.07087C15.8236 4.02808 15.9099 4.00562 15.9976 4.00562C16.0853 4.00562 16.1716 4.02808 16.2482 4.07087C16.3247 4.11365 16.3891 4.17534 16.4351 4.25005L21.9063 13.3425C21.9731 13.4529 22.0789 13.5342 22.2027 13.5703C22.3266 13.6064 22.4594 13.5947 22.5751 13.5375L29.2538 10.2075C29.3446 10.1612 29.447 10.143 29.5482 10.1552C29.6493 10.1674 29.7445 10.2094 29.8216 10.2759C29.8988 10.3425 29.9543 10.4305 29.9812 10.5287C30.0081 10.627 30.0051 10.731 29.9726 10.8275Z" fill="#FF9900"/>
<path d="M30.48 9.52371C30.2544 9.32702 29.9754 9.20181 29.6785 9.16397C29.3817 9.12614 29.0802 9.17739 28.8125 9.31121L22.5362 12.4362L17.2962 3.73246C17.1615 3.50912 16.9714 3.32437 16.7443 3.19612C16.5172 3.06788 16.2608 3.00049 16 3.00049C15.7392 3.00049 15.4828 3.06788 15.2557 3.19612C15.0286 3.32437 14.8384 3.50912 14.7037 3.73246L9.46375 12.44L3.19 9.31496C2.92292 9.18232 2.62262 9.13152 2.32678 9.16893C2.03094 9.20634 1.75274 9.33029 1.52709 9.52523C1.30143 9.72017 1.13839 9.97742 1.0584 10.2647C0.978416 10.552 0.985058 10.8565 1.07749 11.14L5.70249 25.31C5.749 25.4523 5.82688 25.5824 5.93039 25.6906C6.0339 25.7989 6.16039 25.8825 6.30054 25.9352C6.44068 25.988 6.59089 26.0087 6.74008 25.9957C6.88927 25.9826 7.03363 25.9363 7.16249 25.86C7.19374 25.8412 10.39 24 16 24C21.61 24 24.8062 25.8412 24.835 25.8587C24.9639 25.9357 25.1085 25.9827 25.2581 25.9962C25.4076 26.0097 25.5583 25.9893 25.6989 25.9366C25.8396 25.8839 25.9665 25.8002 26.0703 25.6917C26.1742 25.5832 26.2522 25.4527 26.2987 25.31L30.9237 11.1437C31.0188 10.8601 31.0274 10.5547 30.9484 10.2662C30.8694 9.9777 30.7063 9.71925 30.48 9.52371ZM24.75 23.6037C23.25 22.9675 20.26 22 16 22C11.74 22 8.74999 22.9675 7.24999 23.6037L3.33874 11.625L8.97249 14.4337C9.3135 14.6019 9.70513 14.6363 10.0702 14.5301C10.4353 14.4239 10.7474 14.1848 10.945 13.86L16 5.45746L21.055 13.8575C21.2528 14.1818 21.5646 14.4204 21.9294 14.5266C22.2941 14.6327 22.6853 14.5987 23.0262 14.4312L28.6612 11.625L24.75 23.6037ZM21.9837 19.6037C21.9429 19.835 21.822 20.0446 21.6421 20.1957C21.4622 20.3468 21.2349 20.4297 21 20.43C20.9413 20.4299 20.8828 20.4249 20.825 20.415C17.6309 19.8666 14.3666 19.8666 11.1725 20.415C10.9113 20.461 10.6424 20.4015 10.4251 20.2493C10.2078 20.0972 10.0598 19.8649 10.0137 19.6037C9.96766 19.3425 10.0272 19.0736 10.1794 18.8563C10.3315 18.639 10.5638 18.491 10.825 18.445C14.2491 17.8566 17.7484 17.8566 21.1725 18.445C21.4332 18.4907 21.6652 18.638 21.8175 18.8545C21.9698 19.071 22.03 19.3391 21.985 19.6L21.9837 19.6037Z" fill="#FF9900"/>
</svg>
