<svg width="40" height="40" viewBox="0 0 40 40" fill="none" xmlns="http://www.w3.org/2000/svg">
<path opacity="0.2" d="M30 8.75V31.25H10V8.75H30Z" fill="#6448E7"/>
<path d="M27.5 2.5H12.5C11.5054 2.5 10.5516 2.89509 9.84835 3.59835C9.14509 4.30161 8.75 5.25544 8.75 6.25V33.75C8.75 34.7446 9.14509 35.6984 9.84835 36.4016C10.5516 37.1049 11.5054 37.5 12.5 37.5H27.5C28.4946 37.5 29.4484 37.1049 30.1517 36.4016C30.8549 35.6984 31.25 34.7446 31.25 33.75V6.25C31.25 5.25544 30.8549 4.30161 30.1517 3.59835C29.4484 2.89509 28.4946 2.5 27.5 2.5ZM11.25 10H28.75V30H11.25V10ZM12.5 5H27.5C27.8315 5 28.1495 5.1317 28.3839 5.36612C28.6183 5.60054 28.75 5.91848 28.75 6.25V7.5H11.25V6.25C11.25 5.91848 11.3817 5.60054 11.6161 5.36612C11.8505 5.1317 12.1685 5 12.5 5ZM27.5 35H12.5C12.1685 35 11.8505 34.8683 11.6161 34.6339C11.3817 34.3995 11.25 34.0815 11.25 33.75V32.5H28.75V33.75C28.75 34.0815 28.6183 34.3995 28.3839 34.6339C28.1495 34.8683 27.8315 35 27.5 35Z" fill="#6448E7"/>
</svg>
