<svg width="32" height="32" viewBox="0 0 32 32" fill="none" xmlns="http://www.w3.org/2000/svg">
<path d="M10 8C10 7.73478 10.1054 7.48043 10.2929 7.29289C10.4804 7.10536 10.7348 7 11 7H27C27.2652 7 27.5196 7.10536 27.7071 7.29289C27.8946 7.48043 28 7.73478 28 8C28 8.26522 27.8946 8.51957 27.7071 8.70711C27.5196 8.89464 27.2652 9 27 9H11C10.7348 9 10.4804 8.89464 10.2929 8.70711C10.1054 8.51957 10 8.26522 10 8ZM27 15H11C10.7348 15 10.4804 15.1054 10.2929 15.2929C10.1054 15.4804 10 15.7348 10 16C10 16.2652 10.1054 16.5196 10.2929 16.7071C10.4804 16.8946 10.7348 17 11 17H27C27.2652 17 27.5196 16.8946 27.7071 16.7071C27.8946 16.5196 28 16.2652 28 16C28 15.7348 27.8946 15.4804 27.7071 15.2929C27.5196 15.1054 27.2652 15 27 15ZM27 23H11C10.7348 23 10.4804 23.1054 10.2929 23.2929C10.1054 23.4804 10 23.7348 10 24C10 24.2652 10.1054 24.5196 10.2929 24.7071C10.4804 24.8946 10.7348 25 11 25H27C27.2652 25 27.5196 24.8946 27.7071 24.7071C27.8946 24.5196 28 24.2652 28 24C28 23.7348 27.8946 23.4804 27.7071 23.2929C27.5196 23.1054 27.2652 23 27 23ZM5.5 6.5C5.20333 6.5 4.91332 6.58797 4.66665 6.7528C4.41997 6.91762 4.22771 7.15189 4.11418 7.42597C4.00065 7.70006 3.97094 8.00166 4.02882 8.29264C4.0867 8.58361 4.22956 8.85088 4.43934 9.06066C4.64912 9.27044 4.91639 9.4133 5.20737 9.47118C5.49834 9.52906 5.79994 9.49935 6.07403 9.38582C6.34812 9.27229 6.58238 9.08003 6.74721 8.83335C6.91203 8.58668 7 8.29667 7 8C7 7.60218 6.84197 7.22064 6.56066 6.93934C6.27936 6.65804 5.89783 6.5 5.5 6.5ZM5.5 14.5C5.20333 14.5 4.91332 14.588 4.66665 14.7528C4.41997 14.9176 4.22771 15.1519 4.11418 15.426C4.00065 15.7001 3.97094 16.0017 4.02882 16.2926C4.0867 16.5836 4.22956 16.8509 4.43934 17.0607C4.64912 17.2704 4.91639 17.4133 5.20737 17.4712C5.49834 17.5291 5.79994 17.4993 6.07403 17.3858C6.34812 17.2723 6.58238 17.08 6.74721 16.8334C6.91203 16.5867 7 16.2967 7 16C7 15.6022 6.84197 15.2206 6.56066 14.9393C6.27936 14.658 5.89783 14.5 5.5 14.5ZM5.5 22.5C5.20333 22.5 4.91332 22.588 4.66665 22.7528C4.41997 22.9176 4.22771 23.1519 4.11418 23.426C4.00065 23.7001 3.97094 24.0017 4.02882 24.2926C4.0867 24.5836 4.22956 24.8509 4.43934 25.0607C4.64912 25.2704 4.91639 25.4133 5.20737 25.4712C5.49834 25.5291 5.79994 25.4993 6.07403 25.3858C6.34812 25.2723 6.58238 25.08 6.74721 24.8334C6.91203 24.5867 7 24.2967 7 24C7 23.6022 6.84197 23.2206 6.56066 22.9393C6.27936 22.658 5.89783 22.5 5.5 22.5Z" fill="black"/>
</svg>
