<svg width="32" height="32" viewBox="0 0 32 32" fill="none" xmlns="http://www.w3.org/2000/svg">
<path d="M29.0001 4C29.0001 3.73478 28.8948 3.48043 28.7072 3.29289C28.5197 3.10536 28.2653 3 28.0001 3C22.4901 3 16.8364 9.21375 13.6964 13.3287C12.5749 12.9853 11.3886 12.9096 10.2327 13.1078C9.0767 13.306 7.98333 13.7726 7.04038 14.47C6.09743 15.1674 5.33118 16.0762 4.80317 17.1234C4.27515 18.1707 4.0001 19.3272 4.00011 20.5C4.00011 24.36 1.55761 26.0912 1.44136 26.1712C1.26397 26.291 1.12969 26.4646 1.05828 26.6664C0.986864 26.8681 0.982076 27.0875 1.04462 27.2922C1.10716 27.4969 1.23374 27.6761 1.40573 27.8035C1.57773 27.931 1.78606 27.9998 2.00011 28H11.5001C12.6729 28 13.8294 27.725 14.8767 27.1969C15.9239 26.6689 16.8327 25.9027 17.5301 24.9597C18.2275 24.0168 18.6941 22.9234 18.8923 21.7675C19.0905 20.6115 19.0148 19.4252 18.6714 18.3037C22.7876 15.1637 29.0001 9.51 29.0001 4ZM11.5001 26H4.32886C5.17261 24.8012 6.00011 22.99 6.00011 20.5C6.00011 19.4122 6.32268 18.3488 6.92703 17.4444C7.53137 16.5399 8.39035 15.8349 9.39535 15.4187C10.4003 15.0024 11.5062 14.8935 12.5731 15.1057C13.64 15.3179 14.62 15.8417 15.3892 16.6109C16.1584 17.3801 16.6822 18.3601 16.8944 19.427C17.1066 20.4939 16.9977 21.5998 16.5814 22.6048C16.1652 23.6098 15.4602 24.4687 14.5557 25.0731C13.6513 25.6774 12.5879 26 11.5001 26ZM15.5526 14.1938C15.9809 13.6388 16.4014 13.1158 16.8139 12.625C17.8235 13.3071 18.693 14.1766 19.3751 15.1862C18.8834 15.5979 18.3605 16.0183 17.8064 16.4475C17.2236 15.5448 16.4553 14.7765 15.5526 14.1938ZM20.8901 13.8588C20.1352 12.7935 19.2054 11.8637 18.1401 11.1088C22.1126 6.7925 25.1089 5.48375 26.8776 5.12C26.5214 6.89 25.2064 9.88625 20.8901 13.8588Z" fill="black"/>
</svg>
