<?xml version="1.0" encoding="UTF-8"?>
<svg width="154px" height="110px" viewBox="0 0 154 110" version="1.1" xmlns="http://www.w3.org/2000/svg" xmlns:xlink="http://www.w3.org/1999/xlink">
    <!-- Generator: Sketch 53 (72520) - https://sketchapp.com -->
    <title>archive_layout_3</title>
    <desc>Created with Sketch.</desc>
    <g id="archive_layout_3" stroke="none" stroke-width="1" fill="none" fill-rule="evenodd">
        <rect fill="#FFFFFF" x="0" y="0" width="154" height="110"></rect>
        <path d="M16.157,11.947 C16.3130008,11.947 16.4434995,11.9964995 16.5485,12.0955 C16.6535005,12.1945005 16.706,12.3219992 16.706,12.478 C16.706,12.6280008 16.6535005,12.7524995 16.5485,12.8515 C16.4434995,12.9505005 16.3130008,13 16.157,13 L13.232,13 C13.0759992,13 12.9455005,12.9475005 12.8405,12.8425 C12.7354995,12.7374995 12.683,12.6070008 12.683,12.451 L12.683,7.249 C12.683,7.09299922 12.7369995,6.96250053 12.845,6.8575 C12.9530005,6.75249948 13.0909992,6.7 13.259,6.7 C13.4090007,6.7 13.5379995,6.75249948 13.646,6.8575 C13.7540005,6.96250053 13.808,7.09299922 13.808,7.249 L13.808,11.947 L16.157,11.947 Z M23.537,9.85 C23.537,10.444003 23.4050013,10.9884975 23.141,11.4835 C22.8769987,11.9785025 22.5125023,12.3699986 22.0475,12.658 C21.5824977,12.9460014 21.0590029,13.09 20.477,13.09 C19.8949971,13.09 19.3715023,12.9460014 18.9065,12.658 C18.4414977,12.3699986 18.0785013,11.9785025 17.8175,11.4835 C17.5564987,10.9884975 17.426,10.444003 17.426,9.85 C17.426,9.25599703 17.5564987,8.71150248 17.8175,8.2165 C18.0785013,7.72149753 18.4414977,7.33000144 18.9065,7.042 C19.3715023,6.75399856 19.8949971,6.61 20.477,6.61 C21.0590029,6.61 21.5824977,6.75399856 22.0475,7.042 C22.5125023,7.33000144 22.8769987,7.72149753 23.141,8.2165 C23.4050013,8.71150248 23.537,9.25599703 23.537,9.85 Z M22.367,9.85 C22.367,9.44799799 22.2860008,9.08350164 22.124,8.7565 C21.9619992,8.42949837 21.7370014,8.17000096 21.449,7.978 C21.1609986,7.78599904 20.8370018,7.69 20.477,7.69 C20.1109982,7.69 19.7855014,7.78449906 19.5005,7.9735 C19.2154986,8.16250095 18.9935008,8.42199835 18.8345,8.752 C18.6754992,9.08200165 18.596,9.44799799 18.596,9.85 C18.596,10.252002 18.6754992,10.6179984 18.8345,10.948 C18.9935008,11.2780017 19.2154986,11.5374991 19.5005,11.7265 C19.7855014,11.9155009 20.1109982,12.01 20.477,12.01 C20.8370018,12.01 21.1609986,11.914001 21.449,11.722 C21.7370014,11.529999 21.9619992,11.2705016 22.124,10.9435 C22.2860008,10.6164984 22.367,10.252002 22.367,9.85 Z M29.216,9.598 C29.3720008,9.598 29.5009995,9.65049948 29.603,9.7555 C29.7050005,9.86050053 29.756,9.99099922 29.756,10.147 L29.756,12.055 C29.756,12.2650011 29.6630009,12.4269994 29.477,12.541 C28.8889971,12.9070018 28.2440035,13.09 27.542,13.09 C26.947997,13.09 26.3990025,12.9445015 25.895,12.6535 C25.3909975,12.3624985 24.9920015,11.9695025 24.698,11.4745 C24.4039985,10.9794975 24.257,10.4380029 24.257,9.85 C24.257,9.26199706 24.4039985,8.72050248 24.698,8.2255 C24.9920015,7.73049753 25.3909975,7.33750146 25.895,7.0465 C26.3990025,6.75549855 26.947997,6.61 27.542,6.61 C28.136003,6.61 28.6519978,6.7299988 29.09,6.97 C29.1800004,7.01800024 29.2474998,7.08099961 29.2925,7.159 C29.3375002,7.23700039 29.36,7.32099955 29.36,7.411 C29.36,7.56100075 29.3105005,7.69149945 29.2115,7.8025 C29.1124995,7.91350056 28.9910007,7.969 28.847,7.969 C28.7569995,7.969 28.6580005,7.94500024 28.55,7.897 C28.2259984,7.75899931 27.8900017,7.69 27.542,7.69 C27.1579981,7.69 26.8040016,7.78749903 26.48,7.9825 C26.1559984,8.17750098 25.8995009,8.43999835 25.7105,8.77 C25.5214991,9.10000165 25.427,9.45999805 25.427,9.85 C25.427,10.240002 25.5214991,10.5999984 25.7105,10.93 C25.8995009,11.2600017 26.1559984,11.522499 26.48,11.7175 C26.8040016,11.912501 27.1579981,12.01 27.542,12.01 C27.7100008,12.01 27.889999,11.9950002 28.082,11.965 C28.274001,11.9349999 28.4419993,11.8960002 28.586,11.848 L28.586,10.678 L27.74,10.678 C27.5839992,10.678 27.4535005,10.6270005 27.3485,10.525 C27.2434995,10.4229995 27.191,10.2940008 27.191,10.138 C27.191,9.98199922 27.2434995,9.85300051 27.3485,9.751 C27.4535005,9.64899949 27.5839992,9.598 27.74,9.598 L29.216,9.598 Z M36.632,9.85 C36.632,10.444003 36.5000013,10.9884975 36.236,11.4835 C35.9719987,11.9785025 35.6075023,12.3699986 35.1425,12.658 C34.6774977,12.9460014 34.1540029,13.09 33.572,13.09 C32.9899971,13.09 32.4665023,12.9460014 32.0015,12.658 C31.5364977,12.3699986 31.1735013,11.9785025 30.9125,11.4835 C30.6514987,10.9884975 30.521,10.444003 30.521,9.85 C30.521,9.25599703 30.6514987,8.71150248 30.9125,8.2165 C31.1735013,7.72149753 31.5364977,7.33000144 32.0015,7.042 C32.4665023,6.75399856 32.9899971,6.61 33.572,6.61 C34.1540029,6.61 34.6774977,6.75399856 35.1425,7.042 C35.6075023,7.33000144 35.9719987,7.72149753 36.236,8.2165 C36.5000013,8.71150248 36.632,9.25599703 36.632,9.85 Z M35.462,9.85 C35.462,9.44799799 35.3810008,9.08350164 35.219,8.7565 C35.0569992,8.42949837 34.8320014,8.17000096 34.544,7.978 C34.2559986,7.78599904 33.9320018,7.69 33.572,7.69 C33.2059982,7.69 32.8805014,7.78449906 32.5955,7.9735 C32.3104986,8.16250095 32.0885008,8.42199835 31.9295,8.752 C31.7704992,9.08200165 31.691,9.44799799 31.691,9.85 C31.691,10.252002 31.7704992,10.6179984 31.9295,10.948 C32.0885008,11.2780017 32.3104986,11.5374991 32.5955,11.7265 C32.8805014,11.9155009 33.2059982,12.01 33.572,12.01 C33.9320018,12.01 34.2559986,11.914001 34.544,11.722 C34.8320014,11.529999 35.0569992,11.2705016 35.219,10.9435 C35.3810008,10.6164984 35.462,10.252002 35.462,9.85 Z" id="LOGO" fill="#D6D6D6" fill-rule="nonzero"></path>
        <path d="M85.12,7.4 C85.2480006,7.4 85.3519996,7.44266624 85.432,7.528 C85.5120004,7.61333376 85.552,7.71999936 85.552,7.848 L85.552,12.512 C85.552,12.6506674 85.5053338,12.7666662 85.412,12.86 C85.3186662,12.9533338 85.2026674,13 85.064,13 C84.989333,13 84.9160004,12.9880001 84.844,12.964 C84.7719996,12.9399999 84.7200002,12.9066669 84.688,12.864 L81.752,9.136 L81.752,12.552 C81.752,12.6800006 81.7106671,12.7866662 81.628,12.872 C81.5453329,12.9573338 81.437334,13 81.304,13 C81.1759994,13 81.0720004,12.9573338 80.992,12.872 C80.9119996,12.7866662 80.872,12.6800006 80.872,12.552 L80.872,7.888 C80.872,7.74933264 80.9186662,7.6333338 81.012,7.54 C81.1053338,7.4466662 81.2213326,7.4 81.36,7.4 C81.4400004,7.4 81.5186663,7.41599984 81.596,7.448 C81.6733337,7.48000016 81.7306665,7.5226664 81.768,7.576 L84.68,11.288 L84.68,7.848 C84.68,7.71999936 84.7213329,7.61333376 84.804,7.528 C84.8866671,7.44266624 84.9919994,7.4 85.12,7.4 Z M91.144,12.376 C91.1706668,12.4453337 91.184,12.509333 91.184,12.568 C91.184,12.7066674 91.1386671,12.8199996 91.048,12.908 C90.9573329,12.9960004 90.8533339,13.04 90.736,13.04 C90.6399995,13.04 90.5533337,13.010667 90.476,12.952 C90.3986663,12.893333 90.3386669,12.8133338 90.296,12.712 L89.88,11.744 L87.496,11.744 L87.08,12.72 C87.0426665,12.8213338 86.9853337,12.8999997 86.908,12.956 C86.8306663,13.0120003 86.7466671,13.04 86.656,13.04 C86.5173326,13.04 86.4120004,13.002667 86.34,12.928 C86.2679996,12.853333 86.232,12.7520006 86.232,12.624 C86.232,12.5759998 86.2399999,12.5253336 86.256,12.472 L88.248,7.688 C88.2906669,7.5813328 88.3546662,7.49866696 88.44,7.44 C88.5253338,7.38133304 88.6213328,7.35733328 88.728,7.368 C88.8240005,7.368 88.9133329,7.39599972 88.996,7.452 C89.0786671,7.50800028 89.1386665,7.58666616 89.176,7.688 L91.144,12.376 Z M87.888,10.824 L89.488,10.824 L88.68,8.952 L87.888,10.824 Z M95.952,7.384 C96.085334,7.384 96.2013328,7.42933288 96.3,7.52 C96.3986672,7.61066712 96.448,7.71999936 96.448,7.848 C96.448,7.91733368 96.4320002,7.98933296 96.4,8.064 L94.424,12.688 C94.3759998,12.7893338 94.3093338,12.8666664 94.224,12.92 C94.1386662,12.9733336 94.0480005,13 93.952,13 C93.8613329,12.9946666 93.7773337,12.9666669 93.7,12.916 C93.6226663,12.8653331 93.5626669,12.7920005 93.52,12.696 L91.544,8.056 C91.5173332,8.0026664 91.504,7.9360004 91.504,7.856 C91.504,7.71199928 91.5573328,7.59600044 91.664,7.508 C91.7706672,7.41999956 91.8799994,7.376 91.992,7.376 C92.0826671,7.376 92.1679996,7.4026664 92.248,7.456 C92.3280004,7.5093336 92.3893331,7.58666616 92.432,7.688 L94.04,11.472 L95.512,7.688 C95.5546669,7.59199952 95.6159996,7.5173336 95.696,7.464 C95.7760004,7.4106664 95.8613329,7.384 95.952,7.384 Z M98.288,12.512 C98.288,12.6506674 98.2373338,12.7666662 98.136,12.86 C98.0346662,12.9533338 97.917334,13 97.784,13 C97.6399993,13 97.5213338,12.9533338 97.428,12.86 C97.3346662,12.7666662 97.288,12.6506674 97.288,12.512 L97.288,7.888 C97.288,7.74933264 97.3359995,7.6333338 97.432,7.54 C97.5280005,7.4466662 97.6506659,7.4 97.8,7.4 C97.933334,7.4 98.0479995,7.4466662 98.144,7.54 C98.2400005,7.6333338 98.288,7.74933264 98.288,7.888 L98.288,12.512 Z M103.616,9.976 C103.754667,9.976 103.869333,10.0226662 103.96,10.116 C104.050667,10.2093338 104.096,10.3253326 104.096,10.464 L104.096,12.16 C104.096,12.3466676 104.013334,12.4906662 103.848,12.592 C103.325331,12.917335 102.752003,13.08 102.128,13.08 C101.599997,13.08 101.112002,12.950668 100.664,12.692 C100.215998,12.433332 99.8613346,12.0840022 99.6,11.644 C99.3386654,11.2039978 99.208,10.7226693 99.208,10.2 C99.208,9.67733072 99.3386654,9.1960022 99.6,8.756 C99.8613346,8.3159978 100.215998,7.96666796 100.664,7.708 C101.112002,7.44933204 101.599997,7.32 102.128,7.32 C102.656003,7.32 103.114665,7.4266656 103.504,7.64 C103.584,7.68266688 103.644,7.73866632 103.684,7.808 C103.724,7.87733368 103.744,7.9519996 103.744,8.032 C103.744,8.165334 103.7,8.28133284 103.612,8.38 C103.524,8.47866716 103.416001,8.528 103.288,8.528 C103.208,8.528 103.12,8.50666688 103.024,8.464 C102.735999,8.34133272 102.437335,8.28 102.128,8.28 C101.786665,8.28 101.472001,8.3666658 101.184,8.54 C100.895999,8.7133342 100.668001,8.9466652 100.5,9.24 C100.331999,9.5333348 100.248,9.8533316 100.248,10.2 C100.248,10.5466684 100.331999,10.8666652 100.5,11.16 C100.668001,11.4533348 100.895999,11.6866658 101.184,11.86 C101.472001,12.0333342 101.786665,12.12 102.128,12.12 C102.277334,12.12 102.437332,12.1066668 102.608,12.08 C102.778668,12.0533332 102.927999,12.0186669 103.056,11.976 L103.056,10.936 L102.304,10.936 C102.165333,10.936 102.049334,10.8906671 101.956,10.8 C101.862666,10.7093329 101.816,10.5946674 101.816,10.456 C101.816,10.3173326 101.862666,10.2026671 101.956,10.112 C102.049334,10.0213329 102.165333,9.976 102.304,9.976 L103.616,9.976 Z M109.448,12.376 C109.474667,12.4453337 109.488,12.509333 109.488,12.568 C109.488,12.7066674 109.442667,12.8199996 109.352,12.908 C109.261333,12.9960004 109.157334,13.04 109.04,13.04 C108.944,13.04 108.857334,13.010667 108.78,12.952 C108.702666,12.893333 108.642667,12.8133338 108.6,12.712 L108.184,11.744 L105.8,11.744 L105.384,12.72 C105.346666,12.8213338 105.289334,12.8999997 105.212,12.956 C105.134666,13.0120003 105.050667,13.04 104.96,13.04 C104.821333,13.04 104.716,13.002667 104.644,12.928 C104.572,12.853333 104.536,12.7520006 104.536,12.624 C104.536,12.5759998 104.544,12.5253336 104.56,12.472 L106.552,7.688 C106.594667,7.5813328 106.658666,7.49866696 106.744,7.44 C106.829334,7.38133304 106.925333,7.35733328 107.032,7.368 C107.128,7.368 107.217333,7.39599972 107.3,7.452 C107.382667,7.50800028 107.442666,7.58666616 107.48,7.688 L109.448,12.376 Z M106.192,10.824 L107.792,10.824 L106.984,8.952 L106.192,10.824 Z M113.848,7.4 C113.992001,7.4 114.109333,7.44266624 114.2,7.528 C114.290667,7.61333376 114.336,7.72533264 114.336,7.864 C114.336,8.00266736 114.290667,8.11333292 114.2,8.196 C114.109333,8.27866708 113.992001,8.32 113.848,8.32 L112.592,8.32 L112.592,12.512 C112.592,12.6506674 112.541334,12.7666662 112.44,12.86 C112.338666,12.9533338 112.213334,13 112.064,13 C111.914666,13 111.792,12.9533338 111.696,12.86 C111.6,12.7666662 111.552,12.6506674 111.552,12.512 L111.552,8.32 L110.296,8.32 C110.151999,8.32 110.034667,8.27733376 109.944,8.192 C109.853333,8.10666624 109.808,7.99466736 109.808,7.856 C109.808,7.722666 109.854666,7.61333376 109.948,7.528 C110.041334,7.44266624 110.157333,7.4 110.296,7.4 L113.848,7.4 Z M116.176,12.512 C116.176,12.6506674 116.125334,12.7666662 116.024,12.86 C115.922666,12.9533338 115.805334,13 115.672,13 C115.527999,13 115.409334,12.9533338 115.316,12.86 C115.222666,12.7666662 115.176,12.6506674 115.176,12.512 L115.176,7.888 C115.176,7.74933264 115.224,7.6333338 115.32,7.54 C115.416,7.4466662 115.538666,7.4 115.688,7.4 C115.821334,7.4 115.936,7.4466662 116.032,7.54 C116.128,7.6333338 116.176,7.74933264 116.176,7.888 L116.176,12.512 Z M122.528,10.2 C122.528,10.7280026 122.410668,11.2119978 122.176,11.652 C121.941332,12.0920022 121.617335,12.4399987 121.204,12.696 C120.790665,12.9520013 120.325336,13.08 119.808,13.08 C119.290664,13.08 118.825335,12.9520013 118.412,12.696 C117.998665,12.4399987 117.676001,12.0920022 117.444,11.652 C117.211999,11.2119978 117.096,10.7280026 117.096,10.2 C117.096,9.67199736 117.211999,9.1880022 117.444,8.748 C117.676001,8.3079978 117.998665,7.96000128 118.412,7.704 C118.825335,7.44799872 119.290664,7.32 119.808,7.32 C120.325336,7.32 120.790665,7.44799872 121.204,7.704 C121.617335,7.96000128 121.941332,8.3079978 122.176,8.748 C122.410668,9.1880022 122.528,9.67199736 122.528,10.2 Z M121.488,10.2 C121.488,9.84266488 121.416001,9.51866812 121.272,9.228 C121.127999,8.93733188 120.928001,8.70666752 120.672,8.536 C120.415999,8.36533248 120.128002,8.28 119.808,8.28 C119.482665,8.28 119.193335,8.36399916 118.94,8.532 C118.686665,8.70000084 118.489334,8.9306652 118.348,9.224 C118.206666,9.5173348 118.136,9.84266488 118.136,10.2 C118.136,10.5573351 118.206666,10.8826652 118.348,11.176 C118.489334,11.4693348 118.686665,11.6999992 118.94,11.868 C119.193335,12.0360008 119.482665,12.12 119.808,12.12 C120.128002,12.12 120.415999,12.0346675 120.672,11.864 C120.928001,11.6933325 121.127999,11.4626681 121.272,11.172 C121.416001,10.8813319 121.488,10.5573351 121.488,10.2 Z M127.696,7.4 C127.824001,7.4 127.928,7.44266624 128.008,7.528 C128.088,7.61333376 128.128,7.71999936 128.128,7.848 L128.128,12.512 C128.128,12.6506674 128.081334,12.7666662 127.988,12.86 C127.894666,12.9533338 127.778667,13 127.64,13 C127.565333,13 127.492,12.9880001 127.42,12.964 C127.348,12.9399999 127.296,12.9066669 127.264,12.864 L124.328,9.136 L124.328,12.552 C124.328,12.6800006 124.286667,12.7866662 124.204,12.872 C124.121333,12.9573338 124.013334,13 123.88,13 C123.751999,13 123.648,12.9573338 123.568,12.872 C123.488,12.7866662 123.448,12.6800006 123.448,12.552 L123.448,7.888 C123.448,7.74933264 123.494666,7.6333338 123.588,7.54 C123.681334,7.4466662 123.797333,7.4 123.936,7.4 C124.016,7.4 124.094666,7.41599984 124.172,7.448 C124.249334,7.48000016 124.306666,7.5226664 124.344,7.576 L127.256,11.288 L127.256,7.848 C127.256,7.71999936 127.297333,7.61333376 127.38,7.528 C127.462667,7.44266624 127.567999,7.4 127.696,7.4 Z" id="NAVIGATION" fill="#D6D6D6" fill-rule="nonzero"></path>
        <g id="Orion_search" transform="translate(135.000000, 6.000000)" fill="#DBDBDB" fill-rule="nonzero">
            <path d="M5.27289191,4.7057298 C6.20299365,3.48235291 6.02616775,1.73955962 4.86347805,0.724091298 C3.70078835,-0.291377025 1.95006313,-0.232065667 0.858763888,0.859763665 C-0.232535355,1.951593 -0.291007451,3.70235776 0.725011299,4.86456827 C1.74103005,6.02677879 3.4838966,6.20277074 4.71174907,5.26714285 L7.31726456,7.88280515 C7.47339769,8.03901289 7.72659917,8.03907256 7.8828059,7.88293843 C8.03901263,7.7268043 8.03907231,7.47360119 7.8829392,7.31739344 L5.27289191,4.7057298 Z M2.93501889,5.06774259 C1.75721126,5.06774259 0.802409525,4.11293468 0.802409525,2.93511943 C0.802409525,1.75730418 1.75721126,0.802496271 2.93501889,0.802496271 C4.11282652,0.802496271 5.06762826,1.75730418 5.06762826,2.93511943 C5.06748107,4.1128737 4.11276555,5.06759539 2.93501889,5.06774259 Z" id="Shape"></path>
        </g>
        <g id="Group-2" transform="translate(12.000000, 66.000000)">
            <rect id="Rectangle" fill="#B5B5B5" x="0" y="0" width="38" height="23"></rect>
            <rect id="Rectangle" fill="#B5B5B5" x="46" y="0" width="38" height="23"></rect>
            <g id="Group" transform="translate(1.000000, 28.000000)" stroke="#D6D6D6" stroke-linecap="square" stroke-width="1.5">
                <path d="M0,0.5 L37,0.5" id="Line"></path>
                <path d="M0,4.5 L37,4.5" id="Line"></path>
                <path d="M0,8.5 L22,8.5" id="Line"></path>
            </g>
            <g id="Group" transform="translate(46.000000, 28.000000)" stroke="#D6D6D6" stroke-linecap="square" stroke-width="1.5">
                <path d="M0,0.5 L37,0.5" id="Line"></path>
                <path d="M0,4.5 L37,4.5" id="Line"></path>
                <path d="M0,8.5 L22,8.5" id="Line"></path>
            </g>
            <rect id="Rectangle" fill="#B5B5B5" x="92" y="0" width="38" height="23"></rect>
            <g id="Group" transform="translate(92.000000, 28.000000)" stroke="#D6D6D6" stroke-linecap="square" stroke-width="1.5">
                <path d="M0,0.5 L37,0.5" id="Line"></path>
                <path d="M0,4.5 L37,4.5" id="Line"></path>
                <path d="M0,8.5 L22,8.5" id="Line"></path>
            </g>
        </g>
        <rect id="Rectangle" fill="#5A5A5A" x="0" y="20" width="154" height="39"></rect>
        <rect id="Rectangle" fill-opacity="0.3" fill="#000000" fill-rule="nonzero" x="0" y="30" width="48" height="19"></rect>
        <g id="Group" transform="translate(38.000000, 36.000000)" stroke="#FFFFFF" stroke-linecap="square" stroke-width="2">
            <path d="M0,1 L45,1" id="Line"></path>
            <path d="M0,6 L25,6" id="Line"></path>
        </g>
    </g>
</svg>