<?xml version="1.0" encoding="UTF-8"?>
<svg width="154px" height="94px" viewBox="0 0 154 94" version="1.1" xmlns="http://www.w3.org/2000/svg" xmlns:xlink="http://www.w3.org/1999/xlink">
    <!-- Generator: Sketch 53 (72520) - https://sketchapp.com -->
    <title>cover_indent_off</title>
    <desc>Created with Sketch.</desc>
    <g id="cover_indent_off" stroke="none" stroke-width="1" fill="none" fill-rule="evenodd">
        <rect fill="#FFFFFF" x="0" y="0" width="154" height="94"></rect>
        <g id="Group-4" transform="translate(39.000000, 65.000000)">
            <g id="Group-3">
                <rect id="Rectangle" fill="#F0F0F0" x="48" y="0" width="28" height="22"></rect>
                <g id="Group-2" stroke="#D6D6D6" stroke-linecap="square" stroke-width="2">
                    <path d="M0,6 L40,6" id="Line"></path>
                    <path d="M0,1 L40,1" id="Line"></path>
                    <path d="M0,11 L40,11" id="Line"></path>
                    <path d="M0,16 L40,16" id="Line"></path>
                    <path d="M0,21 L40,21" id="Line"></path>
                </g>
            </g>
        </g>
        <path d="M69.157,10.947 C69.3130008,10.947 69.4434995,10.9964995 69.5485,11.0955 C69.6535005,11.1945005 69.706,11.3219992 69.706,11.478 C69.706,11.6280007 69.6535005,11.7524995 69.5485,11.8515 C69.4434995,11.9505005 69.3130008,12 69.157,12 L66.232,12 C66.0759992,12 65.9455005,11.9475005 65.8405,11.8425 C65.7354995,11.7374995 65.683,11.6070008 65.683,11.451 L65.683,6.249 C65.683,6.09299922 65.7369995,5.96250052 65.845,5.8575 C65.9530005,5.75249947 66.0909992,5.7 66.259,5.7 C66.4090008,5.7 66.5379995,5.75249947 66.646,5.8575 C66.7540005,5.96250052 66.808,6.09299922 66.808,6.249 L66.808,10.947 L69.157,10.947 Z M76.537,8.85 C76.537,9.44400297 76.4050013,9.98849752 76.141,10.4835 C75.8769987,10.9785025 75.5125023,11.3699986 75.0475,11.658 C74.5824977,11.9460014 74.0590029,12.09 73.477,12.09 C72.8949971,12.09 72.3715023,11.9460014 71.9065,11.658 C71.4414977,11.3699986 71.0785013,10.9785025 70.8175,10.4835 C70.5564987,9.98849752 70.426,9.44400297 70.426,8.85 C70.426,8.25599703 70.5564987,7.71150247 70.8175,7.2165 C71.0785013,6.72149752 71.4414977,6.33000144 71.9065,6.042 C72.3715023,5.75399856 72.8949971,5.61 73.477,5.61 C74.0590029,5.61 74.5824977,5.75399856 75.0475,6.042 C75.5125023,6.33000144 75.8769987,6.72149752 76.141,7.2165 C76.4050013,7.71150247 76.537,8.25599703 76.537,8.85 Z M75.367,8.85 C75.367,8.44799799 75.2860008,8.08350163 75.124,7.7565 C74.9619992,7.42949836 74.7370014,7.17000096 74.449,6.978 C74.1609986,6.78599904 73.8370018,6.69 73.477,6.69 C73.1109982,6.69 72.7855014,6.78449905 72.5005,6.9735 C72.2154986,7.16250094 71.9935008,7.42199835 71.8345,7.752 C71.6754992,8.08200165 71.596,8.44799799 71.596,8.85 C71.596,9.25200201 71.6754992,9.61799835 71.8345,9.948 C71.9935008,10.2780017 72.2154986,10.5374991 72.5005,10.7265 C72.7855014,10.9155009 73.1109982,11.01 73.477,11.01 C73.8370018,11.01 74.1609986,10.914001 74.449,10.722 C74.7370014,10.529999 74.9619992,10.2705016 75.124,9.9435 C75.2860008,9.61649836 75.367,9.25200201 75.367,8.85 Z M82.216,8.598 C82.3720008,8.598 82.5009995,8.65049948 82.603,8.7555 C82.7050005,8.86050052 82.756,8.99099922 82.756,9.147 L82.756,11.055 C82.756,11.2650011 82.6630009,11.4269994 82.477,11.541 C81.8889971,11.9070018 81.2440035,12.09 80.542,12.09 C79.947997,12.09 79.3990025,11.9445015 78.895,11.6535 C78.3909975,11.3624985 77.9920015,10.9695025 77.698,10.4745 C77.4039985,9.97949752 77.257,9.43800294 77.257,8.85 C77.257,8.26199706 77.4039985,7.72050247 77.698,7.2255 C77.9920015,6.73049752 78.3909975,6.33750145 78.895,6.0465 C79.3990025,5.75549854 79.947997,5.61 80.542,5.61 C81.136003,5.61 81.6519978,5.7299988 82.09,5.97 C82.1800004,6.01800024 82.2474998,6.08099961 82.2925,6.159 C82.3375002,6.23700039 82.36,6.32099955 82.36,6.411 C82.36,6.56100075 82.3105005,6.69149944 82.2115,6.8025 C82.1124995,6.91350055 81.9910007,6.969 81.847,6.969 C81.7569996,6.969 81.6580005,6.94500024 81.55,6.897 C81.2259984,6.75899931 80.8900017,6.69 80.542,6.69 C80.1579981,6.69 79.8040016,6.78749902 79.48,6.9825 C79.1559984,7.17750097 78.8995009,7.43999835 78.7105,7.77 C78.5214991,8.10000165 78.427,8.45999805 78.427,8.85 C78.427,9.24000195 78.5214991,9.59999835 78.7105,9.93 C78.8995009,10.2600016 79.1559984,10.522499 79.48,10.7175 C79.8040016,10.912501 80.1579981,11.01 80.542,11.01 C80.7100008,11.01 80.889999,10.9950001 81.082,10.965 C81.274001,10.9349999 81.4419993,10.8960002 81.586,10.848 L81.586,9.678 L80.74,9.678 C80.5839992,9.678 80.4535005,9.62700051 80.3485,9.525 C80.2434995,9.42299949 80.191,9.29400078 80.191,9.138 C80.191,8.98199922 80.2434995,8.85300051 80.3485,8.751 C80.4535005,8.64899949 80.5839992,8.598 80.74,8.598 L82.216,8.598 Z M89.632,8.85 C89.632,9.44400297 89.5000013,9.98849752 89.236,10.4835 C88.9719987,10.9785025 88.6075023,11.3699986 88.1425,11.658 C87.6774977,11.9460014 87.1540029,12.09 86.572,12.09 C85.9899971,12.09 85.4665023,11.9460014 85.0015,11.658 C84.5364977,11.3699986 84.1735013,10.9785025 83.9125,10.4835 C83.6514987,9.98849752 83.521,9.44400297 83.521,8.85 C83.521,8.25599703 83.6514987,7.71150247 83.9125,7.2165 C84.1735013,6.72149752 84.5364977,6.33000144 85.0015,6.042 C85.4665023,5.75399856 85.9899971,5.61 86.572,5.61 C87.1540029,5.61 87.6774977,5.75399856 88.1425,6.042 C88.6075023,6.33000144 88.9719987,6.72149752 89.236,7.2165 C89.5000013,7.71150247 89.632,8.25599703 89.632,8.85 Z M88.462,8.85 C88.462,8.44799799 88.3810008,8.08350163 88.219,7.7565 C88.0569992,7.42949836 87.8320014,7.17000096 87.544,6.978 C87.2559986,6.78599904 86.9320018,6.69 86.572,6.69 C86.2059982,6.69 85.8805014,6.78449905 85.5955,6.9735 C85.3104986,7.16250094 85.0885008,7.42199835 84.9295,7.752 C84.7704992,8.08200165 84.691,8.44799799 84.691,8.85 C84.691,9.25200201 84.7704992,9.61799835 84.9295,9.948 C85.0885008,10.2780017 85.3104986,10.5374991 85.5955,10.7265 C85.8805014,10.9155009 86.2059982,11.01 86.572,11.01 C86.9320018,11.01 87.2559986,10.914001 87.544,10.722 C87.8320014,10.529999 88.0569992,10.2705016 88.219,9.9435 C88.3810008,9.61649836 88.462,9.25200201 88.462,8.85 Z" id="LOGO" fill="#333333" fill-rule="nonzero"></path>
        <rect id="Rectangle" fill="#5A5A5A" x="0" y="18" width="154" height="42"></rect>
        <g id="Group" transform="translate(51.000000, 36.000000)" stroke="#FFFFFF" stroke-linecap="square" stroke-width="2">
            <path d="M0,1 L53,1" id="Line"></path>
            <path d="M11,6 L41,6" id="Line"></path>
        </g>
        <g id="Orion_search" transform="translate(6.000000, 5.000000)" fill="#333333" fill-rule="nonzero">
            <path d="M5.27289191,4.7057298 C6.20299365,3.48235291 6.02616775,1.73955962 4.86347805,0.724091298 C3.70078835,-0.291377025 1.95006313,-0.232065667 0.858763888,0.859763665 C-0.232535355,1.951593 -0.291007451,3.70235776 0.725011299,4.86456827 C1.74103005,6.02677879 3.4838966,6.20277074 4.71174907,5.26714285 L7.31726456,7.88280515 C7.47339769,8.03901289 7.72659917,8.03907256 7.8828059,7.88293843 C8.03901263,7.7268043 8.03907231,7.47360119 7.8829392,7.31739344 L5.27289191,4.7057298 Z M2.93501889,5.06774259 C1.75721126,5.06774259 0.802409525,4.11293468 0.802409525,2.93511943 C0.802409525,1.75730418 1.75721126,0.802496271 2.93501889,0.802496271 C4.11282652,0.802496271 5.06762826,1.75730418 5.06762826,2.93511943 C5.06748107,4.1128737 4.11276555,5.06759539 2.93501889,5.06774259 Z" id="Shape"></path>
        </g>
        <path d="M140.342857,7 L140,7 L140,6 L140.342857,6 L147.657143,6 L148,6 L148,7 L147.657143,7 L140.342857,7 Z M140.209524,9.31884058 L140,9.31884058 L140,8.31884058 L140.209524,8.31884058 L144.679365,8.31884058 L144.888889,8.31884058 L144.888889,9.31884058 L144.679365,9.31884058 L140.209524,9.31884058 Z M140.342857,11.6376812 L140,11.6376812 L140,10.6376812 L140.342857,10.6376812 L147.657143,10.6376812 L148,10.6376812 L148,11.6376812 L147.657143,11.6376812 L140.342857,11.6376812 Z" id="Combined-Shape" fill="#424851"></path>
    </g>
</svg>