<?xml version="1.0" encoding="UTF-8"?>
<svg width="154px" height="50px" viewBox="0 0 154 50" version="1.1" xmlns="http://www.w3.org/2000/svg" xmlns:xlink="http://www.w3.org/1999/xlink">
    <!-- Generator: Sketch 53 (72520) - https://sketchapp.com -->
    <title>footer_3_3_6</title>
    <desc>Created with Sketch.</desc>
    <g id="footer_3_3_6" stroke="none" stroke-width="1" fill="none" fill-rule="evenodd">
        <rect fill="#FFFFFF" x="0" y="0" width="154" height="50"></rect>
        <g id="Group" transform="translate(47.000000, 11.000000)" stroke="#D6D6D6" stroke-linecap="square" stroke-width="2">
            <path d="M0,1 L26,1" id="Line"></path>
            <path d="M0,6 L26,6" id="Line"></path>
            <path d="M0,11 L26,11" id="Line"></path>
            <path d="M0,16 L26,16" id="Line"></path>
            <path d="M0,21 L26,21" id="Line"></path>
            <path d="M0,26 L15,26" id="Line"></path>
        </g>
        <g id="Group" transform="translate(12.000000, 11.000000)" stroke="#D6D6D6" stroke-linecap="square" stroke-width="2">
            <path d="M0,1 L26,1" id="Line"></path>
            <path d="M0,6 L26,6" id="Line"></path>
            <path d="M0,11 L26,11" id="Line"></path>
            <path d="M0,16 L26,16" id="Line"></path>
            <path d="M0,21 L26,21" id="Line"></path>
            <path d="M0,26 L15,26" id="Line"></path>
        </g>
        <g id="Group" transform="translate(81.000000, 11.000000)" stroke="#D6D6D6" stroke-linecap="square" stroke-width="2">
            <path d="M0,1 L61,1" id="Line"></path>
            <path d="M0,6 L61,6" id="Line"></path>
            <path d="M0,11 L61,11" id="Line"></path>
            <path d="M0,16 L61,16" id="Line"></path>
            <path d="M0,21 L61,21" id="Line"></path>
            <path d="M0,26 L37,26" id="Line"></path>
        </g>
    </g>
</svg>