<?xml version="1.0" encoding="UTF-8"?>
<svg width="320px" height="60px" viewBox="0 0 320 60" version="1.1" xmlns="http://www.w3.org/2000/svg" xmlns:xlink="http://www.w3.org/1999/xlink">
    <!-- Generator: Sketch 53.2 (72643) - https://sketchapp.com -->
    <title>header_layout_10</title>
    <desc>Created with Sketch.</desc>
    <g id="header_layout_10" stroke="none" stroke-width="1" fill="none" fill-rule="evenodd">
        <rect fill="#FFFFFF" x="0" y="0" width="320" height="60"></rect>
        <path d="M20.79,20.245 C21.0500013,20.245 21.2674991,20.3274992 21.4425,20.4925 C21.6175009,20.6575008 21.705,20.8699987 21.705,21.13 C21.705,21.3800012 21.6175009,21.5874992 21.4425,21.7525 C21.2674991,21.9175008 21.0500013,22 20.79,22 L15.915,22 C15.6549987,22 15.4375009,21.9125009 15.2625,21.7375 C15.0874991,21.5624991 15,21.3450013 15,21.085 L15,12.415 C15,12.1549987 15.0899991,11.9375009 15.27,11.7625 C15.4500009,11.5874991 15.6799986,11.5 15.96,11.5 C16.2100012,11.5 16.4249991,11.5874991 16.605,11.7625 C16.7850009,11.9375009 16.875,12.1549987 16.875,12.415 L16.875,20.245 L20.79,20.245 Z M33.09,16.75 C33.09,17.7400049 32.8700022,18.6474959 32.43,19.4725 C31.9899978,20.2975041 31.3825039,20.9499976 30.6075,21.43 C29.8324961,21.9100024 28.9600048,22.15 27.99,22.15 C27.0199951,22.15 26.1475039,21.9100024 25.3725,21.43 C24.5974961,20.9499976 23.9925022,20.2975041 23.5575,19.4725 C23.1224978,18.6474959 22.905,17.7400049 22.905,16.75 C22.905,15.7599951 23.1224978,14.8525041 23.5575,14.0275 C23.9925022,13.2024959 24.5974961,12.5500024 25.3725,12.07 C26.1475039,11.5899976 27.0199951,11.35 27.99,11.35 C28.9600048,11.35 29.8324961,11.5899976 30.6075,12.07 C31.3825039,12.5500024 31.9899978,13.2024959 32.43,14.0275 C32.8700022,14.8525041 33.09,15.7599951 33.09,16.75 Z M31.14,16.75 C31.14,16.0799967 31.0050013,15.4725027 30.735,14.9275 C30.4649986,14.3824973 30.0900024,13.9500016 29.61,13.63 C29.1299976,13.3099984 28.590003,13.15 27.99,13.15 C27.3799969,13.15 26.8375024,13.3074984 26.3625,13.6225 C25.8874976,13.9375016 25.5175013,14.3699973 25.2525,14.92 C24.9874987,15.4700028 24.855,16.0799967 24.855,16.75 C24.855,17.4200033 24.9874987,18.0299973 25.2525,18.58 C25.5175013,19.1300027 25.8874976,19.5624984 26.3625,19.8775 C26.8375024,20.1925016 27.3799969,20.35 27.99,20.35 C28.590003,20.35 29.1299976,20.1900016 29.61,19.87 C30.0900024,19.5499984 30.4649986,19.1175027 30.735,18.5725 C31.0050013,18.0274973 31.14,17.4200033 31.14,16.75 Z M42.555,16.33 C42.8150013,16.33 43.0299991,16.4174991 43.2,16.5925 C43.3700008,16.7675009 43.455,16.9849987 43.455,17.245 L43.455,20.425 C43.455,20.7750018 43.3000015,21.0449991 42.99,21.235 C42.0099951,21.8450031 40.9350058,22.15 39.765,22.15 C38.774995,22.15 37.8600042,21.9075024 37.02,21.4225 C36.1799958,20.9374976 35.5150024,20.2825041 35.025,19.4575 C34.5349975,18.6324959 34.29,17.7300049 34.29,16.75 C34.29,15.7699951 34.5349975,14.8675041 35.025,14.0425 C35.5150024,13.2174959 36.1799958,12.5625024 37.02,12.0775 C37.8600042,11.5924976 38.774995,11.35 39.765,11.35 C40.7550049,11.35 41.6149963,11.549998 42.345,11.95 C42.4950007,12.0300004 42.6074996,12.1349994 42.6825,12.265 C42.7575004,12.3950007 42.795,12.5349993 42.795,12.685 C42.795,12.9350013 42.7125008,13.1524991 42.5475,13.3375 C42.3824992,13.5225009 42.1800012,13.615 41.94,13.615 C41.7899992,13.615 41.6250009,13.5750004 41.445,13.495 C40.9049973,13.2649989 40.3450029,13.15 39.765,13.15 C39.1249968,13.15 38.5350027,13.3124984 37.995,13.6375 C37.4549973,13.9625016 37.0275016,14.3999973 36.7125,14.95 C36.3974984,15.5000028 36.24,16.0999967 36.24,16.75 C36.24,17.4000033 36.3974984,17.9999972 36.7125,18.55 C37.0275016,19.1000028 37.4549973,19.5374984 37.995,19.8625 C38.5350027,20.1875016 39.1249968,20.35 39.765,20.35 C40.0450014,20.35 40.3449984,20.3250003 40.665,20.275 C40.9850016,20.2249998 41.2649988,20.1600004 41.505,20.08 L41.505,18.13 L40.095,18.13 C39.8349987,18.13 39.6175009,18.0450009 39.4425,17.875 C39.2674991,17.7049991 39.18,17.4900013 39.18,17.23 C39.18,16.9699987 39.2674991,16.7550009 39.4425,16.585 C39.6175009,16.4149991 39.8349987,16.33 40.095,16.33 L42.555,16.33 Z M54.915,16.75 C54.915,17.7400049 54.6950022,18.6474959 54.255,19.4725 C53.8149978,20.2975041 53.2075039,20.9499976 52.4325,21.43 C51.6574961,21.9100024 50.7850048,22.15 49.815,22.15 C48.8449951,22.15 47.9725039,21.9100024 47.1975,21.43 C46.4224961,20.9499976 45.8175022,20.2975041 45.3825,19.4725 C44.9474978,18.6474959 44.73,17.7400049 44.73,16.75 C44.73,15.7599951 44.9474978,14.8525041 45.3825,14.0275 C45.8175022,13.2024959 46.4224961,12.5500024 47.1975,12.07 C47.9725039,11.5899976 48.8449951,11.35 49.815,11.35 C50.7850048,11.35 51.6574961,11.5899976 52.4325,12.07 C53.2075039,12.5500024 53.8149978,13.2024959 54.255,14.0275 C54.6950022,14.8525041 54.915,15.7599951 54.915,16.75 Z M52.965,16.75 C52.965,16.0799967 52.8300013,15.4725027 52.56,14.9275 C52.2899986,14.3824973 51.9150024,13.9500016 51.435,13.63 C50.9549976,13.3099984 50.415003,13.15 49.815,13.15 C49.2049969,13.15 48.6625024,13.3074984 48.1875,13.6225 C47.7124976,13.9375016 47.3425013,14.3699973 47.0775,14.92 C46.8124987,15.4700028 46.68,16.0799967 46.68,16.75 C46.68,17.4200033 46.8124987,18.0299973 47.0775,18.58 C47.3425013,19.1300027 47.7124976,19.5624984 48.1875,19.8775 C48.6625024,20.1925016 49.2049969,20.35 49.815,20.35 C50.415003,20.35 50.9549976,20.1900016 51.435,19.87 C51.9150024,19.5499984 52.2899986,19.1175027 52.56,18.5725 C52.8300013,18.0274973 52.965,17.4200033 52.965,16.75 Z" id="LOGO" fill="#333333" fill-rule="nonzero"></path>
        <path d="M15,32.5 L305,32.5" id="Line" stroke="#000000" opacity="0.100000001" stroke-linecap="square"></path>
        <path d="M21.43,41.6 C21.622001,41.6 21.7779994,41.6639994 21.898,41.792 C22.0180006,41.9200006 22.078,42.079999 22.078,42.272 L22.078,49.268 C22.078,49.476001 22.0080007,49.6499993 21.868,49.79 C21.7279993,49.9300007 21.554001,50 21.346,50 C21.2339994,50 21.1240005,49.9820002 21.016,49.946 C20.9079995,49.9099998 20.8300002,49.8600003 20.782,49.796 L16.378,44.204 L16.378,49.328 C16.378,49.520001 16.3160006,49.6799994 16.192,49.808 C16.0679994,49.9360006 15.906001,50 15.706,50 C15.513999,50 15.3580006,49.9360006 15.238,49.808 C15.1179994,49.6799994 15.058,49.520001 15.058,49.328 L15.058,42.332 C15.058,42.123999 15.1279993,41.9500007 15.268,41.81 C15.4080007,41.6699993 15.581999,41.6 15.79,41.6 C15.9100006,41.6 16.0279994,41.6239998 16.144,41.672 C16.2600006,41.7200002 16.3459997,41.7839996 16.402,41.864 L20.77,47.432 L20.77,42.272 C20.77,42.079999 20.8319994,41.9200006 20.956,41.792 C21.0800006,41.6639994 21.237999,41.6 21.43,41.6 Z M30.466,49.064 C30.5060002,49.1680005 30.526,49.2639996 30.526,49.352 C30.526,49.560001 30.4580007,49.7299993 30.322,49.862 C30.1859993,49.9940007 30.0300009,50.06 29.854,50.06 C29.7099993,50.06 29.5800006,50.0160004 29.464,49.928 C29.3479994,49.8399996 29.2580003,49.7200008 29.194,49.568 L28.57,48.116 L24.994,48.116 L24.37,49.58 C24.3139997,49.7320008 24.2280006,49.8499996 24.112,49.934 C23.9959994,50.0180004 23.8700007,50.06 23.734,50.06 C23.525999,50.06 23.3680005,50.0040006 23.26,49.892 C23.1519995,49.7799994 23.098,49.628001 23.098,49.436 C23.098,49.3639996 23.1099999,49.2880004 23.134,49.208 L26.122,42.032 C26.1860003,41.8719992 26.2819994,41.7480004 26.41,41.66 C26.5380006,41.5719996 26.6819992,41.5359999 26.842,41.552 C26.9860007,41.552 27.1199994,41.5939996 27.244,41.678 C27.3680006,41.7620004 27.4579997,41.8799992 27.514,42.032 L30.466,49.064 Z M25.582,46.736 L27.982,46.736 L26.77,43.928 L25.582,46.736 Z M37.678,41.576 C37.878001,41.576 38.0519993,41.6439993 38.2,41.78 C38.3480007,41.9160007 38.422,42.079999 38.422,42.272 C38.422,42.3760005 38.3980002,42.4839994 38.35,42.596 L35.386,49.532 C35.3139996,49.6840008 35.2140006,49.7999996 35.086,49.88 C34.9579994,49.9600004 34.8220007,50 34.678,50 C34.5419993,49.992 34.4160006,49.9500004 34.3,49.874 C34.1839994,49.7979996 34.0940003,49.6880007 34.03,49.544 L31.066,42.584 C31.0259998,42.5039996 31.006,42.4040006 31.006,42.284 C31.006,42.0679989 31.0859992,41.8940007 31.246,41.762 C31.4060008,41.6299993 31.5699992,41.564 31.738,41.564 C31.8740007,41.564 32.0019994,41.6039996 32.122,41.684 C32.2420006,41.7640004 32.3339997,41.8799992 32.398,42.032 L34.81,47.708 L37.018,42.032 C37.0820003,41.8879993 37.1739994,41.7760004 37.294,41.696 C37.4140006,41.6159996 37.5419993,41.576 37.678,41.576 Z M41.182,49.268 C41.182,49.476001 41.1060008,49.6499993 40.954,49.79 C40.8019992,49.9300007 40.626001,50 40.426,50 C40.2099989,50 40.0320007,49.9300007 39.892,49.79 C39.7519993,49.6499993 39.682,49.476001 39.682,49.268 L39.682,42.332 C39.682,42.123999 39.7539993,41.9500007 39.898,41.81 C40.0420007,41.6699993 40.2259989,41.6 40.45,41.6 C40.650001,41.6 40.8219993,41.6699993 40.966,41.81 C41.1100007,41.9500007 41.182,42.123999 41.182,42.332 L41.182,49.268 Z M49.174,45.464 C49.382001,45.464 49.5539993,45.5339993 49.69,45.674 C49.8260007,45.8140007 49.894,45.987999 49.894,46.196 L49.894,48.74 C49.894,49.0200014 49.7700012,49.2359992 49.522,49.388 C48.7379961,49.8760024 47.8780047,50.12 46.942,50.12 C46.149996,50.12 45.4180034,49.9260019 44.746,49.538 C44.0739966,49.1499981 43.542002,48.6260033 43.15,47.966 C42.757998,47.3059967 42.562,46.5840039 42.562,45.8 C42.562,45.0159961 42.757998,44.2940033 43.15,43.634 C43.542002,42.9739967 44.0739966,42.4500019 44.746,42.062 C45.4180034,41.6739981 46.149996,41.48 46.942,41.48 C47.734004,41.48 48.4219971,41.6399984 49.006,41.96 C49.1260006,42.0240003 49.2159997,42.1079995 49.276,42.212 C49.3360003,42.3160005 49.366,42.4279994 49.366,42.548 C49.366,42.748001 49.3000007,42.9219993 49.168,43.07 C49.0359993,43.2180007 48.874001,43.292 48.682,43.292 C48.5619994,43.292 48.4300007,43.2600003 48.286,43.196 C47.8539978,43.0119991 47.4060023,42.92 46.942,42.92 C46.4299974,42.92 45.9580022,43.0499987 45.526,43.31 C45.0939978,43.5700013 44.7520013,43.9199978 44.5,44.36 C44.2479987,44.8000022 44.122,45.2799974 44.122,45.8 C44.122,46.3200026 44.2479987,46.7999978 44.5,47.24 C44.7520013,47.6800022 45.0939978,48.0299987 45.526,48.29 C45.9580022,48.5500013 46.4299974,48.68 46.942,48.68 C47.1660011,48.68 47.4059987,48.6600002 47.662,48.62 C47.9180013,48.5799998 48.141999,48.5280003 48.334,48.464 L48.334,46.904 L47.206,46.904 C46.997999,46.904 46.8240007,46.8360007 46.684,46.7 C46.5439993,46.5639993 46.474,46.392001 46.474,46.184 C46.474,45.975999 46.5439993,45.8040007 46.684,45.668 C46.8240007,45.5319993 46.997999,45.464 47.206,45.464 L49.174,45.464 Z M57.922,49.064 C57.9620002,49.1680005 57.982,49.2639996 57.982,49.352 C57.982,49.560001 57.9140007,49.7299993 57.778,49.862 C57.6419993,49.9940007 57.4860009,50.06 57.31,50.06 C57.1659993,50.06 57.0360006,50.0160004 56.92,49.928 C56.8039994,49.8399996 56.7140003,49.7200008 56.65,49.568 L56.026,48.116 L52.45,48.116 L51.826,49.58 C51.7699997,49.7320008 51.6840006,49.8499996 51.568,49.934 C51.4519994,50.0180004 51.3260007,50.06 51.19,50.06 C50.981999,50.06 50.8240005,50.0040006 50.716,49.892 C50.6079995,49.7799994 50.554,49.628001 50.554,49.436 C50.554,49.3639996 50.5659999,49.2880004 50.59,49.208 L53.578,42.032 C53.6420003,41.8719992 53.7379994,41.7480004 53.866,41.66 C53.9940006,41.5719996 54.1379992,41.5359999 54.298,41.552 C54.4420007,41.552 54.5759994,41.5939996 54.7,41.678 C54.8240006,41.7620004 54.9139997,41.8799992 54.97,42.032 L57.922,49.064 Z M53.038,46.736 L55.438,46.736 L54.226,43.928 L53.038,46.736 Z M64.522,41.6 C64.7380011,41.6 64.9139993,41.6639994 65.05,41.792 C65.1860007,41.9200006 65.254,42.087999 65.254,42.296 C65.254,42.504001 65.1860007,42.6699994 65.05,42.794 C64.9139993,42.9180006 64.7380011,42.98 64.522,42.98 L62.638,42.98 L62.638,49.268 C62.638,49.476001 62.5620008,49.6499993 62.41,49.79 C62.2579992,49.9300007 62.0700011,50 61.846,50 C61.6219989,50 61.4380007,49.9300007 61.294,49.79 C61.1499993,49.6499993 61.078,49.476001 61.078,49.268 L61.078,42.98 L59.194,42.98 C58.9779989,42.98 58.8020007,42.9160006 58.666,42.788 C58.5299993,42.6599994 58.462,42.492001 58.462,42.284 C58.462,42.083999 58.5319993,41.9200006 58.672,41.792 C58.8120007,41.6639994 58.985999,41.6 59.194,41.6 L64.522,41.6 Z M68.014,49.268 C68.014,49.476001 67.9380008,49.6499993 67.786,49.79 C67.6339992,49.9300007 67.458001,50 67.258,50 C67.0419989,50 66.8640007,49.9300007 66.724,49.79 C66.5839993,49.6499993 66.514,49.476001 66.514,49.268 L66.514,42.332 C66.514,42.123999 66.5859993,41.9500007 66.73,41.81 C66.8740007,41.6699993 67.0579989,41.6 67.282,41.6 C67.482001,41.6 67.6539993,41.6699993 67.798,41.81 C67.9420007,41.9500007 68.014,42.123999 68.014,42.332 L68.014,49.268 Z M77.542,45.8 C77.542,46.592004 77.3660018,47.3179967 77.014,47.978 C76.6619982,48.6380033 76.1760031,49.1599981 75.556,49.544 C74.9359969,49.9280019 74.2380039,50.12 73.462,50.12 C72.6859961,50.12 71.9880031,49.9280019 71.368,49.544 C70.7479969,49.1599981 70.2640017,48.6380033 69.916,47.978 C69.5679983,47.3179967 69.394,46.592004 69.394,45.8 C69.394,45.007996 69.5679983,44.2820033 69.916,43.622 C70.2640017,42.9619967 70.7479969,42.4400019 71.368,42.056 C71.9880031,41.6719981 72.6859961,41.48 73.462,41.48 C74.2380039,41.48 74.9359969,41.6719981 75.556,42.056 C76.1760031,42.4400019 76.6619982,42.9619967 77.014,43.622 C77.3660018,44.2820033 77.542,45.007996 77.542,45.8 Z M75.982,45.8 C75.982,45.2639973 75.8740011,44.7780022 75.658,44.342 C75.4419989,43.9059978 75.1420019,43.5600013 74.758,43.304 C74.3739981,43.0479987 73.9420024,42.92 73.462,42.92 C72.9739976,42.92 72.5400019,43.0459987 72.16,43.298 C71.7799981,43.5500013 71.4840011,43.8959978 71.272,44.336 C71.0599989,44.7760022 70.954,45.2639973 70.954,45.8 C70.954,46.3360027 71.0599989,46.8239978 71.272,47.264 C71.4840011,47.7040022 71.7799981,48.0499987 72.16,48.302 C72.5400019,48.5540013 72.9739976,48.68 73.462,48.68 C73.9420024,48.68 74.3739981,48.5520013 74.758,48.296 C75.1420019,48.0399987 75.4419989,47.6940022 75.658,47.258 C75.8740011,46.8219978 75.982,46.3360027 75.982,45.8 Z M85.294,41.6 C85.486001,41.6 85.6419994,41.6639994 85.762,41.792 C85.8820006,41.9200006 85.942,42.079999 85.942,42.272 L85.942,49.268 C85.942,49.476001 85.8720007,49.6499993 85.732,49.79 C85.5919993,49.9300007 85.418001,50 85.21,50 C85.0979994,50 84.9880005,49.9820002 84.88,49.946 C84.7719995,49.9099998 84.6940002,49.8600003 84.646,49.796 L80.242,44.204 L80.242,49.328 C80.242,49.520001 80.1800006,49.6799994 80.056,49.808 C79.9319994,49.9360006 79.770001,50 79.57,50 C79.377999,50 79.2220006,49.9360006 79.102,49.808 C78.9819994,49.6799994 78.922,49.520001 78.922,49.328 L78.922,42.332 C78.922,42.123999 78.9919993,41.9500007 79.132,41.81 C79.2720007,41.6699993 79.445999,41.6 79.654,41.6 C79.7740006,41.6 79.8919994,41.6239998 80.008,41.672 C80.1240006,41.7200002 80.2099997,41.7839996 80.266,41.864 L84.634,47.432 L84.634,42.272 C84.634,42.079999 84.6959994,41.9200006 84.82,41.792 C84.9440006,41.6639994 85.101999,41.6 85.294,41.6 Z" id="NAVIGATION" fill="#333333" fill-rule="nonzero"></path>
        <g id="Group" transform="translate(274.000000, 40.000000)">
            <path d="M20.5142857,3.5 L20,3.5 L20,2 L20.5142857,2 L31.4857143,2 L32,2 L32,3.5 L31.4857143,3.5 L20.5142857,3.5 Z M20.3142857,6.97826087 L20,6.97826087 L20,5.47826087 L20.3142857,5.47826087 L27.0190476,5.47826087 L27.3333333,5.47826087 L27.3333333,6.97826087 L27.0190476,6.97826087 L20.3142857,6.97826087 Z M20.5142857,10.4565217 L20,10.4565217 L20,8.95652174 L20.5142857,8.95652174 L31.4857143,8.95652174 L32,8.95652174 L32,10.4565217 L31.4857143,10.4565217 L20.5142857,10.4565217 Z" id="Combined-Shape" fill="#424851"></path>
            <g id="Orion_search" fill="#202020" fill-rule="nonzero">
                <path d="M7.90933787,7.05859471 C9.30449047,5.22352937 9.03925162,2.60933943 7.29521707,1.08613695 C5.55118253,-0.437065537 2.9250947,-0.3480985 1.28814583,1.2896455 C-0.348803033,2.9273895 -0.436511177,5.55353663 1.08751695,7.29685241 C2.61154507,9.04016818 5.2258449,9.30415611 7.06762361,7.90071428 L10.9758968,11.8242077 C11.2100965,12.0585193 11.5898987,12.0586088 11.8242088,11.8244076 C12.0585189,11.5902065 12.0586085,11.2104018 11.8244088,10.9760902 L7.90933787,7.05859471 Z M4.40252834,7.60161388 C2.63581689,7.60161388 1.20361429,6.16940201 1.20361429,4.40267914 C1.20361429,2.63595627 2.63581689,1.20374441 4.40252834,1.20374441 C6.16923978,1.20374441 7.60144239,2.63595627 7.60144239,4.40267914 C7.6012216,6.16931055 6.16914832,7.60139309 4.40252834,7.60161388 Z" id="Shape"></path>
            </g>
        </g>
        <rect id="Rectangle" fill="#B5B5B5" x="150" y="5" width="155" height="22"></rect>
        <path d="M202.815,15.32 C203.228335,15.4400006 203.548332,15.6499985 203.775,15.95 C204.001668,16.2500015 204.115,16.6166645 204.115,17.05 C204.115,17.650003 203.891669,18.1249983 203.445,18.475 C202.998331,18.8250017 202.391671,19 201.625,19 L198.245,19 L198.245,11.88 L201.525,11.88 C202.265004,11.88 202.849998,12.0449983 203.28,12.375 C203.710002,12.7050016 203.925,13.1566638 203.925,13.73 C203.925,14.1033352 203.826668,14.4299986 203.63,14.71 C203.433332,14.9900014 203.161668,15.1933327 202.815,15.32 Z M199.765,14.78 L201.265,14.78 C201.665002,14.78 201.963332,14.7116673 202.16,14.575 C202.356668,14.4383326 202.455,14.2266681 202.455,13.94 C202.455,13.6466652 202.356668,13.4300007 202.16,13.29 C201.963332,13.1499993 201.665002,13.08 201.265,13.08 L199.765,13.08 L199.765,14.78 Z M201.445,17.8 C201.865002,17.8 202.169999,17.7283341 202.36,17.585 C202.550001,17.441666 202.645,17.2133349 202.645,16.9 C202.645,16.5799984 202.550001,16.3466674 202.36,16.2 C202.169999,16.0533326 201.865002,15.98 201.445,15.98 L199.765,15.98 L199.765,17.8 L201.445,17.8 Z M210.645,19 L209.965,17.42 L206.635,17.42 L205.955,19 L204.385,19 L207.655,11.88 L208.915,11.88 L212.185,19 L210.645,19 Z M207.155,16.23 L209.455,16.23 L208.305,13.56 L207.155,16.23 Z M217.495,11.88 L218.965,11.88 L218.965,19 L217.805,19 L214.255,14.46 L214.255,19 L212.795,19 L212.795,11.88 L213.945,11.88 L217.495,16.41 L217.495,11.88 Z M225.095,11.88 L226.565,11.88 L226.565,19 L225.405,19 L221.855,14.46 L221.855,19 L220.395,19 L220.395,11.88 L221.545,11.88 L225.095,16.41 L225.095,11.88 Z M227.995,19 L227.995,11.88 L232.905,11.88 L232.905,13.09 L229.515,13.09 L229.515,14.77 L232.695,14.77 L232.695,15.99 L229.515,15.99 L229.515,17.79 L232.905,17.79 L232.905,19 L227.995,19 Z M239.995,19 L238.345,19 L237.435,16.63 C237.361666,16.4433324 237.250001,16.3133337 237.1,16.24 C236.949999,16.1666663 236.761668,16.13 236.535,16.13 L235.525,16.13 L235.525,19 L233.985,19 L233.985,11.88 L237.155,11.88 C237.981671,11.88 238.608331,12.0599982 239.035,12.42 C239.461669,12.7800018 239.675,13.2966633 239.675,13.97 C239.675,14.4433357 239.550001,14.8499983 239.3,15.19 C239.049999,15.5300017 238.691669,15.7733326 238.225,15.92 C238.645002,16.0066671 238.948332,16.2966642 239.135,16.79 L239.995,19 Z M236.925,14.94 C237.371669,14.94 237.698332,14.8650008 237.905,14.715 C238.111668,14.5649992 238.215,14.3300016 238.215,14.01 C238.215,13.6899984 238.111668,13.4550007 237.905,13.305 C237.698332,13.1549992 237.371669,13.08 236.925,13.08 L235.505,13.08 L235.505,14.94 L236.925,14.94 Z M249.315,19 L248.635,17.42 L245.305,17.42 L244.625,19 L243.055,19 L246.325,11.88 L247.585,11.88 L250.855,19 L249.315,19 Z M245.825,16.23 L248.125,16.23 L246.975,13.56 L245.825,16.23 Z M251.465,11.88 L254.215,11.88 C254.995004,11.88 255.664997,12.0199986 256.225,12.3 C256.785003,12.5800014 257.213332,12.986664 257.51,13.52 C257.806668,14.053336 257.955,14.6899963 257.955,15.43 C257.955,16.1766704 257.808335,16.816664 257.515,17.35 C257.221665,17.883336 256.795003,18.2916653 256.235,18.575 C255.674997,18.8583348 255.001671,19 254.215,19 L251.465,19 L251.465,11.88 Z M254.115,17.74 C255.635008,17.74 256.395,16.9700077 256.395,15.43 C256.395,13.9033257 255.635008,13.14 254.115,13.14 L253.025,13.14 L253.025,17.74 L254.115,17.74 Z" id="BANNERAD" fill="#FFFFFF" fill-rule="nonzero"></path>
    </g>
</svg>