<?xml version="1.0" encoding="UTF-8"?>
<svg width="320px" height="40px" viewBox="0 0 320 40" version="1.1" xmlns="http://www.w3.org/2000/svg" xmlns:xlink="http://www.w3.org/1999/xlink">
    <!-- Generator: Sketch 53 (72520) - https://sketchapp.com -->
    <title>header_layout_2</title>
    <desc>Created with Sketch.</desc>
    <g id="header_layout_2" stroke="none" stroke-width="1" fill="none" fill-rule="evenodd">
        <rect fill="#FFFFFF" x="0" y="0" width="320" height="40"></rect>
        <path d="M21.095,24.245 C21.3550013,24.245 21.5724991,24.3274992 21.7475,24.4925 C21.9225009,24.6575008 22.01,24.8699987 22.01,25.13 C22.01,25.3800012 21.9225009,25.5874992 21.7475,25.7525 C21.5724991,25.9175008 21.3550013,26 21.095,26 L16.22,26 C15.9599987,26 15.7425009,25.9125009 15.5675,25.7375 C15.3924991,25.5624991 15.305,25.3450013 15.305,25.085 L15.305,16.415 C15.305,16.1549987 15.3949991,15.9375009 15.575,15.7625 C15.7550009,15.5874991 15.9849986,15.5 16.265,15.5 C16.5150013,15.5 16.7299991,15.5874991 16.91,15.7625 C17.0900009,15.9375009 17.18,16.1549987 17.18,16.415 L17.18,24.245 L21.095,24.245 Z M33.395,20.75 C33.395,21.7400049 33.1750022,22.6474959 32.735,23.4725 C32.2949978,24.2975041 31.6875039,24.9499976 30.9125,25.43 C30.1374961,25.9100024 29.2650048,26.15 28.295,26.15 C27.3249951,26.15 26.4525039,25.9100024 25.6775,25.43 C24.9024961,24.9499976 24.2975022,24.2975041 23.8625,23.4725 C23.4274978,22.6474959 23.21,21.7400049 23.21,20.75 C23.21,19.7599951 23.4274978,18.8525041 23.8625,18.0275 C24.2975022,17.2024959 24.9024961,16.5500024 25.6775,16.07 C26.4525039,15.5899976 27.3249951,15.35 28.295,15.35 C29.2650048,15.35 30.1374961,15.5899976 30.9125,16.07 C31.6875039,16.5500024 32.2949978,17.2024959 32.735,18.0275 C33.1750022,18.8525041 33.395,19.7599951 33.395,20.75 Z M31.445,20.75 C31.445,20.0799967 31.3100014,19.4725027 31.04,18.9275 C30.7699986,18.3824973 30.3950024,17.9500016 29.915,17.63 C29.4349976,17.3099984 28.895003,17.15 28.295,17.15 C27.6849969,17.15 27.1425024,17.3074984 26.6675,17.6225 C26.1924976,17.9375016 25.8225013,18.3699973 25.5575,18.92 C25.2924987,19.4700027 25.16,20.0799967 25.16,20.75 C25.16,21.4200033 25.2924987,22.0299973 25.5575,22.58 C25.8225013,23.1300027 26.1924976,23.5624984 26.6675,23.8775 C27.1425024,24.1925016 27.6849969,24.35 28.295,24.35 C28.895003,24.35 29.4349976,24.1900016 29.915,23.87 C30.3950024,23.5499984 30.7699986,23.1175027 31.04,22.5725 C31.3100014,22.0274973 31.445,21.4200033 31.445,20.75 Z M42.86,20.33 C43.1200013,20.33 43.3349991,20.4174991 43.505,20.5925 C43.6750008,20.7675009 43.76,20.9849987 43.76,21.245 L43.76,24.425 C43.76,24.7750018 43.6050015,25.0449991 43.295,25.235 C42.3149951,25.8450031 41.2400058,26.15 40.07,26.15 C39.0799951,26.15 38.1650042,25.9075024 37.325,25.4225 C36.4849958,24.9374976 35.8200024,24.2825041 35.33,23.4575 C34.8399975,22.6324959 34.595,21.7300049 34.595,20.75 C34.595,19.7699951 34.8399975,18.8675041 35.33,18.0425 C35.8200024,17.2174959 36.4849958,16.5625024 37.325,16.0775 C38.1650042,15.5924976 39.0799951,15.35 40.07,15.35 C41.0600049,15.35 41.9199963,15.549998 42.65,15.95 C42.8000007,16.0300004 42.9124996,16.1349994 42.9875,16.265 C43.0625004,16.3950007 43.1,16.5349992 43.1,16.685 C43.1,16.9350012 43.0175008,17.1524991 42.8525,17.3375 C42.6874992,17.5225009 42.4850012,17.615 42.245,17.615 C42.0949993,17.615 41.9300009,17.5750004 41.75,17.495 C41.2099973,17.2649989 40.6500029,17.15 40.07,17.15 C39.4299968,17.15 38.8400027,17.3124984 38.3,17.6375 C37.7599973,17.9625016 37.3325016,18.3999972 37.0175,18.95 C36.7024984,19.5000028 36.545,20.0999967 36.545,20.75 C36.545,21.4000033 36.7024984,21.9999972 37.0175,22.55 C37.3325016,23.1000028 37.7599973,23.5374984 38.3,23.8625 C38.8400027,24.1875016 39.4299968,24.35 40.07,24.35 C40.3500014,24.35 40.6499984,24.3250002 40.97,24.275 C41.2900016,24.2249998 41.5699988,24.1600004 41.81,24.08 L41.81,22.13 L40.4,22.13 C40.1399987,22.13 39.9225009,22.0450009 39.7475,21.875 C39.5724991,21.7049991 39.485,21.4900013 39.485,21.23 C39.485,20.9699987 39.5724991,20.7550009 39.7475,20.585 C39.9225009,20.4149991 40.1399987,20.33 40.4,20.33 L42.86,20.33 Z M55.22,20.75 C55.22,21.7400049 55.0000022,22.6474959 54.56,23.4725 C54.1199978,24.2975041 53.5125039,24.9499976 52.7375,25.43 C51.9624961,25.9100024 51.0900048,26.15 50.12,26.15 C49.1499951,26.15 48.2775039,25.9100024 47.5025,25.43 C46.7274961,24.9499976 46.1225022,24.2975041 45.6875,23.4725 C45.2524978,22.6474959 45.035,21.7400049 45.035,20.75 C45.035,19.7599951 45.2524978,18.8525041 45.6875,18.0275 C46.1225022,17.2024959 46.7274961,16.5500024 47.5025,16.07 C48.2775039,15.5899976 49.1499951,15.35 50.12,15.35 C51.0900048,15.35 51.9624961,15.5899976 52.7375,16.07 C53.5125039,16.5500024 54.1199978,17.2024959 54.56,18.0275 C55.0000022,18.8525041 55.22,19.7599951 55.22,20.75 Z M53.27,20.75 C53.27,20.0799967 53.1350013,19.4725027 52.865,18.9275 C52.5949986,18.3824973 52.2200024,17.9500016 51.74,17.63 C51.2599976,17.3099984 50.720003,17.15 50.12,17.15 C49.5099969,17.15 48.9675024,17.3074984 48.4925,17.6225 C48.0174976,17.9375016 47.6475013,18.3699973 47.3825,18.92 C47.1174987,19.4700027 46.985,20.0799967 46.985,20.75 C46.985,21.4200033 47.1174987,22.0299973 47.3825,22.58 C47.6475013,23.1300027 48.0174976,23.5624984 48.4925,23.8775 C48.9675024,24.1925016 49.5099969,24.35 50.12,24.35 C50.720003,24.35 51.2599976,24.1900016 51.74,23.87 C52.2200024,23.5499984 52.5949986,23.1175027 52.865,22.5725 C53.1350013,22.0274973 53.27,21.4200033 53.27,20.75 Z" id="LOGO" fill="#333333" fill-rule="nonzero"></path>
        <path d="M131.43,16.6 C131.622001,16.6 131.777999,16.6639994 131.898,16.792 C132.018001,16.9200006 132.078,17.079999 132.078,17.272 L132.078,24.268 C132.078,24.476001 132.008001,24.6499993 131.868,24.79 C131.727999,24.9300007 131.554001,25 131.346,25 C131.233999,25 131.124001,24.9820002 131.016,24.946 C130.907999,24.9099998 130.83,24.8600003 130.782,24.796 L126.378,19.204 L126.378,24.328 C126.378,24.520001 126.316001,24.6799994 126.192,24.808 C126.067999,24.9360006 125.906001,25 125.706,25 C125.513999,25 125.358001,24.9360006 125.238,24.808 C125.117999,24.6799994 125.058,24.520001 125.058,24.328 L125.058,17.332 C125.058,17.123999 125.127999,16.9500007 125.268,16.81 C125.408001,16.6699993 125.581999,16.6 125.79,16.6 C125.910001,16.6 126.027999,16.6239998 126.144,16.672 C126.260001,16.7200002 126.346,16.7839996 126.402,16.864 L130.77,22.432 L130.77,17.272 C130.77,17.079999 130.831999,16.9200006 130.956,16.792 C131.080001,16.6639994 131.237999,16.6 131.43,16.6 Z M140.466,24.064 C140.506,24.1680005 140.526,24.2639996 140.526,24.352 C140.526,24.560001 140.458001,24.7299993 140.322,24.862 C140.185999,24.9940007 140.030001,25.06 139.854,25.06 C139.709999,25.06 139.580001,25.0160004 139.464,24.928 C139.347999,24.8399996 139.258,24.7200008 139.194,24.568 L138.57,23.116 L134.994,23.116 L134.37,24.58 C134.314,24.7320008 134.228001,24.8499996 134.112,24.934 C133.995999,25.0180004 133.870001,25.06 133.734,25.06 C133.525999,25.06 133.368001,25.0040006 133.26,24.892 C133.151999,24.7799994 133.098,24.628001 133.098,24.436 C133.098,24.3639996 133.11,24.2880004 133.134,24.208 L136.122,17.032 C136.186,16.8719992 136.281999,16.7480004 136.41,16.66 C136.538001,16.5719996 136.681999,16.5359999 136.842,16.552 C136.986001,16.552 137.119999,16.5939996 137.244,16.678 C137.368001,16.7620004 137.458,16.8799992 137.514,17.032 L140.466,24.064 Z M135.582,21.736 L137.982,21.736 L136.77,18.928 L135.582,21.736 Z M147.678,16.576 C147.878001,16.576 148.051999,16.6439993 148.2,16.78 C148.348001,16.9160007 148.422,17.079999 148.422,17.272 C148.422,17.3760005 148.398,17.4839994 148.35,17.596 L145.386,24.532 C145.314,24.6840008 145.214001,24.7999996 145.086,24.88 C144.957999,24.9600004 144.822001,25 144.678,25 C144.541999,24.992 144.416001,24.9500004 144.3,24.874 C144.183999,24.7979996 144.094,24.6880007 144.03,24.544 L141.066,17.584 C141.026,17.5039996 141.006,17.4040006 141.006,17.284 C141.006,17.0679989 141.085999,16.8940007 141.246,16.762 C141.406001,16.6299993 141.569999,16.564 141.738,16.564 C141.874001,16.564 142.001999,16.6039996 142.122,16.684 C142.242001,16.7640004 142.334,16.8799992 142.398,17.032 L144.81,22.708 L147.018,17.032 C147.082,16.8879993 147.173999,16.7760004 147.294,16.696 C147.414001,16.6159996 147.541999,16.576 147.678,16.576 Z M151.182,24.268 C151.182,24.476001 151.106001,24.6499993 150.954,24.79 C150.801999,24.9300007 150.626001,25 150.426,25 C150.209999,25 150.032001,24.9300007 149.892,24.79 C149.751999,24.6499993 149.682,24.476001 149.682,24.268 L149.682,17.332 C149.682,17.123999 149.753999,16.9500007 149.898,16.81 C150.042001,16.6699993 150.225999,16.6 150.45,16.6 C150.650001,16.6 150.821999,16.6699993 150.966,16.81 C151.110001,16.9500007 151.182,17.123999 151.182,17.332 L151.182,24.268 Z M159.174,20.464 C159.382001,20.464 159.553999,20.5339993 159.69,20.674 C159.826001,20.8140007 159.894,20.987999 159.894,21.196 L159.894,23.74 C159.894,24.0200014 159.770001,24.2359992 159.522,24.388 C158.737996,24.8760024 157.878005,25.12 156.942,25.12 C156.149996,25.12 155.418003,24.9260019 154.746,24.538 C154.073997,24.1499981 153.542002,23.6260033 153.15,22.966 C152.757998,22.3059967 152.562,21.5840039 152.562,20.8 C152.562,20.0159961 152.757998,19.2940033 153.15,18.634 C153.542002,17.9739967 154.073997,17.4500019 154.746,17.062 C155.418003,16.6739981 156.149996,16.48 156.942,16.48 C157.734004,16.48 158.421997,16.6399984 159.006,16.96 C159.126001,17.0240003 159.216,17.1079995 159.276,17.212 C159.336,17.3160005 159.366,17.4279994 159.366,17.548 C159.366,17.748001 159.300001,17.9219993 159.168,18.07 C159.035999,18.2180007 158.874001,18.292 158.682,18.292 C158.561999,18.292 158.430001,18.2600003 158.286,18.196 C157.853998,18.0119991 157.406002,17.92 156.942,17.92 C156.429997,17.92 155.958002,18.0499987 155.526,18.31 C155.093998,18.5700013 154.752001,18.9199978 154.5,19.36 C154.247999,19.8000022 154.122,20.2799974 154.122,20.8 C154.122,21.3200026 154.247999,21.7999978 154.5,22.24 C154.752001,22.6800022 155.093998,23.0299987 155.526,23.29 C155.958002,23.5500013 156.429997,23.68 156.942,23.68 C157.166001,23.68 157.405999,23.6600002 157.662,23.62 C157.918001,23.5799998 158.141999,23.5280003 158.334,23.464 L158.334,21.904 L157.206,21.904 C156.997999,21.904 156.824001,21.8360007 156.684,21.7 C156.543999,21.5639993 156.474,21.392001 156.474,21.184 C156.474,20.975999 156.543999,20.8040007 156.684,20.668 C156.824001,20.5319993 156.997999,20.464 157.206,20.464 L159.174,20.464 Z M167.922,24.064 C167.962,24.1680005 167.982,24.2639996 167.982,24.352 C167.982,24.560001 167.914001,24.7299993 167.778,24.862 C167.641999,24.9940007 167.486001,25.06 167.31,25.06 C167.165999,25.06 167.036001,25.0160004 166.92,24.928 C166.803999,24.8399996 166.714,24.7200008 166.65,24.568 L166.026,23.116 L162.45,23.116 L161.826,24.58 C161.77,24.7320008 161.684001,24.8499996 161.568,24.934 C161.451999,25.0180004 161.326001,25.06 161.19,25.06 C160.981999,25.06 160.824001,25.0040006 160.716,24.892 C160.607999,24.7799994 160.554,24.628001 160.554,24.436 C160.554,24.3639996 160.566,24.2880004 160.59,24.208 L163.578,17.032 C163.642,16.8719992 163.737999,16.7480004 163.866,16.66 C163.994001,16.5719996 164.137999,16.5359999 164.298,16.552 C164.442001,16.552 164.575999,16.5939996 164.7,16.678 C164.824001,16.7620004 164.914,16.8799992 164.97,17.032 L167.922,24.064 Z M163.038,21.736 L165.438,21.736 L164.226,18.928 L163.038,21.736 Z M174.522,16.6 C174.738001,16.6 174.913999,16.6639994 175.05,16.792 C175.186001,16.9200006 175.254,17.087999 175.254,17.296 C175.254,17.504001 175.186001,17.6699994 175.05,17.794 C174.913999,17.9180006 174.738001,17.98 174.522,17.98 L172.638,17.98 L172.638,24.268 C172.638,24.476001 172.562001,24.6499993 172.41,24.79 C172.257999,24.9300007 172.070001,25 171.846,25 C171.621999,25 171.438001,24.9300007 171.294,24.79 C171.149999,24.6499993 171.078,24.476001 171.078,24.268 L171.078,17.98 L169.194,17.98 C168.977999,17.98 168.802001,17.9160006 168.666,17.788 C168.529999,17.6599994 168.462,17.492001 168.462,17.284 C168.462,17.083999 168.531999,16.9200006 168.672,16.792 C168.812001,16.6639994 168.985999,16.6 169.194,16.6 L174.522,16.6 Z M178.014,24.268 C178.014,24.476001 177.938001,24.6499993 177.786,24.79 C177.633999,24.9300007 177.458001,25 177.258,25 C177.041999,25 176.864001,24.9300007 176.724,24.79 C176.583999,24.6499993 176.514,24.476001 176.514,24.268 L176.514,17.332 C176.514,17.123999 176.585999,16.9500007 176.73,16.81 C176.874001,16.6699993 177.057999,16.6 177.282,16.6 C177.482001,16.6 177.653999,16.6699993 177.798,16.81 C177.942001,16.9500007 178.014,17.123999 178.014,17.332 L178.014,24.268 Z M187.542,20.8 C187.542,21.592004 187.366002,22.3179967 187.014,22.978 C186.661998,23.6380033 186.176003,24.1599981 185.556,24.544 C184.935997,24.9280019 184.238004,25.12 183.462,25.12 C182.685996,25.12 181.988003,24.9280019 181.368,24.544 C180.747997,24.1599981 180.264002,23.6380033 179.916,22.978 C179.567998,22.3179967 179.394,21.592004 179.394,20.8 C179.394,20.007996 179.567998,19.2820033 179.916,18.622 C180.264002,17.9619967 180.747997,17.4400019 181.368,17.056 C181.988003,16.6719981 182.685996,16.48 183.462,16.48 C184.238004,16.48 184.935997,16.6719981 185.556,17.056 C186.176003,17.4400019 186.661998,17.9619967 187.014,18.622 C187.366002,19.2820033 187.542,20.007996 187.542,20.8 Z M185.982,20.8 C185.982,20.2639973 185.874001,19.7780022 185.658,19.342 C185.441999,18.9059978 185.142002,18.5600013 184.758,18.304 C184.373998,18.0479987 183.942002,17.92 183.462,17.92 C182.973998,17.92 182.540002,18.0459987 182.16,18.298 C181.779998,18.5500013 181.484001,18.8959978 181.272,19.336 C181.059999,19.7760022 180.954,20.2639973 180.954,20.8 C180.954,21.3360027 181.059999,21.8239978 181.272,22.264 C181.484001,22.7040022 181.779998,23.0499987 182.16,23.302 C182.540002,23.5540013 182.973998,23.68 183.462,23.68 C183.942002,23.68 184.373998,23.5520013 184.758,23.296 C185.142002,23.0399987 185.441999,22.6940022 185.658,22.258 C185.874001,21.8219978 185.982,21.3360027 185.982,20.8 Z M195.294,16.6 C195.486001,16.6 195.641999,16.6639994 195.762,16.792 C195.882001,16.9200006 195.942,17.079999 195.942,17.272 L195.942,24.268 C195.942,24.476001 195.872001,24.6499993 195.732,24.79 C195.591999,24.9300007 195.418001,25 195.21,25 C195.097999,25 194.988001,24.9820002 194.88,24.946 C194.771999,24.9099998 194.694,24.8600003 194.646,24.796 L190.242,19.204 L190.242,24.328 C190.242,24.520001 190.180001,24.6799994 190.056,24.808 C189.931999,24.9360006 189.770001,25 189.57,25 C189.377999,25 189.222001,24.9360006 189.102,24.808 C188.981999,24.6799994 188.922,24.520001 188.922,24.328 L188.922,17.332 C188.922,17.123999 188.991999,16.9500007 189.132,16.81 C189.272001,16.6699993 189.445999,16.6 189.654,16.6 C189.774001,16.6 189.891999,16.6239998 190.008,16.672 C190.124001,16.7200002 190.21,16.7839996 190.266,16.864 L194.634,22.432 L194.634,17.272 C194.634,17.079999 194.695999,16.9200006 194.82,16.792 C194.944001,16.6639994 195.101999,16.6 195.294,16.6 Z" id="NAVIGATION" fill="#333333" fill-rule="nonzero"></path>
        <g id="Group" transform="translate(273.000000, 14.000000)">
            <path d="M21.5142857,3.5 L21,3.5 L21,2 L21.5142857,2 L32.4857143,2 L33,2 L33,3.5 L32.4857143,3.5 L21.5142857,3.5 Z M21.3142857,6.97826087 L21,6.97826087 L21,5.47826087 L21.3142857,5.47826087 L28.0190476,5.47826087 L28.3333333,5.47826087 L28.3333333,6.97826087 L28.0190476,6.97826087 L21.3142857,6.97826087 Z M21.5142857,10.4565217 L21,10.4565217 L21,8.95652174 L21.5142857,8.95652174 L32.4857143,8.95652174 L33,8.95652174 L33,10.4565217 L32.4857143,10.4565217 L21.5142857,10.4565217 Z" id="Combined-Shape" fill="#424851"></path>
            <g id="Orion_search" fill="#202020" fill-rule="nonzero">
                <path d="M7.90933787,7.05859471 C9.30449047,5.22352937 9.03925162,2.60933943 7.29521707,1.08613695 C5.55118253,-0.437065537 2.9250947,-0.3480985 1.28814583,1.2896455 C-0.348803033,2.9273895 -0.436511177,5.55353663 1.08751695,7.29685241 C2.61154507,9.04016818 5.2258449,9.30415611 7.06762361,7.90071428 L10.9758968,11.8242077 C11.2100965,12.0585193 11.5898987,12.0586088 11.8242088,11.8244076 C12.0585189,11.5902065 12.0586085,11.2104018 11.8244088,10.9760902 L7.90933787,7.05859471 Z M4.40252834,7.60161388 C2.63581689,7.60161388 1.20361429,6.16940201 1.20361429,4.40267914 C1.20361429,2.63595627 2.63581689,1.20374441 4.40252834,1.20374441 C6.16923978,1.20374441 7.60144239,2.63595627 7.60144239,4.40267914 C7.6012216,6.16931055 6.16914832,7.60139309 4.40252834,7.60161388 Z" id="Shape"></path>
            </g>
        </g>
    </g>
</svg>