<?xml version="1.0" encoding="UTF-8"?>
<svg width="154px" height="94px" viewBox="0 0 154 94" version="1.1" xmlns="http://www.w3.org/2000/svg" xmlns:xlink="http://www.w3.org/1999/xlink">
    <!-- Generator: Sketch 53 (72520) - https://sketchapp.com -->
    <title>header_orientation_window</title>
    <desc>Created with Sketch.</desc>
    <g id="header_orientation_window" stroke="none" stroke-width="1" fill="none" fill-rule="evenodd">
        <rect fill="#FFFFFF" x="0" y="0" width="154" height="94"></rect>
        <path d="M10.157,11.947 C10.3130008,11.947 10.4434995,11.9964995 10.5485,12.0955 C10.6535005,12.1945005 10.706,12.3219992 10.706,12.478 C10.706,12.6280007 10.6535005,12.7524995 10.5485,12.8515 C10.4434995,12.9505005 10.3130008,13 10.157,13 L7.232,13 C7.07599922,13 6.94550052,12.9475005 6.8405,12.8425 C6.73549947,12.7374995 6.683,12.6070008 6.683,12.451 L6.683,7.249 C6.683,7.09299922 6.73699946,6.96250052 6.845,6.8575 C6.95300054,6.75249947 7.09099916,6.7 7.259,6.7 C7.40900075,6.7 7.53799946,6.75249947 7.646,6.8575 C7.75400054,6.96250052 7.808,7.09299922 7.808,7.249 L7.808,11.947 L10.157,11.947 Z M17.537,9.85 C17.537,10.444003 17.4050013,10.9884975 17.141,11.4835 C16.8769987,11.9785025 16.5125023,12.3699986 16.0475,12.658 C15.5824977,12.9460014 15.0590029,13.09 14.477,13.09 C13.8949971,13.09 13.3715023,12.9460014 12.9065,12.658 C12.4414977,12.3699986 12.0785013,11.9785025 11.8175,11.4835 C11.5564987,10.9884975 11.426,10.444003 11.426,9.85 C11.426,9.25599703 11.5564987,8.71150247 11.8175,8.2165 C12.0785013,7.72149752 12.4414977,7.33000144 12.9065,7.042 C13.3715023,6.75399856 13.8949971,6.61 14.477,6.61 C15.0590029,6.61 15.5824977,6.75399856 16.0475,7.042 C16.5125023,7.33000144 16.8769987,7.72149752 17.141,8.2165 C17.4050013,8.71150247 17.537,9.25599703 17.537,9.85 Z M16.367,9.85 C16.367,9.44799799 16.2860008,9.08350163 16.124,8.7565 C15.9619992,8.42949836 15.7370014,8.17000096 15.449,7.978 C15.1609986,7.78599904 14.8370018,7.69 14.477,7.69 C14.1109982,7.69 13.7855014,7.78449905 13.5005,7.9735 C13.2154986,8.16250094 12.9935008,8.42199835 12.8345,8.752 C12.6754992,9.08200165 12.596,9.44799799 12.596,9.85 C12.596,10.252002 12.6754992,10.6179984 12.8345,10.948 C12.9935008,11.2780017 13.2154986,11.5374991 13.5005,11.7265 C13.7855014,11.9155009 14.1109982,12.01 14.477,12.01 C14.8370018,12.01 15.1609986,11.914001 15.449,11.722 C15.7370014,11.529999 15.9619992,11.2705016 16.124,10.9435 C16.2860008,10.6164984 16.367,10.252002 16.367,9.85 Z M23.216,9.598 C23.3720008,9.598 23.5009995,9.65049948 23.603,9.7555 C23.7050005,9.86050052 23.756,9.99099922 23.756,10.147 L23.756,12.055 C23.756,12.2650011 23.6630009,12.4269994 23.477,12.541 C22.8889971,12.9070018 22.2440035,13.09 21.542,13.09 C20.947997,13.09 20.3990025,12.9445015 19.895,12.6535 C19.3909975,12.3624985 18.9920015,11.9695025 18.698,11.4745 C18.4039985,10.9794975 18.257,10.4380029 18.257,9.85 C18.257,9.26199706 18.4039985,8.72050247 18.698,8.2255 C18.9920015,7.73049752 19.3909975,7.33750145 19.895,7.0465 C20.3990025,6.75549854 20.947997,6.61 21.542,6.61 C22.136003,6.61 22.6519978,6.7299988 23.09,6.97 C23.1800005,7.01800024 23.2474998,7.08099961 23.2925,7.159 C23.3375002,7.23700039 23.36,7.32099955 23.36,7.411 C23.36,7.56100075 23.3105005,7.69149944 23.2115,7.8025 C23.1124995,7.91350055 22.9910007,7.969 22.847,7.969 C22.7569995,7.969 22.6580005,7.94500024 22.55,7.897 C22.2259984,7.75899931 21.8900017,7.69 21.542,7.69 C21.1579981,7.69 20.8040016,7.78749902 20.48,7.9825 C20.1559984,8.17750097 19.8995009,8.43999835 19.7105,8.77 C19.5214991,9.10000165 19.427,9.45999805 19.427,9.85 C19.427,10.2400019 19.5214991,10.5999983 19.7105,10.93 C19.8995009,11.2600016 20.1559984,11.522499 20.48,11.7175 C20.8040016,11.912501 21.1579981,12.01 21.542,12.01 C21.7100008,12.01 21.889999,11.9950001 22.082,11.965 C22.274001,11.9349999 22.4419993,11.8960002 22.586,11.848 L22.586,10.678 L21.74,10.678 C21.5839992,10.678 21.4535005,10.6270005 21.3485,10.525 C21.2434995,10.4229995 21.191,10.2940008 21.191,10.138 C21.191,9.98199922 21.2434995,9.85300051 21.3485,9.751 C21.4535005,9.64899949 21.5839992,9.598 21.74,9.598 L23.216,9.598 Z M30.632,9.85 C30.632,10.444003 30.5000013,10.9884975 30.236,11.4835 C29.9719987,11.9785025 29.6075023,12.3699986 29.1425,12.658 C28.6774977,12.9460014 28.1540029,13.09 27.572,13.09 C26.9899971,13.09 26.4665023,12.9460014 26.0015,12.658 C25.5364977,12.3699986 25.1735013,11.9785025 24.9125,11.4835 C24.6514987,10.9884975 24.521,10.444003 24.521,9.85 C24.521,9.25599703 24.6514987,8.71150247 24.9125,8.2165 C25.1735013,7.72149752 25.5364977,7.33000144 26.0015,7.042 C26.4665023,6.75399856 26.9899971,6.61 27.572,6.61 C28.1540029,6.61 28.6774977,6.75399856 29.1425,7.042 C29.6075023,7.33000144 29.9719987,7.72149752 30.236,8.2165 C30.5000013,8.71150247 30.632,9.25599703 30.632,9.85 Z M29.462,9.85 C29.462,9.44799799 29.3810008,9.08350163 29.219,8.7565 C29.0569992,8.42949836 28.8320014,8.17000096 28.544,7.978 C28.2559986,7.78599904 27.9320018,7.69 27.572,7.69 C27.2059982,7.69 26.8805014,7.78449905 26.5955,7.9735 C26.3104986,8.16250094 26.0885008,8.42199835 25.9295,8.752 C25.7704992,9.08200165 25.691,9.44799799 25.691,9.85 C25.691,10.252002 25.7704992,10.6179984 25.9295,10.948 C26.0885008,11.2780017 26.3104986,11.5374991 26.5955,11.7265 C26.8805014,11.9155009 27.2059982,12.01 27.572,12.01 C27.9320018,12.01 28.2559986,11.914001 28.544,11.722 C28.8320014,11.529999 29.0569992,11.2705016 29.219,10.9435 C29.3810008,10.6164984 29.462,10.252002 29.462,9.85 Z" id="LOGO" fill="#333333" fill-rule="nonzero"></path>
        <path d="M92.12,7.4 C92.2480006,7.4 92.3519996,7.44266624 92.432,7.528 C92.5120004,7.61333376 92.552,7.71999936 92.552,7.848 L92.552,12.512 C92.552,12.6506674 92.5053338,12.7666662 92.412,12.86 C92.3186662,12.9533338 92.2026674,13 92.064,13 C91.989333,13 91.9160004,12.9880001 91.844,12.964 C91.7719996,12.9399999 91.7200002,12.9066669 91.688,12.864 L88.752,9.136 L88.752,12.552 C88.752,12.6800006 88.7106671,12.7866662 88.628,12.872 C88.5453329,12.9573338 88.437334,13 88.304,13 C88.1759994,13 88.0720004,12.9573338 87.992,12.872 C87.9119996,12.7866662 87.872,12.6800006 87.872,12.552 L87.872,7.888 C87.872,7.74933264 87.9186662,7.6333338 88.012,7.54 C88.1053338,7.4466662 88.2213326,7.4 88.36,7.4 C88.4400004,7.4 88.5186663,7.41599984 88.596,7.448 C88.6733337,7.48000016 88.7306665,7.5226664 88.768,7.576 L91.68,11.288 L91.68,7.848 C91.68,7.71999936 91.7213329,7.61333376 91.804,7.528 C91.8866671,7.44266624 91.9919994,7.4 92.12,7.4 Z M98.144,12.376 C98.1706668,12.4453337 98.184,12.509333 98.184,12.568 C98.184,12.7066674 98.1386671,12.8199996 98.048,12.908 C97.9573329,12.9960004 97.8533339,13.04 97.736,13.04 C97.6399995,13.04 97.5533337,13.010667 97.476,12.952 C97.3986663,12.893333 97.3386669,12.8133338 97.296,12.712 L96.88,11.744 L94.496,11.744 L94.08,12.72 C94.0426665,12.8213338 93.9853337,12.8999997 93.908,12.956 C93.8306663,13.0120003 93.7466671,13.04 93.656,13.04 C93.5173326,13.04 93.4120004,13.002667 93.34,12.928 C93.2679996,12.853333 93.232,12.7520006 93.232,12.624 C93.232,12.5759998 93.2399999,12.5253336 93.256,12.472 L95.248,7.688 C95.2906669,7.5813328 95.3546662,7.49866696 95.44,7.44 C95.5253338,7.38133304 95.6213328,7.35733328 95.728,7.368 C95.8240005,7.368 95.9133329,7.39599972 95.996,7.452 C96.0786671,7.50800028 96.1386665,7.58666616 96.176,7.688 L98.144,12.376 Z M94.888,10.824 L96.488,10.824 L95.68,8.952 L94.888,10.824 Z M102.952,7.384 C103.085334,7.384 103.201333,7.42933288 103.3,7.52 C103.398667,7.61066712 103.448,7.71999936 103.448,7.848 C103.448,7.91733368 103.432,7.98933296 103.4,8.064 L101.424,12.688 C101.376,12.7893338 101.309334,12.8666664 101.224,12.92 C101.138666,12.9733336 101.048,13 100.952,13 C100.861333,12.9946666 100.777334,12.9666669 100.7,12.916 C100.622666,12.8653331 100.562667,12.7920005 100.52,12.696 L98.544,8.056 C98.5173332,8.0026664 98.504,7.9360004 98.504,7.856 C98.504,7.71199928 98.5573328,7.59600044 98.664,7.508 C98.7706672,7.41999956 98.8799994,7.376 98.992,7.376 C99.0826671,7.376 99.1679996,7.4026664 99.248,7.456 C99.3280004,7.5093336 99.3893331,7.58666616 99.432,7.688 L101.04,11.472 L102.512,7.688 C102.554667,7.59199952 102.616,7.5173336 102.696,7.464 C102.776,7.4106664 102.861333,7.384 102.952,7.384 Z M105.288,12.512 C105.288,12.6506674 105.237334,12.7666662 105.136,12.86 C105.034666,12.9533338 104.917334,13 104.784,13 C104.639999,13 104.521334,12.9533338 104.428,12.86 C104.334666,12.7666662 104.288,12.6506674 104.288,12.512 L104.288,7.888 C104.288,7.74933264 104.336,7.6333338 104.432,7.54 C104.528,7.4466662 104.650666,7.4 104.8,7.4 C104.933334,7.4 105.048,7.4466662 105.144,7.54 C105.24,7.6333338 105.288,7.74933264 105.288,7.888 L105.288,12.512 Z M110.616,9.976 C110.754667,9.976 110.869333,10.0226662 110.96,10.116 C111.050667,10.2093338 111.096,10.3253326 111.096,10.464 L111.096,12.16 C111.096,12.3466676 111.013334,12.4906662 110.848,12.592 C110.325331,12.917335 109.752003,13.08 109.128,13.08 C108.599997,13.08 108.112002,12.950668 107.664,12.692 C107.215998,12.433332 106.861335,12.0840022 106.6,11.644 C106.338665,11.2039978 106.208,10.7226693 106.208,10.2 C106.208,9.67733072 106.338665,9.1960022 106.6,8.756 C106.861335,8.3159978 107.215998,7.96666796 107.664,7.708 C108.112002,7.44933204 108.599997,7.32 109.128,7.32 C109.656003,7.32 110.114665,7.4266656 110.504,7.64 C110.584,7.68266688 110.644,7.73866632 110.684,7.808 C110.724,7.87733368 110.744,7.9519996 110.744,8.032 C110.744,8.165334 110.7,8.28133284 110.612,8.38 C110.524,8.47866716 110.416001,8.528 110.288,8.528 C110.208,8.528 110.12,8.50666688 110.024,8.464 C109.735999,8.34133272 109.437335,8.28 109.128,8.28 C108.786665,8.28 108.472001,8.3666658 108.184,8.54 C107.895999,8.7133342 107.668001,8.9466652 107.5,9.24 C107.331999,9.5333348 107.248,9.8533316 107.248,10.2 C107.248,10.5466684 107.331999,10.8666652 107.5,11.16 C107.668001,11.4533348 107.895999,11.6866658 108.184,11.86 C108.472001,12.0333342 108.786665,12.12 109.128,12.12 C109.277334,12.12 109.437332,12.1066668 109.608,12.08 C109.778668,12.0533332 109.927999,12.0186669 110.056,11.976 L110.056,10.936 L109.304,10.936 C109.165333,10.936 109.049334,10.8906671 108.956,10.8 C108.862666,10.7093329 108.816,10.5946674 108.816,10.456 C108.816,10.3173326 108.862666,10.2026671 108.956,10.112 C109.049334,10.0213329 109.165333,9.976 109.304,9.976 L110.616,9.976 Z M116.448,12.376 C116.474667,12.4453337 116.488,12.509333 116.488,12.568 C116.488,12.7066674 116.442667,12.8199996 116.352,12.908 C116.261333,12.9960004 116.157334,13.04 116.04,13.04 C115.944,13.04 115.857334,13.010667 115.78,12.952 C115.702666,12.893333 115.642667,12.8133338 115.6,12.712 L115.184,11.744 L112.8,11.744 L112.384,12.72 C112.346666,12.8213338 112.289334,12.8999997 112.212,12.956 C112.134666,13.0120003 112.050667,13.04 111.96,13.04 C111.821333,13.04 111.716,13.002667 111.644,12.928 C111.572,12.853333 111.536,12.7520006 111.536,12.624 C111.536,12.5759998 111.544,12.5253336 111.56,12.472 L113.552,7.688 C113.594667,7.5813328 113.658666,7.49866696 113.744,7.44 C113.829334,7.38133304 113.925333,7.35733328 114.032,7.368 C114.128,7.368 114.217333,7.39599972 114.3,7.452 C114.382667,7.50800028 114.442666,7.58666616 114.48,7.688 L116.448,12.376 Z M113.192,10.824 L114.792,10.824 L113.984,8.952 L113.192,10.824 Z M120.848,7.4 C120.992001,7.4 121.109333,7.44266624 121.2,7.528 C121.290667,7.61333376 121.336,7.72533264 121.336,7.864 C121.336,8.00266736 121.290667,8.11333292 121.2,8.196 C121.109333,8.27866708 120.992001,8.32 120.848,8.32 L119.592,8.32 L119.592,12.512 C119.592,12.6506674 119.541334,12.7666662 119.44,12.86 C119.338666,12.9533338 119.213334,13 119.064,13 C118.914666,13 118.792,12.9533338 118.696,12.86 C118.6,12.7666662 118.552,12.6506674 118.552,12.512 L118.552,8.32 L117.296,8.32 C117.151999,8.32 117.034667,8.27733376 116.944,8.192 C116.853333,8.10666624 116.808,7.99466736 116.808,7.856 C116.808,7.722666 116.854666,7.61333376 116.948,7.528 C117.041334,7.44266624 117.157333,7.4 117.296,7.4 L120.848,7.4 Z M123.176,12.512 C123.176,12.6506674 123.125334,12.7666662 123.024,12.86 C122.922666,12.9533338 122.805334,13 122.672,13 C122.527999,13 122.409334,12.9533338 122.316,12.86 C122.222666,12.7666662 122.176,12.6506674 122.176,12.512 L122.176,7.888 C122.176,7.74933264 122.224,7.6333338 122.32,7.54 C122.416,7.4466662 122.538666,7.4 122.688,7.4 C122.821334,7.4 122.936,7.4466662 123.032,7.54 C123.128,7.6333338 123.176,7.74933264 123.176,7.888 L123.176,12.512 Z M129.528,10.2 C129.528,10.7280026 129.410668,11.2119978 129.176,11.652 C128.941332,12.0920022 128.617335,12.4399987 128.204,12.696 C127.790665,12.9520013 127.325336,13.08 126.808,13.08 C126.290664,13.08 125.825335,12.9520013 125.412,12.696 C124.998665,12.4399987 124.676001,12.0920022 124.444,11.652 C124.211999,11.2119978 124.096,10.7280026 124.096,10.2 C124.096,9.67199736 124.211999,9.1880022 124.444,8.748 C124.676001,8.3079978 124.998665,7.96000128 125.412,7.704 C125.825335,7.44799872 126.290664,7.32 126.808,7.32 C127.325336,7.32 127.790665,7.44799872 128.204,7.704 C128.617335,7.96000128 128.941332,8.3079978 129.176,8.748 C129.410668,9.1880022 129.528,9.67199736 129.528,10.2 Z M128.488,10.2 C128.488,9.84266488 128.416001,9.51866812 128.272,9.228 C128.127999,8.93733188 127.928001,8.70666752 127.672,8.536 C127.415999,8.36533248 127.128002,8.28 126.808,8.28 C126.482665,8.28 126.193335,8.36399916 125.94,8.532 C125.686665,8.70000084 125.489334,8.9306652 125.348,9.224 C125.206666,9.5173348 125.136,9.84266488 125.136,10.2 C125.136,10.5573351 125.206666,10.8826652 125.348,11.176 C125.489334,11.4693348 125.686665,11.6999992 125.94,11.868 C126.193335,12.0360008 126.482665,12.12 126.808,12.12 C127.128002,12.12 127.415999,12.0346675 127.672,11.864 C127.928001,11.6933325 128.127999,11.4626681 128.272,11.172 C128.416001,10.8813319 128.488,10.5573351 128.488,10.2 Z M134.696,7.4 C134.824001,7.4 134.928,7.44266624 135.008,7.528 C135.088,7.61333376 135.128,7.71999936 135.128,7.848 L135.128,12.512 C135.128,12.6506674 135.081334,12.7666662 134.988,12.86 C134.894666,12.9533338 134.778667,13 134.64,13 C134.565333,13 134.492,12.9880001 134.42,12.964 C134.348,12.9399999 134.296,12.9066669 134.264,12.864 L131.328,9.136 L131.328,12.552 C131.328,12.6800006 131.286667,12.7866662 131.204,12.872 C131.121333,12.9573338 131.013334,13 130.88,13 C130.751999,13 130.648,12.9573338 130.568,12.872 C130.488,12.7866662 130.448,12.6800006 130.448,12.552 L130.448,7.888 C130.448,7.74933264 130.494666,7.6333338 130.588,7.54 C130.681334,7.4466662 130.797333,7.4 130.936,7.4 C131.016,7.4 131.094666,7.41599984 131.172,7.448 C131.249334,7.48000016 131.306666,7.5226664 131.344,7.576 L134.256,11.288 L134.256,7.848 C134.256,7.71999936 134.297333,7.61333376 134.38,7.528 C134.462667,7.44266624 134.567999,7.4 134.696,7.4 Z" id="NAVIGATION" fill="#333333" fill-rule="nonzero"></path>
        <g id="Orion_search" transform="translate(141.000000, 6.000000)" fill="#202020" fill-rule="nonzero">
            <path d="M5.27289191,4.7057298 C6.20299365,3.48235291 6.02616775,1.73955962 4.86347805,0.724091298 C3.70078835,-0.291377025 1.95006313,-0.232065667 0.858763888,0.859763665 C-0.232535355,1.951593 -0.291007451,3.70235776 0.725011299,4.86456827 C1.74103005,6.02677879 3.4838966,6.20277074 4.71174907,5.26714285 L7.31726456,7.88280515 C7.47339769,8.03901289 7.72659917,8.03907256 7.8828059,7.88293843 C8.03901263,7.7268043 8.03907231,7.47360119 7.8829392,7.31739344 L5.27289191,4.7057298 Z M2.93501889,5.06774259 C1.75721126,5.06774259 0.802409525,4.11293468 0.802409525,2.93511943 C0.802409525,1.75730418 1.75721126,0.802496271 2.93501889,0.802496271 C4.11282652,0.802496271 5.06762826,1.75730418 5.06762826,2.93511943 C5.06748107,4.1128737 4.11276555,5.06759539 2.93501889,5.06774259 Z" id="Shape"></path>
        </g>
        <g id="Group-2" transform="translate(28.000000, 21.000000)">
            <rect id="Rectangle" fill="#F0F0F0" x="0" y="0" width="64" height="38"></rect>
            <rect id="Rectangle" fill="#F0F0F0" x="71" y="0" width="28" height="28"></rect>
            <rect id="Rectangle" fill="#F0F0F0" x="71" y="34" width="28" height="28"></rect>
            <g id="Group" transform="translate(12.000000, 44.000000)" stroke="#D6D6D6" stroke-linecap="square" stroke-width="2">
                <path d="M0,1 L40,1" id="Line"></path>
                <path d="M0,6 L40,6" id="Line"></path>
                <path d="M0,11 L40,11" id="Line"></path>
                <path d="M0,16 L23.7037037,16" id="Line"></path>
            </g>
        </g>
    </g>
</svg>