<?xml version="1.0" encoding="UTF-8"?>
<svg width="154px" height="94px" viewBox="0 0 154 94" version="1.1" xmlns="http://www.w3.org/2000/svg" xmlns:xlink="http://www.w3.org/1999/xlink">
    <!-- Generator: Sketch 53 (72520) - https://sketchapp.com -->
    <title>header_boxed</title>
    <desc>Created with Sketch.</desc>
    <g id="header_boxed" stroke="none" stroke-width="1" fill="none" fill-rule="evenodd">
        <rect fill="#FFFFFF" x="0" y="0" width="154" height="94"></rect>
        <path d="M68.474,11.337 C68.6300008,11.337 68.7604995,11.3864995 68.8655,11.4855 C68.9705005,11.5845005 69.023,11.7119992 69.023,11.868 C69.023,12.0180008 68.9705005,12.1424995 68.8655,12.2415 C68.7604995,12.3405005 68.6300008,12.39 68.474,12.39 L65.549,12.39 C65.3929992,12.39 65.2625005,12.3375005 65.1575,12.2325 C65.0524995,12.1274995 65,11.9970008 65,11.841 L65,6.639 C65,6.48299922 65.0539995,6.35250052 65.162,6.2475 C65.2700005,6.14249947 65.4079992,6.09 65.576,6.09 C65.7260007,6.09 65.8549995,6.14249947 65.963,6.2475 C66.0710005,6.35250052 66.125,6.48299922 66.125,6.639 L66.125,11.337 L68.474,11.337 Z M75.854,9.24 C75.854,9.83400297 75.7220013,10.3784975 75.458,10.8735 C75.1939987,11.3685025 74.8295023,11.7599986 74.3645,12.048 C73.8994977,12.3360014 73.3760029,12.48 72.794,12.48 C72.2119971,12.48 71.6885023,12.3360014 71.2235,12.048 C70.7584977,11.7599986 70.3955013,11.3685025 70.1345,10.8735 C69.8734987,10.3784975 69.743,9.83400297 69.743,9.24 C69.743,8.64599703 69.8734987,8.10150248 70.1345,7.6065 C70.3955013,7.11149752 70.7584977,6.72000144 71.2235,6.432 C71.6885023,6.14399856 72.2119971,6 72.794,6 C73.3760029,6 73.8994977,6.14399856 74.3645,6.432 C74.8295023,6.72000144 75.1939987,7.11149752 75.458,7.6065 C75.7220013,8.10150248 75.854,8.64599703 75.854,9.24 Z M74.684,9.24 C74.684,8.83799799 74.6030008,8.47350163 74.441,8.1465 C74.2789992,7.81949836 74.0540014,7.56000096 73.766,7.368 C73.4779986,7.17599904 73.1540018,7.08 72.794,7.08 C72.4279982,7.08 72.1025014,7.17449906 71.8175,7.3635 C71.5324986,7.55250095 71.3105008,7.81199835 71.1515,8.142 C70.9924992,8.47200165 70.913,8.83799799 70.913,9.24 C70.913,9.64200201 70.9924992,10.0079984 71.1515,10.338 C71.3105008,10.6680017 71.5324986,10.9274991 71.8175,11.1165 C72.1025014,11.3055009 72.4279982,11.4 72.794,11.4 C73.1540018,11.4 73.4779986,11.304001 73.766,11.112 C74.0540014,10.919999 74.2789992,10.6605016 74.441,10.3335 C74.6030008,10.0064984 74.684,9.64200201 74.684,9.24 Z M81.533,8.988 C81.6890008,8.988 81.8179995,9.04049948 81.92,9.1455 C82.0220005,9.25050052 82.073,9.38099922 82.073,9.537 L82.073,11.445 C82.073,11.6550011 81.9800009,11.8169994 81.794,11.931 C81.2059971,12.2970018 80.5610035,12.48 79.859,12.48 C79.264997,12.48 78.7160025,12.3345015 78.212,12.0435 C77.7079975,11.7524985 77.3090015,11.3595025 77.015,10.8645 C76.7209985,10.3694975 76.574,9.82800294 76.574,9.24 C76.574,8.65199706 76.7209985,8.11050248 77.015,7.6155 C77.3090015,7.12049753 77.7079975,6.72750146 78.212,6.4365 C78.7160025,6.14549854 79.264997,6 79.859,6 C80.453003,6 80.9689978,6.1199988 81.407,6.36 C81.4970005,6.40800024 81.5644998,6.47099961 81.6095,6.549 C81.6545002,6.62700039 81.677,6.71099955 81.677,6.801 C81.677,6.95100075 81.6275005,7.08149944 81.5285,7.1925 C81.4294995,7.30350056 81.3080007,7.359 81.164,7.359 C81.0739995,7.359 80.9750005,7.33500024 80.867,7.287 C80.5429984,7.14899931 80.2070017,7.08 79.859,7.08 C79.4749981,7.08 79.1210016,7.17749902 78.797,7.3725 C78.4729984,7.56750097 78.2165009,7.82999835 78.0275,8.16 C77.8384991,8.49000165 77.744,8.84999805 77.744,9.24 C77.744,9.63000195 77.8384991,9.98999835 78.0275,10.32 C78.2165009,10.6500017 78.4729984,10.912499 78.797,11.1075 C79.1210016,11.302501 79.4749981,11.4 79.859,11.4 C80.0270008,11.4 80.206999,11.3850001 80.399,11.355 C80.591001,11.3249999 80.7589993,11.2860002 80.903,11.238 L80.903,10.068 L80.057,10.068 C79.9009992,10.068 79.7705005,10.0170005 79.6655,9.915 C79.5604995,9.81299949 79.508,9.68400078 79.508,9.528 C79.508,9.37199922 79.5604995,9.24300051 79.6655,9.141 C79.7705005,9.03899949 79.9009992,8.988 80.057,8.988 L81.533,8.988 Z M88.949,9.24 C88.949,9.83400297 88.8170013,10.3784975 88.553,10.8735 C88.2889987,11.3685025 87.9245023,11.7599986 87.4595,12.048 C86.9944977,12.3360014 86.4710029,12.48 85.889,12.48 C85.3069971,12.48 84.7835023,12.3360014 84.3185,12.048 C83.8534977,11.7599986 83.4905013,11.3685025 83.2295,10.8735 C82.9684987,10.3784975 82.838,9.83400297 82.838,9.24 C82.838,8.64599703 82.9684987,8.10150248 83.2295,7.6065 C83.4905013,7.11149752 83.8534977,6.72000144 84.3185,6.432 C84.7835023,6.14399856 85.3069971,6 85.889,6 C86.4710029,6 86.9944977,6.14399856 87.4595,6.432 C87.9245023,6.72000144 88.2889987,7.11149752 88.553,7.6065 C88.8170013,8.10150248 88.949,8.64599703 88.949,9.24 Z M87.779,9.24 C87.779,8.83799799 87.6980008,8.47350163 87.536,8.1465 C87.3739992,7.81949836 87.1490014,7.56000096 86.861,7.368 C86.5729986,7.17599904 86.2490018,7.08 85.889,7.08 C85.5229982,7.08 85.1975014,7.17449906 84.9125,7.3635 C84.6274986,7.55250095 84.4055008,7.81199835 84.2465,8.142 C84.0874992,8.47200165 84.008,8.83799799 84.008,9.24 C84.008,9.64200201 84.0874992,10.0079984 84.2465,10.338 C84.4055008,10.6680017 84.6274986,10.9274991 84.9125,11.1165 C85.1975014,11.3055009 85.5229982,11.4 85.889,11.4 C86.2490018,11.4 86.5729986,11.304001 86.861,11.112 C87.1490014,10.919999 87.3739992,10.6605016 87.536,10.3335 C87.6980008,10.0064984 87.779,9.64200201 87.779,9.24 Z" id="LOGO" fill="#333333" fill-rule="nonzero"></path>
        <rect id="Rectangle" fill="#D8D8D8" x="22" y="18" width="111" height="18"></rect>
        <path d="M32.248,24.08 C32.3760006,24.08 32.4799996,24.1226662 32.56,24.208 C32.6400004,24.2933338 32.68,24.3999994 32.68,24.528 L32.68,29.192 C32.68,29.3306674 32.6333338,29.4466662 32.54,29.54 C32.4466662,29.6333338 32.3306674,29.68 32.192,29.68 C32.117333,29.68 32.0440004,29.6680001 31.972,29.644 C31.8999996,29.6199999 31.8480002,29.5866669 31.816,29.544 L28.88,25.816 L28.88,29.232 C28.88,29.3600006 28.8386671,29.4666662 28.756,29.552 C28.6733329,29.6373338 28.565334,29.68 28.432,29.68 C28.3039994,29.68 28.2000004,29.6373338 28.12,29.552 C28.0399996,29.4666662 28,29.3600006 28,29.232 L28,24.568 C28,24.4293326 28.0466662,24.3133338 28.14,24.22 C28.2333338,24.1266662 28.3493326,24.08 28.488,24.08 C28.5680004,24.08 28.6466663,24.0959998 28.724,24.128 C28.8013337,24.1600002 28.8586665,24.2026664 28.896,24.256 L31.808,27.968 L31.808,24.528 C31.808,24.3999994 31.8493329,24.2933338 31.932,24.208 C32.0146671,24.1226662 32.1199994,24.08 32.248,24.08 Z M38.272,29.056 C38.2986668,29.1253337 38.312,29.189333 38.312,29.248 C38.312,29.3866674 38.2666671,29.4999996 38.176,29.588 C38.0853329,29.6760004 37.9813339,29.72 37.864,29.72 C37.7679995,29.72 37.6813337,29.690667 37.604,29.632 C37.5266663,29.573333 37.4666669,29.4933338 37.424,29.392 L37.008,28.424 L34.624,28.424 L34.208,29.4 C34.1706665,29.5013338 34.1133337,29.5799997 34.036,29.636 C33.9586663,29.6920003 33.8746671,29.72 33.784,29.72 C33.6453326,29.72 33.5400004,29.682667 33.468,29.608 C33.3959996,29.533333 33.36,29.4320006 33.36,29.304 C33.36,29.2559998 33.3679999,29.2053336 33.384,29.152 L35.376,24.368 C35.4186669,24.2613328 35.4826662,24.178667 35.568,24.12 C35.6533338,24.061333 35.7493328,24.0373333 35.856,24.048 C35.9520005,24.048 36.0413329,24.0759997 36.124,24.132 C36.2066671,24.1880003 36.2666665,24.2666662 36.304,24.368 L38.272,29.056 Z M35.016,27.504 L36.616,27.504 L35.808,25.632 L35.016,27.504 Z M43.08,24.064 C43.213334,24.064 43.3293328,24.1093329 43.428,24.2 C43.5266672,24.2906671 43.576,24.3999994 43.576,24.528 C43.576,24.5973337 43.5600002,24.669333 43.528,24.744 L41.552,29.368 C41.5039998,29.4693338 41.4373338,29.5466664 41.352,29.6 C41.2666662,29.6533336 41.1760005,29.68 41.08,29.68 C40.9893329,29.6746666 40.9053337,29.6466669 40.828,29.596 C40.7506663,29.5453331 40.6906669,29.4720005 40.648,29.376 L38.672,24.736 C38.6453332,24.6826664 38.632,24.6160004 38.632,24.536 C38.632,24.3919993 38.6853328,24.2760004 38.792,24.188 C38.8986672,24.0999996 39.0079994,24.056 39.12,24.056 C39.2106671,24.056 39.2959996,24.0826664 39.376,24.136 C39.4560004,24.1893336 39.5173331,24.2666662 39.56,24.368 L41.168,28.152 L42.64,24.368 C42.6826669,24.2719995 42.7439996,24.1973336 42.824,24.144 C42.9040004,24.0906664 42.9893329,24.064 43.08,24.064 Z M45.416,29.192 C45.416,29.3306674 45.3653338,29.4466662 45.264,29.54 C45.1626662,29.6333338 45.045334,29.68 44.912,29.68 C44.7679993,29.68 44.6493338,29.6333338 44.556,29.54 C44.4626662,29.4466662 44.416,29.3306674 44.416,29.192 L44.416,24.568 C44.416,24.4293326 44.4639995,24.3133338 44.56,24.22 C44.6560005,24.1266662 44.7786659,24.08 44.928,24.08 C45.061334,24.08 45.1759995,24.1266662 45.272,24.22 C45.3680005,24.3133338 45.416,24.4293326 45.416,24.568 L45.416,29.192 Z M50.744,26.656 C50.8826674,26.656 50.9973329,26.7026662 51.088,26.796 C51.1786671,26.8893338 51.224,27.0053326 51.224,27.144 L51.224,28.84 C51.224,29.0266676 51.1413342,29.1706662 50.976,29.272 C50.4533307,29.597335 49.8800031,29.76 49.256,29.76 C48.7279974,29.76 48.2400022,29.630668 47.792,29.372 C47.3439978,29.113332 46.9893346,28.7640022 46.728,28.324 C46.4666654,27.8839978 46.336,27.4026693 46.336,26.88 C46.336,26.3573307 46.4666654,25.8760022 46.728,25.436 C46.9893346,24.9959978 47.3439978,24.646668 47.792,24.388 C48.2400022,24.129332 48.7279974,24 49.256,24 C49.7840026,24 50.2426647,24.1066656 50.632,24.32 C50.7120004,24.3626669 50.7719998,24.4186663 50.812,24.488 C50.8520002,24.5573337 50.872,24.6319996 50.872,24.712 C50.872,24.845334 50.8280004,24.9613328 50.74,25.06 C50.6519996,25.1586672 50.5440006,25.208 50.416,25.208 C50.3359996,25.208 50.2480005,25.1866669 50.152,25.144 C49.8639986,25.0213327 49.5653349,24.96 49.256,24.96 C48.914665,24.96 48.6000014,25.0466658 48.312,25.22 C48.0239986,25.3933342 47.7960008,25.6266652 47.628,25.92 C47.4599992,26.2133348 47.376,26.5333316 47.376,26.88 C47.376,27.2266684 47.4599992,27.5466652 47.628,27.84 C47.7960008,28.1333348 48.0239986,28.3666658 48.312,28.54 C48.6000014,28.7133342 48.914665,28.8 49.256,28.8 C49.4053341,28.8 49.5653325,28.7866668 49.736,28.76 C49.9066675,28.7333332 50.0559994,28.6986669 50.184,28.656 L50.184,27.616 L49.432,27.616 C49.2933326,27.616 49.1773338,27.5706671 49.084,27.48 C48.9906662,27.3893329 48.944,27.2746674 48.944,27.136 C48.944,26.9973326 48.9906662,26.8826671 49.084,26.792 C49.1773338,26.7013329 49.2933326,26.656 49.432,26.656 L50.744,26.656 Z M56.576,29.056 C56.6026668,29.1253337 56.616,29.189333 56.616,29.248 C56.616,29.3866674 56.5706671,29.4999996 56.48,29.588 C56.3893329,29.6760004 56.2853339,29.72 56.168,29.72 C56.0719995,29.72 55.9853337,29.690667 55.908,29.632 C55.8306663,29.573333 55.7706669,29.4933338 55.728,29.392 L55.312,28.424 L52.928,28.424 L52.512,29.4 C52.4746665,29.5013338 52.4173337,29.5799997 52.34,29.636 C52.2626663,29.6920003 52.1786671,29.72 52.088,29.72 C51.9493326,29.72 51.8440004,29.682667 51.772,29.608 C51.6999996,29.533333 51.664,29.4320006 51.664,29.304 C51.664,29.2559998 51.6719999,29.2053336 51.688,29.152 L53.68,24.368 C53.7226669,24.2613328 53.7866662,24.178667 53.872,24.12 C53.9573338,24.061333 54.0533328,24.0373333 54.16,24.048 C54.2560005,24.048 54.3453329,24.0759997 54.428,24.132 C54.5106671,24.1880003 54.5706665,24.2666662 54.608,24.368 L56.576,29.056 Z M53.32,27.504 L54.92,27.504 L54.112,25.632 L53.32,27.504 Z M60.976,24.08 C61.1200007,24.08 61.2373329,24.1226662 61.328,24.208 C61.4186671,24.2933338 61.464,24.4053326 61.464,24.544 C61.464,24.6826674 61.4186671,24.7933329 61.328,24.876 C61.2373329,24.9586671 61.1200007,25 60.976,25 L59.72,25 L59.72,29.192 C59.72,29.3306674 59.6693338,29.4466662 59.568,29.54 C59.4666662,29.6333338 59.3413341,29.68 59.192,29.68 C59.0426659,29.68 58.9200005,29.6333338 58.824,29.54 C58.7279995,29.4466662 58.68,29.3306674 58.68,29.192 L58.68,25 L57.424,25 C57.2799993,25 57.1626671,24.9573338 57.072,24.872 C56.9813329,24.7866662 56.936,24.6746674 56.936,24.536 C56.936,24.402666 56.9826662,24.2933338 57.076,24.208 C57.1693338,24.1226662 57.2853326,24.08 57.424,24.08 L60.976,24.08 Z M63.304,29.192 C63.304,29.3306674 63.2533338,29.4466662 63.152,29.54 C63.0506662,29.6333338 62.933334,29.68 62.8,29.68 C62.6559993,29.68 62.5373338,29.6333338 62.444,29.54 C62.3506662,29.4466662 62.304,29.3306674 62.304,29.192 L62.304,24.568 C62.304,24.4293326 62.3519995,24.3133338 62.448,24.22 C62.5440005,24.1266662 62.6666659,24.08 62.816,24.08 C62.949334,24.08 63.0639995,24.1266662 63.16,24.22 C63.2560005,24.3133338 63.304,24.4293326 63.304,24.568 L63.304,29.192 Z M69.656,26.88 C69.656,27.4080026 69.5386678,27.8919978 69.304,28.332 C69.0693322,28.7720022 68.7453354,29.1199987 68.332,29.376 C67.9186646,29.6320013 67.4533359,29.76 66.936,29.76 C66.4186641,29.76 65.9533354,29.6320013 65.54,29.376 C65.1266646,29.1199987 64.8040012,28.7720022 64.572,28.332 C64.3399988,27.8919978 64.224,27.4080026 64.224,26.88 C64.224,26.3519974 64.3399988,25.8680022 64.572,25.428 C64.8040012,24.9879978 65.1266646,24.6400013 65.54,24.384 C65.9533354,24.1279987 66.4186641,24 66.936,24 C67.4533359,24 67.9186646,24.1279987 68.332,24.384 C68.7453354,24.6400013 69.0693322,24.9879978 69.304,25.428 C69.5386678,25.8680022 69.656,26.3519974 69.656,26.88 Z M68.616,26.88 C68.616,26.5226649 68.5440007,26.1986681 68.4,25.908 C68.2559993,25.6173319 68.0560013,25.3866675 67.8,25.216 C67.5439987,25.0453325 67.2560016,24.96 66.936,24.96 C66.610665,24.96 66.3213346,25.0439992 66.068,25.212 C65.8146654,25.3800008 65.617334,25.6106652 65.476,25.904 C65.334666,26.1973348 65.264,26.5226649 65.264,26.88 C65.264,27.2373351 65.334666,27.5626652 65.476,27.856 C65.617334,28.1493348 65.8146654,28.3799992 66.068,28.548 C66.3213346,28.7160008 66.610665,28.8 66.936,28.8 C67.2560016,28.8 67.5439987,28.7146675 67.8,28.544 C68.0560013,28.3733325 68.2559993,28.1426681 68.4,27.852 C68.5440007,27.5613319 68.616,27.2373351 68.616,26.88 Z M74.824,24.08 C74.9520006,24.08 75.0559996,24.1226662 75.136,24.208 C75.2160004,24.2933338 75.256,24.3999994 75.256,24.528 L75.256,29.192 C75.256,29.3306674 75.2093338,29.4466662 75.116,29.54 C75.0226662,29.6333338 74.9066674,29.68 74.768,29.68 C74.693333,29.68 74.6200004,29.6680001 74.548,29.644 C74.4759996,29.6199999 74.4240002,29.5866669 74.392,29.544 L71.456,25.816 L71.456,29.232 C71.456,29.3600006 71.4146671,29.4666662 71.332,29.552 C71.2493329,29.6373338 71.141334,29.68 71.008,29.68 C70.8799994,29.68 70.7760004,29.6373338 70.696,29.552 C70.6159996,29.4666662 70.576,29.3600006 70.576,29.232 L70.576,24.568 C70.576,24.4293326 70.6226662,24.3133338 70.716,24.22 C70.8093338,24.1266662 70.9253326,24.08 71.064,24.08 C71.1440004,24.08 71.2226663,24.0959998 71.3,24.128 C71.3773337,24.1600002 71.4346665,24.2026664 71.472,24.256 L74.384,27.968 L74.384,24.528 C74.384,24.3999994 74.4253329,24.2933338 74.508,24.208 C74.5906671,24.1226662 74.6959994,24.08 74.824,24.08 Z" id="NAVIGATION" fill="#333333" fill-rule="nonzero"></path>
        <g id="Orion_search" transform="translate(119.000000, 23.000000)" fill="#202020" fill-rule="nonzero">
            <path d="M5.27289191,4.7057298 C6.20299365,3.48235291 6.02616775,1.73955962 4.86347805,0.724091298 C3.70078835,-0.291377025 1.95006313,-0.232065667 0.858763888,0.859763665 C-0.232535355,1.951593 -0.291007451,3.70235776 0.725011299,4.86456827 C1.74103005,6.02677879 3.4838966,6.20277074 4.71174907,5.26714285 L7.31726456,7.88280515 C7.47339769,8.03901289 7.72659917,8.03907256 7.8828059,7.88293843 C8.03901263,7.7268043 8.03907231,7.47360119 7.8829392,7.31739344 L5.27289191,4.7057298 Z M2.93501889,5.06774259 C1.75721126,5.06774259 0.802409525,4.11293468 0.802409525,2.93511943 C0.802409525,1.75730418 1.75721126,0.802496271 2.93501889,0.802496271 C4.11282652,0.802496271 5.06762826,1.75730418 5.06762826,2.93511943 C5.06748107,4.1128737 4.11276555,5.06759539 2.93501889,5.06774259 Z" id="Shape"></path>
        </g>
        <g id="Group-2" transform="translate(22.000000, 42.000000)">
            <rect id="Rectangle" fill="#F0F0F0" x="0" y="0" width="76" height="38"></rect>
            <rect id="Rectangle" fill="#F0F0F0" x="83" y="0" width="28" height="28"></rect>
            <rect id="Rectangle" fill="#F0F0F0" x="83" y="34" width="28" height="18"></rect>
            <g id="Group" transform="translate(18.000000, 44.000000)" stroke="#D6D6D6" stroke-linecap="square" stroke-width="2">
                <path d="M0,1 L40,1" id="Line"></path>
            </g>
            <g id="Group" transform="translate(18.000000, 48.000000)" stroke="#D6D6D6" stroke-linecap="square" stroke-width="2">
                <path d="M0,1 L40,1" id="Line"></path>
            </g>
        </g>
    </g>
</svg>