<?xml version="1.0" encoding="UTF-8"?>
<svg width="320px" height="40px" viewBox="0 0 320 40" version="1.1" xmlns="http://www.w3.org/2000/svg" xmlns:xlink="http://www.w3.org/1999/xlink">
    <!-- Generator: Sketch 53 (72520) - https://sketchapp.com -->
    <title>header_layout_3</title>
    <desc>Created with Sketch.</desc>
    <g id="header_layout_3" stroke="none" stroke-width="1" fill="none" fill-rule="evenodd">
        <rect fill="#FFFFFF" x="0" y="0" width="320" height="40"></rect>
        <path d="M21.095,24.245 C21.3550013,24.245 21.5724991,24.3274992 21.7475,24.4925 C21.9225009,24.6575008 22.01,24.8699987 22.01,25.13 C22.01,25.3800012 21.9225009,25.5874992 21.7475,25.7525 C21.5724991,25.9175008 21.3550013,26 21.095,26 L16.22,26 C15.9599987,26 15.7425009,25.9125009 15.5675,25.7375 C15.3924991,25.5624991 15.305,25.3450013 15.305,25.085 L15.305,16.415 C15.305,16.1549987 15.3949991,15.9375009 15.575,15.7625 C15.7550009,15.5874991 15.9849986,15.5 16.265,15.5 C16.5150013,15.5 16.7299991,15.5874991 16.91,15.7625 C17.0900009,15.9375009 17.18,16.1549987 17.18,16.415 L17.18,24.245 L21.095,24.245 Z M33.395,20.75 C33.395,21.7400049 33.1750022,22.6474959 32.735,23.4725 C32.2949978,24.2975041 31.6875039,24.9499976 30.9125,25.43 C30.1374961,25.9100024 29.2650048,26.15 28.295,26.15 C27.3249951,26.15 26.4525039,25.9100024 25.6775,25.43 C24.9024961,24.9499976 24.2975022,24.2975041 23.8625,23.4725 C23.4274978,22.6474959 23.21,21.7400049 23.21,20.75 C23.21,19.7599951 23.4274978,18.8525041 23.8625,18.0275 C24.2975022,17.2024959 24.9024961,16.5500024 25.6775,16.07 C26.4525039,15.5899976 27.3249951,15.35 28.295,15.35 C29.2650048,15.35 30.1374961,15.5899976 30.9125,16.07 C31.6875039,16.5500024 32.2949978,17.2024959 32.735,18.0275 C33.1750022,18.8525041 33.395,19.7599951 33.395,20.75 Z M31.445,20.75 C31.445,20.0799967 31.3100014,19.4725027 31.04,18.9275 C30.7699986,18.3824973 30.3950024,17.9500016 29.915,17.63 C29.4349976,17.3099984 28.895003,17.15 28.295,17.15 C27.6849969,17.15 27.1425024,17.3074984 26.6675,17.6225 C26.1924976,17.9375016 25.8225013,18.3699973 25.5575,18.92 C25.2924987,19.4700027 25.16,20.0799967 25.16,20.75 C25.16,21.4200033 25.2924987,22.0299973 25.5575,22.58 C25.8225013,23.1300027 26.1924976,23.5624984 26.6675,23.8775 C27.1425024,24.1925016 27.6849969,24.35 28.295,24.35 C28.895003,24.35 29.4349976,24.1900016 29.915,23.87 C30.3950024,23.5499984 30.7699986,23.1175027 31.04,22.5725 C31.3100014,22.0274973 31.445,21.4200033 31.445,20.75 Z M42.86,20.33 C43.1200013,20.33 43.3349991,20.4174991 43.505,20.5925 C43.6750008,20.7675009 43.76,20.9849987 43.76,21.245 L43.76,24.425 C43.76,24.7750018 43.6050015,25.0449991 43.295,25.235 C42.3149951,25.8450031 41.2400058,26.15 40.07,26.15 C39.0799951,26.15 38.1650042,25.9075024 37.325,25.4225 C36.4849958,24.9374976 35.8200024,24.2825041 35.33,23.4575 C34.8399975,22.6324959 34.595,21.7300049 34.595,20.75 C34.595,19.7699951 34.8399975,18.8675041 35.33,18.0425 C35.8200024,17.2174959 36.4849958,16.5625024 37.325,16.0775 C38.1650042,15.5924976 39.0799951,15.35 40.07,15.35 C41.0600049,15.35 41.9199963,15.549998 42.65,15.95 C42.8000007,16.0300004 42.9124996,16.1349994 42.9875,16.265 C43.0625004,16.3950007 43.1,16.5349992 43.1,16.685 C43.1,16.9350012 43.0175008,17.1524991 42.8525,17.3375 C42.6874992,17.5225009 42.4850012,17.615 42.245,17.615 C42.0949993,17.615 41.9300009,17.5750004 41.75,17.495 C41.2099973,17.2649989 40.6500029,17.15 40.07,17.15 C39.4299968,17.15 38.8400027,17.3124984 38.3,17.6375 C37.7599973,17.9625016 37.3325016,18.3999972 37.0175,18.95 C36.7024984,19.5000028 36.545,20.0999967 36.545,20.75 C36.545,21.4000033 36.7024984,21.9999972 37.0175,22.55 C37.3325016,23.1000028 37.7599973,23.5374984 38.3,23.8625 C38.8400027,24.1875016 39.4299968,24.35 40.07,24.35 C40.3500014,24.35 40.6499984,24.3250002 40.97,24.275 C41.2900016,24.2249998 41.5699988,24.1600004 41.81,24.08 L41.81,22.13 L40.4,22.13 C40.1399987,22.13 39.9225009,22.0450009 39.7475,21.875 C39.5724991,21.7049991 39.485,21.4900013 39.485,21.23 C39.485,20.9699987 39.5724991,20.7550009 39.7475,20.585 C39.9225009,20.4149991 40.1399987,20.33 40.4,20.33 L42.86,20.33 Z M55.22,20.75 C55.22,21.7400049 55.0000022,22.6474959 54.56,23.4725 C54.1199978,24.2975041 53.5125039,24.9499976 52.7375,25.43 C51.9624961,25.9100024 51.0900048,26.15 50.12,26.15 C49.1499951,26.15 48.2775039,25.9100024 47.5025,25.43 C46.7274961,24.9499976 46.1225022,24.2975041 45.6875,23.4725 C45.2524978,22.6474959 45.035,21.7400049 45.035,20.75 C45.035,19.7599951 45.2524978,18.8525041 45.6875,18.0275 C46.1225022,17.2024959 46.7274961,16.5500024 47.5025,16.07 C48.2775039,15.5899976 49.1499951,15.35 50.12,15.35 C51.0900048,15.35 51.9624961,15.5899976 52.7375,16.07 C53.5125039,16.5500024 54.1199978,17.2024959 54.56,18.0275 C55.0000022,18.8525041 55.22,19.7599951 55.22,20.75 Z M53.27,20.75 C53.27,20.0799967 53.1350013,19.4725027 52.865,18.9275 C52.5949986,18.3824973 52.2200024,17.9500016 51.74,17.63 C51.2599976,17.3099984 50.720003,17.15 50.12,17.15 C49.5099969,17.15 48.9675024,17.3074984 48.4925,17.6225 C48.0174976,17.9375016 47.6475013,18.3699973 47.3825,18.92 C47.1174987,19.4700027 46.985,20.0799967 46.985,20.75 C46.985,21.4200033 47.1174987,22.0299973 47.3825,22.58 C47.6475013,23.1300027 48.0174976,23.5624984 48.4925,23.8775 C48.9675024,24.1925016 49.5099969,24.35 50.12,24.35 C50.720003,24.35 51.2599976,24.1900016 51.74,23.87 C52.2200024,23.5499984 52.5949986,23.1175027 52.865,22.5725 C53.1350013,22.0274973 53.27,21.4200033 53.27,20.75 Z" id="LOGO" fill="#333333" fill-rule="nonzero"></path>
        <path d="M70.93,16.6 C71.122001,16.6 71.2779994,16.6639994 71.398,16.792 C71.5180006,16.9200006 71.578,17.079999 71.578,17.272 L71.578,24.268 C71.578,24.476001 71.5080007,24.6499993 71.368,24.79 C71.2279993,24.9300007 71.054001,25 70.846,25 C70.7339994,25 70.6240005,24.9820002 70.516,24.946 C70.4079995,24.9099998 70.3300002,24.8600003 70.282,24.796 L65.878,19.204 L65.878,24.328 C65.878,24.520001 65.8160006,24.6799994 65.692,24.808 C65.5679994,24.9360006 65.406001,25 65.206,25 C65.013999,25 64.8580006,24.9360006 64.738,24.808 C64.6179994,24.6799994 64.558,24.520001 64.558,24.328 L64.558,17.332 C64.558,17.123999 64.6279993,16.9500007 64.768,16.81 C64.9080007,16.6699993 65.081999,16.6 65.29,16.6 C65.4100006,16.6 65.5279994,16.6239998 65.644,16.672 C65.7600006,16.7200002 65.8459997,16.7839996 65.902,16.864 L70.27,22.432 L70.27,17.272 C70.27,17.079999 70.3319994,16.9200006 70.456,16.792 C70.5800006,16.6639994 70.737999,16.6 70.93,16.6 Z M79.966,24.064 C80.0060002,24.1680005 80.026,24.2639996 80.026,24.352 C80.026,24.560001 79.9580007,24.7299993 79.822,24.862 C79.6859993,24.9940007 79.5300009,25.06 79.354,25.06 C79.2099993,25.06 79.0800006,25.0160004 78.964,24.928 C78.8479994,24.8399996 78.7580003,24.7200008 78.694,24.568 L78.07,23.116 L74.494,23.116 L73.87,24.58 C73.8139997,24.7320008 73.7280006,24.8499996 73.612,24.934 C73.4959994,25.0180004 73.3700007,25.06 73.234,25.06 C73.025999,25.06 72.8680005,25.0040006 72.76,24.892 C72.6519995,24.7799994 72.598,24.628001 72.598,24.436 C72.598,24.3639996 72.6099999,24.2880004 72.634,24.208 L75.622,17.032 C75.6860003,16.8719992 75.7819994,16.7480004 75.91,16.66 C76.0380006,16.5719996 76.1819992,16.5359999 76.342,16.552 C76.4860007,16.552 76.6199994,16.5939996 76.744,16.678 C76.8680006,16.7620004 76.9579997,16.8799992 77.014,17.032 L79.966,24.064 Z M75.082,21.736 L77.482,21.736 L76.27,18.928 L75.082,21.736 Z M87.178,16.576 C87.378001,16.576 87.5519993,16.6439993 87.7,16.78 C87.8480007,16.9160007 87.922,17.079999 87.922,17.272 C87.922,17.3760005 87.8980002,17.4839994 87.85,17.596 L84.886,24.532 C84.8139996,24.6840008 84.7140006,24.7999996 84.586,24.88 C84.4579994,24.9600004 84.3220007,25 84.178,25 C84.0419993,24.992 83.9160006,24.9500004 83.8,24.874 C83.6839994,24.7979996 83.5940003,24.6880007 83.53,24.544 L80.566,17.584 C80.5259998,17.5039996 80.506,17.4040006 80.506,17.284 C80.506,17.0679989 80.5859992,16.8940007 80.746,16.762 C80.9060008,16.6299993 81.0699992,16.564 81.238,16.564 C81.3740007,16.564 81.5019994,16.6039996 81.622,16.684 C81.7420006,16.7640004 81.8339997,16.8799992 81.898,17.032 L84.31,22.708 L86.518,17.032 C86.5820003,16.8879993 86.6739994,16.7760004 86.794,16.696 C86.9140006,16.6159996 87.0419993,16.576 87.178,16.576 Z M90.682,24.268 C90.682,24.476001 90.6060008,24.6499993 90.454,24.79 C90.3019992,24.9300007 90.126001,25 89.926,25 C89.7099989,25 89.5320007,24.9300007 89.392,24.79 C89.2519993,24.6499993 89.182,24.476001 89.182,24.268 L89.182,17.332 C89.182,17.123999 89.2539993,16.9500007 89.398,16.81 C89.5420007,16.6699993 89.7259989,16.6 89.95,16.6 C90.150001,16.6 90.3219993,16.6699993 90.466,16.81 C90.6100007,16.9500007 90.682,17.123999 90.682,17.332 L90.682,24.268 Z M98.674,20.464 C98.882001,20.464 99.0539993,20.5339993 99.19,20.674 C99.3260007,20.8140007 99.394,20.987999 99.394,21.196 L99.394,23.74 C99.394,24.0200014 99.2700012,24.2359992 99.022,24.388 C98.2379961,24.8760024 97.3780047,25.12 96.442,25.12 C95.649996,25.12 94.9180034,24.9260019 94.246,24.538 C93.5739966,24.1499981 93.042002,23.6260033 92.65,22.966 C92.257998,22.3059967 92.062,21.5840039 92.062,20.8 C92.062,20.0159961 92.257998,19.2940033 92.65,18.634 C93.042002,17.9739967 93.5739966,17.4500019 94.246,17.062 C94.9180034,16.6739981 95.649996,16.48 96.442,16.48 C97.234004,16.48 97.9219971,16.6399984 98.506,16.96 C98.6260006,17.0240003 98.7159997,17.1079995 98.776,17.212 C98.8360003,17.3160005 98.866,17.4279994 98.866,17.548 C98.866,17.748001 98.8000007,17.9219993 98.668,18.07 C98.5359993,18.2180007 98.374001,18.292 98.182,18.292 C98.0619994,18.292 97.9300007,18.2600003 97.786,18.196 C97.3539978,18.0119991 96.9060023,17.92 96.442,17.92 C95.9299974,17.92 95.4580022,18.0499987 95.026,18.31 C94.5939978,18.5700013 94.2520013,18.9199978 94,19.36 C93.7479987,19.8000022 93.622,20.2799974 93.622,20.8 C93.622,21.3200026 93.7479987,21.7999978 94,22.24 C94.2520013,22.6800022 94.5939978,23.0299987 95.026,23.29 C95.4580022,23.5500013 95.9299974,23.68 96.442,23.68 C96.6660011,23.68 96.9059987,23.6600002 97.162,23.62 C97.4180013,23.5799998 97.641999,23.5280003 97.834,23.464 L97.834,21.904 L96.706,21.904 C96.497999,21.904 96.3240007,21.8360007 96.184,21.7 C96.0439993,21.5639993 95.974,21.392001 95.974,21.184 C95.974,20.975999 96.0439993,20.8040007 96.184,20.668 C96.3240007,20.5319993 96.497999,20.464 96.706,20.464 L98.674,20.464 Z M107.422,24.064 C107.462,24.1680005 107.482,24.2639996 107.482,24.352 C107.482,24.560001 107.414001,24.7299993 107.278,24.862 C107.141999,24.9940007 106.986001,25.06 106.81,25.06 C106.665999,25.06 106.536001,25.0160004 106.42,24.928 C106.303999,24.8399996 106.214,24.7200008 106.15,24.568 L105.526,23.116 L101.95,23.116 L101.326,24.58 C101.27,24.7320008 101.184001,24.8499996 101.068,24.934 C100.951999,25.0180004 100.826001,25.06 100.69,25.06 C100.481999,25.06 100.324001,25.0040006 100.216,24.892 C100.107999,24.7799994 100.054,24.628001 100.054,24.436 C100.054,24.3639996 100.066,24.2880004 100.09,24.208 L103.078,17.032 C103.142,16.8719992 103.237999,16.7480004 103.366,16.66 C103.494001,16.5719996 103.637999,16.5359999 103.798,16.552 C103.942001,16.552 104.075999,16.5939996 104.2,16.678 C104.324001,16.7620004 104.414,16.8799992 104.47,17.032 L107.422,24.064 Z M102.538,21.736 L104.938,21.736 L103.726,18.928 L102.538,21.736 Z M114.022,16.6 C114.238001,16.6 114.413999,16.6639994 114.55,16.792 C114.686001,16.9200006 114.754,17.087999 114.754,17.296 C114.754,17.504001 114.686001,17.6699994 114.55,17.794 C114.413999,17.9180006 114.238001,17.98 114.022,17.98 L112.138,17.98 L112.138,24.268 C112.138,24.476001 112.062001,24.6499993 111.91,24.79 C111.757999,24.9300007 111.570001,25 111.346,25 C111.121999,25 110.938001,24.9300007 110.794,24.79 C110.649999,24.6499993 110.578,24.476001 110.578,24.268 L110.578,17.98 L108.694,17.98 C108.477999,17.98 108.302001,17.9160006 108.166,17.788 C108.029999,17.6599994 107.962,17.492001 107.962,17.284 C107.962,17.083999 108.031999,16.9200006 108.172,16.792 C108.312001,16.6639994 108.485999,16.6 108.694,16.6 L114.022,16.6 Z M117.514,24.268 C117.514,24.476001 117.438001,24.6499993 117.286,24.79 C117.133999,24.9300007 116.958001,25 116.758,25 C116.541999,25 116.364001,24.9300007 116.224,24.79 C116.083999,24.6499993 116.014,24.476001 116.014,24.268 L116.014,17.332 C116.014,17.123999 116.085999,16.9500007 116.23,16.81 C116.374001,16.6699993 116.557999,16.6 116.782,16.6 C116.982001,16.6 117.153999,16.6699993 117.298,16.81 C117.442001,16.9500007 117.514,17.123999 117.514,17.332 L117.514,24.268 Z M127.042,20.8 C127.042,21.592004 126.866002,22.3179967 126.514,22.978 C126.161998,23.6380033 125.676003,24.1599981 125.056,24.544 C124.435997,24.9280019 123.738004,25.12 122.962,25.12 C122.185996,25.12 121.488003,24.9280019 120.868,24.544 C120.247997,24.1599981 119.764002,23.6380033 119.416,22.978 C119.067998,22.3179967 118.894,21.592004 118.894,20.8 C118.894,20.007996 119.067998,19.2820033 119.416,18.622 C119.764002,17.9619967 120.247997,17.4400019 120.868,17.056 C121.488003,16.6719981 122.185996,16.48 122.962,16.48 C123.738004,16.48 124.435997,16.6719981 125.056,17.056 C125.676003,17.4400019 126.161998,17.9619967 126.514,18.622 C126.866002,19.2820033 127.042,20.007996 127.042,20.8 Z M125.482,20.8 C125.482,20.2639973 125.374001,19.7780022 125.158,19.342 C124.941999,18.9059978 124.642002,18.5600013 124.258,18.304 C123.873998,18.0479987 123.442002,17.92 122.962,17.92 C122.473998,17.92 122.040002,18.0459987 121.66,18.298 C121.279998,18.5500013 120.984001,18.8959978 120.772,19.336 C120.559999,19.7760022 120.454,20.2639973 120.454,20.8 C120.454,21.3360027 120.559999,21.8239978 120.772,22.264 C120.984001,22.7040022 121.279998,23.0499987 121.66,23.302 C122.040002,23.5540013 122.473998,23.68 122.962,23.68 C123.442002,23.68 123.873998,23.5520013 124.258,23.296 C124.642002,23.0399987 124.941999,22.6940022 125.158,22.258 C125.374001,21.8219978 125.482,21.3360027 125.482,20.8 Z M134.794,16.6 C134.986001,16.6 135.141999,16.6639994 135.262,16.792 C135.382001,16.9200006 135.442,17.079999 135.442,17.272 L135.442,24.268 C135.442,24.476001 135.372001,24.6499993 135.232,24.79 C135.091999,24.9300007 134.918001,25 134.71,25 C134.597999,25 134.488001,24.9820002 134.38,24.946 C134.271999,24.9099998 134.194,24.8600003 134.146,24.796 L129.742,19.204 L129.742,24.328 C129.742,24.520001 129.680001,24.6799994 129.556,24.808 C129.431999,24.9360006 129.270001,25 129.07,25 C128.877999,25 128.722001,24.9360006 128.602,24.808 C128.481999,24.6799994 128.422,24.520001 128.422,24.328 L128.422,17.332 C128.422,17.123999 128.491999,16.9500007 128.632,16.81 C128.772001,16.6699993 128.945999,16.6 129.154,16.6 C129.274001,16.6 129.391999,16.6239998 129.508,16.672 C129.624001,16.7200002 129.71,16.7839996 129.766,16.864 L134.134,22.432 L134.134,17.272 C134.134,17.079999 134.195999,16.9200006 134.32,16.792 C134.444001,16.6639994 134.601999,16.6 134.794,16.6 Z" id="NAVIGATION" fill="#333333" fill-rule="nonzero"></path>
        <g id="Group" transform="translate(273.000000, 14.000000)">
            <path d="M21.5142857,3.5 L21,3.5 L21,2 L21.5142857,2 L32.4857143,2 L33,2 L33,3.5 L32.4857143,3.5 L21.5142857,3.5 Z M21.3142857,6.97826087 L21,6.97826087 L21,5.47826087 L21.3142857,5.47826087 L28.0190476,5.47826087 L28.3333333,5.47826087 L28.3333333,6.97826087 L28.0190476,6.97826087 L21.3142857,6.97826087 Z M21.5142857,10.4565217 L21,10.4565217 L21,8.95652174 L21.5142857,8.95652174 L32.4857143,8.95652174 L33,8.95652174 L33,10.4565217 L32.4857143,10.4565217 L21.5142857,10.4565217 Z" id="Combined-Shape" fill="#424851"></path>
            <g id="Orion_search" fill="#202020" fill-rule="nonzero">
                <path d="M7.90933787,7.05859471 C9.30449047,5.22352937 9.03925162,2.60933943 7.29521707,1.08613695 C5.55118253,-0.437065537 2.9250947,-0.3480985 1.28814583,1.2896455 C-0.348803033,2.9273895 -0.436511177,5.55353663 1.08751695,7.29685241 C2.61154507,9.04016818 5.2258449,9.30415611 7.06762361,7.90071428 L10.9758968,11.8242077 C11.2100965,12.0585193 11.5898987,12.0586088 11.8242088,11.8244076 C12.0585189,11.5902065 12.0586085,11.2104018 11.8244088,10.9760902 L7.90933787,7.05859471 Z M4.40252834,7.60161388 C2.63581689,7.60161388 1.20361429,6.16940201 1.20361429,4.40267914 C1.20361429,2.63595627 2.63581689,1.20374441 4.40252834,1.20374441 C6.16923978,1.20374441 7.60144239,2.63595627 7.60144239,4.40267914 C7.6012216,6.16931055 6.16914832,7.60139309 4.40252834,7.60161388 Z" id="Shape"></path>
            </g>
        </g>
    </g>
</svg>