<?xml version="1.0" encoding="UTF-8"?>
<svg width="320px" height="60px" viewBox="0 0 320 60" version="1.1" xmlns="http://www.w3.org/2000/svg" xmlns:xlink="http://www.w3.org/1999/xlink">
    <!-- Generator: Sketch 53 (72520) - https://sketchapp.com -->
    <title>header_layout_7</title>
    <desc>Created with Sketch.</desc>
    <g id="header_layout_7" stroke="none" stroke-width="1" fill="none" fill-rule="evenodd">
        <rect fill="#FFFFFF" x="0" y="0" width="320" height="60"></rect>
        <path d="M146.095,19.245 C146.355001,19.245 146.572499,19.3274992 146.7475,19.4925 C146.922501,19.6575008 147.01,19.8699987 147.01,20.13 C147.01,20.3800012 146.922501,20.5874992 146.7475,20.7525 C146.572499,20.9175008 146.355001,21 146.095,21 L141.22,21 C140.959999,21 140.742501,20.9125009 140.5675,20.7375 C140.392499,20.5624991 140.305,20.3450013 140.305,20.085 L140.305,11.415 C140.305,11.1549987 140.394999,10.9375009 140.575,10.7625 C140.755001,10.5874991 140.984999,10.5 141.265,10.5 C141.515001,10.5 141.729999,10.5874991 141.91,10.7625 C142.090001,10.9375009 142.18,11.1549987 142.18,11.415 L142.18,19.245 L146.095,19.245 Z M158.395,15.75 C158.395,16.7400049 158.175002,17.6474959 157.735,18.4725 C157.294998,19.2975041 156.687504,19.9499976 155.9125,20.43 C155.137496,20.9100024 154.265005,21.15 153.295,21.15 C152.324995,21.15 151.452504,20.9100024 150.6775,20.43 C149.902496,19.9499976 149.297502,19.2975041 148.8625,18.4725 C148.427498,17.6474959 148.21,16.7400049 148.21,15.75 C148.21,14.7599951 148.427498,13.8525041 148.8625,13.0275 C149.297502,12.2024959 149.902496,11.5500024 150.6775,11.07 C151.452504,10.5899976 152.324995,10.35 153.295,10.35 C154.265005,10.35 155.137496,10.5899976 155.9125,11.07 C156.687504,11.5500024 157.294998,12.2024959 157.735,13.0275 C158.175002,13.8525041 158.395,14.7599951 158.395,15.75 Z M156.445,15.75 C156.445,15.0799967 156.310001,14.4725027 156.04,13.9275 C155.769999,13.3824973 155.395002,12.9500016 154.915,12.63 C154.434998,12.3099984 153.895003,12.15 153.295,12.15 C152.684997,12.15 152.142502,12.3074984 151.6675,12.6225 C151.192498,12.9375016 150.822501,13.3699973 150.5575,13.92 C150.292499,14.4700028 150.16,15.0799967 150.16,15.75 C150.16,16.4200033 150.292499,17.0299973 150.5575,17.58 C150.822501,18.1300027 151.192498,18.5624984 151.6675,18.8775 C152.142502,19.1925016 152.684997,19.35 153.295,19.35 C153.895003,19.35 154.434998,19.1900016 154.915,18.87 C155.395002,18.5499984 155.769999,18.1175027 156.04,17.5725 C156.310001,17.0274973 156.445,16.4200033 156.445,15.75 Z M167.86,15.33 C168.120001,15.33 168.334999,15.4174991 168.505,15.5925 C168.675001,15.7675009 168.76,15.9849987 168.76,16.245 L168.76,19.425 C168.76,19.7750018 168.605002,20.0449991 168.295,20.235 C167.314995,20.8450031 166.240006,21.15 165.07,21.15 C164.079995,21.15 163.165004,20.9075024 162.325,20.4225 C161.484996,19.9374976 160.820002,19.2825041 160.33,18.4575 C159.839998,17.6324959 159.595,16.7300049 159.595,15.75 C159.595,14.7699951 159.839998,13.8675041 160.33,13.0425 C160.820002,12.2174959 161.484996,11.5625024 162.325,11.0775 C163.165004,10.5924976 164.079995,10.35 165.07,10.35 C166.060005,10.35 166.919996,10.549998 167.65,10.95 C167.800001,11.0300004 167.9125,11.1349994 167.9875,11.265 C168.0625,11.3950007 168.1,11.5349993 168.1,11.685 C168.1,11.9350013 168.017501,12.1524991 167.8525,12.3375 C167.687499,12.5225009 167.485001,12.615 167.245,12.615 C167.094999,12.615 166.930001,12.5750004 166.75,12.495 C166.209997,12.2649989 165.650003,12.15 165.07,12.15 C164.429997,12.15 163.840003,12.3124984 163.3,12.6375 C162.759997,12.9625016 162.332502,13.3999973 162.0175,13.95 C161.702498,14.5000028 161.545,15.0999967 161.545,15.75 C161.545,16.4000033 161.702498,16.9999972 162.0175,17.55 C162.332502,18.1000028 162.759997,18.5374984 163.3,18.8625 C163.840003,19.1875016 164.429997,19.35 165.07,19.35 C165.350001,19.35 165.649998,19.3250002 165.97,19.275 C166.290002,19.2249998 166.569999,19.1600004 166.81,19.08 L166.81,17.13 L165.4,17.13 C165.139999,17.13 164.922501,17.0450009 164.7475,16.875 C164.572499,16.7049991 164.485,16.4900013 164.485,16.23 C164.485,15.9699987 164.572499,15.7550009 164.7475,15.585 C164.922501,15.4149991 165.139999,15.33 165.4,15.33 L167.86,15.33 Z M180.22,15.75 C180.22,16.7400049 180.000002,17.6474959 179.56,18.4725 C179.119998,19.2975041 178.512504,19.9499976 177.7375,20.43 C176.962496,20.9100024 176.090005,21.15 175.12,21.15 C174.149995,21.15 173.277504,20.9100024 172.5025,20.43 C171.727496,19.9499976 171.122502,19.2975041 170.6875,18.4725 C170.252498,17.6474959 170.035,16.7400049 170.035,15.75 C170.035,14.7599951 170.252498,13.8525041 170.6875,13.0275 C171.122502,12.2024959 171.727496,11.5500024 172.5025,11.07 C173.277504,10.5899976 174.149995,10.35 175.12,10.35 C176.090005,10.35 176.962496,10.5899976 177.7375,11.07 C178.512504,11.5500024 179.119998,12.2024959 179.56,13.0275 C180.000002,13.8525041 180.22,14.7599951 180.22,15.75 Z M178.27,15.75 C178.27,15.0799967 178.135001,14.4725027 177.865,13.9275 C177.594999,13.3824973 177.220002,12.9500016 176.74,12.63 C176.259998,12.3099984 175.720003,12.15 175.12,12.15 C174.509997,12.15 173.967502,12.3074984 173.4925,12.6225 C173.017498,12.9375016 172.647501,13.3699973 172.3825,13.92 C172.117499,14.4700028 171.985,15.0799967 171.985,15.75 C171.985,16.4200033 172.117499,17.0299973 172.3825,17.58 C172.647501,18.1300027 173.017498,18.5624984 173.4925,18.8775 C173.967502,19.1925016 174.509997,19.35 175.12,19.35 C175.720003,19.35 176.259998,19.1900016 176.74,18.87 C177.220002,18.5499984 177.594999,18.1175027 177.865,17.5725 C178.135001,17.0274973 178.27,16.4200033 178.27,15.75 Z" id="LOGO" fill="#333333" fill-rule="nonzero"></path>
        <path d="M15,30.5 L305,30.5" id="Line" stroke="#000000" opacity="0.100000001" stroke-linecap="square"></path>
        <path d="M21.43,39.6 C21.622001,39.6 21.7779994,39.6639994 21.898,39.792 C22.0180006,39.9200006 22.078,40.079999 22.078,40.272 L22.078,47.268 C22.078,47.476001 22.0080007,47.6499993 21.868,47.79 C21.7279993,47.9300007 21.554001,48 21.346,48 C21.2339994,48 21.1240005,47.9820002 21.016,47.946 C20.9079995,47.9099998 20.8300002,47.8600003 20.782,47.796 L16.378,42.204 L16.378,47.328 C16.378,47.520001 16.3160006,47.6799994 16.192,47.808 C16.0679994,47.9360006 15.906001,48 15.706,48 C15.513999,48 15.3580006,47.9360006 15.238,47.808 C15.1179994,47.6799994 15.058,47.520001 15.058,47.328 L15.058,40.332 C15.058,40.123999 15.1279993,39.9500007 15.268,39.81 C15.4080007,39.6699993 15.581999,39.6 15.79,39.6 C15.9100006,39.6 16.0279994,39.6239998 16.144,39.672 C16.2600006,39.7200002 16.3459997,39.7839996 16.402,39.864 L20.77,45.432 L20.77,40.272 C20.77,40.079999 20.8319994,39.9200006 20.956,39.792 C21.0800006,39.6639994 21.237999,39.6 21.43,39.6 Z M30.466,47.064 C30.5060002,47.1680005 30.526,47.2639996 30.526,47.352 C30.526,47.560001 30.4580007,47.7299993 30.322,47.862 C30.1859993,47.9940007 30.0300009,48.06 29.854,48.06 C29.7099993,48.06 29.5800006,48.0160004 29.464,47.928 C29.3479994,47.8399996 29.2580003,47.7200008 29.194,47.568 L28.57,46.116 L24.994,46.116 L24.37,47.58 C24.3139997,47.7320008 24.2280006,47.8499996 24.112,47.934 C23.9959994,48.0180004 23.8700007,48.06 23.734,48.06 C23.525999,48.06 23.3680005,48.0040006 23.26,47.892 C23.1519995,47.7799994 23.098,47.628001 23.098,47.436 C23.098,47.3639996 23.1099999,47.2880004 23.134,47.208 L26.122,40.032 C26.1860003,39.8719992 26.2819994,39.7480004 26.41,39.66 C26.5380006,39.5719996 26.6819992,39.5359999 26.842,39.552 C26.9860007,39.552 27.1199994,39.5939996 27.244,39.678 C27.3680006,39.7620004 27.4579997,39.8799992 27.514,40.032 L30.466,47.064 Z M25.582,44.736 L27.982,44.736 L26.77,41.928 L25.582,44.736 Z M37.678,39.576 C37.878001,39.576 38.0519993,39.6439993 38.2,39.78 C38.3480007,39.9160007 38.422,40.079999 38.422,40.272 C38.422,40.3760005 38.3980002,40.4839994 38.35,40.596 L35.386,47.532 C35.3139996,47.6840008 35.2140006,47.7999996 35.086,47.88 C34.9579994,47.9600004 34.8220007,48 34.678,48 C34.5419993,47.992 34.4160006,47.9500004 34.3,47.874 C34.1839994,47.7979996 34.0940003,47.6880007 34.03,47.544 L31.066,40.584 C31.0259998,40.5039996 31.006,40.4040006 31.006,40.284 C31.006,40.0679989 31.0859992,39.8940007 31.246,39.762 C31.4060008,39.6299993 31.5699992,39.564 31.738,39.564 C31.8740007,39.564 32.0019994,39.6039996 32.122,39.684 C32.2420006,39.7640004 32.3339997,39.8799992 32.398,40.032 L34.81,45.708 L37.018,40.032 C37.0820003,39.8879993 37.1739994,39.7760004 37.294,39.696 C37.4140006,39.6159996 37.5419993,39.576 37.678,39.576 Z M41.182,47.268 C41.182,47.476001 41.1060008,47.6499993 40.954,47.79 C40.8019992,47.9300007 40.626001,48 40.426,48 C40.2099989,48 40.0320007,47.9300007 39.892,47.79 C39.7519993,47.6499993 39.682,47.476001 39.682,47.268 L39.682,40.332 C39.682,40.123999 39.7539993,39.9500007 39.898,39.81 C40.0420007,39.6699993 40.2259989,39.6 40.45,39.6 C40.650001,39.6 40.8219993,39.6699993 40.966,39.81 C41.1100007,39.9500007 41.182,40.123999 41.182,40.332 L41.182,47.268 Z M49.174,43.464 C49.382001,43.464 49.5539993,43.5339993 49.69,43.674 C49.8260007,43.8140007 49.894,43.987999 49.894,44.196 L49.894,46.74 C49.894,47.0200014 49.7700012,47.2359992 49.522,47.388 C48.7379961,47.8760024 47.8780047,48.12 46.942,48.12 C46.149996,48.12 45.4180034,47.9260019 44.746,47.538 C44.0739966,47.1499981 43.542002,46.6260033 43.15,45.966 C42.757998,45.3059967 42.562,44.5840039 42.562,43.8 C42.562,43.0159961 42.757998,42.2940033 43.15,41.634 C43.542002,40.9739967 44.0739966,40.4500019 44.746,40.062 C45.4180034,39.6739981 46.149996,39.48 46.942,39.48 C47.734004,39.48 48.4219971,39.6399984 49.006,39.96 C49.1260006,40.0240003 49.2159997,40.1079995 49.276,40.212 C49.3360003,40.3160005 49.366,40.4279994 49.366,40.548 C49.366,40.748001 49.3000007,40.9219993 49.168,41.07 C49.0359993,41.2180007 48.874001,41.292 48.682,41.292 C48.5619994,41.292 48.4300007,41.2600003 48.286,41.196 C47.8539978,41.0119991 47.4060023,40.92 46.942,40.92 C46.4299974,40.92 45.9580022,41.0499987 45.526,41.31 C45.0939978,41.5700013 44.7520013,41.9199978 44.5,42.36 C44.2479987,42.8000022 44.122,43.2799974 44.122,43.8 C44.122,44.3200026 44.2479987,44.7999978 44.5,45.24 C44.7520013,45.6800022 45.0939978,46.0299987 45.526,46.29 C45.9580022,46.5500013 46.4299974,46.68 46.942,46.68 C47.1660011,46.68 47.4059987,46.6600002 47.662,46.62 C47.9180013,46.5799998 48.141999,46.5280003 48.334,46.464 L48.334,44.904 L47.206,44.904 C46.997999,44.904 46.8240007,44.8360007 46.684,44.7 C46.5439993,44.5639993 46.474,44.392001 46.474,44.184 C46.474,43.975999 46.5439993,43.8040007 46.684,43.668 C46.8240007,43.5319993 46.997999,43.464 47.206,43.464 L49.174,43.464 Z M57.922,47.064 C57.9620002,47.1680005 57.982,47.2639996 57.982,47.352 C57.982,47.560001 57.9140007,47.7299993 57.778,47.862 C57.6419993,47.9940007 57.4860009,48.06 57.31,48.06 C57.1659993,48.06 57.0360006,48.0160004 56.92,47.928 C56.8039994,47.8399996 56.7140003,47.7200008 56.65,47.568 L56.026,46.116 L52.45,46.116 L51.826,47.58 C51.7699997,47.7320008 51.6840006,47.8499996 51.568,47.934 C51.4519994,48.0180004 51.3260007,48.06 51.19,48.06 C50.981999,48.06 50.8240005,48.0040006 50.716,47.892 C50.6079995,47.7799994 50.554,47.628001 50.554,47.436 C50.554,47.3639996 50.5659999,47.2880004 50.59,47.208 L53.578,40.032 C53.6420003,39.8719992 53.7379994,39.7480004 53.866,39.66 C53.9940006,39.5719996 54.1379992,39.5359999 54.298,39.552 C54.4420007,39.552 54.5759994,39.5939996 54.7,39.678 C54.8240006,39.7620004 54.9139997,39.8799992 54.97,40.032 L57.922,47.064 Z M53.038,44.736 L55.438,44.736 L54.226,41.928 L53.038,44.736 Z M64.522,39.6 C64.7380011,39.6 64.9139993,39.6639994 65.05,39.792 C65.1860007,39.9200006 65.254,40.087999 65.254,40.296 C65.254,40.504001 65.1860007,40.6699994 65.05,40.794 C64.9139993,40.9180006 64.7380011,40.98 64.522,40.98 L62.638,40.98 L62.638,47.268 C62.638,47.476001 62.5620008,47.6499993 62.41,47.79 C62.2579992,47.9300007 62.0700011,48 61.846,48 C61.6219989,48 61.4380007,47.9300007 61.294,47.79 C61.1499993,47.6499993 61.078,47.476001 61.078,47.268 L61.078,40.98 L59.194,40.98 C58.9779989,40.98 58.8020007,40.9160006 58.666,40.788 C58.5299993,40.6599994 58.462,40.492001 58.462,40.284 C58.462,40.083999 58.5319993,39.9200006 58.672,39.792 C58.8120007,39.6639994 58.985999,39.6 59.194,39.6 L64.522,39.6 Z M68.014,47.268 C68.014,47.476001 67.9380008,47.6499993 67.786,47.79 C67.6339992,47.9300007 67.458001,48 67.258,48 C67.0419989,48 66.8640007,47.9300007 66.724,47.79 C66.5839993,47.6499993 66.514,47.476001 66.514,47.268 L66.514,40.332 C66.514,40.123999 66.5859993,39.9500007 66.73,39.81 C66.8740007,39.6699993 67.0579989,39.6 67.282,39.6 C67.482001,39.6 67.6539993,39.6699993 67.798,39.81 C67.9420007,39.9500007 68.014,40.123999 68.014,40.332 L68.014,47.268 Z M77.542,43.8 C77.542,44.592004 77.3660018,45.3179967 77.014,45.978 C76.6619982,46.6380033 76.1760031,47.1599981 75.556,47.544 C74.9359969,47.9280019 74.2380039,48.12 73.462,48.12 C72.6859961,48.12 71.9880031,47.9280019 71.368,47.544 C70.7479969,47.1599981 70.2640017,46.6380033 69.916,45.978 C69.5679983,45.3179967 69.394,44.592004 69.394,43.8 C69.394,43.007996 69.5679983,42.2820033 69.916,41.622 C70.2640017,40.9619967 70.7479969,40.4400019 71.368,40.056 C71.9880031,39.6719981 72.6859961,39.48 73.462,39.48 C74.2380039,39.48 74.9359969,39.6719981 75.556,40.056 C76.1760031,40.4400019 76.6619982,40.9619967 77.014,41.622 C77.3660018,42.2820033 77.542,43.007996 77.542,43.8 Z M75.982,43.8 C75.982,43.2639973 75.8740011,42.7780022 75.658,42.342 C75.4419989,41.9059978 75.1420019,41.5600013 74.758,41.304 C74.3739981,41.0479987 73.9420024,40.92 73.462,40.92 C72.9739976,40.92 72.5400019,41.0459987 72.16,41.298 C71.7799981,41.5500013 71.4840011,41.8959978 71.272,42.336 C71.0599989,42.7760022 70.954,43.2639973 70.954,43.8 C70.954,44.3360027 71.0599989,44.8239978 71.272,45.264 C71.4840011,45.7040022 71.7799981,46.0499987 72.16,46.302 C72.5400019,46.5540013 72.9739976,46.68 73.462,46.68 C73.9420024,46.68 74.3739981,46.5520013 74.758,46.296 C75.1420019,46.0399987 75.4419989,45.6940022 75.658,45.258 C75.8740011,44.8219978 75.982,44.3360027 75.982,43.8 Z M85.294,39.6 C85.486001,39.6 85.6419994,39.6639994 85.762,39.792 C85.8820006,39.9200006 85.942,40.079999 85.942,40.272 L85.942,47.268 C85.942,47.476001 85.8720007,47.6499993 85.732,47.79 C85.5919993,47.9300007 85.418001,48 85.21,48 C85.0979994,48 84.9880005,47.9820002 84.88,47.946 C84.7719995,47.9099998 84.6940002,47.8600003 84.646,47.796 L80.242,42.204 L80.242,47.328 C80.242,47.520001 80.1800006,47.6799994 80.056,47.808 C79.9319994,47.9360006 79.770001,48 79.57,48 C79.377999,48 79.2220006,47.9360006 79.102,47.808 C78.9819994,47.6799994 78.922,47.520001 78.922,47.328 L78.922,40.332 C78.922,40.123999 78.9919993,39.9500007 79.132,39.81 C79.2720007,39.6699993 79.445999,39.6 79.654,39.6 C79.7740006,39.6 79.8919994,39.6239998 80.008,39.672 C80.1240006,39.7200002 80.2099997,39.7839996 80.266,39.864 L84.634,45.432 L84.634,40.272 C84.634,40.079999 84.6959994,39.9200006 84.82,39.792 C84.9440006,39.6639994 85.101999,39.6 85.294,39.6 Z" id="NAVIGATION" fill="#333333" fill-rule="nonzero"></path>
        <g id="Group" transform="translate(274.000000, 38.000000)">
            <path d="M20.5142857,3.5 L20,3.5 L20,2 L20.5142857,2 L31.4857143,2 L32,2 L32,3.5 L31.4857143,3.5 L20.5142857,3.5 Z M20.3142857,6.97826087 L20,6.97826087 L20,5.47826087 L20.3142857,5.47826087 L27.0190476,5.47826087 L27.3333333,5.47826087 L27.3333333,6.97826087 L27.0190476,6.97826087 L20.3142857,6.97826087 Z M20.5142857,10.4565217 L20,10.4565217 L20,8.95652174 L20.5142857,8.95652174 L31.4857143,8.95652174 L32,8.95652174 L32,10.4565217 L31.4857143,10.4565217 L20.5142857,10.4565217 Z" id="Combined-Shape" fill="#424851"></path>
            <g id="Orion_search" fill="#202020" fill-rule="nonzero">
                <path d="M7.90933787,7.05859471 C9.30449047,5.22352937 9.03925162,2.60933943 7.29521707,1.08613695 C5.55118253,-0.437065537 2.9250947,-0.3480985 1.28814583,1.2896455 C-0.348803033,2.9273895 -0.436511177,5.55353663 1.08751695,7.29685241 C2.61154507,9.04016818 5.2258449,9.30415611 7.06762361,7.90071428 L10.9758968,11.8242077 C11.2100965,12.0585193 11.5898987,12.0586088 11.8242088,11.8244076 C12.0585189,11.5902065 12.0586085,11.2104018 11.8244088,10.9760902 L7.90933787,7.05859471 Z M4.40252834,7.60161388 C2.63581689,7.60161388 1.20361429,6.16940201 1.20361429,4.40267914 C1.20361429,2.63595627 2.63581689,1.20374441 4.40252834,1.20374441 C6.16923978,1.20374441 7.60144239,2.63595627 7.60144239,4.40267914 C7.6012216,6.16931055 6.16914832,7.60139309 4.40252834,7.60161388 Z" id="Shape"></path>
            </g>
        </g>
    </g>
</svg>