<?xml version="1.0" encoding="UTF-8"?>
<svg width="154px" height="94px" viewBox="0 0 154 94" version="1.1" xmlns="http://www.w3.org/2000/svg" xmlns:xlink="http://www.w3.org/1999/xlink">
    <!-- Generator: Sketch 53 (72520) - https://sketchapp.com -->
    <title>header_unboxed</title>
    <desc>Created with Sketch.</desc>
    <g id="header_unboxed" stroke="none" stroke-width="1" fill="none" fill-rule="evenodd">
        <rect fill="#FFFFFF" x="0" y="0" width="154" height="94"></rect>
        <path d="M68.474,11.337 C68.6300008,11.337 68.7604995,11.3864995 68.8655,11.4855 C68.9705005,11.5845005 69.023,11.7119992 69.023,11.868 C69.023,12.0180008 68.9705005,12.1424995 68.8655,12.2415 C68.7604995,12.3405005 68.6300008,12.39 68.474,12.39 L65.549,12.39 C65.3929992,12.39 65.2625005,12.3375005 65.1575,12.2325 C65.0524995,12.1274995 65,11.9970008 65,11.841 L65,6.639 C65,6.48299922 65.0539995,6.35250052 65.162,6.2475 C65.2700005,6.14249947 65.4079992,6.09 65.576,6.09 C65.7260007,6.09 65.8549995,6.14249947 65.963,6.2475 C66.0710005,6.35250052 66.125,6.48299922 66.125,6.639 L66.125,11.337 L68.474,11.337 Z M75.854,9.24 C75.854,9.83400297 75.7220013,10.3784975 75.458,10.8735 C75.1939987,11.3685025 74.8295023,11.7599986 74.3645,12.048 C73.8994977,12.3360014 73.3760029,12.48 72.794,12.48 C72.2119971,12.48 71.6885023,12.3360014 71.2235,12.048 C70.7584977,11.7599986 70.3955013,11.3685025 70.1345,10.8735 C69.8734987,10.3784975 69.743,9.83400297 69.743,9.24 C69.743,8.64599703 69.8734987,8.10150248 70.1345,7.6065 C70.3955013,7.11149752 70.7584977,6.72000144 71.2235,6.432 C71.6885023,6.14399856 72.2119971,6 72.794,6 C73.3760029,6 73.8994977,6.14399856 74.3645,6.432 C74.8295023,6.72000144 75.1939987,7.11149752 75.458,7.6065 C75.7220013,8.10150248 75.854,8.64599703 75.854,9.24 Z M74.684,9.24 C74.684,8.83799799 74.6030008,8.47350163 74.441,8.1465 C74.2789992,7.81949836 74.0540014,7.56000096 73.766,7.368 C73.4779986,7.17599904 73.1540018,7.08 72.794,7.08 C72.4279982,7.08 72.1025014,7.17449906 71.8175,7.3635 C71.5324986,7.55250095 71.3105008,7.81199835 71.1515,8.142 C70.9924992,8.47200165 70.913,8.83799799 70.913,9.24 C70.913,9.64200201 70.9924992,10.0079984 71.1515,10.338 C71.3105008,10.6680017 71.5324986,10.9274991 71.8175,11.1165 C72.1025014,11.3055009 72.4279982,11.4 72.794,11.4 C73.1540018,11.4 73.4779986,11.304001 73.766,11.112 C74.0540014,10.919999 74.2789992,10.6605016 74.441,10.3335 C74.6030008,10.0064984 74.684,9.64200201 74.684,9.24 Z M81.533,8.988 C81.6890008,8.988 81.8179995,9.04049948 81.92,9.1455 C82.0220005,9.25050052 82.073,9.38099922 82.073,9.537 L82.073,11.445 C82.073,11.6550011 81.9800009,11.8169994 81.794,11.931 C81.2059971,12.2970018 80.5610035,12.48 79.859,12.48 C79.264997,12.48 78.7160025,12.3345015 78.212,12.0435 C77.7079975,11.7524985 77.3090015,11.3595025 77.015,10.8645 C76.7209985,10.3694975 76.574,9.82800294 76.574,9.24 C76.574,8.65199706 76.7209985,8.11050248 77.015,7.6155 C77.3090015,7.12049753 77.7079975,6.72750146 78.212,6.4365 C78.7160025,6.14549854 79.264997,6 79.859,6 C80.453003,6 80.9689978,6.1199988 81.407,6.36 C81.4970005,6.40800024 81.5644998,6.47099961 81.6095,6.549 C81.6545002,6.62700039 81.677,6.71099955 81.677,6.801 C81.677,6.95100075 81.6275005,7.08149944 81.5285,7.1925 C81.4294995,7.30350056 81.3080007,7.359 81.164,7.359 C81.0739995,7.359 80.9750005,7.33500024 80.867,7.287 C80.5429984,7.14899931 80.2070017,7.08 79.859,7.08 C79.4749981,7.08 79.1210016,7.17749902 78.797,7.3725 C78.4729984,7.56750097 78.2165009,7.82999835 78.0275,8.16 C77.8384991,8.49000165 77.744,8.84999805 77.744,9.24 C77.744,9.63000195 77.8384991,9.98999835 78.0275,10.32 C78.2165009,10.6500017 78.4729984,10.912499 78.797,11.1075 C79.1210016,11.302501 79.4749981,11.4 79.859,11.4 C80.0270008,11.4 80.206999,11.3850001 80.399,11.355 C80.591001,11.3249999 80.7589993,11.2860002 80.903,11.238 L80.903,10.068 L80.057,10.068 C79.9009992,10.068 79.7705005,10.0170005 79.6655,9.915 C79.5604995,9.81299949 79.508,9.68400078 79.508,9.528 C79.508,9.37199922 79.5604995,9.24300051 79.6655,9.141 C79.7705005,9.03899949 79.9009992,8.988 80.057,8.988 L81.533,8.988 Z M88.949,9.24 C88.949,9.83400297 88.8170013,10.3784975 88.553,10.8735 C88.2889987,11.3685025 87.9245023,11.7599986 87.4595,12.048 C86.9944977,12.3360014 86.4710029,12.48 85.889,12.48 C85.3069971,12.48 84.7835023,12.3360014 84.3185,12.048 C83.8534977,11.7599986 83.4905013,11.3685025 83.2295,10.8735 C82.9684987,10.3784975 82.838,9.83400297 82.838,9.24 C82.838,8.64599703 82.9684987,8.10150248 83.2295,7.6065 C83.4905013,7.11149752 83.8534977,6.72000144 84.3185,6.432 C84.7835023,6.14399856 85.3069971,6 85.889,6 C86.4710029,6 86.9944977,6.14399856 87.4595,6.432 C87.9245023,6.72000144 88.2889987,7.11149752 88.553,7.6065 C88.8170013,8.10150248 88.949,8.64599703 88.949,9.24 Z M87.779,9.24 C87.779,8.83799799 87.6980008,8.47350163 87.536,8.1465 C87.3739992,7.81949836 87.1490014,7.56000096 86.861,7.368 C86.5729986,7.17599904 86.2490018,7.08 85.889,7.08 C85.5229982,7.08 85.1975014,7.17449906 84.9125,7.3635 C84.6274986,7.55250095 84.4055008,7.81199835 84.2465,8.142 C84.0874992,8.47200165 84.008,8.83799799 84.008,9.24 C84.008,9.64200201 84.0874992,10.0079984 84.2465,10.338 C84.4055008,10.6680017 84.6274986,10.9274991 84.9125,11.1165 C85.1975014,11.3055009 85.5229982,11.4 85.889,11.4 C86.2490018,11.4 86.5729986,11.304001 86.861,11.112 C87.1490014,10.919999 87.3739992,10.6605016 87.536,10.3335 C87.6980008,10.0064984 87.779,9.64200201 87.779,9.24 Z" id="LOGO" fill="#333333" fill-rule="nonzero"></path>
        <rect id="Rectangle" fill="#D8D8D8" x="0" y="18" width="154" height="18"></rect>
        <path d="M26.248,24.08 C26.3760006,24.08 26.4799996,24.1226662 26.56,24.208 C26.6400004,24.2933338 26.68,24.3999994 26.68,24.528 L26.68,29.192 C26.68,29.3306674 26.6333338,29.4466662 26.54,29.54 C26.4466662,29.6333338 26.3306674,29.68 26.192,29.68 C26.117333,29.68 26.0440004,29.6680001 25.972,29.644 C25.8999996,29.6199999 25.8480002,29.5866669 25.816,29.544 L22.88,25.816 L22.88,29.232 C22.88,29.3600006 22.8386671,29.4666662 22.756,29.552 C22.6733329,29.6373338 22.565334,29.68 22.432,29.68 C22.3039994,29.68 22.2000004,29.6373338 22.12,29.552 C22.0399996,29.4666662 22,29.3600006 22,29.232 L22,24.568 C22,24.4293326 22.0466662,24.3133338 22.14,24.22 C22.2333338,24.1266662 22.3493326,24.08 22.488,24.08 C22.5680004,24.08 22.6466663,24.0959998 22.724,24.128 C22.8013337,24.1600002 22.8586665,24.2026664 22.896,24.256 L25.808,27.968 L25.808,24.528 C25.808,24.3999994 25.8493329,24.2933338 25.932,24.208 C26.0146671,24.1226662 26.1199994,24.08 26.248,24.08 Z M32.272,29.056 C32.2986668,29.1253337 32.312,29.189333 32.312,29.248 C32.312,29.3866674 32.2666671,29.4999996 32.176,29.588 C32.0853329,29.6760004 31.9813339,29.72 31.864,29.72 C31.7679995,29.72 31.6813337,29.690667 31.604,29.632 C31.5266663,29.573333 31.4666669,29.4933338 31.424,29.392 L31.008,28.424 L28.624,28.424 L28.208,29.4 C28.1706665,29.5013338 28.1133337,29.5799997 28.036,29.636 C27.9586663,29.6920003 27.8746671,29.72 27.784,29.72 C27.6453326,29.72 27.5400004,29.682667 27.468,29.608 C27.3959996,29.533333 27.36,29.4320006 27.36,29.304 C27.36,29.2559998 27.3679999,29.2053336 27.384,29.152 L29.376,24.368 C29.4186669,24.2613328 29.4826662,24.178667 29.568,24.12 C29.6533338,24.061333 29.7493328,24.0373333 29.856,24.048 C29.9520005,24.048 30.0413329,24.0759997 30.124,24.132 C30.2066671,24.1880003 30.2666665,24.2666662 30.304,24.368 L32.272,29.056 Z M29.016,27.504 L30.616,27.504 L29.808,25.632 L29.016,27.504 Z M37.08,24.064 C37.213334,24.064 37.3293328,24.1093329 37.428,24.2 C37.5266672,24.2906671 37.576,24.3999994 37.576,24.528 C37.576,24.5973337 37.5600002,24.669333 37.528,24.744 L35.552,29.368 C35.5039998,29.4693338 35.4373338,29.5466664 35.352,29.6 C35.2666662,29.6533336 35.1760005,29.68 35.08,29.68 C34.9893329,29.6746666 34.9053337,29.6466669 34.828,29.596 C34.7506663,29.5453331 34.6906669,29.4720005 34.648,29.376 L32.672,24.736 C32.6453332,24.6826664 32.632,24.6160004 32.632,24.536 C32.632,24.3919993 32.6853328,24.2760004 32.792,24.188 C32.8986672,24.0999996 33.0079994,24.056 33.12,24.056 C33.2106671,24.056 33.2959996,24.0826664 33.376,24.136 C33.4560004,24.1893336 33.5173331,24.2666662 33.56,24.368 L35.168,28.152 L36.64,24.368 C36.6826669,24.2719995 36.7439996,24.1973336 36.824,24.144 C36.9040004,24.0906664 36.9893329,24.064 37.08,24.064 Z M39.416,29.192 C39.416,29.3306674 39.3653338,29.4466662 39.264,29.54 C39.1626662,29.6333338 39.045334,29.68 38.912,29.68 C38.7679993,29.68 38.6493338,29.6333338 38.556,29.54 C38.4626662,29.4466662 38.416,29.3306674 38.416,29.192 L38.416,24.568 C38.416,24.4293326 38.4639995,24.3133338 38.56,24.22 C38.6560005,24.1266662 38.7786659,24.08 38.928,24.08 C39.061334,24.08 39.1759995,24.1266662 39.272,24.22 C39.3680005,24.3133338 39.416,24.4293326 39.416,24.568 L39.416,29.192 Z M44.744,26.656 C44.8826674,26.656 44.9973329,26.7026662 45.088,26.796 C45.1786671,26.8893338 45.224,27.0053326 45.224,27.144 L45.224,28.84 C45.224,29.0266676 45.1413342,29.1706662 44.976,29.272 C44.4533307,29.597335 43.8800031,29.76 43.256,29.76 C42.7279974,29.76 42.2400022,29.630668 41.792,29.372 C41.3439978,29.113332 40.9893346,28.7640022 40.728,28.324 C40.4666654,27.8839978 40.336,27.4026693 40.336,26.88 C40.336,26.3573307 40.4666654,25.8760022 40.728,25.436 C40.9893346,24.9959978 41.3439978,24.646668 41.792,24.388 C42.2400022,24.129332 42.7279974,24 43.256,24 C43.7840026,24 44.2426647,24.1066656 44.632,24.32 C44.7120004,24.3626669 44.7719998,24.4186663 44.812,24.488 C44.8520002,24.5573337 44.872,24.6319996 44.872,24.712 C44.872,24.845334 44.8280004,24.9613328 44.74,25.06 C44.6519996,25.1586672 44.5440006,25.208 44.416,25.208 C44.3359996,25.208 44.2480005,25.1866669 44.152,25.144 C43.8639986,25.0213327 43.5653349,24.96 43.256,24.96 C42.914665,24.96 42.6000014,25.0466658 42.312,25.22 C42.0239986,25.3933342 41.7960008,25.6266652 41.628,25.92 C41.4599992,26.2133348 41.376,26.5333316 41.376,26.88 C41.376,27.2266684 41.4599992,27.5466652 41.628,27.84 C41.7960008,28.1333348 42.0239986,28.3666658 42.312,28.54 C42.6000014,28.7133342 42.914665,28.8 43.256,28.8 C43.4053341,28.8 43.5653325,28.7866668 43.736,28.76 C43.9066675,28.7333332 44.0559994,28.6986669 44.184,28.656 L44.184,27.616 L43.432,27.616 C43.2933326,27.616 43.1773338,27.5706671 43.084,27.48 C42.9906662,27.3893329 42.944,27.2746674 42.944,27.136 C42.944,26.9973326 42.9906662,26.8826671 43.084,26.792 C43.1773338,26.7013329 43.2933326,26.656 43.432,26.656 L44.744,26.656 Z M50.576,29.056 C50.6026668,29.1253337 50.616,29.189333 50.616,29.248 C50.616,29.3866674 50.5706671,29.4999996 50.48,29.588 C50.3893329,29.6760004 50.2853339,29.72 50.168,29.72 C50.0719995,29.72 49.9853337,29.690667 49.908,29.632 C49.8306663,29.573333 49.7706669,29.4933338 49.728,29.392 L49.312,28.424 L46.928,28.424 L46.512,29.4 C46.4746665,29.5013338 46.4173337,29.5799997 46.34,29.636 C46.2626663,29.6920003 46.1786671,29.72 46.088,29.72 C45.9493326,29.72 45.8440004,29.682667 45.772,29.608 C45.6999996,29.533333 45.664,29.4320006 45.664,29.304 C45.664,29.2559998 45.6719999,29.2053336 45.688,29.152 L47.68,24.368 C47.7226669,24.2613328 47.7866662,24.178667 47.872,24.12 C47.9573338,24.061333 48.0533328,24.0373333 48.16,24.048 C48.2560005,24.048 48.3453329,24.0759997 48.428,24.132 C48.5106671,24.1880003 48.5706665,24.2666662 48.608,24.368 L50.576,29.056 Z M47.32,27.504 L48.92,27.504 L48.112,25.632 L47.32,27.504 Z M54.976,24.08 C55.1200007,24.08 55.2373329,24.1226662 55.328,24.208 C55.4186671,24.2933338 55.464,24.4053326 55.464,24.544 C55.464,24.6826674 55.4186671,24.7933329 55.328,24.876 C55.2373329,24.9586671 55.1200007,25 54.976,25 L53.72,25 L53.72,29.192 C53.72,29.3306674 53.6693338,29.4466662 53.568,29.54 C53.4666662,29.6333338 53.3413341,29.68 53.192,29.68 C53.0426659,29.68 52.9200005,29.6333338 52.824,29.54 C52.7279995,29.4466662 52.68,29.3306674 52.68,29.192 L52.68,25 L51.424,25 C51.2799993,25 51.1626671,24.9573338 51.072,24.872 C50.9813329,24.7866662 50.936,24.6746674 50.936,24.536 C50.936,24.402666 50.9826662,24.2933338 51.076,24.208 C51.1693338,24.1226662 51.2853326,24.08 51.424,24.08 L54.976,24.08 Z M57.304,29.192 C57.304,29.3306674 57.2533338,29.4466662 57.152,29.54 C57.0506662,29.6333338 56.933334,29.68 56.8,29.68 C56.6559993,29.68 56.5373338,29.6333338 56.444,29.54 C56.3506662,29.4466662 56.304,29.3306674 56.304,29.192 L56.304,24.568 C56.304,24.4293326 56.3519995,24.3133338 56.448,24.22 C56.5440005,24.1266662 56.6666659,24.08 56.816,24.08 C56.949334,24.08 57.0639995,24.1266662 57.16,24.22 C57.2560005,24.3133338 57.304,24.4293326 57.304,24.568 L57.304,29.192 Z M63.656,26.88 C63.656,27.4080026 63.5386678,27.8919978 63.304,28.332 C63.0693322,28.7720022 62.7453354,29.1199987 62.332,29.376 C61.9186646,29.6320013 61.4533359,29.76 60.936,29.76 C60.4186641,29.76 59.9533354,29.6320013 59.54,29.376 C59.1266646,29.1199987 58.8040012,28.7720022 58.572,28.332 C58.3399988,27.8919978 58.224,27.4080026 58.224,26.88 C58.224,26.3519974 58.3399988,25.8680022 58.572,25.428 C58.8040012,24.9879978 59.1266646,24.6400013 59.54,24.384 C59.9533354,24.1279987 60.4186641,24 60.936,24 C61.4533359,24 61.9186646,24.1279987 62.332,24.384 C62.7453354,24.6400013 63.0693322,24.9879978 63.304,25.428 C63.5386678,25.8680022 63.656,26.3519974 63.656,26.88 Z M62.616,26.88 C62.616,26.5226649 62.5440007,26.1986681 62.4,25.908 C62.2559993,25.6173319 62.0560013,25.3866675 61.8,25.216 C61.5439987,25.0453325 61.2560016,24.96 60.936,24.96 C60.610665,24.96 60.3213346,25.0439992 60.068,25.212 C59.8146654,25.3800008 59.617334,25.6106652 59.476,25.904 C59.334666,26.1973348 59.264,26.5226649 59.264,26.88 C59.264,27.2373351 59.334666,27.5626652 59.476,27.856 C59.617334,28.1493348 59.8146654,28.3799992 60.068,28.548 C60.3213346,28.7160008 60.610665,28.8 60.936,28.8 C61.2560016,28.8 61.5439987,28.7146675 61.8,28.544 C62.0560013,28.3733325 62.2559993,28.1426681 62.4,27.852 C62.5440007,27.5613319 62.616,27.2373351 62.616,26.88 Z M68.824,24.08 C68.9520006,24.08 69.0559996,24.1226662 69.136,24.208 C69.2160004,24.2933338 69.256,24.3999994 69.256,24.528 L69.256,29.192 C69.256,29.3306674 69.2093338,29.4466662 69.116,29.54 C69.0226662,29.6333338 68.9066674,29.68 68.768,29.68 C68.693333,29.68 68.6200004,29.6680001 68.548,29.644 C68.4759996,29.6199999 68.4240002,29.5866669 68.392,29.544 L65.456,25.816 L65.456,29.232 C65.456,29.3600006 65.4146671,29.4666662 65.332,29.552 C65.2493329,29.6373338 65.141334,29.68 65.008,29.68 C64.8799994,29.68 64.7760004,29.6373338 64.696,29.552 C64.6159996,29.4666662 64.576,29.3600006 64.576,29.232 L64.576,24.568 C64.576,24.4293326 64.6226662,24.3133338 64.716,24.22 C64.8093338,24.1266662 64.9253326,24.08 65.064,24.08 C65.1440004,24.08 65.2226663,24.0959998 65.3,24.128 C65.3773337,24.1600002 65.4346665,24.2026664 65.472,24.256 L68.384,27.968 L68.384,24.528 C68.384,24.3999994 68.4253329,24.2933338 68.508,24.208 C68.5906671,24.1226662 68.6959994,24.08 68.824,24.08 Z" id="NAVIGATION" fill="#333333" fill-rule="nonzero"></path>
        <g id="Orion_search" transform="translate(124.000000, 23.000000)" fill="#202020" fill-rule="nonzero">
            <path d="M5.27289191,4.7057298 C6.20299365,3.48235291 6.02616775,1.73955962 4.86347805,0.724091298 C3.70078835,-0.291377025 1.95006313,-0.232065667 0.858763888,0.859763665 C-0.232535355,1.951593 -0.291007451,3.70235776 0.725011299,4.86456827 C1.74103005,6.02677879 3.4838966,6.20277074 4.71174907,5.26714285 L7.31726456,7.88280515 C7.47339769,8.03901289 7.72659917,8.03907256 7.8828059,7.88293843 C8.03901263,7.7268043 8.03907231,7.47360119 7.8829392,7.31739344 L5.27289191,4.7057298 Z M2.93501889,5.06774259 C1.75721126,5.06774259 0.802409525,4.11293468 0.802409525,2.93511943 C0.802409525,1.75730418 1.75721126,0.802496271 2.93501889,0.802496271 C4.11282652,0.802496271 5.06762826,1.75730418 5.06762826,2.93511943 C5.06748107,4.1128737 4.11276555,5.06759539 2.93501889,5.06774259 Z" id="Shape"></path>
        </g>
        <g id="Group-2" transform="translate(22.000000, 42.000000)">
            <rect id="Rectangle" fill="#F0F0F0" x="0" y="0" width="76" height="38"></rect>
            <rect id="Rectangle" fill="#F0F0F0" x="83" y="0" width="28" height="28"></rect>
            <rect id="Rectangle" fill="#F0F0F0" x="83" y="34" width="28" height="18"></rect>
            <g id="Group" transform="translate(18.000000, 44.000000)" stroke="#D6D6D6" stroke-linecap="square" stroke-width="2">
                <path d="M0,1 L40,1" id="Line"></path>
            </g>
            <g id="Group" transform="translate(18.000000, 48.000000)" stroke="#D6D6D6" stroke-linecap="square" stroke-width="2">
                <path d="M0,1 L40,1" id="Line"></path>
            </g>
        </g>
    </g>
</svg>