<?xml version="1.0" encoding="UTF-8"?>
<svg width="320px" height="60px" viewBox="0 0 320 60" version="1.1" xmlns="http://www.w3.org/2000/svg" xmlns:xlink="http://www.w3.org/1999/xlink">
    <!-- Generator: Sketch 53 (72520) - https://sketchapp.com -->
    <title>header_layout_5</title>
    <desc>Created with Sketch.</desc>
    <g id="header_layout_5" stroke="none" stroke-width="1" fill="none" fill-rule="evenodd">
        <rect fill="#FFFFFF" x="0" y="0" width="320" height="60"></rect>
        <path d="M146.095,19.245 C146.355001,19.245 146.572499,19.3274992 146.7475,19.4925 C146.922501,19.6575008 147.01,19.8699987 147.01,20.13 C147.01,20.3800012 146.922501,20.5874992 146.7475,20.7525 C146.572499,20.9175008 146.355001,21 146.095,21 L141.22,21 C140.959999,21 140.742501,20.9125009 140.5675,20.7375 C140.392499,20.5624991 140.305,20.3450013 140.305,20.085 L140.305,11.415 C140.305,11.1549987 140.394999,10.9375009 140.575,10.7625 C140.755001,10.5874991 140.984999,10.5 141.265,10.5 C141.515001,10.5 141.729999,10.5874991 141.91,10.7625 C142.090001,10.9375009 142.18,11.1549987 142.18,11.415 L142.18,19.245 L146.095,19.245 Z M158.395,15.75 C158.395,16.7400049 158.175002,17.6474959 157.735,18.4725 C157.294998,19.2975041 156.687504,19.9499976 155.9125,20.43 C155.137496,20.9100024 154.265005,21.15 153.295,21.15 C152.324995,21.15 151.452504,20.9100024 150.6775,20.43 C149.902496,19.9499976 149.297502,19.2975041 148.8625,18.4725 C148.427498,17.6474959 148.21,16.7400049 148.21,15.75 C148.21,14.7599951 148.427498,13.8525041 148.8625,13.0275 C149.297502,12.2024959 149.902496,11.5500024 150.6775,11.07 C151.452504,10.5899976 152.324995,10.35 153.295,10.35 C154.265005,10.35 155.137496,10.5899976 155.9125,11.07 C156.687504,11.5500024 157.294998,12.2024959 157.735,13.0275 C158.175002,13.8525041 158.395,14.7599951 158.395,15.75 Z M156.445,15.75 C156.445,15.0799967 156.310001,14.4725027 156.04,13.9275 C155.769999,13.3824973 155.395002,12.9500016 154.915,12.63 C154.434998,12.3099984 153.895003,12.15 153.295,12.15 C152.684997,12.15 152.142502,12.3074984 151.6675,12.6225 C151.192498,12.9375016 150.822501,13.3699973 150.5575,13.92 C150.292499,14.4700028 150.16,15.0799967 150.16,15.75 C150.16,16.4200033 150.292499,17.0299973 150.5575,17.58 C150.822501,18.1300027 151.192498,18.5624984 151.6675,18.8775 C152.142502,19.1925016 152.684997,19.35 153.295,19.35 C153.895003,19.35 154.434998,19.1900016 154.915,18.87 C155.395002,18.5499984 155.769999,18.1175027 156.04,17.5725 C156.310001,17.0274973 156.445,16.4200033 156.445,15.75 Z M167.86,15.33 C168.120001,15.33 168.334999,15.4174991 168.505,15.5925 C168.675001,15.7675009 168.76,15.9849987 168.76,16.245 L168.76,19.425 C168.76,19.7750018 168.605002,20.0449991 168.295,20.235 C167.314995,20.8450031 166.240006,21.15 165.07,21.15 C164.079995,21.15 163.165004,20.9075024 162.325,20.4225 C161.484996,19.9374976 160.820002,19.2825041 160.33,18.4575 C159.839998,17.6324959 159.595,16.7300049 159.595,15.75 C159.595,14.7699951 159.839998,13.8675041 160.33,13.0425 C160.820002,12.2174959 161.484996,11.5625024 162.325,11.0775 C163.165004,10.5924976 164.079995,10.35 165.07,10.35 C166.060005,10.35 166.919996,10.549998 167.65,10.95 C167.800001,11.0300004 167.9125,11.1349994 167.9875,11.265 C168.0625,11.3950007 168.1,11.5349993 168.1,11.685 C168.1,11.9350013 168.017501,12.1524991 167.8525,12.3375 C167.687499,12.5225009 167.485001,12.615 167.245,12.615 C167.094999,12.615 166.930001,12.5750004 166.75,12.495 C166.209997,12.2649989 165.650003,12.15 165.07,12.15 C164.429997,12.15 163.840003,12.3124984 163.3,12.6375 C162.759997,12.9625016 162.332502,13.3999973 162.0175,13.95 C161.702498,14.5000028 161.545,15.0999967 161.545,15.75 C161.545,16.4000033 161.702498,16.9999972 162.0175,17.55 C162.332502,18.1000028 162.759997,18.5374984 163.3,18.8625 C163.840003,19.1875016 164.429997,19.35 165.07,19.35 C165.350001,19.35 165.649998,19.3250002 165.97,19.275 C166.290002,19.2249998 166.569999,19.1600004 166.81,19.08 L166.81,17.13 L165.4,17.13 C165.139999,17.13 164.922501,17.0450009 164.7475,16.875 C164.572499,16.7049991 164.485,16.4900013 164.485,16.23 C164.485,15.9699987 164.572499,15.7550009 164.7475,15.585 C164.922501,15.4149991 165.139999,15.33 165.4,15.33 L167.86,15.33 Z M180.22,15.75 C180.22,16.7400049 180.000002,17.6474959 179.56,18.4725 C179.119998,19.2975041 178.512504,19.9499976 177.7375,20.43 C176.962496,20.9100024 176.090005,21.15 175.12,21.15 C174.149995,21.15 173.277504,20.9100024 172.5025,20.43 C171.727496,19.9499976 171.122502,19.2975041 170.6875,18.4725 C170.252498,17.6474959 170.035,16.7400049 170.035,15.75 C170.035,14.7599951 170.252498,13.8525041 170.6875,13.0275 C171.122502,12.2024959 171.727496,11.5500024 172.5025,11.07 C173.277504,10.5899976 174.149995,10.35 175.12,10.35 C176.090005,10.35 176.962496,10.5899976 177.7375,11.07 C178.512504,11.5500024 179.119998,12.2024959 179.56,13.0275 C180.000002,13.8525041 180.22,14.7599951 180.22,15.75 Z M178.27,15.75 C178.27,15.0799967 178.135001,14.4725027 177.865,13.9275 C177.594999,13.3824973 177.220002,12.9500016 176.74,12.63 C176.259998,12.3099984 175.720003,12.15 175.12,12.15 C174.509997,12.15 173.967502,12.3074984 173.4925,12.6225 C173.017498,12.9375016 172.647501,13.3699973 172.3825,13.92 C172.117499,14.4700028 171.985,15.0799967 171.985,15.75 C171.985,16.4200033 172.117499,17.0299973 172.3825,17.58 C172.647501,18.1300027 173.017498,18.5624984 173.4925,18.8775 C173.967502,19.1925016 174.509997,19.35 175.12,19.35 C175.720003,19.35 176.259998,19.1900016 176.74,18.87 C177.220002,18.5499984 177.594999,18.1175027 177.865,17.5725 C178.135001,17.0274973 178.27,16.4200033 178.27,15.75 Z" id="LOGO" fill="#333333" fill-rule="nonzero"></path>
        <path d="M15,30.5 L305,30.5" id="Line" stroke="#000000" opacity="0.100000001" stroke-linecap="square"></path>
        <g id="Group" transform="translate(103.000000, 37.000000)">
            <path d="M7.43,3.6 C7.62200096,3.6 7.7779994,3.66399936 7.898,3.792 C8.0180006,3.92000064 8.078,4.07999904 8.078,4.272 L8.078,11.268 C8.078,11.476001 8.0080007,11.6499993 7.868,11.79 C7.7279993,11.9300007 7.55400104,12 7.346,12 C7.23399944,12 7.12400054,11.9820002 7.016,11.946 C6.90799946,11.9099998 6.83000024,11.8600003 6.782,11.796 L2.378,6.204 L2.378,11.328 C2.378,11.520001 2.31600062,11.6799994 2.192,11.808 C2.06799938,11.9360006 1.906001,12 1.706,12 C1.51399904,12 1.3580006,11.9360006 1.238,11.808 C1.1179994,11.6799994 1.058,11.520001 1.058,11.328 L1.058,4.332 C1.058,4.12399896 1.1279993,3.9500007 1.268,3.81 C1.4080007,3.6699993 1.58199896,3.6 1.79,3.6 C1.9100006,3.6 2.02799942,3.62399976 2.144,3.672 C2.26000058,3.72000024 2.34599972,3.7839996 2.402,3.864 L6.77,9.432 L6.77,4.272 C6.77,4.07999904 6.83199938,3.92000064 6.956,3.792 C7.08000062,3.66399936 7.23799904,3.6 7.43,3.6 Z M16.466,11.064 C16.5060002,11.1680005 16.526,11.2639996 16.526,11.352 C16.526,11.560001 16.4580007,11.7299993 16.322,11.862 C16.1859993,11.9940007 16.0300009,12.06 15.854,12.06 C15.7099993,12.06 15.5800006,12.0160004 15.464,11.928 C15.3479994,11.8399996 15.2580003,11.7200008 15.194,11.568 L14.57,10.116 L10.994,10.116 L10.37,11.58 C10.3139997,11.7320008 10.2280006,11.8499996 10.112,11.934 C9.99599942,12.0180004 9.87000068,12.06 9.734,12.06 C9.52599896,12.06 9.36800054,12.0040006 9.26,11.892 C9.15199946,11.7799994 9.098,11.628001 9.098,11.436 C9.098,11.3639996 9.10999988,11.2880004 9.134,11.208 L12.122,4.032 C12.1860003,3.8719992 12.2819994,3.74800044 12.41,3.66 C12.5380006,3.57199956 12.6819992,3.53599992 12.842,3.552 C12.9860007,3.552 13.1199994,3.59399958 13.244,3.678 C13.3680006,3.76200042 13.4579997,3.87999924 13.514,4.032 L16.466,11.064 Z M11.582,8.736 L13.982,8.736 L12.77,5.928 L11.582,8.736 Z M23.678,3.576 C23.878001,3.576 24.0519993,3.64399932 24.2,3.78 C24.3480007,3.91600068 24.422,4.07999904 24.422,4.272 C24.422,4.37600052 24.3980002,4.48399944 24.35,4.596 L21.386,11.532 C21.3139996,11.6840008 21.2140006,11.7999996 21.086,11.88 C20.9579994,11.9600004 20.8220007,12 20.678,12 C20.5419993,11.992 20.4160006,11.9500004 20.3,11.874 C20.1839994,11.7979996 20.0940003,11.6880007 20.03,11.544 L17.066,4.584 C17.0259998,4.5039996 17.006,4.4040006 17.006,4.284 C17.006,4.06799892 17.0859992,3.89400066 17.246,3.762 C17.4060008,3.62999934 17.5699992,3.564 17.738,3.564 C17.8740007,3.564 18.0019994,3.6039996 18.122,3.684 C18.2420006,3.7640004 18.3339997,3.87999924 18.398,4.032 L20.81,9.708 L23.018,4.032 C23.0820003,3.88799928 23.1739994,3.7760004 23.294,3.696 C23.4140006,3.6159996 23.5419993,3.576 23.678,3.576 Z M27.182,11.268 C27.182,11.476001 27.1060008,11.6499993 26.954,11.79 C26.8019992,11.9300007 26.626001,12 26.426,12 C26.2099989,12 26.0320007,11.9300007 25.892,11.79 C25.7519993,11.6499993 25.682,11.476001 25.682,11.268 L25.682,4.332 C25.682,4.12399896 25.7539993,3.9500007 25.898,3.81 C26.0420007,3.6699993 26.2259989,3.6 26.45,3.6 C26.650001,3.6 26.8219993,3.6699993 26.966,3.81 C27.1100007,3.9500007 27.182,4.12399896 27.182,4.332 L27.182,11.268 Z M35.174,7.464 C35.382001,7.464 35.5539993,7.5339993 35.69,7.674 C35.8260007,7.8140007 35.894,7.98799896 35.894,8.196 L35.894,10.74 C35.894,11.0200014 35.7700012,11.2359992 35.522,11.388 C34.7379961,11.8760024 33.8780047,12.12 32.942,12.12 C32.149996,12.12 31.4180034,11.9260019 30.746,11.538 C30.0739966,11.1499981 29.542002,10.6260033 29.15,9.966 C28.757998,9.3059967 28.562,8.58400392 28.562,7.8 C28.562,7.01599608 28.757998,6.2940033 29.15,5.634 C29.542002,4.9739967 30.0739966,4.45000194 30.746,4.062 C31.4180034,3.67399806 32.149996,3.48 32.942,3.48 C33.734004,3.48 34.4219971,3.6399984 35.006,3.96 C35.1260006,4.02400032 35.2159997,4.10799948 35.276,4.212 C35.3360003,4.31600052 35.366,4.4279994 35.366,4.548 C35.366,4.748001 35.3000007,4.92199926 35.168,5.07 C35.0359993,5.21800074 34.874001,5.292 34.682,5.292 C34.5619994,5.292 34.4300007,5.26000032 34.286,5.196 C33.8539978,5.01199908 33.4060023,4.92 32.942,4.92 C32.4299974,4.92 31.9580022,5.0499987 31.526,5.31 C31.0939978,5.5700013 30.7520013,5.9199978 30.5,6.36 C30.2479987,6.8000022 30.122,7.2799974 30.122,7.8 C30.122,8.3200026 30.2479987,8.7999978 30.5,9.24 C30.7520013,9.6800022 31.0939978,10.0299987 31.526,10.29 C31.9580022,10.5500013 32.4299974,10.68 32.942,10.68 C33.1660011,10.68 33.4059987,10.6600002 33.662,10.62 C33.9180013,10.5799998 34.141999,10.5280003 34.334,10.464 L34.334,8.904 L33.206,8.904 C32.997999,8.904 32.8240007,8.83600068 32.684,8.7 C32.5439993,8.56399932 32.474,8.39200104 32.474,8.184 C32.474,7.97599896 32.5439993,7.80400068 32.684,7.668 C32.8240007,7.53199932 32.997999,7.464 33.206,7.464 L35.174,7.464 Z M43.922,11.064 C43.9620002,11.1680005 43.982,11.2639996 43.982,11.352 C43.982,11.560001 43.9140007,11.7299993 43.778,11.862 C43.6419993,11.9940007 43.4860009,12.06 43.31,12.06 C43.1659993,12.06 43.0360006,12.0160004 42.92,11.928 C42.8039994,11.8399996 42.7140003,11.7200008 42.65,11.568 L42.026,10.116 L38.45,10.116 L37.826,11.58 C37.7699997,11.7320008 37.6840006,11.8499996 37.568,11.934 C37.4519994,12.0180004 37.3260007,12.06 37.19,12.06 C36.981999,12.06 36.8240005,12.0040006 36.716,11.892 C36.6079995,11.7799994 36.554,11.628001 36.554,11.436 C36.554,11.3639996 36.5659999,11.2880004 36.59,11.208 L39.578,4.032 C39.6420003,3.8719992 39.7379994,3.74800044 39.866,3.66 C39.9940006,3.57199956 40.1379992,3.53599992 40.298,3.552 C40.4420007,3.552 40.5759994,3.59399958 40.7,3.678 C40.8240006,3.76200042 40.9139997,3.87999924 40.97,4.032 L43.922,11.064 Z M39.038,8.736 L41.438,8.736 L40.226,5.928 L39.038,8.736 Z M50.522,3.6 C50.7380011,3.6 50.9139993,3.66399936 51.05,3.792 C51.1860007,3.92000064 51.254,4.08799896 51.254,4.296 C51.254,4.50400104 51.1860007,4.66999938 51.05,4.794 C50.9139993,4.91800062 50.7380011,4.98 50.522,4.98 L48.638,4.98 L48.638,11.268 C48.638,11.476001 48.5620008,11.6499993 48.41,11.79 C48.2579992,11.9300007 48.0700011,12 47.846,12 C47.6219989,12 47.4380007,11.9300007 47.294,11.79 C47.1499993,11.6499993 47.078,11.476001 47.078,11.268 L47.078,4.98 L45.194,4.98 C44.9779989,4.98 44.8020007,4.91600064 44.666,4.788 C44.5299993,4.65999936 44.462,4.49200104 44.462,4.284 C44.462,4.083999 44.5319993,3.92000064 44.672,3.792 C44.8120007,3.66399936 44.985999,3.6 45.194,3.6 L50.522,3.6 Z M54.014,11.268 C54.014,11.476001 53.9380008,11.6499993 53.786,11.79 C53.6339992,11.9300007 53.458001,12 53.258,12 C53.0419989,12 52.8640007,11.9300007 52.724,11.79 C52.5839993,11.6499993 52.514,11.476001 52.514,11.268 L52.514,4.332 C52.514,4.12399896 52.5859993,3.9500007 52.73,3.81 C52.8740007,3.6699993 53.0579989,3.6 53.282,3.6 C53.482001,3.6 53.6539993,3.6699993 53.798,3.81 C53.9420007,3.9500007 54.014,4.12399896 54.014,4.332 L54.014,11.268 Z M63.542,7.8 C63.542,8.59200396 63.3660018,9.3179967 63.014,9.978 C62.6619982,10.6380033 62.1760031,11.1599981 61.556,11.544 C60.9359969,11.9280019 60.2380039,12.12 59.462,12.12 C58.6859961,12.12 57.9880031,11.9280019 57.368,11.544 C56.7479969,11.1599981 56.2640017,10.6380033 55.916,9.978 C55.5679983,9.3179967 55.394,8.59200396 55.394,7.8 C55.394,7.00799604 55.5679983,6.2820033 55.916,5.622 C56.2640017,4.9619967 56.7479969,4.44000192 57.368,4.056 C57.9880031,3.67199808 58.6859961,3.48 59.462,3.48 C60.2380039,3.48 60.9359969,3.67199808 61.556,4.056 C62.1760031,4.44000192 62.6619982,4.9619967 63.014,5.622 C63.3660018,6.2820033 63.542,7.00799604 63.542,7.8 Z M61.982,7.8 C61.982,7.26399732 61.8740011,6.77800218 61.658,6.342 C61.4419989,5.90599782 61.1420019,5.56000128 60.758,5.304 C60.3739981,5.04799872 59.9420024,4.92 59.462,4.92 C58.9739976,4.92 58.5400019,5.04599874 58.16,5.298 C57.7799981,5.55000126 57.4840011,5.8959978 57.272,6.336 C57.0599989,6.7760022 56.954,7.26399732 56.954,7.8 C56.954,8.33600268 57.0599989,8.8239978 57.272,9.264 C57.4840011,9.7040022 57.7799981,10.0499987 58.16,10.302 C58.5400019,10.5540013 58.9739976,10.68 59.462,10.68 C59.9420024,10.68 60.3739981,10.5520013 60.758,10.296 C61.1420019,10.0399987 61.4419989,9.69400218 61.658,9.258 C61.8740011,8.82199782 61.982,8.33600268 61.982,7.8 Z M71.294,3.6 C71.486001,3.6 71.6419994,3.66399936 71.762,3.792 C71.8820006,3.92000064 71.942,4.07999904 71.942,4.272 L71.942,11.268 C71.942,11.476001 71.8720007,11.6499993 71.732,11.79 C71.5919993,11.9300007 71.418001,12 71.21,12 C71.0979994,12 70.9880005,11.9820002 70.88,11.946 C70.7719995,11.9099998 70.6940002,11.8600003 70.646,11.796 L66.242,6.204 L66.242,11.328 C66.242,11.520001 66.1800006,11.6799994 66.056,11.808 C65.9319994,11.9360006 65.770001,12 65.57,12 C65.377999,12 65.2220006,11.9360006 65.102,11.808 C64.9819994,11.6799994 64.922,11.520001 64.922,11.328 L64.922,4.332 C64.922,4.12399896 64.9919993,3.9500007 65.132,3.81 C65.2720007,3.6699993 65.445999,3.6 65.654,3.6 C65.7740006,3.6 65.8919994,3.62399976 66.008,3.672 C66.1240006,3.72000024 66.2099997,3.7839996 66.266,3.864 L70.634,9.432 L70.634,4.272 C70.634,4.07999904 70.6959994,3.92000064 70.82,3.792 C70.9440006,3.66399936 71.101999,3.6 71.294,3.6 Z" id="NAVIGATION" fill="#333333" fill-rule="nonzero"></path>
            <path d="M103.514286,4.5 L103,4.5 L103,3 L103.514286,3 L114.485714,3 L115,3 L115,4.5 L114.485714,4.5 L103.514286,4.5 Z M103.314286,7.97826087 L103,7.97826087 L103,6.47826087 L103.314286,6.47826087 L110.019048,6.47826087 L110.333333,6.47826087 L110.333333,7.97826087 L110.019048,7.97826087 L103.314286,7.97826087 Z M103.514286,11.4565217 L103,11.4565217 L103,9.95652174 L103.514286,9.95652174 L114.485714,9.95652174 L115,9.95652174 L115,11.4565217 L114.485714,11.4565217 L103.514286,11.4565217 Z" id="Combined-Shape" fill="#424851"></path>
            <g id="Orion_search" transform="translate(82.000000, 1.000000)" fill="#202020" fill-rule="nonzero">
                <path d="M7.90933787,7.05859471 C9.30449047,5.22352937 9.03925162,2.60933943 7.29521707,1.08613695 C5.55118253,-0.437065537 2.9250947,-0.3480985 1.28814583,1.2896455 C-0.348803033,2.9273895 -0.436511177,5.55353663 1.08751695,7.29685241 C2.61154507,9.04016818 5.2258449,9.30415611 7.06762361,7.90071428 L10.9758968,11.8242077 C11.2100965,12.0585193 11.5898987,12.0586088 11.8242088,11.8244076 C12.0585189,11.5902065 12.0586085,11.2104018 11.8244088,10.9760902 L7.90933787,7.05859471 Z M4.40252834,7.60161388 C2.63581689,7.60161388 1.20361429,6.16940201 1.20361429,4.40267914 C1.20361429,2.63595627 2.63581689,1.20374441 4.40252834,1.20374441 C6.16923978,1.20374441 7.60144239,2.63595627 7.60144239,4.40267914 C7.6012216,6.16931055 6.16914832,7.60139309 4.40252834,7.60161388 Z" id="Shape"></path>
            </g>
        </g>
    </g>
</svg>