<?xml version="1.0" encoding="UTF-8"?>
<svg width="320px" height="40px" viewBox="0 0 320 40" version="1.1" xmlns="http://www.w3.org/2000/svg" xmlns:xlink="http://www.w3.org/1999/xlink">
    <!-- Generator: Sketch 53 (72520) - https://sketchapp.com -->
    <title>header_layout_1</title>
    <desc>Created with Sketch.</desc>
    <g id="header_layout_1" stroke="none" stroke-width="1" fill="none" fill-rule="evenodd">
        <rect fill="#FFFFFF" x="0" y="0" width="320" height="40"></rect>
        <path d="M21.095,24.245 C21.3550013,24.245 21.5724991,24.3274992 21.7475,24.4925 C21.9225009,24.6575008 22.01,24.8699987 22.01,25.13 C22.01,25.3800012 21.9225009,25.5874992 21.7475,25.7525 C21.5724991,25.9175008 21.3550013,26 21.095,26 L16.22,26 C15.9599987,26 15.7425009,25.9125009 15.5675,25.7375 C15.3924991,25.5624991 15.305,25.3450013 15.305,25.085 L15.305,16.415 C15.305,16.1549987 15.3949991,15.9375009 15.575,15.7625 C15.7550009,15.5874991 15.9849986,15.5 16.265,15.5 C16.5150013,15.5 16.7299991,15.5874991 16.91,15.7625 C17.0900009,15.9375009 17.18,16.1549987 17.18,16.415 L17.18,24.245 L21.095,24.245 Z M33.395,20.75 C33.395,21.7400049 33.1750022,22.6474959 32.735,23.4725 C32.2949978,24.2975041 31.6875039,24.9499976 30.9125,25.43 C30.1374961,25.9100024 29.2650048,26.15 28.295,26.15 C27.3249951,26.15 26.4525039,25.9100024 25.6775,25.43 C24.9024961,24.9499976 24.2975022,24.2975041 23.8625,23.4725 C23.4274978,22.6474959 23.21,21.7400049 23.21,20.75 C23.21,19.7599951 23.4274978,18.8525041 23.8625,18.0275 C24.2975022,17.2024959 24.9024961,16.5500024 25.6775,16.07 C26.4525039,15.5899976 27.3249951,15.35 28.295,15.35 C29.2650048,15.35 30.1374961,15.5899976 30.9125,16.07 C31.6875039,16.5500024 32.2949978,17.2024959 32.735,18.0275 C33.1750022,18.8525041 33.395,19.7599951 33.395,20.75 Z M31.445,20.75 C31.445,20.0799967 31.3100014,19.4725027 31.04,18.9275 C30.7699986,18.3824973 30.3950024,17.9500016 29.915,17.63 C29.4349976,17.3099984 28.895003,17.15 28.295,17.15 C27.6849969,17.15 27.1425024,17.3074984 26.6675,17.6225 C26.1924976,17.9375016 25.8225013,18.3699973 25.5575,18.92 C25.2924987,19.4700027 25.16,20.0799967 25.16,20.75 C25.16,21.4200033 25.2924987,22.0299973 25.5575,22.58 C25.8225013,23.1300027 26.1924976,23.5624984 26.6675,23.8775 C27.1425024,24.1925016 27.6849969,24.35 28.295,24.35 C28.895003,24.35 29.4349976,24.1900016 29.915,23.87 C30.3950024,23.5499984 30.7699986,23.1175027 31.04,22.5725 C31.3100014,22.0274973 31.445,21.4200033 31.445,20.75 Z M42.86,20.33 C43.1200013,20.33 43.3349991,20.4174991 43.505,20.5925 C43.6750008,20.7675009 43.76,20.9849987 43.76,21.245 L43.76,24.425 C43.76,24.7750018 43.6050015,25.0449991 43.295,25.235 C42.3149951,25.8450031 41.2400058,26.15 40.07,26.15 C39.0799951,26.15 38.1650042,25.9075024 37.325,25.4225 C36.4849958,24.9374976 35.8200024,24.2825041 35.33,23.4575 C34.8399975,22.6324959 34.595,21.7300049 34.595,20.75 C34.595,19.7699951 34.8399975,18.8675041 35.33,18.0425 C35.8200024,17.2174959 36.4849958,16.5625024 37.325,16.0775 C38.1650042,15.5924976 39.0799951,15.35 40.07,15.35 C41.0600049,15.35 41.9199963,15.549998 42.65,15.95 C42.8000007,16.0300004 42.9124996,16.1349994 42.9875,16.265 C43.0625004,16.3950007 43.1,16.5349992 43.1,16.685 C43.1,16.9350012 43.0175008,17.1524991 42.8525,17.3375 C42.6874992,17.5225009 42.4850012,17.615 42.245,17.615 C42.0949993,17.615 41.9300009,17.5750004 41.75,17.495 C41.2099973,17.2649989 40.6500029,17.15 40.07,17.15 C39.4299968,17.15 38.8400027,17.3124984 38.3,17.6375 C37.7599973,17.9625016 37.3325016,18.3999972 37.0175,18.95 C36.7024984,19.5000028 36.545,20.0999967 36.545,20.75 C36.545,21.4000033 36.7024984,21.9999972 37.0175,22.55 C37.3325016,23.1000028 37.7599973,23.5374984 38.3,23.8625 C38.8400027,24.1875016 39.4299968,24.35 40.07,24.35 C40.3500014,24.35 40.6499984,24.3250002 40.97,24.275 C41.2900016,24.2249998 41.5699988,24.1600004 41.81,24.08 L41.81,22.13 L40.4,22.13 C40.1399987,22.13 39.9225009,22.0450009 39.7475,21.875 C39.5724991,21.7049991 39.485,21.4900013 39.485,21.23 C39.485,20.9699987 39.5724991,20.7550009 39.7475,20.585 C39.9225009,20.4149991 40.1399987,20.33 40.4,20.33 L42.86,20.33 Z M55.22,20.75 C55.22,21.7400049 55.0000022,22.6474959 54.56,23.4725 C54.1199978,24.2975041 53.5125039,24.9499976 52.7375,25.43 C51.9624961,25.9100024 51.0900048,26.15 50.12,26.15 C49.1499951,26.15 48.2775039,25.9100024 47.5025,25.43 C46.7274961,24.9499976 46.1225022,24.2975041 45.6875,23.4725 C45.2524978,22.6474959 45.035,21.7400049 45.035,20.75 C45.035,19.7599951 45.2524978,18.8525041 45.6875,18.0275 C46.1225022,17.2024959 46.7274961,16.5500024 47.5025,16.07 C48.2775039,15.5899976 49.1499951,15.35 50.12,15.35 C51.0900048,15.35 51.9624961,15.5899976 52.7375,16.07 C53.5125039,16.5500024 54.1199978,17.2024959 54.56,18.0275 C55.0000022,18.8525041 55.22,19.7599951 55.22,20.75 Z M53.27,20.75 C53.27,20.0799967 53.1350013,19.4725027 52.865,18.9275 C52.5949986,18.3824973 52.2200024,17.9500016 51.74,17.63 C51.2599976,17.3099984 50.720003,17.15 50.12,17.15 C49.5099969,17.15 48.9675024,17.3074984 48.4925,17.6225 C48.0174976,17.9375016 47.6475013,18.3699973 47.3825,18.92 C47.1174987,19.4700027 46.985,20.0799967 46.985,20.75 C46.985,21.4200033 47.1174987,22.0299973 47.3825,22.58 C47.6475013,23.1300027 48.0174976,23.5624984 48.4925,23.8775 C48.9675024,24.1925016 49.5099969,24.35 50.12,24.35 C50.720003,24.35 51.2599976,24.1900016 51.74,23.87 C52.2200024,23.5499984 52.5949986,23.1175027 52.865,22.5725 C53.1350013,22.0274973 53.27,21.4200033 53.27,20.75 Z" id="LOGO" fill="#333333" fill-rule="nonzero"></path>
        <g id="Group" transform="translate(191.000000, 13.000000)">
            <path d="M7.43,3.6 C7.62200096,3.6 7.7779994,3.66399936 7.898,3.792 C8.0180006,3.92000064 8.078,4.07999904 8.078,4.272 L8.078,11.268 C8.078,11.476001 8.0080007,11.6499993 7.868,11.79 C7.7279993,11.9300007 7.55400104,12 7.346,12 C7.23399944,12 7.12400054,11.9820002 7.016,11.946 C6.90799946,11.9099998 6.83000024,11.8600003 6.782,11.796 L2.378,6.204 L2.378,11.328 C2.378,11.520001 2.31600062,11.6799994 2.192,11.808 C2.06799938,11.9360006 1.906001,12 1.706,12 C1.51399904,12 1.3580006,11.9360006 1.238,11.808 C1.1179994,11.6799994 1.058,11.520001 1.058,11.328 L1.058,4.332 C1.058,4.12399896 1.1279993,3.9500007 1.268,3.81 C1.4080007,3.6699993 1.58199896,3.6 1.79,3.6 C1.9100006,3.6 2.02799942,3.62399976 2.144,3.672 C2.26000058,3.72000024 2.34599972,3.7839996 2.402,3.864 L6.77,9.432 L6.77,4.272 C6.77,4.07999904 6.83199938,3.92000064 6.956,3.792 C7.08000062,3.66399936 7.23799904,3.6 7.43,3.6 Z M16.466,11.064 C16.5060002,11.1680005 16.526,11.2639996 16.526,11.352 C16.526,11.560001 16.4580007,11.7299993 16.322,11.862 C16.1859993,11.9940007 16.0300009,12.06 15.854,12.06 C15.7099993,12.06 15.5800006,12.0160004 15.464,11.928 C15.3479994,11.8399996 15.2580003,11.7200008 15.194,11.568 L14.57,10.116 L10.994,10.116 L10.37,11.58 C10.3139997,11.7320008 10.2280006,11.8499996 10.112,11.934 C9.99599942,12.0180004 9.87000068,12.06 9.734,12.06 C9.52599896,12.06 9.36800054,12.0040006 9.26,11.892 C9.15199946,11.7799994 9.098,11.628001 9.098,11.436 C9.098,11.3639996 9.10999988,11.2880004 9.134,11.208 L12.122,4.032 C12.1860003,3.8719992 12.2819994,3.74800044 12.41,3.66 C12.5380006,3.57199956 12.6819992,3.53599992 12.842,3.552 C12.9860007,3.552 13.1199994,3.59399958 13.244,3.678 C13.3680006,3.76200042 13.4579997,3.87999924 13.514,4.032 L16.466,11.064 Z M11.582,8.736 L13.982,8.736 L12.77,5.928 L11.582,8.736 Z M23.678,3.576 C23.878001,3.576 24.0519993,3.64399932 24.2,3.78 C24.3480007,3.91600068 24.422,4.07999904 24.422,4.272 C24.422,4.37600052 24.3980002,4.48399944 24.35,4.596 L21.386,11.532 C21.3139996,11.6840008 21.2140006,11.7999996 21.086,11.88 C20.9579994,11.9600004 20.8220007,12 20.678,12 C20.5419993,11.992 20.4160006,11.9500004 20.3,11.874 C20.1839994,11.7979996 20.0940003,11.6880007 20.03,11.544 L17.066,4.584 C17.0259998,4.5039996 17.006,4.4040006 17.006,4.284 C17.006,4.06799892 17.0859992,3.89400066 17.246,3.762 C17.4060008,3.62999934 17.5699992,3.564 17.738,3.564 C17.8740007,3.564 18.0019994,3.6039996 18.122,3.684 C18.2420006,3.7640004 18.3339997,3.87999924 18.398,4.032 L20.81,9.708 L23.018,4.032 C23.0820003,3.88799928 23.1739994,3.7760004 23.294,3.696 C23.4140006,3.6159996 23.5419993,3.576 23.678,3.576 Z M27.182,11.268 C27.182,11.476001 27.1060008,11.6499993 26.954,11.79 C26.8019992,11.9300007 26.626001,12 26.426,12 C26.2099989,12 26.0320007,11.9300007 25.892,11.79 C25.7519993,11.6499993 25.682,11.476001 25.682,11.268 L25.682,4.332 C25.682,4.12399896 25.7539993,3.9500007 25.898,3.81 C26.0420007,3.6699993 26.2259989,3.6 26.45,3.6 C26.650001,3.6 26.8219993,3.6699993 26.966,3.81 C27.1100007,3.9500007 27.182,4.12399896 27.182,4.332 L27.182,11.268 Z M35.174,7.464 C35.382001,7.464 35.5539993,7.5339993 35.69,7.674 C35.8260007,7.8140007 35.894,7.98799896 35.894,8.196 L35.894,10.74 C35.894,11.0200014 35.7700012,11.2359992 35.522,11.388 C34.7379961,11.8760024 33.8780047,12.12 32.942,12.12 C32.149996,12.12 31.4180034,11.9260019 30.746,11.538 C30.0739966,11.1499981 29.542002,10.6260033 29.15,9.966 C28.757998,9.3059967 28.562,8.58400392 28.562,7.8 C28.562,7.01599608 28.757998,6.2940033 29.15,5.634 C29.542002,4.9739967 30.0739966,4.45000194 30.746,4.062 C31.4180034,3.67399806 32.149996,3.48 32.942,3.48 C33.734004,3.48 34.4219971,3.6399984 35.006,3.96 C35.1260006,4.02400032 35.2159997,4.10799948 35.276,4.212 C35.3360003,4.31600052 35.366,4.4279994 35.366,4.548 C35.366,4.748001 35.3000007,4.92199926 35.168,5.07 C35.0359993,5.21800074 34.874001,5.292 34.682,5.292 C34.5619994,5.292 34.4300007,5.26000032 34.286,5.196 C33.8539978,5.01199908 33.4060023,4.92 32.942,4.92 C32.4299974,4.92 31.9580022,5.0499987 31.526,5.31 C31.0939978,5.5700013 30.7520013,5.9199978 30.5,6.36 C30.2479987,6.8000022 30.122,7.2799974 30.122,7.8 C30.122,8.3200026 30.2479987,8.7999978 30.5,9.24 C30.7520013,9.6800022 31.0939978,10.0299987 31.526,10.29 C31.9580022,10.5500013 32.4299974,10.68 32.942,10.68 C33.1660011,10.68 33.4059987,10.6600002 33.662,10.62 C33.9180013,10.5799998 34.141999,10.5280003 34.334,10.464 L34.334,8.904 L33.206,8.904 C32.997999,8.904 32.8240007,8.83600068 32.684,8.7 C32.5439993,8.56399932 32.474,8.39200104 32.474,8.184 C32.474,7.97599896 32.5439993,7.80400068 32.684,7.668 C32.8240007,7.53199932 32.997999,7.464 33.206,7.464 L35.174,7.464 Z M43.922,11.064 C43.9620002,11.1680005 43.982,11.2639996 43.982,11.352 C43.982,11.560001 43.9140007,11.7299993 43.778,11.862 C43.6419993,11.9940007 43.4860009,12.06 43.31,12.06 C43.1659993,12.06 43.0360006,12.0160004 42.92,11.928 C42.8039994,11.8399996 42.7140003,11.7200008 42.65,11.568 L42.026,10.116 L38.45,10.116 L37.826,11.58 C37.7699997,11.7320008 37.6840006,11.8499996 37.568,11.934 C37.4519994,12.0180004 37.3260007,12.06 37.19,12.06 C36.981999,12.06 36.8240005,12.0040006 36.716,11.892 C36.6079995,11.7799994 36.554,11.628001 36.554,11.436 C36.554,11.3639996 36.5659999,11.2880004 36.59,11.208 L39.578,4.032 C39.6420003,3.8719992 39.7379994,3.74800044 39.866,3.66 C39.9940006,3.57199956 40.1379992,3.53599992 40.298,3.552 C40.4420007,3.552 40.5759994,3.59399958 40.7,3.678 C40.8240006,3.76200042 40.9139997,3.87999924 40.97,4.032 L43.922,11.064 Z M39.038,8.736 L41.438,8.736 L40.226,5.928 L39.038,8.736 Z M50.522,3.6 C50.7380011,3.6 50.9139993,3.66399936 51.05,3.792 C51.1860007,3.92000064 51.254,4.08799896 51.254,4.296 C51.254,4.50400104 51.1860007,4.66999938 51.05,4.794 C50.9139993,4.91800062 50.7380011,4.98 50.522,4.98 L48.638,4.98 L48.638,11.268 C48.638,11.476001 48.5620008,11.6499993 48.41,11.79 C48.2579992,11.9300007 48.0700011,12 47.846,12 C47.6219989,12 47.4380007,11.9300007 47.294,11.79 C47.1499993,11.6499993 47.078,11.476001 47.078,11.268 L47.078,4.98 L45.194,4.98 C44.9779989,4.98 44.8020007,4.91600064 44.666,4.788 C44.5299993,4.65999936 44.462,4.49200104 44.462,4.284 C44.462,4.083999 44.5319993,3.92000064 44.672,3.792 C44.8120007,3.66399936 44.985999,3.6 45.194,3.6 L50.522,3.6 Z M54.014,11.268 C54.014,11.476001 53.9380008,11.6499993 53.786,11.79 C53.6339992,11.9300007 53.458001,12 53.258,12 C53.0419989,12 52.8640007,11.9300007 52.724,11.79 C52.5839993,11.6499993 52.514,11.476001 52.514,11.268 L52.514,4.332 C52.514,4.12399896 52.5859993,3.9500007 52.73,3.81 C52.8740007,3.6699993 53.0579989,3.6 53.282,3.6 C53.482001,3.6 53.6539993,3.6699993 53.798,3.81 C53.9420007,3.9500007 54.014,4.12399896 54.014,4.332 L54.014,11.268 Z M63.542,7.8 C63.542,8.59200396 63.3660018,9.3179967 63.014,9.978 C62.6619982,10.6380033 62.1760031,11.1599981 61.556,11.544 C60.9359969,11.9280019 60.2380039,12.12 59.462,12.12 C58.6859961,12.12 57.9880031,11.9280019 57.368,11.544 C56.7479969,11.1599981 56.2640017,10.6380033 55.916,9.978 C55.5679983,9.3179967 55.394,8.59200396 55.394,7.8 C55.394,7.00799604 55.5679983,6.2820033 55.916,5.622 C56.2640017,4.9619967 56.7479969,4.44000192 57.368,4.056 C57.9880031,3.67199808 58.6859961,3.48 59.462,3.48 C60.2380039,3.48 60.9359969,3.67199808 61.556,4.056 C62.1760031,4.44000192 62.6619982,4.9619967 63.014,5.622 C63.3660018,6.2820033 63.542,7.00799604 63.542,7.8 Z M61.982,7.8 C61.982,7.26399732 61.8740011,6.77800218 61.658,6.342 C61.4419989,5.90599782 61.1420019,5.56000128 60.758,5.304 C60.3739981,5.04799872 59.9420024,4.92 59.462,4.92 C58.9739976,4.92 58.5400019,5.04599874 58.16,5.298 C57.7799981,5.55000126 57.4840011,5.8959978 57.272,6.336 C57.0599989,6.7760022 56.954,7.26399732 56.954,7.8 C56.954,8.33600268 57.0599989,8.8239978 57.272,9.264 C57.4840011,9.7040022 57.7799981,10.0499987 58.16,10.302 C58.5400019,10.5540013 58.9739976,10.68 59.462,10.68 C59.9420024,10.68 60.3739981,10.5520013 60.758,10.296 C61.1420019,10.0399987 61.4419989,9.69400218 61.658,9.258 C61.8740011,8.82199782 61.982,8.33600268 61.982,7.8 Z M71.294,3.6 C71.486001,3.6 71.6419994,3.66399936 71.762,3.792 C71.8820006,3.92000064 71.942,4.07999904 71.942,4.272 L71.942,11.268 C71.942,11.476001 71.8720007,11.6499993 71.732,11.79 C71.5919993,11.9300007 71.418001,12 71.21,12 C71.0979994,12 70.9880005,11.9820002 70.88,11.946 C70.7719995,11.9099998 70.6940002,11.8600003 70.646,11.796 L66.242,6.204 L66.242,11.328 C66.242,11.520001 66.1800006,11.6799994 66.056,11.808 C65.9319994,11.9360006 65.770001,12 65.57,12 C65.377999,12 65.2220006,11.9360006 65.102,11.808 C64.9819994,11.6799994 64.922,11.520001 64.922,11.328 L64.922,4.332 C64.922,4.12399896 64.9919993,3.9500007 65.132,3.81 C65.2720007,3.6699993 65.445999,3.6 65.654,3.6 C65.7740006,3.6 65.8919994,3.62399976 66.008,3.672 C66.1240006,3.72000024 66.2099997,3.7839996 66.266,3.864 L70.634,9.432 L70.634,4.272 C70.634,4.07999904 70.6959994,3.92000064 70.82,3.792 C70.9440006,3.66399936 71.101999,3.6 71.294,3.6 Z" id="NAVIGATION" fill="#333333" fill-rule="nonzero"></path>
            <path d="M103.514286,4.5 L103,4.5 L103,3 L103.514286,3 L114.485714,3 L115,3 L115,4.5 L114.485714,4.5 L103.514286,4.5 Z M103.314286,7.97826087 L103,7.97826087 L103,6.47826087 L103.314286,6.47826087 L110.019048,6.47826087 L110.333333,6.47826087 L110.333333,7.97826087 L110.019048,7.97826087 L103.314286,7.97826087 Z M103.514286,11.4565217 L103,11.4565217 L103,9.95652174 L103.514286,9.95652174 L114.485714,9.95652174 L115,9.95652174 L115,11.4565217 L114.485714,11.4565217 L103.514286,11.4565217 Z" id="Combined-Shape" fill="#424851"></path>
            <g id="Orion_search" transform="translate(82.000000, 1.000000)" fill="#202020" fill-rule="nonzero">
                <path d="M7.90933787,7.05859471 C9.30449047,5.22352937 9.03925162,2.60933943 7.29521707,1.08613695 C5.55118253,-0.437065537 2.9250947,-0.3480985 1.28814583,1.2896455 C-0.348803033,2.9273895 -0.436511177,5.55353663 1.08751695,7.29685241 C2.61154507,9.04016818 5.2258449,9.30415611 7.06762361,7.90071428 L10.9758968,11.8242077 C11.2100965,12.0585193 11.5898987,12.0586088 11.8242088,11.8244076 C12.0585189,11.5902065 12.0586085,11.2104018 11.8244088,10.9760902 L7.90933787,7.05859471 Z M4.40252834,7.60161388 C2.63581689,7.60161388 1.20361429,6.16940201 1.20361429,4.40267914 C1.20361429,2.63595627 2.63581689,1.20374441 4.40252834,1.20374441 C6.16923978,1.20374441 7.60144239,2.63595627 7.60144239,4.40267914 C7.6012216,6.16931055 6.16914832,7.60139309 4.40252834,7.60161388 Z" id="Shape"></path>
            </g>
        </g>
    </g>
</svg>