<?xml version="1.0" encoding="UTF-8"?>
<svg width="154px" height="94px" viewBox="0 0 154 94" version="1.1" xmlns="http://www.w3.org/2000/svg" xmlns:xlink="http://www.w3.org/1999/xlink">
    <!-- Generator: Sketch 53 (72520) - https://sketchapp.com -->
    <title>header_orientation_content</title>
    <desc>Created with Sketch.</desc>
    <g id="header_orientation_content" stroke="none" stroke-width="1" fill="none" fill-rule="evenodd">
        <rect fill="#FFFFFF" x="0" y="0" width="154" height="94"></rect>
        <g id="Group-3" transform="translate(27.000000, 4.000000)">
            <g id="Group-2" transform="translate(1.000000, 17.000000)">
                <rect id="Rectangle" fill="#F0F0F0" x="0" y="0" width="64" height="38"></rect>
                <rect id="Rectangle" fill="#F0F0F0" x="71" y="0" width="28" height="28"></rect>
                <rect id="Rectangle" fill="#F0F0F0" x="71" y="34" width="28" height="28"></rect>
                <g id="Group" transform="translate(12.000000, 44.000000)" stroke="#D6D6D6" stroke-linecap="square" stroke-width="2">
                    <path d="M0,1 L40,1" id="Line"></path>
                    <path d="M0,6 L40,6" id="Line"></path>
                    <path d="M0,11 L40,11" id="Line"></path>
                    <path d="M0,16 L23.7037037,16" id="Line"></path>
                </g>
            </g>
            <path d="M4.157,7.947 C4.31300078,7.947 4.44349948,7.99649951 4.5485,8.0955 C4.65350053,8.19450049 4.706,8.32199922 4.706,8.478 C4.706,8.62800075 4.65350053,8.7524995 4.5485,8.8515 C4.44349948,8.9505005 4.31300078,9 4.157,9 L1.232,9 C1.07599922,9 0.945500525,8.94750052 0.8405,8.8425 C0.735499475,8.73749947 0.683,8.60700078 0.683,8.451 L0.683,3.249 C0.683,3.09299922 0.73699946,2.96250052 0.845,2.8575 C0.95300054,2.75249947 1.09099916,2.7 1.259,2.7 C1.40900075,2.7 1.53799946,2.75249947 1.646,2.8575 C1.75400054,2.96250052 1.808,3.09299922 1.808,3.249 L1.808,7.947 L4.157,7.947 Z M11.537,5.85 C11.537,6.44400297 11.4050013,6.98849752 11.141,7.4835 C10.8769987,7.97850247 10.5125023,8.36999856 10.0475,8.658 C9.58249767,8.94600144 9.05900291,9.09 8.477,9.09 C7.89499709,9.09 7.37150232,8.94600144 6.9065,8.658 C6.44149767,8.36999856 6.0785013,7.97850247 5.8175,7.4835 C5.55649869,6.98849752 5.426,6.44400297 5.426,5.85 C5.426,5.25599703 5.55649869,4.71150247 5.8175,4.2165 C6.0785013,3.72149752 6.44149767,3.33000144 6.9065,3.042 C7.37150232,2.75399856 7.89499709,2.61 8.477,2.61 C9.05900291,2.61 9.58249767,2.75399856 10.0475,3.042 C10.5125023,3.33000144 10.8769987,3.72149752 11.141,4.2165 C11.4050013,4.71150247 11.537,5.25599703 11.537,5.85 Z M10.367,5.85 C10.367,5.44799799 10.2860008,5.08350163 10.124,4.7565 C9.96199919,4.42949836 9.73700144,4.17000096 9.449,3.978 C9.16099856,3.78599904 8.8370018,3.69 8.477,3.69 C8.11099817,3.69 7.78550142,3.78449905 7.5005,3.9735 C7.21549857,4.16250094 6.9935008,4.42199835 6.8345,4.752 C6.6754992,5.08200165 6.596,5.44799799 6.596,5.85 C6.596,6.25200201 6.6754992,6.61799835 6.8345,6.948 C6.9935008,7.27800165 7.21549857,7.53749905 7.5005,7.7265 C7.78550142,7.91550094 8.11099817,8.01 8.477,8.01 C8.8370018,8.01 9.16099856,7.91400096 9.449,7.722 C9.73700144,7.52999904 9.96199919,7.27050164 10.124,6.9435 C10.2860008,6.61649836 10.367,6.25200201 10.367,5.85 Z M17.216,5.598 C17.3720008,5.598 17.5009995,5.65049947 17.603,5.7555 C17.7050005,5.86050052 17.756,5.99099922 17.756,6.147 L17.756,8.055 C17.756,8.26500105 17.6630009,8.42699943 17.477,8.541 C16.8889971,8.90700183 16.2440035,9.09 15.542,9.09 C14.947997,9.09 14.3990025,8.94450146 13.895,8.6535 C13.3909975,8.36249854 12.9920015,7.96950247 12.698,7.4745 C12.4039985,6.97949752 12.257,6.43800294 12.257,5.85 C12.257,5.26199706 12.4039985,4.72050247 12.698,4.2255 C12.9920015,3.73049752 13.3909975,3.33750145 13.895,3.0465 C14.3990025,2.75549854 14.947997,2.61 15.542,2.61 C16.136003,2.61 16.6519978,2.7299988 17.09,2.97 C17.1800005,3.01800024 17.2474998,3.08099961 17.2925,3.159 C17.3375002,3.23700039 17.36,3.32099955 17.36,3.411 C17.36,3.56100075 17.3105005,3.69149944 17.2115,3.8025 C17.1124995,3.91350055 16.9910007,3.969 16.847,3.969 C16.7569995,3.969 16.6580005,3.94500024 16.55,3.897 C16.2259984,3.75899931 15.8900017,3.69 15.542,3.69 C15.1579981,3.69 14.8040016,3.78749902 14.48,3.9825 C14.1559984,4.17750097 13.8995009,4.43999835 13.7105,4.77 C13.5214991,5.10000165 13.427,5.45999805 13.427,5.85 C13.427,6.24000195 13.5214991,6.59999835 13.7105,6.93 C13.8995009,7.26000165 14.1559984,7.52249903 14.48,7.7175 C14.8040016,7.91250098 15.1579981,8.01 15.542,8.01 C15.7100008,8.01 15.889999,7.99500015 16.082,7.965 C16.274001,7.93499985 16.4419993,7.89600024 16.586,7.848 L16.586,6.678 L15.74,6.678 C15.5839992,6.678 15.4535005,6.62700051 15.3485,6.525 C15.2434995,6.42299949 15.191,6.29400078 15.191,6.138 C15.191,5.98199922 15.2434995,5.85300051 15.3485,5.751 C15.4535005,5.64899949 15.5839992,5.598 15.74,5.598 L17.216,5.598 Z M24.632,5.85 C24.632,6.44400297 24.5000013,6.98849752 24.236,7.4835 C23.9719987,7.97850247 23.6075023,8.36999856 23.1425,8.658 C22.6774977,8.94600144 22.1540029,9.09 21.572,9.09 C20.9899971,9.09 20.4665023,8.94600144 20.0015,8.658 C19.5364977,8.36999856 19.1735013,7.97850247 18.9125,7.4835 C18.6514987,6.98849752 18.521,6.44400297 18.521,5.85 C18.521,5.25599703 18.6514987,4.71150247 18.9125,4.2165 C19.1735013,3.72149752 19.5364977,3.33000144 20.0015,3.042 C20.4665023,2.75399856 20.9899971,2.61 21.572,2.61 C22.1540029,2.61 22.6774977,2.75399856 23.1425,3.042 C23.6075023,3.33000144 23.9719987,3.72149752 24.236,4.2165 C24.5000013,4.71150247 24.632,5.25599703 24.632,5.85 Z M23.462,5.85 C23.462,5.44799799 23.3810008,5.08350163 23.219,4.7565 C23.0569992,4.42949836 22.8320014,4.17000096 22.544,3.978 C22.2559986,3.78599904 21.9320018,3.69 21.572,3.69 C21.2059982,3.69 20.8805014,3.78449905 20.5955,3.9735 C20.3104986,4.16250094 20.0885008,4.42199835 19.9295,4.752 C19.7704992,5.08200165 19.691,5.44799799 19.691,5.85 C19.691,6.25200201 19.7704992,6.61799835 19.9295,6.948 C20.0885008,7.27800165 20.3104986,7.53749905 20.5955,7.7265 C20.8805014,7.91550094 21.2059982,8.01 21.572,8.01 C21.9320018,8.01 22.2559986,7.91400096 22.544,7.722 C22.8320014,7.52999904 23.0569992,7.27050164 23.219,6.9435 C23.3810008,6.61649836 23.462,6.25200201 23.462,5.85 Z" id="LOGO" fill="#333333" fill-rule="nonzero"></path>
            <path d="M43.12,3.4 C43.2480006,3.4 43.3519996,3.44266624 43.432,3.528 C43.5120004,3.61333376 43.552,3.71999936 43.552,3.848 L43.552,8.512 C43.552,8.65066736 43.5053338,8.7666662 43.412,8.86 C43.3186662,8.9533338 43.2026674,9 43.064,9 C42.989333,9 42.9160004,8.98800012 42.844,8.964 C42.7719996,8.93999988 42.7200002,8.90666688 42.688,8.864 L39.752,5.136 L39.752,8.552 C39.752,8.68000064 39.7106671,8.78666624 39.628,8.872 C39.5453329,8.95733376 39.437334,9 39.304,9 C39.1759994,9 39.0720004,8.95733376 38.992,8.872 C38.9119996,8.78666624 38.872,8.68000064 38.872,8.552 L38.872,3.888 C38.872,3.74933264 38.9186662,3.6333338 39.012,3.54 C39.1053338,3.4466662 39.2213326,3.4 39.36,3.4 C39.4400004,3.4 39.5186663,3.41599984 39.596,3.448 C39.6733337,3.48000016 39.7306665,3.5226664 39.768,3.576 L42.68,7.288 L42.68,3.848 C42.68,3.71999936 42.7213329,3.61333376 42.804,3.528 C42.8866671,3.44266624 42.9919994,3.4 43.12,3.4 Z M49.144,8.376 C49.1706668,8.44533368 49.184,8.50933304 49.184,8.568 C49.184,8.70666736 49.1386671,8.81999956 49.048,8.908 C48.9573329,8.99600044 48.8533339,9.04 48.736,9.04 C48.6399995,9.04 48.5533337,9.01066696 48.476,8.952 C48.3986663,8.89333304 48.3386669,8.81333384 48.296,8.712 L47.88,7.744 L45.496,7.744 L45.08,8.72 C45.0426665,8.82133384 44.9853337,8.89999972 44.908,8.956 C44.8306663,9.01200028 44.7466671,9.04 44.656,9.04 C44.5173326,9.04 44.4120004,9.00266704 44.34,8.928 C44.2679996,8.85333296 44.232,8.75200064 44.232,8.624 C44.232,8.57599976 44.2399999,8.5253336 44.256,8.472 L46.248,3.688 C46.2906669,3.5813328 46.3546662,3.49866696 46.44,3.44 C46.5253338,3.38133304 46.6213328,3.35733328 46.728,3.368 C46.8240005,3.368 46.9133329,3.39599972 46.996,3.452 C47.0786671,3.50800028 47.1386665,3.58666616 47.176,3.688 L49.144,8.376 Z M45.888,6.824 L47.488,6.824 L46.68,4.952 L45.888,6.824 Z M53.952,3.384 C54.085334,3.384 54.2013328,3.42933288 54.3,3.52 C54.3986672,3.61066712 54.448,3.71999936 54.448,3.848 C54.448,3.91733368 54.4320002,3.98933296 54.4,4.064 L52.424,8.688 C52.3759998,8.78933384 52.3093338,8.8666664 52.224,8.92 C52.1386662,8.9733336 52.0480005,9 51.952,9 C51.8613329,8.99466664 51.7773337,8.96666692 51.7,8.916 C51.6226663,8.86533308 51.5626669,8.79200048 51.52,8.696 L49.544,4.056 C49.5173332,4.0026664 49.504,3.9360004 49.504,3.856 C49.504,3.71199928 49.5573328,3.59600044 49.664,3.508 C49.7706672,3.41999956 49.8799994,3.376 49.992,3.376 C50.0826671,3.376 50.1679996,3.4026664 50.248,3.456 C50.3280004,3.5093336 50.3893331,3.58666616 50.432,3.688 L52.04,7.472 L53.512,3.688 C53.5546669,3.59199952 53.6159996,3.5173336 53.696,3.464 C53.7760004,3.4106664 53.8613329,3.384 53.952,3.384 Z M56.288,8.512 C56.288,8.65066736 56.2373338,8.7666662 56.136,8.86 C56.0346662,8.9533338 55.917334,9 55.784,9 C55.6399993,9 55.5213338,8.9533338 55.428,8.86 C55.3346662,8.7666662 55.288,8.65066736 55.288,8.512 L55.288,3.888 C55.288,3.74933264 55.3359995,3.6333338 55.432,3.54 C55.5280005,3.4466662 55.6506659,3.4 55.8,3.4 C55.933334,3.4 56.0479995,3.4466662 56.144,3.54 C56.2400005,3.6333338 56.288,3.74933264 56.288,3.888 L56.288,8.512 Z M61.616,5.976 C61.7546674,5.976 61.8693329,6.0226662 61.96,6.116 C62.0506671,6.2093338 62.096,6.32533264 62.096,6.464 L62.096,8.16 C62.096,8.3466676 62.0133342,8.49066616 61.848,8.592 C61.3253307,8.91733496 60.7520031,9.08 60.128,9.08 C59.5999974,9.08 59.1120022,8.95066796 58.664,8.692 C58.2159978,8.43333204 57.8613346,8.0840022 57.6,7.644 C57.3386654,7.2039978 57.208,6.72266928 57.208,6.2 C57.208,5.67733072 57.3386654,5.1960022 57.6,4.756 C57.8613346,4.3159978 58.2159978,3.96666796 58.664,3.708 C59.1120022,3.44933204 59.5999974,3.32 60.128,3.32 C60.6560026,3.32 61.1146647,3.4266656 61.504,3.64 C61.5840004,3.68266688 61.6439998,3.73866632 61.684,3.808 C61.7240002,3.87733368 61.744,3.9519996 61.744,4.032 C61.744,4.165334 61.7000004,4.28133284 61.612,4.38 C61.5239996,4.47866716 61.4160006,4.528 61.288,4.528 C61.2079996,4.528 61.1200005,4.50666688 61.024,4.464 C60.7359986,4.34133272 60.4373349,4.28 60.128,4.28 C59.786665,4.28 59.4720014,4.3666658 59.184,4.54 C58.8959986,4.7133342 58.6680008,4.9466652 58.5,5.24 C58.3319992,5.5333348 58.248,5.8533316 58.248,6.2 C58.248,6.5466684 58.3319992,6.8666652 58.5,7.16 C58.6680008,7.4533348 58.8959986,7.6866658 59.184,7.86 C59.4720014,8.0333342 59.786665,8.12 60.128,8.12 C60.2773341,8.12 60.4373325,8.1066668 60.608,8.08 C60.7786675,8.0533332 60.9279994,8.01866688 61.056,7.976 L61.056,6.936 L60.304,6.936 C60.1653326,6.936 60.0493338,6.89066712 59.956,6.8 C59.8626662,6.70933288 59.816,6.59466736 59.816,6.456 C59.816,6.31733264 59.8626662,6.20266712 59.956,6.112 C60.0493338,6.02133288 60.1653326,5.976 60.304,5.976 L61.616,5.976 Z M67.448,8.376 C67.4746668,8.44533368 67.488,8.50933304 67.488,8.568 C67.488,8.70666736 67.4426671,8.81999956 67.352,8.908 C67.2613329,8.99600044 67.1573339,9.04 67.04,9.04 C66.9439995,9.04 66.8573337,9.01066696 66.78,8.952 C66.7026663,8.89333304 66.6426669,8.81333384 66.6,8.712 L66.184,7.744 L63.8,7.744 L63.384,8.72 C63.3466665,8.82133384 63.2893337,8.89999972 63.212,8.956 C63.1346663,9.01200028 63.0506671,9.04 62.96,9.04 C62.8213326,9.04 62.7160004,9.00266704 62.644,8.928 C62.5719996,8.85333296 62.536,8.75200064 62.536,8.624 C62.536,8.57599976 62.5439999,8.5253336 62.56,8.472 L64.552,3.688 C64.5946669,3.5813328 64.6586662,3.49866696 64.744,3.44 C64.8293338,3.38133304 64.9253328,3.35733328 65.032,3.368 C65.1280005,3.368 65.2173329,3.39599972 65.3,3.452 C65.3826671,3.50800028 65.4426665,3.58666616 65.48,3.688 L67.448,8.376 Z M64.192,6.824 L65.792,6.824 L64.984,4.952 L64.192,6.824 Z M71.848,3.4 C71.9920007,3.4 72.1093329,3.44266624 72.2,3.528 C72.2906671,3.61333376 72.336,3.72533264 72.336,3.864 C72.336,4.00266736 72.2906671,4.11333292 72.2,4.196 C72.1093329,4.27866708 71.9920007,4.32 71.848,4.32 L70.592,4.32 L70.592,8.512 C70.592,8.65066736 70.5413338,8.7666662 70.44,8.86 C70.3386662,8.9533338 70.2133341,9 70.064,9 C69.9146659,9 69.7920005,8.9533338 69.696,8.86 C69.5999995,8.7666662 69.552,8.65066736 69.552,8.512 L69.552,4.32 L68.296,4.32 C68.1519993,4.32 68.0346671,4.27733376 67.944,4.192 C67.8533329,4.10666624 67.808,3.99466736 67.808,3.856 C67.808,3.722666 67.8546662,3.61333376 67.948,3.528 C68.0413338,3.44266624 68.1573326,3.4 68.296,3.4 L71.848,3.4 Z M74.176,8.512 C74.176,8.65066736 74.1253338,8.7666662 74.024,8.86 C73.9226662,8.9533338 73.805334,9 73.672,9 C73.5279993,9 73.4093338,8.9533338 73.316,8.86 C73.2226662,8.7666662 73.176,8.65066736 73.176,8.512 L73.176,3.888 C73.176,3.74933264 73.2239995,3.6333338 73.32,3.54 C73.4160005,3.4466662 73.5386659,3.4 73.688,3.4 C73.821334,3.4 73.9359995,3.4466662 74.032,3.54 C74.1280005,3.6333338 74.176,3.74933264 74.176,3.888 L74.176,8.512 Z M80.528,6.2 C80.528,6.72800264 80.4106678,7.2119978 80.176,7.652 C79.9413322,8.0920022 79.6173354,8.43999872 79.204,8.696 C78.7906646,8.95200128 78.3253359,9.08 77.808,9.08 C77.2906641,9.08 76.8253354,8.95200128 76.412,8.696 C75.9986646,8.43999872 75.6760012,8.0920022 75.444,7.652 C75.2119988,7.2119978 75.096,6.72800264 75.096,6.2 C75.096,5.67199736 75.2119988,5.1880022 75.444,4.748 C75.6760012,4.3079978 75.9986646,3.96000128 76.412,3.704 C76.8253354,3.44799872 77.2906641,3.32 77.808,3.32 C78.3253359,3.32 78.7906646,3.44799872 79.204,3.704 C79.6173354,3.96000128 79.9413322,4.3079978 80.176,4.748 C80.4106678,5.1880022 80.528,5.67199736 80.528,6.2 Z M79.488,6.2 C79.488,5.84266488 79.4160007,5.51866812 79.272,5.228 C79.1279993,4.93733188 78.9280013,4.70666752 78.672,4.536 C78.4159987,4.36533248 78.1280016,4.28 77.808,4.28 C77.482665,4.28 77.1933346,4.36399916 76.94,4.532 C76.6866654,4.70000084 76.489334,4.9306652 76.348,5.224 C76.206666,5.5173348 76.136,5.84266488 76.136,6.2 C76.136,6.55733512 76.206666,6.8826652 76.348,7.176 C76.489334,7.4693348 76.6866654,7.69999916 76.94,7.868 C77.1933346,8.03600084 77.482665,8.12 77.808,8.12 C78.1280016,8.12 78.4159987,8.03466752 78.672,7.864 C78.9280013,7.69333248 79.1279993,7.46266812 79.272,7.172 C79.4160007,6.88133188 79.488,6.55733512 79.488,6.2 Z M85.696,3.4 C85.8240006,3.4 85.9279996,3.44266624 86.008,3.528 C86.0880004,3.61333376 86.128,3.71999936 86.128,3.848 L86.128,8.512 C86.128,8.65066736 86.0813338,8.7666662 85.988,8.86 C85.8946662,8.9533338 85.7786674,9 85.64,9 C85.565333,9 85.4920004,8.98800012 85.42,8.964 C85.3479996,8.93999988 85.2960002,8.90666688 85.264,8.864 L82.328,5.136 L82.328,8.552 C82.328,8.68000064 82.2866671,8.78666624 82.204,8.872 C82.1213329,8.95733376 82.013334,9 81.88,9 C81.7519994,9 81.6480004,8.95733376 81.568,8.872 C81.4879996,8.78666624 81.448,8.68000064 81.448,8.552 L81.448,3.888 C81.448,3.74933264 81.4946662,3.6333338 81.588,3.54 C81.6813338,3.4466662 81.7973326,3.4 81.936,3.4 C82.0160004,3.4 82.0946663,3.41599984 82.172,3.448 C82.2493337,3.48000016 82.3066665,3.5226664 82.344,3.576 L85.256,7.288 L85.256,3.848 C85.256,3.71999936 85.2973329,3.61333376 85.38,3.528 C85.4626671,3.44266624 85.5679994,3.4 85.696,3.4 Z" id="NAVIGATION" fill="#333333" fill-rule="nonzero"></path>
            <g id="Orion_search" transform="translate(92.000000, 2.000000)" fill="#202020" fill-rule="nonzero">
                <path d="M5.27289191,4.7057298 C6.20299365,3.48235291 6.02616775,1.73955962 4.86347805,0.724091298 C3.70078835,-0.291377025 1.95006313,-0.232065667 0.858763888,0.859763665 C-0.232535355,1.951593 -0.291007451,3.70235776 0.725011299,4.86456827 C1.74103005,6.02677879 3.4838966,6.20277074 4.71174907,5.26714285 L7.31726456,7.88280515 C7.47339769,8.03901289 7.72659917,8.03907256 7.8828059,7.88293843 C8.03901263,7.7268043 8.03907231,7.47360119 7.8829392,7.31739344 L5.27289191,4.7057298 Z M2.93501889,5.06774259 C1.75721126,5.06774259 0.802409525,4.11293468 0.802409525,2.93511943 C0.802409525,1.75730418 1.75721126,0.802496271 2.93501889,0.802496271 C4.11282652,0.802496271 5.06762826,1.75730418 5.06762826,2.93511943 C5.06748107,4.1128737 4.11276555,5.06759539 2.93501889,5.06774259 Z" id="Shape"></path>
            </g>
        </g>
    </g>
</svg>