<?xml version="1.0" encoding="UTF-8"?>
<svg width="320px" height="40px" viewBox="0 0 320 40" version="1.1" xmlns="http://www.w3.org/2000/svg" xmlns:xlink="http://www.w3.org/1999/xlink">
    <!-- Generator: Sketch 53 (72520) - https://sketchapp.com -->
    <title>header_layout_4</title>
    <desc>Created with Sketch.</desc>
    <g id="header_layout_4" stroke="none" stroke-width="1" fill="none" fill-rule="evenodd">
        <rect fill="#FFFFFF" x="0" y="0" width="320" height="40"></rect>
        <path d="M146.095,24.245 C146.355001,24.245 146.572499,24.3274992 146.7475,24.4925 C146.922501,24.6575008 147.01,24.8699987 147.01,25.13 C147.01,25.3800012 146.922501,25.5874992 146.7475,25.7525 C146.572499,25.9175008 146.355001,26 146.095,26 L141.22,26 C140.959999,26 140.742501,25.9125009 140.5675,25.7375 C140.392499,25.5624991 140.305,25.3450013 140.305,25.085 L140.305,16.415 C140.305,16.1549987 140.394999,15.9375009 140.575,15.7625 C140.755001,15.5874991 140.984999,15.5 141.265,15.5 C141.515001,15.5 141.729999,15.5874991 141.91,15.7625 C142.090001,15.9375009 142.18,16.1549987 142.18,16.415 L142.18,24.245 L146.095,24.245 Z M158.395,20.75 C158.395,21.7400049 158.175002,22.6474959 157.735,23.4725 C157.294998,24.2975041 156.687504,24.9499976 155.9125,25.43 C155.137496,25.9100024 154.265005,26.15 153.295,26.15 C152.324995,26.15 151.452504,25.9100024 150.6775,25.43 C149.902496,24.9499976 149.297502,24.2975041 148.8625,23.4725 C148.427498,22.6474959 148.21,21.7400049 148.21,20.75 C148.21,19.7599951 148.427498,18.8525041 148.8625,18.0275 C149.297502,17.2024959 149.902496,16.5500024 150.6775,16.07 C151.452504,15.5899976 152.324995,15.35 153.295,15.35 C154.265005,15.35 155.137496,15.5899976 155.9125,16.07 C156.687504,16.5500024 157.294998,17.2024959 157.735,18.0275 C158.175002,18.8525041 158.395,19.7599951 158.395,20.75 Z M156.445,20.75 C156.445,20.0799967 156.310001,19.4725027 156.04,18.9275 C155.769999,18.3824973 155.395002,17.9500016 154.915,17.63 C154.434998,17.3099984 153.895003,17.15 153.295,17.15 C152.684997,17.15 152.142502,17.3074984 151.6675,17.6225 C151.192498,17.9375016 150.822501,18.3699973 150.5575,18.92 C150.292499,19.4700027 150.16,20.0799967 150.16,20.75 C150.16,21.4200033 150.292499,22.0299973 150.5575,22.58 C150.822501,23.1300027 151.192498,23.5624984 151.6675,23.8775 C152.142502,24.1925016 152.684997,24.35 153.295,24.35 C153.895003,24.35 154.434998,24.1900016 154.915,23.87 C155.395002,23.5499984 155.769999,23.1175027 156.04,22.5725 C156.310001,22.0274973 156.445,21.4200033 156.445,20.75 Z M167.86,20.33 C168.120001,20.33 168.334999,20.4174991 168.505,20.5925 C168.675001,20.7675009 168.76,20.9849987 168.76,21.245 L168.76,24.425 C168.76,24.7750018 168.605002,25.0449991 168.295,25.235 C167.314995,25.8450031 166.240006,26.15 165.07,26.15 C164.079995,26.15 163.165004,25.9075024 162.325,25.4225 C161.484996,24.9374976 160.820002,24.2825041 160.33,23.4575 C159.839998,22.6324959 159.595,21.7300049 159.595,20.75 C159.595,19.7699951 159.839998,18.8675041 160.33,18.0425 C160.820002,17.2174959 161.484996,16.5625024 162.325,16.0775 C163.165004,15.5924976 164.079995,15.35 165.07,15.35 C166.060005,15.35 166.919996,15.549998 167.65,15.95 C167.800001,16.0300004 167.9125,16.1349994 167.9875,16.265 C168.0625,16.3950007 168.1,16.5349992 168.1,16.685 C168.1,16.9350012 168.017501,17.1524991 167.8525,17.3375 C167.687499,17.5225009 167.485001,17.615 167.245,17.615 C167.094999,17.615 166.930001,17.5750004 166.75,17.495 C166.209997,17.2649989 165.650003,17.15 165.07,17.15 C164.429997,17.15 163.840003,17.3124984 163.3,17.6375 C162.759997,17.9625016 162.332502,18.3999972 162.0175,18.95 C161.702498,19.5000028 161.545,20.0999967 161.545,20.75 C161.545,21.4000033 161.702498,21.9999972 162.0175,22.55 C162.332502,23.1000028 162.759997,23.5374984 163.3,23.8625 C163.840003,24.1875016 164.429997,24.35 165.07,24.35 C165.350001,24.35 165.649998,24.3250002 165.97,24.275 C166.290002,24.2249998 166.569999,24.1600004 166.81,24.08 L166.81,22.13 L165.4,22.13 C165.139999,22.13 164.922501,22.0450009 164.7475,21.875 C164.572499,21.7049991 164.485,21.4900013 164.485,21.23 C164.485,20.9699987 164.572499,20.7550009 164.7475,20.585 C164.922501,20.4149991 165.139999,20.33 165.4,20.33 L167.86,20.33 Z M180.22,20.75 C180.22,21.7400049 180.000002,22.6474959 179.56,23.4725 C179.119998,24.2975041 178.512504,24.9499976 177.7375,25.43 C176.962496,25.9100024 176.090005,26.15 175.12,26.15 C174.149995,26.15 173.277504,25.9100024 172.5025,25.43 C171.727496,24.9499976 171.122502,24.2975041 170.6875,23.4725 C170.252498,22.6474959 170.035,21.7400049 170.035,20.75 C170.035,19.7599951 170.252498,18.8525041 170.6875,18.0275 C171.122502,17.2024959 171.727496,16.5500024 172.5025,16.07 C173.277504,15.5899976 174.149995,15.35 175.12,15.35 C176.090005,15.35 176.962496,15.5899976 177.7375,16.07 C178.512504,16.5500024 179.119998,17.2024959 179.56,18.0275 C180.000002,18.8525041 180.22,19.7599951 180.22,20.75 Z M178.27,20.75 C178.27,20.0799967 178.135001,19.4725027 177.865,18.9275 C177.594999,18.3824973 177.220002,17.9500016 176.74,17.63 C176.259998,17.3099984 175.720003,17.15 175.12,17.15 C174.509997,17.15 173.967502,17.3074984 173.4925,17.6225 C173.017498,17.9375016 172.647501,18.3699973 172.3825,18.92 C172.117499,19.4700027 171.985,20.0799967 171.985,20.75 C171.985,21.4200033 172.117499,22.0299973 172.3825,22.58 C172.647501,23.1300027 173.017498,23.5624984 173.4925,23.8775 C173.967502,24.1925016 174.509997,24.35 175.12,24.35 C175.720003,24.35 176.259998,24.1900016 176.74,23.87 C177.220002,23.5499984 177.594999,23.1175027 177.865,22.5725 C178.135001,22.0274973 178.27,21.4200033 178.27,20.75 Z" id="LOGO" fill="#333333" fill-rule="nonzero"></path>
        <path d="M294.514286,17.5 L294,17.5 L294,16 L294.514286,16 L305.485714,16 L306,16 L306,17.5 L305.485714,17.5 L294.514286,17.5 Z M294.314286,20.9782609 L294,20.9782609 L294,19.4782609 L294.314286,19.4782609 L301.019048,19.4782609 L301.333333,19.4782609 L301.333333,20.9782609 L301.019048,20.9782609 L294.314286,20.9782609 Z M294.514286,24.4565217 L294,24.4565217 L294,22.9565217 L294.514286,22.9565217 L305.485714,22.9565217 L306,22.9565217 L306,24.4565217 L305.485714,24.4565217 L294.514286,24.4565217 Z" id="Combined-Shape" fill="#424851"></path>
        <g id="Orion_search" transform="translate(15.000000, 14.000000)" fill="#202020" fill-rule="nonzero">
            <path d="M7.90933787,7.05859471 C9.30449047,5.22352937 9.03925162,2.60933943 7.29521707,1.08613695 C5.55118253,-0.437065537 2.9250947,-0.3480985 1.28814583,1.2896455 C-0.348803033,2.9273895 -0.436511177,5.55353663 1.08751695,7.29685241 C2.61154507,9.04016818 5.2258449,9.30415611 7.06762361,7.90071428 L10.9758968,11.8242077 C11.2100965,12.0585193 11.5898987,12.0586088 11.8242088,11.8244076 C12.0585189,11.5902065 12.0586085,11.2104018 11.8244088,10.9760902 L7.90933787,7.05859471 Z M4.40252834,7.60161388 C2.63581689,7.60161388 1.20361429,6.16940201 1.20361429,4.40267914 C1.20361429,2.63595627 2.63581689,1.20374441 4.40252834,1.20374441 C6.16923978,1.20374441 7.60144239,2.63595627 7.60144239,4.40267914 C7.6012216,6.16931055 6.16914832,7.60139309 4.40252834,7.60161388 Z" id="Shape"></path>
        </g>
    </g>
</svg>