<?xml version="1.0" encoding="UTF-8"?>
<svg width="320px" height="60px" viewBox="0 0 320 60" version="1.1" xmlns="http://www.w3.org/2000/svg" xmlns:xlink="http://www.w3.org/1999/xlink">
    <!-- Generator: Sketch 53 (72520) - https://sketchapp.com -->
    <title>header_layout_6</title>
    <desc>Created with Sketch.</desc>
    <g id="header_layout_6" stroke="none" stroke-width="1" fill="none" fill-rule="evenodd">
        <rect fill="#FFFFFF" x="0" y="0" width="320" height="60"></rect>
        <path d="M146.095,19.245 C146.355001,19.245 146.572499,19.3274992 146.7475,19.4925 C146.922501,19.6575008 147.01,19.8699987 147.01,20.13 C147.01,20.3800012 146.922501,20.5874992 146.7475,20.7525 C146.572499,20.9175008 146.355001,21 146.095,21 L141.22,21 C140.959999,21 140.742501,20.9125009 140.5675,20.7375 C140.392499,20.5624991 140.305,20.3450013 140.305,20.085 L140.305,11.415 C140.305,11.1549987 140.394999,10.9375009 140.575,10.7625 C140.755001,10.5874991 140.984999,10.5 141.265,10.5 C141.515001,10.5 141.729999,10.5874991 141.91,10.7625 C142.090001,10.9375009 142.18,11.1549987 142.18,11.415 L142.18,19.245 L146.095,19.245 Z M158.395,15.75 C158.395,16.7400049 158.175002,17.6474959 157.735,18.4725 C157.294998,19.2975041 156.687504,19.9499976 155.9125,20.43 C155.137496,20.9100024 154.265005,21.15 153.295,21.15 C152.324995,21.15 151.452504,20.9100024 150.6775,20.43 C149.902496,19.9499976 149.297502,19.2975041 148.8625,18.4725 C148.427498,17.6474959 148.21,16.7400049 148.21,15.75 C148.21,14.7599951 148.427498,13.8525041 148.8625,13.0275 C149.297502,12.2024959 149.902496,11.5500024 150.6775,11.07 C151.452504,10.5899976 152.324995,10.35 153.295,10.35 C154.265005,10.35 155.137496,10.5899976 155.9125,11.07 C156.687504,11.5500024 157.294998,12.2024959 157.735,13.0275 C158.175002,13.8525041 158.395,14.7599951 158.395,15.75 Z M156.445,15.75 C156.445,15.0799967 156.310001,14.4725027 156.04,13.9275 C155.769999,13.3824973 155.395002,12.9500016 154.915,12.63 C154.434998,12.3099984 153.895003,12.15 153.295,12.15 C152.684997,12.15 152.142502,12.3074984 151.6675,12.6225 C151.192498,12.9375016 150.822501,13.3699973 150.5575,13.92 C150.292499,14.4700028 150.16,15.0799967 150.16,15.75 C150.16,16.4200033 150.292499,17.0299973 150.5575,17.58 C150.822501,18.1300027 151.192498,18.5624984 151.6675,18.8775 C152.142502,19.1925016 152.684997,19.35 153.295,19.35 C153.895003,19.35 154.434998,19.1900016 154.915,18.87 C155.395002,18.5499984 155.769999,18.1175027 156.04,17.5725 C156.310001,17.0274973 156.445,16.4200033 156.445,15.75 Z M167.86,15.33 C168.120001,15.33 168.334999,15.4174991 168.505,15.5925 C168.675001,15.7675009 168.76,15.9849987 168.76,16.245 L168.76,19.425 C168.76,19.7750018 168.605002,20.0449991 168.295,20.235 C167.314995,20.8450031 166.240006,21.15 165.07,21.15 C164.079995,21.15 163.165004,20.9075024 162.325,20.4225 C161.484996,19.9374976 160.820002,19.2825041 160.33,18.4575 C159.839998,17.6324959 159.595,16.7300049 159.595,15.75 C159.595,14.7699951 159.839998,13.8675041 160.33,13.0425 C160.820002,12.2174959 161.484996,11.5625024 162.325,11.0775 C163.165004,10.5924976 164.079995,10.35 165.07,10.35 C166.060005,10.35 166.919996,10.549998 167.65,10.95 C167.800001,11.0300004 167.9125,11.1349994 167.9875,11.265 C168.0625,11.3950007 168.1,11.5349993 168.1,11.685 C168.1,11.9350013 168.017501,12.1524991 167.8525,12.3375 C167.687499,12.5225009 167.485001,12.615 167.245,12.615 C167.094999,12.615 166.930001,12.5750004 166.75,12.495 C166.209997,12.2649989 165.650003,12.15 165.07,12.15 C164.429997,12.15 163.840003,12.3124984 163.3,12.6375 C162.759997,12.9625016 162.332502,13.3999973 162.0175,13.95 C161.702498,14.5000028 161.545,15.0999967 161.545,15.75 C161.545,16.4000033 161.702498,16.9999972 162.0175,17.55 C162.332502,18.1000028 162.759997,18.5374984 163.3,18.8625 C163.840003,19.1875016 164.429997,19.35 165.07,19.35 C165.350001,19.35 165.649998,19.3250002 165.97,19.275 C166.290002,19.2249998 166.569999,19.1600004 166.81,19.08 L166.81,17.13 L165.4,17.13 C165.139999,17.13 164.922501,17.0450009 164.7475,16.875 C164.572499,16.7049991 164.485,16.4900013 164.485,16.23 C164.485,15.9699987 164.572499,15.7550009 164.7475,15.585 C164.922501,15.4149991 165.139999,15.33 165.4,15.33 L167.86,15.33 Z M180.22,15.75 C180.22,16.7400049 180.000002,17.6474959 179.56,18.4725 C179.119998,19.2975041 178.512504,19.9499976 177.7375,20.43 C176.962496,20.9100024 176.090005,21.15 175.12,21.15 C174.149995,21.15 173.277504,20.9100024 172.5025,20.43 C171.727496,19.9499976 171.122502,19.2975041 170.6875,18.4725 C170.252498,17.6474959 170.035,16.7400049 170.035,15.75 C170.035,14.7599951 170.252498,13.8525041 170.6875,13.0275 C171.122502,12.2024959 171.727496,11.5500024 172.5025,11.07 C173.277504,10.5899976 174.149995,10.35 175.12,10.35 C176.090005,10.35 176.962496,10.5899976 177.7375,11.07 C178.512504,11.5500024 179.119998,12.2024959 179.56,13.0275 C180.000002,13.8525041 180.22,14.7599951 180.22,15.75 Z M178.27,15.75 C178.27,15.0799967 178.135001,14.4725027 177.865,13.9275 C177.594999,13.3824973 177.220002,12.9500016 176.74,12.63 C176.259998,12.3099984 175.720003,12.15 175.12,12.15 C174.509997,12.15 173.967502,12.3074984 173.4925,12.6225 C173.017498,12.9375016 172.647501,13.3699973 172.3825,13.92 C172.117499,14.4700028 171.985,15.0799967 171.985,15.75 C171.985,16.4200033 172.117499,17.0299973 172.3825,17.58 C172.647501,18.1300027 173.017498,18.5624984 173.4925,18.8775 C173.967502,19.1925016 174.509997,19.35 175.12,19.35 C175.720003,19.35 176.259998,19.1900016 176.74,18.87 C177.220002,18.5499984 177.594999,18.1175027 177.865,17.5725 C178.135001,17.0274973 178.27,16.4200033 178.27,15.75 Z" id="LOGO" fill="#333333" fill-rule="nonzero"></path>
        <path d="M15,30.5 L305,30.5" id="Line" stroke="#000000" opacity="0.100000001" stroke-linecap="square"></path>
        <path d="M131.43,39.6 C131.622001,39.6 131.777999,39.6639994 131.898,39.792 C132.018001,39.9200006 132.078,40.079999 132.078,40.272 L132.078,47.268 C132.078,47.476001 132.008001,47.6499993 131.868,47.79 C131.727999,47.9300007 131.554001,48 131.346,48 C131.233999,48 131.124001,47.9820002 131.016,47.946 C130.907999,47.9099998 130.83,47.8600003 130.782,47.796 L126.378,42.204 L126.378,47.328 C126.378,47.520001 126.316001,47.6799994 126.192,47.808 C126.067999,47.9360006 125.906001,48 125.706,48 C125.513999,48 125.358001,47.9360006 125.238,47.808 C125.117999,47.6799994 125.058,47.520001 125.058,47.328 L125.058,40.332 C125.058,40.123999 125.127999,39.9500007 125.268,39.81 C125.408001,39.6699993 125.581999,39.6 125.79,39.6 C125.910001,39.6 126.027999,39.6239998 126.144,39.672 C126.260001,39.7200002 126.346,39.7839996 126.402,39.864 L130.77,45.432 L130.77,40.272 C130.77,40.079999 130.831999,39.9200006 130.956,39.792 C131.080001,39.6639994 131.237999,39.6 131.43,39.6 Z M140.466,47.064 C140.506,47.1680005 140.526,47.2639996 140.526,47.352 C140.526,47.560001 140.458001,47.7299993 140.322,47.862 C140.185999,47.9940007 140.030001,48.06 139.854,48.06 C139.709999,48.06 139.580001,48.0160004 139.464,47.928 C139.347999,47.8399996 139.258,47.7200008 139.194,47.568 L138.57,46.116 L134.994,46.116 L134.37,47.58 C134.314,47.7320008 134.228001,47.8499996 134.112,47.934 C133.995999,48.0180004 133.870001,48.06 133.734,48.06 C133.525999,48.06 133.368001,48.0040006 133.26,47.892 C133.151999,47.7799994 133.098,47.628001 133.098,47.436 C133.098,47.3639996 133.11,47.2880004 133.134,47.208 L136.122,40.032 C136.186,39.8719992 136.281999,39.7480004 136.41,39.66 C136.538001,39.5719996 136.681999,39.5359999 136.842,39.552 C136.986001,39.552 137.119999,39.5939996 137.244,39.678 C137.368001,39.7620004 137.458,39.8799992 137.514,40.032 L140.466,47.064 Z M135.582,44.736 L137.982,44.736 L136.77,41.928 L135.582,44.736 Z M147.678,39.576 C147.878001,39.576 148.051999,39.6439993 148.2,39.78 C148.348001,39.9160007 148.422,40.079999 148.422,40.272 C148.422,40.3760005 148.398,40.4839994 148.35,40.596 L145.386,47.532 C145.314,47.6840008 145.214001,47.7999996 145.086,47.88 C144.957999,47.9600004 144.822001,48 144.678,48 C144.541999,47.992 144.416001,47.9500004 144.3,47.874 C144.183999,47.7979996 144.094,47.6880007 144.03,47.544 L141.066,40.584 C141.026,40.5039996 141.006,40.4040006 141.006,40.284 C141.006,40.0679989 141.085999,39.8940007 141.246,39.762 C141.406001,39.6299993 141.569999,39.564 141.738,39.564 C141.874001,39.564 142.001999,39.6039996 142.122,39.684 C142.242001,39.7640004 142.334,39.8799992 142.398,40.032 L144.81,45.708 L147.018,40.032 C147.082,39.8879993 147.173999,39.7760004 147.294,39.696 C147.414001,39.6159996 147.541999,39.576 147.678,39.576 Z M151.182,47.268 C151.182,47.476001 151.106001,47.6499993 150.954,47.79 C150.801999,47.9300007 150.626001,48 150.426,48 C150.209999,48 150.032001,47.9300007 149.892,47.79 C149.751999,47.6499993 149.682,47.476001 149.682,47.268 L149.682,40.332 C149.682,40.123999 149.753999,39.9500007 149.898,39.81 C150.042001,39.6699993 150.225999,39.6 150.45,39.6 C150.650001,39.6 150.821999,39.6699993 150.966,39.81 C151.110001,39.9500007 151.182,40.123999 151.182,40.332 L151.182,47.268 Z M159.174,43.464 C159.382001,43.464 159.553999,43.5339993 159.69,43.674 C159.826001,43.8140007 159.894,43.987999 159.894,44.196 L159.894,46.74 C159.894,47.0200014 159.770001,47.2359992 159.522,47.388 C158.737996,47.8760024 157.878005,48.12 156.942,48.12 C156.149996,48.12 155.418003,47.9260019 154.746,47.538 C154.073997,47.1499981 153.542002,46.6260033 153.15,45.966 C152.757998,45.3059967 152.562,44.5840039 152.562,43.8 C152.562,43.0159961 152.757998,42.2940033 153.15,41.634 C153.542002,40.9739967 154.073997,40.4500019 154.746,40.062 C155.418003,39.6739981 156.149996,39.48 156.942,39.48 C157.734004,39.48 158.421997,39.6399984 159.006,39.96 C159.126001,40.0240003 159.216,40.1079995 159.276,40.212 C159.336,40.3160005 159.366,40.4279994 159.366,40.548 C159.366,40.748001 159.300001,40.9219993 159.168,41.07 C159.035999,41.2180007 158.874001,41.292 158.682,41.292 C158.561999,41.292 158.430001,41.2600003 158.286,41.196 C157.853998,41.0119991 157.406002,40.92 156.942,40.92 C156.429997,40.92 155.958002,41.0499987 155.526,41.31 C155.093998,41.5700013 154.752001,41.9199978 154.5,42.36 C154.247999,42.8000022 154.122,43.2799974 154.122,43.8 C154.122,44.3200026 154.247999,44.7999978 154.5,45.24 C154.752001,45.6800022 155.093998,46.0299987 155.526,46.29 C155.958002,46.5500013 156.429997,46.68 156.942,46.68 C157.166001,46.68 157.405999,46.6600002 157.662,46.62 C157.918001,46.5799998 158.141999,46.5280003 158.334,46.464 L158.334,44.904 L157.206,44.904 C156.997999,44.904 156.824001,44.8360007 156.684,44.7 C156.543999,44.5639993 156.474,44.392001 156.474,44.184 C156.474,43.975999 156.543999,43.8040007 156.684,43.668 C156.824001,43.5319993 156.997999,43.464 157.206,43.464 L159.174,43.464 Z M167.922,47.064 C167.962,47.1680005 167.982,47.2639996 167.982,47.352 C167.982,47.560001 167.914001,47.7299993 167.778,47.862 C167.641999,47.9940007 167.486001,48.06 167.31,48.06 C167.165999,48.06 167.036001,48.0160004 166.92,47.928 C166.803999,47.8399996 166.714,47.7200008 166.65,47.568 L166.026,46.116 L162.45,46.116 L161.826,47.58 C161.77,47.7320008 161.684001,47.8499996 161.568,47.934 C161.451999,48.0180004 161.326001,48.06 161.19,48.06 C160.981999,48.06 160.824001,48.0040006 160.716,47.892 C160.607999,47.7799994 160.554,47.628001 160.554,47.436 C160.554,47.3639996 160.566,47.2880004 160.59,47.208 L163.578,40.032 C163.642,39.8719992 163.737999,39.7480004 163.866,39.66 C163.994001,39.5719996 164.137999,39.5359999 164.298,39.552 C164.442001,39.552 164.575999,39.5939996 164.7,39.678 C164.824001,39.7620004 164.914,39.8799992 164.97,40.032 L167.922,47.064 Z M163.038,44.736 L165.438,44.736 L164.226,41.928 L163.038,44.736 Z M174.522,39.6 C174.738001,39.6 174.913999,39.6639994 175.05,39.792 C175.186001,39.9200006 175.254,40.087999 175.254,40.296 C175.254,40.504001 175.186001,40.6699994 175.05,40.794 C174.913999,40.9180006 174.738001,40.98 174.522,40.98 L172.638,40.98 L172.638,47.268 C172.638,47.476001 172.562001,47.6499993 172.41,47.79 C172.257999,47.9300007 172.070001,48 171.846,48 C171.621999,48 171.438001,47.9300007 171.294,47.79 C171.149999,47.6499993 171.078,47.476001 171.078,47.268 L171.078,40.98 L169.194,40.98 C168.977999,40.98 168.802001,40.9160006 168.666,40.788 C168.529999,40.6599994 168.462,40.492001 168.462,40.284 C168.462,40.083999 168.531999,39.9200006 168.672,39.792 C168.812001,39.6639994 168.985999,39.6 169.194,39.6 L174.522,39.6 Z M178.014,47.268 C178.014,47.476001 177.938001,47.6499993 177.786,47.79 C177.633999,47.9300007 177.458001,48 177.258,48 C177.041999,48 176.864001,47.9300007 176.724,47.79 C176.583999,47.6499993 176.514,47.476001 176.514,47.268 L176.514,40.332 C176.514,40.123999 176.585999,39.9500007 176.73,39.81 C176.874001,39.6699993 177.057999,39.6 177.282,39.6 C177.482001,39.6 177.653999,39.6699993 177.798,39.81 C177.942001,39.9500007 178.014,40.123999 178.014,40.332 L178.014,47.268 Z M187.542,43.8 C187.542,44.592004 187.366002,45.3179967 187.014,45.978 C186.661998,46.6380033 186.176003,47.1599981 185.556,47.544 C184.935997,47.9280019 184.238004,48.12 183.462,48.12 C182.685996,48.12 181.988003,47.9280019 181.368,47.544 C180.747997,47.1599981 180.264002,46.6380033 179.916,45.978 C179.567998,45.3179967 179.394,44.592004 179.394,43.8 C179.394,43.007996 179.567998,42.2820033 179.916,41.622 C180.264002,40.9619967 180.747997,40.4400019 181.368,40.056 C181.988003,39.6719981 182.685996,39.48 183.462,39.48 C184.238004,39.48 184.935997,39.6719981 185.556,40.056 C186.176003,40.4400019 186.661998,40.9619967 187.014,41.622 C187.366002,42.2820033 187.542,43.007996 187.542,43.8 Z M185.982,43.8 C185.982,43.2639973 185.874001,42.7780022 185.658,42.342 C185.441999,41.9059978 185.142002,41.5600013 184.758,41.304 C184.373998,41.0479987 183.942002,40.92 183.462,40.92 C182.973998,40.92 182.540002,41.0459987 182.16,41.298 C181.779998,41.5500013 181.484001,41.8959978 181.272,42.336 C181.059999,42.7760022 180.954,43.2639973 180.954,43.8 C180.954,44.3360027 181.059999,44.8239978 181.272,45.264 C181.484001,45.7040022 181.779998,46.0499987 182.16,46.302 C182.540002,46.5540013 182.973998,46.68 183.462,46.68 C183.942002,46.68 184.373998,46.5520013 184.758,46.296 C185.142002,46.0399987 185.441999,45.6940022 185.658,45.258 C185.874001,44.8219978 185.982,44.3360027 185.982,43.8 Z M195.294,39.6 C195.486001,39.6 195.641999,39.6639994 195.762,39.792 C195.882001,39.9200006 195.942,40.079999 195.942,40.272 L195.942,47.268 C195.942,47.476001 195.872001,47.6499993 195.732,47.79 C195.591999,47.9300007 195.418001,48 195.21,48 C195.097999,48 194.988001,47.9820002 194.88,47.946 C194.771999,47.9099998 194.694,47.8600003 194.646,47.796 L190.242,42.204 L190.242,47.328 C190.242,47.520001 190.180001,47.6799994 190.056,47.808 C189.931999,47.9360006 189.770001,48 189.57,48 C189.377999,48 189.222001,47.9360006 189.102,47.808 C188.981999,47.6799994 188.922,47.520001 188.922,47.328 L188.922,40.332 C188.922,40.123999 188.991999,39.9500007 189.132,39.81 C189.272001,39.6699993 189.445999,39.6 189.654,39.6 C189.774001,39.6 189.891999,39.6239998 190.008,39.672 C190.124001,39.7200002 190.21,39.7839996 190.266,39.864 L194.634,45.432 L194.634,40.272 C194.634,40.079999 194.695999,39.9200006 194.82,39.792 C194.944001,39.6639994 195.101999,39.6 195.294,39.6 Z" id="NAVIGATION" fill="#333333" fill-rule="nonzero"></path>
        <path d="M294.514286,41.5 L294,41.5 L294,40 L294.514286,40 L305.485714,40 L306,40 L306,41.5 L305.485714,41.5 L294.514286,41.5 Z M294.314286,44.9782609 L294,44.9782609 L294,43.4782609 L294.314286,43.4782609 L301.019048,43.4782609 L301.333333,43.4782609 L301.333333,44.9782609 L301.019048,44.9782609 L294.314286,44.9782609 Z M294.514286,48.4565217 L294,48.4565217 L294,46.9565217 L294.514286,46.9565217 L305.485714,46.9565217 L306,46.9565217 L306,48.4565217 L305.485714,48.4565217 L294.514286,48.4565217 Z" id="Combined-Shape" fill="#424851"></path>
        <g id="Orion_search" transform="translate(14.000000, 38.000000)" fill="#202020" fill-rule="nonzero">
            <path d="M7.90933787,7.05859471 C9.30449047,5.22352937 9.03925162,2.60933943 7.29521707,1.08613695 C5.55118253,-0.437065537 2.9250947,-0.3480985 1.28814583,1.2896455 C-0.348803033,2.9273895 -0.436511177,5.55353663 1.08751695,7.29685241 C2.61154507,9.04016818 5.2258449,9.30415611 7.06762361,7.90071428 L10.9758968,11.8242077 C11.2100965,12.0585193 11.5898987,12.0586088 11.8242088,11.8244076 C12.0585189,11.5902065 12.0586085,11.2104018 11.8244088,10.9760902 L7.90933787,7.05859471 Z M4.40252834,7.60161388 C2.63581689,7.60161388 1.20361429,6.16940201 1.20361429,4.40267914 C1.20361429,2.63595627 2.63581689,1.20374441 4.40252834,1.20374441 C6.16923978,1.20374441 7.60144239,2.63595627 7.60144239,4.40267914 C7.6012216,6.16931055 6.16914832,7.60139309 4.40252834,7.60161388 Z" id="Shape"></path>
        </g>
    </g>
</svg>