<svg width="14" height="14" xmlns="http://www.w3.org/2000/svg"><path d="M0 11.527c.496.052.858.077 1.086.077.447 0 .744-.093.893-.28.149-.186.223-.544.223-1.073V0H5v10.204c0 1.307-.253 2.266-.759 2.878-.506.612-1.374.918-2.604.918-.486 0-1.032-.047-1.637-.14v-2.333zm10.014-.379c-.815 0-1.525-.167-2.13-.5a3.401 3.401 0 0 1-1.395-1.44C6.163 8.58 6 7.844 6 7c0-.845.163-1.581.49-2.207a3.401 3.401 0 0 1 1.395-1.44c.604-.334 1.314-.501 2.13-.501.805 0 1.508.17 2.107.509.6.339 1.063.819 1.389 1.44C13.837 5.42 14 6.155 14 7c0 .845-.163 1.578-.49 2.2a3.473 3.473 0 0 1-1.388 1.44c-.6.339-1.302.508-2.108.508zm.001-2.074c.99 0 1.485-.694 1.485-2.082 0-.705-.124-1.225-.371-1.562-.248-.336-.619-.504-1.114-.504-.505 0-.884.168-1.136.504-.253.337-.379.857-.379 1.562 0 .715.126 1.241.379 1.578.252.336.631.504 1.136.504z" fill="#F13B3B" fill-rule="evenodd"/></svg>