<?xml version="1.0" encoding="UTF-8"?>
<svg width="320px" height="250px" viewBox="0 0 320 250" version="1.1" xmlns="http://www.w3.org/2000/svg" xmlns:xlink="http://www.w3.org/1999/xlink">
    <!-- Generator: Sketch 53 (72520) - https://sketchapp.com -->
    <title>layout_b_d_sid</title>
    <desc>Created with Sketch.</desc>
    <g id="layout_b_d_sid" stroke="none" stroke-width="1" fill="none" fill-rule="evenodd">
        <rect fill="#FFFFFF" x="0" y="0" width="320" height="250"></rect>
        <g id="Group-2" transform="translate(60.000000, 24.000000)">
            <rect id="Rectangle" fill="#B5B5B5" x="1" y="0" width="126" height="80"></rect>
            <rect id="Rectangle" fill="#EAEAEA" transform="translate(170.500000, 31.000000) scale(-1, 1) translate(-170.500000, -31.000000) " x="141" y="0" width="59" height="62"></rect>
            <rect id="Rectangle" fill="#EAEAEA" transform="translate(170.500000, 100.500000) scale(-1, 1) translate(-170.500000, -100.500000) " x="141" y="76" width="59" height="49"></rect>
            <rect id="Rectangle" fill="#EAEAEA" transform="translate(170.500000, 170.000000) scale(-1, 1) translate(-170.500000, -170.000000) " x="141" y="139" width="59" height="62"></rect>
            <g id="Group" transform="translate(24.000000, 93.000000)" stroke="#D6D6D6" stroke-linecap="square" stroke-width="2">
                <path d="M0,13 L80,13" id="Line"></path>
                <path d="M0,7 L80,7" id="Line"></path>
                <path d="M0,1 L80,1" id="Line"></path>
                <path d="M0,19 L80,19" id="Line"></path>
                <path d="M0,25 L80,25" id="Line"></path>
                <path d="M0,31 L47.4074074,31" id="Line"></path>
            </g>
            <rect id="Rectangle" fill="#B5B5B5" x="0" y="145" width="59" height="36"></rect>
            <rect id="Rectangle" fill="#B5B5B5" x="71" y="145" width="59" height="36"></rect>
            <path d="M1,189 L59,189" id="Line" stroke="#D6D6D6" stroke-width="2" stroke-linecap="square"></path>
            <path d="M1,195 L59,195" id="Line" stroke="#D6D6D6" stroke-width="2" stroke-linecap="square"></path>
            <path d="M1,201 L36,201" id="Line" stroke="#D6D6D6" stroke-width="2" stroke-linecap="square"></path>
            <path d="M71,189 L129,189" id="Line" stroke="#D6D6D6" stroke-width="2" stroke-linecap="square"></path>
            <path d="M71,195 L129,195" id="Line" stroke="#D6D6D6" stroke-width="2" stroke-linecap="square"></path>
            <path d="M71,201 L106,201" id="Line" stroke="#D6D6D6" stroke-width="2" stroke-linecap="square"></path>
        </g>
    </g>
</svg>