<?xml version="1.0" encoding="UTF-8"?>
<svg width="320px" height="250px" viewBox="0 0 320 250" version="1.1" xmlns="http://www.w3.org/2000/svg" xmlns:xlink="http://www.w3.org/1999/xlink">
    <!-- Generator: Sketch 53 (72520) - https://sketchapp.com -->
    <title>layout_a_e</title>
    <desc>Created with Sketch.</desc>
    <g id="layout_a_e" stroke="none" stroke-width="1" fill="none" fill-rule="evenodd">
        <rect fill="#FFFFFF" x="0" y="0" width="320" height="250"></rect>
        <g id="Group-3" transform="translate(60.000000, 29.000000)">
            <g id="Group-2">
                <rect id="Rectangle" fill="#B5B5B5" x="0" y="0" width="200" height="88"></rect>
                <g id="Group" transform="translate(60.000000, 98.000000)" stroke="#D6D6D6" stroke-linecap="square" stroke-width="2">
                    <path d="M0,7 L80,7" id="Line"></path>
                    <path d="M0,1 L80,1" id="Line"></path>
                    <path d="M0,13 L80,13" id="Line"></path>
                    <path d="M0,19 L80,19" id="Line"></path>
                    <path d="M0,25 L47.4074074,25" id="Line"></path>
                </g>
            </g>
            <rect id="Rectangle" fill="#B5B5B5" x="0" y="138" width="98" height="55"></rect>
            <g id="Group" transform="translate(109.000000, 139.000000)" stroke="#D6D6D6" stroke-linecap="square" stroke-width="2">
                <path d="M0,25 L90,25" id="Line"></path>
                <path d="M0,19 L90,19" id="Line"></path>
                <path d="M0,13 L90,13" id="Line"></path>
                <path d="M0,7 L90,7" id="Line"></path>
                <path d="M0,1 L90,1" id="Line"></path>
                <path d="M0,31 L90,31" id="Line"></path>
                <path d="M0,37 L90,37" id="Line"></path>
                <path d="M0,43 L53.8043478,43" id="Line"></path>
            </g>
        </g>
    </g>
</svg>