<?xml version="1.0" encoding="UTF-8"?>
<svg width="320px" height="250px" viewBox="0 0 320 250" version="1.1" xmlns="http://www.w3.org/2000/svg" xmlns:xlink="http://www.w3.org/1999/xlink">
    <!-- Generator: Sketch 53 (72520) - https://sketchapp.com -->
    <title>layout_a_c</title>
    <desc>Created with Sketch.</desc>
    <g id="layout_a_c" stroke="none" stroke-width="1" fill="none" fill-rule="evenodd">
        <rect fill="#FFFFFF" x="0" y="0" width="320" height="250"></rect>
        <g id="Group-3" transform="translate(60.000000, 22.000000)">
            <g id="Group-2">
                <rect id="Rectangle" fill="#B5B5B5" x="0" y="0" width="200" height="80"></rect>
                <g id="Group" transform="translate(60.000000, 90.000000)" stroke="#D6D6D6" stroke-linecap="square" stroke-width="2">
                    <path d="M0,7 L80,7" id="Line"></path>
                    <path d="M0,1 L80,1" id="Line"></path>
                    <path d="M0,13 L80,13" id="Line"></path>
                    <path d="M0,19 L80,19" id="Line"></path>
                    <path d="M0,25 L47.4074074,25" id="Line"></path>
                </g>
            </g>
            <rect id="Rectangle" fill="#B5B5B5" x="0" y="131" width="92" height="47"></rect>
            <g id="Group" transform="translate(1.000000, 186.000000)" stroke="#D6D6D6" stroke-linecap="square" stroke-width="2">
                <path d="M0,1 L90,1" id="Line"></path>
                <path d="M0,7 L90,7" id="Line"></path>
                <path d="M0,13 L90,13" id="Line"></path>
                <path d="M0,19 L53.8043478,19" id="Line"></path>
            </g>
            <rect id="Rectangle" fill="#B5B5B5" x="108" y="131" width="92" height="47"></rect>
            <g id="Group" transform="translate(109.000000, 186.000000)" stroke="#D6D6D6" stroke-linecap="square" stroke-width="2">
                <path d="M0,1 L90,1" id="Line"></path>
                <path d="M0,7 L90,7" id="Line"></path>
                <path d="M0,13 L90,13" id="Line"></path>
                <path d="M0,19 L53.8043478,19" id="Line"></path>
            </g>
        </g>
    </g>
</svg>