<?xml version="1.0" encoding="UTF-8"?>
<svg width="320px" height="250px" viewBox="0 0 320 250" version="1.1" xmlns="http://www.w3.org/2000/svg" xmlns:xlink="http://www.w3.org/1999/xlink">
    <!-- Generator: Sketch 53 (72520) - https://sketchapp.com -->
    <title>layout_c_d</title>
    <desc>Created with Sketch.</desc>
    <g id="layout_c_d" stroke="none" stroke-width="1" fill="none" fill-rule="evenodd">
        <rect fill="#FFFFFF" x="0" y="0" width="320" height="250"></rect>
        <g id="Group-4" transform="translate(60.000000, 41.000000)">
            <g id="Group-3">
                <g id="Group-2">
                    <rect id="Rectangle" fill="#B5B5B5" x="0" y="0" width="92" height="55"></rect>
                    <g id="Group" transform="translate(1.000000, 64.000000)" stroke="#D6D6D6" stroke-linecap="square" stroke-width="2">
                        <path d="M0,13 L90,13" id="Line"></path>
                        <path d="M0,7 L90,7" id="Line"></path>
                        <path d="M0,1 L90,1" id="Line"></path>
                        <path d="M0,19 L90,19" id="Line"></path>
                        <path d="M0,25 L90,25" id="Line"></path>
                        <path d="M0,31 L53.8043478,31" id="Line"></path>
                    </g>
                    <rect id="Rectangle" fill="#B5B5B5" x="108" y="0" width="92" height="55"></rect>
                    <g id="Group" transform="translate(109.000000, 64.000000)" stroke="#D6D6D6" stroke-linecap="square" stroke-width="2">
                        <path d="M0,13 L90,13" id="Line"></path>
                        <path d="M0,7 L90,7" id="Line"></path>
                        <path d="M0,1 L90,1" id="Line"></path>
                        <path d="M0,19 L90,19" id="Line"></path>
                        <path d="M0,25 L90,25" id="Line"></path>
                        <path d="M0,31 L53.8043478,31" id="Line"></path>
                    </g>
                </g>
            </g>
            <rect id="Rectangle" fill="#B5B5B5" x="0" y="111" width="59" height="36"></rect>
            <rect id="Rectangle" fill="#B5B5B5" x="71" y="111" width="59" height="36"></rect>
            <g id="Group" transform="translate(1.000000, 154.000000)" stroke="#D6D6D6" stroke-linecap="square" stroke-width="2">
                <path d="M0,1 L58,1" id="Line"></path>
                <path d="M0,7 L58,7" id="Line"></path>
                <path d="M0,13 L35,13" id="Line"></path>
            </g>
            <g id="Group" transform="translate(71.000000, 154.000000)" stroke="#D6D6D6" stroke-linecap="square" stroke-width="2">
                <path d="M0,1 L58,1" id="Line"></path>
                <path d="M0,7 L58,7" id="Line"></path>
                <path d="M0,13 L35,13" id="Line"></path>
            </g>
            <rect id="Rectangle" fill="#B5B5B5" x="142" y="111" width="59" height="36"></rect>
            <g id="Group" transform="translate(142.000000, 154.000000)" stroke="#D6D6D6" stroke-linecap="square" stroke-width="2">
                <path d="M0,1 L58,1" id="Line"></path>
                <path d="M0,7 L58,7" id="Line"></path>
                <path d="M0,13 L35,13" id="Line"></path>
            </g>
        </g>
    </g>
</svg>