<?xml version="1.0" encoding="UTF-8"?>
<svg width="320px" height="170px" viewBox="0 0 320 170" version="1.1" xmlns="http://www.w3.org/2000/svg" xmlns:xlink="http://www.w3.org/1999/xlink">
    <!-- Generator: Sketch 53 (72520) - https://sketchapp.com -->
    <title>layout_fa_d_slider</title>
    <desc>Created with Sketch.</desc>
    <g id="layout_fa_d_slider" stroke="none" stroke-width="1" fill="none" fill-rule="evenodd">
        <rect fill="#FFFFFF" x="0" y="0" width="320" height="170"></rect>
        <g id="Group-3" transform="translate(60.000000, 42.000000)">
            <rect id="Rectangle" fill="#EAEAEA" x="29" y="28" width="142" height="59"></rect>
            <g id="Group-11" transform="translate(81.000000, 70.000000)" stroke="#424851" stroke-linecap="square">
                <g id="Arrow">
                    <path d="M0.7,3.5 L12.3666667,3.5" id="Line-3"></path>
                    <path d="M0.233333333,3.5 L3.53316498,0.200168354" id="Line-3"></path>
                    <path d="M0.233333333,6.79983165 L3.53316498,3.5" id="Line-3" transform="translate(1.883249, 5.149916) rotate(-270.000000) translate(-1.883249, -5.149916) "></path>
                </g>
                <g id="Arrow" transform="translate(32.700000, 3.500000) rotate(-180.000000) translate(-32.700000, -3.500000) translate(26.400000, 0.000000)">
                    <path d="M0.7,3.5 L12.3666667,3.5" id="Line-3"></path>
                    <path d="M0.233333333,3.5 L3.53316498,0.200168354" id="Line-3"></path>
                    <path d="M0.233333333,6.79983165 L3.53316498,3.5" id="Line-3" transform="translate(1.883249, 5.149916) rotate(-270.000000) translate(-1.883249, -5.149916) "></path>
                </g>
            </g>
            <g id="Group-2">
                <rect id="Rectangle" fill="#5A5A5A" x="0" y="0" width="59" height="59"></rect>
                <g id="Group" transform="translate(9.000000, 36.000000)" stroke="#FFFFFF" stroke-linecap="square" stroke-width="2">
                    <path d="M0,1 L42,1" id="Line"></path>
                    <path d="M0,7 L42,7" id="Line"></path>
                    <path d="M0,13 L25.0645161,13" id="Line"></path>
                </g>
                <rect id="Rectangle" fill="#5A5A5A" x="71" y="0" width="59" height="59"></rect>
                <g id="Group" transform="translate(80.000000, 36.000000)" stroke="#FFFFFF" stroke-linecap="square" stroke-width="2">
                    <path d="M0,1 L42,1" id="Line"></path>
                    <path d="M0,7 L42,7" id="Line"></path>
                    <path d="M0,13 L25.0645161,13" id="Line"></path>
                </g>
                <rect id="Rectangle" fill="#5A5A5A" x="142" y="0" width="59" height="59"></rect>
                <g id="Group" transform="translate(151.000000, 36.000000)" stroke="#FFFFFF" stroke-linecap="square" stroke-width="2">
                    <path d="M0,1 L42,1" id="Line"></path>
                    <path d="M0,7 L42,7" id="Line"></path>
                    <path d="M0,13 L25.0645161,13" id="Line"></path>
                </g>
            </g>
        </g>
    </g>
</svg>