<?xml version="1.0" encoding="UTF-8"?>
<svg width="320px" height="170px" viewBox="0 0 320 170" version="1.1" xmlns="http://www.w3.org/2000/svg" xmlns:xlink="http://www.w3.org/1999/xlink">
    <!-- Generator: Sketch 53 (72520) - https://sketchapp.com -->
    <title>layout_d_2col</title>
    <desc>Created with Sketch.</desc>
    <g id="layout_d_2col" stroke="none" stroke-width="1" fill="none" fill-rule="evenodd">
        <rect fill="#FFFFFF" x="0" y="0" width="320" height="170"></rect>
        <g id="Group-2" transform="translate(95.000000, 22.000000)">
            <rect id="Rectangle" fill="#B5B5B5" x="0" y="0" width="59" height="36"></rect>
            <rect id="Rectangle" fill="#B5B5B5" x="71" y="0" width="59" height="36"></rect>
            <g id="Group" transform="translate(1.000000, 43.000000)" stroke="#D6D6D6" stroke-linecap="square" stroke-width="2">
                <path d="M0,1 L58,1" id="Line"></path>
                <path d="M0,7 L58,7" id="Line"></path>
                <path d="M0,13 L35,13" id="Line"></path>
            </g>
            <g id="Group" transform="translate(71.000000, 43.000000)" stroke="#D6D6D6" stroke-linecap="square" stroke-width="2">
                <path d="M0,1 L58,1" id="Line"></path>
                <path d="M0,7 L58,7" id="Line"></path>
                <path d="M0,13 L35,13" id="Line"></path>
            </g>
            <rect id="Rectangle" fill="#B5B5B5" x="0" y="70" width="59" height="36"></rect>
            <rect id="Rectangle" fill="#B5B5B5" x="71" y="70" width="59" height="36"></rect>
            <g id="Group" transform="translate(1.000000, 113.000000)" stroke="#D6D6D6" stroke-linecap="square" stroke-width="2">
                <path d="M0,1 L58,1" id="Line"></path>
                <path d="M0,7 L58,7" id="Line"></path>
                <path d="M0,13 L35,13" id="Line"></path>
            </g>
            <g id="Group" transform="translate(71.000000, 113.000000)" stroke="#D6D6D6" stroke-linecap="square" stroke-width="2">
                <path d="M0,1 L58,1" id="Line"></path>
                <path d="M0,7 L58,7" id="Line"></path>
                <path d="M0,13 L35,13" id="Line"></path>
            </g>
        </g>
    </g>
</svg>