<?xml version="1.0" encoding="UTF-8"?>
<svg width="320px" height="170px" viewBox="0 0 320 170" version="1.1" xmlns="http://www.w3.org/2000/svg" xmlns:xlink="http://www.w3.org/1999/xlink">
    <!-- Generator: Sketch 53 (72520) - https://sketchapp.com -->
    <title>layout_fa_c</title>
    <desc>Created with Sketch.</desc>
    <g id="layout_fa_c" stroke="none" stroke-width="1" fill="none" fill-rule="evenodd">
        <rect fill="#FFFFFF" x="0" y="0" width="320" height="170"></rect>
        <g id="Group-3" transform="translate(60.000000, 39.000000)">
            <g id="Group-2">
                <rect id="Rectangle" fill="#5A5A5A" x="0" y="0" width="92" height="92"></rect>
                <g id="Group" transform="translate(16.000000, 50.000000)" stroke="#FFFFFF" stroke-linecap="square" stroke-width="2">
                    <path d="M0,7 L62,7" id="Line"></path>
                    <path d="M0,1 L62,1" id="Line"></path>
                    <path d="M0,13 L62,13" id="Line"></path>
                    <path d="M0,19 L62,19" id="Line"></path>
                    <path d="M0,25 L37,25" id="Line"></path>
                </g>
            </g>
            <g id="Group-2" transform="translate(108.000000, 0.000000)">
                <rect id="Rectangle" fill="#5A5A5A" x="0" y="0" width="92" height="92"></rect>
                <g id="Group" transform="translate(16.000000, 50.000000)" stroke="#FFFFFF" stroke-linecap="square" stroke-width="2">
                    <path d="M0,7 L62,7" id="Line"></path>
                    <path d="M0,1 L62,1" id="Line"></path>
                    <path d="M0,13 L62,13" id="Line"></path>
                    <path d="M0,19 L62,19" id="Line"></path>
                    <path d="M0,25 L37,25" id="Line"></path>
                </g>
            </g>
        </g>
    </g>
</svg>