<?xml version="1.0" encoding="UTF-8"?>
<svg width="320px" height="170px" viewBox="0 0 320 170" version="1.1" xmlns="http://www.w3.org/2000/svg" xmlns:xlink="http://www.w3.org/1999/xlink">
    <!-- Generator: Sketch 53 (72520) - https://sketchapp.com -->
    <title>layout_f_sid</title>
    <desc>Created with Sketch.</desc>
    <g id="layout_f_sid" stroke="none" stroke-width="1" fill="none" fill-rule="evenodd">
        <rect fill="#FFFFFF" x="0" y="0" width="320" height="170"></rect>
        <rect id="Rectangle" fill="#B5B5B5" x="60" y="24" width="33" height="33"></rect>
        <g id="Group" transform="translate(106.000000, 25.000000)" stroke="#D6D6D6" stroke-linecap="square" stroke-width="2">
            <path d="M0,7 L72,7" id="Line"></path>
            <path d="M0,1 L72,1" id="Line"></path>
            <path d="M0,13 L72,13" id="Line"></path>
            <path d="M0,19 L72,19" id="Line"></path>
            <path d="M0,25 L43,25" id="Line"></path>
        </g>
        <rect id="Rectangle" fill="#B5B5B5" x="60" y="69" width="33" height="33"></rect>
        <g id="Group" transform="translate(106.000000, 70.000000)" stroke="#D6D6D6" stroke-linecap="square" stroke-width="2">
            <path d="M0,7 L72,7" id="Line"></path>
            <path d="M0,1 L72,1" id="Line"></path>
            <path d="M0,13 L72,13" id="Line"></path>
            <path d="M0,19 L72,19" id="Line"></path>
            <path d="M0,25 L43,25" id="Line"></path>
        </g>
        <rect id="Rectangle" fill="#B5B5B5" x="60" y="114" width="33" height="33"></rect>
        <g id="Group" transform="translate(106.000000, 115.000000)" stroke="#D6D6D6" stroke-linecap="square" stroke-width="2">
            <path d="M0,7 L72,7" id="Line"></path>
            <path d="M0,1 L72,1" id="Line"></path>
            <path d="M0,13 L72,13" id="Line"></path>
            <path d="M0,19 L72,19" id="Line"></path>
            <path d="M0,25 L43,25" id="Line"></path>
        </g>
        <rect id="Rectangle" fill="#EAEAEA" transform="translate(230.500000, 53.500000) scale(-1, 1) translate(-230.500000, -53.500000) " x="201" y="24" width="59" height="59"></rect>
        <rect id="Rectangle" fill="#EAEAEA" transform="translate(230.500000, 121.500000) scale(-1, 1) translate(-230.500000, -121.500000) " x="201" y="96" width="59" height="51"></rect>
    </g>
</svg>