<?xml version="1.0" encoding="UTF-8"?>
<svg width="320px" height="170px" viewBox="0 0 320 170" version="1.1" xmlns="http://www.w3.org/2000/svg" xmlns:xlink="http://www.w3.org/1999/xlink">
    <!-- Generator: Sketch 53 (72520) - https://sketchapp.com -->
    <title>layout_fa_e_slider</title>
    <desc>Created with Sketch.</desc>
    <g id="layout_fa_e_slider" stroke="none" stroke-width="1" fill="none" fill-rule="evenodd">
        <rect fill="#FFFFFF" x="0" y="0" width="320" height="170"></rect>
        <g id="Group-4" transform="translate(64.000000, 32.000000)">
            <g id="Group-3">
                <g id="Group-2">
                    <rect id="Rectangle" fill="#D6D6D6" opacity="0.300000012" x="8" y="9" width="76" height="76"></rect>
                    <rect id="Rectangle" fill="#B5B5B5" x="0" y="0" width="76" height="76"></rect>
                </g>
                <g id="Group" transform="translate(103.000000, 26.000000)" stroke="#D6D6D6" stroke-linecap="square" stroke-width="2">
                    <path d="M0,13 L90,13" id="Line"></path>
                    <path d="M0,7 L90,7" id="Line"></path>
                    <path d="M0,1 L90,1" id="Line"></path>
                    <path d="M0,19 L90,19" id="Line"></path>
                    <path d="M0,25 L90,25" id="Line"></path>
                    <path d="M0,31 L53.8043478,31" id="Line"></path>
                </g>
            </g>
            <g id="Group-11" transform="translate(77.000000, 99.000000)" stroke="#424851" stroke-linecap="square">
                <g id="Arrow">
                    <path d="M0.7,3.5 L12.3666667,3.5" id="Line-3"></path>
                    <path d="M0.233333333,3.5 L3.53316498,0.200168354" id="Line-3"></path>
                    <path d="M0.233333333,6.79983165 L3.53316498,3.5" id="Line-3" transform="translate(1.883249, 5.149916) rotate(-270.000000) translate(-1.883249, -5.149916) "></path>
                </g>
                <g id="Arrow" transform="translate(32.700000, 3.500000) rotate(-180.000000) translate(-32.700000, -3.500000) translate(26.400000, 0.000000)">
                    <path d="M0.7,3.5 L12.3666667,3.5" id="Line-3"></path>
                    <path d="M0.233333333,3.5 L3.53316498,0.200168354" id="Line-3"></path>
                    <path d="M0.233333333,6.79983165 L3.53316498,3.5" id="Line-3" transform="translate(1.883249, 5.149916) rotate(-270.000000) translate(-1.883249, -5.149916) "></path>
                </g>
            </g>
        </g>
    </g>
</svg>