<?xml version="1.0" encoding="UTF-8"?>
<svg width="320px" height="170px" viewBox="0 0 320 170" version="1.1" xmlns="http://www.w3.org/2000/svg" xmlns:xlink="http://www.w3.org/1999/xlink">
    <!-- Generator: Sketch 53 (72520) - https://sketchapp.com -->
    <title>layout_e</title>
    <desc>Created with Sketch.</desc>
    <g id="layout_e" stroke="none" stroke-width="1" fill="none" fill-rule="evenodd">
        <rect fill="#FFFFFF" x="0" y="0" width="320" height="170"></rect>
        <g id="Group-2" transform="translate(60.000000, 24.000000)">
            <rect id="Rectangle" fill="#B5B5B5" x="0" y="0" width="98" height="55"></rect>
            <g id="Group" transform="translate(109.000000, 1.000000)" stroke="#D6D6D6" stroke-linecap="square" stroke-width="2">
                <path d="M0,25 L90,25" id="Line"></path>
                <path d="M0,19 L90,19" id="Line"></path>
                <path d="M0,13 L90,13" id="Line"></path>
                <path d="M0,7 L90,7" id="Line"></path>
                <path d="M0,1 L90,1" id="Line"></path>
                <path d="M0,31 L90,31" id="Line"></path>
                <path d="M0,37 L90,37" id="Line"></path>
                <path d="M0,43 L53.8043478,43" id="Line"></path>
            </g>
            <rect id="Rectangle" fill="#B5B5B5" x="0" y="67" width="98" height="55"></rect>
            <g id="Group" transform="translate(109.000000, 68.000000)" stroke="#D6D6D6" stroke-linecap="square" stroke-width="2">
                <path d="M0,25 L90,25" id="Line"></path>
                <path d="M0,19 L90,19" id="Line"></path>
                <path d="M0,13 L90,13" id="Line"></path>
                <path d="M0,7 L90,7" id="Line"></path>
                <path d="M0,1 L90,1" id="Line"></path>
                <path d="M0,31 L90,31" id="Line"></path>
                <path d="M0,37 L90,37" id="Line"></path>
                <path d="M0,43 L53.8043478,43" id="Line"></path>
            </g>
        </g>
    </g>
</svg>