<?xml version="1.0" encoding="UTF-8"?>
<svg width="320px" height="250px" viewBox="0 0 320 250" version="1.1" xmlns="http://www.w3.org/2000/svg" xmlns:xlink="http://www.w3.org/1999/xlink">
    <!-- Generator: Sketch 53 (72520) - https://sketchapp.com -->
    <title>layout_b_f_sid</title>
    <desc>Created with Sketch.</desc>
    <g id="layout_b_f_sid" stroke="none" stroke-width="1" fill="none" fill-rule="evenodd">
        <rect fill="#FFFFFF" x="0" y="0" width="320" height="250"></rect>
        <g id="Group-2" transform="translate(61.000000, 24.000000)">
            <rect id="Rectangle" fill="#B5B5B5" x="0" y="0" width="126" height="70"></rect>
            <rect id="Rectangle" fill="#B5B5B5" x="0" y="125" width="33" height="33"></rect>
            <g id="Group" transform="translate(46.000000, 126.000000)" stroke="#D6D6D6" stroke-linecap="square" stroke-width="2">
                <path d="M0,7 L80,7" id="Line"></path>
                <path d="M0,1 L80,1" id="Line"></path>
                <path d="M0,13 L80,13" id="Line"></path>
                <path d="M0,19 L80,19" id="Line"></path>
                <path d="M0,25 L48,25" id="Line"></path>
            </g>
            <rect id="Rectangle" fill="#B5B5B5" x="0" y="169" width="33" height="33"></rect>
            <g id="Group" transform="translate(46.000000, 170.000000)" stroke="#D6D6D6" stroke-linecap="square" stroke-width="2">
                <path d="M0,7 L80,7" id="Line"></path>
                <path d="M0,1 L80,1" id="Line"></path>
                <path d="M0,13 L80,13" id="Line"></path>
                <path d="M0,19 L80,19" id="Line"></path>
                <path d="M0,25 L48,25" id="Line"></path>
            </g>
            <rect id="Rectangle" fill="#EAEAEA" transform="translate(169.500000, 31.000000) scale(-1, 1) translate(-169.500000, -31.000000) " x="140" y="0" width="59" height="62"></rect>
            <rect id="Rectangle" fill="#EAEAEA" transform="translate(169.500000, 100.500000) scale(-1, 1) translate(-169.500000, -100.500000) " x="140" y="76" width="59" height="49"></rect>
            <rect id="Rectangle" fill="#EAEAEA" transform="translate(169.500000, 170.000000) scale(-1, 1) translate(-169.500000, -170.000000) " x="140" y="139" width="59" height="62"></rect>
            <g id="Group" transform="translate(23.000000, 82.000000)" stroke="#D6D6D6" stroke-linecap="square" stroke-width="2">
                <path d="M0,7 L80,7" id="Line"></path>
                <path d="M0,1 L80,1" id="Line"></path>
                <path d="M0,13 L80,13" id="Line"></path>
                <path d="M0,19 L80,19" id="Line"></path>
                <path d="M0,25 L47.4074074,25" id="Line"></path>
            </g>
        </g>
    </g>
</svg>