<?xml version="1.0" encoding="UTF-8"?>
<svg width="320px" height="170px" viewBox="0 0 320 170" version="1.1" xmlns="http://www.w3.org/2000/svg" xmlns:xlink="http://www.w3.org/1999/xlink">
    <!-- Generator: Sketch 53 (72520) - https://sketchapp.com -->
    <title>layout_f</title>
    <desc>Created with Sketch.</desc>
    <g id="layout_f" stroke="none" stroke-width="1" fill="none" fill-rule="evenodd">
        <rect fill="#FFFFFF" x="0" y="0" width="320" height="170"></rect>
        <g id="Group-2" transform="translate(105.000000, 24.000000)">
            <rect id="Rectangle" fill="#B5B5B5" x="0" y="0" width="33" height="33"></rect>
            <g id="Group" transform="translate(46.000000, 1.000000)" stroke="#D6D6D6" stroke-linecap="square" stroke-width="2">
                <path d="M0,7 L64,7" id="Line"></path>
                <path d="M0,1 L64,1" id="Line"></path>
                <path d="M0,13 L64,13" id="Line"></path>
                <path d="M0,19 L64,19" id="Line"></path>
                <path d="M0,25 L38,25" id="Line"></path>
            </g>
            <rect id="Rectangle" fill="#B5B5B5" x="0" y="45" width="33" height="33"></rect>
            <g id="Group" transform="translate(46.000000, 46.000000)" stroke="#D6D6D6" stroke-linecap="square" stroke-width="2">
                <path d="M0,7 L64,7" id="Line"></path>
                <path d="M0,1 L64,1" id="Line"></path>
                <path d="M0,13 L64,13" id="Line"></path>
                <path d="M0,19 L64,19" id="Line"></path>
                <path d="M0,25 L38,25" id="Line"></path>
            </g>
            <rect id="Rectangle" fill="#B5B5B5" x="0" y="90" width="33" height="33"></rect>
            <g id="Group" transform="translate(46.000000, 91.000000)" stroke="#D6D6D6" stroke-linecap="square" stroke-width="2">
                <path d="M0,7 L64,7" id="Line"></path>
                <path d="M0,1 L64,1" id="Line"></path>
                <path d="M0,13 L64,13" id="Line"></path>
                <path d="M0,19 L64,19" id="Line"></path>
                <path d="M0,25 L38,25" id="Line"></path>
            </g>
        </g>
    </g>
</svg>