<?xml version="1.0" encoding="UTF-8"?>
<svg width="154px" height="26px" viewBox="0 0 154 26" version="1.1" xmlns="http://www.w3.org/2000/svg" xmlns:xlink="http://www.w3.org/1999/xlink">
    <!-- Generator: Sketch 53 (72520) - https://sketchapp.com -->
    <title>pagination_prevnext</title>
    <desc>Created with Sketch.</desc>
    <g id="pagination_prevnext" stroke="none" stroke-width="1" fill="none" fill-rule="evenodd">
        <rect fill="#FFFFFF" x="0" y="0" width="154" height="26"></rect>
        <g id="Group" transform="translate(7.000000, 6.000000)">
            <rect id="Rectangle-3" fill="#B5B5B5" x="0" y="0" width="30" height="14"></rect>
            <rect id="Rectangle-3" fill="#B5B5B5" x="110" y="0" width="30" height="14"></rect>
            <path d="M9.453125,6.73242188 L9.75195312,6.73242188 C10.0312514,6.73242188 10.2402337,6.67724665 10.3789062,6.56689453 C10.5175788,6.45654242 10.5869141,6.29589949 10.5869141,6.08496094 C10.5869141,5.87206925 10.5288092,5.71484426 10.4125977,5.61328125 C10.2963861,5.51171824 10.1142591,5.4609375 9.86621094,5.4609375 L9.453125,5.4609375 L9.453125,6.73242188 Z M11.5039062,6.05273438 C11.5039062,6.51367418 11.3598647,6.86620972 11.0717773,7.11035156 C10.78369,7.35449341 10.3740261,7.4765625 9.84277344,7.4765625 L9.453125,7.4765625 L9.453125,9 L8.54492188,9 L8.54492188,4.71679688 L9.91308594,4.71679688 C10.4326198,4.71679688 10.8276354,4.82861216 11.0981445,5.05224609 C11.3686537,5.27588002 11.5039062,5.60937278 11.5039062,6.05273438 Z M13.2207031,6.61816406 L13.5136719,6.61816406 C13.8007827,6.61816406 14.0126946,6.57031298 14.1494141,6.47460938 C14.2861335,6.37890577 14.3544922,6.22851665 14.3544922,6.0234375 C14.3544922,5.82031148 14.2846687,5.67578168 14.1450195,5.58984375 C14.0053704,5.50390582 13.789064,5.4609375 13.4960938,5.4609375 L13.2207031,5.4609375 L13.2207031,6.61816406 Z M13.2207031,7.35644531 L13.2207031,9 L12.3125,9 L12.3125,4.71679688 L13.5605469,4.71679688 C14.142581,4.71679688 14.5732408,4.82275285 14.8525391,5.03466797 C15.1318373,5.24658309 15.2714844,5.56835722 15.2714844,6 C15.2714844,6.25195438 15.2021491,6.47607324 15.0634766,6.67236328 C14.924804,6.86865333 14.7285169,7.02246038 14.4746094,7.13378906 C15.1191438,8.0966845 15.5390615,8.71874859 15.734375,9 L14.7265625,9 L13.7041016,7.35644531 L13.2207031,7.35644531 Z M18.7402344,9 L16.2734375,9 L16.2734375,4.71679688 L18.7402344,4.71679688 L18.7402344,5.4609375 L17.1816406,5.4609375 L17.1816406,6.40136719 L18.6318359,6.40136719 L18.6318359,7.14550781 L17.1816406,7.14550781 L17.1816406,8.25 L18.7402344,8.25 L18.7402344,9 Z M22.0771484,4.71679688 L22.9941406,4.71679688 L21.5380859,9 L20.5478516,9 L19.0947266,4.71679688 L20.0117188,4.71679688 L20.8173828,7.265625 C20.8623049,7.41601638 20.9086912,7.59130759 20.956543,7.79150391 C21.0043948,7.99170022 21.0341796,8.13085898 21.0458984,8.20898438 C21.0673829,8.02929598 21.1406244,7.714846 21.265625,7.265625 L22.0771484,4.71679688 Z" id="PREV" fill="#FFFFFF" fill-rule="nonzero"></path>
            <path d="M121.481445,9 L120.327148,9 L118.463867,5.75976562 L118.4375,5.75976562 C118.47461,6.33203411 118.493164,6.74023315 118.493164,6.984375 L118.493164,9 L117.681641,9 L117.681641,4.71679688 L118.827148,4.71679688 L120.6875,7.92480469 L120.708008,7.92480469 C120.678711,7.36816128 120.664062,6.97461053 120.664062,6.74414062 L120.664062,4.71679688 L121.481445,4.71679688 L121.481445,9 Z M125.026367,9 L122.55957,9 L122.55957,4.71679688 L125.026367,4.71679688 L125.026367,5.4609375 L123.467773,5.4609375 L123.467773,6.40136719 L124.917969,6.40136719 L124.917969,7.14550781 L123.467773,7.14550781 L123.467773,8.25 L125.026367,8.25 L125.026367,9 Z M129.382812,9 L128.345703,9 L127.349609,7.37988281 L126.353516,9 L125.380859,9 L126.801758,6.79101562 L125.47168,4.71679688 L126.473633,4.71679688 L127.396484,6.2578125 L128.301758,4.71679688 L129.280273,4.71679688 L127.935547,6.84082031 L129.382812,9 Z M131.574219,9 L130.666016,9 L130.666016,5.47265625 L129.50293,5.47265625 L129.50293,4.71679688 L132.737305,4.71679688 L132.737305,5.47265625 L131.574219,5.47265625 L131.574219,9 Z" id="NEXT" fill="#FFFFFF" fill-rule="nonzero"></path>
        </g>
    </g>
</svg>