<?xml version="1.0" encoding="UTF-8"?>
<svg width="154px" height="26px" viewBox="0 0 154 26" version="1.1" xmlns="http://www.w3.org/2000/svg" xmlns:xlink="http://www.w3.org/1999/xlink">
    <!-- Generator: Sketch 53 (72520) - https://sketchapp.com -->
    <title>pagination_loadmore</title>
    <desc>Created with Sketch.</desc>
    <g id="pagination_loadmore" stroke="none" stroke-width="1" fill="none" fill-rule="evenodd">
        <rect fill="#FFFFFF" x="0" y="0" width="154" height="26"></rect>
        <g id="Group" transform="translate(50.000000, 6.000000)">
            <rect id="Rectangle-3" fill="#B5B5B5" x="0" y="0" width="55" height="14"></rect>
            <path d="M10.0097656,9 L10.0097656,4.71679688 L10.9179688,4.71679688 L10.9179688,8.25 L12.6552734,8.25 L12.6552734,9 L10.0097656,9 Z M17.2871094,6.85253906 C17.2871094,7.56152698 17.1113299,8.10644341 16.7597656,8.48730469 C16.4082014,8.86816597 15.9043002,9.05859375 15.2480469,9.05859375 C14.5917936,9.05859375 14.0878924,8.86816597 13.7363281,8.48730469 C13.3847639,8.10644341 13.2089844,7.55957388 13.2089844,6.84667969 C13.2089844,6.1337855 13.3852521,5.58935735 13.737793,5.21337891 C14.0903338,4.83740046 14.5956998,4.64941406 15.2539062,4.64941406 C15.9121127,4.64941406 16.4155256,4.83886529 16.7641602,5.21777344 C17.1127947,5.59668158 17.2871094,6.14159801 17.2871094,6.85253906 Z M14.1611328,6.85253906 C14.1611328,7.33105708 14.2519522,7.69140504 14.4335938,7.93359375 C14.6152353,8.17578246 14.8867169,8.296875 15.2480469,8.296875 C15.9726599,8.296875 16.3349609,7.8154345 16.3349609,6.85253906 C16.3349609,5.88769049 15.974613,5.40527344 15.2539062,5.40527344 C14.8925763,5.40527344 14.6201181,5.52685425 14.4365234,5.77001953 C14.2529288,6.01318481 14.1611328,6.37402104 14.1611328,6.85253906 Z M20.796875,9 L20.4863281,7.98046875 L18.9248047,7.98046875 L18.6142578,9 L17.6357422,9 L19.1474609,4.69921875 L20.2578125,4.69921875 L21.7753906,9 L20.796875,9 Z M20.2695312,7.21875 C19.9824204,6.29491726 19.820801,5.77246154 19.784668,5.65136719 C19.748535,5.53027283 19.7226563,5.43457066 19.7070312,5.36425781 C19.6425778,5.61425906 19.4580093,6.23241694 19.1533203,7.21875 L20.2695312,7.21875 Z M25.8681641,6.81738281 C25.8681641,7.52246446 25.6674825,8.06249812 25.2661133,8.4375 C24.8647441,8.81250188 24.28516,9 23.5273438,9 L22.3144531,9 L22.3144531,4.71679688 L23.6591797,4.71679688 C24.3584019,4.71679688 24.9013653,4.90136534 25.2880859,5.27050781 C25.6748066,5.63965028 25.8681641,6.15527013 25.8681641,6.81738281 Z M24.9248047,6.84082031 C24.9248047,5.92089384 24.5185588,5.4609375 23.7060547,5.4609375 L23.2226562,5.4609375 L23.2226562,8.25 L23.6123047,8.25 C24.4873091,8.25 24.9248047,7.78027813 24.9248047,6.84082031 Z M30.1279297,9 L29.0966797,5.63964844 L29.0703125,5.63964844 C29.1074221,6.32324561 29.1259766,6.77929573 29.1259766,7.0078125 L29.1259766,9 L28.3144531,9 L28.3144531,4.71679688 L29.5507812,4.71679688 L30.5644531,7.9921875 L30.5820312,7.9921875 L31.6572266,4.71679688 L32.8935547,4.71679688 L32.8935547,9 L32.046875,9 L32.046875,6.97265625 C32.046875,6.87695265 32.0483398,6.76660219 32.0512695,6.64160156 C32.0541992,6.51660094 32.0673827,6.18457301 32.0908203,5.64550781 L32.0644531,5.64550781 L30.9599609,9 L30.1279297,9 Z M37.859375,6.85253906 C37.859375,7.56152698 37.6835955,8.10644341 37.3320312,8.48730469 C36.980467,8.86816597 36.4765658,9.05859375 35.8203125,9.05859375 C35.1640592,9.05859375 34.660158,8.86816597 34.3085938,8.48730469 C33.9570295,8.10644341 33.78125,7.55957388 33.78125,6.84667969 C33.78125,6.1337855 33.9575178,5.58935735 34.3100586,5.21337891 C34.6625994,4.83740046 35.1679655,4.64941406 35.8261719,4.64941406 C36.4843783,4.64941406 36.9877912,4.83886529 37.3364258,5.21777344 C37.6850603,5.59668158 37.859375,6.14159801 37.859375,6.85253906 Z M34.7333984,6.85253906 C34.7333984,7.33105708 34.8242178,7.69140504 35.0058594,7.93359375 C35.1875009,8.17578246 35.4589826,8.296875 35.8203125,8.296875 C36.5449255,8.296875 36.9072266,7.8154345 36.9072266,6.85253906 C36.9072266,5.88769049 36.5468786,5.40527344 35.8261719,5.40527344 C35.4648419,5.40527344 35.1923837,5.52685425 35.0087891,5.77001953 C34.8251944,6.01318481 34.7333984,6.37402104 34.7333984,6.85253906 Z M39.6552734,6.61816406 L39.9482422,6.61816406 C40.235353,6.61816406 40.4472649,6.57031298 40.5839844,6.47460938 C40.7207038,6.37890577 40.7890625,6.22851665 40.7890625,6.0234375 C40.7890625,5.82031148 40.719239,5.67578168 40.5795898,5.58984375 C40.4399407,5.50390582 40.2236343,5.4609375 39.9306641,5.4609375 L39.6552734,5.4609375 L39.6552734,6.61816406 Z M39.6552734,7.35644531 L39.6552734,9 L38.7470703,9 L38.7470703,4.71679688 L39.9951172,4.71679688 C40.5771513,4.71679688 41.0078111,4.82275285 41.2871094,5.03466797 C41.5664076,5.24658309 41.7060547,5.56835722 41.7060547,6 C41.7060547,6.25195438 41.6367194,6.47607324 41.4980469,6.67236328 C41.3593743,6.86865333 41.1630872,7.02246038 40.9091797,7.13378906 C41.5537142,8.0966845 41.9736318,8.71874859 42.1689453,9 L41.1611328,9 L40.1386719,7.35644531 L39.6552734,7.35644531 Z M45.1748047,9 L42.7080078,9 L42.7080078,4.71679688 L45.1748047,4.71679688 L45.1748047,5.4609375 L43.6162109,5.4609375 L43.6162109,6.40136719 L45.0664062,6.40136719 L45.0664062,7.14550781 L43.6162109,7.14550781 L43.6162109,8.25 L45.1748047,8.25 L45.1748047,9 Z" id="LOADMORE" fill="#FFFFFF" fill-rule="nonzero"></path>
        </g>
    </g>
</svg>