<?xml version="1.0" encoding="UTF-8"?>
<svg width="154px" height="26px" viewBox="0 0 154 26" version="1.1" xmlns="http://www.w3.org/2000/svg" xmlns:xlink="http://www.w3.org/1999/xlink">
    <!-- Generator: Sketch 53 (72520) - https://sketchapp.com -->
    <title>pagination_numeric</title>
    <desc>Created with Sketch.</desc>
    <g id="pagination_numeric" stroke="none" stroke-width="1" fill="none" fill-rule="evenodd">
        <rect fill="#FFFFFF" x="0" y="0" width="154" height="26"></rect>
        <g id="Group-3" transform="translate(7.000000, 6.000000)">
            <rect id="Rectangle-3" fill="#B5B5B5" x="0" y="0" width="30" height="14"></rect>
            <rect id="Rectangle-3" fill="#B5B5B5" x="110" y="0" width="30" height="14"></rect>
            <g id="Group-2" transform="translate(39.000000, 0.000000)">
                <g id="Group">
                    <rect id="Rectangle-3" stroke="#D8D8D8" x="0.5" y="0.5" width="13" height="13"></rect>
                    <rect id="Rectangle-3" fill="#B5B5B5" x="17" y="0" width="14" height="14"></rect>
                    <rect id="Rectangle-3" fill="#B5B5B5" x="49" y="0" width="14" height="14"></rect>
                    <circle id="Oval" fill="#D8D8D8" cx="36.5" cy="7.5" r="1.5"></circle>
                    <circle id="Oval" fill="#D8D8D8" cx="40.5" cy="7.5" r="1.5"></circle>
                    <circle id="Oval" fill="#D8D8D8" cx="44.5" cy="7.5" r="1.5"></circle>
                </g>
                <path d="M8.02148438,10 L6.81445312,10 L6.81445312,6.6953125 L6.82617188,6.15234375 L6.84570312,5.55859375 C6.64518129,5.75911559 6.50585977,5.89062469 6.42773438,5.953125 L5.77148438,6.48046875 L5.18945312,5.75390625 L7.02929688,4.2890625 L8.02148438,4.2890625 L8.02148438,10 Z" id="1" fill="#D6D6D6" fill-rule="nonzero"></path>
                <path d="M26.0292969,10 L22.0371094,10 L22.0371094,9.16015625 L23.4707031,7.7109375 C23.8951844,7.27603949 24.1725254,6.97461021 24.3027344,6.80664062 C24.4329434,6.63867104 24.5266924,6.48307363 24.5839844,6.33984375 C24.6412763,6.19661387 24.6699219,6.04817785 24.6699219,5.89453125 C24.6699219,5.66536344 24.6067715,5.49479223 24.4804688,5.3828125 C24.354166,5.27083277 24.1855479,5.21484375 23.9746094,5.21484375 C23.7532541,5.21484375 23.5384125,5.26562449 23.3300781,5.3671875 C23.1217438,5.46875051 22.904298,5.61328031 22.6777344,5.80078125 L22.0214844,5.0234375 C22.3027358,4.78385297 22.5358064,4.61458383 22.7207031,4.515625 C22.9055999,4.41666617 23.1074208,4.34049506 23.3261719,4.28710938 C23.544923,4.23372369 23.7897122,4.20703125 24.0605469,4.20703125 C24.4173195,4.20703125 24.7324205,4.27213477 25.0058594,4.40234375 C25.2792982,4.53255273 25.4915357,4.71484258 25.6425781,4.94921875 C25.7936205,5.18359492 25.8691406,5.45182141 25.8691406,5.75390625 C25.8691406,6.0169284 25.8229171,6.26367072 25.7304688,6.49414062 C25.6380204,6.72461053 25.4947926,6.96093629 25.3007812,7.203125 C25.1067699,7.44531371 24.7649764,7.79036234 24.2753906,8.23828125 L23.5410156,8.9296875 L23.5410156,8.984375 L26.0292969,8.984375 L26.0292969,10 Z" id="2" fill="#FFFFFF" fill-rule="nonzero"></path>
                <path d="M56.1152344,6.3515625 C56.6673205,6.3515625 57.1067692,6.50650887 57.4335938,6.81640625 C57.7604183,7.12630363 57.9238281,7.55077855 57.9238281,8.08984375 C57.9238281,8.72786777 57.7272155,9.21874828 57.3339844,9.5625 C56.9407532,9.90625172 56.3782589,10.078125 55.6464844,10.078125 C55.0110645,10.078125 54.4980488,9.97526145 54.1074219,9.76953125 L54.1074219,8.7265625 C54.3131521,8.83593805 54.552733,8.92512986 54.8261719,8.99414062 C55.0996107,9.06315139 55.3587227,9.09765625 55.6035156,9.09765625 C56.3404985,9.09765625 56.7089844,8.79557594 56.7089844,8.19140625 C56.7089844,7.61588254 56.3274778,7.328125 55.5644531,7.328125 C55.4264316,7.328125 55.2740894,7.34179674 55.1074219,7.36914062 C54.9407544,7.39648451 54.8053391,7.42578109 54.7011719,7.45703125 L54.2207031,7.19921875 L54.4355469,4.2890625 L57.5332031,4.2890625 L57.5332031,5.3125 L55.4941406,5.3125 L55.3886719,6.43359375 L55.5253906,6.40625 C55.6842456,6.36979148 55.8808582,6.3515625 56.1152344,6.3515625 Z" id="5" fill="#FFFFFF" fill-rule="nonzero"></path>
            </g>
            <path d="M9.453125,6.73242188 L9.75195312,6.73242188 C10.0312514,6.73242188 10.2402337,6.67724665 10.3789062,6.56689453 C10.5175788,6.45654242 10.5869141,6.29589949 10.5869141,6.08496094 C10.5869141,5.87206925 10.5288092,5.71484426 10.4125977,5.61328125 C10.2963861,5.51171824 10.1142591,5.4609375 9.86621094,5.4609375 L9.453125,5.4609375 L9.453125,6.73242188 Z M11.5039062,6.05273438 C11.5039062,6.51367418 11.3598647,6.86620972 11.0717773,7.11035156 C10.78369,7.35449341 10.3740261,7.4765625 9.84277344,7.4765625 L9.453125,7.4765625 L9.453125,9 L8.54492188,9 L8.54492188,4.71679688 L9.91308594,4.71679688 C10.4326198,4.71679688 10.8276354,4.82861216 11.0981445,5.05224609 C11.3686537,5.27588002 11.5039062,5.60937278 11.5039062,6.05273438 Z M13.2207031,6.61816406 L13.5136719,6.61816406 C13.8007827,6.61816406 14.0126946,6.57031298 14.1494141,6.47460938 C14.2861335,6.37890577 14.3544922,6.22851665 14.3544922,6.0234375 C14.3544922,5.82031148 14.2846687,5.67578168 14.1450195,5.58984375 C14.0053704,5.50390582 13.789064,5.4609375 13.4960938,5.4609375 L13.2207031,5.4609375 L13.2207031,6.61816406 Z M13.2207031,7.35644531 L13.2207031,9 L12.3125,9 L12.3125,4.71679688 L13.5605469,4.71679688 C14.142581,4.71679688 14.5732408,4.82275285 14.8525391,5.03466797 C15.1318373,5.24658309 15.2714844,5.56835722 15.2714844,6 C15.2714844,6.25195438 15.2021491,6.47607324 15.0634766,6.67236328 C14.924804,6.86865333 14.7285169,7.02246038 14.4746094,7.13378906 C15.1191438,8.0966845 15.5390615,8.71874859 15.734375,9 L14.7265625,9 L13.7041016,7.35644531 L13.2207031,7.35644531 Z M18.7402344,9 L16.2734375,9 L16.2734375,4.71679688 L18.7402344,4.71679688 L18.7402344,5.4609375 L17.1816406,5.4609375 L17.1816406,6.40136719 L18.6318359,6.40136719 L18.6318359,7.14550781 L17.1816406,7.14550781 L17.1816406,8.25 L18.7402344,8.25 L18.7402344,9 Z M22.0771484,4.71679688 L22.9941406,4.71679688 L21.5380859,9 L20.5478516,9 L19.0947266,4.71679688 L20.0117188,4.71679688 L20.8173828,7.265625 C20.8623049,7.41601638 20.9086912,7.59130759 20.956543,7.79150391 C21.0043948,7.99170022 21.0341796,8.13085898 21.0458984,8.20898438 C21.0673829,8.02929598 21.1406244,7.714846 21.265625,7.265625 L22.0771484,4.71679688 Z" id="PREV" fill="#FFFFFF" fill-rule="nonzero"></path>
            <path d="M121.481445,9 L120.327148,9 L118.463867,5.75976562 L118.4375,5.75976562 C118.47461,6.33203411 118.493164,6.74023315 118.493164,6.984375 L118.493164,9 L117.681641,9 L117.681641,4.71679688 L118.827148,4.71679688 L120.6875,7.92480469 L120.708008,7.92480469 C120.678711,7.36816128 120.664062,6.97461053 120.664062,6.74414062 L120.664062,4.71679688 L121.481445,4.71679688 L121.481445,9 Z M125.026367,9 L122.55957,9 L122.55957,4.71679688 L125.026367,4.71679688 L125.026367,5.4609375 L123.467773,5.4609375 L123.467773,6.40136719 L124.917969,6.40136719 L124.917969,7.14550781 L123.467773,7.14550781 L123.467773,8.25 L125.026367,8.25 L125.026367,9 Z M129.382812,9 L128.345703,9 L127.349609,7.37988281 L126.353516,9 L125.380859,9 L126.801758,6.79101562 L125.47168,4.71679688 L126.473633,4.71679688 L127.396484,6.2578125 L128.301758,4.71679688 L129.280273,4.71679688 L127.935547,6.84082031 L129.382812,9 Z M131.574219,9 L130.666016,9 L130.666016,5.47265625 L129.50293,5.47265625 L129.50293,4.71679688 L132.737305,4.71679688 L132.737305,5.47265625 L131.574219,5.47265625 L131.574219,9 Z" id="NEXT" fill="#FFFFFF" fill-rule="nonzero"></path>
        </g>
    </g>
</svg>