<?xml version="1.0" encoding="UTF-8"?>
<svg width="154px" height="50px" viewBox="0 0 154 50" version="1.1" xmlns="http://www.w3.org/2000/svg" xmlns:xlink="http://www.w3.org/1999/xlink">
    <!-- Generator: Sketch 53.2 (72643) - https://sketchapp.com -->
    <title>preset_font_3</title>
    <desc>Created with Sketch.</desc>
    <g id="preset_font_3" stroke="none" stroke-width="1" fill="none" fill-rule="evenodd">
        <rect fill="#FFFFFF" x="0" y="0" width="154" height="50"></rect>
        <path d="M40.48,17.556 L38.364,17.809 C38.3333332,18.7750048 38.318,19.7524951 38.318,20.7415 L38.318,27.377 C38.318,28.0210032 38.3141667,28.5844976 38.3065,29.0675 C38.2988333,29.5505024 38.2835001,29.9836647 38.2605,30.367 C38.2374999,30.7503352 38.2068335,31.0991651 38.1685,31.4135 C38.1301665,31.7278349 38.0803336,32.0306652 38.019,32.322 C37.8963327,32.9046696 37.6970014,33.4068312 37.421,33.8285 C37.1449986,34.2501688 36.811502,34.6066652 36.4205,34.898 C36.029498,35.1893348 35.600169,35.4039993 35.1325,35.542 C34.664831,35.6800007 34.1933357,35.749 33.718,35.749 C33.2886645,35.749 32.8746687,35.6723341 32.476,35.519 C32.0773313,35.3656659 31.8166673,35.0666689 31.694,34.622 C31.770667,34.2079979 31.9354987,33.9166675 32.1885,33.748 C32.4415013,33.5793325 32.7443316,33.495 33.097,33.495 C33.3883348,33.495 33.664332,33.5448328 33.925,33.6445 C34.185668,33.7441672 34.4769984,33.924332 34.799,34.185 L35.42,34.668 C35.7113348,34.330665 35.9298326,33.9435022 36.0755,33.5065 C36.2211674,33.0694978 36.294,32.5290032 36.294,31.885 C36.294,31.547665 36.2863334,31.1068361 36.271,30.5625 C36.2556666,30.0181639 36.2403334,29.2323385 36.225,28.205 C36.2096666,27.1776615 36.1866668,25.832175 36.156,24.1685 C36.1253332,22.504825 36.1023334,20.3850129 36.087,17.809 L33.741,17.556 L33.741,16.613 L40.48,16.613 L40.48,17.556 Z M46.127,21.765 C45.1149949,21.765 44.3406693,22.1751626 43.804,22.9955 C43.2673306,23.8158374 42.999,25.0079922 42.999,26.572 C42.999,28.1206744 43.2673306,29.297496 43.804,30.1025 C44.3406693,30.907504 45.1149949,31.31 46.127,31.31 C47.1236716,31.31 47.8903306,30.907504 48.427,30.1025 C48.9636693,29.297496 49.232,28.1206744 49.232,26.572 C49.232,25.0079922 48.9636693,23.8158374 48.427,22.9955 C47.8903306,22.1751626 47.1236716,21.765 46.127,21.765 Z M46.127,20.707 C46.7863366,20.707 47.4341635,20.8334987 48.0705,21.0865 C48.7068365,21.3395013 49.2703309,21.7151642 49.761,22.2135 C50.2516691,22.7118358 50.6503318,23.325163 50.957,24.0535 C51.2636682,24.781837 51.417,25.6213286 51.417,26.572 C51.417,27.5226714 51.2675015,28.3583297 50.9685,29.079 C50.6694985,29.7996703 50.2708358,30.4014976 49.7725,30.8845 C49.2741642,31.3675024 48.7068365,31.7316654 48.0705,31.977 C47.4341635,32.2223346 46.7863366,32.345 46.127,32.345 C45.45233,32.345 44.7968365,32.2223346 44.1605,31.977 C43.5241635,31.7316654 42.9606691,31.3675024 42.47,30.8845 C41.9793309,30.4014976 41.5845015,29.7996703 41.2855,29.079 C40.9864985,28.3583297 40.837,27.5226714 40.837,26.572 C40.837,25.6213286 40.9864985,24.781837 41.2855,24.0535 C41.5845015,23.325163 41.9831642,22.7118358 42.4815,22.2135 C42.9798358,21.7151642 43.5433302,21.3395013 44.172,21.0865 C44.8006698,20.8334987 45.45233,20.707 46.127,20.707 Z M64.355,31.172 L64.355,32 L59.019,32 L59.019,31.172 L60.721,30.85 C60.7363334,30.2826638 60.7478333,29.66167 60.7555,28.987 C60.7631667,28.31233 60.767,27.7066693 60.767,27.17 L60.767,25.146 C60.767,24.1033281 60.6213348,23.3750021 60.33,22.961 C60.0386652,22.5469979 59.55567,22.34 58.881,22.34 C58.3289972,22.34 57.8000025,22.4588321 57.294,22.6965 C56.7879975,22.9341679 56.2283364,23.3213307 55.615,23.858 L55.615,27.17 C55.615,27.6760025 55.6188333,28.2701633 55.6265,28.9525 C55.6341667,29.6348367 55.6456666,30.2673304 55.661,30.85 L57.248,31.172 L57.248,32 L51.912,32 L51.912,31.172 L53.637,30.85 C53.6523334,30.2673304 53.6638333,29.6348367 53.6715,28.9525 C53.6791667,28.2701633 53.683,27.6760025 53.683,27.17 L53.683,17.303 L51.797,17.073 L51.797,16.268 L55.316,15.233 L55.638,15.417 L55.546,18.683 L55.546,22.846 C56.1133362,22.2019968 56.7726629,21.684502 57.524,21.2935 C58.2753371,20.902498 59.0189963,20.707 59.755,20.707 C60.7516716,20.707 61.4914976,21.0366634 61.9745,21.696 C62.4575024,22.3553366 62.699,23.4439924 62.699,24.962 L62.699,27.17 C62.699,27.7066693 62.7028333,28.3084967 62.7105,28.9755 C62.7181667,29.6425033 62.7296666,30.2673304 62.745,30.85 L64.355,31.172 Z M71.52,26.043 C71.1213313,26.1503339 70.7341685,26.2653327 70.3585,26.388 C69.9828315,26.5106673 69.6723346,26.6179995 69.427,26.71 C68.9209975,26.9093343 68.5185015,27.112499 68.2195,27.3195 C67.9204985,27.526501 67.6943341,27.7296657 67.541,27.929 C67.3876659,28.1283343 67.2880002,28.3276657 67.242,28.527 C67.1959998,28.7263343 67.173,28.9103325 67.173,29.079 C67.173,29.3856682 67.2151662,29.6309991 67.2995,29.815 C67.3838338,29.9990009 67.4873327,30.1599993 67.61,30.298 C67.9626684,30.6506684 68.4303304,30.827 69.013,30.827 C69.1970009,30.827 69.3733325,30.8078335 69.542,30.7695 C69.7106675,30.7311665 69.8869991,30.6621672 70.071,30.5625 C70.2550009,30.4628328 70.4619988,30.3325008 70.692,30.1715 C70.9220011,30.0104992 71.1979984,29.8150012 71.52,29.585 L71.52,26.043 Z M75.66,31.011 C75.399332,31.5016691 75.1156682,31.8274992 74.809,31.9885 C74.5023318,32.1495008 74.1650018,32.23 73.797,32.23 C73.1529968,32.23 72.6470018,32.0728349 72.279,31.7585 C71.9109982,31.4441651 71.6733339,31.0263359 71.566,30.505 C71.2593318,30.8116682 70.975668,31.0799989 70.715,31.31 C70.454332,31.5400012 70.193668,31.7316659 69.933,31.885 C69.672332,32.0383341 69.4040014,32.1533329 69.128,32.23 C68.8519986,32.3066671 68.545335,32.345 68.208,32.345 C67.7939979,32.345 67.3991685,32.2836673 67.0235,32.161 C66.6478315,32.0383327 66.3181681,31.8543346 66.0345,31.609 C65.7508319,31.3636654 65.5285008,31.0608351 65.3675,30.7005 C65.2064992,30.3401649 65.126,29.9223357 65.126,29.447 C65.126,29.1249984 65.1796661,28.8106682 65.287,28.504 C65.3943339,28.1973318 65.5859986,27.9021681 65.862,27.6185 C66.1380014,27.3348319 66.5251642,27.0511681 67.0235,26.7675 C67.5218358,26.4838319 68.1619961,26.2040014 68.944,25.928 C69.2966684,25.8053327 69.6991644,25.678834 70.1515,25.5485 C70.6038356,25.418166 71.0599977,25.2916673 71.52,25.169 L71.52,24.548 C71.52,23.9959972 71.4778338,23.5398351 71.3935,23.1795 C71.3091662,22.8191649 71.1826675,22.535501 71.014,22.3285 C70.8453325,22.121499 70.6268347,21.9758338 70.3585,21.8915 C70.0901653,21.8071662 69.7643352,21.765 69.381,21.765 C69.2123325,21.765 69.0321676,21.7726666 68.8405,21.788 C68.6488324,21.8033334 68.4380011,21.8339998 68.208,21.88 L67.748,23.49 C67.5333323,24.2260037 67.1193364,24.594 66.506,24.594 C66.1839984,24.594 65.9310009,24.5058342 65.747,24.3295 C65.5629991,24.1531658 65.4556668,23.9116682 65.425,23.605 C65.6396677,22.7309956 66.1456627,22.0295026 66.943,21.5005 C67.7403373,20.9714974 68.7293274,20.707 69.91,20.707 C71.1213394,20.707 72.0183304,21.0136636 72.601,21.627 C73.1836696,22.2403364 73.475,23.2829926 73.475,24.755 L73.475,29.677 C73.475,30.5816712 73.7279975,31.034 74.234,31.034 C74.4180009,31.034 74.5789993,30.9918338 74.717,30.9075 C74.8550007,30.8231662 74.9776661,30.7350005 75.085,30.643 L75.2,30.505 L75.66,31.011 Z M87.954,31.172 L87.954,32 L82.618,32 L82.618,31.172 L84.32,30.85 C84.3353334,30.2826638 84.3468333,29.66167 84.3545,28.987 C84.3621667,28.31233 84.366,27.7066693 84.366,27.17 L84.366,25.146 C84.366,24.1033281 84.2203348,23.3750021 83.929,22.961 C83.6376652,22.5469979 83.15467,22.34 82.48,22.34 C81.9433306,22.34 81.4258358,22.4549989 80.9275,22.685 C80.4291642,22.9150012 79.8886696,23.2829975 79.306,23.789 L79.306,27.17 C79.306,27.6760025 79.3098333,28.2701633 79.3175,28.9525 C79.3251667,29.6348367 79.3366666,30.2673304 79.352,30.85 L80.962,31.172 L80.962,32 L75.626,32 L75.626,31.172 L77.328,30.85 C77.3433334,30.2673304 77.3548333,29.63867 77.3625,28.964 C77.3701667,28.28933 77.374,27.6913359 77.374,27.17 L77.374,25.997 C77.374,25.3683302 77.3663334,24.8470021 77.351,24.433 C77.3356666,24.0189979 77.3203334,23.5820023 77.305,23.122 L75.488,22.915 L75.488,22.11 L78.685,20.707 L79.03,20.937 L79.214,22.8 C79.7813362,22.1713302 80.429163,21.6653352 81.1575,21.282 C81.885837,20.8986648 82.6179963,20.707 83.354,20.707 C84.3506716,20.707 85.0904976,21.0366634 85.5735,21.696 C86.0565024,22.3553366 86.298,23.4439924 86.298,24.962 L86.298,27.17 C86.298,27.7066693 86.3018333,28.3084967 86.3095,28.9755 C86.3171667,29.6425033 86.3286666,30.2673304 86.344,30.85 L87.954,31.172 Z M100.915,31.172 L100.915,32 L95.579,32 L95.579,31.172 L97.281,30.85 C97.2963334,30.2826638 97.3078333,29.66167 97.3155,28.987 C97.3231667,28.31233 97.327,27.7066693 97.327,27.17 L97.327,25.146 C97.327,24.1033281 97.1813348,23.3750021 96.89,22.961 C96.5986652,22.5469979 96.11567,22.34 95.441,22.34 C94.9043306,22.34 94.3868358,22.4549989 93.8885,22.685 C93.3901642,22.9150012 92.8496696,23.2829975 92.267,23.789 L92.267,27.17 C92.267,27.6760025 92.2708333,28.2701633 92.2785,28.9525 C92.2861667,29.6348367 92.2976666,30.2673304 92.313,30.85 L93.923,31.172 L93.923,32 L88.587,32 L88.587,31.172 L90.289,30.85 C90.3043334,30.2673304 90.3158333,29.63867 90.3235,28.964 C90.3311667,28.28933 90.335,27.6913359 90.335,27.17 L90.335,25.997 C90.335,25.3683302 90.3273334,24.8470021 90.312,24.433 C90.2966666,24.0189979 90.2813334,23.5820023 90.266,23.122 L88.449,22.915 L88.449,22.11 L91.646,20.707 L91.991,20.937 L92.175,22.8 C92.7423362,22.1713302 93.390163,21.6653352 94.1185,21.282 C94.846837,20.8986648 95.5789963,20.707 96.315,20.707 C97.3116716,20.707 98.0514976,21.0366634 98.5345,21.696 C99.0175024,22.3553366 99.259,23.4439924 99.259,24.962 L99.259,27.17 C99.259,27.7066693 99.2628333,28.3084967 99.2705,28.9755 C99.2781667,29.6425033 99.2896666,30.2673304 99.305,30.85 L100.915,31.172 Z M107.988,25.445 C108.540003,25.445 108.907999,25.3300012 109.092,25.1 C109.276001,24.8699989 109.368,24.586335 109.368,24.249 C109.368,23.9269984 109.302834,23.6165015 109.1725,23.3175 C109.042166,23.0184985 108.865834,22.7540012 108.6435,22.524 C108.421166,22.2939989 108.160501,22.1100007 107.8615,21.972 C107.562499,21.8339993 107.236668,21.765 106.884,21.765 C106.561998,21.765 106.228502,21.830166 105.8835,21.9605 C105.538498,22.090834 105.224168,22.3054985 104.9405,22.6045 C104.656832,22.9035015 104.411501,23.286831 104.2045,23.7545 C103.997499,24.222169 103.863334,24.7856634 103.802,25.445 L107.988,25.445 Z M103.756,26.434 C103.786667,27.8600071 104.13933,28.9563295 104.814,29.723 C105.48867,30.4896705 106.377994,30.873 107.482,30.873 C108.218004,30.873 108.831331,30.7196682 109.322,30.413 C109.812669,30.1063318 110.264998,29.7076691 110.679,29.217 L111.231,29.654 C110.832331,30.4820041 110.26117,31.1374976 109.5175,31.6205 C108.77383,32.1035024 107.873005,32.345 106.815,32.345 C106.032996,32.345 105.32767,32.214668 104.699,31.954 C104.07033,31.693332 103.533669,31.3138358 103.089,30.8155 C102.644331,30.3171642 102.299335,29.7153369 102.054,29.01 C101.808665,28.3046631 101.686,27.5150044 101.686,26.641 C101.686,25.7669956 101.823999,24.965837 102.1,24.2375 C102.376001,23.509163 102.755498,22.8843359 103.2385,22.363 C103.721502,21.8416641 104.284997,21.4353348 104.929,21.144 C105.573003,20.8526652 106.25533,20.707 106.976,20.707 C107.574003,20.707 108.137497,20.8066657 108.6665,21.006 C109.195503,21.2053343 109.651665,21.4966648 110.035,21.88 C110.418335,22.2633353 110.721166,22.7309972 110.9435,23.283 C111.165834,23.8350028 111.277,24.4559966 111.277,25.146 C111.277,25.406668 111.261667,25.6443323 111.231,25.859 C111.200333,26.0736677 111.162,26.2653325 111.116,26.434 L103.756,26.434 Z M117.269,25.629 C118.434339,26.0583355 119.250831,26.5528305 119.7185,27.1125 C120.186169,27.6721695 120.42,28.3123297 120.42,29.033 C120.42,29.4623355 120.328001,29.8763313 120.144,30.275 C119.959999,30.6736687 119.680169,31.0263318 119.3045,31.333 C118.928831,31.6396682 118.461169,31.8849991 117.9015,32.069 C117.341831,32.2530009 116.694004,32.345 115.958,32.345 C115.298663,32.345 114.704503,32.2721674 114.1755,32.1265 C113.646497,31.9808326 113.09067,31.7546682 112.508,31.448 L112.439,28.941 L113.704,28.941 L114.141,30.919 C114.677669,31.1643346 115.298663,31.287 116.004,31.287 C116.878004,31.287 117.529665,31.1260016 117.959,30.804 C118.388335,30.4819984 118.603,30.0526693 118.603,29.516 C118.603,29.0253309 118.422835,28.6343348 118.0625,28.343 C117.702165,28.0516652 117.154004,27.7680014 116.418,27.492 L115.36,27.101 C114.516662,26.7943318 113.842003,26.3918358 113.336,25.8935 C112.829997,25.3951642 112.577,24.7780037 112.577,24.042 C112.577,23.5973311 112.672832,23.1756687 112.8645,22.777 C113.056168,22.3783313 113.324498,22.0256682 113.6695,21.719 C114.014502,21.4123318 114.436164,21.1670009 114.9345,20.983 C115.432836,20.7989991 115.988664,20.707 116.602,20.707 C117.23067,20.707 117.797997,20.7874992 118.304,20.9485 C118.810003,21.1095008 119.315997,21.3433318 119.822,21.65 L119.73,23.996 L118.534,23.996 L118.189,22.156 C117.636997,21.895332 117.100336,21.765 116.579,21.765 C115.873663,21.765 115.340835,21.9144985 114.9805,22.2135 C114.620165,22.5125015 114.44,22.9226641 114.44,23.444 C114.44,23.9040023 114.597165,24.2681653 114.9115,24.5365 C115.225835,24.8048347 115.781663,25.0846652 116.579,25.376 L117.269,25.629 Z" id="Johannes" fill="#424851" fill-rule="nonzero"></path>
    </g>
</svg>