<?xml version="1.0" encoding="UTF-8"?>
<svg width="154px" height="50px" viewBox="0 0 154 50" version="1.1" xmlns="http://www.w3.org/2000/svg" xmlns:xlink="http://www.w3.org/1999/xlink">
    <!-- Generator: Sketch 53.2 (72643) - https://sketchapp.com -->
    <title>preset_font_9</title>
    <desc>Created with Sketch.</desc>
    <g id="preset_font_9" stroke="none" stroke-width="1" fill="none" fill-rule="evenodd">
        <rect fill="#FFFFFF" x="0" y="0" width="154" height="50"></rect>
        <path d="M41.1976681,16.359375 L41.1976681,17.7236328 L39.4466915,18.0244141 L39.4466915,27.6708984 C39.4466915,29.0673898 39.0044759,30.1756144 38.1200314,30.9956055 C37.2355868,31.8155965 36.0879746,32.2255859 34.6771603,32.2255859 C33.1732465,32.2255859 31.9772949,31.8442421 31.0892696,31.081543 C30.2012444,30.3188438 29.7751419,29.2106192 29.8109493,27.7568359 L29.8324337,27.6923828 L31.8627071,27.6923828 C31.8627071,28.6591845 32.1079846,29.3806942 32.598547,29.8569336 C33.0891093,30.333173 33.7819735,30.5712891 34.6771603,30.5712891 C35.4577631,30.5712891 36.0951265,30.3081081 36.5892696,29.7817383 C37.0834127,29.2553685 37.3304806,28.5517622 37.3304806,27.6708984 L37.3304806,18.0244141 L35.579504,17.7236328 L35.579504,16.359375 L41.1976681,16.359375 Z M41.8417325,26.0810547 C41.8417325,24.3622961 42.3072226,22.9461319 43.2382169,21.8325195 C44.1692111,20.7189072 45.4331959,20.1621094 47.0302091,20.1621094 C48.6343838,20.1621094 49.9037395,20.7171168 50.8383145,21.8271484 C51.7728895,22.93718 52.24017,24.3551346 52.24017,26.0810547 L52.24017,26.3173828 C52.24017,28.0504644 51.7746799,29.468419 50.8436856,30.5712891 C49.9126914,31.6741592 48.6487066,32.2255859 47.0516934,32.2255859 C45.4403573,32.2255859 44.1692111,31.6723688 43.2382169,30.565918 C42.3072226,29.4594671 41.8417325,28.0433029 41.8417325,26.3173828 L41.8417325,26.0810547 Z M43.9579434,26.3173828 C43.9579434,27.5491598 44.2175437,28.5660767 44.736752,29.3681641 C45.2559604,30.1702514 46.0275998,30.5712891 47.0516934,30.5712891 C48.0543026,30.5712891 48.8169903,30.1702514 49.3397794,29.3681641 C49.8625684,28.5660767 50.1239591,27.5491598 50.1239591,26.3173828 L50.1239591,26.0810547 C50.1239591,24.8636007 49.8625684,23.8502645 49.3397794,23.0410156 C48.8169903,22.2317668 48.0471412,21.8271484 47.0302091,21.8271484 C46.0132769,21.8271484 45.2470085,22.2317668 44.7313809,23.0410156 C44.2157534,23.8502645 43.9579434,24.8636007 43.9579434,26.0810547 L43.9579434,26.3173828 Z M52.7123594,30.6464844 L54.463336,30.3457031 L54.463336,16.9072266 L52.7123594,16.6064453 L52.7123594,15.2421875 L56.5795469,15.2421875 L56.5795469,21.9238281 C56.9805906,21.3652316 57.4711456,20.9319677 58.0512266,20.6240234 C58.6313076,20.3160792 59.2758324,20.1621094 59.9848204,20.1621094 C61.2309203,20.1621094 62.1977076,20.5345015 62.885211,21.2792969 C63.5727144,22.0240923 63.916461,23.1699141 63.916461,24.7167969 L63.916461,30.3457031 L65.6674376,30.6464844 L65.6674376,32 L60.0492735,32 L60.0492735,30.6464844 L61.8002501,30.3457031 L61.8002501,24.6953125 C61.8002501,23.7356723 61.5943602,23.026695 61.1825743,22.5683594 C60.7707884,22.1100237 60.1566994,21.8808594 59.3402891,21.8808594 C58.7602081,21.8808594 58.2320558,22.0187161 57.7558165,22.2944336 C57.2795771,22.5701511 56.8874912,22.9443336 56.5795469,23.4169922 L56.5795469,30.3457031 L58.3305235,30.6464844 L58.3305235,32 L52.7123594,32 L52.7123594,30.6464844 Z M73.8310332,32 C73.7665798,31.6848943 73.7164501,31.4020195 73.6806426,31.1513672 C73.6448351,30.9007149 73.6197703,30.6500664 73.6054473,30.3994141 C73.1972421,30.9222031 72.6869933,31.3572574 72.0746856,31.7045898 C71.4623778,32.0519223 70.8089013,32.2255859 70.1142364,32.2255859 C68.9039438,32.2255859 67.9837057,31.9301787 67.3534942,31.3393555 C66.7232827,30.7485322 66.4081817,29.916021 66.4081817,28.8417969 C66.4081817,27.7389268 66.853978,26.8885121 67.745584,26.2905273 C68.63719,25.6925426 69.8599968,25.3935547 71.414041,25.3935547 L73.5947051,25.3935547 L73.5947051,24.0400391 C73.5947051,23.3596971 73.3798635,22.8208028 72.9501739,22.4233398 C72.5204842,22.0258769 71.9225084,21.8271484 71.1562285,21.8271484 C70.626278,21.8271484 70.1589975,21.8951816 69.7543731,22.03125 C69.3497487,22.1673184 69.0221152,22.3535144 68.7714629,22.5898438 L68.545877,23.8144531 L66.9130645,23.8144531 L66.9130645,21.5585938 C67.443015,21.1360656 68.0839592,20.7976901 68.835916,20.543457 C69.5878729,20.289224 70.404271,20.1621094 71.2851348,20.1621094 C72.6028497,20.1621094 73.6698963,20.4986946 74.4863067,21.171875 C75.302717,21.8450554 75.710916,22.808262 75.710916,24.0615234 L75.710916,29.6582031 C75.710916,29.8085945 75.7127064,29.9554029 75.7162871,30.0986328 C75.7198679,30.2418627 75.7288196,30.3850904 75.7431426,30.5283203 L76.6025176,30.6464844 L76.6025176,32 L73.8310332,32 Z M70.4257598,30.453125 C71.1275862,30.453125 71.7685303,30.2848324 72.3486114,29.9482422 C72.9286924,29.611652 73.3440528,29.2070336 73.5947051,28.734375 L73.5947051,26.8222656 L71.3388457,26.8222656 C70.4723049,26.8222656 69.7866022,27.0227845 69.2817168,27.4238281 C68.7768315,27.8248718 68.5243926,28.3118461 68.5243926,28.8847656 C68.5243926,29.3932317 68.6819431,29.7817369 68.9970489,30.050293 C69.3121546,30.318849 69.7883868,30.453125 70.4257598,30.453125 Z M77.0961914,30.6464844 L78.847168,30.3457031 L78.847168,22.0419922 L77.0961914,21.7412109 L77.0961914,20.3769531 L80.737793,20.3769531 L80.8881836,22.1064453 C81.2749043,21.4905568 81.7600882,21.0125343 82.34375,20.6723633 C82.9274118,20.3321923 83.5916304,20.1621094 84.3364258,20.1621094 C85.5896873,20.1621094 86.5600552,20.5291304 87.2475586,21.2631836 C87.935062,21.9972367 88.2788086,23.1305262 88.2788086,24.6630859 L88.2788086,30.3457031 L90.0297852,30.6464844 L90.0297852,32 L84.4116211,32 L84.4116211,30.6464844 L86.1625977,30.3457031 L86.1625977,24.7060547 C86.1625977,23.681961 85.9602885,22.9550803 85.5556641,22.5253906 C85.1510396,22.095701 84.53337,21.8808594 83.7026367,21.8808594 C83.0939097,21.8808594 82.5550154,22.0276678 82.0859375,22.3212891 C81.6168596,22.6149103 81.2426772,23.015948 80.9633789,23.5244141 L80.9633789,30.3457031 L82.7143555,30.6464844 L82.7143555,32 L77.0961914,32 L77.0961914,30.6464844 Z M90.297873,30.6464844 L92.0488496,30.3457031 L92.0488496,22.0419922 L90.297873,21.7412109 L90.297873,20.3769531 L93.9394746,20.3769531 L94.0898652,22.1064453 C94.4765859,21.4905568 94.9617698,21.0125343 95.5454316,20.6723633 C96.1290934,20.3321923 96.793312,20.1621094 97.5381074,20.1621094 C98.7913689,20.1621094 99.7617368,20.5291304 100.44924,21.2631836 C101.136744,21.9972367 101.48049,23.1305262 101.48049,24.6630859 L101.48049,30.3457031 L103.231467,30.6464844 L103.231467,32 L97.6133027,32 L97.6133027,30.6464844 L99.3642793,30.3457031 L99.3642793,24.7060547 C99.3642793,23.681961 99.1619701,22.9550803 98.7573457,22.5253906 C98.3527213,22.095701 97.7350517,21.8808594 96.9043183,21.8808594 C96.2955913,21.8808594 95.756697,22.0276678 95.2876191,22.3212891 C94.8185412,22.6149103 94.4443588,23.015948 94.1650605,23.5244141 L94.1650605,30.3457031 L95.9160371,30.6464844 L95.9160371,32 L90.297873,32 L90.297873,30.6464844 Z M109.010297,32.2255859 C107.391799,32.2255859 106.10454,31.6866916 105.14848,30.6088867 C104.192421,29.5310819 103.714398,28.1328211 103.714398,26.4140625 L103.714398,25.9414062 C103.714398,24.2871011 104.206744,22.9103245 105.191449,21.8110352 C106.176155,20.7117458 107.34167,20.1621094 108.688031,20.1621094 C110.249237,20.1621094 111.432656,20.6347609 112.238324,21.5800781 C113.043992,22.5253954 113.44682,23.7857994 113.44682,25.3613281 L113.44682,26.6826172 L105.905805,26.6826172 L105.873578,26.7363281 C105.895063,27.8535212 106.177937,28.7719691 106.722211,29.4916992 C107.266484,30.2114294 108.029172,30.5712891 109.010297,30.5712891 C109.726446,30.5712891 110.354858,30.4692393 110.895551,30.2651367 C111.436244,30.0610341 111.903524,29.7799497 112.297406,29.421875 L113.124555,30.796875 C112.709188,31.1979187 112.159552,31.5362942 111.475629,31.8120117 C110.791706,32.0877292 109.969937,32.2255859 109.010297,32.2255859 Z M108.688031,21.8271484 C107.979043,21.8271484 107.373906,22.1261363 106.872602,22.7241211 C106.371297,23.3221059 106.063357,24.0722611 105.948773,24.9746094 L105.970258,25.0283203 L111.330609,25.0283203 L111.330609,24.7490234 C111.330609,23.9182901 111.108606,23.2236356 110.664594,22.6650391 C110.220581,22.1064425 109.561733,21.8271484 108.688031,21.8271484 Z M123.468814,24.0292969 L121.878971,24.0292969 L121.535221,22.6328125 C121.277407,22.3893217 120.953354,22.1941739 120.563053,22.0473633 C120.172751,21.9005527 119.730536,21.8271484 119.236392,21.8271484 C118.484436,21.8271484 117.925847,21.9918603 117.560611,22.3212891 C117.195375,22.6507178 117.01276,23.0481748 117.01276,23.5136719 C117.01276,23.9720075 117.173891,24.3336575 117.496158,24.5986328 C117.818425,24.8636081 118.473692,25.0999339 119.461978,25.3076172 C120.930085,25.6227229 122.022196,26.0506158 122.738346,26.5913086 C123.454495,27.1320014 123.812564,27.8570918 123.812564,28.7666016 C123.812564,29.7978567 123.395414,30.6321583 122.5611,31.2695312 C121.726785,31.9069042 120.636464,32.2255859 119.290103,32.2255859 C118.40924,32.2255859 117.617906,32.1235362 116.91608,31.9194336 C116.214254,31.715331 115.587632,31.4199238 115.036197,31.0332031 L115.025455,28.3798828 L116.615299,28.3798828 L117.01276,29.9375 C117.25625,30.1595063 117.587465,30.3206375 118.006412,30.4208984 C118.425359,30.5211594 118.853252,30.5712891 119.290103,30.5712891 C120.04206,30.5712891 120.631084,30.4191096 121.057193,30.1147461 C121.483302,29.8103826 121.696353,29.4111353 121.696353,28.9169922 C121.696353,28.4514951 121.519109,28.0683609 121.164615,27.7675781 C120.810121,27.4667954 120.138741,27.2054048 119.150455,26.9833984 C117.739641,26.6754542 116.676175,26.2565131 115.960025,25.7265625 C115.243876,25.1966119 114.885807,24.4804733 114.885807,23.578125 C114.885807,22.6328078 115.288635,21.8271518 116.094303,21.1611328 C116.899971,20.4951139 117.947324,20.1621094 119.236392,20.1621094 C120.117256,20.1621094 120.90859,20.2766916 121.610416,20.5058594 C122.312242,20.7350272 122.895895,21.0537089 123.361392,21.4619141 L123.468814,24.0292969 Z" id="Johannes" fill="#424851" fill-rule="nonzero"></path>
    </g>
</svg>