<?xml version="1.0" encoding="UTF-8"?>
<svg width="154px" height="50px" viewBox="0 0 154 50" version="1.1" xmlns="http://www.w3.org/2000/svg" xmlns:xlink="http://www.w3.org/1999/xlink">
    <!-- Generator: Sketch 53.2 (72643) - https://sketchapp.com -->
    <title>preset_font_8</title>
    <desc>Created with Sketch.</desc>
    <g id="preset_font_8" stroke="none" stroke-width="1" fill="none" fill-rule="evenodd">
        <rect fill="#FFFFFF" x="0" y="0" width="154" height="50"></rect>
        <path d="M35.993912,15.44 L35.993912,28.352 C35.993912,29.6160063 35.693915,30.5839966 35.093912,31.256 C34.493909,31.9280034 33.6419176,32.264 32.537912,32.264 C31.4659067,32.264 30.5859155,32.1280014 29.897912,31.856 L30.209912,29.768 L31.337912,29.768 C32.4579176,29.768 33.017912,29.272005 33.017912,28.28 L33.017912,15.44 L35.993912,15.44 Z M43.686434,19.904 C45.7984446,19.904 47.2904297,20.3759953 48.162434,21.32 C49.0344384,22.2640047 49.470434,23.8639887 49.470434,26.12 C49.470434,28.3760113 49.0344384,29.9719953 48.162434,30.908 C47.2904297,31.8440047 45.7984446,32.312 43.686434,32.312 C41.5584234,32.312 40.0544384,31.8440047 39.174434,30.908 C38.2944296,29.9719953 37.854434,28.3760113 37.854434,26.12 C37.854434,23.8639887 38.2944296,22.2640047 39.174434,21.32 C40.0544384,20.3759953 41.5584234,19.904 43.686434,19.904 Z M43.686434,22.232 C42.5984286,22.232 41.862436,22.4999973 41.478434,23.036 C41.0944321,23.5720027 40.902434,24.5999924 40.902434,26.12 C40.902434,27.6240075 41.0944321,28.6439973 41.478434,29.18 C41.862436,29.7160027 42.5984286,29.984 43.686434,29.984 C44.7424393,29.984 45.4664321,29.7160027 45.858434,29.18 C46.250436,28.6439973 46.446434,27.6240075 46.446434,26.12 C46.446434,24.5999924 46.250436,23.5720027 45.858434,23.036 C45.4664321,22.4999973 44.7424393,22.232 43.686434,22.232 Z M54.114956,15.2 L54.114956,19.52 C54.114956,20.3840043 54.0509567,21.1759964 53.922956,21.896 C55.6669647,20.5679934 57.3229482,19.904 58.890956,19.904 C59.9309612,19.904 60.7309532,20.1839972 61.290956,20.744 C61.8509588,21.3040028 62.130956,22.1119947 62.130956,23.168 L62.130956,32 L59.202956,32 L59.202956,24.056 C59.202956,23.3999967 59.1149569,22.9560012 58.938956,22.724 C58.7629551,22.4919988 58.4349584,22.376 57.954956,22.376 C57.0269514,22.376 55.7389643,22.8559952 54.090956,23.816 L54.090956,32 L51.162956,32 L51.162956,15.2 L54.114956,15.2 Z M64.495478,22.544 L64.207478,20.48 C66.2714883,20.0959981 68.2314687,19.904 70.087478,19.904 C71.6074856,19.904 72.7234745,20.207997 73.435478,20.816 C74.1474816,21.424003 74.503478,22.4879924 74.503478,24.008 L74.503478,32 L72.199478,32 L71.887478,30.2 C70.6554719,31.5760069 69.1594868,32.264 67.399478,32.264 C66.2954725,32.264 65.3994815,31.964003 64.711478,31.364 C64.0234746,30.763997 63.679478,29.9280054 63.679478,28.856 L63.679478,27.656 C63.679478,26.7119953 63.983475,25.9840026 64.591478,25.472 C65.1994811,24.9599974 66.0554725,24.704 67.159478,24.704 L71.575478,24.704 L71.575478,23.984 C71.5594779,23.3119966 71.4074795,22.8640011 71.119478,22.64 C70.8314766,22.4159989 70.2634823,22.304 69.415478,22.304 C68.1834719,22.304 66.5434883,22.3839992 64.495478,22.544 Z M66.583478,28.016 L66.583478,28.472 C66.583478,29.4320048 67.0954729,29.912 68.119478,29.912 C69.2874839,29.912 70.4394723,29.4480046 71.575478,28.52 L71.575478,26.696 L67.831478,26.696 C67.3674757,26.7120001 67.0434789,26.8319989 66.859478,27.056 C66.6754771,27.2800011 66.583478,27.5999979 66.583478,28.016 Z M79.076,20.24 L79.268,21.968 C81.0920091,20.5919931 82.7879922,19.904 84.356,19.904 C85.3960052,19.904 86.1959972,20.1839972 86.756,20.744 C87.3160028,21.3040028 87.596,22.1119947 87.596,23.168 L87.596,32 L84.668,32 L84.668,24.056 C84.668,23.3999967 84.5800009,22.9560012 84.404,22.724 C84.2279991,22.4919988 83.9000024,22.376 83.42,22.376 C82.8759973,22.376 82.3200028,22.4879989 81.752,22.712 C81.1839972,22.9360011 80.4520045,23.3039974 79.556,23.816 L79.556,32 L76.628,32 L76.628,20.24 L79.076,20.24 Z M92.192522,20.24 L92.384522,21.968 C94.2085311,20.5919931 95.9045141,19.904 97.472522,19.904 C98.5125272,19.904 99.3125192,20.1839972 99.872522,20.744 C100.432525,21.3040028 100.712522,22.1119947 100.712522,23.168 L100.712522,32 L97.784522,32 L97.784522,24.056 C97.784522,23.3999967 97.6965229,22.9560012 97.520522,22.724 C97.3445211,22.4919988 97.0165244,22.376 96.536522,22.376 C95.9925193,22.376 95.4365248,22.4879989 94.868522,22.712 C94.3005191,22.9360011 93.5685265,23.3039974 92.672522,23.816 L92.672522,32 L89.744522,32 L89.744522,20.24 L92.192522,20.24 Z M110.229044,27.344 L105.429044,27.344 C105.541045,28.3680051 105.829042,29.0519983 106.293044,29.396 C106.757046,29.7400017 107.517039,29.912 108.573044,29.912 C109.77305,29.912 111.181036,29.816001 112.797044,29.624 L113.061044,31.496 C111.957038,32.0240026 110.341055,32.288 108.213044,32.288 C106.085033,32.288 104.573048,31.8160047 103.677044,30.872 C102.781039,29.9279953 102.333044,28.3360112 102.333044,26.096 C102.333044,23.8079886 102.77304,22.2040046 103.653044,21.284 C104.533048,20.3639954 105.989034,19.904 108.021044,19.904 C109.893053,19.904 111.25304,20.2439966 112.101044,20.924 C112.949048,21.6040034 113.373044,22.6239932 113.373044,23.984 C113.373044,26.2240112 112.325054,27.344 110.229044,27.344 Z M105.381044,25.304 L109.413044,25.304 C110.117047,25.304 110.469044,24.8480046 110.469044,23.936 C110.469044,23.2959968 110.301046,22.8480013 109.965044,22.592 C109.629042,22.3359987 109.021048,22.208 108.141044,22.208 C107.117039,22.208 106.409046,22.4199979 106.017044,22.844 C105.625042,23.2680021 105.413044,24.0879939 105.381044,25.304 Z M120.225566,27.536 L117.129566,26.696 C116.105561,26.4079986 115.389568,26.0000026 114.981566,25.472 C114.573564,24.9439974 114.369566,24.2000048 114.369566,23.24 C114.369566,21.9759937 114.729562,21.1040024 115.449566,20.624 C116.16957,20.1439976 117.409557,19.904 119.169566,19.904 C121.089576,19.9360002 122.825558,20.0799987 124.377566,20.336 L124.161566,22.352 C122.177556,22.2879997 120.681571,22.256 119.673566,22.256 C118.617561,22.256 117.937567,22.3079995 117.633566,22.412 C117.329564,22.5160005 117.177566,22.7999977 117.177566,23.264 C117.177566,23.3760006 117.189566,23.4799995 117.213566,23.576 L117.273566,23.816 C117.289566,23.8800003 117.333566,23.9399997 117.405566,23.996 C117.477566,24.0520003 117.529566,24.0959998 117.561566,24.128 C117.593566,24.1600002 117.673565,24.1999998 117.801566,24.248 C117.929567,24.2960002 118.017566,24.3279999 118.065566,24.344 C118.113566,24.3600001 118.225565,24.3919998 118.401566,24.44 C118.577567,24.4880002 118.705566,24.5199999 118.785566,24.536 L121.953566,25.4 C122.961571,25.6880014 123.681564,26.0759976 124.113566,26.564 C124.545568,27.0520024 124.761566,27.791995 124.761566,28.784 C124.761566,30.1600069 124.36957,31.0839976 123.585566,31.556 C122.801562,32.0280024 121.441576,32.264 119.505566,32.264 C117.745557,32.264 116.105574,32.1360013 114.585566,31.88 L114.777566,29.84 C115.60957,29.9040003 116.945557,29.936 118.785566,29.936 C120.049572,29.936 120.893564,29.8640007 121.317566,29.72 C121.741568,29.5759993 121.953566,29.2720023 121.953566,28.808 C121.953566,28.7119995 121.945566,28.6240004 121.929566,28.544 C121.913566,28.4639996 121.889566,28.3920003 121.857566,28.328 C121.825566,28.2639997 121.793566,28.2080002 121.761566,28.16 C121.729566,28.1119998 121.673566,28.0640002 121.593566,28.016 C121.513566,27.9679998 121.449566,27.9320001 121.401566,27.908 C121.353566,27.8839999 121.269567,27.8520002 121.149566,27.812 C121.029565,27.7719998 120.941566,27.7440001 120.885566,27.728 C120.829566,27.7119999 120.721567,27.6800002 120.561566,27.632 C120.401565,27.5839998 120.289566,27.5520001 120.225566,27.536 Z" id="Johannes" fill="#424851" fill-rule="nonzero"></path>
    </g>
</svg>