<?xml version="1.0" encoding="UTF-8"?>
<svg width="154px" height="50px" viewBox="0 0 154 50" version="1.1" xmlns="http://www.w3.org/2000/svg" xmlns:xlink="http://www.w3.org/1999/xlink">
    <!-- Generator: Sketch 53.2 (72643) - https://sketchapp.com -->
    <title>preset_font_7</title>
    <desc>Created with Sketch.</desc>
    <g id="preset_font_7" stroke="none" stroke-width="1" fill="none" fill-rule="evenodd">
        <rect fill="#FFFFFF" x="0" y="0" width="154" height="50"></rect>
        <path d="M41.837914,16.568 L43.349914,16.568 C43.6219153,16.568 43.757914,16.6959987 43.757914,16.952 L43.757914,28.28 C43.757914,29.4480058 43.4299172,30.3599967 42.773914,31.016 C42.1179107,31.6720033 41.2059198,32 40.037914,32 L37.637914,32 C36.453908,32 35.5339172,31.6720033 34.877914,31.016 C34.2219107,30.3599967 33.893914,29.4480058 33.893914,28.28 L33.893914,26.12 C33.893914,25.8479986 34.0379125,25.712 34.325914,25.712 L35.837914,25.712 C36.1099153,25.712 36.245914,25.8479986 36.245914,26.12 L36.245914,28.184 C36.245914,29.3680059 36.8219082,29.96 37.973914,29.96 L39.677914,29.96 C40.8299197,29.96 41.405914,29.3680059 41.405914,28.184 L41.405914,16.976 C41.405914,16.7039986 41.5499125,16.568 41.837914,16.568 Z M51.4504355,32 L49.3384355,32 C48.1544295,32 47.2384387,31.6720033 46.5904355,31.016 C45.9424322,30.3599967 45.6184355,29.4480058 45.6184355,28.28 L45.6184355,23.48 C45.6184355,22.2959941 45.9424322,21.3800032 46.5904355,20.732 C47.2384387,20.0839968 48.1544295,19.76 49.3384355,19.76 L51.4504355,19.76 C52.6184413,19.76 53.5344321,20.0839968 54.1984355,20.732 C54.8624388,21.3800032 55.1944355,22.2959941 55.1944355,23.48 L55.1944355,28.28 C55.1944355,29.4480058 54.8624388,30.3599967 54.1984355,31.016 C53.5344321,31.6720033 52.6184413,32 51.4504355,32 Z M49.6744355,29.96 L51.1384355,29.96 C52.2904412,29.96 52.8664355,29.3760058 52.8664355,28.208 L52.8664355,23.552 C52.8664355,22.3839942 52.2904412,21.8 51.1384355,21.8 L49.6744355,21.8 C49.0664324,21.8 48.6264368,21.9399986 48.3544355,22.22 C48.0824341,22.5000014 47.9464355,22.943997 47.9464355,23.552 L47.9464355,28.208 C47.9464355,28.816003 48.0824341,29.2599986 48.3544355,29.54 C48.6264368,29.8200014 49.0664324,29.96 49.6744355,29.96 Z M58.830957,32 L57.318957,32 C57.0469556,32 56.910957,31.8640014 56.910957,31.592 L56.910957,15.536 C56.910957,15.2639986 57.0469556,15.128 57.318957,15.128 L58.830957,15.128 C59.1029583,15.128 59.238957,15.2639986 59.238957,15.536 L59.238957,21.032 L59.334957,21.032 C59.7189589,20.1839958 60.5269508,19.76 61.758957,19.76 L62.814957,19.76 C63.9829628,19.76 64.8789539,20.0799968 65.502957,20.72 C66.1269601,21.3600032 66.438957,22.279994 66.438957,23.48 L66.438957,31.592 C66.438957,31.8640014 66.2949584,32 66.006957,32 L64.494957,32 C64.2229556,32 64.086957,31.8640014 64.086957,31.592 L64.086957,23.576 C64.086957,22.3919941 63.5029628,21.8 62.334957,21.8 L61.206957,21.8 C59.8949504,21.8 59.238957,22.4799932 59.238957,23.84 L59.238957,31.592 C59.238957,31.8640014 59.1029583,32 58.830957,32 Z M72.6914785,32 L71.7554785,32 C70.5714726,32 69.6554817,31.6720033 69.0074785,31.016 C68.3594752,30.3599967 68.0354785,29.4480058 68.0354785,28.28 L68.0354785,23.48 C68.0354785,22.2959941 68.3594752,21.3800032 69.0074785,20.732 C69.6554817,20.0839968 70.5714726,19.76 71.7554785,19.76 L77.1314785,19.76 C77.4194799,19.76 77.5634785,19.8959986 77.5634785,20.168 L77.5634785,31.592 C77.5634785,31.8640014 77.4194799,32 77.1314785,32 L75.6194785,32 C75.3474771,32 75.2114785,31.8640014 75.2114785,31.592 L75.2114785,30.728 L75.1154785,30.728 C74.7314766,31.5760042 73.9234846,32 72.6914785,32 Z M75.2114785,27.92 L75.2114785,22.04 C75.2114785,21.8799992 75.1234794,21.8 74.9474785,21.8 L72.0914785,21.8 C70.9394727,21.8 70.3634785,22.3919941 70.3634785,23.576 L70.3634785,28.184 C70.3634785,29.3680059 70.9394727,29.96 72.0914785,29.96 L73.2434785,29.96 C74.555485,29.96 75.2114785,29.2800068 75.2114785,27.92 Z M81.44,32 L79.928,32 C79.6559986,32 79.52,31.8640014 79.52,31.592 L79.52,20.168 C79.52,19.8959986 79.6559986,19.76 79.928,19.76 L81.44,19.76 C81.7120014,19.76 81.848,19.8959986 81.848,20.168 L81.848,21.032 L81.944,21.032 C82.3280019,20.1839958 83.1359938,19.76 84.368,19.76 L85.424,19.76 C86.5920058,19.76 87.4879969,20.0799968 88.112,20.72 C88.7360031,21.3600032 89.048,22.279994 89.048,23.48 L89.048,31.592 C89.048,31.8640014 88.9040014,32 88.616,32 L87.104,32 C86.8319986,32 86.696,31.8640014 86.696,31.592 L86.696,23.576 C86.696,22.3919941 86.1120058,21.8 84.944,21.8 L83.816,21.8 C82.5039934,21.8 81.848,22.4799932 81.848,23.84 L81.848,31.592 C81.848,31.8640014 81.7120014,32 81.44,32 Z M92.8045215,32 L91.2925215,32 C91.0205202,32 90.8845215,31.8640014 90.8845215,31.592 L90.8845215,20.168 C90.8845215,19.8959986 91.0205202,19.76 91.2925215,19.76 L92.8045215,19.76 C93.0765229,19.76 93.2125215,19.8959986 93.2125215,20.168 L93.2125215,21.032 L93.3085215,21.032 C93.6925234,20.1839958 94.5005154,19.76 95.7325215,19.76 L96.7885215,19.76 C97.9565274,19.76 98.8525184,20.0799968 99.4765215,20.72 C100.100525,21.3600032 100.412522,22.279994 100.412522,23.48 L100.412522,31.592 C100.412522,31.8640014 100.268523,32 99.9805215,32 L98.4685215,32 C98.1965202,32 98.0605215,31.8640014 98.0605215,31.592 L98.0605215,23.576 C98.0605215,22.3919941 97.4765274,21.8 96.3085215,21.8 L95.1805215,21.8 C93.868515,21.8 93.2125215,22.4799932 93.2125215,23.84 L93.2125215,31.592 C93.2125215,31.8640014 93.0765229,32 92.8045215,32 Z M110.913043,32 L105.729043,32 C104.545037,32 103.629046,31.6720033 102.981043,31.016 C102.33304,30.3599967 102.009043,29.4480058 102.009043,28.28 L102.009043,23.48 C102.009043,22.2959941 102.33304,21.3800032 102.981043,20.732 C103.629046,20.0839968 104.545037,19.76 105.729043,19.76 L107.697043,19.76 C108.881049,19.76 109.80104,20.0839968 110.457043,20.732 C111.113046,21.3800032 111.441043,22.2959941 111.441043,23.48 L111.441043,26.528 C111.441043,26.8160014 111.297044,26.96 111.009043,26.96 L104.577043,26.96 C104.401042,26.96 104.313043,27.0399992 104.313043,27.2 L104.313043,28.232 C104.313043,29.4000058 104.897037,29.984 106.065043,29.984 L110.913043,29.984 C111.201044,29.984 111.345043,30.1279986 111.345043,30.416 L111.345043,31.616 C111.345043,31.8720013 111.201044,32 110.913043,32 Z M104.577043,25.328 L108.873043,25.328 C109.033044,25.328 109.113043,25.2480008 109.113043,25.088 L109.113043,23.552 C109.113043,22.943997 108.977044,22.5000014 108.705043,22.22 C108.433042,21.9399986 107.993046,21.8 107.385043,21.8 L106.065043,21.8 C105.45704,21.8 105.017044,21.9399986 104.745043,22.22 C104.473042,22.5000014 104.337043,22.943997 104.337043,23.552 L104.337043,25.088 C104.337043,25.2480008 104.417042,25.328 104.577043,25.328 Z M117.405565,32 L112.989565,32 C112.717563,32 112.581565,31.8640014 112.581565,31.592 L112.581565,30.416 C112.581565,30.1599987 112.717563,30.032 112.989565,30.032 L117.021565,30.032 C118.06157,30.032 118.581565,29.6720036 118.581565,28.952 L118.581565,28.664 C118.581565,28.0239968 118.205568,27.5360017 117.453565,27.2 L114.837565,25.952 C114.02156,25.5679981 113.429566,25.1440023 113.061565,24.68 C112.693563,24.2159977 112.509565,23.6080038 112.509565,22.856 C112.509565,20.7919897 113.653553,19.76 115.941565,19.76 L119.925565,19.76 C120.181566,19.76 120.309565,19.8959986 120.309565,20.168 L120.309565,21.344 C120.309565,21.6160014 120.181566,21.752 119.925565,21.752 L116.421565,21.752 C115.941562,21.752 115.573566,21.8359992 115.317565,22.004 C115.061563,22.1720008 114.933565,22.3919986 114.933565,22.664 L114.933565,22.928 C114.933565,23.4400026 115.34156,23.8879981 116.157565,24.272 L118.797565,25.616 C119.629569,25.9840018 120.201563,26.4199975 120.513565,26.924 C120.825566,27.4280025 120.981565,28.079996 120.981565,28.88 C120.981565,30.9600104 119.789576,32 117.405565,32 Z" id="Johannes" fill="#424851" fill-rule="nonzero"></path>
    </g>
</svg>