<?xml version="1.0" encoding="UTF-8"?>
<svg width="154px" height="50px" viewBox="0 0 154 50" version="1.1" xmlns="http://www.w3.org/2000/svg" xmlns:xlink="http://www.w3.org/1999/xlink">
    <!-- Generator: Sketch 53.2 (72643) - https://sketchapp.com -->
    <title>preset_font_6</title>
    <desc>Created with Sketch.</desc>
    <g id="preset_font_6" stroke="none" stroke-width="1" fill="none" fill-rule="evenodd">
        <rect fill="#FFFFFF" x="0" y="0" width="154" height="50"></rect>
        <path d="M32.801914,16.2 L40.601914,16.2 L40.601914,16.656 L39.281914,16.656 L39.281914,27.024 C39.281914,29.1840108 38.7939188,30.7559951 37.817914,31.74 C36.8419091,32.7240049 35.3779237,33.216 33.425914,33.216 C32.1299075,33.216 31.1019178,32.9680025 30.341914,32.472 C29.5819102,31.9759975 29.201914,31.2800045 29.201914,30.384 C29.201914,29.6959966 29.393912,29.156002 29.777914,28.764 C30.1619159,28.371998 30.6859106,28.176 31.349914,28.176 C32.0139173,28.176 32.5099123,28.3439983 32.837914,28.68 C33.1659156,29.0160017 33.329914,29.4199976 33.329914,29.892 C33.329914,30.3640024 33.2419148,30.8399976 33.065914,31.32 L32.129914,31.32 C31.9859132,31.5600012 31.913914,31.7879989 31.913914,32.004 C31.913914,32.2200011 32.0219129,32.4039992 32.237914,32.556 C32.453915,32.7080008 32.7379122,32.784 33.089914,32.784 C33.7299172,32.784 34.141913,32.5320025 34.325914,32.028 C34.5099149,31.5239975 34.601914,30.4320084 34.601914,28.752 L34.601914,16.656 L32.801914,16.656 L32.801914,16.2 Z M47.5984355,28.272 L47.5984355,26.232 C47.5984355,24.6799922 47.5144363,23.5480036 47.3464355,22.836 C47.1784346,22.1239964 46.7904385,21.768 46.1824355,21.768 C45.8304337,21.768 45.5464365,21.867999 45.3304355,22.068 C45.1144344,22.268001 44.9584359,22.5999977 44.8624355,23.064 C44.7184347,23.7840036 44.6464355,24.8799926 44.6464355,26.352 L44.6464355,28.224 C44.6464355,29.9680087 44.6984349,31.0159982 44.8024355,31.368 C44.906436,31.7200018 45.0144349,32.0079989 45.1264355,32.232 C45.3024363,32.6160019 45.6464329,32.808 46.1584355,32.808 C46.7824386,32.808 47.1904345,32.4480036 47.3824355,31.728 C47.5264362,31.2159974 47.5984355,30.064009 47.5984355,28.272 Z M46.1104355,33.24 C44.1104255,33.24 42.5984406,32.7280051 41.5744355,31.704 C40.5504303,30.6799949 40.0384355,29.2120096 40.0384355,27.3 C40.0384355,25.3879904 40.58643,23.9160052 41.6824355,22.884 C42.7784409,21.8519948 44.3184255,21.336 46.3024355,21.336 C48.2864454,21.336 49.7664306,21.8119952 50.7424355,22.764 C51.7184403,23.7160048 52.2064355,25.1679902 52.2064355,27.12 C52.2064355,31.2000204 50.1744558,33.24 46.1104355,33.24 Z M51.834957,15 L57.618957,15 L57.618957,23.784 C57.8749583,23.0479963 58.2669543,22.4560022 58.794957,22.008 C59.3229596,21.5599978 60.1229516,21.336 61.194957,21.336 C63.6749694,21.336 64.914957,22.6719866 64.914957,25.344 L64.914957,32.568 L66.258957,32.568 L66.258957,33 L59.466957,33 L59.466957,32.568 L60.450957,32.568 L60.450957,24.768 C60.450957,23.8079952 60.3869576,23.1880014 60.258957,22.908 C60.1309563,22.6279986 59.8989587,22.488 59.562957,22.488 C59.0509544,22.488 58.5989589,22.8239966 58.206957,23.496 C57.814955,24.1680034 57.618957,24.9839952 57.618957,25.944 L57.618957,32.568 L58.650957,32.568 L58.650957,33 L51.834957,33 L51.834957,32.568 L53.154957,32.568 L53.154957,15.432 L51.834957,15.432 L51.834957,15 Z M71.3354785,27.36 L72.0314785,27.36 L72.0314785,25.512 C72.0314785,23.9919924 71.9474793,22.9720026 71.7794785,22.452 C71.6114776,21.9319974 71.2874809,21.672 70.8074785,21.672 C70.519477,21.672 70.2594796,21.7479992 70.0274785,21.9 C69.7954773,22.0520008 69.6794785,22.2599987 69.6794785,22.524 C69.6794785,22.7880013 69.727478,23.0559986 69.8234785,23.328 L70.4234785,23.328 C70.5514791,23.6640017 70.6154785,24.0679976 70.6154785,24.54 C70.6154785,25.0120024 70.4154805,25.4199983 70.0154785,25.764 C69.6154765,26.1080017 69.1114815,26.28 68.5034785,26.28 C67.1274716,26.28 66.4394785,25.6160066 66.4394785,24.288 C66.4394785,22.3199902 68.1114618,21.336 71.4554785,21.336 C73.359488,21.336 74.6754748,21.6599968 75.4034785,22.308 C76.1314821,22.9560032 76.4954785,24.1439914 76.4954785,25.872 L76.4954785,30.744 C76.4954785,31.5760042 76.7274762,31.992 77.1914785,31.992 C77.7354812,31.992 78.055478,31.1680082 78.1514785,29.52 L78.5114785,29.544 C78.4474782,30.952007 78.1834808,31.9199974 77.7194785,32.448 C77.2554762,32.9760026 76.4954838,33.24 75.4394785,33.24 C73.5194689,33.24 72.4154799,32.6480059 72.1274785,31.464 C71.9194774,32.072003 71.6074806,32.5199986 71.1914785,32.808 C70.7754764,33.0960014 70.1674825,33.24 69.3674785,33.24 C66.9994666,33.24 65.8154785,32.2720097 65.8154785,30.336 C65.8154785,29.1999943 66.267474,28.4200021 67.1714785,27.996 C68.075483,27.5719979 69.4634691,27.36 71.3354785,27.36 Z M70.3754785,30.312 C70.3754785,31.1440042 70.419478,31.6799988 70.5074785,31.92 C70.5954789,32.1600012 70.7634772,32.28 71.0114785,32.28 C71.2594797,32.28 71.4914774,32.076002 71.7074785,31.668 C71.9234796,31.259998 72.0314785,30.6960036 72.0314785,29.976 L72.0314785,27.744 L71.8634785,27.744 C70.8714735,27.744 70.3754785,28.4719927 70.3754785,29.928 L70.3754785,30.312 Z M77.756,21.576 L83.54,21.576 L83.54,23.784 C83.7960013,23.0479963 84.1879974,22.4560022 84.716,22.008 C85.2440026,21.5599978 86.0439946,21.336 87.116,21.336 C89.5960124,21.336 90.836,22.6719866 90.836,25.344 L90.836,32.568 L92.18,32.568 L92.18,33 L85.388,33 L85.388,32.568 L86.372,32.568 L86.372,24.768 C86.372,23.8079952 86.3080006,23.1880014 86.18,22.908 C86.0519994,22.6279986 85.8200017,22.488 85.484,22.488 C84.9719974,22.488 84.520002,22.8239966 84.128,23.496 C83.735998,24.1680034 83.54,24.9839952 83.54,25.944 L83.54,32.568 L84.572,32.568 L84.572,33 L77.756,33 L77.756,32.568 L79.076,32.568 L79.076,22.008 L77.756,22.008 L77.756,21.576 Z M91.4965215,21.576 L97.2805215,21.576 L97.2805215,23.784 C97.5365228,23.0479963 97.9285189,22.4560022 98.4565215,22.008 C98.9845242,21.5599978 99.7845162,21.336 100.856522,21.336 C103.336534,21.336 104.576522,22.6719866 104.576522,25.344 L104.576522,32.568 L105.920522,32.568 L105.920522,33 L99.1285215,33 L99.1285215,32.568 L100.112522,32.568 L100.112522,24.768 C100.112522,23.8079952 100.048522,23.1880014 99.9205215,22.908 C99.7925209,22.6279986 99.5605232,22.488 99.2245215,22.488 C98.712519,22.488 98.2605235,22.8239966 97.8685215,23.496 C97.4765196,24.1680034 97.2805215,24.9839952 97.2805215,25.944 L97.2805215,32.568 L98.3125215,32.568 L98.3125215,33 L91.4965215,33 L91.4965215,32.568 L92.8165215,32.568 L92.8165215,22.008 L91.4965215,22.008 L91.4965215,21.576 Z M111.501043,33.24 C109.437033,33.24 107.889048,32.7080053 106.857043,31.644 C105.825038,30.5799947 105.309043,29.1000095 105.309043,27.204 C105.309043,25.3079905 105.889037,23.856005 107.049043,22.848 C108.209049,21.839995 109.685034,21.336 111.477043,21.336 C115.109061,21.336 116.853044,23.1599818 116.709043,26.808 L109.941043,26.808 L109.941043,27.744 C109.941043,29.3120078 110.141041,30.495996 110.541043,31.296 C110.941045,32.096004 111.637038,32.496 112.629043,32.496 C114.485052,32.496 115.70104,31.5040099 116.277043,29.52 L116.709043,29.592 C116.405042,30.7440058 115.857047,31.6399968 115.065043,32.28 C114.273039,32.9200032 113.085051,33.24 111.501043,33.24 Z M109.965043,26.328 L112.437043,26.328 L112.437043,25.152 C112.437043,23.8559935 112.361044,22.9720024 112.209043,22.5 C112.057042,22.0279976 111.753045,21.792 111.297043,21.792 C110.841041,21.792 110.505044,22.0439975 110.289043,22.548 C110.073042,23.0520025 109.965043,23.9199938 109.965043,25.152 L109.965043,26.328 Z M116.841565,33.24 L116.841565,28.944 L117.129565,28.944 C117.545567,30.336007 118.105561,31.3119972 118.809565,31.872 C119.513568,32.4320028 120.393559,32.712 121.449565,32.712 C123.081573,32.712 123.897565,32.1920052 123.897565,31.152 C123.897565,30.7039978 123.697567,30.3680011 123.297565,30.144 C122.673561,29.7919982 121.873569,29.520001 120.897565,29.328 C119.809559,29.0399986 118.897568,28.6560024 118.161565,28.176 C117.28156,27.5999971 116.841565,26.6880062 116.841565,25.44 C116.841565,24.1919938 117.225561,23.1960037 117.993565,22.452 C118.761568,21.7079963 119.785558,21.336 121.065565,21.336 C121.849568,21.336 122.65756,21.5199982 123.489565,21.888 C123.793566,22.0160006 124.025564,22.08 124.185565,22.08 C124.345565,22.08 124.481564,22.0240006 124.593565,21.912 C124.705565,21.7999994 124.841564,21.5920015 125.001565,21.288 L125.265565,21.288 L125.265565,24.96 L124.977565,24.96 C124.16156,22.8799896 122.897573,21.84 121.185565,21.84 C120.433561,21.84 119.873566,21.9719987 119.505565,22.236 C119.137563,22.5000013 118.953565,22.831998 118.953565,23.232 C118.953565,23.4720012 119.009564,23.6599993 119.121565,23.796 C119.233565,23.9320007 119.321564,24.0319997 119.385565,24.096 C119.449565,24.1600003 119.553564,24.2279996 119.697565,24.3 C119.841565,24.3720004 119.961564,24.4279998 120.057565,24.468 C120.153565,24.5080002 120.301564,24.5599997 120.501565,24.624 C120.701566,24.6880003 120.849564,24.7279999 120.945565,24.744 C122.03357,25.0160014 122.817562,25.251999 123.297565,25.452 C123.777567,25.652001 124.233562,25.8959986 124.665565,26.184 C125.545569,26.792003 125.985565,27.7719932 125.985565,29.124 C125.985565,30.4760068 125.585569,31.4999965 124.785565,32.196 C123.985561,32.8920035 122.889571,33.24 121.497565,33.24 C120.50556,33.24 119.545569,33.0080023 118.617565,32.544 C118.425564,32.4159994 118.273565,32.352 118.161565,32.352 C117.809563,32.352 117.465566,32.647997 117.129565,33.24 L116.841565,33.24 Z" id="Johannes" fill="#424851" fill-rule="nonzero"></path>
    </g>
</svg>