<?xml version="1.0" encoding="UTF-8"?>
<svg width="154px" height="50px" viewBox="0 0 154 50" version="1.1" xmlns="http://www.w3.org/2000/svg" xmlns:xlink="http://www.w3.org/1999/xlink">
    <!-- Generator: Sketch 53.2 (72643) - https://sketchapp.com -->
    <title>preset_font_2</title>
    <desc>Created with Sketch.</desc>
    <g id="preset_font_2" stroke="none" stroke-width="1" fill="none" fill-rule="evenodd">
        <rect fill="#FFFFFF" x="0" y="0" width="154" height="50"></rect>
        <path d="M40.1489258,15.6484375 L41.5415039,15.6484375 L41.5415039,27.137207 C41.5415039,28.6870195 41.0941614,29.9223587 40.1994629,30.8432617 C39.3047644,31.7641648 38.104988,32.2246094 36.6000977,32.2246094 C35.0128501,32.2246094 33.7924847,31.8090862 32.9389648,30.9780273 C32.085445,30.1469685 31.6586914,28.9864983 31.6586914,27.496582 L33.0400391,27.496582 C33.0400391,28.6795307 33.3507456,29.5686005 33.972168,30.1638184 C34.5935903,30.7590362 35.4695581,31.0566406 36.6000977,31.0566406 C37.640793,31.0566406 38.4886849,30.712243 39.1437988,30.0234375 C39.7989128,29.334632 40.1339517,28.3987689 40.1489258,27.2158203 L40.1489258,15.6484375 Z M43.5288086,25.7446289 C43.5288086,24.5766543 43.7552874,23.5247443 44.208252,22.5888672 C44.6612165,21.6529901 45.3013468,20.9248887 46.1286621,20.404541 C46.9559774,19.8841934 47.8937122,19.6240234 48.9418945,19.6240234 C50.5590901,19.6240234 51.8692984,20.1911564 52.8725586,21.3254395 C53.8758188,22.4597225 54.3774414,23.9627185 54.3774414,25.8344727 L54.3774414,26.1152344 C54.3774414,27.290696 54.1509626,28.3482212 53.697998,29.2878418 C53.2450335,30.2274624 52.606775,30.9518204 51.7832031,31.4609375 C50.9596313,31.9700546 50.0200248,32.2246094 48.9643555,32.2246094 C47.3546469,32.2246094 46.0463104,31.6574764 45.0393066,30.5231934 C44.0323029,29.3889103 43.5288086,27.8859143 43.5288086,26.0141602 L43.5288086,25.7446289 Z M44.8764648,26.1152344 C44.8764648,27.5677156 45.2526818,28.7600051 46.005127,29.6921387 C46.7575721,30.6242722 47.7439718,31.090332 48.9643555,31.090332 C50.1772522,31.090332 51.1599083,30.6242722 51.9123535,29.6921387 C52.6647987,28.7600051 53.0410156,27.5302811 53.0410156,26.0029297 L53.0410156,25.7446289 C53.0410156,24.8162388 52.8688168,23.9664752 52.5244141,23.1953125 C52.1800113,22.4241498 51.697106,21.8270692 51.0756836,21.4040527 C50.4542612,20.9810363 49.7430053,20.7695312 48.9418945,20.7695312 C47.7439719,20.7695312 46.7669309,21.2393345 46.0107422,22.1789551 C45.2545535,23.1185757 44.8764648,24.3482997 44.8764648,25.8681641 L44.8764648,26.1152344 Z M57.487793,21.9038086 C57.9295269,21.177568 58.4947882,20.6160502 59.1835938,20.2192383 C59.8723993,19.8224264 60.6248332,19.6240234 61.440918,19.6240234 C62.7436589,19.6240234 63.713213,19.9908817 64.3496094,20.7246094 C64.9860058,21.458337 65.3079427,22.5589119 65.3154297,24.0263672 L65.3154297,32 L63.9790039,32 L63.9790039,24.0151367 C63.9715169,22.9295193 63.7412946,22.1209336 63.2883301,21.5893555 C62.8353656,21.0577773 62.1110076,20.7919922 61.1152344,20.7919922 C60.2841755,20.7919922 59.5485872,21.0521621 58.9084473,21.5725098 C58.2683073,22.0928574 57.7947606,22.7947547 57.487793,23.6782227 L57.487793,32 L56.1513672,32 L56.1513672,14.75 L57.487793,14.75 L57.487793,21.9038086 Z M75.4448242,32 C75.3100579,31.6181622 75.2239585,31.0529009 75.1865234,30.3041992 C74.7148414,30.9181346 74.1140173,31.3916813 73.3840332,31.7248535 C72.6540491,32.0580258 71.8810262,32.2246094 71.0649414,32.2246094 C69.8969668,32.2246094 68.9517451,31.898929 68.229248,31.2475586 C67.5067509,30.5961881 67.1455078,29.7726287 67.1455078,28.7768555 C67.1455078,27.5939068 67.6377718,26.6580438 68.6223145,25.9692383 C69.6068571,25.2804328 70.9788323,24.9360352 72.7382812,24.9360352 L75.175293,24.9360352 L75.175293,23.5546875 C75.175293,22.6861936 74.9076361,22.0030136 74.3723145,21.505127 C73.8369928,21.0072403 73.056483,20.7583008 72.0307617,20.7583008 C71.0948846,20.7583008 70.31999,20.9978817 69.7060547,21.4770508 C69.0921193,21.9562198 68.7851562,22.5327115 68.7851562,23.206543 L67.4375,23.1953125 C67.4375,22.2294874 67.8867143,21.3928258 68.7851562,20.6853027 C69.6835982,19.9777797 70.7879166,19.6240234 72.0981445,19.6240234 C73.4532945,19.6240234 74.5220501,19.9628059 75.3044434,20.6403809 C76.0868366,21.3179559 76.4892577,22.2631775 76.5117188,23.4760742 L76.5117188,29.2260742 C76.5117188,30.4015358 76.6352527,31.2812471 76.8823242,31.8652344 L76.8823242,32 L75.4448242,32 Z M71.222168,31.0341797 C72.12061,31.0341797 72.9235804,30.8170595 73.6311035,30.3828125 C74.3386266,29.9485655 74.8533513,29.3683305 75.175293,28.6420898 L75.175293,25.9692383 L72.7719727,25.9692383 C71.4317967,25.9842123 70.3836301,26.2294084 69.6274414,26.704834 C68.8712527,27.1802595 68.4931641,27.8334919 68.4931641,28.6645508 C68.4931641,29.3458693 68.7458471,29.9111306 69.2512207,30.3603516 C69.7565943,30.8095726 70.4135702,31.0341797 71.222168,31.0341797 Z M80.3745117,19.8486328 L80.4194336,21.9262695 C80.8761416,21.1775679 81.4451463,20.6066914 82.1264648,20.213623 C82.8077834,19.8205547 83.5602172,19.6240234 84.3837891,19.6240234 C85.68653,19.6240234 86.6560841,19.9908817 87.2924805,20.7246094 C87.9288769,21.458337 88.2508138,22.5589119 88.2583008,24.0263672 L88.2583008,32 L86.921875,32 L86.921875,24.0151367 C86.914388,22.9295193 86.6841657,22.1209336 86.2312012,21.5893555 C85.7782367,21.0577773 85.0538787,20.7919922 84.0581055,20.7919922 C83.2270466,20.7919922 82.4914583,21.0521621 81.8513184,21.5725098 C81.2111784,22.0928574 80.7376317,22.7947547 80.4306641,23.6782227 L80.4306641,32 L79.0942383,32 L79.0942383,19.8486328 L80.3745117,19.8486328 Z M92.0087891,19.8486328 L92.0537109,21.9262695 C92.510419,21.1775679 93.0794237,20.6066914 93.7607422,20.213623 C94.4420607,19.8205547 95.1944946,19.6240234 96.0180664,19.6240234 C97.3208073,19.6240234 98.2903614,19.9908817 98.9267578,20.7246094 C99.5631542,21.458337 99.8850911,22.5589119 99.8925781,24.0263672 L99.8925781,32 L98.5561523,32 L98.5561523,24.0151367 C98.5486653,22.9295193 98.318443,22.1209336 97.8654785,21.5893555 C97.412514,21.0577773 96.688156,20.7919922 95.6923828,20.7919922 C94.861324,20.7919922 94.1257356,21.0521621 93.4855957,21.5725098 C92.8454558,22.0928574 92.3719091,22.7947547 92.0649414,23.6782227 L92.0649414,32 L90.7285156,32 L90.7285156,19.8486328 L92.0087891,19.8486328 Z M107.068359,32.2246094 C106.035151,32.2246094 105.10116,31.9700546 104.266357,31.4609375 C103.431555,30.9518204 102.782066,30.2424362 102.317871,29.3327637 C101.853676,28.4230912 101.621582,27.4030004 101.621582,26.2724609 L101.621582,25.7895508 C101.621582,24.6215762 101.848061,23.5696661 102.301025,22.6337891 C102.75399,21.697912 103.384762,20.9623236 104.193359,20.427002 C105.001957,19.8916803 105.877925,19.6240234 106.821289,19.6240234 C108.296231,19.6240234 109.46606,20.1275178 110.330811,21.1345215 C111.195561,22.1415252 111.62793,23.5172439 111.62793,25.2617188 L111.62793,26.0141602 L102.958008,26.0141602 L102.958008,26.2724609 C102.958008,27.650072 103.352942,28.7974401 104.142822,29.7145996 C104.932703,30.6317591 105.926589,31.090332 107.124512,31.090332 C107.843265,31.090332 108.47778,30.9593112 109.028076,30.6972656 C109.578372,30.43522 110.078123,30.0159534 110.527344,29.4394531 L111.369629,30.0795898 C110.381343,31.50961 108.947601,32.2246094 107.068359,32.2246094 Z M106.821289,20.7695312 C105.810542,20.7695312 104.958906,21.140133 104.266357,21.8813477 C103.573808,22.6225623 103.15267,23.6183206 103.00293,24.8686523 L110.291504,24.8686523 L110.291504,24.7226562 C110.254069,23.5546817 109.920902,22.6038448 109.291992,21.8701172 C108.663083,21.1363896 107.839523,20.7695312 106.821289,20.7695312 Z M120.521973,28.9116211 C120.521973,28.2452766 120.254316,27.709963 119.718994,27.3056641 C119.183672,26.9013652 118.376959,26.5850435 117.298828,26.3566895 C116.220698,26.1283354 115.384036,25.8662938 114.788818,25.5705566 C114.193601,25.2748195 113.751873,24.9135764 113.463623,24.4868164 C113.175373,24.0600565 113.03125,23.5434601 113.03125,22.9370117 C113.03125,21.9786736 113.431799,21.1869335 114.23291,20.5617676 C115.034021,19.9366017 116.059727,19.6240234 117.310059,19.6240234 C118.665209,19.6240234 119.752681,19.9590624 120.57251,20.6291504 C121.392338,21.2992384 121.802246,22.1733345 121.802246,23.2514648 L120.45459,23.2514648 C120.45459,22.5401983 120.156985,21.9487328 119.561768,21.4770508 C118.96655,21.0053687 118.215988,20.7695312 117.310059,20.7695312 C116.426591,20.7695312 115.717206,20.9660625 115.181885,21.3591309 C114.646563,21.7521992 114.378906,22.2631804 114.378906,22.8920898 C114.378906,23.4985382 114.601642,23.9683414 115.047119,24.3015137 C115.492597,24.6346859 116.304926,24.9397773 117.484131,25.2167969 C118.663336,25.4938165 119.546791,25.7895492 120.134521,26.1040039 C120.722252,26.4184586 121.158364,26.7965473 121.442871,27.2382812 C121.727378,27.6800152 121.869629,28.2153289 121.869629,28.8442383 C121.869629,29.8699596 121.455977,30.6897756 120.628662,31.3037109 C119.801347,31.9176463 118.721361,32.2246094 117.388672,32.2246094 C115.973626,32.2246094 114.826258,31.8820835 113.946533,31.1970215 C113.066809,30.5119595 112.626953,29.6453503 112.626953,28.597168 L113.974609,28.597168 C114.027018,29.3833047 114.358314,29.9953591 114.968506,30.4333496 C115.578698,30.8713401 116.385412,31.090332 117.388672,31.090332 C118.324549,31.090332 119.080726,30.8844422 119.657227,30.4726562 C120.233727,30.0608703 120.521973,29.5405305 120.521973,28.9116211 Z" id="Johannes" fill="#424851" fill-rule="nonzero"></path>
    </g>
</svg>