<?xml version="1.0" encoding="UTF-8"?>
<svg width="154px" height="50px" viewBox="0 0 154 50" version="1.1" xmlns="http://www.w3.org/2000/svg" xmlns:xlink="http://www.w3.org/1999/xlink">
    <!-- Generator: Sketch 53.2 (72643) - https://sketchapp.com -->
    <title>preset_font_1</title>
    <desc>Created with Sketch.</desc>
    <g id="preset_font_1" stroke="none" stroke-width="1" fill="none" fill-rule="evenodd">
        <rect fill="#FFFFFF" x="0" y="0" width="154" height="50"></rect>
        <path d="M29.8031116,32.667 C30.5697821,32.743667 31.1294432,32.782 31.4821116,32.782 C32.1721151,32.782 32.6321105,32.6440014 32.8621116,32.368 C33.0921128,32.0919986 33.2071116,31.5630039 33.2071116,30.781 L33.2071116,15.624 L37.5311116,15.624 L37.5311116,30.712 C37.5311116,32.6440097 37.1401156,34.0623288 36.3581116,34.967 C35.5761077,35.8716712 34.2344545,36.324 32.3331116,36.324 C31.5817746,36.324 30.7384497,36.2550007 29.8031116,36.117 L29.8031116,32.667 Z M44.8783337,32.184 C43.5749939,32.184 42.4403386,31.9386691 41.4743337,31.448 C40.5083289,30.9573309 39.7646697,30.2520046 39.2433337,29.332 C38.7219978,28.4119954 38.4613337,27.3310062 38.4613337,26.089 C38.4613337,24.8469938 38.7219978,23.7660046 39.2433337,22.846 C39.7646697,21.9259954 40.5083289,21.2206691 41.4743337,20.73 C42.4403386,20.2393309 43.5749939,19.994 44.8783337,19.994 C46.1663402,19.994 47.2894956,20.2431642 48.2478337,20.7415 C49.2061719,21.2398358 49.9459978,21.9451621 50.4673337,22.8575 C50.9886697,23.7698379 51.2493337,24.8469938 51.2493337,26.089 C51.2493337,27.3310062 50.9886697,28.4081621 50.4673337,29.3205 C49.9459978,30.2328379 49.2061719,30.9381642 48.2478337,31.4365 C47.2894956,31.9348358 46.1663402,32.184 44.8783337,32.184 Z M44.8783337,29.079 C46.3810079,29.079 47.1323337,28.0823433 47.1323337,26.089 C47.1323337,25.0769949 46.9445023,24.3295024 46.5688337,23.8465 C46.1931652,23.3634976 45.6296708,23.122 44.8783337,23.122 C44.1116632,23.122 43.536669,23.3634976 43.1533337,23.8465 C42.7699985,24.3295024 42.5783337,25.0769949 42.5783337,26.089 C42.5783337,27.1163385 42.7699985,27.8714976 43.1533337,28.3545 C43.536669,28.8375024 44.1116632,29.079 44.8783337,29.079 Z M59.7465558,19.994 C61.1265627,19.994 62.1577191,20.4118292 62.8400558,21.2475 C63.5223926,22.0831708 63.8635558,23.3443249 63.8635558,25.031 L63.8635558,32 L59.7005558,32 L59.7005558,25.215 C59.7005558,24.4943297 59.5778904,23.9768349 59.3325558,23.6625 C59.0872213,23.3481651 58.7038918,23.191 58.1825558,23.191 C57.553886,23.191 57.0478911,23.4018312 56.6645558,23.8235 C56.2812206,24.2451688 56.0895558,24.8009966 56.0895558,25.491 L56.0895558,32 L51.9265558,32 L51.9265558,15.072 L56.0895558,15.072 L56.0895558,21.742 C56.994227,20.5766608 58.2132148,19.994 59.7465558,19.994 Z M77.3057779,20.316 L77.3057779,32 L73.2117779,32 L73.2117779,30.413 C72.8744429,30.9650028 72.3837811,31.3981651 71.7397779,31.7125 C71.0957747,32.0268349 70.3904484,32.184 69.6237779,32.184 C68.6271063,32.184 67.7377818,31.9386691 66.9557779,31.448 C66.173774,30.9573309 65.5642801,30.2558379 65.1272779,29.3435 C64.6902757,28.4311621 64.4717779,27.377006 64.4717779,26.181 C64.4717779,24.9696606 64.694109,23.896338 65.1387779,22.961 C65.5834468,22.025662 66.196774,21.2973359 66.9787779,20.776 C67.7607818,20.2546641 68.6424397,19.994 69.6237779,19.994 C70.3904484,19.994 71.0919414,20.1588317 71.7282779,20.4885 C72.3646144,20.8181683 72.8591095,21.2589972 73.2117779,21.811 L73.2117779,20.316 L77.3057779,20.316 Z M70.9117779,29.079 C71.6477816,29.079 72.2151093,28.8260025 72.6137779,28.32 C73.0124466,27.8139975 73.2117779,27.0856714 73.2117779,26.135 C73.2117779,25.1689952 73.0124466,24.4291692 72.6137779,23.9155 C72.2151093,23.4018308 71.6477816,23.145 70.9117779,23.145 C70.1911076,23.145 69.62378,23.4094974 69.2097779,23.9385 C68.7957758,24.4675026 68.5887779,25.2149952 68.5887779,26.181 C68.5887779,27.116338 68.7881093,27.8331642 69.1867779,28.3315 C69.5854466,28.8298358 70.1604408,29.079 70.9117779,29.079 Z M86.332,19.994 C87.7120069,19.994 88.7431633,20.4118292 89.4255,21.2475 C90.1078367,22.0831708 90.449,23.3443249 90.449,25.031 L90.449,32 L86.286,32 L86.286,25.215 C86.286,24.4943297 86.1633346,23.9768349 85.918,23.6625 C85.6726654,23.3481651 85.2893359,23.191 84.768,23.191 C84.1393302,23.191 83.6333353,23.4018312 83.25,23.8235 C82.8666648,24.2451688 82.675,24.8009966 82.675,25.491 L82.675,32 L78.512,32 L78.512,23.674 C78.512,22.4166604 78.4506673,21.2973382 78.328,20.316 L82.238,20.316 L82.445,22.041 C82.8896689,21.3816634 83.4416634,20.8756684 84.101,20.523 C84.7603366,20.1703316 85.5039959,19.994 86.332,19.994 Z M99.4062221,19.994 C100.786229,19.994 101.817385,20.4118292 102.499722,21.2475 C103.182059,22.0831708 103.523222,23.3443249 103.523222,25.031 L103.523222,32 L99.3602221,32 L99.3602221,25.215 C99.3602221,24.4943297 99.2375566,23.9768349 98.9922221,23.6625 C98.7468875,23.3481651 98.363558,23.191 97.8422221,23.191 C97.2135523,23.191 96.7075573,23.4018312 96.3242221,23.8235 C95.9408868,24.2451688 95.7492221,24.8009966 95.7492221,25.491 L95.7492221,32 L91.5862221,32 L91.5862221,23.674 C91.5862221,22.4166604 91.5248894,21.2973382 91.4022221,20.316 L95.3122221,20.316 L95.5192221,22.041 C95.963891,21.3816634 96.5158855,20.8756684 97.1752221,20.523 C97.8345587,20.1703316 98.5782179,19.994 99.4062221,19.994 Z M115.447444,26.572 L108.110444,26.572 C108.187111,27.4766712 108.447775,28.1283313 108.892444,28.527 C109.337113,28.9256687 109.988773,29.125 110.847444,29.125 C111.430114,29.125 112.012775,29.0291676 112.595444,28.8375 C113.178114,28.6458324 113.707108,28.381335 114.182444,28.044 L115.240444,30.804 C114.657775,31.2333355 113.952448,31.5706654 113.124444,31.816 C112.29644,32.0613346 111.468448,32.184 110.640444,32.184 C109.306438,32.184 108.148782,31.9386691 107.167444,31.448 C106.186106,30.9573309 105.43478,30.2558379 104.913444,29.3435 C104.392108,28.4311621 104.131444,27.3540062 104.131444,26.112 C104.131444,24.9313274 104.380608,23.8771713 104.878944,22.9495 C105.37728,22.0218287 106.067273,21.2973359 106.948944,20.776 C107.830615,20.2546641 108.838772,19.994 109.973444,19.994 C111.07745,19.994 112.04344,20.2393309 112.871444,20.73 C113.699448,21.2206691 114.335775,21.9221621 114.780444,22.8345 C115.225113,23.7468379 115.447444,24.8086606 115.447444,26.02 L115.447444,26.572 Z M110.088444,22.846 C109.061106,22.846 108.417112,23.443994 108.156444,24.64 L111.882444,24.64 C111.72911,23.443994 111.131116,22.846 110.088444,22.846 Z M120.816666,32.184 C118.485988,32.184 116.646006,31.716338 115.296666,30.781 L116.354666,27.952 C116.983336,28.3813355 117.696329,28.7148321 118.493666,28.9525 C119.291004,29.1901679 120.072996,29.309 120.839666,29.309 C121.315002,29.309 121.682998,29.2400007 121.943666,29.102 C122.204334,28.9639993 122.334666,28.7723346 122.334666,28.527 C122.334666,28.3123323 122.238834,28.139834 122.047166,28.0095 C121.855499,27.879166 121.491336,27.7603339 120.954666,27.653 L119.068666,27.216 C117.87266,26.9706654 117.010169,26.5835026 116.481166,26.0545 C115.952164,25.5254974 115.687666,24.793338 115.687666,23.858 C115.687666,23.1066629 115.909997,22.4396696 116.354666,21.857 C116.799335,21.2743304 117.416496,20.8181683 118.206166,20.4885 C118.995837,20.1588317 119.904328,19.994 120.931666,19.994 C121.775004,19.994 122.602996,20.1166654 123.415666,20.362 C124.228337,20.6073346 124.987329,20.9523311 125.692666,21.397 L124.588666,24.157 C123.97533,23.7583313 123.346669,23.4516677 122.702666,23.237 C122.058663,23.0223323 121.453002,22.915 120.885666,22.915 C120.425664,22.915 120.065334,22.9878326 119.804666,23.1335 C119.543998,23.2791674 119.413666,23.4899986 119.413666,23.766 C119.413666,23.9346675 119.490332,24.0688328 119.643666,24.1685 C119.797,24.2681672 120.088331,24.3716661 120.517666,24.479 L122.472666,24.916 C123.714672,25.2073348 124.60783,25.6328305 125.152166,26.1925 C125.696502,26.7521695 125.968666,27.5149952 125.968666,28.481 C125.968666,29.6310057 125.512504,30.5356634 124.600166,31.195 C123.687828,31.8543366 122.426674,32.184 120.816666,32.184 Z" id="Johannes" fill="#424851" fill-rule="nonzero"></path>
    </g>
</svg>