<?xml version="1.0" encoding="UTF-8"?>
<svg width="154px" height="50px" viewBox="0 0 154 50" version="1.1" xmlns="http://www.w3.org/2000/svg" xmlns:xlink="http://www.w3.org/1999/xlink">
    <!-- Generator: Sketch 53.2 (72643) - https://sketchapp.com -->
    <title>preset_font_4</title>
    <desc>Created with Sketch.</desc>
    <g id="preset_font_4" stroke="none" stroke-width="1" fill="none" fill-rule="evenodd">
        <rect fill="#FFFFFF" x="0" y="0" width="154" height="50"></rect>
        <path d="M38.5608015,37.0019531 C38.0699136,37.0019531 37.5874966,36.9046234 37.1135359,36.7099609 C36.6395752,36.5152985 36.2164023,36.2402362 35.8440046,35.8847656 C35.4716069,35.5292951 35.1753859,35.0934271 34.9553328,34.5771484 C34.7352796,34.0608698 34.6421815,33.4726596 34.6760359,32.8125 C34.7268174,31.6614526 34.9553307,30.595057 35.3615828,29.6132812 C35.7678348,28.6315055 36.2417884,27.7851598 36.7834578,27.0742188 C37.3251271,26.3632777 37.8752518,25.8089213 38.4338484,25.4111328 C38.9924449,25.0133444 39.4579351,24.8144531 39.8303328,24.8144531 C40.0673131,24.8144531 40.2831313,24.894856 40.4777937,25.0556641 C40.6724561,25.2164722 40.8247984,25.4195951 40.9348249,25.6650391 C41.0448515,25.910483 41.1125592,26.1813136 41.1379499,26.4775391 C41.1633407,26.7737645 41.1252551,27.0572903 41.0236921,27.328125 C40.8544205,27.2096348 40.5412725,27.2519521 40.084239,27.4550781 C39.6272055,27.6582041 39.1532519,28.0009742 38.662364,28.4833984 C38.1714761,28.9658227 37.7313764,29.5624964 37.3420515,30.2734375 C36.9527266,30.9843786 36.7326768,31.7799435 36.6818953,32.6601562 C36.6480409,33.23568 36.677663,33.7265605 36.7707624,34.1328125 C36.8638619,34.5390645 36.9992772,34.8691394 37.1770124,35.1230469 C37.3547477,35.3769544 37.5578707,35.5631504 37.7863874,35.6816406 C38.0149042,35.8001308 38.2561127,35.859375 38.5100203,35.859375 C39.1193983,35.859375 39.6779865,35.6308617 40.1858015,35.1738281 C40.6936165,34.7167946 41.1591067,34.0778036 41.5822859,33.2568359 C42.0054651,32.4358683 42.4032476,31.4541073 42.7756453,30.3115234 C43.148043,29.1689396 43.5035081,27.9036528 43.8420515,26.515625 C43.9436145,26.0924458 44.0747981,25.5677115 44.2356062,24.9414062 C44.3964143,24.315101 44.5699152,23.6337927 44.756114,22.8974609 C44.9423129,22.1611291 45.1412041,21.399418 45.3527937,20.6123047 C45.5643833,19.8251914 45.7632745,19.0719437 45.9494734,18.3525391 C46.1356722,17.6331344 46.3134048,16.9645213 46.4826765,16.3466797 C46.6519482,15.7288381 46.7873635,15.2252624 46.8889265,14.8359375 C46.33033,14.8359375 45.7717418,14.8697913 45.2131453,14.9375 C44.7391846,14.9882815 44.248304,15.0602209 43.740489,15.1533203 C43.232674,15.2464197 42.8095011,15.3691399 42.4709578,15.5214844 C42.4371034,15.5045572 42.411713,15.4580082 42.3947859,15.3818359 C42.3778587,15.3056637 42.3609318,15.2252608 42.3440046,15.140625 C42.3270775,15.039062 42.3101505,14.9290371 42.2932234,14.8105469 C42.2762962,14.6751295 42.2762962,14.5397142 42.2932234,14.4042969 C42.3101505,14.2858067 42.3270775,14.1546231 42.3440046,14.0107422 C42.3609318,13.8668613 42.3947856,13.7187508 42.4455671,13.5664062 C42.8856735,13.4309889 43.3977126,13.3251957 43.9816999,13.2490234 C44.5656872,13.1728512 45.1115802,13.1178387 45.6193953,13.0839844 C46.2118461,13.0332029 46.821215,13.0078125 47.4475203,13.0078125 C47.9045538,13.0078125 48.3785074,13.0332029 48.8693953,13.0839844 C49.2925745,13.1178387 49.766528,13.1686195 50.2912703,13.2363281 C50.8160125,13.3040368 51.3407468,13.4055983 51.865489,13.5410156 C51.9839792,13.6595058 52.0601503,13.7949211 52.0940046,13.9472656 C52.1109318,14.0149743 52.1193953,14.0911454 52.1193953,14.1757812 C52.1193953,14.3111986 52.0940049,14.4381504 52.0432234,14.5566406 C52.009369,14.6582036 51.9543566,14.7639968 51.8781843,14.8740234 C51.8020121,14.98405 51.7046823,15.0729163 51.5861921,15.140625 C51.3999933,15.0898435 51.1672482,15.0517579 50.8879499,15.0263672 C50.6086517,15.0009764 50.3335893,14.9713543 50.0627546,14.9375 C49.7580656,14.9036457 49.4364542,14.8782553 49.0979109,14.8613281 L46.4065046,26.8457031 C46.338796,27.133465 46.2203076,27.5862599 46.0510359,28.2041016 C45.8817642,28.8219432 45.6490191,29.5074832 45.3527937,30.2607422 C45.0565683,31.0140012 44.7011031,31.7884075 44.2863874,32.5839844 C43.8716718,33.3795613 43.385023,34.1031868 42.8264265,34.7548828 C42.26783,35.4065788 41.6330707,35.9440083 40.9221296,36.3671875 C40.2111886,36.7903667 39.4240871,37.0019531 38.5608015,37.0019531 Z M56.168648,27.9628906 C55.9993763,28.606123 55.770863,29.2070285 55.4831011,29.765625 C55.1953393,30.3242215 54.8525693,30.8066386 54.4547808,31.2128906 C54.0569924,31.6191427 53.6084291,31.9365223 53.1090777,32.1650391 C52.6097262,32.3935558 52.0638333,32.5078125 51.4713824,32.5078125 C50.7773685,32.5078125 50.2314755,32.359702 49.8336871,32.0634766 C49.4358986,31.7672511 49.1396776,31.3990907 48.9450152,30.9589844 C48.7503528,30.518878 48.6318644,30.036461 48.5895464,29.5117188 C48.5472285,28.9869765 48.5260699,28.496096 48.5260699,28.0390625 C48.5260699,27.7174463 48.5641554,27.3619811 48.6403277,26.9726562 C48.7164999,26.5833314 48.8222932,26.1855489 48.9577105,25.7792969 C49.0931278,25.3730448 49.2666287,24.9667989 49.4782183,24.5605469 C49.6898079,24.1542948 49.9394799,23.7819027 50.2272418,23.4433594 C50.3288048,23.1555975 50.4853787,22.9016938 50.6969683,22.6816406 C50.9085579,22.4615874 51.1539982,22.2796231 51.4332964,22.1357422 C51.7125947,21.9918613 52.0130474,21.8818363 52.3346636,21.8056641 C52.6562798,21.7294918 52.9694277,21.6914062 53.2741168,21.6914062 C53.3248983,21.6914062 53.3714473,21.6998697 53.4137652,21.7167969 C53.4560831,21.733724 53.5026321,21.750651 53.5534136,21.7675781 C53.7734668,21.7845053 54.0485292,21.8691399 54.3786089,22.0214844 C54.7086887,22.1738289 55.0303001,22.4023422 55.3434527,22.7070312 C55.6566053,23.0117203 55.9232042,23.3968076 56.1432574,23.8623047 C56.3633106,24.3278018 56.4733355,24.8906217 56.4733355,25.5507812 C56.4733355,25.6861986 56.464872,25.851236 56.4479449,26.0458984 C56.4310177,26.2405609 56.4140908,26.4055983 56.3971636,26.5410156 C56.7864885,26.3886711 57.1927344,26.2024751 57.6159136,25.9824219 C58.0390928,25.7623687 58.4495705,25.5296236 58.8473589,25.2841797 C59.2451474,25.0387358 59.6133078,24.7890638 59.9518511,24.5351562 C60.2903945,24.2812487 60.5612251,24.0527354 60.7643511,23.8496094 C60.9336228,23.6972649 61.0775016,23.6126303 61.1959918,23.5957031 C61.3144819,23.578776 61.3991165,23.6126298 61.449898,23.6972656 C61.5006795,23.7819015 61.509143,23.9003899 61.4752886,24.0527344 C61.4414343,24.2050789 61.3483363,24.374348 61.1959918,24.5605469 C61.1113559,24.6621099 60.8955378,24.8652329 60.5485308,25.1699219 C60.2015239,25.4746109 59.7910462,25.8046857 59.3170855,26.1601562 C58.8431248,26.5156268 58.3268539,26.8626285 57.7682574,27.2011719 C57.2096608,27.5397152 56.676463,27.7936189 56.168648,27.9628906 Z M51.8776324,24.1035156 C51.8268509,24.2558601 51.8014605,24.4166658 51.8014605,24.5859375 C51.8014605,24.8567722 51.8183874,25.140298 51.8522418,25.4365234 C51.8860961,25.7327489 51.9707307,25.9993478 52.106148,26.2363281 C52.2415653,26.4733085 52.4573835,26.6721997 52.7536089,26.8330078 C53.0498344,26.9938159 53.460312,27.0742188 53.9850543,27.0742188 C54.0696901,27.0742188 54.1543247,27.069987 54.2389605,27.0615234 C54.3235963,27.0530599 54.4082309,27.0403647 54.4928668,27.0234375 C54.5436483,26.8033843 54.5901973,26.6044931 54.6325152,26.4267578 C54.6748331,26.2490225 54.6959918,26.0924486 54.6959918,25.9570312 C54.7298461,25.6354151 54.7298461,25.3053402 54.6959918,24.9667969 C54.6621374,24.6282535 54.5986615,24.3193373 54.5055621,24.0400391 C54.4124626,23.7607408 54.2939742,23.5322275 54.1500933,23.3544922 C54.0062124,23.1767569 53.8327115,23.0878906 53.6295855,23.0878906 C53.3079693,23.0878906 52.9990531,23.1767569 52.7028277,23.3544922 C52.4066023,23.5322275 52.1315399,23.7818994 51.8776324,24.1035156 Z M50.2526324,28.5722656 C50.2526324,28.8769546 50.2695593,29.1774074 50.3034136,29.4736328 C50.337268,29.7698583 50.4049756,30.0322254 50.5065386,30.2607422 C50.6081016,30.489259 50.7435169,30.675455 50.9127886,30.8193359 C51.0820603,30.9632169 51.3021102,31.0351562 51.5729449,31.0351562 C51.8776339,31.0351562 52.156928,30.9632169 52.4108355,30.8193359 C52.664743,30.675455 52.8932564,30.489259 53.0963824,30.2607422 C53.2995084,30.0322254 53.4814727,29.7698583 53.6422808,29.4736328 C53.8030889,29.1774074 53.942736,28.8684912 54.0612261,28.546875 C53.942736,28.5638022 53.8284793,28.5764974 53.7184527,28.5849609 C53.6084261,28.5934245 53.485706,28.5976562 53.3502886,28.5976562 C52.7070562,28.5976562 52.1526998,28.4072285 51.6872027,28.0263672 C51.2217056,27.6455059 50.8620086,27.1588571 50.6081011,26.5664062 C50.5065381,26.9218768 50.4219036,27.2688785 50.3541949,27.6074219 C50.2864862,27.9459652 50.2526324,28.2675766 50.2526324,28.5722656 Z M70.8565726,26.4140625 C70.9750628,26.2786452 71.0977829,26.2067058 71.2247367,26.1982422 C71.3516905,26.1897786 71.4532519,26.2236324 71.5294242,26.2998047 C71.6055964,26.3759769 71.6394503,26.4902336 71.6309867,26.6425781 C71.6225231,26.7949226 71.5505837,26.9641918 71.4151664,27.1503906 C71.0935502,27.590497 70.7211581,28.0432919 70.2979789,28.5087891 C69.8747997,28.9742862 69.4220047,29.4270811 68.9395804,29.8671875 C68.4571562,30.3072939 67.9705074,30.7220033 67.4796195,31.1113281 C66.9887316,31.500653 66.514778,31.8222644 66.0577445,32.0761719 C65.5499295,32.3639337 65.1225249,32.5078125 64.7755179,32.5078125 C64.428511,32.5078125 64.085741,32.2877626 63.7471976,31.8476562 C63.4425086,31.4583314 63.2943981,31.0393903 63.3028617,30.5908203 C63.3113253,30.1422504 63.408655,29.5794305 63.5948539,28.9023438 C63.7133441,28.4791646 63.8783815,27.9755889 64.0899711,27.3916016 C64.3015607,26.8076143 64.4708298,26.2447944 64.5977836,25.703125 C64.7247373,25.1614556 64.7628229,24.7001972 64.7120414,24.3193359 C64.6612599,23.9384747 64.44121,23.7480469 64.0518851,23.7480469 C63.7810504,23.7480469 63.4890612,23.8411449 63.1759086,24.0273438 C62.862756,24.2135426 62.549608,24.4547511 62.2364554,24.7509766 C61.9233028,25.047202 61.6228501,25.3815086 61.3350883,25.7539062 C61.0473264,26.1263039 60.7934227,26.4902326 60.5733695,26.8457031 C60.4379522,27.5058627 60.3025368,28.1575489 60.1671195,28.8007812 C60.0486293,29.3424506 59.9259092,29.9306609 59.7989554,30.5654297 C59.6720017,31.2001985 59.5492816,31.7630184 59.4307914,32.2539062 C59.3292284,32.3385421 59.2192034,32.3977863 59.1007133,32.4316406 C58.9822231,32.465495 58.8721981,32.4824219 58.7706351,32.4824219 C58.652145,32.4824219 58.5336566,32.4739584 58.4151664,32.4570312 C58.279749,32.4231769 58.1527972,32.3723962 58.034307,32.3046875 C57.932744,32.2369788 57.8311825,32.1481125 57.7296195,32.0380859 C57.6280565,31.9280593 57.5518854,31.7799488 57.5011039,31.59375 C58.2628264,28.4622239 58.8637319,25.9485772 59.3038383,24.0527344 C59.7439446,22.1568916 60.0824829,20.7096404 60.3194633,19.7109375 C60.5902979,18.5260357 60.776494,17.7050804 60.878057,17.2480469 C60.9288385,16.9264307 60.9711558,16.6132828 61.0050101,16.3085938 C61.0388645,16.0377591 61.0557914,15.758465 61.0557914,15.4707031 C61.0557914,15.1829413 61.030401,14.9205741 60.9796195,14.6835938 C61.1150368,14.5989579 61.2631473,14.5312503 61.4239554,14.4804688 C61.5847635,14.4296872 61.7413375,14.38737 61.893682,14.3535156 C62.0798809,14.3027341 62.2660769,14.2604168 62.4522758,14.2265625 C62.6384746,14.1927082 62.8077437,14.1757812 62.9600883,14.1757812 C63.0955056,14.1757812 63.2224575,14.1884764 63.3409476,14.2138672 C63.4594378,14.2392579 63.5356089,14.2942704 63.5694633,14.3789062 C63.6710263,14.4635421 63.7175753,14.6328112 63.7091117,14.8867188 C63.7006481,15.1406263 63.6794895,15.4029934 63.6456351,15.6738281 C63.5779265,15.9954443 63.5017553,16.3424461 63.4171195,16.7148438 C63.061649,18.0859444 62.6638665,19.4189388 62.2237601,20.7138672 C61.7836538,22.0087955 61.3774078,23.3925708 61.0050101,24.8652344 C61.2250633,24.526691 61.4874305,24.1796893 61.7921195,23.8242188 C62.0968085,23.4687482 62.4311151,23.1429051 62.7950492,22.8466797 C63.1589833,22.5504542 63.5440706,22.305014 63.9503226,22.1103516 C64.3565747,21.9156891 64.788211,21.8183594 65.2452445,21.8183594 C65.4822249,21.8183594 65.7065065,21.8564449 65.9180961,21.9326172 C66.1296857,22.0087894 66.3158817,22.1357413 66.4766898,22.3134766 C66.6374979,22.4912118 66.760218,22.7281886 66.8448539,23.0244141 C66.9294897,23.3206395 66.9633435,23.6887999 66.9464164,24.1289062 C66.9464164,24.3997409 66.9167943,24.679035 66.8575492,24.9667969 C66.7983041,25.2545587 66.7179013,25.5719384 66.6163383,25.9189453 C66.5147752,26.2659523 66.3835917,26.6510396 66.2227836,27.0742188 C66.0619755,27.4973979 65.8715477,27.9882785 65.6514945,28.546875 C65.49915,28.9361999 65.3806616,29.2662747 65.2960258,29.5371094 C65.2113899,29.8079441 65.2283168,30.0449209 65.346807,30.2480469 C65.4991515,30.5188816 65.7996042,30.5823575 66.2481742,30.4384766 C66.6967441,30.2945956 67.369589,29.8587276 68.2667289,29.1308594 C68.4698549,28.9615877 68.6983682,28.7500013 68.9522758,28.4960938 C69.2061833,28.2421862 69.4516235,27.9840508 69.6886039,27.7216797 C69.9255842,27.4593086 70.1456341,27.2096366 70.3487601,26.9726562 C70.5518861,26.7356759 70.7211553,26.5494798 70.8565726,26.4140625 Z M81.7612941,26.9472656 C81.5243138,27.285809 81.2196293,27.7047501 80.8472316,28.2041016 C80.4748339,28.703453 80.0897466,29.202797 79.6919582,29.7021484 C79.2941697,30.2014999 78.9048507,30.6585266 78.5239894,31.0732422 C78.1431282,31.4879578 77.8257485,31.7799471 77.571841,31.9492188 C77.4025693,32.0507818 77.2079098,32.1354163 76.9878566,32.203125 C76.7678034,32.2708337 76.5435218,32.313151 76.3150051,32.3300781 C76.0864883,32.3470053 75.8706701,32.3343101 75.6675441,32.2919922 C75.4644181,32.2496743 75.2866855,32.1777349 75.134341,32.0761719 C74.9819965,31.9576817 74.8550446,31.7884126 74.7534816,31.5683594 C74.6688458,31.3821605 74.5884429,31.1367203 74.5122707,30.8320312 C74.4360984,30.5273422 74.4064763,30.1464867 74.4234035,29.6894531 C74.0171515,30.3665398 73.5685882,30.8870425 73.0777004,31.2509766 C72.5868125,31.6149107 72.1213224,31.8815096 71.681216,32.0507812 C71.173401,32.2369801 70.6655935,32.347005 70.1577785,32.3808594 C69.9207981,32.3808594 69.6668944,32.3004565 69.3960598,32.1396484 C69.1252251,31.9788403 68.8967117,31.7249366 68.7105129,31.3779297 C68.524314,31.0309227 68.4058256,30.5823595 68.3550441,30.0322266 C68.3042626,29.4820936 68.3719703,28.8261757 68.5581691,28.0644531 C68.7951495,27.0318959 69.1717733,26.0924521 69.6880519,25.2460938 C70.2043306,24.3997354 70.7671505,23.6761098 71.3765285,23.0751953 C71.9859065,22.4742808 72.586812,22.0214859 73.1792629,21.7167969 C73.7717138,21.4121079 74.2625943,21.2766925 74.6519191,21.3105469 C75.1089527,21.3951827 75.4813448,21.530598 75.7691066,21.7167969 C76.006087,21.8860686 76.1626609,22.1357405 76.2388332,22.4658203 C76.3150054,22.7959001 76.1753584,23.2317681 75.8198879,23.7734375 C76.0568682,23.722656 76.2557595,23.6888022 76.4165676,23.671875 C76.5773757,23.6549478 76.7000958,23.6464844 76.7847316,23.6464844 C76.8862946,23.6464844 76.9540023,23.6549478 76.9878566,23.671875 C77.0047838,23.7057293 77.0132473,23.7776687 77.0132473,23.8876953 C77.0132473,23.9977219 76.9878569,24.1966131 76.9370754,24.484375 C76.8862939,24.7721369 76.8101228,25.1614559 76.7085598,25.6523438 C76.6069967,26.1432316 76.4715814,26.7779909 76.3023098,27.5566406 C76.2684554,27.7089851 76.2388333,27.8486322 76.2134426,27.9755859 L75.9214504,29.4355469 C75.9045232,29.5878914 75.9002915,29.7529288 75.9087551,29.9306641 C75.9172186,30.1083993 75.9468407,30.2734367 75.9976223,30.4257812 C76.0484038,30.5781258 76.1288066,30.7008459 76.2388332,30.7939453 C76.3488598,30.8870447 76.5054337,30.9335938 76.7085598,30.9335938 C76.8778314,30.9335938 77.0978813,30.8278005 77.368716,30.6162109 C77.6395507,30.4046213 77.9273082,30.1337907 78.2319973,29.8037109 C78.5366863,29.4736312 78.8540659,29.1097025 79.1841457,28.7119141 C79.5142255,28.3141256 79.8231416,27.9290383 80.1109035,27.5566406 C80.3986654,27.1842429 80.6568008,26.8541681 80.8853176,26.5664062 C81.1138343,26.2786444 81.2788717,26.067058 81.3804348,25.9316406 C81.5158521,25.7792961 81.6512674,25.6904298 81.7866848,25.6650391 C81.9221021,25.6396483 82.0236636,25.6777339 82.0913723,25.7792969 C82.1590809,25.8808599 82.1717761,26.0332021 82.1294582,26.2363281 C82.0871403,26.4394541 81.9644201,26.6764309 81.7612941,26.9472656 Z M74.321841,28.0644531 C74.4064768,27.7259098 74.5080383,27.3281273 74.6265285,26.8710938 C74.7450187,26.4140602 74.8465802,25.9739604 74.931216,25.5507812 C75.0158518,25.1276021 75.0793278,24.7763686 75.1216457,24.4970703 C75.1639636,24.217772 75.1512684,24.0865885 75.0835598,24.1035156 C74.9989239,24.1204428 74.9058259,24.1458332 74.8042629,24.1796875 C74.719627,24.2135418 74.6096021,24.2389322 74.4741848,24.2558594 C74.3387674,24.2727865 74.2033521,24.2981769 74.0679348,24.3320312 C74.2033521,24.0611966 74.2837549,23.836915 74.3091457,23.6591797 C74.3345364,23.4814444 74.3387682,23.3417974 74.321841,23.2402344 C74.3049138,23.1217442 74.27106,23.0286462 74.2202785,22.9609375 C74.0340797,22.808593 73.7082366,22.9313131 73.2427394,23.3291016 C72.7772423,23.72689 72.2398128,24.458979 71.6304348,25.5253906 C71.3765272,25.965497 71.1734043,26.4352189 71.0210598,26.9345703 C70.8687152,27.4339218 70.762922,27.9036436 70.7036769,28.34375 C70.6444319,28.7838564 70.6317367,29.1689437 70.665591,29.4990234 C70.6994453,29.8291032 70.767153,30.0449214 70.868716,30.1464844 C71.0549148,30.3326832 71.2665013,30.4215495 71.5034816,30.4130859 C71.740462,30.4046224 71.9816705,30.3369147 72.2271144,30.2099609 C72.4725584,30.0830072 72.7179986,29.9179698 72.9634426,29.7148438 C73.2088865,29.5117177 73.4289364,29.3001313 73.6235988,29.0800781 C73.8182612,28.8600249 73.9790669,28.656902 74.1060207,28.4707031 C74.2329744,28.2845043 74.3049138,28.149089 74.321841,28.0644531 Z M86.4707031,32.6347656 C86.0813783,32.6347656 85.7470717,32.5628262 85.4677734,32.4189453 C85.1884752,32.2750644 84.9641936,32.0846366 84.7949219,31.8476562 C84.6256502,31.6106759 84.5156253,31.3356135 84.4648438,31.0224609 C84.4140622,30.7093083 84.4309892,30.3750018 84.515625,30.0195312 C84.5664065,29.7825509 84.6510411,29.4651713 84.7695312,29.0673828 C84.8880214,28.6695944 85.0107416,28.2379581 85.1376953,27.7724609 C85.2646491,27.3069638 85.3831375,26.8414737 85.4931641,26.3759766 C85.6031907,25.9104794 85.67513,25.4873066 85.7089844,25.1064453 C85.7428387,24.725584 85.7259118,24.4124361 85.6582031,24.1669922 C85.5904945,23.9215483 85.4466157,23.7988281 85.2265625,23.7988281 C84.9557278,23.7988281 84.6764337,23.8876944 84.3886719,24.0654297 C84.10091,24.243165 83.8089208,24.4843735 83.5126953,24.7890625 C83.2164699,25.0937515 82.9202489,25.444985 82.6240234,25.8427734 C82.327798,26.2405619 82.0358087,26.6510396 81.7480469,27.0742188 C81.5957024,27.6497425 81.4687505,28.1533182 81.3671875,28.5849609 C81.2656245,29.0166037 81.1767582,29.4059227 81.1005859,29.7529297 C81.0244137,30.0999366 80.9524743,30.4046211 80.8847656,30.6669922 C80.817057,30.9293633 80.7578128,31.1790353 80.7070312,31.4160156 C80.6562497,31.5852873 80.5039075,31.7503247 80.25,31.9111328 C79.9960925,32.0719409 79.7252619,32.2031245 79.4375,32.3046875 C79.1497381,32.4062505 78.9000662,32.4570312 78.6884766,32.4570312 C78.476887,32.4570312 78.3880207,32.3808601 78.421875,32.2285156 C78.4388022,32.1269526 78.4938146,31.8984393 78.5869141,31.5429688 C78.6800135,31.1874982 78.7900384,30.7685571 78.9169922,30.2861328 C79.0439459,29.8037085 79.1751295,29.2916694 79.3105469,28.75 C79.4459642,28.2083306 79.5729161,27.6920597 79.6914062,27.2011719 C79.7760421,26.811847 79.8691401,26.3802107 79.9707031,25.90625 C80.055339,25.499998 80.1611322,25.0260444 80.2880859,24.484375 C80.4150397,23.9427056 80.5631502,23.3502636 80.7324219,22.7070312 C80.8509121,22.6054682 80.9736322,22.5250654 81.1005859,22.4658203 C81.2275397,22.4065752 81.3587233,22.3600262 81.4941406,22.3261719 C81.629558,22.2753904 81.7734367,22.2415365 81.9257812,22.2246094 C82.0611986,22.2246094 82.1966139,22.2330728 82.3320312,22.25 C82.4505214,22.2669272 82.5732416,22.2965493 82.7001953,22.3388672 C82.8271491,22.3811851 82.9414057,22.444661 83.0429688,22.5292969 C82.9921872,22.6477871 82.932943,22.8128245 82.8652344,23.0244141 C82.7975257,23.2360037 82.729818,23.4602853 82.6621094,23.6972656 C82.5944007,23.9681003 82.5097661,24.2473944 82.4082031,24.5351562 C82.6282563,24.2304672 82.8779283,23.921551 83.1572266,23.6083984 C83.4365248,23.2952458 83.7412093,23.01172 84.0712891,22.7578125 C84.4013688,22.503905 84.7526023,22.2965503 85.125,22.1357422 C85.4973977,21.9749341 85.8782533,21.8945312 86.2675781,21.8945312 C86.5891943,21.8945312 86.8769519,21.9876293 87.1308594,22.1738281 C87.3847669,22.360027 87.5836581,22.6181624 87.7275391,22.9482422 C87.87142,23.278322 87.9560546,23.6718727 87.9814453,24.1289062 C88.0068361,24.5859398 87.9433601,25.0852837 87.7910156,25.6269531 L87.5117188,26.7441406 C87.4270829,27.0996112 87.3212897,27.5185523 87.1943359,28.0009766 C87.0673822,28.4834008 86.9108082,29.0123669 86.7246094,29.5878906 C86.6230464,29.9602883 86.5849608,30.2818997 86.6103516,30.5527344 C86.6357423,30.8235691 86.8007797,30.9589844 87.1054688,30.9589844 C87.4101578,30.9589844 87.7952451,30.7727883 88.2607422,30.4003906 C88.7262393,30.0279929 89.1959612,29.5794297 89.6699219,29.0546875 C90.1438826,28.5299453 90.5924458,27.9925158 91.015625,27.4423828 C91.4388042,26.8922499 91.7604156,26.4479184 91.9804688,26.109375 C92.1328133,25.8893218 92.276692,25.745443 92.4121094,25.6777344 C92.5475267,25.6100257 92.6533199,25.6015622 92.7294922,25.6523438 C92.8056644,25.7031253 92.84375,25.8173819 92.84375,25.9951172 C92.84375,26.1728525 92.7760423,26.3971341 92.640625,26.6679688 C92.5221348,26.9049491 92.3401705,27.218097 92.0947266,27.6074219 C91.8492826,27.9967467 91.5572934,28.4114561 91.21875,28.8515625 C90.8802066,29.2916689 90.516278,29.7360004 90.1269531,30.1845703 C89.7376283,30.6331403 89.3313823,31.0393862 88.9082031,31.4033203 C88.4850239,31.7672544 88.0660828,32.0634754 87.6513672,32.2919922 C87.2366516,32.520509 86.8431008,32.6347656 86.4707031,32.6347656 Z M97.350034,32.6347656 C96.9607091,32.6347656 96.6264026,32.5628262 96.3471043,32.4189453 C96.067806,32.2750644 95.8435244,32.0846366 95.6742527,31.8476562 C95.5049811,31.6106759 95.3949561,31.3356135 95.3441746,31.0224609 C95.2933931,30.7093083 95.31032,30.3750018 95.3949559,30.0195312 C95.4457374,29.7825509 95.5303719,29.4651713 95.6488621,29.0673828 C95.7673523,28.6695944 95.8900724,28.2379581 96.0170262,27.7724609 C96.1439799,27.3069638 96.2624683,26.8414737 96.3724949,26.3759766 C96.4825215,25.9104794 96.5544609,25.4873066 96.5883152,25.1064453 C96.6221696,24.725584 96.6052427,24.4124361 96.537534,24.1669922 C96.4698253,23.9215483 96.3259466,23.7988281 96.1058934,23.7988281 C95.8350587,23.7988281 95.5557646,23.8876944 95.2680027,24.0654297 C94.9802409,24.243165 94.6882516,24.4843735 94.3920262,24.7890625 C94.0958007,25.0937515 93.7995798,25.444985 93.5033543,25.8427734 C93.2071289,26.2405619 92.9151396,26.6510396 92.6273777,27.0742188 C92.4750332,27.6497425 92.3480814,28.1533182 92.2465184,28.5849609 C92.1449554,29.0166037 92.0560891,29.4059227 91.9799168,29.7529297 C91.9037446,30.0999366 91.8318052,30.4046211 91.7640965,30.6669922 C91.6963878,30.9293633 91.6371436,31.1790353 91.5863621,31.4160156 C91.5355806,31.5852873 91.3832384,31.7503247 91.1293309,31.9111328 C90.8754234,32.0719409 90.6045927,32.2031245 90.3168309,32.3046875 C90.029069,32.4062505 89.779397,32.4570312 89.5678074,32.4570312 C89.3562178,32.4570312 89.2673515,32.3808601 89.3012059,32.2285156 C89.318133,32.1269526 89.3731455,31.8984393 89.4662449,31.5429688 C89.5593444,31.1874982 89.6693693,30.7685571 89.7963231,30.2861328 C89.9232768,29.8037085 90.0544604,29.2916694 90.1898777,28.75 C90.3252951,28.2083306 90.4522469,27.6920597 90.5707371,27.2011719 C90.655373,26.811847 90.748471,26.3802107 90.850034,25.90625 C90.9346698,25.499998 91.0404631,25.0260444 91.1674168,24.484375 C91.2943706,23.9427056 91.4424811,23.3502636 91.6117527,22.7070312 C91.7302429,22.6054682 91.8529631,22.5250654 91.9799168,22.4658203 C92.1068706,22.4065752 92.2380542,22.3600262 92.3734715,22.3261719 C92.5088888,22.2753904 92.6527676,22.2415365 92.8051121,22.2246094 C92.9405295,22.2246094 93.0759448,22.2330728 93.2113621,22.25 C93.3298523,22.2669272 93.4525724,22.2965493 93.5795262,22.3388672 C93.7064799,22.3811851 93.8207366,22.444661 93.9222996,22.5292969 C93.8715181,22.6477871 93.8122739,22.8128245 93.7445652,23.0244141 C93.6768566,23.2360037 93.6091489,23.4602853 93.5414402,23.6972656 C93.4737316,23.9681003 93.389097,24.2473944 93.287534,24.5351562 C93.5075872,24.2304672 93.7572592,23.921551 94.0365574,23.6083984 C94.3158557,23.2952458 94.6205402,23.01172 94.9506199,22.7578125 C95.2806997,22.503905 95.6319332,22.2965503 96.0043309,22.1357422 C96.3767286,21.9749341 96.7575841,21.8945312 97.146909,21.8945312 C97.4685252,21.8945312 97.7562827,21.9876293 98.0101902,22.1738281 C98.2640978,22.360027 98.462989,22.6181624 98.6068699,22.9482422 C98.7507509,23.278322 98.8353854,23.6718727 98.8607762,24.1289062 C98.8861669,24.5859398 98.822691,25.0852837 98.6703465,25.6269531 L98.3910496,26.7441406 C98.3064138,27.0996112 98.2006206,27.5185523 98.0736668,28.0009766 C97.9467131,28.4834008 97.7901391,29.0123669 97.6039402,29.5878906 C97.5023772,29.9602883 97.4642917,30.2818997 97.4896824,30.5527344 C97.5150732,30.8235691 97.6801106,30.9589844 97.9847996,30.9589844 C98.2894886,30.9589844 98.6745759,30.7727883 99.1400731,30.4003906 C99.6055702,30.0279929 100.075292,29.5794297 100.549253,29.0546875 C101.023213,28.5299453 101.471777,27.9925158 101.894956,27.4423828 C102.318135,26.8922499 102.639746,26.4479184 102.8598,26.109375 C103.012144,25.8893218 103.156023,25.745443 103.29144,25.6777344 C103.426858,25.6100257 103.532651,25.6015622 103.608823,25.6523438 C103.684995,25.7031253 103.723081,25.8173819 103.723081,25.9951172 C103.723081,26.1728525 103.655373,26.3971341 103.519956,26.6679688 C103.401466,26.9049491 103.219501,27.218097 102.974057,27.6074219 C102.728614,27.9967467 102.436624,28.4114561 102.098081,28.8515625 C101.759538,29.2916689 101.395609,29.7360004 101.006284,30.1845703 C100.616959,30.6331403 100.210713,31.0393862 99.787534,31.4033203 C99.3643548,31.7672544 98.9454137,32.0634754 98.5306981,32.2919922 C98.1159824,32.520509 97.7224317,32.6347656 97.350034,32.6347656 Z M112.190302,26.71875 C111.682487,27.4635454 111.106972,28.187171 110.46374,28.8896484 C109.820507,29.5921259 109.139199,30.2184217 108.419795,30.7685547 C107.70039,31.3186876 106.964069,31.7630191 106.21081,32.1015625 C105.457551,32.4401059 104.725462,32.609375 104.014521,32.609375 C103.642123,32.609375 103.240109,32.5205087 102.808466,32.3427734 C102.376824,32.1650382 101.983273,31.8899758 101.627802,31.5175781 C101.272332,31.1451804 100.988806,30.6627634 100.777216,30.0703125 C100.565627,29.4778616 100.502151,28.7584678 100.586787,27.9121094 C100.654495,27.2180955 100.870314,26.4860065 101.234248,25.7158203 C101.598182,24.9456342 102.046745,24.2389355 102.579951,23.5957031 C103.113157,22.9524707 103.714062,22.4192729 104.382685,21.9960938 C105.051308,21.5729146 105.724153,21.3613281 106.40124,21.3613281 C107.044472,21.3613281 107.509962,21.5221338 107.797724,21.84375 C108.085486,22.1653662 108.212438,22.5631487 108.178584,23.0371094 C108.127802,23.5618516 107.979692,24.0442686 107.734248,24.484375 C107.488804,24.9244814 107.196814,25.3222638 106.858271,25.6777344 C106.519728,26.0332049 106.160031,26.3548163 105.77917,26.6425781 C105.398308,26.93034 105.038611,27.1927071 104.700068,27.4296875 C104.32767,27.683595 103.972205,27.9248035 103.633662,28.1533203 C103.295118,28.3818371 102.998897,28.5891918 102.74499,28.7753906 C102.761917,29.1985698 102.838088,29.554035 102.973505,29.8417969 C103.108923,30.1295587 103.278192,30.3623038 103.481318,30.5400391 C103.684444,30.7177743 103.917189,30.8447262 104.17956,30.9208984 C104.441931,30.9970707 104.70853,31.0351562 104.979365,31.0351562 C105.554889,31.0351562 106.155794,30.8531919 106.782099,30.4892578 C107.408404,30.1253237 108.022005,29.6852239 108.62292,29.1689453 C109.223834,28.6526667 109.782422,28.1152372 110.298701,27.5566406 C110.814979,26.9980441 111.242384,26.515627 111.580927,26.109375 C111.699418,25.9739577 111.822138,25.8935548 111.949091,25.8681641 C112.076045,25.8427733 112.177607,25.8597002 112.253779,25.9189453 C112.329951,25.9781904 112.368037,26.0797519 112.368037,26.2236328 C112.368037,26.3675137 112.308793,26.5325512 112.190302,26.71875 Z M105.690302,22.8085938 C105.487176,22.8085938 105.245968,22.9101552 104.96667,23.1132812 C104.687371,23.3164073 104.412309,23.6083965 104.141474,23.9892578 C103.87064,24.3701191 103.616736,24.8356092 103.379755,25.3857422 C103.142775,25.9358751 102.965043,26.5664027 102.846552,27.2773438 C103.049678,27.1249992 103.269728,26.9684253 103.506709,26.8076172 C103.743689,26.6468091 103.980666,26.4733082 104.217646,26.2871094 C104.945514,25.7285128 105.453322,25.2376323 105.741084,24.8144531 C106.028845,24.3912739 106.189651,24.0273453 106.223505,23.7226562 C106.25736,23.4010401 106.223506,23.168295 106.121943,23.0244141 C106.02038,22.8805331 105.876501,22.8085938 105.690302,22.8085938 Z M112.811821,31.1367188 C112.913384,31.2044274 113.044567,31.2382812 113.205375,31.2382812 C113.366184,31.2382812 113.526989,31.2044274 113.687797,31.1367188 C113.848605,31.0690101 114.000948,30.9759121 114.144829,30.8574219 C114.288709,30.7389317 114.394503,30.5865895 114.462211,30.4003906 C114.52992,30.2141918 114.52992,29.9475929 114.462211,29.6005859 C114.394503,29.253579 114.288709,28.8811869 114.144829,28.4833984 C114.000948,28.08561 113.844374,27.6835958 113.675102,27.2773438 C113.50583,26.8710917 113.361952,26.4986996 113.243461,26.1601562 C113.141898,25.9062487 113.057264,25.6692719 112.989555,25.4492188 C112.921846,25.2630199 112.858371,25.0810556 112.799125,24.9033203 C112.73988,24.725585 112.693331,24.6028649 112.659477,24.5351562 C112.574841,24.6705736 112.426731,24.8906235 112.215141,25.1953125 C112.003551,25.5000015 111.775038,25.8173812 111.529594,26.1474609 C111.28415,26.4775407 111.051405,26.7822252 110.831352,27.0615234 C110.611299,27.3408217 110.458957,27.5312495 110.374321,27.6328125 C110.238903,27.785157 110.10772,27.8740233 109.980766,27.8994141 C109.853812,27.9248048 109.748019,27.8994144 109.663383,27.8232422 C109.578747,27.7470699 109.532198,27.637045 109.523735,27.4931641 C109.515271,27.3492831 109.578747,27.1757823 109.714164,26.9726562 C109.815728,26.8372389 109.96807,26.6214208 110.171196,26.3251953 C110.374322,26.0289699 110.577445,25.7242854 110.780571,25.4111328 C110.983697,25.0979802 111.169893,24.8186861 111.339164,24.5732422 C111.508436,24.3277983 111.601534,24.1796878 111.618461,24.1289062 C111.652316,23.9934889 111.605767,23.8157563 111.478813,23.5957031 C111.351859,23.3756499 111.330701,23.1217462 111.415336,22.8339844 C111.483045,22.597004 111.635387,22.3219417 111.872368,22.0087891 C112.109348,21.6956365 112.388642,21.4121106 112.710258,21.1582031 C113.031874,20.9042956 113.361949,20.7138678 113.700493,20.5869141 C114.039036,20.4599603 114.34372,20.464192 114.614555,20.5996094 C114.834608,20.7350267 115.012341,20.8831372 115.147758,21.0439453 C115.283176,21.2047534 115.333956,21.3697908 115.300102,21.5390625 C115.266248,21.6236983 115.215467,21.7337233 115.147758,21.8691406 C115.08005,22.004558 114.978488,22.1695954 114.843071,22.3642578 C114.707653,22.5589202 114.512994,22.8085922 114.259086,23.1132812 C114.309868,23.5026061 114.381807,23.8580713 114.474907,24.1796875 C114.568006,24.5013037 114.656872,24.7805978 114.741508,25.0175781 C114.843071,25.30534 114.953096,25.5677071 115.071586,25.8046875 C115.223931,26.1093765 115.384737,26.4225244 115.554008,26.7441406 C115.72328,27.0657568 115.875622,27.3831365 116.011039,27.6962891 C116.146457,28.0094417 116.256482,28.3014309 116.341118,28.5722656 C116.425753,28.8431003 116.451144,29.0716137 116.417289,29.2578125 C116.366508,29.5455744 116.218397,29.8925761 115.972954,30.2988281 C115.72751,30.7050802 115.422825,31.0986309 115.058891,31.4794922 C114.694957,31.8603535 114.280248,32.1861966 113.81475,32.4570312 C113.349253,32.7278659 112.862605,32.8632812 112.354789,32.8632812 C111.999319,32.8632812 111.656549,32.7532563 111.326469,32.5332031 C110.996389,32.3131499 110.717095,32.0550145 110.488579,31.7587891 C110.260062,31.4625636 110.090793,31.1705744 109.980766,30.8828125 C109.870739,30.5950506 109.858044,30.3750008 109.94268,30.2226562 C110.044243,30.0195302 110.137341,29.8587246 110.221977,29.7402344 C110.306613,29.6217442 110.433565,29.4863289 110.602836,29.3339844 C110.670545,29.2832029 110.75518,29.2239587 110.856743,29.15625 C110.941378,29.1054685 111.059867,29.0546878 111.212211,29.0039062 L111.745414,28.8261719 C111.914686,29.3509141 112.067028,29.7613917 112.202446,30.0576172 C112.337863,30.3538426 112.447888,30.5865877 112.532524,30.7558594 C112.634087,30.9420582 112.727185,31.0690101 112.811821,31.1367188 Z" id="Johannes" fill="#424851" fill-rule="nonzero"></path>
    </g>
</svg>