<?xml version="1.0" encoding="UTF-8"?>
<svg width="154px" height="50px" viewBox="0 0 154 50" version="1.1" xmlns="http://www.w3.org/2000/svg" xmlns:xlink="http://www.w3.org/1999/xlink">
    <!-- Generator: Sketch 53.2 (72643) - https://sketchapp.com -->
    <title>preset_font_5</title>
    <desc>Created with Sketch.</desc>
    <g id="preset_font_5" stroke="none" stroke-width="1" fill="none" fill-rule="evenodd">
        <rect fill="#FFFFFF" x="0" y="0" width="154" height="50"></rect>
        <path d="M31.745914,37.056 C32.8659196,37.0239998 33.6939113,36.608004 34.229914,35.808 C34.7659166,35.007996 35.033914,33.6560095 35.033914,31.752 L35.033914,18.552 C35.033914,17.943997 34.9859144,17.5040014 34.889914,17.232 C34.7939135,16.9599986 34.6139153,16.7760005 34.349914,16.68 C34.0859126,16.5839995 33.6659168,16.5200002 33.089914,16.488 L33.089914,16.008 C33.7619173,16.0560002 34.7699072,16.08 36.113914,16.08 C37.4259205,16.08 38.4579102,16.0560002 39.209914,16.008 L39.209914,16.488 C38.6339111,16.5200002 38.2139153,16.5839995 37.949914,16.68 C37.6859126,16.7760005 37.5059144,16.9599986 37.409914,17.232 C37.3139135,17.5040014 37.265914,17.943997 37.265914,18.552 L37.265914,27.336 C37.265914,28.6960068 37.2419142,29.8999948 37.193914,30.948 C37.1459137,31.9960052 37.0339148,32.8799964 36.857914,33.6 C36.5699125,34.7680058 35.9819184,35.7119964 35.093914,36.432 C34.2059095,37.1520036 33.0899207,37.512 31.745914,37.512 L31.745914,37.056 Z M45.1504355,20.304 C46.7824436,20.304 48.0984305,20.8439946 49.0984355,21.924 C50.0984405,23.0040054 50.5984355,24.639989 50.5984355,26.832 C50.5984355,29.024011 50.0984405,30.6559946 49.0984355,31.728 C48.0984305,32.8000054 46.7824436,33.336 45.1504355,33.336 C43.5184273,33.336 42.2024405,32.8000054 41.2024355,31.728 C40.2024305,30.6559946 39.7024355,29.024011 39.7024355,26.832 C39.7024355,24.639989 40.2024305,23.0040054 41.2024355,21.924 C42.2024405,20.8439946 43.5184273,20.304 45.1504355,20.304 Z M45.1504355,20.784 C44.1904307,20.784 43.4304383,21.2759951 42.8704355,22.26 C42.3104327,23.2440049 42.0304355,24.7679897 42.0304355,26.832 C42.0304355,28.8960103 42.3104327,30.4159951 42.8704355,31.392 C43.4304383,32.3680049 44.1904307,32.856 45.1504355,32.856 C46.1104403,32.856 46.8704327,32.3680049 47.4304355,31.392 C47.9904383,30.4159951 48.2704355,28.8960103 48.2704355,26.832 C48.2704355,24.7679897 47.9904383,23.2440049 47.4304355,22.26 C46.8704327,21.2759951 46.1104403,20.784 45.1504355,20.784 Z M54.906957,23.184 C55.306959,22.175995 55.8629534,21.4440023 56.574957,20.988 C57.2869605,20.5319977 58.0909525,20.304 58.986957,20.304 C60.1069626,20.304 60.9549541,20.607997 61.530957,21.216 C61.8349585,21.5360016 62.0509563,21.9359976 62.178957,22.416 C62.3069576,22.8960024 62.370957,23.5439959 62.370957,24.36 L62.370957,30.768 C62.370957,31.4240033 62.5069556,31.8759988 62.778957,32.124 C63.0509583,32.3720012 63.5229536,32.496 64.194957,32.496 L64.194957,33 C62.7229496,32.9359997 61.7629592,32.904 61.314957,32.904 C60.8669547,32.904 59.9709637,32.9359997 58.626957,33 L58.626957,32.496 C59.2189599,32.496 59.6309558,32.3720012 59.862957,32.124 C60.0949581,31.8759988 60.210957,31.4240033 60.210957,30.768 L60.210957,23.832 C60.210957,22.9359955 60.0829583,22.2520024 59.826957,21.78 C59.5709557,21.3079976 59.0509609,21.072 58.266957,21.072 C57.6109537,21.072 57.0309595,21.2559982 56.526957,21.624 C56.0229545,21.9920018 55.6269584,22.5079967 55.338957,23.172 C55.0509555,23.8360033 54.906957,24.5839958 54.906957,25.416 L54.906957,30.768 C54.906957,31.4240033 55.0229558,31.8759988 55.254957,32.124 C55.4869581,32.3720012 55.898954,32.496 56.490957,32.496 L56.490957,33 C55.1469503,32.9359997 54.2509592,32.904 53.802957,32.904 C53.3549547,32.904 52.3949643,32.9359997 50.922957,33 L50.922957,32.496 C51.5949603,32.496 52.0669556,32.3720012 52.338957,32.124 C52.6109583,31.8759988 52.746957,31.4240033 52.746957,30.768 L52.746957,17.088 C52.746957,16.3519963 52.6109583,15.8160017 52.338957,15.48 C52.0669556,15.1439983 51.5949603,14.976 50.922957,14.976 L50.922957,14.472 C51.4349595,14.5200002 51.9309546,14.544 52.410957,14.544 C53.418962,14.544 54.2509537,14.4320011 54.906957,14.208 L54.906957,23.184 Z M67.4234785,33.168 C66.4154734,33.168 65.6674809,32.9160025 65.1794785,32.412 C64.691476,31.9079975 64.4474785,31.2080045 64.4474785,30.312 C64.4474785,29.5919964 64.6434765,29.0000023 65.0354785,28.536 C65.4274804,28.0719977 65.8914758,27.7040014 66.4274785,27.432 C66.9634812,27.1599986 67.6714741,26.8720015 68.5514785,26.568 C69.447483,26.2639985 70.1114763,25.9840013 70.5434785,25.728 C70.9754806,25.4719987 71.1914785,25.1280022 71.1914785,24.696 L71.1914785,23.208 C71.1914785,22.2799954 70.9954804,21.6440017 70.6034785,21.3 C70.2114765,20.9559983 69.663482,20.784 68.9594785,20.784 C67.8394729,20.784 67.0474808,21.0719971 66.5834785,21.648 C66.9034801,21.7280004 67.1714774,21.8959987 67.3874785,22.152 C67.6034796,22.4080013 67.7114785,22.7279981 67.7114785,23.112 C67.7114785,23.512002 67.5834798,23.8279988 67.3274785,24.06 C67.0714772,24.2920012 66.7434805,24.408 66.3434785,24.408 C65.8954762,24.408 65.5594796,24.2680014 65.3354785,23.988 C65.1114774,23.7079986 64.9994785,23.368002 64.9994785,22.968 C64.9994785,22.5839981 65.0914776,22.2640013 65.2754785,22.008 C65.4594794,21.7519987 65.7354766,21.4960013 66.1034785,21.24 C66.4874804,20.9679986 66.9754755,20.7440009 67.5674785,20.568 C68.1594814,20.3919991 68.807475,20.304 69.5114785,20.304 C70.7594847,20.304 71.7034753,20.599997 72.3434785,21.192 C72.7434805,21.5600018 73.0114778,22.0039974 73.1474785,22.524 C73.2834792,23.0440026 73.3514785,23.7279958 73.3514785,24.576 L73.3514785,31.248 C73.3514785,31.648002 73.4074779,31.9359991 73.5194785,32.112 C73.631479,32.2880009 73.8234771,32.376 74.0954785,32.376 C74.2874794,32.376 74.4674776,32.3320004 74.6354785,32.244 C74.8034793,32.1559996 74.9834775,32.0320008 75.1754785,31.872 L75.4394785,32.28 C75.0234764,32.6000016 74.66748,32.8279993 74.3714785,32.964 C74.075477,33.1000007 73.7034807,33.168 73.2554785,33.168 C72.4874746,33.168 71.95148,32.9760019 71.6474785,32.592 C71.343477,32.2079981 71.1914785,31.6880033 71.1914785,31.032 C70.7114761,31.832004 70.1594816,32.3879984 69.5354785,32.7 C68.9114754,33.0120016 68.2074824,33.168 67.4234785,33.168 Z M68.4794785,32.208 C69.5354838,32.208 70.4394747,31.6000061 71.1914785,30.384 L71.1914785,25.68 C71.0474778,25.9040011 70.8474798,26.0879993 70.5914785,26.232 C70.3354772,26.3760007 69.9434811,26.5679988 69.4154785,26.808 C68.8074754,27.0640013 68.3154804,27.3079988 67.9394785,27.54 C67.5634766,27.7720012 67.2394798,28.087998 66.9674785,28.488 C66.6954771,28.888002 66.5594785,29.3999969 66.5594785,30.024 C66.5594785,30.7440036 66.7354767,31.2879982 67.0874785,31.656 C67.4394802,32.0240018 67.9034756,32.208 68.4794785,32.208 Z M83.18,20.304 C84.3000056,20.304 85.1479971,20.607997 85.724,21.216 C86.0280015,21.5360016 86.2439994,21.9359976 86.372,22.416 C86.5000006,22.8960024 86.564,23.5439959 86.564,24.36 L86.564,30.768 C86.564,31.4240033 86.6999986,31.8759988 86.972,32.124 C87.2440014,32.3720012 87.7159966,32.496 88.388,32.496 L88.388,33 C86.9159926,32.9359997 85.9560022,32.904 85.508,32.904 C85.0599978,32.904 84.1640067,32.9359997 82.82,33 L82.82,32.496 C83.412003,32.496 83.8239988,32.3720012 84.056,32.124 C84.2880012,31.8759988 84.404,31.4240033 84.404,30.768 L84.404,23.832 C84.404,22.9359955 84.2760013,22.2520024 84.02,21.78 C83.7639987,21.3079976 83.2440039,21.072 82.46,21.072 C81.8039967,21.072 81.2200026,21.2639981 80.708,21.648 C80.1959974,22.0320019 79.8000014,22.5559967 79.52,23.22 C79.2399986,23.8840033 79.1,24.6239959 79.1,25.44 L79.1,30.768 C79.1,31.4240033 79.2159988,31.8759988 79.448,32.124 C79.6800012,32.3720012 80.091997,32.496 80.684,32.496 L80.684,33 C79.3399933,32.9359997 78.4440022,32.904 77.996,32.904 C77.5479978,32.904 76.5880074,32.9359997 75.116,33 L75.116,32.496 C75.7880034,32.496 76.2599986,32.3720012 76.532,32.124 C76.8040014,31.8759988 76.94,31.4240033 76.94,30.768 L76.94,23.256 C76.94,22.5199963 76.8040014,21.9840017 76.532,21.648 C76.2599986,21.3119983 75.7880034,21.144 75.116,21.144 L75.116,20.64 C75.6280026,20.6880002 76.1239976,20.712 76.604,20.712 C77.612005,20.712 78.4439967,20.6000011 79.1,20.376 L79.1,23.208 C79.500002,22.1839949 80.0559964,21.4440023 80.768,20.988 C81.4800036,20.5319977 82.2839955,20.304 83.18,20.304 Z M96.4645215,20.304 C97.5845271,20.304 98.4325186,20.607997 99.0085215,21.216 C99.312523,21.5360016 99.5285209,21.9359976 99.6565215,22.416 C99.7845222,22.8960024 99.8485215,23.5439959 99.8485215,24.36 L99.8485215,30.768 C99.8485215,31.4240033 99.9845202,31.8759988 100.256522,32.124 C100.528523,32.3720012 101.000518,32.496 101.672522,32.496 L101.672522,33 C100.200514,32.9359997 99.2405238,32.904 98.7925215,32.904 C98.3445193,32.904 97.4485282,32.9359997 96.1045215,33 L96.1045215,32.496 C96.6965245,32.496 97.1085204,32.3720012 97.3405215,32.124 C97.5725227,31.8759988 97.6885215,31.4240033 97.6885215,30.768 L97.6885215,23.832 C97.6885215,22.9359955 97.5605228,22.2520024 97.3045215,21.78 C97.0485202,21.3079976 96.5285254,21.072 95.7445215,21.072 C95.0885182,21.072 94.5045241,21.2639981 93.9925215,21.648 C93.480519,22.0320019 93.0845229,22.5559967 92.8045215,23.22 C92.5245201,23.8840033 92.3845215,24.6239959 92.3845215,25.44 L92.3845215,30.768 C92.3845215,31.4240033 92.5005204,31.8759988 92.7325215,32.124 C92.9645227,32.3720012 93.3765186,32.496 93.9685215,32.496 L93.9685215,33 C92.6245148,32.9359997 91.7285238,32.904 91.2805215,32.904 C90.8325193,32.904 89.8725289,32.9359997 88.4005215,33 L88.4005215,32.496 C89.0725249,32.496 89.5445202,32.3720012 89.8165215,32.124 C90.0885229,31.8759988 90.2245215,31.4240033 90.2245215,30.768 L90.2245215,23.256 C90.2245215,22.5199963 90.0885229,21.9840017 89.8165215,21.648 C89.5445202,21.3119983 89.0725249,21.144 88.4005215,21.144 L88.4005215,20.64 C88.9125241,20.6880002 89.4085191,20.712 89.8885215,20.712 C90.8965266,20.712 91.7285182,20.6000011 92.3845215,20.376 L92.3845215,23.208 C92.7845235,22.1839949 93.340518,21.4440023 94.0525215,20.988 C94.7645251,20.5319977 95.568517,20.304 96.4645215,20.304 Z M112.101043,30.12 C111.813042,31.0000044 111.273047,31.7559968 110.481043,32.388 C109.689039,33.0200032 108.733049,33.336 107.613043,33.336 C106.477037,33.336 105.493047,33.0760026 104.661043,32.556 C103.829039,32.0359974 103.193045,31.3080047 102.753043,30.372 C102.313041,29.4359953 102.093043,28.3520062 102.093043,27.12 C102.093043,25.727993 102.317041,24.5200051 102.765043,23.496 C103.213045,22.4719949 103.845039,21.6840028 104.661043,21.132 C105.477047,20.5799972 106.429038,20.304 107.517043,20.304 C108.95705,20.304 110.065039,20.7399956 110.841043,21.612 C111.617047,22.4840044 112.005043,23.8079911 112.005043,25.584 L104.493043,25.584 C104.445043,26.0320022 104.421043,26.5439971 104.421043,27.12 C104.421043,28.1760053 104.593041,29.0959961 104.937043,29.88 C105.281045,30.6640039 105.73704,31.2679979 106.305043,31.692 C106.873046,32.1160021 107.46904,32.328 108.093043,32.328 C108.861047,32.328 109.54104,32.1440018 110.133043,31.776 C110.725046,31.4079982 111.221041,30.7920043 111.621043,29.928 L112.101043,30.12 Z M107.421043,20.76 C106.669039,20.76 106.021046,21.1279963 105.477043,21.864 C104.93304,22.6000037 104.597044,23.6879928 104.469043,25.128 L109.701043,25.128 C109.733043,23.8799938 109.553045,22.8400042 109.161043,22.008 C108.769041,21.1759958 108.189047,20.76 107.421043,20.76 Z M117.081565,20.304 C117.657567,20.304 118.169562,20.3919991 118.617565,20.568 C119.065567,20.7440009 119.425563,20.9519988 119.697565,21.192 C119.873565,21.3200006 120.017564,21.384 120.129565,21.384 C120.417566,21.384 120.593564,21.0320035 120.657565,20.328 L121.209565,20.328 C121.145564,21.1120039 121.113565,22.4719903 121.113565,24.408 L120.561565,24.408 C120.385564,23.3519947 120.045567,22.4800034 119.541565,21.792 C119.037562,21.1039966 118.289569,20.76 117.297565,20.76 C116.721562,20.76 116.249566,20.9239984 115.881565,21.252 C115.513563,21.5800016 115.329565,22.0319971 115.329565,22.608 C115.329565,23.1680028 115.521563,23.6359981 115.905565,24.012 C116.289566,24.3880019 116.90556,24.8399974 117.753565,25.368 C117.897565,25.4480004 118.113563,25.583999 118.401565,25.776 C119.137568,26.2560024 119.729562,26.6799982 120.177565,27.048 C120.625567,27.4160018 120.989563,27.8399976 121.269565,28.32 C121.549566,28.8000024 121.689565,29.3519969 121.689565,29.976 C121.689565,31.0320053 121.293568,31.855997 120.501565,32.448 C119.709561,33.040003 118.73757,33.336 117.585565,33.336 C116.865561,33.336 116.233567,33.2240011 115.689565,33 C115.337563,32.8239991 115.009566,32.6080013 114.705565,32.352 C114.641564,32.2879997 114.569565,32.256 114.489565,32.256 C114.377564,32.256 114.277565,32.3359992 114.189565,32.496 C114.101564,32.6560008 114.033565,32.8799986 113.985565,33.168 L113.433565,33.168 C113.497565,32.2559954 113.529565,30.6560114 113.529565,28.368 L114.081565,28.368 C114.257565,29.8720075 114.577562,30.9959963 115.041565,31.74 C115.505567,32.4840037 116.297559,32.856 117.417565,32.856 C117.977567,32.856 118.473562,32.6720018 118.905565,32.304 C119.337567,31.9359982 119.553565,31.3600039 119.553565,30.576 C119.553565,29.9519969 119.341567,29.4240022 118.917565,28.992 C118.493562,28.5599978 117.801569,28.040003 116.841565,27.432 C116.057561,26.9359975 115.453567,26.5280016 115.029565,26.208 C114.605562,25.8879984 114.249566,25.4960023 113.961565,25.032 C113.673563,24.5679977 113.529565,24.0240031 113.529565,23.4 C113.529565,22.391995 113.865561,21.6240026 114.537565,21.096 C115.209568,20.5679974 116.057559,20.304 117.081565,20.304 Z" id="Johannes" fill="#424851" fill-rule="nonzero"></path>
    </g>
</svg>