<?xml version="1.0" encoding="UTF-8"?>
<svg width="154px" height="50px" viewBox="0 0 154 50" version="1.1" xmlns="http://www.w3.org/2000/svg" xmlns:xlink="http://www.w3.org/1999/xlink">
    <!-- Generator: Sketch 53.2 (72643) - https://sketchapp.com -->
    <title>preset_font_10</title>
    <desc>Created with Sketch.</desc>
    <g id="preset_font_10" stroke="none" stroke-width="1" fill="none" fill-rule="evenodd">
        <rect fill="#FFFFFF" x="0" y="0" width="154" height="50"></rect>
        <path d="M32.3497381,34.912 L32.4277381,34.678 C33.1210749,34.2099977 33.6540695,33.7376691 34.0267381,33.261 C34.3994066,32.7843309 34.6637373,32.2123367 34.8197381,31.545 C34.9757388,30.8776633 35.0537381,29.9980055 35.0537381,28.906 L35.0537381,18.142 C35.0537381,17.5699971 34.993072,17.1973342 34.8717381,17.024 C34.7504041,16.8506658 34.4990733,16.764 34.1177381,16.764 C33.909737,16.764 33.6887392,16.7769999 33.4547381,16.803 C33.2207369,16.8290001 33.0604052,16.8506666 32.9737381,16.868 L32.8697381,16.712 L33.0517381,15.386 L36.0417381,15.386 C36.6310743,15.386 37.2897344,15.355667 38.0177381,15.295 C38.7457417,15.234333 39.2224036,15.1866668 39.4477381,15.152 L39.3437381,16.582 C38.927736,16.6513337 38.6244057,16.7293329 38.4337381,16.816 C38.2430704,16.9026671 38.1130717,17.0326658 38.0437381,17.206 C37.9744044,17.3793342 37.9310715,17.6566648 37.9137381,18.038 C37.8444044,19.1646723 37.7750717,20.893655 37.7057381,23.225 C37.6364044,25.556345 37.5930715,27.5279919 37.5757381,29.14 C37.5584046,30.8906754 37.1814084,32.2989947 36.4447381,33.365 C35.7080677,34.4310053 34.5337461,35.2586637 32.9217381,35.848 L32.3497381,34.912 Z M44.5313035,32.312 C43.4912983,32.312 42.5769741,32.0650025 41.7883035,31.571 C40.9996329,31.0769975 40.3843057,30.3880044 39.9423035,29.504 C39.5003013,28.6199956 39.2793035,27.6060057 39.2793035,26.462 C39.2793035,25.1966603 39.5436342,24.0613384 40.0723035,23.056 C40.6009728,22.0506616 41.3332989,21.2620029 42.2693035,20.69 C43.2053082,20.1179971 44.2539644,19.832 45.4153035,19.832 C46.4553087,19.832 47.3739662,20.0746642 48.1713035,20.56 C48.9686409,21.0453358 49.583968,21.7299956 50.0173035,22.614 C50.450639,23.4980044 50.6673035,24.5206609 50.6673035,25.682 C50.6673035,26.9473397 50.4029728,28.0826616 49.8743035,29.088 C49.3456342,30.0933384 48.6133082,30.8819971 47.6773035,31.454 C46.7412989,32.0260029 45.6926427,32.312 44.5313035,32.312 Z M45.1553035,30.726 C46.0219745,30.726 46.7023011,30.3750035 47.1963035,29.673 C47.690306,28.9709965 47.9373035,27.9873397 47.9373035,26.722 C47.9373035,25.1273254 47.6469731,23.8706713 47.0663035,22.952 C46.485634,22.0333287 45.7013085,21.574 44.7133035,21.574 C43.8466325,21.574 43.1706393,21.9293298 42.6853035,22.64 C42.1999678,23.3506702 41.9573035,24.3386603 41.9573035,25.604 C41.9573035,27.1986746 42.247634,28.4509955 42.8283035,29.361 C43.4089731,30.2710046 44.184632,30.726 45.1553035,30.726 Z M51.226869,30.752 C51.7122048,30.6999997 52.0502014,30.5743343 52.240869,30.375 C52.4315366,30.1756657 52.526869,29.8333358 52.526869,29.348 L52.526869,16.062 C52.526869,15.5593308 52.4488698,15.1996677 52.292869,14.983 C52.1368682,14.7663322 51.8682043,14.658 51.486869,14.658 L50.940869,14.658 L50.810869,14.554 L50.940869,13.488 C52.3102092,13.3319992 53.8095275,13.0720018 55.438869,12.708 L55.594869,13.124 C55.4562017,13.3146676 55.3305363,14.2116586 55.217869,15.815 C55.1052018,17.4183413 55.0142027,19.4593209 54.944869,21.938 C55.4302048,21.5219979 56.0715317,21.0670025 56.868869,20.573 C57.6662063,20.0789975 58.2555338,19.832 58.636869,19.832 C59.832875,19.832 60.7515325,20.1223304 61.392869,20.703 C62.0342056,21.2836696 62.354869,22.111328 62.354869,23.186 C62.354869,23.6020021 62.294203,24.4513269 62.172869,25.734 C61.9995348,27.5366757 61.912869,28.7326637 61.912869,29.322 C61.912869,29.8073358 61.9778684,30.1583323 62.107869,30.375 C62.2378697,30.5916677 62.4588675,30.7 62.770869,30.7 L63.628869,30.648 L63.680869,30.752 L63.472869,32.078 C62.1208623,32.0259997 61.2715374,32 60.924869,32 C60.1448651,32 59.2175411,32.0866658 58.142869,32.26 L58.272869,30.96 C58.7582048,30.8213326 59.104868,30.6306679 59.312869,30.388 C59.5208701,30.1453321 59.624869,29.8073355 59.624869,29.374 L59.754869,24.512 C59.754869,23.6973293 59.590204,23.0776688 59.260869,22.653 C58.931534,22.2283312 58.4462056,22.016 57.804869,22.016 C57.4408672,22.016 56.9815385,22.1373321 56.426869,22.38 C55.8721996,22.6226679 55.3695379,22.9259982 54.918869,23.29 C54.8668688,25.023342 54.840869,27.0426551 54.840869,29.348 C54.840869,29.8333358 54.9058684,30.1756657 55.035869,30.375 C55.1658697,30.5743343 55.3868675,30.674 55.698869,30.674 L56.504869,30.648 L56.556869,30.752 L56.322869,32.078 C54.9708623,32.0259997 54.1128708,32 53.748869,32 C52.7608641,32 51.8595398,32.0259997 51.044869,32.078 L51.226869,30.752 Z M73.0804345,32.312 C71.5897604,32.312 70.7751019,31.6273402 70.6364345,30.258 L70.4804345,30.206 C69.8737648,30.8126697 69.3147704,31.2979982 68.8034345,31.662 C68.2920986,32.0260018 67.8977692,32.208 67.6204345,32.208 C66.6324296,32.208 65.8134378,31.87867 65.1634345,31.22 C64.5134313,30.56133 64.1884345,29.7380049 64.1884345,28.75 C64.1884345,28.212664 64.3184332,27.7533352 64.5784345,27.372 C64.8384358,26.9906648 65.185099,26.7393339 65.6184345,26.618 L70.5844345,25.344 L70.6104345,24.434 C70.6104345,23.6193293 70.4111032,22.9866689 70.0124345,22.536 C69.6137659,22.0853311 69.0591047,21.86 68.3484345,21.86 C67.8804322,21.86 67.3777705,21.9726655 66.8404345,22.198 C66.3030985,22.4233345 65.7744371,22.7353313 65.2544345,23.134 L65.0984345,23.03 L64.7084345,21.73 C65.5231053,21.2446642 66.3767634,20.807002 67.2694345,20.417 C68.1621056,20.026998 68.8077659,19.832 69.2064345,19.832 C70.4717742,19.832 71.4424311,20.1396636 72.1184345,20.755 C72.7944379,21.3703364 73.1324345,22.2066614 73.1324345,23.264 C73.1324345,23.472001 73.0631019,24.2519932 72.9244345,25.604 C72.7337669,27.4413425 72.6384345,28.5593313 72.6384345,28.958 C72.6384345,29.3046684 72.7251003,29.581999 72.8984345,29.79 C73.0717687,29.998001 73.3230995,30.102 73.6524345,30.102 C73.8951024,30.102 74.1507665,30.0413339 74.4194345,29.92 C74.6881025,29.7986661 74.9004337,29.6686674 75.0564345,29.53 L75.4464345,30.024 C75.1690998,30.5093358 74.81377,30.9773311 74.3804345,31.428 C73.947099,31.8786689 73.51377,32.1733326 73.0804345,32.312 Z M68.2964345,30.128 C68.5911027,30.128 68.9377659,30.0283343 69.3364345,29.829 C69.7351032,29.6296657 70.0990995,29.3826681 70.4284345,29.088 L70.5324345,26.54 L67.3604345,27.45 C66.8924322,27.6060008 66.6584345,27.9353308 66.6584345,28.438 C66.6584345,28.9233358 66.8100997,29.3263317 67.1134345,29.647 C67.4167694,29.9676683 67.8110988,30.128 68.2964345,30.128 Z M82.896,30.96 C83.3640023,30.8213326 83.701999,30.6306679 83.91,30.388 C84.118001,30.1453321 84.222,29.8073355 84.222,29.374 L84.326,24.512 C84.326,23.6973293 84.161335,23.0776688 83.832,22.653 C83.502665,22.2283312 83.0173365,22.016 82.376,22.016 C81.5786627,22.016 80.6513386,22.4059961 79.594,23.186 C79.5419997,24.2780055 79.5073334,24.988665 79.49,25.318 C79.3859995,27.5366778 79.334,28.8799977 79.334,29.348 C79.334,29.8333358 79.3989993,30.1756657 79.529,30.375 C79.6590006,30.5743343 79.888665,30.674 80.218,30.674 C80.3740008,30.674 80.5343325,30.6653334 80.699,30.648 C80.8636675,30.6306666 80.9719997,30.622 81.024,30.622 L81.076,30.726 L80.842,32.078 C80.6686658,32.0606666 80.3350025,32.0433334 79.841,32.026 C79.3469975,32.0086666 78.831336,32 78.294,32 C77.7913308,32 77.241003,32.0216664 76.643,32.065 C76.044997,32.1083335 75.6593342,32.1386666 75.486,32.156 L75.668,30.83 C76.1706692,30.7606663 76.5216657,30.6176677 76.721,30.401 C76.9203343,30.1843323 77.02,29.8333358 77.02,29.348 L77.02,23.368 C77.02,22.7786637 76.9290009,22.3713345 76.747,22.146 C76.5649991,21.9206655 76.2400023,21.808 75.772,21.808 L75.46,21.808 L75.356,21.678 L75.46,20.612 C76.3093376,20.4906661 77.1543291,20.3390009 77.995,20.157 C78.8356709,19.9749991 79.3773321,19.8580003 79.62,19.806 L79.802,20.04 C79.7673332,20.1440005 79.7153337,20.3693316 79.646,20.716 C79.5766663,21.0626684 79.5333334,21.4179982 79.516,21.782 L79.594,21.886 C80.0793358,21.4873313 80.7206627,21.0453358 81.518,20.56 C82.3153373,20.0746642 82.878665,19.832 83.208,19.832 C84.3693391,19.832 85.27933,20.130997 85.938,20.729 C86.59667,21.327003 86.926,22.1459948 86.926,23.186 C86.926,23.6020021 86.8653339,24.4513269 86.744,25.734 C86.5879992,27.7620101 86.51,28.9579982 86.51,29.322 C86.51,29.8073358 86.5793326,30.1583323 86.718,30.375 C86.8566674,30.5916677 87.0819984,30.7 87.394,30.7 C87.5673342,30.7 87.7363325,30.6913334 87.901,30.674 C88.0656675,30.6566666 88.1826663,30.648 88.252,30.648 L88.304,30.752 L88.07,32.078 C87.8966658,32.0606666 87.5673358,32.0433334 87.082,32.026 C86.5966642,32.0086666 86.085336,32 85.548,32 C85.0973311,32 84.5686697,32.0346663 83.962,32.104 C83.3553303,32.1733337 82.9566676,32.2253332 82.766,32.26 L82.896,30.96 Z M96.1695655,30.96 C96.6375678,30.8213326 96.9755644,30.6306679 97.1835655,30.388 C97.3915665,30.1453321 97.4955655,29.8073355 97.4955655,29.374 L97.5995655,24.512 C97.5995655,23.6973293 97.4349005,23.0776688 97.1055655,22.653 C96.7762305,22.2283312 96.290902,22.016 95.6495655,22.016 C94.8522282,22.016 93.9249041,22.4059961 92.8675655,23.186 C92.8155652,24.2780055 92.7808989,24.988665 92.7635655,25.318 C92.659565,27.5366778 92.6075655,28.8799977 92.6075655,29.348 C92.6075655,29.8333358 92.6725648,30.1756657 92.8025655,30.375 C92.9325661,30.5743343 93.1622305,30.674 93.4915655,30.674 C93.6475663,30.674 93.807898,30.6653334 93.9725655,30.648 C94.137233,30.6306666 94.2455652,30.622 94.2975655,30.622 L94.3495655,30.726 L94.1155655,32.078 C93.9422313,32.0606666 93.608568,32.0433334 93.1145655,32.026 C92.620563,32.0086666 92.1049015,32 91.5675655,32 C91.0648963,32 90.5145685,32.0216664 89.9165655,32.065 C89.3185625,32.1083335 88.9328997,32.1386666 88.7595655,32.156 L88.9415655,30.83 C89.4442347,30.7606663 89.7952312,30.6176677 89.9945655,30.401 C90.1938998,30.1843323 90.2935655,29.8333358 90.2935655,29.348 L90.2935655,23.368 C90.2935655,22.7786637 90.2025664,22.3713345 90.0205655,22.146 C89.8385646,21.9206655 89.5135678,21.808 89.0455655,21.808 L88.7335655,21.808 L88.6295655,21.678 L88.7335655,20.612 C89.5829031,20.4906661 90.4278946,20.3390009 91.2685655,20.157 C92.1092364,19.9749991 92.6508976,19.8580003 92.8935655,19.806 L93.0755655,20.04 C93.0408986,20.1440005 92.9888992,20.3693316 92.9195655,20.716 C92.8502318,21.0626684 92.8068989,21.4179982 92.7895655,21.782 L92.8675655,21.886 C93.3529012,21.4873313 93.9942282,21.0453358 94.7915655,20.56 C95.5889028,20.0746642 96.1522305,19.832 96.4815655,19.832 C97.6429046,19.832 98.5528955,20.130997 99.2115655,20.729 C99.8702354,21.327003 100.199565,22.1459948 100.199565,23.186 C100.199565,23.6020021 100.138899,24.4513269 100.017565,25.734 C99.8615647,27.7620101 99.7835655,28.9579982 99.7835655,29.322 C99.7835655,29.8073358 99.8528981,30.1583323 99.9915655,30.375 C100.130233,30.5916677 100.355564,30.7 100.667565,30.7 C100.8409,30.7 101.009898,30.6913334 101.174565,30.674 C101.339233,30.6566666 101.456232,30.648 101.525565,30.648 L101.577565,30.752 L101.343565,32.078 C101.170231,32.0606666 100.840901,32.0433334 100.355565,32.026 C99.8702297,32.0086666 99.3589015,32 98.8215655,32 C98.3708966,32 97.8422352,32.0346663 97.2355655,32.104 C96.6288958,32.1733337 96.2302331,32.2253332 96.0395655,32.26 L96.1695655,30.96 Z M107.493131,32.312 C105.759789,32.312 104.381803,31.7790053 103.359131,30.713 C102.336459,29.6469947 101.825131,28.2300088 101.825131,26.462 C101.825131,25.265994 102.089462,24.1610051 102.618131,23.147 C103.1468,22.1329949 103.866126,21.327003 104.776131,20.729 C105.686136,20.130997 106.678459,19.832 107.753131,19.832 C109.105138,19.832 110.127794,20.1743299 110.821131,20.859 C111.514468,21.5436701 111.861131,22.5533267 111.861131,23.888 C111.861131,24.425336 111.809131,24.8846648 111.705131,25.266 L111.367131,25.552 L104.399131,25.552 C104.399131,27.0426741 104.715461,28.1866627 105.348131,28.984 C105.980801,29.7813373 106.877792,30.18 108.039131,30.18 C109.009802,30.18 110.049792,29.9200026 111.159131,29.4 L111.315131,29.478 L111.679131,30.466 C111.055128,30.9340023 110.344468,31.3586648 109.547131,31.74 C108.749794,32.1213352 108.065134,32.312 107.493131,32.312 Z M108.637131,24.174 C108.862465,24.1566666 109.014131,24.1046671 109.092131,24.018 C109.170131,23.9313329 109.209131,23.7666679 109.209131,23.524 C109.209131,22.86533 109.044466,22.3583351 108.715131,22.003 C108.385796,21.6476649 107.909134,21.47 107.285131,21.47 C106.539794,21.47 105.911467,21.7256641 105.400131,22.237 C104.888795,22.7483359 104.572465,23.4633287 104.451131,24.382 L108.637131,24.174 Z M116.112696,32.312 C115.52336,32.312 114.990366,32.2643338 114.513696,32.169 C114.037027,32.0736662 113.660031,31.9783338 113.382696,31.883 C113.105362,31.7876662 112.93203,31.7226668 112.862696,31.688 L112.758696,31.48 C112.810697,31.150665 112.871363,30.6003372 112.940696,29.829 C113.01003,29.0576628 113.053363,28.4553355 113.070696,28.022 L114.214696,27.892 C114.23203,28.9146718 114.431361,29.6513311 114.812696,30.102 C115.194032,30.5526689 115.809359,30.778 116.658696,30.778 C117.230699,30.778 117.716028,30.6480013 118.114696,30.388 C118.513365,30.1279987 118.712696,29.8073352 118.712696,29.426 C118.712696,29.0273313 118.522032,28.6676683 118.140696,28.347 C117.759361,28.0263317 117.005369,27.5800029 115.878696,27.008 C114.873358,26.5053308 114.141032,25.9896693 113.681696,25.461 C113.222361,24.9323307 112.992696,24.3300034 112.992696,23.654 C112.992696,22.9259964 113.209361,22.2716696 113.642696,21.691 C114.076032,21.1103304 114.678359,20.655335 115.449696,20.326 C116.221034,19.996665 117.083358,19.832 118.036696,19.832 C118.487365,19.832 118.916361,19.8666663 119.323696,19.936 C119.731032,20.0053337 120.060362,20.0746663 120.311696,20.144 C120.563031,20.2133337 120.723363,20.2566666 120.792696,20.274 L120.870696,20.456 C120.83603,20.6293342 120.75803,21.0366635 120.636696,21.678 C120.515363,22.3193365 120.428697,22.9953298 120.376696,23.706 L119.180696,23.81 C119.180696,23.7579997 119.189363,23.6713339 119.206696,23.55 C119.22403,23.4286661 119.232696,23.3073339 119.232696,23.186 C119.232696,22.5619969 119.072365,22.1070014 118.751696,21.821 C118.431028,21.5349986 117.9327,21.392 117.256696,21.392 C116.71936,21.392 116.268698,21.5176654 115.904696,21.769 C115.540695,22.0203346 115.358696,22.3279982 115.358696,22.692 C115.358696,23.0733352 115.519028,23.4243317 115.839696,23.745 C116.160365,24.0656683 116.684693,24.4166648 117.412696,24.798 C118.383368,25.2833358 119.13736,25.7166648 119.674696,26.098 C120.212032,26.4793352 120.589029,26.8563315 120.805696,27.229 C121.022364,27.6016685 121.130696,28.0306642 121.130696,28.516 C121.130696,29.1920034 120.905365,29.8203304 120.454696,30.401 C120.004028,30.9816696 119.393034,31.4453316 118.621696,31.792 C117.850359,32.1386684 117.014034,32.312 116.112696,32.312 Z" id="Johannes" fill="#424851" fill-rule="nonzero"></path>
    </g>
</svg>