<?xml version="1.0" encoding="UTF-8"?>
<svg width="154px" height="110px" viewBox="0 0 154 110" version="1.1" xmlns="http://www.w3.org/2000/svg" xmlns:xlink="http://www.w3.org/1999/xlink">
    <!-- Generator: Sketch 53 (72520) - https://sketchapp.com -->
    <title>sidebar_right</title>
    <desc>Created with Sketch.</desc>
    <g id="sidebar_right" stroke="none" stroke-width="1" fill="none" fill-rule="evenodd">
        <rect fill="#FFFFFF" x="0" y="0" width="154" height="110"></rect>
        <g id="Group-2" transform="translate(12.000000, 29.000000)">
            <rect id="Rectangle" fill="#F3F3F3" x="0" y="0" width="89" height="43"></rect>
            <rect id="Rectangle" fill="#B2B2B2" x="97" y="0" width="34" height="27"></rect>
            <rect id="Rectangle" fill="#B2B2B2" x="97" y="35" width="34" height="34"></rect>
            <g id="Group" transform="translate(18.000000, 52.000000)" stroke="#D6D6D6" stroke-linecap="square" stroke-width="2">
                <path d="M0,1 L54,1" id="Line"></path>
                <path d="M0,6 L54,6" id="Line"></path>
                <path d="M0,11 L54,11" id="Line"></path>
                <path d="M0,16 L32,16" id="Line"></path>
            </g>
        </g>
        <path d="M16.157,14.947 C16.3130008,14.947 16.4434995,14.9964995 16.5485,15.0955 C16.6535005,15.1945005 16.706,15.3219992 16.706,15.478 C16.706,15.6280007 16.6535005,15.7524995 16.5485,15.8515 C16.4434995,15.9505005 16.3130008,16 16.157,16 L13.232,16 C13.0759992,16 12.9455005,15.9475005 12.8405,15.8425 C12.7354995,15.7374995 12.683,15.6070008 12.683,15.451 L12.683,10.249 C12.683,10.0929992 12.7369995,9.96250052 12.845,9.8575 C12.9530005,9.75249947 13.0909992,9.7 13.259,9.7 C13.4090008,9.7 13.5379995,9.75249947 13.646,9.8575 C13.7540005,9.96250052 13.808,10.0929992 13.808,10.249 L13.808,14.947 L16.157,14.947 Z M23.537,12.85 C23.537,13.444003 23.4050013,13.9884975 23.141,14.4835 C22.8769987,14.9785025 22.5125023,15.3699986 22.0475,15.658 C21.5824977,15.9460014 21.0590029,16.09 20.477,16.09 C19.8949971,16.09 19.3715023,15.9460014 18.9065,15.658 C18.4414977,15.3699986 18.0785013,14.9785025 17.8175,14.4835 C17.5564987,13.9884975 17.426,13.444003 17.426,12.85 C17.426,12.255997 17.5564987,11.7115025 17.8175,11.2165 C18.0785013,10.7214975 18.4414977,10.3300014 18.9065,10.042 C19.3715023,9.75399856 19.8949971,9.61 20.477,9.61 C21.0590029,9.61 21.5824977,9.75399856 22.0475,10.042 C22.5125023,10.3300014 22.8769987,10.7214975 23.141,11.2165 C23.4050013,11.7115025 23.537,12.255997 23.537,12.85 Z M22.367,12.85 C22.367,12.447998 22.2860008,12.0835016 22.124,11.7565 C21.9619992,11.4294984 21.7370014,11.170001 21.449,10.978 C21.1609986,10.785999 20.8370018,10.69 20.477,10.69 C20.1109982,10.69 19.7855014,10.7844991 19.5005,10.9735 C19.2154986,11.1625009 18.9935008,11.4219983 18.8345,11.752 C18.6754992,12.0820017 18.596,12.447998 18.596,12.85 C18.596,13.252002 18.6754992,13.6179984 18.8345,13.948 C18.9935008,14.2780017 19.2154986,14.5374991 19.5005,14.7265 C19.7855014,14.9155009 20.1109982,15.01 20.477,15.01 C20.8370018,15.01 21.1609986,14.914001 21.449,14.722 C21.7370014,14.529999 21.9619992,14.2705016 22.124,13.9435 C22.2860008,13.6164984 22.367,13.252002 22.367,12.85 Z M29.216,12.598 C29.3720008,12.598 29.5009995,12.6504995 29.603,12.7555 C29.7050005,12.8605005 29.756,12.9909992 29.756,13.147 L29.756,15.055 C29.756,15.2650011 29.6630009,15.4269994 29.477,15.541 C28.8889971,15.9070018 28.2440035,16.09 27.542,16.09 C26.947997,16.09 26.3990025,15.9445015 25.895,15.6535 C25.3909975,15.3624985 24.9920015,14.9695025 24.698,14.4745 C24.4039985,13.9794975 24.257,13.4380029 24.257,12.85 C24.257,12.2619971 24.4039985,11.7205025 24.698,11.2255 C24.9920015,10.7304975 25.3909975,10.3375015 25.895,10.0465 C26.3990025,9.75549854 26.947997,9.61 27.542,9.61 C28.136003,9.61 28.6519978,9.7299988 29.09,9.97 C29.1800005,10.0180002 29.2474998,10.0809996 29.2925,10.159 C29.3375002,10.2370004 29.36,10.3209995 29.36,10.411 C29.36,10.5610007 29.3105005,10.6914994 29.2115,10.8025 C29.1124995,10.9135006 28.9910007,10.969 28.847,10.969 C28.7569996,10.969 28.6580005,10.9450002 28.55,10.897 C28.2259984,10.7589993 27.8900017,10.69 27.542,10.69 C27.1579981,10.69 26.8040016,10.787499 26.48,10.9825 C26.1559984,11.177501 25.8995009,11.4399983 25.7105,11.77 C25.5214991,12.1000016 25.427,12.459998 25.427,12.85 C25.427,13.2400019 25.5214991,13.5999983 25.7105,13.93 C25.8995009,14.2600016 26.1559984,14.522499 26.48,14.7175 C26.8040016,14.912501 27.1579981,15.01 27.542,15.01 C27.7100008,15.01 27.889999,14.9950001 28.082,14.965 C28.274001,14.9349999 28.4419993,14.8960002 28.586,14.848 L28.586,13.678 L27.74,13.678 C27.5839992,13.678 27.4535005,13.6270005 27.3485,13.525 C27.2434995,13.4229995 27.191,13.2940008 27.191,13.138 C27.191,12.9819992 27.2434995,12.8530005 27.3485,12.751 C27.4535005,12.6489995 27.5839992,12.598 27.74,12.598 L29.216,12.598 Z M36.632,12.85 C36.632,13.444003 36.5000013,13.9884975 36.236,14.4835 C35.9719987,14.9785025 35.6075023,15.3699986 35.1425,15.658 C34.6774977,15.9460014 34.1540029,16.09 33.572,16.09 C32.9899971,16.09 32.4665023,15.9460014 32.0015,15.658 C31.5364977,15.3699986 31.1735013,14.9785025 30.9125,14.4835 C30.6514987,13.9884975 30.521,13.444003 30.521,12.85 C30.521,12.255997 30.6514987,11.7115025 30.9125,11.2165 C31.1735013,10.7214975 31.5364977,10.3300014 32.0015,10.042 C32.4665023,9.75399856 32.9899971,9.61 33.572,9.61 C34.1540029,9.61 34.6774977,9.75399856 35.1425,10.042 C35.6075023,10.3300014 35.9719987,10.7214975 36.236,11.2165 C36.5000013,11.7115025 36.632,12.255997 36.632,12.85 Z M35.462,12.85 C35.462,12.447998 35.3810008,12.0835016 35.219,11.7565 C35.0569992,11.4294984 34.8320014,11.170001 34.544,10.978 C34.2559986,10.785999 33.9320018,10.69 33.572,10.69 C33.2059982,10.69 32.8805014,10.7844991 32.5955,10.9735 C32.3104986,11.1625009 32.0885008,11.4219983 31.9295,11.752 C31.7704992,12.0820017 31.691,12.447998 31.691,12.85 C31.691,13.252002 31.7704992,13.6179984 31.9295,13.948 C32.0885008,14.2780017 32.3104986,14.5374991 32.5955,14.7265 C32.8805014,14.9155009 33.2059982,15.01 33.572,15.01 C33.9320018,15.01 34.2559986,14.914001 34.544,14.722 C34.8320014,14.529999 35.0569992,14.2705016 35.219,13.9435 C35.3810008,13.6164984 35.462,13.252002 35.462,12.85 Z" id="LOGO" fill="#D6D6D6" fill-rule="nonzero"></path>
        <path d="M85.12,10.4 C85.2480006,10.4 85.3519996,10.4426662 85.432,10.528 C85.5120004,10.6133338 85.552,10.7199994 85.552,10.848 L85.552,15.512 C85.552,15.6506674 85.5053338,15.7666662 85.412,15.86 C85.3186662,15.9533338 85.2026674,16 85.064,16 C84.989333,16 84.9160004,15.9880001 84.844,15.964 C84.7719996,15.9399999 84.7200002,15.9066669 84.688,15.864 L81.752,12.136 L81.752,15.552 C81.752,15.6800006 81.7106671,15.7866662 81.628,15.872 C81.5453329,15.9573338 81.437334,16 81.304,16 C81.1759994,16 81.0720004,15.9573338 80.992,15.872 C80.9119996,15.7866662 80.872,15.6800006 80.872,15.552 L80.872,10.888 C80.872,10.7493326 80.9186662,10.6333338 81.012,10.54 C81.1053338,10.4466662 81.2213326,10.4 81.36,10.4 C81.4400004,10.4 81.5186663,10.4159998 81.596,10.448 C81.6733337,10.4800002 81.7306665,10.5226664 81.768,10.576 L84.68,14.288 L84.68,10.848 C84.68,10.7199994 84.7213329,10.6133338 84.804,10.528 C84.8866671,10.4426662 84.9919994,10.4 85.12,10.4 Z M91.144,15.376 C91.1706668,15.4453337 91.184,15.509333 91.184,15.568 C91.184,15.7066674 91.1386671,15.8199996 91.048,15.908 C90.9573329,15.9960004 90.8533339,16.04 90.736,16.04 C90.6399995,16.04 90.5533337,16.010667 90.476,15.952 C90.3986663,15.893333 90.3386669,15.8133338 90.296,15.712 L89.88,14.744 L87.496,14.744 L87.08,15.72 C87.0426665,15.8213338 86.9853337,15.8999997 86.908,15.956 C86.8306663,16.0120003 86.7466671,16.04 86.656,16.04 C86.5173326,16.04 86.4120004,16.002667 86.34,15.928 C86.2679996,15.853333 86.232,15.7520006 86.232,15.624 C86.232,15.5759998 86.2399999,15.5253336 86.256,15.472 L88.248,10.688 C88.2906669,10.5813328 88.3546662,10.498667 88.44,10.44 C88.5253338,10.381333 88.6213328,10.3573333 88.728,10.368 C88.8240005,10.368 88.9133329,10.3959997 88.996,10.452 C89.0786671,10.5080003 89.1386665,10.5866662 89.176,10.688 L91.144,15.376 Z M87.888,13.824 L89.488,13.824 L88.68,11.952 L87.888,13.824 Z M95.952,10.384 C96.085334,10.384 96.2013328,10.4293329 96.3,10.52 C96.3986672,10.6106671 96.448,10.7199994 96.448,10.848 C96.448,10.9173337 96.4320002,10.989333 96.4,11.064 L94.424,15.688 C94.3759998,15.7893338 94.3093338,15.8666664 94.224,15.92 C94.1386662,15.9733336 94.0480005,16 93.952,16 C93.8613329,15.9946666 93.7773337,15.9666669 93.7,15.916 C93.6226663,15.8653331 93.5626669,15.7920005 93.52,15.696 L91.544,11.056 C91.5173332,11.0026664 91.504,10.9360004 91.504,10.856 C91.504,10.7119993 91.5573328,10.5960004 91.664,10.508 C91.7706672,10.4199996 91.8799994,10.376 91.992,10.376 C92.0826671,10.376 92.1679996,10.4026664 92.248,10.456 C92.3280004,10.5093336 92.3893331,10.5866662 92.432,10.688 L94.04,14.472 L95.512,10.688 C95.5546669,10.5919995 95.6159996,10.5173336 95.696,10.464 C95.7760004,10.4106664 95.8613329,10.384 95.952,10.384 Z M98.288,15.512 C98.288,15.6506674 98.2373338,15.7666662 98.136,15.86 C98.0346662,15.9533338 97.917334,16 97.784,16 C97.6399993,16 97.5213338,15.9533338 97.428,15.86 C97.3346662,15.7666662 97.288,15.6506674 97.288,15.512 L97.288,10.888 C97.288,10.7493326 97.3359995,10.6333338 97.432,10.54 C97.5280005,10.4466662 97.6506659,10.4 97.8,10.4 C97.933334,10.4 98.0479995,10.4466662 98.144,10.54 C98.2400005,10.6333338 98.288,10.7493326 98.288,10.888 L98.288,15.512 Z M103.616,12.976 C103.754667,12.976 103.869333,13.0226662 103.96,13.116 C104.050667,13.2093338 104.096,13.3253326 104.096,13.464 L104.096,15.16 C104.096,15.3466676 104.013334,15.4906662 103.848,15.592 C103.325331,15.917335 102.752003,16.08 102.128,16.08 C101.599997,16.08 101.112002,15.950668 100.664,15.692 C100.215998,15.433332 99.8613346,15.0840022 99.6,14.644 C99.3386654,14.2039978 99.208,13.7226693 99.208,13.2 C99.208,12.6773307 99.3386654,12.1960022 99.6,11.756 C99.8613346,11.3159978 100.215998,10.966668 100.664,10.708 C101.112002,10.449332 101.599997,10.32 102.128,10.32 C102.656003,10.32 103.114665,10.4266656 103.504,10.64 C103.584,10.6826669 103.644,10.7386663 103.684,10.808 C103.724,10.8773337 103.744,10.9519996 103.744,11.032 C103.744,11.165334 103.7,11.2813328 103.612,11.38 C103.524,11.4786672 103.416001,11.528 103.288,11.528 C103.208,11.528 103.12,11.5066669 103.024,11.464 C102.735999,11.3413327 102.437335,11.28 102.128,11.28 C101.786665,11.28 101.472001,11.3666658 101.184,11.54 C100.895999,11.7133342 100.668001,11.9466652 100.5,12.24 C100.331999,12.5333348 100.248,12.8533316 100.248,13.2 C100.248,13.5466684 100.331999,13.8666652 100.5,14.16 C100.668001,14.4533348 100.895999,14.6866658 101.184,14.86 C101.472001,15.0333342 101.786665,15.12 102.128,15.12 C102.277334,15.12 102.437332,15.1066668 102.608,15.08 C102.778668,15.0533332 102.927999,15.0186669 103.056,14.976 L103.056,13.936 L102.304,13.936 C102.165333,13.936 102.049334,13.8906671 101.956,13.8 C101.862666,13.7093329 101.816,13.5946674 101.816,13.456 C101.816,13.3173326 101.862666,13.2026671 101.956,13.112 C102.049334,13.0213329 102.165333,12.976 102.304,12.976 L103.616,12.976 Z M109.448,15.376 C109.474667,15.4453337 109.488,15.509333 109.488,15.568 C109.488,15.7066674 109.442667,15.8199996 109.352,15.908 C109.261333,15.9960004 109.157334,16.04 109.04,16.04 C108.944,16.04 108.857334,16.010667 108.78,15.952 C108.702666,15.893333 108.642667,15.8133338 108.6,15.712 L108.184,14.744 L105.8,14.744 L105.384,15.72 C105.346666,15.8213338 105.289334,15.8999997 105.212,15.956 C105.134666,16.0120003 105.050667,16.04 104.96,16.04 C104.821333,16.04 104.716,16.002667 104.644,15.928 C104.572,15.853333 104.536,15.7520006 104.536,15.624 C104.536,15.5759998 104.544,15.5253336 104.56,15.472 L106.552,10.688 C106.594667,10.5813328 106.658666,10.498667 106.744,10.44 C106.829334,10.381333 106.925333,10.3573333 107.032,10.368 C107.128,10.368 107.217333,10.3959997 107.3,10.452 C107.382667,10.5080003 107.442666,10.5866662 107.48,10.688 L109.448,15.376 Z M106.192,13.824 L107.792,13.824 L106.984,11.952 L106.192,13.824 Z M113.848,10.4 C113.992001,10.4 114.109333,10.4426662 114.2,10.528 C114.290667,10.6133338 114.336,10.7253326 114.336,10.864 C114.336,11.0026674 114.290667,11.1133329 114.2,11.196 C114.109333,11.2786671 113.992001,11.32 113.848,11.32 L112.592,11.32 L112.592,15.512 C112.592,15.6506674 112.541334,15.7666662 112.44,15.86 C112.338666,15.9533338 112.213334,16 112.064,16 C111.914666,16 111.792,15.9533338 111.696,15.86 C111.6,15.7666662 111.552,15.6506674 111.552,15.512 L111.552,11.32 L110.296,11.32 C110.151999,11.32 110.034667,11.2773338 109.944,11.192 C109.853333,11.1066662 109.808,10.9946674 109.808,10.856 C109.808,10.722666 109.854666,10.6133338 109.948,10.528 C110.041334,10.4426662 110.157333,10.4 110.296,10.4 L113.848,10.4 Z M116.176,15.512 C116.176,15.6506674 116.125334,15.7666662 116.024,15.86 C115.922666,15.9533338 115.805334,16 115.672,16 C115.527999,16 115.409334,15.9533338 115.316,15.86 C115.222666,15.7666662 115.176,15.6506674 115.176,15.512 L115.176,10.888 C115.176,10.7493326 115.224,10.6333338 115.32,10.54 C115.416,10.4466662 115.538666,10.4 115.688,10.4 C115.821334,10.4 115.936,10.4466662 116.032,10.54 C116.128,10.6333338 116.176,10.7493326 116.176,10.888 L116.176,15.512 Z M122.528,13.2 C122.528,13.7280026 122.410668,14.2119978 122.176,14.652 C121.941332,15.0920022 121.617335,15.4399987 121.204,15.696 C120.790665,15.9520013 120.325336,16.08 119.808,16.08 C119.290664,16.08 118.825335,15.9520013 118.412,15.696 C117.998665,15.4399987 117.676001,15.0920022 117.444,14.652 C117.211999,14.2119978 117.096,13.7280026 117.096,13.2 C117.096,12.6719974 117.211999,12.1880022 117.444,11.748 C117.676001,11.3079978 117.998665,10.9600013 118.412,10.704 C118.825335,10.4479987 119.290664,10.32 119.808,10.32 C120.325336,10.32 120.790665,10.4479987 121.204,10.704 C121.617335,10.9600013 121.941332,11.3079978 122.176,11.748 C122.410668,12.1880022 122.528,12.6719974 122.528,13.2 Z M121.488,13.2 C121.488,12.8426649 121.416001,12.5186681 121.272,12.228 C121.127999,11.9373319 120.928001,11.7066675 120.672,11.536 C120.415999,11.3653325 120.128002,11.28 119.808,11.28 C119.482665,11.28 119.193335,11.3639992 118.94,11.532 C118.686665,11.7000008 118.489334,11.9306652 118.348,12.224 C118.206666,12.5173348 118.136,12.8426649 118.136,13.2 C118.136,13.5573351 118.206666,13.8826652 118.348,14.176 C118.489334,14.4693348 118.686665,14.6999992 118.94,14.868 C119.193335,15.0360008 119.482665,15.12 119.808,15.12 C120.128002,15.12 120.415999,15.0346675 120.672,14.864 C120.928001,14.6933325 121.127999,14.4626681 121.272,14.172 C121.416001,13.8813319 121.488,13.5573351 121.488,13.2 Z M127.696,10.4 C127.824001,10.4 127.928,10.4426662 128.008,10.528 C128.088,10.6133338 128.128,10.7199994 128.128,10.848 L128.128,15.512 C128.128,15.6506674 128.081334,15.7666662 127.988,15.86 C127.894666,15.9533338 127.778667,16 127.64,16 C127.565333,16 127.492,15.9880001 127.42,15.964 C127.348,15.9399999 127.296,15.9066669 127.264,15.864 L124.328,12.136 L124.328,15.552 C124.328,15.6800006 124.286667,15.7866662 124.204,15.872 C124.121333,15.9573338 124.013334,16 123.88,16 C123.751999,16 123.648,15.9573338 123.568,15.872 C123.488,15.7866662 123.448,15.6800006 123.448,15.552 L123.448,10.888 C123.448,10.7493326 123.494666,10.6333338 123.588,10.54 C123.681334,10.4466662 123.797333,10.4 123.936,10.4 C124.016,10.4 124.094666,10.4159998 124.172,10.448 C124.249334,10.4800002 124.306666,10.5226664 124.344,10.576 L127.256,14.288 L127.256,10.848 C127.256,10.7199994 127.297333,10.6133338 127.38,10.528 C127.462667,10.4426662 127.567999,10.4 127.696,10.4 Z" id="NAVIGATION" fill="#D6D6D6" fill-rule="nonzero"></path>
        <g id="Orion_search" transform="translate(135.000000, 9.000000)" fill="#DBDBDB" fill-rule="nonzero">
            <path d="M5.27289191,4.7057298 C6.20299365,3.48235291 6.02616775,1.73955962 4.86347805,0.724091298 C3.70078835,-0.291377025 1.95006313,-0.232065667 0.858763888,0.859763665 C-0.232535355,1.951593 -0.291007451,3.70235776 0.725011299,4.86456827 C1.74103005,6.02677879 3.4838966,6.20277074 4.71174907,5.26714285 L7.31726456,7.88280515 C7.47339769,8.03901289 7.72659917,8.03907256 7.8828059,7.88293843 C8.03901263,7.7268043 8.03907231,7.47360119 7.8829392,7.31739344 L5.27289191,4.7057298 Z M2.93501889,5.06774259 C1.75721126,5.06774259 0.802409525,4.11293468 0.802409525,2.93511943 C0.802409525,1.75730418 1.75721126,0.802496271 2.93501889,0.802496271 C4.11282652,0.802496271 5.06762826,1.75730418 5.06762826,2.93511943 C5.06748107,4.1128737 4.11276555,5.06759539 2.93501889,5.06774259 Z" id="Shape"></path>
        </g>
    </g>
</svg>