<?xml version="1.0" encoding="UTF-8"?>
<svg width="154px" height="136px" viewBox="0 0 154 136" version="1.1" xmlns="http://www.w3.org/2000/svg" xmlns:xlink="http://www.w3.org/1999/xlink">
    <!-- Generator: Sketch 53 (72520) - https://sketchapp.com -->
    <title>single_layout_2</title>
    <desc>Created with Sketch.</desc>
    <g id="single_layout_2" stroke="none" stroke-width="1" fill="none" fill-rule="evenodd">
        <rect fill="#FFFFFF" x="0" y="0" width="154" height="136"></rect>
        <rect id="Rectangle" fill="#B5B5B5" x="22" y="22" width="110" height="43"></rect>
        <path d="M42,74 L49,74" id="Line" stroke="#D6D6D6" stroke-width="2" stroke-linecap="square"></path>
        <path d="M37,78 L49,78" id="Line" stroke="#D6D6D6" stroke-width="2" stroke-linecap="square"></path>
        <g id="Group" transform="translate(57.000000, 94.000000)" stroke="#D6D6D6" stroke-linecap="square" stroke-width="2">
            <path d="M0,11 L40,11" id="Line"></path>
            <path d="M0,6 L40,6" id="Line"></path>
            <path d="M0,1 L40,1" id="Line"></path>
            <path d="M0,16 L40,16" id="Line"></path>
            <path d="M0,21 L40,21" id="Line"></path>
            <path d="M0,26 L23.7037037,26" id="Line"></path>
        </g>
        <rect id="Rectangle" fill="#EAEAEA" x="104" y="73" width="28" height="24"></rect>
        <rect id="Rectangle" fill="#EAEAEA" x="104" y="103" width="28" height="18"></rect>
        <circle id="Oval" fill="#D6D6D6" cx="46" cy="85" r="4"></circle>
        <path d="M25.157,12.947 C25.3130008,12.947 25.4434995,12.9964995 25.5485,13.0955 C25.6535005,13.1945005 25.706,13.3219992 25.706,13.478 C25.706,13.6280007 25.6535005,13.7524995 25.5485,13.8515 C25.4434995,13.9505005 25.3130008,14 25.157,14 L22.232,14 C22.0759992,14 21.9455005,13.9475005 21.8405,13.8425 C21.7354995,13.7374995 21.683,13.6070008 21.683,13.451 L21.683,8.249 C21.683,8.09299922 21.7369995,7.96250052 21.845,7.8575 C21.9530005,7.75249947 22.0909992,7.7 22.259,7.7 C22.4090008,7.7 22.5379995,7.75249947 22.646,7.8575 C22.7540005,7.96250052 22.808,8.09299922 22.808,8.249 L22.808,12.947 L25.157,12.947 Z M32.537,10.85 C32.537,11.444003 32.4050013,11.9884975 32.141,12.4835 C31.8769987,12.9785025 31.5125023,13.3699986 31.0475,13.658 C30.5824977,13.9460014 30.0590029,14.09 29.477,14.09 C28.8949971,14.09 28.3715023,13.9460014 27.9065,13.658 C27.4414977,13.3699986 27.0785013,12.9785025 26.8175,12.4835 C26.5564987,11.9884975 26.426,11.444003 26.426,10.85 C26.426,10.255997 26.5564987,9.71150247 26.8175,9.2165 C27.0785013,8.72149752 27.4414977,8.33000144 27.9065,8.042 C28.3715023,7.75399856 28.8949971,7.61 29.477,7.61 C30.0590029,7.61 30.5824977,7.75399856 31.0475,8.042 C31.5125023,8.33000144 31.8769987,8.72149752 32.141,9.2165 C32.4050013,9.71150247 32.537,10.255997 32.537,10.85 Z M31.367,10.85 C31.367,10.447998 31.2860008,10.0835016 31.124,9.7565 C30.9619992,9.42949836 30.7370014,9.17000096 30.449,8.978 C30.1609986,8.78599904 29.8370018,8.69 29.477,8.69 C29.1109982,8.69 28.7855014,8.78449905 28.5005,8.9735 C28.2154986,9.16250094 27.9935008,9.42199835 27.8345,9.752 C27.6754992,10.0820017 27.596,10.447998 27.596,10.85 C27.596,11.252002 27.6754992,11.6179984 27.8345,11.948 C27.9935008,12.2780017 28.2154986,12.5374991 28.5005,12.7265 C28.7855014,12.9155009 29.1109982,13.01 29.477,13.01 C29.8370018,13.01 30.1609986,12.914001 30.449,12.722 C30.7370014,12.529999 30.9619992,12.2705016 31.124,11.9435 C31.2860008,11.6164984 31.367,11.252002 31.367,10.85 Z M38.216,10.598 C38.3720008,10.598 38.5009995,10.6504995 38.603,10.7555 C38.7050005,10.8605005 38.756,10.9909992 38.756,11.147 L38.756,13.055 C38.756,13.2650011 38.6630009,13.4269994 38.477,13.541 C37.8889971,13.9070018 37.2440035,14.09 36.542,14.09 C35.947997,14.09 35.3990025,13.9445015 34.895,13.6535 C34.3909975,13.3624985 33.9920015,12.9695025 33.698,12.4745 C33.4039985,11.9794975 33.257,11.4380029 33.257,10.85 C33.257,10.2619971 33.4039985,9.72050247 33.698,9.2255 C33.9920015,8.73049753 34.3909975,8.33750145 34.895,8.0465 C35.3990025,7.75549854 35.947997,7.61 36.542,7.61 C37.136003,7.61 37.6519978,7.7299988 38.09,7.97 C38.1800005,8.01800024 38.2474998,8.08099961 38.2925,8.159 C38.3375002,8.23700039 38.36,8.32099955 38.36,8.411 C38.36,8.56100075 38.3105005,8.69149944 38.2115,8.8025 C38.1124995,8.91350055 37.9910007,8.969 37.847,8.969 C37.7569996,8.969 37.6580005,8.94500024 37.55,8.897 C37.2259984,8.75899931 36.8900017,8.69 36.542,8.69 C36.1579981,8.69 35.8040016,8.78749902 35.48,8.9825 C35.1559984,9.17750097 34.8995009,9.43999835 34.7105,9.77 C34.5214991,10.1000016 34.427,10.459998 34.427,10.85 C34.427,11.2400019 34.5214991,11.5999983 34.7105,11.93 C34.8995009,12.2600016 35.1559984,12.522499 35.48,12.7175 C35.8040016,12.912501 36.1579981,13.01 36.542,13.01 C36.7100008,13.01 36.889999,12.9950001 37.082,12.965 C37.274001,12.9349999 37.4419993,12.8960002 37.586,12.848 L37.586,11.678 L36.74,11.678 C36.5839992,11.678 36.4535005,11.6270005 36.3485,11.525 C36.2434995,11.4229995 36.191,11.2940008 36.191,11.138 C36.191,10.9819992 36.2434995,10.8530005 36.3485,10.751 C36.4535005,10.6489995 36.5839992,10.598 36.74,10.598 L38.216,10.598 Z M45.632,10.85 C45.632,11.444003 45.5000013,11.9884975 45.236,12.4835 C44.9719987,12.9785025 44.6075023,13.3699986 44.1425,13.658 C43.6774977,13.9460014 43.1540029,14.09 42.572,14.09 C41.9899971,14.09 41.4665023,13.9460014 41.0015,13.658 C40.5364977,13.3699986 40.1735013,12.9785025 39.9125,12.4835 C39.6514987,11.9884975 39.521,11.444003 39.521,10.85 C39.521,10.255997 39.6514987,9.71150247 39.9125,9.2165 C40.1735013,8.72149752 40.5364977,8.33000144 41.0015,8.042 C41.4665023,7.75399856 41.9899971,7.61 42.572,7.61 C43.1540029,7.61 43.6774977,7.75399856 44.1425,8.042 C44.6075023,8.33000144 44.9719987,8.72149752 45.236,9.2165 C45.5000013,9.71150247 45.632,10.255997 45.632,10.85 Z M44.462,10.85 C44.462,10.447998 44.3810008,10.0835016 44.219,9.7565 C44.0569992,9.42949836 43.8320014,9.17000096 43.544,8.978 C43.2559986,8.78599904 42.9320018,8.69 42.572,8.69 C42.2059982,8.69 41.8805014,8.78449905 41.5955,8.9735 C41.3104986,9.16250094 41.0885008,9.42199835 40.9295,9.752 C40.7704992,10.0820017 40.691,10.447998 40.691,10.85 C40.691,11.252002 40.7704992,11.6179984 40.9295,11.948 C41.0885008,12.2780017 41.3104986,12.5374991 41.5955,12.7265 C41.8805014,12.9155009 42.2059982,13.01 42.572,13.01 C42.9320018,13.01 43.2559986,12.914001 43.544,12.722 C43.8320014,12.529999 44.0569992,12.2705016 44.219,11.9435 C44.3810008,11.6164984 44.462,11.252002 44.462,10.85 Z" id="LOGO" fill="#D6D6D6" fill-rule="nonzero"></path>
        <path d="M73.12,8.4 C73.2480006,8.4 73.3519996,8.44266624 73.432,8.528 C73.5120004,8.61333376 73.552,8.71999936 73.552,8.848 L73.552,13.512 C73.552,13.6506674 73.5053338,13.7666662 73.412,13.86 C73.3186662,13.9533338 73.2026674,14 73.064,14 C72.989333,14 72.9160004,13.9880001 72.844,13.964 C72.7719996,13.9399999 72.7200002,13.9066669 72.688,13.864 L69.752,10.136 L69.752,13.552 C69.752,13.6800006 69.7106671,13.7866662 69.628,13.872 C69.5453329,13.9573338 69.437334,14 69.304,14 C69.1759994,14 69.0720004,13.9573338 68.992,13.872 C68.9119996,13.7866662 68.872,13.6800006 68.872,13.552 L68.872,8.888 C68.872,8.74933264 68.9186662,8.6333338 69.012,8.54 C69.1053338,8.4466662 69.2213326,8.4 69.36,8.4 C69.4400004,8.4 69.5186663,8.41599984 69.596,8.448 C69.6733337,8.48000016 69.7306665,8.5226664 69.768,8.576 L72.68,12.288 L72.68,8.848 C72.68,8.71999936 72.7213329,8.61333376 72.804,8.528 C72.8866671,8.44266624 72.9919994,8.4 73.12,8.4 Z M79.144,13.376 C79.1706668,13.4453337 79.184,13.509333 79.184,13.568 C79.184,13.7066674 79.1386671,13.8199996 79.048,13.908 C78.9573329,13.9960004 78.8533339,14.04 78.736,14.04 C78.6399995,14.04 78.5533337,14.010667 78.476,13.952 C78.3986663,13.893333 78.3386669,13.8133338 78.296,13.712 L77.88,12.744 L75.496,12.744 L75.08,13.72 C75.0426665,13.8213338 74.9853337,13.8999997 74.908,13.956 C74.8306663,14.0120003 74.7466671,14.04 74.656,14.04 C74.5173326,14.04 74.4120004,14.002667 74.34,13.928 C74.2679996,13.853333 74.232,13.7520006 74.232,13.624 C74.232,13.5759998 74.2399999,13.5253336 74.256,13.472 L76.248,8.688 C76.2906669,8.5813328 76.3546662,8.49866696 76.44,8.44 C76.5253338,8.38133304 76.6213328,8.35733328 76.728,8.368 C76.8240005,8.368 76.9133329,8.39599972 76.996,8.452 C77.0786671,8.50800028 77.1386665,8.58666616 77.176,8.688 L79.144,13.376 Z M75.888,11.824 L77.488,11.824 L76.68,9.952 L75.888,11.824 Z M83.952,8.384 C84.085334,8.384 84.2013328,8.42933288 84.3,8.52 C84.3986672,8.61066712 84.448,8.71999936 84.448,8.848 C84.448,8.91733368 84.4320002,8.98933296 84.4,9.064 L82.424,13.688 C82.3759998,13.7893338 82.3093338,13.8666664 82.224,13.92 C82.1386662,13.9733336 82.0480005,14 81.952,14 C81.8613329,13.9946666 81.7773337,13.9666669 81.7,13.916 C81.6226663,13.8653331 81.5626669,13.7920005 81.52,13.696 L79.544,9.056 C79.5173332,9.0026664 79.504,8.9360004 79.504,8.856 C79.504,8.71199928 79.5573328,8.59600044 79.664,8.508 C79.7706672,8.41999956 79.8799994,8.376 79.992,8.376 C80.0826671,8.376 80.1679996,8.4026664 80.248,8.456 C80.3280004,8.5093336 80.3893331,8.58666616 80.432,8.688 L82.04,12.472 L83.512,8.688 C83.5546669,8.59199952 83.6159996,8.5173336 83.696,8.464 C83.7760004,8.4106664 83.8613329,8.384 83.952,8.384 Z M86.288,13.512 C86.288,13.6506674 86.2373338,13.7666662 86.136,13.86 C86.0346662,13.9533338 85.917334,14 85.784,14 C85.6399993,14 85.5213338,13.9533338 85.428,13.86 C85.3346662,13.7666662 85.288,13.6506674 85.288,13.512 L85.288,8.888 C85.288,8.74933264 85.3359995,8.6333338 85.432,8.54 C85.5280005,8.4466662 85.6506659,8.4 85.8,8.4 C85.933334,8.4 86.0479995,8.4466662 86.144,8.54 C86.2400005,8.6333338 86.288,8.74933264 86.288,8.888 L86.288,13.512 Z M91.616,10.976 C91.7546674,10.976 91.8693329,11.0226662 91.96,11.116 C92.0506671,11.2093338 92.096,11.3253326 92.096,11.464 L92.096,13.16 C92.096,13.3466676 92.0133342,13.4906662 91.848,13.592 C91.3253307,13.917335 90.7520031,14.08 90.128,14.08 C89.5999974,14.08 89.1120022,13.950668 88.664,13.692 C88.2159978,13.433332 87.8613346,13.0840022 87.6,12.644 C87.3386654,12.2039978 87.208,11.7226693 87.208,11.2 C87.208,10.6773307 87.3386654,10.1960022 87.6,9.756 C87.8613346,9.3159978 88.2159978,8.96666796 88.664,8.708 C89.1120022,8.44933204 89.5999974,8.32 90.128,8.32 C90.6560026,8.32 91.1146647,8.4266656 91.504,8.64 C91.5840004,8.68266688 91.6439998,8.73866632 91.684,8.808 C91.7240002,8.87733368 91.744,8.9519996 91.744,9.032 C91.744,9.165334 91.7000004,9.28133284 91.612,9.38 C91.5239996,9.47866716 91.4160006,9.528 91.288,9.528 C91.2079996,9.528 91.1200005,9.50666688 91.024,9.464 C90.7359986,9.34133272 90.4373349,9.28 90.128,9.28 C89.786665,9.28 89.4720014,9.3666658 89.184,9.54 C88.8959986,9.7133342 88.6680008,9.9466652 88.5,10.24 C88.3319992,10.5333348 88.248,10.8533316 88.248,11.2 C88.248,11.5466684 88.3319992,11.8666652 88.5,12.16 C88.6680008,12.4533348 88.8959986,12.6866658 89.184,12.86 C89.4720014,13.0333342 89.786665,13.12 90.128,13.12 C90.2773341,13.12 90.4373325,13.1066668 90.608,13.08 C90.7786675,13.0533332 90.9279994,13.0186669 91.056,12.976 L91.056,11.936 L90.304,11.936 C90.1653326,11.936 90.0493338,11.8906671 89.956,11.8 C89.8626662,11.7093329 89.816,11.5946674 89.816,11.456 C89.816,11.3173326 89.8626662,11.2026671 89.956,11.112 C90.0493338,11.0213329 90.1653326,10.976 90.304,10.976 L91.616,10.976 Z M97.448,13.376 C97.4746668,13.4453337 97.488,13.509333 97.488,13.568 C97.488,13.7066674 97.4426671,13.8199996 97.352,13.908 C97.2613329,13.9960004 97.1573339,14.04 97.04,14.04 C96.9439995,14.04 96.8573337,14.010667 96.78,13.952 C96.7026663,13.893333 96.6426669,13.8133338 96.6,13.712 L96.184,12.744 L93.8,12.744 L93.384,13.72 C93.3466665,13.8213338 93.2893337,13.8999997 93.212,13.956 C93.1346663,14.0120003 93.0506671,14.04 92.96,14.04 C92.8213326,14.04 92.7160004,14.002667 92.644,13.928 C92.5719996,13.853333 92.536,13.7520006 92.536,13.624 C92.536,13.5759998 92.5439999,13.5253336 92.56,13.472 L94.552,8.688 C94.5946669,8.5813328 94.6586662,8.49866696 94.744,8.44 C94.8293338,8.38133304 94.9253328,8.35733328 95.032,8.368 C95.1280005,8.368 95.2173329,8.39599972 95.3,8.452 C95.3826671,8.50800028 95.4426665,8.58666616 95.48,8.688 L97.448,13.376 Z M94.192,11.824 L95.792,11.824 L94.984,9.952 L94.192,11.824 Z M101.848,8.4 C101.992001,8.4 102.109333,8.44266624 102.2,8.528 C102.290667,8.61333376 102.336,8.72533264 102.336,8.864 C102.336,9.00266736 102.290667,9.11333292 102.2,9.196 C102.109333,9.27866708 101.992001,9.32 101.848,9.32 L100.592,9.32 L100.592,13.512 C100.592,13.6506674 100.541334,13.7666662 100.44,13.86 C100.338666,13.9533338 100.213334,14 100.064,14 C99.9146659,14 99.7920005,13.9533338 99.696,13.86 C99.5999995,13.7666662 99.552,13.6506674 99.552,13.512 L99.552,9.32 L98.296,9.32 C98.1519993,9.32 98.0346671,9.27733376 97.944,9.192 C97.8533329,9.10666624 97.808,8.99466736 97.808,8.856 C97.808,8.722666 97.8546662,8.61333376 97.948,8.528 C98.0413338,8.44266624 98.1573326,8.4 98.296,8.4 L101.848,8.4 Z M104.176,13.512 C104.176,13.6506674 104.125334,13.7666662 104.024,13.86 C103.922666,13.9533338 103.805334,14 103.672,14 C103.527999,14 103.409334,13.9533338 103.316,13.86 C103.222666,13.7666662 103.176,13.6506674 103.176,13.512 L103.176,8.888 C103.176,8.74933264 103.224,8.6333338 103.32,8.54 C103.416,8.4466662 103.538666,8.4 103.688,8.4 C103.821334,8.4 103.936,8.4466662 104.032,8.54 C104.128,8.6333338 104.176,8.74933264 104.176,8.888 L104.176,13.512 Z M110.528,11.2 C110.528,11.7280026 110.410668,12.2119978 110.176,12.652 C109.941332,13.0920022 109.617335,13.4399987 109.204,13.696 C108.790665,13.9520013 108.325336,14.08 107.808,14.08 C107.290664,14.08 106.825335,13.9520013 106.412,13.696 C105.998665,13.4399987 105.676001,13.0920022 105.444,12.652 C105.211999,12.2119978 105.096,11.7280026 105.096,11.2 C105.096,10.6719974 105.211999,10.1880022 105.444,9.748 C105.676001,9.3079978 105.998665,8.96000128 106.412,8.704 C106.825335,8.44799872 107.290664,8.32 107.808,8.32 C108.325336,8.32 108.790665,8.44799872 109.204,8.704 C109.617335,8.96000128 109.941332,9.3079978 110.176,9.748 C110.410668,10.1880022 110.528,10.6719974 110.528,11.2 Z M109.488,11.2 C109.488,10.8426649 109.416001,10.5186681 109.272,10.228 C109.127999,9.93733188 108.928001,9.70666752 108.672,9.536 C108.415999,9.36533248 108.128002,9.28 107.808,9.28 C107.482665,9.28 107.193335,9.36399916 106.94,9.532 C106.686665,9.70000084 106.489334,9.9306652 106.348,10.224 C106.206666,10.5173348 106.136,10.8426649 106.136,11.2 C106.136,11.5573351 106.206666,11.8826652 106.348,12.176 C106.489334,12.4693348 106.686665,12.6999992 106.94,12.868 C107.193335,13.0360008 107.482665,13.12 107.808,13.12 C108.128002,13.12 108.415999,13.0346675 108.672,12.864 C108.928001,12.6933325 109.127999,12.4626681 109.272,12.172 C109.416001,11.8813319 109.488,11.5573351 109.488,11.2 Z M115.696,8.4 C115.824001,8.4 115.928,8.44266624 116.008,8.528 C116.088,8.61333376 116.128,8.71999936 116.128,8.848 L116.128,13.512 C116.128,13.6506674 116.081334,13.7666662 115.988,13.86 C115.894666,13.9533338 115.778667,14 115.64,14 C115.565333,14 115.492,13.9880001 115.42,13.964 C115.348,13.9399999 115.296,13.9066669 115.264,13.864 L112.328,10.136 L112.328,13.552 C112.328,13.6800006 112.286667,13.7866662 112.204,13.872 C112.121333,13.9573338 112.013334,14 111.88,14 C111.751999,14 111.648,13.9573338 111.568,13.872 C111.488,13.7866662 111.448,13.6800006 111.448,13.552 L111.448,8.888 C111.448,8.74933264 111.494666,8.6333338 111.588,8.54 C111.681334,8.4466662 111.797333,8.4 111.936,8.4 C112.016,8.4 112.094666,8.41599984 112.172,8.448 C112.249334,8.48000016 112.306666,8.5226664 112.344,8.576 L115.256,12.288 L115.256,8.848 C115.256,8.71999936 115.297333,8.61333376 115.38,8.528 C115.462667,8.44266624 115.567999,8.4 115.696,8.4 Z" id="NAVIGATION" fill="#D6D6D6" fill-rule="nonzero"></path>
        <g id="Orion_search" transform="translate(123.000000, 7.000000)" fill="#DBDBDB" fill-rule="nonzero">
            <path d="M5.27289191,4.7057298 C6.20299365,3.48235291 6.02616775,1.73955962 4.86347805,0.724091298 C3.70078835,-0.291377025 1.95006313,-0.232065667 0.858763888,0.859763665 C-0.232535355,1.951593 -0.291007451,3.70235776 0.725011299,4.86456827 C1.74103005,6.02677879 3.4838966,6.20277074 4.71174907,5.26714285 L7.31726456,7.88280515 C7.47339769,8.03901289 7.72659917,8.03907256 7.8828059,7.88293843 C8.03901263,7.7268043 8.03907231,7.47360119 7.8829392,7.31739344 L5.27289191,4.7057298 Z M2.93501889,5.06774259 C1.75721126,5.06774259 0.802409525,4.11293468 0.802409525,2.93511943 C0.802409525,1.75730418 1.75721126,0.802496271 2.93501889,0.802496271 C4.11282652,0.802496271 5.06762826,1.75730418 5.06762826,2.93511943 C5.06748107,4.1128737 4.11276555,5.06759539 2.93501889,5.06774259 Z" id="Shape"></path>
        </g>
        <g id="Group" transform="translate(57.000000, 73.000000)" stroke="#D6D6D6" stroke-linecap="square" stroke-width="2">
            <path d="M0,1 L40,1" id="Line"></path>
            <path d="M0,6 L40,6" id="Line"></path>
            <path d="M-1.15463195e-13,11 L23.7037037,11" id="Line"></path>
        </g>
    </g>
</svg>