<?xml version="1.0" encoding="UTF-8"?>
<svg width="154px" height="94px" viewBox="0 0 154 94" version="1.1" xmlns="http://www.w3.org/2000/svg" xmlns:xlink="http://www.w3.org/1999/xlink">
    <!-- Generator: Sketch 53 (72520) - https://sketchapp.com -->
    <title>welcome_layout_2</title>
    <desc>Created with Sketch.</desc>
    <g id="welcome_layout_2" stroke="none" stroke-width="1" fill="none" fill-rule="evenodd">
        <rect fill="#FFFFFF" x="0" y="0" width="154" height="94"></rect>
        <g id="Group-2" transform="translate(24.000000, 19.000000)">
            <path d="M43.8405337,56 C58.0351577,56 73.0800781,49.9962225 73.0800781,35.6 C73.0800781,21.2037775 61.0121479,5 46.8175239,5 C32.6228999,5 16,25.7371109 16,40.1333333 C16,54.5295558 29.6459096,56 43.8405337,56 Z" id="Oval" fill="#EAEAEA"></path>
            <path d="M24.9140625,47 C37.6166117,47 51.0800781,41.467107 51.0800781,28.2 C51.0800781,14.932893 40.2806742,3.55271368e-15 27.578125,3.55271368e-15 C14.8755758,3.55271368e-15 -8.52651283e-14,19.1106708 -8.52651283e-14,32.3777778 C-8.52651283e-14,45.6448848 12.2115133,47 24.9140625,47 Z" id="Oval" fill="#B5B5B5" fill-rule="nonzero"></path>
            <g id="Group" transform="translate(62.914062, 17.000000)" stroke="#B5B5B5" stroke-linecap="square" stroke-width="2">
                <path d="M0,6 L42,6" id="Line"></path>
                <path d="M0,1 L42,1" id="Line"></path>
                <path d="M0,11 L42,11" id="Line"></path>
                <path d="M0,16 L42,16" id="Line"></path>
                <path d="M0,21 L25,21" id="Line"></path>
            </g>
        </g>
    </g>
</svg>