<?xml version="1.0" encoding="UTF-8" standalone="no"?>
<svg
   width="179.75999"
   height="24"
   enable-background="new 0 0 780 500"
   version="1.1"
   viewBox="0 0 179.75999 24"
   xml:space="preserve"
   id="svg443"
   sodipodi:docname="payments.svg"
   inkscape:export-filename="..\Desktop\payments_small.png"
   inkscape:export-xdpi="4.6079998"
   inkscape:export-ydpi="4.6079998"
   inkscape:version="1.2.2 (732a01da63, 2022-12-09)"
   xmlns:inkscape="http://www.inkscape.org/namespaces/inkscape"
   xmlns:sodipodi="http://sodipodi.sourceforge.net/DTD/sodipodi-0.dtd"
   xmlns="http://www.w3.org/2000/svg"
   xmlns:svg="http://www.w3.org/2000/svg"><defs
     id="defs447" /><sodipodi:namedview
     id="namedview445"
     pagecolor="#ffffff"
     bordercolor="#000000"
     borderopacity="0.25"
     inkscape:showpageshadow="2"
     inkscape:pageopacity="0.0"
     inkscape:pagecheckerboard="0"
     inkscape:deskcolor="#d1d1d1"
     showgrid="false"
     inkscape:zoom="3.256"
     inkscape:cx="112.2543"
     inkscape:cy="20.116708"
     inkscape:window-width="1920"
     inkscape:window-height="1001"
     inkscape:window-x="-9"
     inkscape:window-y="-9"
     inkscape:window-maximized="1"
     inkscape:current-layer="svg443" /><path
     d="m 1.92,0 h 33.6 c 1.060416,0 1.92,0.859632 1.92,1.92 v 20.16 c 0,1.060416 -0.859584,1.92 -1.92,1.92 H 1.92 C 0.859632,24 0,23.140416 0,22.08 V 1.92 C 0,0.859632 0.859632,0 1.92,0 Z"
     fill="#0e4595"
     id="path437"
     style="stroke-width:0.048" /><path
     d="m 14.0736,16.73904 1.601328,-9.39648 h 2.56128 l -1.60248,9.39648 z M 25.88688,7.54512 C 25.37952,7.354752 24.584304,7.150464 23.591424,7.150464 c -2.5308,0 -4.31352,1.2744 -4.32864,3.100944 -0.01435,1.35024 1.272672,2.103456 2.244096,2.552928 0.997008,0.46056 1.332096,0.754272 1.327392,1.165584 -0.0063,0.629808 -0.796128,0.917568 -1.532256,0.917568 -1.025136,0 -1.569744,-0.142416 -2.410896,-0.493248 L 18.561072,14.24496 18.2016,16.348464 c 0.598224,0.262272 1.70448,0.489504 2.853024,0.501264 2.69232,0 4.44,-1.259808 4.459968,-3.210336 0.0096,-1.068912 -0.672768,-1.882368 -2.150448,-2.553024 -0.8952,-0.43464 -1.443456,-0.724752 -1.437648,-1.164864 0,-0.390576 0.464064,-0.808272 1.466736,-0.808272 0.837552,-0.01296 1.44432,0.16968 1.917024,0.36 l 0.229488,0.10848 0.347136,-2.036592 m 6.59088,-0.202704 h -1.979136 c -0.613104,0 -1.071936,0.167376 -1.341168,0.779232 l -3.803712,8.6112 h 2.689488 c 0,0 0.43968,-1.157904 0.539136,-1.412064 0.294,0 2.90664,0.004 3.280224,0.004 0.07661,0.328944 0.31152,1.408032 0.31152,1.408032 h 2.376672 L 32.47776,7.342128 Z m -3.140064,6.06768 c 0.211776,-0.541392 1.02048,-2.626704 1.02048,-2.626704 -0.01517,0.02506 0.210192,-0.544032 0.339552,-0.896832 l 0.17304,0.810192 c 0,0 0.490512,2.242992 0.592992,2.713344 z m -17.4384,-6.06768 -2.50752,6.408 -0.267216,-1.30224 C 8.65776,10.947072 7.20336,9.320736 5.577456,8.506512 l 2.292768,8.2176 2.709888,-0.0031 4.032192,-9.37872 h -2.713008"
     fill="#ffffff"
     id="path439"
     style="stroke-width:0.048" /><path
     d="M 7.05216,7.34208 H 2.922192 L 2.889504,7.537584 c 3.213024,0.777792 5.33904,2.657424 6.22176,4.91568 L 8.213184,8.135184 C 8.058144,7.540224 7.608528,7.362672 7.052256,7.341888"
     fill="#f2ae14"
     id="path441"
     style="stroke-width:0.048" /><path
     d="m 49.36,-4.85e-5 h 33.6 c 1.06042,0 1.92,0.85963194 1.92,1.9199998 V 22.079947 c 0,1.060416 -0.85958,1.920005 -1.92,1.920005 h -33.6 c -1.06037,0 -1.92,-0.859589 -1.92,-1.920005 V 1.9199513 c 0,-1.06036786 0.85963,-1.9199998 1.92,-1.9199998 z"
     fill="#16366f"
     id="path572"
     style="stroke-width:0.048" /><path
     d="m 68.99248,11.887393 c 0,4.758864 -3.85776,8.615999 -8.61648,8.615999 -4.75872,0 -8.616,-3.857327 -8.616,-8.615999 0,-4.7583834 3.85738,-8.6159989 8.616,-8.6159989 4.75858,0 8.61648,3.8577595 8.61648,8.6159989"
     fill="#d9222a"
     id="path574"
     style="stroke-width:0.048" /><path
     d="m 71.94352,3.2712021 c -2.22624,0 -4.25486,0.8446079 -5.784,2.2303677 -0.31152,0.2826719 -0.6023,0.5873759 -0.87,0.9118079 h 1.74077 c 0.23837,0.289776 0.45773,0.5946239 0.65688,0.9126239 h -3.05448 c -0.1837,0.293808 -0.34944,0.5985119 -0.49637,0.9123839 h 4.04698 c 0.13886,0.29688 0.26069,0.60144 0.3648,0.9121919 h -4.77658 c -0.10037,0.29928 -0.18393,0.603888 -0.25041,0.9124316 h 5.27712 c 0.12907,0.59952 0.19411,1.211088 0.19396,1.824384 0,0.956832 -0.15619,1.877424 -0.44419,2.73696 h -4.77657 c 0.10387,0.310992 0.2256,0.6156 0.36456,0.91248 h 4.04721 c -0.14707,0.31392 -0.31296,0.618672 -0.49665,0.912624 h -3.054 c 0.19939,0.318192 0.41904,0.622992 0.65688,0.911808 h 1.74038 c -0.26736,0.325056 -0.55824,0.630048 -0.87024,0.912576 1.52928,1.385615 3.55766,2.229791 5.784,2.229791 4.75862,-4.8e-5 8.61648,-3.857375 8.61648,-8.615999 0,-4.7582394 -3.85776,-8.6159989 -8.61648,-8.6159989"
     fill="#ee9f2d"
     id="path576"
     style="stroke-width:0.048" /><path
     d="m 79.41184,16.690273 c 0,-0.153648 0.12442,-0.278448 0.27821,-0.278448 0.15379,0 0.27821,0.1248 0.27821,0.278448 0,0.153552 -0.12442,0.278352 -0.27821,0.278352 -0.1537,-4.8e-5 -0.27826,-0.124704 -0.27821,-0.278352 z m 0.27821,0.211584 c 0.11688,-4.8e-5 0.21153,-0.0948 0.21158,-0.211584 0,-0.116784 -0.0947,-0.211392 -0.21139,-0.211392 v 0 c -0.11659,-1.92e-4 -0.2112,0.09422 -0.21139,0.210816 v 6.24e-4 c 0,0.116736 0.0944,0.211488 0.21115,0.211584 5e-5,-4.8e-5 0,-4.8e-5 4.8e-4,-4.8e-5 z m -0.0376,-0.08928 h -0.057 v -0.244512 h 0.10315 c 0.0216,0 0.0436,0 0.0626,0.01219 0.0198,0.01334 0.031,0.03696 0.031,0.06134 0,0.02736 -0.0162,0.05299 -0.0424,0.06298 l 0.045,0.108 h -0.0631 l -0.0374,-0.09677 h -0.0418 v 0.09677 z m 0,-0.13872 h 0.0316 c 0.0118,0 0.0242,9.6e-4 0.0348,-0.0048 0.009,-0.006 0.0142,-0.01723 0.0142,-0.02803 0,-0.0094 -0.006,-0.02016 -0.0138,-0.02477 -0.01,-0.0063 -0.0257,-0.0048 -0.0364,-0.0048 h -0.0304 z M 58.36447,12.830833 c -0.0982,-0.01138 -0.14136,-0.01445 -0.2088,-0.01445 -0.53016,0 -0.79858,0.181872 -0.79858,0.540864 0,0.221328 0.13104,0.362208 0.33538,0.362208 0.38102,0 0.65563,-0.36288 0.672,-0.888624 z m 0.6802,1.583808 h -0.775 l 0.0178,-0.368448 c -0.2364,0.291216 -0.5518,0.4296 -0.9804,0.4296 -0.50697,0 -0.85459,-0.396 -0.85459,-0.970992 0,-0.865152 0.60461,-1.36992 1.64242,-1.36992 0.10598,0 0.24197,0.0096 0.38117,0.02731 0.029,-0.117168 0.0366,-0.167328 0.0366,-0.2304 0,-0.235584 -0.16301,-0.323424 -0.6,-0.323424 -0.45758,-0.0052 -0.83501,0.109008 -0.99,0.160032 0.01,-0.05904 0.1296,-0.799584 0.1296,-0.799584 0.46618,-0.136608 0.77362,-0.188016 1.1196,-0.188016 0.80318,0 1.22861,0.360576 1.22784,1.042176 0.002,0.18264 -0.0287,0.408 -0.0758,0.704208 -0.0812,0.515088 -0.25536,1.618464 -0.27922,1.887456 z m -2.98358,0 h -0.93542 l 0.53582,-3.359856 -1.1964,3.359856 h -0.63744 l -0.0787,-3.340656 -0.56323,3.340656 H 52.3101 l 0.73143,-4.370592 h 1.34496 l 0.0816,2.446368 0.82041,-2.446368 h 1.49602 l -0.72341,4.370592 m 17.03904,-1.583808 c -0.0978,-0.01138 -0.14122,-0.01445 -0.20842,-0.01445 -0.52997,0 -0.79843,0.181872 -0.79843,0.540864 0,0.221328 0.13085,0.362208 0.33518,0.362208 0.38108,0 0.65588,-0.36288 0.67167,-0.888624 z m 0.68078,1.583808 h -0.77496 l 0.0175,-0.368448 c -0.2364,0.291216 -0.552,0.4296 -0.98016,0.4296 -0.50716,0 -0.8544,-0.396 -0.8544,-0.970992 0,-0.865152 0.60418,-1.36992 1.64218,-1.36992 0.10598,0 0.24177,0.0096 0.38083,0.02731 0.029,-0.117168 0.0366,-0.167328 0.0366,-0.2304 0,-0.235584 -0.16281,-0.323424 -0.5998,-0.323424 -0.45759,-0.0052 -0.83463,0.109008 -0.99024,0.160032 0.01,-0.05904 0.13003,-0.799584 0.13003,-0.799584 0.46622,-0.136608 0.77342,-0.188016 1.11897,-0.188016 0.80357,0 1.229,0.360576 1.22823,1.042176 0.002,0.18264 -0.0287,0.408 -0.0758,0.704208 -0.0807,0.515088 -0.25536,1.618464 -0.27898,1.887456 z m -10.57872,-0.054 c -0.25603,0.08064 -0.45561,0.115152 -0.672,0.115152 -0.47822,0 -0.7392,-0.2748 -0.7392,-0.780816 -0.007,-0.15696 0.0688,-0.570192 0.12816,-0.947376 0.054,-0.332016 0.4056,-2.42544 0.4056,-2.42544 h 0.92981 l -0.10857,0.538032 h 0.5616 l -0.12687,0.854208 h -0.56361 c -0.108,0.675984 -0.2618,1.518 -0.26357,1.6296 0,0.183216 0.0978,0.263184 0.32016,0.263184 0.10661,0 0.18917,-0.01085 0.25224,-0.0336 l -0.12375,0.787056 m 2.85077,-0.0288 c -0.31939,0.09758 -0.6276,0.144816 -0.95419,0.144 -1.04078,-0.001 -1.58338,-0.544608 -1.58338,-1.585536 0,-1.215024 0.69024,-2.109456 1.6272,-2.109456 0.76656,0 1.25616,0.500784 1.25616,1.286208 0,0.260592 -0.0336,0.514992 -0.11457,0.874176 h -1.8516 c -0.0626,0.515616 0.26736,0.730416 0.80817,0.730416 0.33288,0 0.63303,-0.06864 0.96682,-0.223824 z m -0.52257,-2.1072 c 0.005,-0.07406 0.0986,-0.634416 -0.43263,-0.634416 -0.29621,0 -0.50798,0.225792 -0.59424,0.634416 z m -5.92416,-0.240816 c 0,0.449616 0.21796,0.7596 0.71236,0.992448 0.37882,0.178032 0.43743,0.230832 0.43743,0.39216 0,0.221616 -0.16704,0.3216 -0.53722,0.3216 -0.27897,0 -0.53856,-0.04354 -0.83798,-0.14016 0,0 -0.12303,0.78336 -0.12864,0.820848 0.21264,0.04637 0.40224,0.08933 0.97344,0.10512 0.98697,0 1.44278,-0.375792 1.44278,-1.188 0,-0.4884 -0.1908,-0.775008 -0.65937,-0.990384 -0.39221,-0.18 -0.43724,-0.220224 -0.43724,-0.386208 0,-0.192192 0.15543,-0.290208 0.45783,-0.290208 0.1836,0 0.4344,0.01958 0.672,0.05342 l 0.1332,-0.8244 c -0.24221,-0.0384 -0.60941,-0.06922 -0.8232,-0.06922 -1.0464,0 -1.40861,0.546576 -1.40539,1.202976 m 10.99632,-1.109568 c 0.25982,0 0.50203,0.06816 0.83582,0.23616 l 0.15298,-0.948576 c -0.137,-0.05376 -0.6194,-0.3695996 -1.02797,-0.3695996 -0.62602,0 -1.15517,0.3105596 -1.52736,0.8231996 -0.54288,-0.179808 -0.76603,0.1836 -1.03963,0.545616 l -0.24298,0.05659 c 0.0184,-0.119184 0.035,-0.2376 0.0294,-0.357408 h -0.859 c -0.11736,1.100016 -0.3254,2.21424 -0.48821,3.3156 l -0.0424,0.238848 h 0.9358 c 0.1562,-1.014864 0.24183,-1.664688 0.29381,-2.104416 l 0.35242,-0.196032 c 0.0526,-0.19584 0.21739,-0.261984 0.54797,-0.254016 -0.0444,0.240384 -0.0667,0.48432 -0.0664,0.728832 0,1.1628 0.62741,1.886784 1.6344,1.886784 0.25939,0 0.48202,-0.03418 0.82661,-0.127536 l 0.16469,-0.99648 c -0.31008,0.15264 -0.56453,0.224448 -0.79493,0.224448 -0.54374,0 -0.87278,-0.401376 -0.87278,-1.064832 0,-0.9624 0.48936,-1.637184 1.18776,-1.637184"
     id="path578"
     style="stroke-width:0.048" /><path
     d="m 56.33008,14.154913 h -0.93557 l 0.53616,-3.359424 -1.1964,3.359424 h -0.63753 l -0.0788,-3.340224 -0.56318,3.340224 H 52.57907 L 53.3105,9.7848974 h 1.34496 l 0.0378,2.7053756 0.90739,-2.7053756 h 1.45282 l -0.72341,4.3700156"
     fill="#ffffff"
     id="path580"
     style="stroke-width:0.048" /><path
     d="m 78.52096,10.044193 -0.20731,1.262784 c -0.25584,-0.336576 -0.53059,-0.580176 -0.89338,-0.580176 -0.47203,0 -0.90163,0.357792 -1.18281,0.8844 -0.39159,-0.08122 -0.79666,-0.219024 -0.79666,-0.219024 v 0.0032 c 0.0316,-0.294384 0.0442,-0.474 0.0414,-0.535008 H 74.623 c -0.11698,1.100016 -0.32496,2.21424 -0.48754,3.3156 l -0.0429,0.238848 h 0.93561 c 0.12639,-0.820656 0.2232,-1.502064 0.29439,-2.042448 0.31963,-0.288816 0.47961,-0.540816 0.8026,-0.524016 -0.14299,0.345888 -0.2268,0.744192 -0.2268,1.152816 0,0.888624 0.44962,1.4748 1.12964,1.4748 0.34276,0 0.60576,-0.118176 0.86236,-0.39216 l -0.0438,0.330432 h 0.88478 l 0.71242,-4.370064 z m -1.16976,3.549216 c -0.31843,0 -0.47918,-0.235632 -0.47918,-0.700656 0,-0.698544 0.301,-1.194 0.72537,-1.194 0.32136,0 0.49536,0.244992 0.49536,0.696384 5e-5,0.704688 -0.30571,1.198272 -0.74155,1.198272 z"
     id="path582"
     style="stroke-width:0.048" /><path
     d="m 58.63312,12.571873 c -0.098,-0.01133 -0.14141,-0.0144 -0.20861,-0.0144 -0.5302,0 -0.79843,0.181824 -0.79843,0.540816 0,0.220992 0.13104,0.362256 0.33504,0.362256 0.38136,-4.8e-5 0.65597,-0.362832 0.672,-0.888672 z m 0.68059,1.583232 h -0.775 l 0.0176,-0.367824 c -0.23621,0.290592 -0.552,0.4296 -0.98021,0.4296 -0.50721,0 -0.85459,-0.396 -0.85459,-0.970992 0,-0.865536 0.60437,-1.370016 1.64237,-1.370016 0.10603,0 0.24202,0.0096 0.38102,0.02741 0.029,-0.117216 0.0366,-0.167376 0.0366,-0.230784 0,-0.235584 -0.16277,-0.32304 -0.59981,-0.32304 -0.45777,-0.0052 -0.83496,0.109056 -0.99019,0.159456 0.01,-0.05885 0.1296,-0.798624 0.1296,-0.798624 0.46603,-0.137184 0.77381,-0.18864 1.11941,-0.18864 0.80342,0 1.22899,0.360864 1.22822,1.04184 0.001,0.18336 -0.029,0.408576 -0.076,0.7044 -0.081,0.5148 -0.25536,1.6188 -0.27898,1.887216 z M 71.85995,9.9026893 71.70674,10.851505 c -0.3336,-0.167808 -0.576,-0.236208 -0.83554,-0.236208 -0.69845,0 -1.188,0.674784 -1.188,1.637136 0,0.663408 0.32914,1.064688 0.87279,1.064688 0.2304,0 0.4846,-0.07162 0.79459,-0.224496 l -0.16416,0.996 c -0.34483,0.09403 -0.56717,0.128256 -0.82685,0.128256 -1.00685,0 -1.6344,-0.724032 -1.6344,-1.886832 0,-1.5624 0.86683,-2.6543996 2.10662,-2.6543996 0.40834,4.8e-5 0.89098,0.173232 1.02816,0.2270399 m 1.50922,2.6691837 c -0.098,-0.01133 -0.14117,-0.0144 -0.20861,-0.0144 -0.53002,0 -0.79843,0.181824 -0.79843,0.540816 0,0.220992 0.13099,0.362256 0.33523,0.362256 0.38098,-4.8e-5 0.65578,-0.362832 0.67181,-0.888672 z m 0.68059,1.583232 h -0.7752 l 0.0178,-0.367824 c -0.23635,0.290592 -0.552,0.4296 -0.98016,0.4296 -0.50702,0 -0.85459,-0.396 -0.85459,-0.970992 0,-0.865536 0.60456,-1.370016 1.64217,-1.370016 0.10623,0 0.24202,0.0096 0.38117,0.02741 0.0289,-0.117216 0.0366,-0.167376 0.0366,-0.230784 0,-0.235584 -0.16282,-0.32304 -0.59981,-0.32304 -0.45759,-0.0052 -0.83501,0.109056 -0.99019,0.159456 0.01,-0.05885 0.12979,-0.798624 0.12979,-0.798624 0.46603,-0.137184 0.77357,-0.18864 1.11917,-0.18864 0.80361,0 1.22899,0.360864 1.22798,1.04184 0.002,0.18336 -0.0286,0.408576 -0.0758,0.7044 -0.0807,0.5148 -0.25555,1.6188 -0.27893,1.887216 z m -10.57872,-0.05386 c -0.25622,0.08064 -0.45581,0.115632 -0.672,0.115632 -0.47822,0 -0.7392,-0.274848 -0.7392,-0.780768 -0.007,-0.157488 0.069,-0.570288 0.1284,-0.947424 0.0538,-0.332448 0.40541,-2.425584 0.40541,-2.425584 h 0.92962 l -0.10844,0.538176 h 0.47722 l -0.12701,0.853824 h -0.4788 c -0.108,0.676368 -0.26222,1.517712 -0.26381,1.629552 0,0.18384 0.098,0.263184 0.32021,0.263184 0.10656,0 0.18903,-0.01042 0.25219,-0.03322 l -0.12379,0.786624 m 2.85082,-0.02837 c -0.3192,0.09758 -0.62784,0.144624 -0.95424,0.144 -1.04083,-10e-4 -1.58338,-0.544608 -1.58338,-1.585584 0,-1.215408 0.69024,-2.1096 1.6272,-2.1096 0.76656,0 1.25616,0.500592 1.25616,1.2864 0,0.260784 -0.0336,0.515184 -0.11433,0.874176 h -1.8516 c -0.0627,0.515568 0.26731,0.730608 0.80817,0.730608 0.33264,0 0.63303,-0.06883 0.96658,-0.224448 z m -0.52282,-2.107776 c 0.006,-0.07382 0.0988,-0.634416 -0.43262,-0.634416 -0.29597,0 -0.50779,0.226416 -0.594,0.634416 z m -5.92416,-0.240192 c 0,0.44952 0.21802,0.759168 0.71242,0.9924 0.37877,0.177984 0.43737,0.230976 0.43737,0.39216 0,0.221616 -0.16718,0.3216 -0.53697,0.3216 -0.27922,0 -0.5388,-0.04358 -0.83842,-0.14016 0,0 -0.12259,0.78336 -0.12816,0.8208 0.21216,0.04642 0.40195,0.0888 0.97315,0.105168 0.98722,0 1.44284,-0.375792 1.44284,-1.187808 0,-0.48864 -0.19061,-0.7752 -0.65943,-0.990576 -0.39201,-0.180384 -0.43737,-0.219984 -0.43737,-0.386208 0,-0.192 0.15576,-0.290784 0.45796,-0.290784 0.18341,0 0.43421,0.02016 0.6722,0.054 l 0.133,-0.82464 c -0.24196,-0.0384 -0.60916,-0.06917 -0.823,-0.06917 -1.0466,0 -1.40856,0.546192 -1.40559,1.203216 m 19.1256,2.430192 H 78.1155 l 0.044,-0.330864 c -0.25666,0.274416 -0.5196,0.39264 -0.86242,0.39264 -0.68006,0 -1.12944,-0.586224 -1.12944,-1.4748 0,-1.18224 0.69701,-2.178864 1.52204,-2.178864 0.36278,0 0.63744,0.148224 0.89299,0.484608 l 0.2076,-1.2627836 h 0.92261 z m -1.37976,-0.821232 c 0.4356,0 0.7416,-0.493584 0.7416,-1.197744 0,-0.45144 -0.17424,-0.696432 -0.4956,-0.696432 -0.42422,0 -0.72557,0.495216 -0.72557,1.194 -5e-5,0.464928 0.16114,0.700176 0.47957,0.700176 z m -2.72846,-2.732592 c -0.11708,1.100016 -0.32511,2.21424 -0.48778,3.315024 l -0.0428,0.2388 h 0.93557 c 0.33461,-2.1732 0.41558,-2.597616 0.94022,-2.544432 0.0836,-0.444768 0.23914,-0.834384 0.35516,-1.030992 -0.39183,-0.0816 -0.61061,0.139824 -0.89703,0.5604 0.0226,-0.181776 0.064,-0.358368 0.0558,-0.5388 h -0.8592 m -7.70016,0 c -0.11741,1.100016 -0.32544,2.21424 -0.48802,3.315024 l -0.0426,0.2388 h 0.936 c 0.33417,-2.1732 0.415,-2.597616 0.93931,-2.544432 0.084,-0.444768 0.23961,-0.834384 0.3552,-1.030992 -0.39139,-0.0816 -0.61037,0.139824 -0.89655,0.5604 0.0226,-0.181776 0.0636,-0.358368 0.0558,-0.5388 h -0.85915 m 12.21936,3.275616 c 0,-0.154272 0.1246,-0.2784 0.2782,-0.2784 0.15346,-1.44e-4 0.27802,0.124176 0.27816,0.27768 v 7.2e-4 c 0,0.1536 -0.12456,0.278112 -0.27816,0.278208 -0.1536,-9.6e-5 -0.27811,-0.124608 -0.2782,-0.278208 z m 0.2782,0.211392 c 0.11674,4.8e-5 0.21135,-0.09456 0.21135,-0.211248 v -9.6e-5 c 0,-0.116784 -0.0945,-0.211488 -0.21115,-0.211584 v 0 c -0.11688,4.8e-5 -0.21159,0.09475 -0.21164,0.211584 0,0.116736 0.0949,0.211344 0.21164,0.211344 z m -0.0376,-0.08976 h -0.057 v -0.244032 h 0.10339 c 0.0214,0 0.0436,3.84e-4 0.0622,0.01219 0.02,0.01358 0.0314,0.03682 0.0314,0.06115 0,0.0276 -0.0162,0.05342 -0.0426,0.06322 l 0.0452,0.107328 h -0.0633 l -0.0374,-0.09638 h -0.0418 v 0.09638 z m 0,-0.13824 h 0.0314 c 0.0118,0 0.0246,8.64e-4 0.035,-0.0048 0.009,-0.006 0.0142,-0.01733 0.0142,-0.02818 -4.8e-4,-0.01008 -0.006,-0.01939 -0.0138,-0.02515 -0.01,-0.0056 -0.026,-0.0041 -0.0366,-0.0041 h -0.0302 v 0.06221 z"
     fill="#ffffff"
     id="path584"
     style="stroke-width:0.048" /><path
     d="m 96.8,-4e-5 h 33.6 c 1.0604,0 1.92,0.85963193 1.92,1.9199998 V 22.07996 c 0,1.060416 -0.8596,1.92 -1.92,1.92 H 96.8 c -1.0604,0 -1.92,-0.859584 -1.92,-1.92 V 1.9199598 C 94.88,0.85959193 95.7396,-4e-5 96.8,-4e-5 Z"
     fill="#2557d6"
     id="path767"
     style="stroke-width:0.048" /><path
     d="m 94.8921,11.313033 h 1.7972 l 0.4052,-0.93648 h 0.9072 l 0.4042,0.93648 h 3.5361 v -0.71592 l 0.3156,0.71904 h 1.8357 l 0.3156,-0.729696 v 0.726624 h 8.7879 V 9.7758312 h 0.17 c 0.119,0.00398 0.1538,0.014496 0.1538,0.2028499 v 1.3343999 h 4.5451 v -0.35784 c 0.3666,0.18816 0.9368,0.35784 1.6871,0.35784 h 1.9121 l 0.4092,-0.93648 h 0.9072 l 0.4002,0.93648 h 3.6847 v -0.889536 l 0.558,0.889536 h 2.9527 V 5.4325996 h -2.9222 v 0.6944639 l -0.4091,-0.6944639 h -2.9986 v 0.6944639 l -0.3757,-0.6944639 h -4.0502 c -0.6779,0 -1.2739,0.090672 -1.7554,0.3433439 V 5.4325996 h -2.7949 v 0.3433439 c -0.3064,-0.2604479 -0.7238,-0.3433439 -1.188,-0.3433439 h -10.2116 l -0.6851,1.5187678 -0.7036,-1.5187678 H 99.2662 V 6.1270635 L 98.9128,5.4325996 H 96.1699 L 94.896,8.2284073 v 3.0845297 0 z m 11.3444,-0.84816 h -1.0783 V 7.1627594 l -1.5252,3.3020656 h -0.9235 L 101.1803,7.1598314 V 10.464825 H 99.0409 L 98.6368,9.5244072 H 96.4467 L 96.0384,10.464825 H 94.896 l 1.8836,-4.2161775 h 1.5628 l 1.7889,3.9918735 V 6.2486475 h 1.7168 l 1.3765,2.8601758 1.2645,-2.8601758 h 1.7513 z M 98.2733,8.6493673 97.5534,6.9685514 96.8374,8.6493673 Z m 12.2544,1.8154097 h -3.5138 V 6.2485995 h 3.5138 v 0.8779679 h -2.4619 v 0.759984 h 2.4029 v 0.8642399 h -2.403 v 0.8420159 h 2.4619 z m 4.9516,-3.0806416 c 0,0.672192 -0.4682,1.0195199 -0.741,1.1237759 0.2301,0.083904 0.4267,0.232224 0.5203,0.355056 0.1485,0.209712 0.1741,0.397008 0.1741,0.7735679 v 0.8282418 h -1.061 V 9.9330792 c 0,-0.25368 0.025,-0.6185279 -0.166,-0.8213759 -0.1537,-0.14832 -0.388,-0.18048 -0.7667,-0.18048 h -1.1291 V 10.464825 H 111.258 V 6.2485995 h 2.4192 c 0.5376,0 0.9337,0.013584 1.2737,0.201936 0.3328,0.188352 0.5323,0.4632959 0.5323,0.9335999 z m -1.3295,0.626016 c -0.1446,0.084096 -0.3155,0.08688 -0.5204,0.08688 h -1.2777 v -0.93648 h 1.2951 c 0.1833,0 0.3746,0.00787 0.4989,0.076032 0.1364,0.06144 0.2208,0.192144 0.2208,0.37272 0,0.18432 -0.08,0.332592 -0.2167,0.400848 z m 3.0165,2.4546256 h -1.0732 V 6.2485995 h 1.0732 z m 12.4589,0 h -1.4906 L 126.141,7.3002794 v 3.1644976 h -2.1422 l -0.4093,-0.9404178 h -2.185 l -0.397,0.9404178 h -1.2311 c -0.5112,0 -1.1586,-0.108336 -1.5251,-0.4663199 -0.3697,-0.3579859 -0.562,-0.8428818 -0.562,-1.6095858 0,-0.6252959 0.115,-1.1969279 0.567,-1.6486558 0.3401,-0.33648 0.8726,-0.491616 1.5974,-0.491616 h 1.0183 v 0.9034079 h -0.997 c -0.3838,0 -0.6006,0.05472 -0.8093,0.249744 -0.1793,0.177552 -0.3023,0.51312 -0.3023,0.9550559 0,0.45168 0.094,0.777408 0.2891,0.990144 0.1619,0.1668479 0.4563,0.2174399 0.733,0.2174399 h 0.4724 l 1.4825,-3.3156477 h 1.576 l 1.7809,3.9878895 V 6.2487915 h 1.6016 l 1.8489,2.9363518 V 6.2487915 h 1.0774 z m -6.3936,-1.8153617 -0.7279,-1.6808159 -0.7239,1.6808159 z m 9.0739,8.5478417 c -0.2555,0.357936 -0.7533,0.539424 -1.4273,0.539424 h -2.0313 v -0.90432 h 2.023 c 0.2007,0 0.3411,-0.0253 0.4257,-0.1044 0.08,-0.07075 0.125,-0.170592 0.1243,-0.274992 0,-0.122928 -0.051,-0.220464 -0.1284,-0.278928 -0.076,-0.06442 -0.1874,-0.0936 -0.3707,-0.0936 -0.9876,-0.03216 -2.2197,0.02918 -2.2197,-1.305312 0,-0.611616 0.4052,-1.255488 1.5091,-1.255488 h 2.0951 v -0.838992 h -1.9467 c -0.5874,0 -1.0142,0.13488 -1.3164,0.344352 v -0.3444 h -2.8793 c -0.4606,0 -1.001,0.109392 -1.2566,0.3444 v -0.3444 h -5.1418 v 0.3444 c -0.4091,-0.282816 -1.0995,-0.3444 -1.4183,-0.3444 h -3.3915 v 0.3444 c -0.3238,-0.300384 -1.0436,-0.3444 -1.4825,-0.3444 h -3.7957 l -0.8685,0.900672 -0.8136,-0.900672 h -5.6702 v 5.884319 h 5.5632 l 0.895,-0.914975 0.8431,0.914975 3.4292,0.0029 v -1.384223 h 0.337 c 0.455,0.0067 0.9917,-0.01094 1.4651,-0.206976 V 18.5647 h 2.8286 v -1.533695 h 0.1364 c 0.1741,0 0.1913,0.0069 0.1913,0.17352 v 1.359983 h 8.5924 c 0.5455,0 1.1158,-0.133728 1.4316,-0.37656 v 0.37656 h 2.7254 c 0.5672,0 1.121,-0.07618 1.5425,-0.271152 v -1.096319 z m -17.0371,-2.26344 c 0,1.171488 -0.9123,1.41336 -1.8316,1.41336 h -1.3125 v 1.414511 h -2.0444 l -1.2952,-1.396127 -1.346,1.396127 h -4.1665 v -4.217231 h 4.2305 l 1.2941,1.382352 1.338,-1.382352 h 3.361 c 0.8347,0 1.7726,0.221424 1.7726,1.38936 z m -8.3626,1.940832 h -2.5861 v -0.83904 h 2.3093 v -0.860448 h -2.3093 v -0.766752 h 2.6371 l 1.1505,1.228992 z m 4.1669,0.48288 -1.6149,-1.717872 1.6149,-1.6632 z m 2.3883,-1.875168 h -1.3592 v -1.073952 h 1.3714 c 0.3798,0 0.6434,0.14832 0.6434,0.517056 0,0.364752 -0.2514,0.556896 -0.6556,0.556896 z m 7.1213,-1.937904 h 3.5106 v 0.87216 h -2.4631 v 0.766704 h 2.403 v 0.860448 h -2.403 v 0.83904 l 2.4631,0.0038 v 0.875039 h -3.5107 z m -1.3497,2.257392 c 0.2342,0.0828 0.4255,0.231168 0.5152,0.354 0.1486,0.205968 0.1701,0.398112 0.1743,0.769776 v 0.836063 h -1.0561 v -0.527615 c 0,-0.253728 0.025,-0.629376 -0.17,-0.825504 -0.1536,-0.151056 -0.388,-0.187152 -0.7716,-0.187152 h -1.1242 v 1.540319 h -1.057 v -4.217231 h 2.4286 c 0.5324,0 0.9203,0.02256 1.2655,0.199008 0.3319,0.192192 0.5408,0.455376 0.5408,0.936528 -1e-4,0.673056 -0.4687,1.016544 -0.7455,1.121808 z m -0.5945,-0.533136 c -0.1407,0.08002 -0.3147,0.08693 -0.5192,0.08693 h -1.2779 v -0.947136 h 1.2951 c 0.1873,0 0.3748,0.0038 0.502,0.07618 0.1363,0.0683 0.2179,0.199008 0.2179,0.379344 0,0.180384 -0.082,0.325728 -0.2179,0.404688 z m 9.4954,0.268656 c 0.2049,0.202992 0.3146,0.459408 0.3146,0.893424 0,0.9072 -0.5915,1.330703 -1.6524,1.330703 h -2.0487 v -0.904319 h 2.0405 c 0.1996,0 0.341,-0.0252 0.4296,-0.1044 0.072,-0.06518 0.1243,-0.159984 0.1243,-0.274992 0,-0.122928 -0.056,-0.220416 -0.1284,-0.278928 -0.08,-0.06432 -0.1913,-0.09355 -0.3746,-0.09355 -0.9836,-0.03216 -2.2155,0.02923 -2.2155,-1.305216 0,-0.611712 0.401,-1.255584 1.5038,-1.255584 h 2.1088 v 0.8976 h -1.9295 c -0.1913,0 -0.3156,0.007 -0.4214,0.07618 -0.1152,0.06826 -0.1579,0.169632 -0.1579,0.303312 0,0.159072 0.098,0.26736 0.2301,0.314208 0.111,0.03696 0.2302,0.04776 0.4093,0.04776 l 0.5662,0.01469 c 0.571,0.01325 0.963,0.107904 1.2012,0.33912 z m 4.1738,-1.12896 h -1.917 c -0.1913,0 -0.3186,0.0069 -0.4256,0.07618 -0.111,0.0683 -0.1537,0.169632 -0.1537,0.303456 0,0.159072 0.094,0.267264 0.23,0.314112 0.1109,0.03701 0.2301,0.04781 0.4053,0.04781 l 0.5701,0.01459 c 0.5752,0.01363 0.9591,0.108384 1.1933,0.339456 0.043,0.03216 0.068,0.06826 0.098,0.1044 v -1.2 z"
     fill="#ffffff"
     id="path769"
     style="stroke-width:0.048" /><g
     fill-rule="evenodd"
     id="g933"
     transform="matrix(0.048,0,0,0.04790419,142.32,0)"><path
       d="M 54.992,0 C 24.627,0 0,24.63 0,55.004 V 445.996 C 0,476.376 24.619,501 54.992,501 H 725.008 C 755.373,501 780,476.37 780,445.996 V 55.004 C 780,24.624 755.381,0 725.008,0 Z"
       fill="#4d4d4d"
       id="path927" /><path
       d="m 327.152,161.893 c 8.837,0 16.248,1.784 25.268,6.09 v 22.751 c -8.544,-7.863 -15.955,-11.154 -25.756,-11.154 -19.264,0 -34.414,15.015 -34.414,34.05 0,20.075 14.681,34.196 35.37,34.196 9.312,0 16.586,-3.12 24.8,-10.857 v 22.763 c -9.341,4.14 -16.911,5.776 -25.756,5.776 -31.278,0 -55.582,-22.596 -55.582,-51.737 0,-28.826 24.951,-51.878 56.07,-51.878 z m -97.113,0.627 c 11.546,0 22.11,3.72 30.943,10.994 l -10.748,13.248 c -5.35,-5.646 -10.41,-8.028 -16.564,-8.028 -8.853,0 -15.3,4.745 -15.3,10.989 0,5.354 3.619,8.188 15.944,12.482 23.365,8.044 30.29,15.176 30.29,30.926 0,19.193 -14.976,32.553 -36.32,32.553 -15.63,0 -26.994,-5.795 -36.458,-18.872 l 13.268,-12.03 c 4.73,8.61 12.622,13.222 22.42,13.222 9.163,0 15.947,-5.952 15.947,-13.984 0,-4.164 -2.055,-7.734 -6.158,-10.258 -2.066,-1.195 -6.158,-2.977 -14.2,-5.647 -19.291,-6.538 -25.91,-13.527 -25.91,-27.185 0,-16.225 14.214,-28.41 32.846,-28.41 z m 234.723,1.728 h 22.437 l 28.084,66.592 28.446,-66.592 h 22.267 L 520.502,265.934 H 509.449 Z M 67.414,164.4 h 30.15 c 33.312,0 56.534,20.382 56.534,49.641 0,14.59 -7.104,28.696 -19.118,38.057 -10.108,7.901 -21.626,11.445 -37.574,11.445 H 67.414 Z m 96.135,0 h 20.54 v 99.143 h -20.54 z m 411.734,0 h 58.252 v 16.8 H 595.81 v 22.005 h 36.336 v 16.791 H 595.81 v 26.762 h 37.726 v 16.785 H 575.284 V 164.4 Z m 71.858,0 h 30.455 c 23.69,0 37.265,10.71 37.265,29.272 0,15.18 -8.514,25.14 -23.986,28.105 l 33.148,41.766 h -25.26 l -28.429,-39.828 h -2.678 v 39.828 h -20.515 z m 20.515,15.616 v 30.025 h 6.002 c 13.117,0 20.069,-5.362 20.069,-15.328 0,-9.648 -6.954,-14.697 -19.745,-14.697 z M 87.94,181.199 v 65.559 h 5.512 c 13.273,0 21.656,-2.394 28.11,-7.88 7.103,-5.955 11.376,-15.465 11.376,-24.98 0,-9.499 -4.273,-18.725 -11.376,-24.681 -6.785,-5.78 -14.837,-8.018 -28.11,-8.018 z"
       fill="#ffffff"
       id="path929" /><path
       d="m 415.13,161.21 c 30.941,0 56.022,23.58 56.022,52.709 v 0.033 c 0,29.13 -25.081,52.742 -56.021,52.742 -30.94,0 -56.022,-23.613 -56.022,-52.742 v -0.033 c 0,-29.13 25.082,-52.71 56.022,-52.71 z M 779.98,288.36 C 753.93,306.69 558.9,437.7 221.23,500.98 h 503.76 c 30.365,0 54.992,-24.63 54.992,-55.004 v -157.62 z"
       fill="#f47216"
       id="path931" /></g></svg>
