<svg width="30" height="31" viewBox="0 0 30 31" fill="none" xmlns="http://www.w3.org/2000/svg">
<rect width="30" height="30" rx="15" fill="url(#paint0_linear_2411_1753)"/>
<rect x="5.29248" y="4.81866" width="8.77996" height="8.77998" rx="1.51961" fill="url(#paint1_linear_2411_1753)"/>
<rect x="5.29248" y="16.3579" width="19.7549" height="8.77998" rx="1.01307" fill="white" fill-opacity="0.2"/>
<g filter="url(#filter0_d_2411_1753)">
<rect x="4.41504" y="17.0856" width="18.4696" height="8.20873" rx="1.01307" transform="rotate(-6.36007 4.41504 17.0856)" fill="url(#paint2_linear_2411_1753)" shape-rendering="crispEdges"/>
</g>
<rect opacity="0.6" x="5.99512" y="18.4406" width="15.4992" height="4.22167" rx="0.822415" transform="rotate(-6.36007 5.99512 18.4406)" fill="url(#paint3_linear_2411_1753)"/>
<rect x="16.208" y="4.85942" width="8.77996" height="8.77998" rx="1.51961" fill="url(#paint4_linear_2411_1753)"/>
<g filter="url(#filter1_d_2411_1753)">
<path d="M24.434 23.9113L21.3611 22.1114C21.2733 22.0236 21.1855 22.0675 21.1416 22.1553C21.0977 22.1992 21.0977 22.2431 21.0977 22.287L21.7562 25.799C21.7562 25.8868 21.8879 25.9746 21.9757 25.9307C22.0196 25.9307 22.0635 25.8868 22.1074 25.8429L22.8097 24.482C22.8097 24.4381 22.8536 24.4381 22.8536 24.4381L24.3901 24.2625C24.4779 24.2625 24.5657 24.1747 24.5657 24.043C24.5218 23.9991 24.5218 23.9113 24.434 23.9113Z" fill="#FF7917"/>
<path d="M20.971 22.287V22.2988L20.9732 22.3104L21.63 25.8132C21.6361 25.9108 21.7052 25.9837 21.7659 26.0216C21.8256 26.059 21.9172 26.0876 22.0072 26.0548C22.0554 26.0469 22.0933 26.0227 22.1175 26.0046C22.1468 25.9826 22.1742 25.9551 22.1943 25.935L22.1969 25.9325L22.2108 25.9185L22.2199 25.901L22.9126 24.5588L24.3984 24.389C24.5695 24.384 24.6924 24.2228 24.6924 24.043V23.9906L24.6567 23.9549C24.6561 23.9539 24.6543 23.9511 24.6512 23.9452C24.6506 23.944 24.6495 23.942 24.6482 23.9392C24.643 23.9289 24.6332 23.9093 24.6249 23.8956C24.6121 23.8741 24.5912 23.8446 24.557 23.8212C24.5318 23.804 24.5038 23.793 24.474 23.788L21.4375 22.0095C21.3714 21.9498 21.2873 21.9208 21.2001 21.9458C21.1238 21.9675 21.0705 22.0238 21.0377 22.0811C20.9709 22.158 20.971 22.2395 20.971 22.2835C20.971 22.2847 20.971 22.2859 20.971 22.287Z" stroke="white" stroke-width="0.253268"/>
</g>
<rect x="18.063" y="7.42056" width="5.13186" height="1.28297" rx="0.328966" fill="url(#paint5_linear_2411_1753)"/>
<rect x="18.063" y="9.84327" width="5.13186" height="1.28297" rx="0.328966" fill="url(#paint6_linear_2411_1753)"/>
<path d="M8.59366 9.0475L7.28721 10.6569C7.16286 10.8101 7.27188 11.039 7.46918 11.039H12.0316C12.1925 11.039 12.3055 10.8807 12.2533 10.7286L11.2702 7.86339C11.2052 7.67421 10.9484 7.64803 10.8467 7.82021L9.84277 9.51892C9.76477 9.6509 9.58316 9.6737 9.47496 9.56509L8.94167 9.02979C8.84343 8.93118 8.68139 8.93942 8.59366 9.0475Z" fill="url(#paint7_linear_2411_1753)"/>
<path d="M7.57039 19.5942C7.59147 19.5678 7.62441 19.5401 7.67186 19.5349L8.24128 19.4714C8.31246 19.4635 8.35727 19.4344 8.39943 19.3817C8.4416 19.329 8.45871 19.267 8.45078 19.1958C8.44284 19.1246 8.41251 19.068 8.36109 19.0377C8.30835 18.9955 8.24639 18.9784 8.18707 18.985L7.61765 19.0485C7.43971 19.0683 7.30396 19.1435 7.18801 19.2885C7.08261 19.4204 7.02862 19.5825 7.04845 19.7605L7.19655 21.0891C7.21638 21.2671 7.29156 21.4028 7.4366 21.5188C7.56845 21.6242 7.7306 21.6782 7.90855 21.6583L8.47797 21.5949C8.54915 21.5869 8.59395 21.5579 8.63612 21.5052C8.67828 21.4524 8.69539 21.3905 8.68746 21.3193C8.67953 21.2481 8.64919 21.1914 8.59645 21.1493C8.54371 21.1071 8.48175 21.09 8.42243 21.0966L7.85301 21.1601C7.81742 21.1641 7.78051 21.1562 7.74096 21.1245C7.71459 21.1035 7.68689 21.0705 7.6816 21.0231L7.634 20.596L8.35764 20.5153C8.42882 20.5074 8.47363 20.4784 8.51579 20.4256C8.55795 20.3729 8.57507 20.3109 8.56714 20.2398C8.5592 20.1686 8.52886 20.1119 8.47612 20.0698C8.42338 20.0276 8.36142 20.0105 8.30211 20.0171L7.57847 20.0977L7.53087 19.6707C7.54141 19.6575 7.5493 19.6206 7.57039 19.5942Z" fill="white"/>
<path d="M10.7638 19.3595C10.5147 19.3873 10.3328 19.4796 10.2077 19.6497C10.0481 19.5114 9.85038 19.4613 9.60126 19.4891C9.37586 19.5142 9.18345 19.6198 9.04642 19.7912C8.91071 19.9744 8.84883 20.1735 8.87395 20.3989L8.97312 21.2886C8.98105 21.3598 9.01139 21.4165 9.06281 21.4468C9.11555 21.4889 9.17751 21.506 9.24869 21.4981C9.31986 21.4902 9.36467 21.4612 9.40683 21.4084C9.449 21.3557 9.46611 21.2937 9.45818 21.2225L9.35901 20.3328C9.34843 20.2379 9.37609 20.1628 9.42747 20.085C9.48017 20.0191 9.55925 19.9742 9.65415 19.9636C9.74905 19.953 9.8242 19.9807 9.90199 20.0321C9.96791 20.0848 10.0128 20.1639 10.0233 20.2588L10.1225 21.1485C10.1304 21.2197 10.1608 21.2763 10.2122 21.3066C10.2649 21.3488 10.3269 21.3659 10.3981 21.358C10.4692 21.35 10.5259 21.3197 10.5562 21.2683C10.5984 21.2155 10.6155 21.1536 10.6076 21.0824L10.5084 20.1927C10.4978 20.0978 10.5255 20.0226 10.5769 19.9449C10.6296 19.8789 10.7086 19.8341 10.8035 19.8235C10.8984 19.8129 10.9736 19.8406 11.0514 19.892C11.1173 19.9447 11.1621 20.0237 11.1727 20.1186L11.2719 21.0084C11.2798 21.0795 11.3102 21.1362 11.3616 21.1665C11.4143 21.2087 11.4763 21.2258 11.5475 21.2179C11.6186 21.2099 11.6753 21.1796 11.7175 21.1268C11.7596 21.0741 11.7767 21.0121 11.7701 20.9528L11.671 20.0631C11.6458 19.8377 11.5416 19.6572 11.3689 19.5083C11.2002 19.395 10.9892 19.3344 10.7638 19.3595Z" fill="white"/>
<path d="M12.921 19.1178C12.6482 19.1482 12.4333 19.2682 12.2647 19.4792C12.096 19.6902 12.0276 19.938 12.0567 20.199C12.0858 20.46 12.2071 20.6867 12.4181 20.8553C12.629 21.024 12.8769 21.0924 13.1379 21.0633C13.3395 21.0409 13.5122 20.9736 13.6189 20.8536C13.6334 20.876 13.6611 20.9089 13.6875 20.93C13.7402 20.9722 13.8022 20.9893 13.8734 20.9814C13.9445 20.9734 13.9893 20.9444 14.0315 20.8917C14.0737 20.8389 14.0908 20.777 14.0828 20.7058L14.0009 19.9703C13.9705 19.6974 13.8504 19.4826 13.6395 19.314C13.4298 19.1572 13.182 19.0887 12.921 19.1178ZM13.0836 20.577C12.9531 20.5915 12.8292 20.5573 12.7237 20.4729C12.6183 20.3886 12.5576 20.2753 12.543 20.1448C12.5285 20.0143 12.5627 19.8904 12.6471 19.7849C12.7314 19.6794 12.8447 19.6187 12.9752 19.6042C13.1057 19.5896 13.2296 19.6239 13.3351 19.7082C13.4406 19.7925 13.4999 19.894 13.5158 20.0364C13.5304 20.1669 13.4961 20.2908 13.4118 20.3963C13.3288 20.5136 13.2141 20.5624 13.0836 20.577Z" fill="white"/>
<path d="M14.5587 18.9361C14.4875 18.944 14.4308 18.9744 14.3887 19.0271C14.3465 19.0799 14.3294 19.1418 14.3373 19.213L14.5 20.6721C14.5079 20.7433 14.5382 20.8 14.5897 20.8303C14.6424 20.8725 14.7044 20.8896 14.7755 20.8816C14.8467 20.8737 14.9034 20.8434 14.9337 20.7919C14.9759 20.7392 14.993 20.6772 14.985 20.6061L14.8237 19.1588C14.8158 19.0876 14.7854 19.0309 14.734 19.0006C14.6918 18.9453 14.6299 18.9282 14.5587 18.9361Z" fill="white"/>
<path d="M14.3053 18.3887C14.2632 18.4415 14.2355 18.5166 14.2435 18.5878C14.2514 18.659 14.2831 18.7275 14.3477 18.7683C14.4004 18.8105 14.4755 18.8382 14.5467 18.8302C14.6179 18.8223 14.6864 18.7906 14.7273 18.726C14.7813 18.672 14.7971 18.5981 14.7892 18.527C14.7812 18.4558 14.7496 18.3873 14.685 18.3464C14.5663 18.2515 14.4002 18.2701 14.3053 18.3887Z" fill="white"/>
<path d="M15.6349 18.227C15.5822 18.1848 15.5202 18.1677 15.4609 18.1743C15.3897 18.1822 15.3449 18.2113 15.3027 18.264C15.2606 18.3167 15.2435 18.3787 15.2514 18.4499L15.4881 20.5734C15.496 20.6445 15.5264 20.7012 15.5778 20.7315C15.6305 20.7737 15.6925 20.7908 15.7637 20.7828C15.8348 20.7749 15.8796 20.7459 15.9218 20.6932C15.964 20.6404 15.9811 20.5785 15.9731 20.5073L15.7365 18.3838C15.7298 18.3245 15.6995 18.2678 15.6349 18.227Z" fill="white"/>
<defs>
<filter id="filter0_d_2411_1753" x="1.48177" y="14.1325" width="25.1317" height="16.0708" filterUnits="userSpaceOnUse" color-interpolation-filters="sRGB">
<feFlood flood-opacity="0" result="BackgroundImageFix"/>
<feColorMatrix in="SourceAlpha" type="matrix" values="0 0 0 0 0 0 0 0 0 0 0 0 0 0 0 0 0 0 127 0" result="hardAlpha"/>
<feOffset dy="2.02615"/>
<feGaussianBlur stdDeviation="1.51961"/>
<feComposite in2="hardAlpha" operator="out"/>
<feColorMatrix type="matrix" values="0 0 0 0 0.00791667 0 0 0 0 0.0322459 0 0 0 0 0.0791667 0 0 0 0.3 0"/>
<feBlend mode="normal" in2="BackgroundImageFix" result="effect1_dropShadow_2411_1753"/>
<feBlend mode="normal" in="SourceGraphic" in2="effect1_dropShadow_2411_1753" result="shape"/>
</filter>
<filter id="filter1_d_2411_1753" x="18.3116" y="20.797" width="9.03998" height="9.45124" filterUnits="userSpaceOnUse" color-interpolation-filters="sRGB">
<feFlood flood-opacity="0" result="BackgroundImageFix"/>
<feColorMatrix in="SourceAlpha" type="matrix" values="0 0 0 0 0 0 0 0 0 0 0 0 0 0 0 0 0 0 127 0" result="hardAlpha"/>
<feOffset dy="1.51961"/>
<feGaussianBlur stdDeviation="1.26634"/>
<feComposite in2="hardAlpha" operator="out"/>
<feColorMatrix type="matrix" values="0 0 0 0 0.00784314 0 0 0 0 0.0313726 0 0 0 0 0.0784314 0 0 0 0.4 0"/>
<feBlend mode="normal" in2="BackgroundImageFix" result="effect1_dropShadow_2411_1753"/>
<feBlend mode="normal" in="SourceGraphic" in2="effect1_dropShadow_2411_1753" result="shape"/>
</filter>
<linearGradient id="paint0_linear_2411_1753" x1="15.0167" y1="29.9836" x2="15.0167" y2="-0.0224582" gradientUnits="userSpaceOnUse">
<stop stop-color="#3F7FFF"/>
<stop offset="1" stop-color="#3FC0FF"/>
</linearGradient>
<linearGradient id="paint1_linear_2411_1753" x1="12.052" y1="4.81866" x2="6.28091" y2="13.5986" gradientUnits="userSpaceOnUse">
<stop stop-color="white"/>
<stop offset="1" stop-color="white" stop-opacity="0.76"/>
</linearGradient>
<linearGradient id="paint2_linear_2411_1753" x1="18.6343" y1="17.0856" x2="15.4703" y2="27.9165" gradientUnits="userSpaceOnUse">
<stop stop-color="white"/>
<stop offset="1" stop-color="white" stop-opacity="0.76"/>
</linearGradient>
<linearGradient id="paint3_linear_2411_1753" x1="5.57296" y1="22.1837" x2="8.57633" y2="13.3905" gradientUnits="userSpaceOnUse">
<stop stop-color="#5E6EFF"/>
<stop offset="1" stop-color="#F1F3FE" stop-opacity="0.76"/>
</linearGradient>
<linearGradient id="paint4_linear_2411_1753" x1="22.9675" y1="4.85942" x2="17.1964" y2="13.6394" gradientUnits="userSpaceOnUse">
<stop stop-color="white"/>
<stop offset="1" stop-color="white" stop-opacity="0.76"/>
</linearGradient>
<linearGradient id="paint5_linear_2411_1753" x1="23.1236" y1="7.37122" x2="21.839" y2="10.8004" gradientUnits="userSpaceOnUse">
<stop stop-color="#FFBB6B"/>
<stop offset="0.0001" stop-color="#FFA740"/>
<stop offset="1" stop-color="#FFA740" stop-opacity="0"/>
</linearGradient>
<linearGradient id="paint6_linear_2411_1753" x1="23.1236" y1="9.79392" x2="21.839" y2="13.2231" gradientUnits="userSpaceOnUse">
<stop stop-color="#FFBB6B"/>
<stop offset="0.0001" stop-color="#FFA740"/>
<stop offset="1" stop-color="#FFA740" stop-opacity="0"/>
</linearGradient>
<linearGradient id="paint7_linear_2411_1753" x1="11.3442" y1="8.19526" x2="10.1184" y2="11.763" gradientUnits="userSpaceOnUse">
<stop stop-color="#4DB9FF"/>
<stop offset="1" stop-color="#62C7FF"/>
</linearGradient>
</defs>
</svg>
