<svg width="1708" height="104" viewBox="0 0 1708 104" fill="none" xmlns="http://www.w3.org/2000/svg">
<g filter="url(#filter0_d_2411_1750)">
<rect x="4" y="3" width="1700" height="96" fill="url(#paint0_linear_2411_1750)"/>
</g>
<mask id="mask0_2411_1750" style="mask-type:alpha" maskUnits="userSpaceOnUse" x="4" y="3" width="1700" height="96">
<rect x="4" y="3" width="1700" height="96" fill="#C1C1C1"/>
</mask>
<g mask="url(#mask0_2411_1750)">
<path opacity="0.5" fill-rule="evenodd" clip-rule="evenodd" d="M833.559 351.92V309.698L874.441 309.698V351.92H876.773V309.698H918.083V351.92H920.415V309.698H961.724V351.92H964.056V309.698H1005.37V351.92H1007.7V309.698H1049.01V351.92H1051.34V309.698H1092.65V351.92H1094.98V309.698H1136.29V351.92H1138.62V309.698H1179.93V351.92H1182.26V309.698H1223.57V351.92H1225.91V309.698L1267.22 309.698L1267.22 351.92H1269.55V309.698H1310.86V351.92H1313.19V309.698H1354.5V351.92H1356.83V309.698H1398.14L1398.14 351.92H1400.47V309.698H1441.78V351.92H1444.11V309.698H1485.42V351.92H1487.76V309.698H1529.07V351.92H1531.4V309.698H1572.71V351.92H1575.04V309.698L1616.35 309.698V351.92H1618.68V309.698H1659.99V351.92H1662.32V309.698H1704V307.366H1662.32V269.77H1704V267.438H1662.32V229.842H1704V227.51L1662.32 227.51V189.914H1704V187.582H1662.32V149.986H1704V147.654H1662.32V110.058H1704V107.726H1662.32V70.1297H1704V67.7976H1662.32V30.2018H1704V27.8696H1662.32V-9.72623H1704V-12.0584H1662.32V-49.6542H1704V-51.9864H1662.32V-89.5822H1704V-91.9143H1662.32V-129.51L1704 -129.51V-131.842L1662.32 -131.842V-173L1659.99 -173V-131.842L1618.68 -131.842V-173L1616.35 -173V-131.842L1575.04 -131.842V-173L1572.71 -173V-131.842L1531.4 -131.842V-173L1529.07 -173V-131.842L1487.76 -131.842V-173L1485.42 -173V-131.842H1444.11V-173L1441.78 -173V-131.842H1400.47V-173L1398.14 -173V-131.842L1356.83 -131.842V-173L1354.5 -173V-131.842L1313.19 -131.842V-173L1310.86 -173V-131.842L1269.55 -131.842V-173L1267.22 -173V-131.842L1225.91 -131.842V-173L1223.57 -173V-131.842L1182.26 -131.842V-173L1179.93 -173V-131.842L1138.62 -131.842V-173L1136.29 -173V-131.842L1094.98 -131.842V-173L1092.65 -173V-131.842L1051.34 -131.842V-173L1049.01 -173V-131.842L1007.7 -131.842V-173L1005.37 -173V-131.842L964.056 -131.842V-173H961.724V-131.842H920.415V-173L918.083 -173V-131.842H876.773V-173L874.441 -173V-131.842L833.559 -131.842V-173L831.227 -173V-131.842L789.918 -131.842V-173L787.585 -173V-131.842L746.276 -131.842V-173L743.944 -173V-131.842L702.634 -131.842V-173L700.302 -173V-131.842L658.993 -131.842V-173L656.66 -173V-131.842H615.351V-173L613.019 -173V-131.842H571.709V-173L569.377 -173V-131.842L528.068 -131.842V-173L525.735 -173V-131.842L484.426 -131.842V-173L482.094 -173V-131.842L440.784 -131.842V-173L438.452 -173V-131.842L397.143 -131.842V-173L394.811 -173V-131.842L353.501 -131.842V-173L351.169 -173V-131.842L309.859 -131.842V-173L307.527 -173V-131.842L266.218 -131.842V-173L263.886 -173V-131.842L222.576 -131.842V-173L220.244 -173V-131.842L178.934 -131.842V-173L176.602 -173V-131.842L135.293 -131.842L135.293 -173H132.961V-131.842H91.6511L91.6511 -173L89.319 -173L89.319 -131.842H48.0095L48.0095 -173L45.6774 -173L45.6774 -131.842L4.00004 -131.842L4.00004 -129.51L45.6774 -129.51L45.6774 -91.9144H4.00004L4.00003 -89.5823H45.6774L45.6774 -51.9864H4.00003L4.00003 -49.6543H45.6774V-12.0584L4.00003 -12.0584L4.00003 -9.7263L45.6774 -9.72629L45.6774 27.8696L4.00002 27.8696L4.00002 30.2017L45.6774 30.2017L45.6773 67.7975L4.00002 67.7975L4.00002 70.1297L45.6773 70.1297L45.6773 107.726H4.00002L4.00002 110.058H45.6773L45.6773 147.654H4.00001L4.00001 149.986H45.6773L45.6773 187.582H4.00001L4.00001 189.914H45.6773V227.509H4.00001L4.00001 229.842L45.6773 229.842L45.6773 267.438H4L4 269.77H45.6773L45.6773 307.365H4L4 309.698L45.6773 309.698L45.6773 351.92H48.0094L48.0094 309.698H89.319V351.92H91.6511V309.698H132.961V351.92H135.293V309.698H176.602V351.92H178.934V309.698H220.244V351.92H222.576V309.698H263.886V351.92H266.218V309.698H307.527V351.92H309.859V309.698H351.169V351.92H353.501V309.698H394.811V351.92H397.143V309.698L438.452 309.698V351.92H440.784V309.698H482.094V351.92H484.426V309.698H525.735V351.92H528.068V309.698H569.377V351.92H571.709V309.698H613.019V351.92H615.351L615.351 309.698H656.66L656.66 351.92H658.993V309.698H700.302V351.92H702.634V309.698H743.944V351.92H746.276V309.698L787.585 309.698V351.92H789.917V309.698H831.227V351.92H833.559ZM874.441 -129.51L833.559 -129.51V-91.9143L874.441 -91.9144V-129.51ZM874.441 -89.5823L833.559 -89.5822V-51.9864L874.441 -51.9864V-89.5823ZM874.441 -49.6543L833.559 -49.6542V-12.0584L874.441 -12.0584L874.441 -49.6543ZM874.441 -9.72629L833.559 -9.72623V27.8696L874.441 27.8696V-9.72629ZM874.441 30.2017L833.559 30.2018V67.7976L874.441 67.7975V30.2017ZM874.441 70.1297L833.559 70.1297V107.726L874.441 107.726V70.1297ZM874.441 110.058L833.559 110.058V147.654L874.441 147.654V110.058ZM874.441 149.986L833.559 149.986V187.582L874.441 187.582V149.986ZM874.441 189.914L833.559 189.914V227.51L874.441 227.509V189.914ZM874.441 229.842L833.559 229.842V267.438L874.441 267.438V229.842ZM874.441 269.77L833.559 269.77L833.559 307.366L874.441 307.365V269.77ZM831.227 269.77L831.227 307.366L789.917 307.366L789.917 269.77H831.227ZM787.585 269.77V307.366H746.276V269.77H787.585ZM743.944 269.77V307.366H702.634V269.77H743.944ZM700.302 269.77V307.366H658.993V269.77H700.302ZM656.66 269.77V307.366H615.351V269.77H656.66ZM613.019 269.77V307.366H571.709V269.77L613.019 269.77ZM569.377 269.77V307.366H528.068V269.77H569.377ZM525.735 269.77V307.366H484.426V269.77H525.735ZM482.094 269.77V307.366L440.784 307.365V269.77H482.094ZM438.452 269.77V307.365H397.143V269.77H438.452ZM394.811 269.77V307.365H353.501V269.77H394.811ZM351.169 269.77V307.365H309.859V269.77H351.169ZM307.527 269.77V307.365H266.218V269.77H307.527ZM263.886 269.77V307.365H222.576V269.77H263.886ZM220.244 269.77V307.365H178.934V269.77L220.244 269.77ZM176.602 269.77V307.365H135.293V269.77H176.602ZM132.961 269.77V307.365H91.6511L91.6511 269.77H132.961ZM89.319 269.77L89.319 307.365L48.0094 307.365L48.0094 269.77H89.319ZM89.319 267.438H48.0094L48.0094 229.842H89.319V267.438ZM89.319 227.509H48.0094V189.914H89.319L89.319 227.509ZM89.319 187.582H48.0094L48.0094 149.986H89.319V187.582ZM89.319 147.654H48.0094L48.0094 110.058H89.319L89.319 147.654ZM89.319 107.726H48.0094L48.0095 70.1297H89.319V107.726ZM89.319 67.7975H48.0095L48.0095 30.2017H89.319V67.7975ZM89.319 27.8696H48.0095L48.0095 -9.72629H89.319L89.319 27.8696ZM89.319 -12.0584H48.0095V-49.6543L89.319 -49.6543V-12.0584ZM89.319 -51.9864L48.0095 -51.9864L48.0095 -89.5823L89.319 -89.5823L89.319 -51.9864ZM89.319 -91.9144L48.0095 -91.9144L48.0095 -129.51H89.319V-91.9144ZM91.6511 -91.9144V-129.51H132.961V-91.9144H91.6511ZM135.293 -91.9144V-129.51L176.602 -129.51L176.602 -91.9144L135.293 -91.9144ZM178.934 -91.9144L178.934 -129.51L220.244 -129.51L220.244 -91.9144H178.934ZM222.576 -91.9144L222.576 -129.51L263.886 -129.51L263.886 -91.9144L222.576 -91.9144ZM266.218 -91.9144L266.218 -129.51L307.527 -129.51V-91.9144H266.218ZM309.859 -91.9144V-129.51L351.169 -129.51V-91.9144H309.859ZM353.501 -91.9144V-129.51L394.811 -129.51V-91.9144H353.501ZM397.143 -91.9144V-129.51L438.452 -129.51V-91.9144H397.143ZM440.784 -91.9144V-129.51L482.094 -129.51V-91.9144L440.784 -91.9144ZM484.426 -91.9144V-129.51L525.735 -129.51V-91.9144H484.426ZM528.068 -91.9144V-129.51L569.377 -129.51V-91.9144L528.068 -91.9144ZM571.709 -91.9144V-129.51H613.019V-91.9144H571.709ZM615.351 -91.9144V-129.51H656.66V-91.9143L615.351 -91.9144ZM658.993 -91.9143V-129.51L700.302 -129.51V-91.9143H658.993ZM702.634 -91.9143V-129.51L743.944 -129.51V-91.9143L702.634 -91.9143ZM746.276 -91.9143L746.276 -129.51L787.585 -129.51V-91.9143H746.276ZM789.917 -91.9143L789.918 -129.51L831.227 -129.51V-91.9143L789.917 -91.9143ZM789.917 -89.5822L831.227 -89.5822V-51.9864L789.917 -51.9864V-89.5822ZM789.917 -49.6542L831.227 -49.6542V-12.0584H789.917V-49.6542ZM789.917 -9.72623H831.227V27.8696H789.917V-9.72623ZM789.917 30.2018H831.227V67.7976H789.917V30.2018ZM789.917 70.1297H831.227V107.726H789.917V70.1297ZM789.917 110.058H831.227V147.654H789.917V110.058ZM789.917 149.986H831.227V187.582H789.917V149.986ZM789.917 189.914H831.227V227.51H789.917V189.914ZM789.917 229.842H831.227V267.438H789.917V229.842ZM787.585 229.842L787.585 267.438H746.276V229.842L787.585 229.842ZM743.944 229.842L743.944 267.438H702.634V229.842H743.944ZM700.302 229.842V267.438L658.993 267.438V229.842H700.302ZM656.66 229.842V267.438H615.351V229.842H656.66ZM613.019 229.842V267.438H571.709V229.842H613.019ZM569.377 229.842V267.438H528.068V229.842H569.377ZM525.735 229.842V267.438H484.426V229.842H525.735ZM482.094 229.842V267.438H440.784V229.842H482.094ZM438.452 229.842V267.438H397.143V229.842L438.452 229.842ZM394.811 229.842V267.438H353.501V229.842H394.811ZM351.169 229.842V267.438H309.859V229.842H351.169ZM307.527 229.842V267.438L266.218 267.438L266.218 229.842H307.527ZM263.886 229.842V267.438H222.576L222.576 229.842H263.886ZM220.244 229.842L220.244 267.438H178.934L178.934 229.842H220.244ZM176.602 229.842L176.602 267.438H135.293V229.842H176.602ZM132.961 229.842V267.438H91.6511V229.842H132.961ZM132.961 227.51L91.6511 227.509L91.6511 189.914H132.961L132.961 227.51ZM132.961 187.582H91.6511V149.986L132.961 149.986V187.582ZM132.961 147.654L91.6511 147.654L91.6511 110.058H132.961L132.961 147.654ZM132.961 107.726H91.6511V70.1297H132.961V107.726ZM132.961 67.7975H91.6511V30.2017H132.961V67.7975ZM132.961 27.8696H91.6511L91.6511 -9.72629H132.961V27.8696ZM132.961 -12.0584H91.6511V-49.6543H132.961V-12.0584ZM132.961 -51.9864H91.6511L91.6511 -89.5823H132.961L132.961 -51.9864ZM135.293 -51.9864V-89.5823L176.602 -89.5823V-51.9864L135.293 -51.9864ZM178.934 -51.9864V-89.5823H220.244V-51.9864H178.934ZM222.576 -51.9864V-89.5823L263.886 -89.5823V-51.9864L222.576 -51.9864ZM266.218 -51.9864V-89.5823H307.527V-51.9864H266.218ZM309.859 -51.9864V-89.5823H351.169V-51.9864H309.859ZM353.501 -51.9864V-89.5823H394.811V-51.9864H353.501ZM397.143 -51.9864V-89.5823H438.452V-51.9864H397.143ZM440.784 -51.9864V-89.5823L482.094 -89.5823V-51.9864L440.784 -51.9864ZM484.426 -51.9864V-89.5823H525.735V-51.9864H484.426ZM528.068 -51.9864V-89.5823L569.377 -89.5822V-51.9864L528.068 -51.9864ZM571.709 -51.9864V-89.5822H613.019V-51.9864H571.709ZM615.351 -51.9864V-89.5822L656.66 -89.5822V-51.9864L615.351 -51.9864ZM658.993 -51.9864V-89.5822H700.302V-51.9864H658.993ZM702.634 -51.9864V-89.5822L743.944 -89.5822V-51.9864L702.634 -51.9864ZM746.276 -51.9864V-89.5822H787.585V-51.9864H746.276ZM746.276 -49.6542H787.585V-12.0584L746.276 -12.0584V-49.6542ZM746.276 -9.72624L787.585 -9.72623V27.8696L746.276 27.8696V-9.72624ZM746.276 30.2018L787.585 30.2018V67.7976L746.276 67.7976V30.2018ZM746.276 70.1297L787.585 70.1297V107.726H746.276V70.1297ZM746.276 110.058H787.585V147.654H746.276V110.058ZM746.276 149.986H787.585V187.582H746.276V149.986ZM746.276 189.914H787.585V227.51H746.276V189.914ZM743.944 189.914V227.51H702.634V189.914H743.944ZM700.302 189.914V227.51H658.993V189.914L700.302 189.914ZM656.66 189.914V227.51H615.351V189.914H656.66ZM613.019 189.914V227.51H571.709V189.914H613.019ZM569.377 189.914V227.51H528.068V189.914H569.377ZM525.735 189.914V227.51L484.426 227.51V189.914H525.735ZM482.094 189.914V227.51H440.784V189.914H482.094ZM438.452 189.914V227.51H397.143V189.914H438.452ZM394.811 189.914V227.51H353.501L353.501 189.914H394.811ZM351.169 189.914L351.169 227.51H309.859V189.914H351.169ZM307.527 189.914V227.51H266.218V189.914L307.527 189.914ZM263.886 189.914V227.51H222.576V189.914H263.886ZM220.244 189.914V227.51H178.934V189.914H220.244ZM176.602 189.914V227.51H135.293L135.293 189.914H176.602ZM176.602 187.582H135.293V149.986H176.602V187.582ZM176.602 147.654H135.293V110.058H176.602V147.654ZM176.602 107.726H135.293V70.1297H176.602V107.726ZM176.602 67.7975H135.293V30.2017H176.602L176.602 67.7975ZM176.602 27.8696H135.293L135.293 -9.72629H176.602V27.8696ZM176.602 -12.0584H135.293V-49.6543L176.602 -49.6543V-12.0584ZM178.934 -12.0584V-49.6543H220.244V-12.0584L178.934 -12.0584ZM222.576 -12.0584V-49.6543L263.886 -49.6543V-12.0584H222.576ZM266.218 -12.0584V-49.6543H307.527V-12.0584H266.218ZM309.859 -12.0584V-49.6543H351.169L351.169 -12.0584H309.859ZM353.501 -12.0584L353.501 -49.6543H394.811V-12.0584H353.501ZM397.143 -12.0584V-49.6543H438.452V-12.0584L397.143 -12.0584ZM440.784 -12.0584V-49.6543L482.094 -49.6543V-12.0584H440.784ZM484.426 -12.0584V-49.6543H525.735V-12.0584H484.426ZM528.068 -12.0584V-49.6543L569.377 -49.6542L569.377 -12.0584H528.068ZM571.709 -12.0584L571.709 -49.6542H613.019L613.019 -12.0584L571.709 -12.0584ZM615.351 -12.0584L615.351 -49.6542L656.66 -49.6542V-12.0584H615.351ZM658.993 -12.0584V-49.6542H700.302V-12.0584H658.993ZM702.634 -12.0584V-49.6542L743.944 -49.6542V-12.0584H702.634ZM702.634 -9.72624H743.944V27.8696H702.634V-9.72624ZM702.634 30.2018H743.944V67.7976H702.634V30.2018ZM702.634 70.1297H743.944V107.726H702.634V70.1297ZM702.634 110.058H743.944V147.654H702.634V110.058ZM702.634 149.986H743.944V187.582H702.634L702.634 149.986ZM700.302 149.986L700.302 187.582L658.993 187.582V149.986H700.302ZM656.66 149.986V187.582H615.351V149.986H656.66ZM613.019 149.986V187.582H571.709V149.986H613.019ZM569.377 149.986V187.582H528.068L528.068 149.986H569.377ZM525.735 149.986L525.735 187.582H484.426L484.426 149.986L525.735 149.986ZM482.094 149.986L482.094 187.582H440.784L440.784 149.986H482.094ZM438.452 149.986L438.452 187.582H397.143L397.143 149.986H438.452ZM394.811 149.986L394.811 187.582H353.501L353.501 149.986H394.811ZM351.169 149.986L351.169 187.582H309.859L309.859 149.986H351.169ZM307.527 149.986L307.527 187.582L266.218 187.582V149.986H307.527ZM263.886 149.986V187.582H222.576V149.986H263.886ZM220.244 149.986V187.582H178.934V149.986H220.244ZM220.244 147.654H178.934V110.058H220.244V147.654ZM220.244 107.726H178.934V70.1297L220.244 70.1297V107.726ZM220.244 67.7976L178.934 67.7975L178.934 30.2017L220.244 30.2017L220.244 67.7976ZM220.244 27.8696L178.934 27.8696V-9.72629L220.244 -9.72627V27.8696ZM222.576 27.8696V-9.72627H263.886V27.8696H222.576ZM266.218 27.8696V-9.72627H307.527V27.8696H266.218ZM309.859 27.8696V-9.72627H351.169V27.8696H309.859ZM353.501 27.8696V-9.72627H394.811V27.8696H353.501ZM397.143 27.8696V-9.72627L438.452 -9.72626V27.8696L397.143 27.8696ZM440.784 27.8696V-9.72626H482.094V27.8696H440.784ZM484.426 27.8696V-9.72626H525.735V27.8696H484.426ZM528.068 27.8696V-9.72626H569.377V27.8696H528.068ZM571.709 27.8696V-9.72626L613.019 -9.72624V27.8696L571.709 27.8696ZM615.351 27.8696V-9.72624H656.66V27.8696H615.351ZM658.993 27.8696V-9.72624H700.302V27.8696H658.993ZM658.993 30.2018H700.302V67.7976H658.993V30.2018ZM658.993 70.1297H700.302V107.726L658.993 107.726V70.1297ZM658.993 110.058L700.302 110.058V147.654H658.993V110.058ZM656.66 110.058V147.654H615.351V110.058H656.66ZM613.019 110.058V147.654H571.709V110.058H613.019ZM569.377 110.058V147.654H528.068V110.058H569.377ZM525.735 110.058V147.654L484.426 147.654V110.058H525.735ZM482.094 110.058V147.654H440.784V110.058H482.094ZM438.452 110.058V147.654H397.143V110.058H438.452ZM394.811 110.058V147.654H353.501V110.058H394.811ZM351.169 110.058V147.654H309.859V110.058H351.169ZM307.527 110.058V147.654H266.218V110.058L307.527 110.058ZM263.886 110.058V147.654H222.576V110.058H263.886ZM263.886 107.726H222.576V70.1297H263.886V107.726ZM263.886 67.7976H222.576L222.576 30.2017H263.886L263.886 67.7976ZM266.218 67.7976V30.2017H307.527V67.7976H266.218ZM309.859 67.7976V30.2017H351.169V67.7976H309.859ZM353.501 67.7976V30.2017H394.811V67.7976H353.501ZM397.143 67.7976V30.2017L438.452 30.2017V67.7976L397.143 67.7976ZM440.784 67.7976V30.2017H482.094V67.7976H440.784ZM484.426 67.7976V30.2017H525.735V67.7976H484.426ZM528.068 67.7976V30.2017H569.377V67.7976H528.068ZM571.709 67.7976V30.2017L613.019 30.2018V67.7976L571.709 67.7976ZM615.351 67.7976V30.2018H656.66V67.7976H615.351ZM615.351 70.1297H656.66V107.726H615.351V70.1297ZM613.019 70.1297V107.726H571.709V70.1297L613.019 70.1297ZM569.377 70.1297V107.726H528.068L528.068 70.1297H569.377ZM525.735 70.1297V107.726H484.426L484.426 70.1297H525.735ZM482.094 70.1297L482.094 107.726H440.784L440.784 70.1297H482.094ZM438.452 70.1297L438.452 107.726H397.143L397.143 70.1297L438.452 70.1297ZM394.811 70.1297L394.811 107.726H353.501V70.1297H394.811ZM351.169 70.1297V107.726H309.859V70.1297H351.169ZM307.527 70.1297V107.726L266.218 107.726V70.1297H307.527ZM1659.99 269.77V307.366L1618.68 307.366V269.77H1659.99ZM1616.35 269.77V307.366H1575.04V269.77H1616.35ZM1572.71 269.77V307.366H1531.4V269.77H1572.71ZM1529.07 269.77V307.366H1487.76V269.77H1529.07ZM1485.42 269.77V307.366H1444.11V269.77H1485.42ZM1441.78 269.77V307.366H1400.47V269.77L1441.78 269.77ZM1398.14 269.77V307.366H1356.83V269.77H1398.14ZM1354.5 269.77V307.366H1313.19V269.77H1354.5ZM1310.86 269.77V307.366L1269.55 307.365V269.77H1310.86ZM1267.22 269.77V307.365H1225.91V269.77H1267.22ZM1223.57 269.77V307.365H1182.26V269.77H1223.57ZM1179.93 269.77V307.365H1138.62V269.77H1179.93ZM1136.29 269.77V307.365H1094.98V269.77H1136.29ZM1092.65 269.77V307.365H1051.34V269.77H1092.65ZM1049.01 269.77V307.365H1007.7V269.77L1049.01 269.77ZM1005.37 269.77V307.365H964.056V269.77H1005.37ZM961.724 269.77V307.365H920.415V269.77H961.724ZM918.083 269.77V307.365L876.773 307.365V269.77H918.083ZM918.083 267.438H876.773V229.842H918.083V267.438ZM918.083 227.509H876.773V189.914H918.083V227.509ZM918.083 187.582H876.773V149.986H918.083V187.582ZM918.083 147.654H876.773V110.058H918.083V147.654ZM918.083 107.726H876.773V70.1297H918.083V107.726ZM918.083 67.7975H876.773V30.2017H918.083V67.7975ZM918.083 27.8696H876.773V-9.72629H918.083V27.8696ZM918.083 -12.0584H876.773L876.773 -49.6543L918.083 -49.6543L918.083 -12.0584ZM918.083 -51.9864L876.773 -51.9864V-89.5823L918.083 -89.5823V-51.9864ZM918.083 -91.9144L876.773 -91.9144V-129.51H918.083V-91.9144ZM920.415 -91.9144V-129.51H961.724V-91.9144H920.415ZM964.056 -91.9144V-129.51L1005.37 -129.51V-91.9144L964.056 -91.9144ZM1007.7 -91.9144V-129.51L1049.01 -129.51V-91.9144H1007.7ZM1051.34 -91.9144V-129.51L1092.65 -129.51V-91.9144L1051.34 -91.9144ZM1094.98 -91.9144V-129.51L1136.29 -129.51V-91.9144H1094.98ZM1138.62 -91.9144V-129.51L1179.93 -129.51V-91.9144H1138.62ZM1182.26 -91.9144V-129.51L1223.57 -129.51V-91.9144H1182.26ZM1225.91 -91.9144V-129.51L1267.22 -129.51V-91.9144H1225.91ZM1269.55 -91.9144V-129.51L1310.86 -129.51V-91.9144L1269.55 -91.9144ZM1313.19 -91.9144V-129.51L1354.5 -129.51V-91.9144H1313.19ZM1356.83 -91.9144V-129.51L1398.14 -129.51V-91.9144L1356.83 -91.9144ZM1400.47 -91.9144V-129.51H1441.78V-91.9144H1400.47ZM1444.11 -91.9144V-129.51H1485.42V-91.9143L1444.11 -91.9144ZM1487.76 -91.9143V-129.51L1529.07 -129.51V-91.9143H1487.76ZM1531.4 -91.9143V-129.51L1572.71 -129.51V-91.9143L1531.4 -91.9143ZM1575.04 -91.9143V-129.51L1616.35 -129.51V-91.9143H1575.04ZM1618.68 -91.9143V-129.51L1659.99 -129.51V-91.9143L1618.68 -91.9143ZM1618.68 -89.5822L1659.99 -89.5822V-51.9864L1618.68 -51.9864V-89.5822ZM1618.68 -49.6542L1659.99 -49.6542V-12.0584H1618.68V-49.6542ZM1618.68 -9.72623H1659.99L1659.99 27.8696H1618.68V-9.72623ZM1618.68 30.2018H1659.99V67.7976H1618.68L1618.68 30.2018ZM1618.68 70.1297H1659.99V107.726H1618.68V70.1297ZM1618.68 110.058H1659.99V147.654H1618.68V110.058ZM1618.68 149.986H1659.99V187.582H1618.68V149.986ZM1618.68 189.914H1659.99V227.51H1618.68V189.914ZM1618.68 229.842H1659.99V267.438H1618.68V229.842ZM1616.35 229.842V267.438H1575.04V229.842L1616.35 229.842ZM1572.71 229.842V267.438H1531.4V229.842H1572.71ZM1529.07 229.842V267.438L1487.76 267.438V229.842H1529.07ZM1485.42 229.842V267.438H1444.11V229.842H1485.42ZM1441.78 229.842V267.438H1400.47V229.842H1441.78ZM1398.14 229.842V267.438H1356.83V229.842H1398.14ZM1354.5 229.842V267.438H1313.19V229.842H1354.5ZM1310.86 229.842V267.438H1269.55V229.842H1310.86ZM1267.22 229.842V267.438H1225.91V229.842L1267.22 229.842ZM1223.57 229.842V267.438H1182.26V229.842H1223.57ZM1179.93 229.842V267.438H1138.62V229.842H1179.93ZM1136.29 229.842V267.438L1094.98 267.438V229.842H1136.29ZM1092.65 229.842V267.438H1051.34V229.842H1092.65ZM1049.01 229.842V267.438H1007.7V229.842H1049.01ZM1005.37 229.842V267.438H964.056V229.842H1005.37ZM961.724 229.842V267.438H920.415V229.842H961.724ZM961.724 227.51L920.415 227.509V189.914H961.724V227.51ZM961.724 187.582H920.415V149.986L961.724 149.986V187.582ZM961.724 147.654L920.415 147.654V110.058H961.724V147.654ZM961.724 107.726H920.415V70.1297H961.724V107.726ZM961.724 67.7975H920.415V30.2017H961.724V67.7975ZM961.724 27.8696H920.415V-9.72629H961.724V27.8696ZM961.724 -12.0584H920.415L920.415 -49.6543H961.724L961.724 -12.0584ZM961.724 -51.9864H920.415V-89.5823H961.724V-51.9864ZM964.056 -51.9864V-89.5823L1005.37 -89.5823V-51.9864L964.056 -51.9864ZM1007.7 -51.9864V-89.5823H1049.01V-51.9864H1007.7ZM1051.34 -51.9864V-89.5823L1092.65 -89.5823V-51.9864L1051.34 -51.9864ZM1094.98 -51.9864V-89.5823H1136.29V-51.9864H1094.98ZM1138.62 -51.9864V-89.5823H1179.93V-51.9864H1138.62ZM1182.26 -51.9864V-89.5823H1223.57V-51.9864H1182.26ZM1225.91 -51.9864V-89.5823H1267.22V-51.9864H1225.91ZM1269.55 -51.9864V-89.5823L1310.86 -89.5823V-51.9864L1269.55 -51.9864ZM1313.19 -51.9864V-89.5823H1354.5V-51.9864H1313.19ZM1356.83 -51.9864V-89.5823L1398.14 -89.5822V-51.9864L1356.83 -51.9864ZM1400.47 -51.9864V-89.5822H1441.78V-51.9864H1400.47ZM1444.11 -51.9864V-89.5822L1485.42 -89.5822V-51.9864L1444.11 -51.9864ZM1487.76 -51.9864V-89.5822H1529.07V-51.9864H1487.76ZM1531.4 -51.9864V-89.5822L1572.71 -89.5822V-51.9864L1531.4 -51.9864ZM1575.04 -51.9864V-89.5822H1616.35V-51.9864H1575.04ZM1575.04 -49.6542H1616.35V-12.0584L1575.04 -12.0584V-49.6542ZM1575.04 -9.72624L1616.35 -9.72623V27.8696L1575.04 27.8696V-9.72624ZM1575.04 30.2018L1616.35 30.2018V67.7976L1575.04 67.7976V30.2018ZM1575.04 70.1297L1616.35 70.1297V107.726H1575.04V70.1297ZM1575.04 110.058H1616.35V147.654H1575.04V110.058ZM1575.04 149.986H1616.35V187.582H1575.04V149.986ZM1575.04 189.914H1616.35V227.51H1575.04V189.914ZM1572.71 189.914V227.51H1531.4V189.914H1572.71ZM1529.07 189.914V227.51H1487.76V189.914L1529.07 189.914ZM1485.42 189.914V227.51H1444.11V189.914H1485.42ZM1441.78 189.914V227.51H1400.47V189.914H1441.78ZM1398.14 189.914V227.51H1356.83V189.914H1398.14ZM1354.5 189.914V227.51L1313.19 227.51V189.914H1354.5ZM1310.86 189.914V227.51H1269.55V189.914H1310.86ZM1267.22 189.914V227.51H1225.91V189.914H1267.22ZM1223.57 189.914V227.51H1182.26V189.914H1223.57ZM1179.93 189.914L1179.93 227.51H1138.62V189.914H1179.93ZM1136.29 189.914V227.51H1094.98V189.914L1136.29 189.914ZM1092.65 189.914V227.51H1051.34V189.914H1092.65ZM1049.01 189.914V227.51H1007.7V189.914H1049.01ZM1005.37 189.914V227.51H964.056V189.914H1005.37ZM1005.37 187.582H964.056V149.986H1005.37V187.582ZM1005.37 147.654H964.056V110.058H1005.37V147.654ZM1005.37 107.726H964.056V70.1297H1005.37V107.726ZM1005.37 67.7975H964.056V30.2017H1005.37V67.7975ZM1005.37 27.8696H964.056V-9.72629H1005.37V27.8696ZM1005.37 -12.0584H964.056L964.056 -49.6543L1005.37 -49.6543L1005.37 -12.0584ZM1007.7 -12.0584L1007.7 -49.6543H1049.01L1049.01 -12.0584L1007.7 -12.0584ZM1051.34 -12.0584V-49.6543L1092.65 -49.6543L1092.65 -12.0584H1051.34ZM1094.98 -12.0584L1094.98 -49.6543H1136.29V-12.0584H1094.98ZM1138.62 -12.0584V-49.6543H1179.93V-12.0584H1138.62ZM1182.26 -12.0584L1182.26 -49.6543H1223.57V-12.0584H1182.26ZM1225.91 -12.0584V-49.6543H1267.22V-12.0584L1225.91 -12.0584ZM1269.55 -12.0584L1269.55 -49.6543L1310.86 -49.6543L1310.86 -12.0584H1269.55ZM1313.19 -12.0584V-49.6543H1354.5V-12.0584H1313.19ZM1356.83 -12.0584L1356.83 -49.6543L1398.14 -49.6542V-12.0584H1356.83ZM1400.47 -12.0584V-49.6542H1441.78V-12.0584L1400.47 -12.0584ZM1444.11 -12.0584V-49.6542L1485.42 -49.6542L1485.42 -12.0584H1444.11ZM1487.76 -12.0584V-49.6542H1529.07V-12.0584H1487.76ZM1531.4 -12.0584L1531.4 -49.6542L1572.71 -49.6542V-12.0584H1531.4ZM1531.4 -9.72624H1572.71V27.8696H1531.4V-9.72624ZM1531.4 30.2018H1572.71L1572.71 67.7976H1531.4V30.2018ZM1531.4 70.1297H1572.71V107.726H1531.4V70.1297ZM1531.4 110.058H1572.71V147.654H1531.4V110.058ZM1531.4 149.986H1572.71V187.582H1531.4V149.986ZM1529.07 149.986V187.582L1487.76 187.582V149.986H1529.07ZM1485.42 149.986V187.582H1444.11L1444.11 149.986H1485.42ZM1441.78 149.986V187.582H1400.47V149.986H1441.78ZM1398.14 149.986V187.582H1356.83V149.986H1398.14ZM1354.5 149.986V187.582H1313.19V149.986L1354.5 149.986ZM1310.86 149.986V187.582H1269.55V149.986H1310.86ZM1267.22 149.986V187.582H1225.91V149.986H1267.22ZM1223.57 149.986V187.582H1182.26V149.986H1223.57ZM1179.93 149.986V187.582H1138.62V149.986H1179.93ZM1136.29 149.986V187.582L1094.98 187.582V149.986H1136.29ZM1092.65 149.986V187.582H1051.34V149.986H1092.65ZM1049.01 149.986V187.582H1007.7V149.986H1049.01ZM1049.01 147.654H1007.7V110.058H1049.01V147.654ZM1049.01 107.726H1007.7V70.1297L1049.01 70.1297V107.726ZM1049.01 67.7976L1007.7 67.7975V30.2017L1049.01 30.2017V67.7976ZM1049.01 27.8696L1007.7 27.8696V-9.72629L1049.01 -9.72627V27.8696ZM1051.34 27.8696V-9.72627H1092.65V27.8696H1051.34ZM1094.98 27.8696V-9.72627H1136.29V27.8696H1094.98ZM1138.62 27.8696V-9.72627H1179.93V27.8696H1138.62ZM1182.26 27.8696V-9.72627H1223.57V27.8696H1182.26ZM1225.91 27.8696V-9.72627L1267.22 -9.72626V27.8696L1225.91 27.8696ZM1269.55 27.8696V-9.72626H1310.86V27.8696H1269.55ZM1313.19 27.8696V-9.72626H1354.5V27.8696H1313.19ZM1356.83 27.8696V-9.72626H1398.14V27.8696H1356.83ZM1400.47 27.8696V-9.72626L1441.78 -9.72624V27.8696L1400.47 27.8696ZM1444.11 27.8696V-9.72624H1485.42V27.8696H1444.11ZM1487.76 27.8696V-9.72624H1529.07V27.8696H1487.76ZM1487.76 30.2018H1529.07V67.7976H1487.76V30.2018ZM1487.76 70.1297H1529.07V107.726L1487.76 107.726V70.1297ZM1487.76 110.058L1529.07 110.058V147.654H1487.76V110.058ZM1485.42 110.058V147.654H1444.11V110.058H1485.42ZM1441.78 110.058V147.654H1400.47V110.058H1441.78ZM1398.14 110.058V147.654H1356.83V110.058H1398.14ZM1354.5 110.058V147.654L1313.19 147.654V110.058H1354.5ZM1310.86 110.058V147.654H1269.55V110.058H1310.86ZM1267.22 110.058V147.654H1225.91V110.058H1267.22ZM1223.57 110.058V147.654H1182.26V110.058H1223.57ZM1179.93 110.058V147.654H1138.62V110.058H1179.93ZM1136.29 110.058V147.654H1094.98V110.058L1136.29 110.058ZM1092.65 110.058V147.654H1051.34V110.058H1092.65ZM1092.65 107.726H1051.34V70.1297H1092.65V107.726ZM1092.65 67.7976H1051.34V30.2017H1092.65V67.7976ZM1094.98 67.7976V30.2017H1136.29V67.7976H1094.98ZM1138.62 67.7976V30.2017H1179.93V67.7976H1138.62ZM1182.26 67.7976V30.2017H1223.57V67.7976H1182.26ZM1225.91 67.7976V30.2017L1267.22 30.2017V67.7976L1225.91 67.7976ZM1269.55 67.7976V30.2017H1310.86V67.7976H1269.55ZM1313.19 67.7976V30.2017H1354.5V67.7976H1313.19ZM1356.83 67.7976V30.2017H1398.14V67.7976H1356.83ZM1400.47 67.7976V30.2017L1441.78 30.2018V67.7976L1400.47 67.7976ZM1444.11 67.7976V30.2018H1485.42V67.7976H1444.11ZM1444.11 70.1297H1485.42V107.726H1444.11V70.1297ZM1441.78 70.1297V107.726H1400.47V70.1297L1441.78 70.1297ZM1398.14 70.1297V107.726H1356.83V70.1297H1398.14ZM1354.5 70.1297V107.726H1313.19V70.1297H1354.5ZM1310.86 70.1297V107.726H1269.55V70.1297H1310.86ZM1267.22 70.1297V107.726H1225.91V70.1297L1267.22 70.1297ZM1223.57 70.1297L1223.57 107.726H1182.26V70.1297H1223.57ZM1179.93 70.1297V107.726H1138.62V70.1297H1179.93ZM1136.29 70.1297V107.726L1094.98 107.726V70.1297H1136.29Z" fill="url(#paint1_radial_2411_1750)" fill-opacity="0.2"/>
</g>
<defs>
<filter id="filter0_d_2411_1750" x="0" y="0" width="1708" height="104" filterUnits="userSpaceOnUse" color-interpolation-filters="sRGB">
<feFlood flood-opacity="0" result="BackgroundImageFix"/>
<feColorMatrix in="SourceAlpha" type="matrix" values="0 0 0 0 0 0 0 0 0 0 0 0 0 0 0 0 0 0 127 0" result="hardAlpha"/>
<feOffset dy="1"/>
<feGaussianBlur stdDeviation="2"/>
<feComposite in2="hardAlpha" operator="out"/>
<feColorMatrix type="matrix" values="0 0 0 0 0 0 0 0 0 0 0 0 0 0 0 0 0 0 0.3 0"/>
<feBlend mode="normal" in2="BackgroundImageFix" result="effect1_dropShadow_2411_1750"/>
<feBlend mode="normal" in="SourceGraphic" in2="effect1_dropShadow_2411_1750" result="shape"/>
</filter>
<linearGradient id="paint0_linear_2411_1750" x1="854" y1="3" x2="854" y2="99" gradientUnits="userSpaceOnUse">
<stop stop-color="#2A4FFA"/>
<stop offset="1" stop-color="#0626BE"/>
</linearGradient>
<radialGradient id="paint1_radial_2411_1750" cx="0" cy="0" r="1" gradientUnits="userSpaceOnUse" gradientTransform="translate(854 89.46) rotate(-179.954) scale(577.5 1870.29)">
<stop stop-color="#A1B0FF"/>
<stop offset="1" stop-color="#8094FF" stop-opacity="0"/>
</radialGradient>
</defs>
</svg>
