<?xml version="1.0" encoding="utf-8"?>
<!-- Generator: Adobe Illustrator 22.0.0, SVG Export Plug-In . SVG Version: 6.00 Build 0)  -->
<svg version="1.1" id="Layer_1" xmlns="http://www.w3.org/2000/svg" xmlns:xlink="http://www.w3.org/1999/xlink" x="0px" y="0px"
	 viewBox="0 0 100 131" style="enable-background:new 0 0 100 131;" xml:space="preserve">
<style type="text/css">
	.st0{fill:#9F7BF2;}
	.st1{fill:#F44E5D;}
	.st2{fill:#945EF4;}
	.st3{fill:#FFFFFF;}
</style>
<g>
	<path class="st0" d="M90.2,131H10c-5.5,0-10-4.5-10-10V10.1C0,4.5,4.5,0,10,0h50.7L100,40.6V121C100.2,126.5,95.7,131,90.2,131z"/>
	<path class="st1" d="M60.7,0v31.2c0,5.1,4.1,9.4,9.4,9.4h30L60.7,0z"/>
	<path class="st2" d="M60.7,0v31.2c0,5.1,4.1,9.4,9.4,9.4h30L60.7,0z"/>
</g>
<g>
	<path class="st3" d="M23.5,68.9v-8.6c0-1.3,1-2.3,2.3-2.3l0,0c1.3,0,2.3,1,2.3,2.3v8.6c0,1.3-1,2.3-2.3,2.3l0,0
		C24.5,71.3,23.5,70.2,23.5,68.9z"/>
	<path class="st3" d="M35.6,81.8V49.3c0-1.3,1-2.3,2.3-2.3l0,0c1.3,0,2.3,1,2.3,2.3v32.4c0,1.3-1,2.3-2.3,2.3l0,0
		C36.7,84,35.6,83,35.6,81.8z"/>
	<path class="st3" d="M59.8,81.8V49.3c0-1.3,1-2.3,2.3-2.3l0,0c1.3,0,2.3,1,2.3,2.3v32.4c0,1.3-1,2.3-2.3,2.3l0,0
		C60.8,84,59.8,83,59.8,81.8z"/>
	<path class="st3" d="M76.5,68.9v-8.6c0-1.3-1-2.3-2.3-2.3l0,0c-1.3,0-2.3,1-2.3,2.3v8.6c0,1.3,1,2.3,2.3,2.3l0,0
		C75.5,71.3,76.5,70.2,76.5,68.9z"/>
	<path class="st3" d="M47.8,76.6V53.4c0-1.3,1-2.3,2.3-2.3l0,0c1.3,0,2.3,1,2.3,2.3v23.2c0,1.3-1,2.3-2.3,2.3l0,0
		C48.8,78.9,47.8,77.9,47.8,76.6z"/>
</g>
</svg>
