<svg width="100" height="131" viewBox="0 0 100 131" fill="none" xmlns="http://www.w3.org/2000/svg">
<path d="M90.0376 131H9.96241C4.51128 131 0 126.476 0 121.01V9.98992C0 4.52374 4.51128 0 9.96241 0H60.7143L100 40.5252V121.01C100 126.476 95.4887 131 90.0376 131Z" fill="#2685FD"/>
<path d="M60.7136 0.000732422V31.2899C60.7136 36.3791 64.849 40.5259 69.9242 40.7144H99.8114L60.7136 0.000732422Z" fill="#4DAEF8"/>
<path d="M60.7136 0.000732422V31.2899C60.7136 36.3791 64.849 40.5259 69.9242 40.7144H99.8114L60.7136 0.000732422Z" fill="#0166DA"/>
<path d="M78.1959 44.8608C78.0079 44.6723 77.444 44.4838 76.8801 44.2953C76.3162 44.2953 75.5643 44.2953 74.6245 44.2953C73.6846 44.2953 72.7448 44.2953 72.1809 44.2953C71.6169 44.2953 71.053 44.4838 70.8651 44.6723C70.4891 44.8608 70.3012 45.0493 70.1132 45.4262C69.9252 45.6147 69.9252 45.9917 69.9252 46.3687L62.9703 77.2809L55.2636 46.3687C55.2636 45.9917 55.0756 45.6147 54.8876 45.2377C54.6997 44.8608 54.5117 44.6723 54.1357 44.4838C53.7598 44.2953 53.1959 44.2953 52.632 44.1068C52.0681 44.1068 51.1282 44.1068 50.1884 44.1068C49.2485 44.1068 48.4966 44.1068 47.9327 44.1068C47.3688 44.1068 46.8049 44.2953 46.429 44.4838C46.053 44.6723 45.8651 44.8608 45.6771 45.2377C45.4891 45.4262 45.4891 45.8032 45.3012 46.3687L37.9703 77.0924L30.8275 46.1802C30.8275 45.8032 30.6395 45.4262 30.6395 45.2377C30.4515 45.0493 30.2636 44.6723 29.8876 44.6723C29.5117 44.4838 29.1357 44.4838 28.5718 44.4838C28.0079 44.4838 27.0681 44.4838 26.1282 44.4838C25.0004 44.4838 24.2485 44.4838 23.4967 44.4838C22.7448 44.4838 22.3688 44.6723 21.9929 45.0493C21.617 45.4262 21.429 45.8032 21.617 46.1802C21.617 46.5572 21.8049 47.3111 21.9929 48.0651L31.3914 84.4435C31.5794 85.009 31.7673 85.3859 31.9553 85.7629C32.1433 86.1399 32.5192 86.3284 33.0831 86.5169C33.4591 86.7054 34.2109 86.7054 34.9628 86.8938C35.7147 86.8938 36.6545 86.8938 37.9703 86.8938C39.0982 86.8938 40.038 86.8938 40.7899 86.8938C41.5418 86.8938 42.1057 86.7054 42.4816 86.5169C42.8576 86.3284 43.2335 86.1399 43.4215 85.7629C43.6094 85.3859 43.7974 85.009 43.9854 84.4435L50.0004 58.809L56.3914 84.4435C56.5794 85.009 56.5794 85.3859 56.9553 85.7629C57.1433 86.1399 57.5192 86.3284 58.0831 86.5169C58.4591 86.7054 59.2109 86.7054 59.9628 86.8938C60.7147 86.8938 61.6545 86.8938 62.9703 86.8938C64.0981 86.8938 65.038 86.8938 65.6019 86.8938C66.3538 86.8938 66.9177 86.7054 67.4816 86.5169C68.0455 86.3284 68.4215 86.1399 68.6094 85.7629C68.7974 85.3859 68.9854 85.009 69.1733 84.4435L78.7598 48.2536C78.9478 47.4996 79.1357 46.7457 79.1357 46.3687C78.5718 45.6147 78.5718 45.0493 78.1959 44.8608Z" fill="white"/>
</svg>
