<?xml version="1.0" encoding="utf-8"?>
<!-- Generator: Adobe Illustrator 22.0.0, SVG Export Plug-In . SVG Version: 6.00 Build 0)  -->
<svg version="1.1" id="Layer_1" xmlns="http://www.w3.org/2000/svg" xmlns:xlink="http://www.w3.org/1999/xlink" x="0px" y="0px"
	 viewBox="0 0 131 100.7" style="enable-background:new 0 0 131 100.7;" xml:space="preserve">
<style type="text/css">
	.st0{fill:#BAC4CF;}
	.st1{fill:#D0D8E0;}
	.st2{fill:#FFFFFF;}
	.st3{fill:#E01533;}
</style>
<g>
	<g>
		<path class="st0" d="M0.1,82.5C0.1,82.5,0.1,82.5,0.1,82.5C0.1,82.5,0.1,82.5,0.1,82.5z"/>
		<path class="st0" d="M0.3,83.8c0-0.1,0-0.1,0-0.2C0.2,83.7,0.3,83.7,0.3,83.8z"/>
		<path class="st0" d="M12.4,93.6L12.4,93.6c-1.8,0-3.6-0.4-5.3-1.2C8.7,93.2,10.5,93.6,12.4,93.6z"/>
		<path class="st0" d="M102.7,93.4c0,0-0.1,0-0.1,0C102.7,93.4,102.7,93.4,102.7,93.4z"/>
		<path class="st0" d="M0.7,85.2c-0.1-0.2-0.1-0.3-0.2-0.5C0.6,84.9,0.6,85.1,0.7,85.2z"/>
		<path class="st0" d="M105.2,92.6c-0.1,0-0.2,0.1-0.3,0.1C105,92.7,105.1,92.6,105.2,92.6z"/>
		<path class="st0" d="M103.9,93.1C103.9,93.1,103.9,93.1,103.9,93.1C103.9,93.1,103.9,93.1,103.9,93.1z"/>
		<path class="st0" d="M101.5,93.6c-0.2,0-0.5,0-0.7,0C101.1,93.6,101.3,93.6,101.5,93.6z"/>
		<path class="st0" d="M6.3,40.9c0.7-4,3.1-7.2,6.6-9c1.7-0.9,3.6-1.4,5.7-1.4h89.2c1.8,0,3.5,0.4,5,1.1v-6.2
			c0-4.5-2.4-8.3-5.9-10.6c-1.9-1.2-4.2-1.9-6.6-1.9H45.7c-1.2,0-2.3-0.2-3.3-0.7c-0.7-0.3-1.2-0.8-1.8-1.3l-7.8-7.3
			c-1-1-2.1-1.7-3.4-2.3C27.8,0.4,26.1,0,24.3,0H12.4C9.6,0,6.9,1,4.9,2.6C1.9,4.8,0,8.3,0,12.4v68.8c0,0.1,0,0.1,0,0.2
			c0-0.7,0-1.4,0.1-2.1L6.3,40.9z"/>
		<path class="st1" d="M102.6,93.4c-0.4,0.1-0.7,0.1-1.1,0.2C101.9,93.5,102.2,93.5,102.6,93.4z"/>
		<path class="st1" d="M104.9,92.7c-0.3,0.1-0.7,0.3-1,0.4C104.3,93,104.6,92.8,104.9,92.7z"/>
		<path class="st1" d="M103.9,93.1c-0.4,0.1-0.7,0.2-1.1,0.3C103.1,93.3,103.5,93.2,103.9,93.1z"/>
		<path class="st1" d="M106,92.3c-0.2,0.1-0.5,0.2-0.7,0.3C105.5,92.5,105.7,92.4,106,92.3z"/>
		<path class="st1" d="M0.7,85.4c0-0.1,0-0.1-0.1-0.2C0.7,85.3,0.7,85.4,0.7,85.4z"/>
		<path class="st1" d="M3.2,89.5c0.2,0.2,0.4,0.4,0.6,0.6c1,0.9,2.1,1.7,3.3,2.3c-1.2-0.6-2.4-1.3-3.3-2.3C3.6,90,3.4,89.7,3.2,89.5
			z"/>
		<path class="st1" d="M0.1,82.5C0,82.1,0,81.7,0,81.3C0,81.7,0,82.1,0.1,82.5z"/>
		<path class="st1" d="M100.3,93.6c0.2,0,0.4,0,0.6,0C100.6,93.6,100.4,93.6,100.3,93.6L100.3,93.6z"/>
		<path class="st1" d="M0.2,83.6c-0.1-0.4-0.1-0.7-0.2-1.1C0.1,82.9,0.2,83.3,0.2,83.6z"/>
		<path class="st1" d="M0.5,84.7c-0.1-0.3-0.2-0.6-0.2-0.9C0.3,84.1,0.4,84.4,0.5,84.7z"/>
		<path class="st1" d="M115.8,33.5c-0.9-0.8-2-1.5-3.1-2c-1.5-0.7-3.2-1.1-5-1.1H18.6c-2.1,0-4,0.5-5.7,1.4c-3.5,1.8-5.9,5-6.6,9
			L0.2,79.3C0,80,0,80.6,0,81.3c0,0.4,0,0.8,0.1,1.1c0,0,0,0,0,0.1c0,0.4,0.1,0.8,0.2,1.1c0,0.1,0,0.1,0,0.2
			c0.1,0.3,0.1,0.6,0.2,0.9c0,0.2,0.1,0.3,0.2,0.5c0,0.1,0,0.1,0.1,0.2c0.5,1.5,1.4,2.9,2.5,4.1c0.2,0.2,0.4,0.4,0.6,0.6
			c1,0.9,2.1,1.7,3.3,2.3c1.6,0.8,3.4,1.2,5.3,1.2h87.8c0.2,0,0.4,0,0.6,0c0.2,0,0.5,0,0.7,0c0.4,0,0.7-0.1,1.1-0.2c0,0,0.1,0,0.1,0
			c0.4-0.1,0.7-0.2,1.1-0.3c0,0,0.1,0,0.1,0c0.3-0.1,0.7-0.2,1-0.4c0.1,0,0.2-0.1,0.3-0.1c0.2-0.1,0.5-0.2,0.7-0.3
			c1.6-0.8,3-1.9,4.1-3.3c1.2-1.5,2-3.3,2.4-5.1c0-0.1,0-0.1,0.1-0.2l7.3-38.3C120.8,40.7,119,36.3,115.8,33.5z"/>
	</g>
	<g>
		<path class="st2" d="M106,50.7c-13.8,0-25,11.2-25,25s11.2,25,25,25s25-11.2,25-25S119.8,50.7,106,50.7z"/>
		<path class="st3" d="M106,50.7c-13.8,0-25,11.2-25,25s11.2,25,25,25s25-11.2,25-25S119.8,50.7,106,50.7z M102,58.6
			c3.5-0.7,6.8-0.5,9.7,0.6c0.8,0.2,1.3,0.9,1.6,1.7c0.2,0.8,0.1,1.7-0.6,2.4L93.7,82.6c-0.6,0.7-1.5,0.8-2.2,0.7
			c-0.8-0.2-1.6-0.7-1.9-1.6c-1.2-3-1.5-6.4-0.7-9.9c0.8-4,3.1-7.6,6.4-10.1C97.2,60.3,99.5,59.2,102,58.6z M109.9,92.8
			c-3.6,0.7-7,0.4-10.1-0.7c-0.9-0.3-1.5-1.2-1.6-2c-0.1-0.7,0.1-1.5,0.7-2.1l19.3-19.6c0.7-0.7,1.7-0.9,2.6-0.6
			c0.7,0.2,1.2,0.7,1.5,1.4c1.2,3.1,1.7,6.5,0.9,10.2c-0.6,2.9-1.9,5.5-3.8,7.8C116.9,89.9,113.6,92,109.9,92.8z"/>
	</g>
</g>
</svg>
