<?xml version="1.0" encoding="utf-8"?>
<!-- Generator: Adobe Illustrator 22.0.0, SVG Export Plug-In . SVG Version: 6.00 Build 0)  -->
<svg version="1.1" id="Layer_1" xmlns="http://www.w3.org/2000/svg" xmlns:xlink="http://www.w3.org/1999/xlink" x="0px" y="0px"
	 viewBox="0 0 100 131" style="enable-background:new 0 0 100 131;" xml:space="preserve">
<style type="text/css">
	.st0{fill:#54D992;}
	.st1{fill:#F44E5D;}
	.st2{fill:#1ABE75;}
	.st3{fill:#FFFFFF;}
</style>
<g>
	<g>
		<path class="st0" d="M90.2,131H10c-5.5,0-10-4.5-10-10V10.1C0,4.5,4.5,0,10,0h50.7L100,40.6V121C100.2,126.5,95.7,131,90.2,131z"
			/>
		<path class="st1" d="M60.7,0v31.2c0,5.1,4.1,9.4,9.4,9.4h30L60.7,0z"/>
		<path class="st2" d="M60.7,0v31.2c0,5.1,4.1,9.4,9.4,9.4h30L60.7,0z"/>
	</g>
	<g>
		<path class="st3" d="M50.1,86.6c-7.6,0-15.1,0-22.7,0c-4.3,0-6.9-2.6-6.9-6.9c0-9.5,0-18.9,0-28.4c0-4.3,2.6-6.9,6.9-6.9
			c15.2,0,30.4,0,45.6,0c4.1,0,6.7,2.5,6.7,6.7c0.1,9.6,0.1,19.2,0,28.8c0,4.2-2.6,6.8-6.8,6.8C65.2,86.7,57.6,86.6,50.1,86.6z"/>
		<path class="st0" d="M50,82.4c-7.4,0-14.8,0-22.2,0c-1.2,0-2.4,0.1-3-1.4c-0.6-1.4,0.1-2.3,1.1-3.3c2.1-2,4.2-4,6.2-6.2
			c0.8-0.9,1.3-0.8,2.1,0.1c1.6,1.8,3.4,3.5,5.2,5.2c1.8,1.8,2.7,1.8,4.5,0.1c5.2-5.2,10.5-10.5,15.8-15.8c0.8-0.8,1.3-0.8,2,0
			c4.1,4.2,8.2,8.3,12.4,12.4c1,1,1.4,2,1.5,3.4c0.1,6-0.2,5.6-5.6,5.6C63.2,82.4,56.6,82.4,50,82.4z"/>
		<path class="st0" d="M39.5,66c-3.8,0-6.9-3.2-6.9-6.9c0.1-3.7,3.2-6.8,6.9-6.7s6.8,3.1,6.7,6.9C46.2,63.1,43.2,66.1,39.5,66z"/>
	</g>
</g>
</svg>
