<?xml version="1.0" encoding="utf-8"?>
<!-- Generator: Adobe Illustrator 22.0.0, SVG Export Plug-In . SVG Version: 6.00 Build 0)  -->
<svg version="1.1" id="Layer_1" xmlns="http://www.w3.org/2000/svg" xmlns:xlink="http://www.w3.org/1999/xlink" x="0px" y="0px"
	 viewBox="0 0 100 131" style="enable-background:new 0 0 100 131;" xml:space="preserve">
<style type="text/css">
	.st0{fill:#D0D8E0;}
	.st1{fill:#F44E5D;}
	.st2{fill:#BAC4CF;}
	.st3{fill:#FFFFFF;}
</style>
<g>
	<g>
		<path class="st0" d="M90.2,131H10c-5.5,0-10-4.5-10-10V10.1C0,4.5,4.5,0,10,0h50.7L100,40.6V121C100.2,126.5,95.7,131,90.2,131z"
			/>
		<path class="st1" d="M60.7,0v31.2c0,5.1,4.1,9.4,9.4,9.4h30L60.7,0z"/>
		<path class="st2" d="M60.7,0v31.2c0,5.1,4.1,9.4,9.4,9.4h30L60.7,0z"/>
	</g>
	<path class="st3" d="M50,72.3c-3.8,0-7-3.1-6.9-6.9c0.2-4,2.9-6.6,6.8-6.8c3.7-0.1,6.8,3.2,6.8,6.8C56.8,69.2,53.8,72.3,50,72.3z
		 M27.2,58.7c-3.7-0.1-6.7,3.1-6.7,6.8c0,3.9,3,6.9,6.8,6.9c3.8,0,6.7-2.9,6.7-6.8C34.1,61.9,31.3,58.7,27.2,58.7z M72.7,72.3
		c3.9,0,6.8-2.9,6.8-6.8c0-3.8-3-6.9-6.7-6.9c-4.2,0-7,3.6-6.8,6.8C66,69.4,68.9,72.3,72.7,72.3z"/>
</g>
</svg>
