<?xml version="1.0" encoding="utf-8"?>
<!-- Generator: Adobe Illustrator 22.0.0, SVG Export Plug-In . SVG Version: 6.00 Build 0)  -->
<svg version="1.1" id="Layer_1" xmlns="http://www.w3.org/2000/svg" xmlns:xlink="http://www.w3.org/1999/xlink" x="0px" y="0px"
	 viewBox="0 0 100 131" style="enable-background:new 0 0 100 131;" xml:space="preserve">
<style type="text/css">
	.st0{fill:#F44E5D;}
	.st1{fill:#E01533;}
	.st2{fill:#FFFFFF;}
</style>
<g>
	<g>
		<path class="st0" d="M90.2,131H10c-5.5,0-10-4.5-10-10V10.1C0,4.5,4.5,0,10,0h50.7L100,40.6V121C100.2,126.5,95.7,131,90.2,131z"
			/>
		<path class="st0" d="M60.7,0v31.2c0,5.1,4.1,9.4,9.4,9.4h30L60.7,0z"/>
		<path class="st1" d="M60.7,0v31.2c0,5.1,4.1,9.4,9.4,9.4h30L60.7,0z"/>
	</g>
	<g>
		<g id="uv9Ag8.tif_1_">
			<g>
				<path class="st2" d="M50.6,46.4c0,3.3-0.9,6.5-2.1,9.5c-0.2,0.6-0.5,1.2-0.7,1.9c-0.1,0.2-0.1,0.4,0,0.5
					c2.3,4.4,5.3,8.2,9.3,11.1c0.3,0.2,0.5,0.3,0.9,0.2c3.1-0.7,6.2-1.2,9.4-1c2.6,0.2,5.2,0.8,7.3,2.3c0.7,0.5,1.3,1.1,1.8,1.8
					c1,1.4,0.6,3.1-0.9,4c-1.4,0.9-3,1.1-4.7,1.1c-3.9,0.1-7.6-1-11-2.7c-1-0.5-1.9-1-2.8-1.5c-0.2-0.1-0.4-0.2-0.6-0.1
					C51.4,75,46.2,76.5,41,77.9c-1.1,0.3-1.7,0.9-2.2,1.9c-1.3,2.9-2.9,5.6-5,8c-1.1,1.3-2.3,2.5-3.7,3.3c-1.1,0.7-2.3,1.1-3.6,0.9
					c-2.8-0.4-4.3-3.1-3.4-5.8c0.6-1.8,1.9-3.2,3.3-4.5c2.9-2.6,6.2-4.5,9.7-5.9c0.4-0.2,0.7-0.4,0.9-0.9c1.7-4.4,3.5-8.8,5.3-13.3
					c0.4-1,0.8-2,1.3-3.1c0.1-0.3,0.1-0.6,0-0.9c-1.1-2.4-2-4.8-2.3-7.4c-0.4-3-0.2-5.9,1.3-8.6c0.5-0.8,1-1.5,1.7-2.1
					c1.4-1.2,3.2-1,4.4,0.4c1,1.1,1.5,2.6,1.7,4.1C50.5,44.9,50.5,45.6,50.6,46.4z M45.9,62.4c-1.5,3.8-3,7.7-4.5,11.6
					c3.9-1,7.8-2,11.6-3.1c-1.3-1.3-2.6-2.6-3.8-4C48,65.5,47,63.9,45.9,62.4z M34.2,80.8c-0.1,0-0.2,0-0.2,0.1
					c-2.2,1.2-4.2,2.6-5.9,4.4c-0.6,0.6-1.1,1.4-1.5,2.2c-0.2,0.3-0.2,0.6,0,0.9c0.3,0.3,0.7,0.3,1,0.1c0.5-0.3,1.1-0.6,1.6-1
					C31.3,85.6,32.8,83.3,34.2,80.8z M45.7,53.4c0.2-0.6,0.3-1.1,0.5-1.6c0.6-2.2,1-4.5,0.7-6.9c-0.1-0.8-0.3-1.5-0.7-2.2
					C44.4,44.4,44,50.3,45.7,53.4z M72.9,74.1c-3.2-2.3-6.8-2.1-10.4-1.6C65.8,73.9,69.2,74.8,72.9,74.1z"/>
			</g>
		</g>
	</g>
</g>
</svg>
