<?xml version="1.0" encoding="utf-8"?>
<!-- Generator: Adobe Illustrator 22.0.0, SVG Export Plug-In . SVG Version: 6.00 Build 0)  -->
<svg version="1.1" id="Layer_1" xmlns="http://www.w3.org/2000/svg" xmlns:xlink="http://www.w3.org/1999/xlink" x="0px" y="0px"
	 viewBox="0 0 100 131" style="enable-background:new 0 0 100 131;" xml:space="preserve">
<style type="text/css">
	.st0{fill:#FC7541;}
	.st1{fill:#F44E5D;}
	.st2{fill:#EB602B;}
	.st3{fill:#FFFFFF;}
</style>
<g>
	<g>
		<path class="st0" d="M90.2,131H10c-5.5,0-10-4.5-10-10V10.1C0,4.5,4.5,0,10,0h50.7L100,40.6V121C100.2,126.5,95.7,131,90.2,131z"
			/>
		<path class="st1" d="M60.7,0v31.2c0,5.1,4.1,9.4,9.4,9.4h30L60.7,0z"/>
		<path class="st2" d="M60.7,0v31.2c0,5.1,4.1,9.4,9.4,9.4h30L60.7,0z"/>
	</g>
	<g>
		<path class="st3" d="M24.1,63.2c0-13,10.5-23.5,23.5-23.5v23.5L24.1,63.2z"/>
		<path class="st3" d="M28.8,67.8c0,13,10.5,23.5,23.5,23.5s23.5-10.5,23.5-23.5S65.3,44.3,52.3,44.3v23.5H28.8z"/>
	</g>
</g>
</svg>
