<svg width="100" height="131" viewBox="0 0 100 131" fill="none" xmlns="http://www.w3.org/2000/svg">
<path d="M89.8113 131H10C4.5283 131 0 126.457 0 120.967V10.0332C0 4.54335 4.5283 0 10 0H60.7547L100 40.5115V120.967C99.8113 126.457 95.4717 131 89.8113 131Z" fill="#01AC46"/>
<path d="M18.4893 43.3521V87.6497H81.5081V43.3521H18.4893ZM75.8477 49.0312V62.6613H52.2628V49.0312H75.8477ZM46.6025 49.0312V62.6613H24.1496V49.0312H46.6025ZM24.1496 81.9705V68.3405H46.6025V81.9705H24.1496ZM52.2628 81.9705V68.3405H75.8477V81.9705H52.2628Z" fill="white"/>
<path d="M60.7539 0.000244141V31.2358C60.7539 36.347 64.9048 40.5118 69.9992 40.5118H99.9992L60.7539 0.000244141Z" fill="#4D9D76"/>
<path d="M60.7539 0.000244141V31.2358C60.7539 36.347 64.9048 40.5118 69.9992 40.5118H99.9992L60.7539 0.000244141Z" fill="#00852C"/>
</svg>
