<?xml version="1.0" encoding="utf-8"?>
<!-- Generator: Adobe Illustrator 22.0.0, SVG Export Plug-In . SVG Version: 6.00 Build 0)  -->
<svg version="1.1" id="Layer_1" xmlns="http://www.w3.org/2000/svg" xmlns:xlink="http://www.w3.org/1999/xlink" x="0px" y="0px"
	 viewBox="0 0 100 131" style="enable-background:new 0 0 100 131;" xml:space="preserve">
<style type="text/css">
	.st0{fill:#FFB901;}
	.st1{fill:#F44E5D;}
	.st2{fill:#FF9503;}
	.st3{fill:#FFFFFF;}
</style>
<g>
	<g>
		<path class="st0" d="M90.2,131H10c-5.5,0-10-4.5-10-10V10.1C0,4.5,4.5,0,10,0h50.7L100,40.6V121C100.2,126.5,95.7,131,90.2,131z"
			/>
		<path class="st1" d="M60.7,0v31.2c0,5.1,4.1,9.4,9.4,9.4h30L60.7,0z"/>
		<path class="st2" d="M60.7,0v31.2c0,5.1,4.1,9.4,9.4,9.4h30L60.7,0z"/>
	</g>
	<path class="st3" d="M52.1,74v-4.2h4.2v-4.3h-4.2v-4.3h4.2V57h-4.2v-4.3h4.2v-4.2h-4.2v-4.3h4.2v-4.3h-4.2v-4.2h-4.3v4.2h-4.3v4.3
		h4.3v4.3h-4.3v4.2h4.3V57h-4.3v4.2h4.3v4.3h-4.3v4.3h4.3V74h-8.5v10.7c0,5.9,4.8,10.7,10.7,10.7s10.7-4.8,10.7-10.7V74H52.1z
		 M56.4,84.7c0,3.5-2.8,6.4-6.4,6.4s-6.4-2.9-6.4-6.4v-6.4h12.8L56.4,84.7L56.4,84.7z M47.9,86.8h4.3c1.2,0,2.1-0.9,2.1-2.1
		c0-1.2-0.9-2.1-2.1-2.1h-4.3c-1.2,0-2.1,0.9-2.1,2.1C45.7,85.8,46.7,86.8,47.9,86.8L47.9,86.8z"/>
</g>
</svg>
