<svg xmlns="http://www.w3.org/2000/svg" viewBox="-1107 844.2 51.6 51.6"><style type="text/css">  
	.st0{fill:#EEEEEE;}
	.st1{fill:#0A9848;}
</style><circle class="st0" cx="-1081.2" cy="870" r="17.9"/><path class="st1" d="M-1065.5 861.1l-2.8-2.8c-0.4-0.4-1-0.4-1.4 0l-14.6 15.3 -8.3-8.3c-0.4-0.4-1-0.4-1.4 0l-2.9 2.9c-0.4 0.4-0.4 1 0 1.4l11.8 12.1c0.2 0.2 0.5 0.3 0.8 0.3s0.6 0 0.9-0.3l17.9-19.2C-1065.1 862.2-1065.1 861.5-1065.5 861.1z"/><path class="st1" d="M-1081.2 895.8c-14.2 0-25.8-11.5-25.8-25.8s11.6-25.8 25.8-25.8c14.2 0 25.8 11.6 25.8 25.8S-1066.9 895.8-1081.2 895.8zM-1081.2 849.2c-11.5 0-20.8 9.3-20.8 20.8s9.3 20.8 20.8 20.8 20.8-9.3 20.8-20.8S-1069.7 849.2-1081.2 849.2z"/></svg>