<svg xmlns="http://www.w3.org/2000/svg" viewBox="-1107 844.2 51.6 51.6"><style type="text/css">  
	.st0{fill:#EEEEEE;}
	.st1{fill:#CCCCCC;}
	.st2{fill:#333333;}
</style><circle class="st0" cx="-1081.2" cy="870" r="17.9"/><path class="st1" d="M-1081.2 895.8c-14.2 0-25.8-11.5-25.8-25.8s11.6-25.8 25.8-25.8c14.2 0 25.8 11.6 25.8 25.8S-1066.9 895.8-1081.2 895.8zM-1081.2 849.2c-11.5 0-20.8 9.3-20.8 20.8s9.3 20.8 20.8 20.8 20.8-9.3 20.8-20.8S-1069.7 849.2-1081.2 849.2z"/><polygon class="st2" points="-1069.8 867.9 -1079.1 867.9 -1079.1 858.6 -1083.3 858.6 -1083.3 867.9 -1092.6 867.9 -1092.6 872.1 -1083.3 872.1 -1083.3 881.4 -1079.1 881.4 -1079.1 872.1 -1069.8 872.1 "/></svg>