<svg xmlns="http://www.w3.org/2000/svg" viewBox="-1107 844.2 51.6 51.6"><style type="text/css">  
	.st0{fill:#EEEEEE;}
	.st1{fill:#CCCCCC;}
</style><circle class="st0" cx="-1081.2" cy="870" r="17.9"/><path class="st1" d="M-1081.2 895.8c-14.2 0-25.8-11.5-25.8-25.8s11.6-25.8 25.8-25.8c14.2 0 25.8 11.6 25.8 25.8S-1066.9 895.8-1081.2 895.8zM-1081.2 849.2c-11.5 0-20.8 9.3-20.8 20.8s9.3 20.8 20.8 20.8 20.8-9.3 20.8-20.8S-1069.7 849.2-1081.2 849.2z"/><path class="st1" d="M-1076.4 871.8l4.8-4.6 -6.6-1 -3-6 -3 6 -6.6 1 4.8 4.6 -1.1 6.6 5.9-3.1 5.9 3.1L-1076.4 871.8zM-1068.2 866.2c0 0.2-0.1 0.5-0.4 0.8l-5.7 5.5 1.3 7.8c0 0.1 0 0.2 0 0.3 0 0.5-0.2 0.8-0.6 0.8 -0.2 0-0.4-0.1-0.6-0.2l-7-3.7 -7 3.7c-0.2 0.1-0.4 0.2-0.6 0.2 -0.2 0-0.4-0.1-0.5-0.2s-0.2-0.3-0.2-0.6c0-0.1 0-0.2 0-0.3l1.3-7.8 -5.7-5.5c-0.3-0.3-0.4-0.5-0.4-0.8 0-0.4 0.3-0.6 0.9-0.7l7.8-1.1 3.5-7.1c0.2-0.4 0.5-0.6 0.8-0.6 0.3 0 0.6 0.2 0.8 0.6l3.5 7.1 7.8 1.1C-1068.5 865.6-1068.2 865.8-1068.2 866.2L-1068.2 866.2z"/></svg>