<svg width="24" height="23" viewBox="0 0 24 23" fill="none" xmlns="http://www.w3.org/2000/svg">
	<path d="M22.2 8.05333L15.7466 7.49333L13.2266 1.56C12.7733 0.48 11.2266 0.48 10.7733 1.56L8.25331 7.50667L1.81331 8.05333C0.639975 8.14667 0.159975 9.61333 1.05331 10.3867L5.94664 14.6267L4.47998 20.92C4.21331 22.0667 5.45331 22.9733 6.46664 22.36L12 19.0267L17.5333 22.3733C18.5466 22.9867 19.7866 22.08 19.52 20.9333L18.0533 14.6267L22.9466 10.3867C23.84 9.61333 23.3733 8.14667 22.2 8.05333ZM12 16.5333L6.98664 19.56L8.31998 13.8533L3.89331 10.0133L9.73331 9.50667L12 4.13333L14.28 9.52L20.12 10.0267L15.6933 13.8667L17.0266 19.5733L12 16.5333Z" fill="#E27730"/>
</svg>
