<svg version="1.1" id="Laag_1" xmlns="http://www.w3.org/2000/svg" x="0" y="0" viewBox="0 0 512 512" xml:space="preserve"><style>.st0{fill:#c1c1c1}.st3{opacity:.05}.st4{fill:#5c5c5e}.st5{fill:#913ca0}.st6{fill:#848484}.st8{fill:#522058}.st9{fill:#f7d3c9}.st11{fill:#f0c9c0}.st12{fill:#f8d8d0}</style><path class="st0" d="M378.18 81.52c-3.35 0-8.23-1.03-6.84-6.55 1.05-4.2 6.07-4.16 8.91-2.35-4.45-4.06 3.1-15.75 12.39-6.32 0-5.29 7.59-16.49 16.13-11.23 6.97 4.29 4.52 11.1 1.42 14.46 4-2.19 10.26-2.13 12.26 2.97s-1.03 9.04-5.81 9.04c-4.77-.02-38.46-.02-38.46-.02z"/><path d="M428.4 275.45c-16.43-10.76-15.35-29.1-.12-46.51 12.89 12.67 18.37 35.2.12 46.51z" fill="#e0e0e0"/><path class="st0" d="M432.21 277.46c-3.86-27.98 17.06-44.14 50.33-44.09-1.56 25.96-20.82 53.19-50.33 44.09z"/><path d="M432.21 278.21c-.23 0-.45-.1-.6-.29a.75.75 0 0 1 .13-1.06c4.23-3.3 10.87-9.45 17.91-15.97 8.54-7.92 18.22-16.89 26-23.01.33-.26.8-.2 1.06.13s.2.8-.13 1.06c-7.73 6.08-17.39 15.03-25.91 22.93-7.06 6.54-13.72 12.72-18 16.05-.13.11-.29.16-.46.16z" fill="#7f7f7f"/><path class="st3" d="M222.49 437.83c78.44-85.75 263.12-32.07 255.25-125.18-6.34-74.95-221.89-61.8-319.04-54.52-17.58 1.32 3.56 10 0 10.5 74.29-1.85 252.95 9.44 243.06 42.79S23.9 289.95 49.22 433.83c12.3 25.25 43.32 36.51 76.53 37.15 37.28.73 77.32-11.92 96.74-33.15z"/><path class="st3" d="M158.7 268.63c-83.21-16.67-77.2-77.37 62.28-51.26 68.74 12.86 104.11 7.33 104.11 7.33-36.51 5.92-55.86 4.15-98.9-1.31-54.68-6.95-138.69-12.2-67.49 45.24z"/><path class="st3" d="M219.31 427.43c0-5.75-34.64-10.4-77.38-10.4-42.73 0-77.38 4.66-77.38 10.4 0 5.75 34.64 10.4 77.38 10.4 42.74 0 77.38-4.65 77.38-10.4z"/><path class="st0" d="M128.2 355.36c-32.87-12.28-58.13 8.69-67.08 49.03 31.88 5.15 70.11-10.8 67.08-49.03z"/><path class="st4" d="M69.05 398.76c-.22 0-.44-.1-.59-.28-.26-.32-.22-.8.11-1.07 9.53-7.77 23.03-17.07 34.94-25.27 9.8-6.75 19.06-13.13 24.21-17.37.32-.27.8-.22 1.07.1s.22.8-.1 1.07c-5.2 4.28-14.48 10.67-24.31 17.44-11.89 8.19-25.36 17.47-34.84 25.2-.15.12-.32.18-.49.18z"/><path class="st5" d="M59.16 215.22c1.96-3.69 2.73-8.04.36-9.09-2.25-1.01-4.83 2.23-6.5 5.91-1.52-3.29-3.87-5.85-5.95-4.93-4.07 1.82 1.46 13.68 4.76 15.12 4.02 2.59 16.01-1.75 14.48-5.95-.71-1.99-3.86-1.97-7.15-1.06z"/><path class="st4" d="M58.37 258.92c-.27 0-.52-.14-.66-.39-8.38-15.12-8.72-32.12-6.54-36.63.18-.38.64-.53 1.01-.35.38.18.53.63.35 1.01-2.14 4.43-1.3 21.17 6.5 35.23a.762.762 0 0 1-.66 1.13z"/><path class="st4" d="M56.27 220.69c-.58-.42-1.48-.35-2.29-.21.39-1.06.29-2.83-.92-3.09-.86-.19-1.28 1.25-1.45 2.55-.24-.32-.51-.69-.92-1.02-2.92-2.33-.99 3.25.94 3.84.41.13 1.25.24 2.14.28 1.85.08 3.63-1.54 2.5-2.35z"/><path class="st6" d="M121.65 345.27c6.72-7.35 17.24-30.94 1.17-45.67-7.28-6.66-9.58-7.99-13.53-7.61-2.58.25-4.62 1.76-6.39.29-3.24-2.7 6.86-14.83-3.97-25.75-10.82-10.93-20.36-5.06-23.26-8.04-2.89-2.99.18-8.74-6.48-11.83s-11.96 7.75-21.07 4.96c-9.48-2.9-26.26-4.24-29.01 4.76-2.76 9 4.67 10.88 6.88 16.94 2.21 6.06-3.68 23.67 10.33 27.97 13.92 4.26 19.7 3.81 20.82 21.99 1.12 18.19 16.98 27.25 25.79 25.88 8.82-1.37 6.43 3.22 1.81 5.67-4.62 2.45 2.34 6.49 8.83 5.86 6.49-.64 19.64-6.19 28.08-15.42z"/><path class="st4" d="M124.16 350.34c-.28 0-.55-.16-.68-.42-21.73-44.31-60.28-73.64-89.1-86.31a.76.76 0 0 1 .61-1.39c29.07 12.78 67.94 42.35 89.85 87.02.18.38.03.83-.35 1.01a.55.55 0 0 1-.33.09z"/><path class="st4" d="M58.83 276.97h-.02a.751.751 0 0 1-.74-.77c.05-2.42 1.56-12.28 4.68-17.46.22-.36.68-.47 1.04-.26.36.22.47.68.26 1.04-2.93 4.86-4.41 14.46-4.46 16.71-.01.41-.35.74-.76.74z"/><path class="st4" d="M39.51 279.39c-.23 0-.46-.1-.61-.3a.762.762 0 0 1 .15-1.06c2.12-1.59 9.84-5.67 13.45-6.46.41-.09.81.17.9.58.09.41-.17.81-.58.9-3.37.74-10.88 4.7-12.86 6.19-.13.1-.29.15-.45.15z"/><path class="st4" d="M83.04 295.92c-.4 0-.73-.31-.75-.71-.15-2.55-.61-10.32 5.35-20.01.22-.36.69-.47 1.04-.25.36.22.47.68.25 1.04-5.11 8.32-5.37 14.9-5.12 19.12.02.42-.29.78-.71.8-.03.01-.05.01-.06.01z"/><path class="st4" d="M56.06 294.57c-.27 0-.53-.15-.67-.4-.2-.37-.06-.83.31-1.02 4.29-2.28 14.65-6.58 18.2-6.58h.08c.42.01.75.35.74.77-.01.42-.34.75-.77.74h-.06c-3.19 0-13.21 4.13-17.48 6.4a.73.73 0 0 1-.35.09z"/><path class="st4" d="M86.18 318.76c-.27 0-.53-.15-.67-.4-.2-.37-.06-.83.31-1.02.59-.31 1.22-.66 1.88-1.03 3.45-1.92 7.74-4.31 11.97-4.57.43-.02.78.29.8.71.03.42-.29.78-.71.8-3.89.24-8.01 2.53-11.33 4.38-.67.37-1.31.73-1.9 1.04a.76.76 0 0 1-.35.09z"/><path class="st4" d="M108.1 323.88a.75.75 0 0 1-.74-.61c-.9-4.62.62-13.51 3.38-19.81a.76.76 0 0 1 1.39.61c-2.65 6.06-4.13 14.55-3.28 18.91a.76.76 0 0 1-.6.89c-.05 0-.1.01-.15.01z"/><path class="st6" d="M423.54 419.9c-.2 0-.39-.08-.54-.23-.29-.3-.29-.78.01-1.07 9.6-9.36 32.09-31.27 69.72-38.71.41-.08.81.19.89.6a.76.76 0 0 1-.6.89c-37.19 7.35-59.45 29.04-68.96 38.31-.14.14-.33.21-.52.21z"/><path class="st6" d="M482.63 394.96c-.23 0-.46-.11-.61-.31-3.69-5-8.22-7.17-9.51-7.53a.747.747 0 0 1-.52-.93c.11-.4.53-.64.93-.52 1.53.43 6.35 2.72 10.32 8.09.25.34.18.81-.16 1.06-.13.09-.29.14-.45.14z"/><path class="st6" d="M476.79 385.69c-.13 0-.26-.03-.37-.1a.755.755 0 0 1-.28-1.03c1.96-3.43 4.32-8.38 4.88-11.12a.754.754 0 1 1 1.48.3c-.69 3.33-3.5 8.84-5.05 11.56-.14.25-.39.39-.66.39z"/><path class="st6" d="M459.75 392.92a.755.755 0 0 1-.66-1.13c1.51-2.63 3.89-8.91 3.75-10.96a.76.76 0 0 1 .7-.81c.41-.02.78.29.81.7.18 2.56-2.49 9.29-3.95 11.82-.14.24-.39.38-.65.38z"/><path class="st6" d="M466.31 401.74c-.22 0-.43-.09-.58-.27-4.07-4.9-8.69-5.03-11.45-5.1-.29-.01-.55-.01-.79-.03a.758.758 0 0 1-.72-.79c.02-.42.35-.75.79-.72.23.01.48.02.76.03 2.82.07 8.07.21 12.58 5.64.27.32.22.8-.1 1.07-.15.11-.32.17-.49.17z"/><path class="st6" d="M443.6 402.79a.73.73 0 0 1-.35-.09.748.748 0 0 1-.31-1.02l.4-.74c1.61-3 3.82-7.11 1.95-10.03a.77.77 0 0 1 .23-1.05.77.77 0 0 1 1.05.23c2.34 3.67-.11 8.23-1.9 11.56l-.39.73a.78.78 0 0 1-.68.41z"/><path class="st6" d="M451.24 409.31c-.17 0-.34-.06-.48-.17-4.62-3.78-8.23-3.43-11.41-3.13-.41.05-.78-.27-.82-.68-.04-.42.27-.78.68-.82 3.3-.31 7.41-.7 12.51 3.47.32.26.37.74.11 1.07-.15.16-.37.26-.59.26z"/><path class="st6" d="M433.61 410.62a.62.62 0 0 1-.23-.04.752.752 0 0 1-.49-.95c1.37-4.3 1.44-8.52.17-10.51a.77.77 0 0 1 .23-1.05.77.77 0 0 1 1.05.23c1.85 2.9 1.21 7.99-.01 11.79-.1.32-.4.53-.72.53z"/><path class="st6" d="M438.76 420.35a.75.75 0 0 1-.52-.21c-3.92-3.72-10.18-2.66-12.69-2.03a.758.758 0 0 1-.37-1.47c2.75-.69 9.63-1.85 14.1 2.4a.758.758 0 0 1-.52 1.31z"/><path class="st5" d="M498.54 382.24a3.622 3.622 0 0 0-.22-5.12 3.622 3.622 0 0 0-5.12.22 3.622 3.622 0 0 0 .22 5.12 3.63 3.63 0 0 0 5.12-.22z"/><path class="st5" d="M484.11 375.03a2.77 2.77 0 0 0-.17-3.92 2.77 2.77 0 0 0-3.92.17 2.77 2.77 0 0 0 .17 3.92c1.13 1.03 2.89.96 3.92-.17z"/><path class="st5" d="M485.71 397.36a2.77 2.77 0 0 0-.17-3.92 2.77 2.77 0 0 0-3.92.17 2.77 2.77 0 0 0 .17 3.92 2.77 2.77 0 0 0 3.92-.17z"/><path class="st5" d="M465.32 381a2.77 2.77 0 0 0-.17-3.92 2.77 2.77 0 0 0-3.92.17 2.77 2.77 0 0 0 .17 3.92 2.77 2.77 0 0 0 3.92-.17z"/><path class="st5" d="M454.33 410.52a2.77 2.77 0 0 0-.17-3.92 2.77 2.77 0 0 0-3.92.17 2.77 2.77 0 0 0 .17 3.92 2.78 2.78 0 0 0 3.92-.17z"/><path class="st5" d="M435.18 399.21a2.77 2.77 0 0 0-.17-3.92 2.77 2.77 0 0 0-3.92.17 2.77 2.77 0 0 0 .17 3.92c1.13 1.03 2.89.96 3.92-.17z"/><path class="st5" d="M468.63 403.57a3.114 3.114 0 1 0-4.4.19c1.26 1.16 3.23 1.07 4.4-.19z"/><path class="st5" d="M448.09 391.55a3.114 3.114 0 1 0-4.4.19 3.123 3.123 0 0 0 4.4-.19z"/><path class="st5" d="M442.05 422.91a3.114 3.114 0 1 0-4.4.19c1.26 1.16 3.23 1.07 4.4-.19z"/><g><path class="st4" d="M300.19 440.56c-12.95-8.51-44.87-71.22-19.78-83.37 23.78-11.52 31.33 37.53 32.74 43.91 4.96-24.07 11.44-47.43 27.31-43.18s0 38.23 0 38.23c14.45-18.41 50.48-46.74 66.88-38.23 16.4 8.5-33.31 39-33.31 39 22.59-12.81 90.09-30.07 22.67 2.5 30.86-9.98 91.05-14.88 24.15 5.94 40.27-3.5 60.71 1.99 61.42 7.65.71 5.66-11.1 13.68-63.15 14.99 25.7 4.25 38.6 10.26 31.97 12.57-10.5-.01-150.9-.01-150.9-.01z"/><path class="st4" d="M386.43 410.29c0-1.15.94-2.09 2.09-2.09s2.09.94 2.09 2.09-.94 2.09-2.09 2.09a2.09 2.09 0 0 1-2.09-2.09z"/><path class="st4" d="M314.66 422.6c0-1.78 1.44-3.22 3.22-3.22 1.78 0 3.22 1.44 3.22 3.22 0 1.78-1.44 3.22-3.22 3.22a3.23 3.23 0 0 1-3.22-3.22z"/><path class="st4" d="M356.55 398.76c0-1.52 1.23-2.75 2.75-2.75s2.75 1.23 2.75 2.75-1.23 2.75-2.75 2.75-2.75-1.23-2.75-2.75z"/></g><path d="M325.1 224.69c6.31-.69 19.26-3.54 31.27-.8.06 1.81 0 2.78 0 2.78l-31.27-1.98z" fill="#fff"/><path class="st8" d="M121.05 425.61c-1.16 0-2.6 1.29-2.79 2.65h-2.12s-2.08-3.51-.98-8.02c.69-2.84 1.42-2.16 2.16-1.42 1.68 1.37 8.55 1.82 9.09-.49 1.77.27 20.02 5.52 20.02 7.2 0 2.73-2.14 2.73-3.6 2.73-17.26.01-14.97-1.05-21.78-2.65z"/><path class="st9" d="M124.55 415.44c-.59-2.6-8.11-4.55-7.73 0 .09 1.05-.04 2.06-.39 2.9 1.51 2.17 17.4 6.23 19.99 2.85-1.8-.97-11.87-3-11.87-5.75z"/><path d="M151.26 217.78c-1.27 24.39-11.22 58.08-13.09 89.12-1.87 31.05-13.39 108.53-13.39 108.53-3.45 0-8.07-.17-8.07-.17-1.87-8.6-12.57-75.93-1.85-99.41-4.14-16.15-15.21-71.17-1.37-98.07h37.77z" fill="#444"/><path class="st8" d="M156.73 425.61c-1.16 0-2.6 1.29-2.79 2.65h-2.12s-2.08-3.51-.98-8.02c.69-2.84 1.42-2.16 2.16-1.42 1.68 1.37 8.55 1.82 9.09-.49 1.77.27 20.02 5.52 20.02 7.2 0 2.73-2.14 2.73-3.61 2.73-17.25.01-14.96-1.05-21.77-2.65z"/><path class="st9" d="M160.23 415.44c-.59-2.6-8.12-4.55-7.72 0 .09 1.05-.04 2.06-.4 2.9 1.51 2.17 17.4 6.23 19.99 2.85-1.8-.97-11.87-3-11.87-5.75z"/><path class="st4" d="M162.86 217.78c4.61 14.18 9.04 58.08 7.16 89.12-1.87 31.05-9.57 108.53-9.57 108.53-3.45 0-8.07-.17-8.07-.17-1.87-8.6-13.97-79.56-6.88-99.41-5.61-11.22-31.31-65.15-20.43-98.07h37.79z"/><path class="st11" d="M145.41 90.87c-1.57-2.04 7.13-5.59 9.43-6.15 2.3-.56 6.28 3.56 7.9 4.72 1.62 1.15 4.03 3.36 6.7 3.7-.17 1.29-.57 4.41-2.66 5.94-3.35-.72-8.51-4.45-12.55-9.63-1.79-2.3-7.74 2.82-8.82 1.42z"/><path class="st11" d="M161.98 96.81c-5.64 1.13-6.73-3-8.43-4.93-1.13-1.28-6.34-.83-1.6-2.21 5.29-1.54 10.03 7.14 10.03 7.14z"/><g><path class="st12" d="M146.19 84.96c.68 5.26 4.35 20.82 1.27 26.43-2.53 4.61-7.74 5.39-16.13 2.54-8.39-2.85-8.73-18.08-9.83-22.48-1.74-6.97 23.27-17.57 24.69-6.49z"/><path class="st12" d="M138.86 113.64c.47 2.68 2.04 7.95 2.04 7.95-1.16 1.56-8.69 4.09-16.95-.59.6-4.92.2-16.31.2-16.31l14.71 8.95z"/></g><g><path class="st8" d="M103.08 188.31c0 7.58 11.65 9.48 11.65 9.48l3.41-38.64c-5.89-.5-9.7-3.66-13.32-5.71-1.21 6.51-1.74 26.43-1.74 34.87z"/><path class="st5" d="M104.82 153.44c3.62 2.05 7.43 5.21 13.32 5.71l3.28-37.12c-8.61 5.08-13.13 12.65-16.6 31.41z"/><path class="st5" d="M123.95 121c-4.93 1.07-17.45 9.04-15.62 30.05 2.2 25.35 5.15 66.73 5.15 66.73h49.38c-6.97-18.23-7.3-32.76-5.52-44.59 1.64-10.87 9.59-17.15 5.52-28.4-3.66-10.11-7.51-20.38-18.45-22.31-8.3-1.46-20.46-1.48-20.46-1.48z"/></g><path class="st5" d="M163.59 100.63c.3-1.93 2.96-7.73 5.31-9.14 4.9 1.99 43.64 18.2 43.63 23.94-.01 6.76-27.63 21.52-59.8 27.44-24.72 4.56-22.48-19.75-7.51-20.22 19.71-.63 31.98-5.21 41.11-8.28-5.32-2.8-22.74-13.74-22.74-13.74z"/><path class="st8" d="m178.83 110.02 7.51 4.35c3.61-.96 9.29-2.23 8.59-2.81s-10.43.27-16.1-1.54z"/><path d="M146.68 89.33c5.41-1.84 8.12-18.25-5.8-14.07-13.92 4.18-27.14 9.28-23.43 18.56 3.71 9.28-4.02 10.6-5.26 19.83-1.06 7.93 3.8 11.92-3.67 17.34-5.61 4.06-.86 10.54-2.98 13.65-4.94 7.25-4.83 17.03 7.5 21.08 17.63 5.8 37.74 4.58 30.54-6.65-5.8-9.05-4.68-9.12-.85-14.11 3.83-4.99-8.51-11.68-3.58-16.6 2.77-2.77-3.66-11.35-2.53-16.45.88-3.98 6.42-2.94 6.42-9.74.01-8.18-2.34-10.8 3.64-12.84z" fill="#383838"/><path class="st8" d="M157.34 173.19c1.64-10.87 9.59-17.15 5.52-28.4-.46-1.26-.91-2.52-1.39-3.76-4.61 1.03-11.01 2.16-7.6 6.13 3.41 3.97 2.08 19.3 0 27.25-2.08 7.95 1.07 35.09 3.47 43.37h5.52c-6.97-18.22-7.31-32.76-5.52-44.59z"/><path class="st5" d="m430.13 145.92 4.11-8.08c.48-.93 1.62-1.31 2.55-.83l8.08 4.11c.93.47 1.3 1.62.83 2.55l-4.11 8.08c-.47.93-1.62 1.31-2.55.83l-8.08-4.11c-.93-.48-1.3-1.62-.83-2.55z"/><path class="st8" d="m191.73 37.11 1.91 13.34c.21 1.45 1.9 2.12 3.05 1.22l10.6-8.32c1.15-.9.89-2.71-.46-3.25l-12.51-5.02c-1.37-.54-2.8.59-2.59 2.03z"/><path class="st8" d="m264.98 463.62-9.2 9.84c-1 1.07-.47 2.81.95 3.14l13.12 3.05c1.42.33 2.67-1 2.24-2.4l-3.92-12.89c-.41-1.4-2.19-1.81-3.19-.74z"/></svg>