<svg version="1.1" id="Laag_1" xmlns="http://www.w3.org/2000/svg" x="0" y="0" viewBox="0 0 1280 720" style="enable-background:new 0 0 1280 720" xml:space="preserve"><style>.st0{opacity:.05}.st1{fill:#913ca0}.st2{fill:#e0e0e0}.st3{fill:#522058}.st4{fill:#f2f2f2;stroke:#f2f2f2;stroke-miterlimit:10}.st5{fill:#848484}.st6{fill:#c1c1c1}.st7{fill:none;stroke:#e6e6e6;stroke-width:5;stroke-linecap:round;stroke-linejoin:round}.st9{fill:#383838}.st10{fill:#fff}.st11{fill:#5c5c5e}.st13{fill:#f7d3c9}.st15{fill:#f0ccc0}.st18{fill:#a5a5a5}.st19{fill:#362e94}</style><path class="st0" d="M518.03 671.36c0-8.98-74.71-16.26-166.86-16.26-92.16 0-166.86 7.28-166.86 16.26s74.71 16.26 166.86 16.26c92.15.01 166.86-7.27 166.86-16.26z"/><path class="st0" d="M974.01 652.71c0-3.91-32.5-7.08-72.59-7.08s-72.59 3.17-72.59 7.08 32.5 7.08 72.59 7.08c40.08-.01 72.59-3.18 72.59-7.08z"/><path class="st0" d="M1104.55 628.98c0-8.2-174.5-14.85-389.74-14.85-215.25 0-389.74 6.65-389.74 14.85 0 8.21 174.49 14.86 389.74 14.86s389.74-6.65 389.74-14.86z"/><path class="st1" d="M1018.28 423.54c56.31-38.44 113.72-10.62 149.36 61.33-57.75 24.53-137.29 12.21-149.36-61.33z"/><path class="st1" d="M1149.71 478.09c-.23 0-.46-.05-.68-.15-21.48-10.18-51.22-21.43-77.46-31.36-21.69-8.2-42.17-15.95-53.97-21.61a1.6 1.6 0 0 1-.75-2.12 1.6 1.6 0 0 1 2.12-.75c11.68 5.59 32.1 13.32 53.72 21.5 26.3 9.95 56.11 21.23 77.7 31.46.79.37 1.13 1.32.75 2.11-.27.58-.84.92-1.43.92z"/><path class="st0" d="M321 590.64c-6.76 5.29-85.21-14.12-82.47-29.37 2.13-11.87 14.77-9.88 19.3-8.8 7.14 1.71 24.05 6.94 24.48 1.45.77-9.93-43.68-17.68-54.39-20.24-10.71-2.56-30.82-10.44-34.82-21.95s-4.3-16.64 14.2-11.12c18.5 5.51 53.57 20.93 47.71 8.09-5.86-12.83-35.87-18.46-51.88-28-16.01-9.54-43.25-33.14-30.55-38.95 11.37-5.2 54.16 29.42 56.39 20.06 1.79-7.49-13.36-12.42-33.22-26.84-19.85-14.42-38.45-28.22-30.97-40.81 6.01-10.11 16.77 1.81 27.58 9.44 10.81 7.64 26.25 17.7 26.09 10.19-.16-7.51-56.6-39.75-50.54-58.23 4.01-12.23 13.86-1.52 26.94 6.65 13.07 8.18 18.28 10.08 19.02 6.96.75-3.12-15.1-17.01-23.99-24.42-8.9-7.4-19.14-21.06-12.53-29.59 6.61-8.53 19.65 4.8 23.32 10.84 3.67 6.04 9.75 10.24 11.54 9.13 1.79-1.11-8.92-21.92 2.67-25.74 11.58-3.83 19.88 17.06 17.04 28.91-2.83 11.85-6.24 27.96-1.92 29 4.32 1.03 7.61-12.69 10.19-23.5 2.58-10.82 6.08-14.52 8.96-13.83 9.61 2.3 14.35 18.3 12.47 26.21-1.89 7.9-18.23 50.82-11.85 52.35 6.39 1.53 10.82-15.22 12.91-23.96 2.08-8.74 6.95-29.12 17.66-26.56 10.71 2.56 9.92 31.39 4.92 47.78s-15.12 42.33-10.18 43.52c4.94 1.18 16.55-18.25 19.09-28.86 2.53-10.61 1.69-30.81 14.88-27.66 13.18 3.15 12 19.98 7.02 40.81-2.08 8.7-7.44 30.19-17.54 40.12-11.51 11.31-15.38 18.83-12.88 21.64 4.98 5.59 13.78-5.72 18.22-15.21 4.45-9.49 16.47-39.81 29.92-30.45 13.44 9.37-2.46 31.29-7.99 40.74-5.52 9.45-27.88 41.04-21 45.99 6.87 4.94 14.21-14.85 17.15-20.75 2.93-5.89 12.89-16.16 16.1-10.89 3.17 5.27-5 76.4-17.05 85.85z"/><path class="st2" d="M117.55 562.38c-13.53 10.81-27.55 2.39-35.42-3.29 4.39-2.99 22.87-14.06 35.42 3.29z"/><path class="st2" d="M263.56 607.83c-.29 0-.59-.08-.85-.25-16.41-10.52-38.36-20.47-61.79-28.01-27.84-8.97-57.61-14.48-86.09-15.96-.87-.05-1.55-.79-1.5-1.67.05-.87.79-1.54 1.67-1.5 64.2 3.32 119.28 25.15 149.42 44.47.74.47.95 1.45.48 2.19-.31.47-.82.73-1.34.73z"/><path class="st2" d="M246.53 587.79c-19.95-28.73-2.78-47.86 9.73-62.96 5.44 9.25 26.93 40.01-9.73 62.96z"/><path class="st2" d="M216.37 573.17c-21.25-18.35-11.72-36.65-5.01-50.9 6.08 6.11 28.93 25.73 5.01 50.9z"/><path class="st2" d="M181.03 564.08c-21.45-11.06-17.17-28.27-14.43-41.52 6.31 3.88 29.35 15.68 14.43 41.52z"/><path class="st2" d="M146.25 558.08c-14.72-2.89-15.14-13.9-15.8-22.28 4.43 1.23 20.23 4.28 15.8 22.28z"/><path class="st2" d="M235.92 602.64c-30.75-2.66-37.85 18.87-43.93 35.08 9.47.1 42.44 3.05 43.93-35.08z"/><path class="st2" d="M202.82 587.35c-25.84-6.4-34.79 10.99-42.14 23.99 8.05 1.36 35.75 8.3 42.14-23.99z"/><path class="st2" d="M161.15 575.24c-18.18.68-20.77 13.79-23.13 23.72 5.54-.63 25.04-1.31 23.13-23.72z"/><path class="st2" d="M132.5 569.06c-10.48-1.55-13.37 5.68-15.78 11.11 3.24.23 14.48 1.93 15.78-11.11z"/><path class="st3" d="M1023.12 401.45c39.22 38.88 89.03 25.14 127.97-26.94-42.4-28.01-107.57-29.87-127.97 26.94z"/><path class="st1" d="M1022.3 380.03c55.35 10.53 89.66-29.51 92.9-95.78-51.85.48-108.04 36.08-92.9 95.78z"/><path class="st1" d="M1022.3 381.62c-.37 0-.74-.13-1.04-.39-.66-.57-.74-1.57-.16-2.24 7.08-8.19 20.04-20.83 33.77-34.21 16.6-16.18 35.41-34.52 48.31-49.31.58-.66 1.58-.73 2.24-.15.66.58.73 1.58.15 2.24-12.98 14.89-31.85 33.28-48.49 49.5-13.68 13.33-26.59 25.93-33.58 34.01-.31.36-.75.55-1.2.55z"/><path class="st1" d="M1034.38 290.03a1.59 1.59 0 0 1-1.39-2.36c15.13-27.36 80.44-110.03 123.25-149.72.64-.6 1.65-.56 2.24.08.6.64.56 1.65-.08 2.24-42.63 39.52-107.6 121.74-122.63 148.93-.29.53-.83.83-1.39.83z"/><path class="st1" d="M1155.24 135.32c-.68-3.73 1.8-7.3 5.53-7.98 3.73-.68 7.31 1.8 7.98 5.53.68 3.73-1.8 7.31-5.53 7.98-3.73.68-7.3-1.8-7.98-5.53z"/><path class="st1" d="M1096.78 155.42c-.66-3.61 1.74-7.07 5.35-7.73 3.61-.66 7.07 1.74 7.73 5.35.66 3.61-1.74 7.07-5.35 7.73-3.61.66-7.07-1.74-7.73-5.35z"/><path class="st1" d="M1107.35 223.06c-.74-4.1 1.98-8.03 6.08-8.77 4.1-.75 8.03 1.97 8.77 6.08.75 4.1-1.98 8.03-6.08 8.77-4.1.74-8.03-1.98-8.77-6.08z"/><path class="st1" d="M1050.17 216.36c-.86-4.74 2.29-9.29 7.03-10.15 4.75-.86 9.29 2.29 10.15 7.03.86 4.74-2.29 9.29-7.03 10.15-4.74.87-9.29-2.28-10.15-7.03z"/><path class="st1" d="M1161.4 158.01a5.706 5.706 0 0 1 4.59-6.63c3.1-.56 6.06 1.49 6.63 4.59a5.703 5.703 0 0 1-11.22 2.04z"/><path class="st1" d="M1134.38 163.68a1.6 1.6 0 0 1-1.37-.78c-.44-.75-.19-1.73.56-2.17 4.28-2.53 14.83-3.78 24.37-4.76 1.28-.13 2.37-.24 3.17-.34a1.586 1.586 0 0 1 .37 3.15c-.82.1-1.92.21-3.23.34-6.18.63-19.04 1.95-23.08 4.34-.23.15-.51.22-.79.22z"/><path class="st1" d="M1104.9 196.71c-.11 0-.22-.01-.33-.04a1.58 1.58 0 0 1-1.22-1.88c2.56-12.06.34-29.68-.4-33.74a1.58 1.58 0 0 1 1.28-1.84c.86-.16 1.69.42 1.84 1.28.93 5.15 3 22.62.38 34.97a1.59 1.59 0 0 1-1.55 1.25z"/><path class="st1" d="M1078.57 228.68c-.55 0-1.08-.28-1.37-.79-.44-.76-.18-1.73.58-2.17 6-3.48 25.4-5.2 29.91-4.2a1.586 1.586 0 1 1-.68 3.1c-3.96-.88-22.39.81-27.64 3.85-.25.14-.53.21-.8.21z"/><path class="st1" d="M1055.75 258.39c-.12 0-.24-.01-.37-.04-.85-.2-1.38-1.06-1.18-1.91 1.01-4.29 1.57-27.95 1.59-33.03 0-.87.71-1.58 1.59-1.58.88 0 1.58.71 1.58 1.59-.01 4-.51 28.83-1.67 33.75a1.58 1.58 0 0 1-1.54 1.22z"/><path class="st4" d="M1116.53 56.32a1.587 1.587 0 0 1-1.35-2.42l14.27-22.91c.46-.74 1.44-.97 2.18-.51.74.46.97 1.44.51 2.18l-14.27 22.91c-.29.49-.81.75-1.34.75z"/><path class="st4" d="M1104.99 51.45h-.05c-.88-.03-1.56-.76-1.54-1.63l.55-19.05c.03-.87.77-1.56 1.63-1.54.88.03 1.56.76 1.54 1.63l-.55 19.05c-.02.86-.73 1.54-1.58 1.54z"/><path class="st4" d="M1126 64.54c-.57 0-1.12-.31-1.4-.85-.41-.77-.11-1.73.66-2.14l16.85-8.89c.77-.41 1.73-.11 2.14.66.41.77.11 1.73-.66 2.14l-16.85 8.89c-.24.13-.49.19-.74.19z"/><path class="st4" d="M1077.57 118.87a1.587 1.587 0 0 1-1.35-2.42l14.27-22.91c.46-.74 1.44-.97 2.18-.51.74.46.97 1.44.51 2.18l-14.27 22.91c-.29.48-.81.75-1.34.75z"/><path class="st4" d="M1065.53 96.64c-.57 0-1.12-.31-1.4-.85-.41-.77-.11-1.73.66-2.14l16.85-8.89c.77-.41 1.73-.11 2.14.66.41.77.11 1.73-.66 2.14l-16.85 8.89c-.24.13-.49.19-.74.19z"/><path class="st4" d="M1102.84 119.88h-.05c-.88-.03-1.56-.76-1.54-1.63l.55-19.05a1.6 1.6 0 0 1 1.63-1.54c.88.03 1.56.76 1.54 1.63l-.55 19.05c-.02.86-.73 1.54-1.58 1.54z"/><path class="st5" d="M1094.27 68.48c3.4-5.46 10.58-7.13 16.04-3.73 5.46 3.4 7.13 10.58 3.73 16.05-3.4 5.46-10.58 7.13-16.04 3.72-5.46-3.4-7.13-10.58-3.73-16.04z"/><path class="st6" d="M1097.82 70.69a7.46 7.46 0 0 1 10.28-2.39 7.46 7.46 0 0 1 2.39 10.28 7.46 7.46 0 0 1-10.28 2.39 7.46 7.46 0 0 1-2.39-10.28z"/><path class="st7" d="M1068.14 52.1c2.35 10.12 6.28 31.42 23.7 42.27 17.43 10.85 38.27 4.99 48.39 2.64-2.35-10.12-6.28-31.42-23.7-42.27-17.42-10.86-38.27-4.99-48.39-2.64z"/><path class="st4" d="M243.38 178.47c-.62 0-1.21-.37-1.46-.98l-15.74-37.77c-.34-.81.05-1.74.85-2.07.81-.34 1.74.04 2.07.85l15.74 37.77c.34.81-.05 1.74-.85 2.07-.2.09-.41.13-.61.13z"/><path class="st4" d="M227.21 188.44c-.33 0-.67-.1-.96-.32l-23.03-17.43c-.7-.53-.84-1.52-.31-2.22.53-.7 1.52-.84 2.22-.31l23.03 17.43c.7.53.84 1.52.31 2.22-.31.41-.78.63-1.26.63z"/><path class="st4" d="M261.85 174.01c-.07 0-.14 0-.21-.01a1.58 1.58 0 0 1-1.36-1.78l3.84-28.63c.12-.87.91-1.48 1.78-1.36.87.12 1.48.91 1.36 1.78l-3.84 28.63c-.11.79-.79 1.37-1.57 1.37z"/><path class="st4" d="M286.35 281.58c-.62 0-1.21-.37-1.46-.98l-15.74-37.77c-.34-.81.05-1.74.85-2.07.81-.34 1.74.04 2.07.85l15.74 37.77c.34.81-.05 1.74-.85 2.07-.2.09-.4.13-.61.13z"/><path class="st4" d="M248.31 276.91c-.07 0-.14 0-.21-.01a1.58 1.58 0 0 1-1.36-1.78l3.84-28.63c.12-.87.91-1.48 1.78-1.36.87.12 1.48.91 1.36 1.78l-3.84 28.63c-.11.79-.79 1.37-1.57 1.37z"/><path class="st4" d="M309.82 251.27c-.33 0-.67-.1-.96-.32l-23.03-17.43c-.7-.53-.84-1.52-.31-2.22.53-.7 1.52-.84 2.22-.31l23.03 17.43c.7.53.84 1.52.31 2.22-.31.41-.78.63-1.26.63z"/><path class="st5" d="M240.77 216.46c-3.75-9 .5-19.34 9.5-23.09s19.34.5 23.09 9.51c3.75 9-.51 19.34-9.51 23.09-8.99 3.74-19.33-.51-23.08-9.51z"/><path class="st6" d="M246.95 213.79c-2.23-5.34.4-11.52 5.86-13.79 5.47-2.28 11.7.2 13.93 5.55 2.23 5.34-.4 11.51-5.87 13.79-5.47 2.27-11.7-.21-13.92-5.55z"/><path class="st7" d="M197.57 234.32c14.57 5.99 44.32 19.88 73.04 7.9 28.73-11.97 39.81-42.88 45.81-57.44-14.57-6-44.32-19.88-73.05-7.9-28.72 11.98-39.8 42.88-45.8 57.44z"/><path class="st5" d="M639.17 514.3h151.28v93.6H639.17z"/><path style="fill:#ddd" d="M639.17 514.3h151.28v11.55H639.17z"/><path class="st6" d="M573.05 608.02h283.51v18.29H573.05z"/><path class="st6" d="M1036.54 453.51H393.08v41.47c0 10.67 8.65 19.32 19.32 19.32h604.81c10.67 0 19.32-8.65 19.32-19.32v-41.47z"/><path class="st5" d="M1013.04 494.97c0-2.31 1.87-4.17 4.17-4.17s4.17 1.87 4.17 4.17c0 2.31-1.87 4.17-4.17 4.17-2.3.01-4.17-1.86-4.17-4.17z"/><path class="st5" d="M995.89 494.97c0-2.31 1.87-4.17 4.17-4.17 2.31 0 4.17 1.87 4.17 4.17 0 2.31-1.87 4.17-4.17 4.17a4.155 4.155 0 0 1-4.17-4.17z"/><path class="st9" d="M1017.21 63.89H412.4c-10.67 0-19.32 8.65-19.32 19.32V453.5h28.09V96.08h587.28V453.5h28.09V83.22c0-10.67-8.65-19.33-19.33-19.33z"/><path class="st10" d="M421.17 96.08h587.28V453.5H421.17z"/><path class="st2" d="M901.41 462.41c-10.8 10.8-20.8 19.54-36.29 19.54h-36.3v73.88c0 45.86 45.51 87.6 72.59 96.87V462.41c0 .01 0 .01 0 0z"/><path class="st2" d="M937.7 481.95c-15.07 0-24.71-7.96-36.29-19.54V652.7c27.09-9.27 72.59-51.01 72.59-96.87v-73.88c.01.01-21.27 0-36.3 0z"/><path class="st5" d="M901.41 483.94c-9.68 7.86-21.03 13.87-36.29 13.87h-20.44v58.02c0 34.85 34.33 68.94 56.73 79.74V483.94z"/><path class="st11" d="M937.7 497.81c-15.26 0-26.61-6.01-36.29-13.87v151.62c22.4-10.8 56.73-44.88 56.73-79.73v-58.02H937.7z"/><path style="fill:#131147" d="M326.35 432.03h49.91v55.7h-49.91z"/><path class="st13" d="M309.83 535.74s-13.04-8.21-20.43-11.74c-6.48 12.18-10.98 26.19-13.2 35.48-4.4 18.42 25.3 56.13 25.3 56.13s4.11 3.11 10.79 7.32l-19.03-58.69s12.97-21.88 16.57-28.5z"/><path class="st13" d="M387.63 535.74s13.04-8.21 20.43-11.74c6.48 12.18 10.98 26.19 13.2 35.48 4.4 18.42-25.3 56.13-25.3 56.13s-4.12 3.11-10.79 7.32l19.03-58.69c-.01 0-12.98-21.88-16.57-28.5z"/><path class="st3" d="M409.02 525.84c-5.27-12.75-14.32-27.69-20.21-31.9-12.09-8.63-22.16-7.19-40.08-6.62-17.92-.57-28-2.01-40.08 6.62-5.9 4.21-14.95 19.15-20.22 31.9 5.53 4.62 13.85 9.66 19.97 12.48 8.44 19.32 3.06 70.2.03 87.3 0 0 6.99 13.75 40.3 13.75 33.31 0 40.3-13.75 40.3-13.75-3.03-17.1-8.41-67.98.03-87.3 6.12-2.82 14.43-7.86 19.96-12.48z"/><path d="M356.76 472.66h-16.08c-.69 8.7-4 14.26-10.19 14.26-7.84 18.23 10.77 28.53 18.23 28.53 7.46 0 28.5-4.55 18.23-28.53-6.19-.01-9.5-5.56-10.19-14.26z" style="fill:#f0c9c0"/><path class="st13" d="M366.8 413.73c-4.03-3.33-10.5-4.38-18.07-4.38s-14.04 1.05-18.07 4.38c-7.52 6.22-9.5 23.25-6.56 34.72 6.28 24.45 13.21 30.68 24.63 30.68 11.42 0 18.35-6.23 24.63-30.68 2.94-11.47.96-28.5-6.56-34.72z"/><path class="st15" d="M326.74 443.03c-.33-3.24-2.3-5.69-4.41-5.48-2.11.21-3.55 3.01-3.22 6.25.33 3.24 2.3 5.69 4.41 5.48 2.11-.22 3.55-3.01 3.22-6.25z"/><path d="m279.11 560.41 12.59 77.88h114.04l12.59-77.88c.52-3.2-1.95-6.1-5.19-6.1H284.31c-3.24 0-5.71 2.9-5.2 6.1z" style="fill:#f6f6fb"/><path class="st6" d="M352.8 591.8h-8.22l-4.11 4.95 4.11 4.96h8.22l4.11-4.96z"/><path class="st15" d="M408.56 658.2c1.41.83 3.4 1.66 4.82.88 6.3 3.61 7.18 12.25-1.1 14.05-1.19-.82-2.68-1.33-4.75-1.33-1.34-4.22 1.03-13.6 1.03-13.6z"/><path d="M409.29 656.08c-47.9-19.82-79.78-35.71-110.6-46.94-31.88-11.62-61.4-15.67-64.71-3.51-3.81 13.99 20.49 33.23 60.06 47.36 30.65 10.94 67.64 13.36 113.48 20.88 0-5.32 1.77-17.79 1.77-17.79z" style="fill:#444"/><path class="st9" d="M465.67 670.18c-.72-6.33-4.29-10.77-12.01-13.96h2.41c3.86 0 12.8 5.78 12.8 14.16 0 8.38-8.94 9.77-15.22 9.77 5.56-.44 12.61-4.77 12.02-9.97z"/><path class="st1" d="M412.27 673.14c6.84-2.94 6.45-8.98 1.1-14.05 2.62-1.18 5.83-2.87 11.78-2.87h28.5c7.73 3.19 11.29 7.63 12.01 13.96.6 5.2-6.46 9.53-12.01 9.97-6.28 0-26.9-2.39-33.09-3.79-4.82-1.08-6.46-2.18-8.29-3.22z"/><path class="st10" d="M424.49 672.04c-.17 0-.34-.07-.45-.21a.6.6 0 0 1 .07-.84c2.08-1.77 1.71-6.11.02-8.52a.595.595 0 1 1 .98-.68c1.82 2.6 2.61 7.7-.22 10.11-.13.09-.26.14-.4.14z"/><path class="st10" d="M427.77 672.82c-.18 0-.36-.08-.48-.24-.2-.26-.14-.64.12-.83 1.47-1.09 1.93-2.67 2.06-3.81.26-2.28-.52-4.56-1.44-5.64a.6.6 0 0 1 .07-.84.6.6 0 0 1 .84.07c1.28 1.51 1.98 4.2 1.71 6.55-.23 1.97-1.11 3.57-2.54 4.63-.09.07-.22.11-.34.11z"/><path class="st10" d="M433.05 673.33c-.18 0-.36-.08-.48-.24-.2-.26-.14-.64.12-.83 1.43-1.06 1.87-2.66 1.98-3.81.22-2.25-.61-4.97-1.96-6.46-.22-.24-.2-.62.04-.84.24-.22.62-.2.84.04 1.59 1.74 2.52 4.78 2.27 7.38-.2 2-1.04 3.61-2.46 4.66-.1.06-.22.1-.35.1z"/><path class="st15" d="M292.95 658.2c-1.42.83-3.4 1.66-4.82.88-6.3 3.61-7.18 12.25 1.1 14.05 1.19-.82 2.68-1.33 4.75-1.33 1.33-4.22-1.03-13.6-1.03-13.6z"/><path class="st11" d="M292.21 656.08c47.9-19.82 79.78-35.71 110.6-46.94 31.88-11.62 61.4-15.67 64.71-3.51 3.81 13.99-20.49 33.23-60.06 47.36-30.65 10.94-67.64 13.36-113.48 20.88 0-5.32-1.77-17.79-1.77-17.79z"/><path class="st9" d="M235.84 670.18c.72-6.33 4.29-10.77 12.02-13.96h-2.42c-3.86 0-12.8 5.78-12.8 14.16 0 8.38 8.94 9.77 15.22 9.77-5.56-.44-12.62-4.77-12.02-9.97z"/><path class="st1" d="M289.23 673.14c-6.84-2.94-6.45-8.98-1.1-14.05-2.62-1.18-5.82-2.87-11.78-2.87h-28.5c-7.73 3.19-11.29 7.63-12.02 13.96-.6 5.2 6.46 9.53 12.02 9.97 6.28 0 26.9-2.39 33.09-3.79 4.82-1.08 6.46-2.18 8.29-3.22z"/><path class="st10" d="M277.02 672.04c-.14 0-.27-.05-.39-.14-2.84-2.41-2.04-7.52-.23-10.11a.595.595 0 1 1 .98.68c-1.69 2.41-2.05 6.75.02 8.52a.6.6 0 0 1 .07.84c-.12.14-.28.21-.45.21z"/><path class="st10" d="M273.74 672.82a.57.57 0 0 1-.35-.12c-1.43-1.06-2.31-2.66-2.54-4.63-.27-2.35.43-5.04 1.71-6.55a.6.6 0 0 1 .84-.07.6.6 0 0 1 .07.84c-.91 1.08-1.7 3.37-1.44 5.64.13 1.14.6 2.72 2.06 3.81.26.2.32.57.12.83a.55.55 0 0 1-.47.25z"/><path class="st10" d="M268.45 673.33a.57.57 0 0 1-.35-.12c-1.41-1.05-2.26-2.65-2.46-4.65-.25-2.6.68-5.64 2.27-7.38.22-.24.6-.26.84-.04s.26.6.04.84c-1.36 1.49-2.18 4.21-1.96 6.46.11 1.15.55 2.75 1.98 3.81.26.2.32.57.12.83-.11.17-.3.25-.48.25z"/><path class="st15" d="M370.71 443.03c.33-3.24 2.3-5.69 4.41-5.48 2.11.21 3.55 3.01 3.22 6.25-.33 3.24-2.3 5.69-4.41 5.48-2.1-.22-3.54-3.01-3.22-6.25z"/><path class="st9" d="M332.28 425.14c-2.8 8.62-6.03 50.84.5 69.77-9.53-1.58-16.36-5.17-17.74-10.13-3.86-13.87-8.55-83.91 33.09-83.91s40.02 49.12 33.82 83.91c-1.74 9.74-11.95 11.71-17.18 11.19 4.19-15.06 8.3-48.21 8.89-54.07-22.62 3.98-41.38-16.76-41.38-16.76z"/><path class="st0" d="M836.26 190.46H593.7c-11.21 0-20.3-9.09-20.3-20.3V163c0-11.21 9.09-20.3 20.3-20.3h242.56c11.21 0 20.3 9.09 20.3 20.3v7.16c0 11.21-9.09 20.3-20.3 20.3z"/><path class="st10" d="m616.22 162.66-1.81-3.12-6.78 3.91v-7.83h-3.61v7.83l-6.78-3.91-1.8 3.12 6.78 3.92-6.78 3.91 1.8 3.13 6.78-3.92v7.83h3.61v-7.83l6.78 3.92 1.81-3.13-6.78-3.91z"/><path class="st10" d="m647.4 162.66-1.8-3.12-6.78 3.91v-7.83h-3.61v7.83l-6.78-3.91-1.8 3.12 6.78 3.92-6.78 3.91 1.8 3.13 6.78-3.92v7.83h3.61v-7.83l6.78 3.92 1.8-3.13-6.78-3.91z"/><path class="st10" d="m678.59 162.66-1.8-3.12-6.78 3.91v-7.83h-3.61v7.83l-6.78-3.91-1.81 3.12 6.78 3.92-6.78 3.91 1.81 3.13 6.78-3.92v7.83h3.61v-7.83l6.78 3.92 1.8-3.13-6.78-3.91z"/><path class="st10" d="m709.78 162.66-1.81-3.12-6.78 3.91v-7.83h-3.6v7.83l-6.79-3.91-1.8 3.12 6.78 3.92-6.78 3.91 1.8 3.13 6.79-3.92v7.83h3.6v-7.83l6.78 3.92 1.81-3.13-6.78-3.91z"/><path class="st10" d="m740.96 162.66-1.8-3.12-6.78 3.91v-7.83h-3.61v7.83l-6.78-3.91-1.8 3.12 6.78 3.92-6.78 3.91 1.8 3.13 6.78-3.92v7.83h3.61v-7.83l6.78 3.92 1.8-3.13-6.78-3.91z"/><path class="st10" d="m772.15 162.66-1.8-3.12-6.78 3.91v-7.83h-3.61v7.83l-6.78-3.91-1.81 3.12 6.78 3.92-6.78 3.91 1.81 3.13 6.78-3.92v7.83h3.61v-7.83l6.78 3.92 1.8-3.13-6.78-3.91z"/><path class="st10" d="m803.34 162.66-1.81-3.12-6.78 3.91v-7.83h-3.6v7.83l-6.79-3.91-1.8 3.12 6.78 3.92-6.78 3.91 1.8 3.13 6.79-3.92v7.83h3.6v-7.83l6.78 3.92 1.81-3.13-6.78-3.91z"/><path class="st10" d="m834.52 162.66-1.8-3.12-6.78 3.91v-7.83h-3.61v7.83l-6.78-3.91-1.8 3.12 6.78 3.92-6.78 3.91 1.8 3.13 6.78-3.92v7.83h3.61v-7.83l6.78 3.92 1.8-3.13-6.78-3.91z"/><path class="st0" d="M922.53 438.11H506.48c-11.21 0-20.29-9.09-20.29-20.29v-197.3c0-11.21 9.09-20.29 20.29-20.29h416.05c11.21 0 20.29 9.09 20.29 20.29v197.29c0 11.21-9.08 20.3-20.29 20.3z"/><g><path class="st18" d="M434.43 182.84c-.09 0-.18 0-.27-.01a3.171 3.171 0 0 1-2.89-3.43c.34-4.02-1.74-7.82-5.3-9.71l-6.89-3.64a3.173 3.173 0 1 1 2.97-5.61l6.89 3.64a16.33 16.33 0 0 1 8.66 15.86 3.192 3.192 0 0 1-3.17 2.9z"/></g><g><path class="st18" d="M1002.46 179.37c-1.22 0-2.38-.71-2.91-1.9a17.29 17.29 0 0 1-1.02-3.15c-.92-4.27-.12-8.64 2.24-12.31 2.37-3.67 6.02-6.2 10.29-7.12l4.51-.97c1.72-.37 3.4.72 3.77 2.43.37 1.71-.72 3.4-2.43 3.77l-4.51.97c-5.39 1.16-8.83 6.49-7.67 11.88.14.66.35 1.31.62 1.93.7 1.6-.02 3.47-1.63 4.18-.4.2-.83.29-1.26.29z"/></g><g><path class="st18" d="M496.07 227.24a3.173 3.173 0 0 1-2.8-4.66 9.982 9.982 0 0 0-1.08-11l-4.92-6.04c-1.11-1.36-.9-3.36.46-4.46 1.36-1.11 3.36-.9 4.46.46l4.92 6.04c4.16 5.1 4.85 12.16 1.77 17.98a3.177 3.177 0 0 1-2.81 1.68z"/></g><g><path class="st11" d="M981.72 208.14c-4.07 0-8.11-1.5-11.22-4.44a3.173 3.173 0 0 1-.13-4.48 3.173 3.173 0 0 1 4.48-.13c3.43 3.24 8.73 3.62 12.61.91l17.15-12.03c4.51-3.17 5.61-9.42 2.44-13.93-3.17-4.51-9.42-5.61-13.93-2.44l-13.59 9.54a3.174 3.174 0 0 1-4.42-.77 3.174 3.174 0 0 1 .77-4.42l13.59-9.54c7.38-5.18 17.59-3.39 22.77 3.99 5.18 7.38 3.39 17.59-3.99 22.77L991.1 205.2a16.44 16.44 0 0 1-9.38 2.94z"/></g><g><path class="st18" d="M940.35 222.12c-.91 0-1.82-.39-2.44-1.15-.7-.85-1.32-1.77-1.84-2.75-2.06-3.85-2.49-8.27-1.23-12.45 1.27-4.18 4.09-7.61 7.94-9.67l4.07-2.17c1.54-.83 3.47-.24 4.29 1.3.83 1.54.24 3.47-1.3 4.29l-4.07 2.17a9.941 9.941 0 0 0-4.86 5.92c-.78 2.56-.51 5.26.75 7.62.32.6.7 1.17 1.13 1.69 1.12 1.35.93 3.35-.42 4.47-.59.49-1.3.73-2.02.73z"/></g><g><path class="st11" d="M524.05 243.27c-.07 0-.15 0-.22-.01a3.17 3.17 0 0 1-2.95-3.38 9.962 9.962 0 0 0-4.78-9.24l-8.2-4.99a3.17 3.17 0 0 1-1.06-4.36 3.17 3.17 0 0 1 4.36-1.06l8.2 4.99c5.24 3.19 8.23 8.97 7.81 15.09a3.176 3.176 0 0 1-3.16 2.96z"/></g><g><path class="st18" d="M690.79 296.53h-.05a3.171 3.171 0 0 1-3.12-3.22c.08-5.51-4.33-10.07-9.85-10.15l-6.65-.1a3.171 3.171 0 0 1 .1-6.34l6.65.1c9.01.14 16.23 7.58 16.09 16.59a3.174 3.174 0 0 1-3.17 3.12z"/></g><g><path class="st18" d="M735.53 297.33a3.17 3.17 0 0 1-2.95-2.01c-1.61-4.06-1.53-8.5.2-12.51 1.74-4.01 4.93-7.1 8.99-8.7l10.11-4c1.62-.64 3.47.15 4.11 1.78a3.18 3.18 0 0 1-1.78 4.12l-10.11 4a9.933 9.933 0 0 0-5.5 5.32 9.902 9.902 0 0 0-.12 7.65 3.18 3.18 0 0 1-1.78 4.12c-.39.16-.78.23-1.17.23z"/></g><g><path class="st10" d="M721.93 418.51h-14.24c-28.58 0-51.75-23.17-51.75-51.75v-43.01h117.75v43.01c-.01 28.58-23.18 51.75-51.76 51.75z"/><path class="st3" d="M762.15 323.75h-12.69v-9.93c0-19.11-15.55-34.66-34.66-34.66-19.11 0-34.66 15.55-34.66 34.66v9.93h-12.69v-9.93c0-26.1 21.24-47.34 47.34-47.34s47.34 21.24 47.34 47.34v9.93z"/><path class="st6" d="M773.68 323.75H655.93v8.81h9.47v.73c0 1.59 1.29 2.89 2.89 2.89h11.04c1.59 0 2.89-1.29 2.89-2.89v-.73h65.19v.73c0 1.59 1.29 2.89 2.89 2.89h11.04c1.59 0 2.89-1.29 2.89-2.89v-.73h9.47v-8.81z"/><path class="st19" d="M670.78 329.95c0-1.67 1.35-3.02 3.02-3.02s3.02 1.35 3.02 3.02-1.35 3.02-3.02 3.02c-1.66.01-3.02-1.35-3.02-3.02z"/><path class="st19" d="M752.78 329.95c0-1.67 1.35-3.02 3.02-3.02s3.02 1.35 3.02 3.02-1.35 3.02-3.02 3.02c-1.66.01-3.02-1.35-3.02-3.02z"/><path class="st3" d="M724.75 364.61c0-5.7-4.8-10.28-10.58-9.92-4.88.3-8.88 4.22-9.27 9.09-.34 4.18 1.92 7.87 5.33 9.65l-1.94 17.2c-.08.71.47 1.33 1.19 1.33h10.66c.71 0 1.27-.62 1.19-1.33l-1.94-17.2c3.18-1.66 5.36-4.98 5.36-8.82z"/></g><g><path class="st11" d="M772.89 283.97a3.174 3.174 0 0 1-3.12-3.73c.9-5 3.99-9.23 8.49-11.59l10.53-5.53c1.55-.81 3.47-.22 4.28 1.33s.22 3.47-1.33 4.28l-10.53 5.53a9.944 9.944 0 0 0-5.2 7.09 3.17 3.17 0 0 1-3.12 2.62z"/></g><g><path class="st18" d="M747.77 305.67c-2.21 0-4.41-.45-6.5-1.36-4.01-1.74-7.1-4.93-8.7-8.99a3.18 3.18 0 0 1 1.78-4.12c1.62-.64 3.47.15 4.11 1.78a9.933 9.933 0 0 0 5.32 5.5 9.902 9.902 0 0 0 7.65.12l19.48-7.7c5.13-2.03 7.65-7.85 5.62-12.98a9.933 9.933 0 0 0-5.32-5.5 9.902 9.902 0 0 0-7.65-.12l-9.38 3.71c-1.63.64-3.47-.15-4.11-1.78a3.18 3.18 0 0 1 1.78-4.12l9.38-3.71c4.06-1.6 8.5-1.53 12.51.2 4.01 1.74 7.1 4.93 8.7 8.99 3.31 8.38-.81 17.9-9.19 21.21l-19.48 7.7c-1.93.78-3.96 1.17-6 1.17z"/></g><g><path class="st11" d="M654.58 293.89c-.95 0-1.9-.43-2.52-1.24-1.06-1.39-.8-3.38.59-4.45a9.866 9.866 0 0 0 3.41-4.81 9.92 9.92 0 0 0-.57-7.63 9.924 9.924 0 0 0-5.8-5 3.17 3.17 0 0 1-2.02-4 3.17 3.17 0 0 1 4-2.02c4.15 1.37 7.51 4.27 9.48 8.16 1.97 3.9 2.3 8.33.93 12.47a16.29 16.29 0 0 1-5.57 7.86c-.58.45-1.26.66-1.93.66z"/></g><g><path class="st18" d="M677.62 309.5h-.25l-20.95-.32a16.25 16.25 0 0 1-11.48-4.96 16.21 16.21 0 0 1-4.61-11.63 16.25 16.25 0 0 1 4.96-11.48c3.13-3.04 7.24-4.67 11.63-4.61l14.3.22c1.75.03 3.15 1.47 3.12 3.22a3.178 3.178 0 0 1-3.22 3.12l-14.3-.22c-2.68-.06-5.2.96-7.12 2.82-1.92 1.86-3 4.36-3.04 7.03-.04 2.67.96 5.2 2.82 7.12 1.86 1.92 4.36 3 7.03 3.04l20.95.32h.15c5.44 0 9.91-4.39 10-9.85a3.178 3.178 0 0 1 3.22-3.12c1.75.03 3.15 1.47 3.12 3.22-.13 8.91-7.43 16.08-16.33 16.08z"/></g><g><path class="st11" d="M587.13 278.2c-.13 0-.27-.01-.41-.03a3.175 3.175 0 0 1-2.75-3.55 9.955 9.955 0 0 0-4.24-9.5l-7.9-5.46c-1.44-1-1.8-2.97-.81-4.41 1-1.44 2.97-1.8 4.41-.81l7.9 5.46c5.04 3.49 7.7 9.44 6.92 15.52a3.136 3.136 0 0 1-3.12 2.78z"/></g><g><path class="st18" d="M610.98 296.06c-.69 0-1.38-.04-2.07-.13l-20.79-2.62c-4.33-.55-8.19-2.74-10.87-6.19a16.244 16.244 0 0 1-3.31-12.06c1.13-8.94 9.31-15.3 18.26-14.18l13.05 1.64c1.74.22 2.97 1.81 2.75 3.54a3.166 3.166 0 0 1-3.54 2.75l-13.05-1.64c-5.47-.69-10.48 3.2-11.17 8.67a9.98 9.98 0 0 0 2.02 7.38c1.64 2.11 4 3.46 6.65 3.79l20.79 2.62c2.65.34 5.27-.38 7.38-2.02 2.11-1.64 3.46-4 3.79-6.65.17-1.34.07-2.67-.29-3.96-.48-1.69.51-3.44 2.19-3.91 1.69-.48 3.44.51 3.91 2.19.59 2.11.76 4.29.48 6.47-.55 4.33-2.74 8.19-6.19 10.87-2.9 2.25-6.38 3.44-9.99 3.44z"/></g><g><path class="st18" d="M806.47 275.03c-1.02 0-2.02-.49-2.63-1.4-2.29-3.39-3.22-7.5-2.62-11.55.64-4.32 2.93-8.13 6.43-10.73 3.51-2.6 7.82-3.68 12.14-3.04a3.17 3.17 0 0 1-.93 6.27 9.97 9.97 0 0 0-7.43 1.86 9.947 9.947 0 0 0-3.94 6.56c-.37 2.48.2 4.99 1.6 7.07.98 1.45.6 3.42-.85 4.4-.54.39-1.16.56-1.77.56z"/></g><g><path class="st11" d="M785.89 299.46c-5.88 0-11.58-3.18-14.5-8.74a16.15 16.15 0 0 1-1.62-10.48 3.174 3.174 0 0 1 3.68-2.56c1.72.31 2.87 1.96 2.56 3.68a9.9 9.9 0 0 0 .99 6.41c2.56 4.88 8.62 6.77 13.51 4.2l18.55-9.74c4.88-2.56 6.77-8.62 4.2-13.51-2.56-4.88-8.62-6.77-13.51-4.2l-8.02 4.21c-1.55.81-3.47.22-4.28-1.33a3.171 3.171 0 0 1 1.33-4.28l8.02-4.21c7.98-4.19 17.88-1.11 22.07 6.87 4.19 7.98 1.11 17.88-6.87 22.07l-18.55 9.74a16.197 16.197 0 0 1-7.56 1.87z"/></g><g><path class="st11" d="M646.56 296.61c-1.72 0-3.44-.27-5.12-.82l-19.9-6.56a16.276 16.276 0 0 1-9.48-8.16c-1.97-3.9-2.3-8.33-.93-12.48 1.37-4.15 4.27-7.51 8.16-9.48 3.9-1.97 8.33-2.3 12.48-.93l19.9 6.56a3.17 3.17 0 0 1 2.02 4 3.17 3.17 0 0 1-4 2.02l-19.9-6.56a9.92 9.92 0 0 0-7.63.57 9.924 9.924 0 0 0-5 5.8 9.92 9.92 0 0 0 .57 7.63 9.924 9.924 0 0 0 5.8 5l19.9 6.56a9.98 9.98 0 0 0 9.22-1.57c1.39-1.06 3.38-.8 4.45.59 1.06 1.39.8 3.38-.59 4.45-2.9 2.23-6.4 3.38-9.95 3.38z"/></g><g><path class="st18" d="M623.63 279.31c-1.38 0-2.66-.91-3.05-2.31a9.97 9.97 0 0 0-8.38-7.21l-7.73-.97a3.171 3.171 0 0 1-2.75-3.54 3.171 3.171 0 0 1 3.54-2.75l7.73.97a16.31 16.31 0 0 1 13.69 11.78c.48 1.69-.51 3.44-2.19 3.91-.29.09-.58.12-.86.12z"/></g><g><path class="st18" d="M543.36 271.45c-2.45 0-4.89-.56-7.16-1.67l-18.82-9.19c-3.92-1.92-6.87-5.24-8.29-9.37-1.42-4.13-1.15-8.56.77-12.49 3.96-8.1 13.76-11.47 21.86-7.52l11.82 5.77c1.57.77 2.23 2.67 1.46 4.24a3.174 3.174 0 0 1-4.24 1.46l-11.82-5.77c-4.96-2.42-10.96-.36-13.38 4.6a9.938 9.938 0 0 0-.47 7.64 9.964 9.964 0 0 0 5.07 5.74l18.82 9.19a9.938 9.938 0 0 0 7.64.47 9.964 9.964 0 0 0 5.74-5.07c.59-1.21.93-2.51 1-3.84.09-1.75 1.59-3.08 3.34-3 1.75.09 3.09 1.59 3 3.34-.12 2.19-.67 4.3-1.64 6.28-1.92 3.92-5.24 6.87-9.37 8.29-1.75.61-3.54.9-5.33.9z"/></g><g><path class="st11" d="M574.02 289.7c-3.29 0-6.5-.99-9.26-2.9l-17.23-11.91c-7.41-5.12-9.28-15.33-4.15-22.74 5.12-7.41 15.33-9.28 22.74-4.15l9.33 6.45c1.44 1 1.8 2.97.81 4.41-1 1.44-2.97 1.8-4.41.81l-9.33-6.45c-4.54-3.14-10.78-2-13.91 2.54-3.14 4.54-2 10.78 2.54 13.91l17.23 11.91a9.923 9.923 0 0 0 7.48 1.61 9.92 9.92 0 0 0 6.43-4.15 9.991 9.991 0 0 0 1.7-4.41 3.175 3.175 0 1 1 6.3.8c-.33 2.57-1.29 5.07-2.77 7.22-2.48 3.59-6.21 6-10.51 6.79-1.01.17-2 .26-2.99.26z"/></g><g><path class="st11" d="M510.87 255.53c-2.89 0-5.82-.77-8.47-2.38l-17.9-10.89a16.232 16.232 0 0 1-7.38-10.1c-1.03-4.24-.35-8.63 1.92-12.36 2.27-3.73 5.86-6.35 10.1-7.38 4.24-1.03 8.63-.35 12.36 1.92l9.69 5.9a3.17 3.17 0 0 1 1.06 4.36 3.17 3.17 0 0 1-4.36 1.06l-9.69-5.9a9.885 9.885 0 0 0-7.56-1.17c-2.6.63-4.79 2.24-6.18 4.52-1.39 2.28-1.81 4.97-1.17 7.56s2.24 4.79 4.52 6.18l17.9 10.89c4.71 2.87 10.88 1.37 13.74-3.35.84-1.38 1.33-2.9 1.44-4.5a3.176 3.176 0 0 1 3.38-2.95 3.17 3.17 0 0 1 2.95 3.38c-.18 2.59-.99 5.14-2.35 7.36-3.08 5.06-8.48 7.85-14 7.85z"/></g><g><path class="st11" d="M457.98 208.13c-2.89 0-5.82-.77-8.47-2.38l-17.9-10.89c-7.7-4.69-10.15-14.76-5.47-22.46 4.68-7.7 14.76-10.15 22.46-5.47l9.69 5.9a3.17 3.17 0 0 1 1.06 4.36 3.17 3.17 0 0 1-4.36 1.06l-9.69-5.9c-4.71-2.87-10.88-1.37-13.74 3.34-2.87 4.71-1.37 10.88 3.34 13.74l17.9 10.89c4.71 2.87 10.88 1.37 13.74-3.35.84-1.38 1.33-2.9 1.44-4.5a3.164 3.164 0 0 1 3.38-2.95 3.17 3.17 0 0 1 2.95 3.38c-.18 2.59-.99 5.14-2.35 7.36-3.06 5.07-8.46 7.87-13.98 7.87z"/></g><g><path class="st11" d="M841.59 266.47c-1.49 0-2.82-1.05-3.11-2.57a16.51 16.51 0 0 1-.3-3.29c.09-8.96 7.41-16.18 16.34-16.18h.17l4.35.04a3.171 3.171 0 0 1-.03 6.34h-.03l-4.35-.04h-.1c-5.47 0-9.94 4.42-10 9.9-.01.68.05 1.36.18 2.02a3.18 3.18 0 0 1-3.12 3.78z"/></g><g><path class="st18" d="M838.12 283.91c-.8 0-1.6-.06-2.41-.18l-20.72-3.08c-4.52-.67-8.58-3.23-11.14-7.02a3.169 3.169 0 1 1 5.25-3.55c1.57 2.32 4.05 3.89 6.82 4.3l20.72 3.08c5.45.81 10.55-2.97 11.36-8.42.81-5.45-2.97-10.55-8.42-11.36l-20.72-3.08a3.17 3.17 0 0 1 .93-6.27l20.72 3.08c8.91 1.32 15.09 9.66 13.76 18.57-1.2 8.09-8.19 13.93-16.15 13.93z"/></g><g><path class="st18" d="M878.04 262.48c-1.06 0-2.09-.53-2.69-1.49-.58-.93-1.08-1.93-1.47-2.96-3.16-8.44 1.13-17.88 9.57-21.04l4.32-1.62c1.64-.61 3.47.22 4.08 1.86.62 1.64-.22 3.47-1.86 4.08l-4.32 1.62c-5.16 1.93-7.79 7.71-5.86 12.88.24.64.54 1.25.9 1.82.93 1.48.48 3.44-1 4.37-.51.32-1.09.48-1.67.48z"/></g><g><path class="st11" d="M875.48 277.33h-.17l-20.95-.21c-7.73-.08-14.41-5.64-15.88-13.22a3.18 3.18 0 0 1 2.51-3.72 3.18 3.18 0 0 1 3.72 2.51c.9 4.63 4.99 8.03 9.72 8.08l20.95.21c2.66.03 5.19-.99 7.1-2.86a9.937 9.937 0 0 0 3-7.04c.03-2.67-.99-5.19-2.86-7.1a9.937 9.937 0 0 0-7.04-3l-16.6-.17a3.171 3.171 0 0 1 .03-6.34h.03l16.6.17c4.37.04 8.45 1.79 11.51 4.9 3.06 3.12 4.71 7.24 4.67 11.61-.04 4.37-1.79 8.45-4.9 11.51a16.254 16.254 0 0 1-11.44 4.67z"/></g><g><path class="st11" d="M919.26 248.15c-3.73 0-7.45-1.26-10.46-3.77a3.172 3.172 0 0 1-.4-4.47 3.18 3.18 0 0 1 4.47-.4c3.62 3.03 8.94 3.08 12.64.13l16.38-13.06c4.31-3.44 5.02-9.74 1.58-14.06-3.44-4.31-9.75-5.02-14.06-1.58l-12.98 10.35a3.177 3.177 0 0 1-4.46-.5 3.177 3.177 0 0 1 .5-4.46l12.98-10.35c7.05-5.62 17.35-4.46 22.97 2.58 5.62 7.05 4.46 17.35-2.58 22.97l-16.38 13.06a16.307 16.307 0 0 1-10.2 3.56z"/></g><g><path class="st18" d="M889.23 268.63c-5.5 0-10.83-2.78-13.87-7.64a3.173 3.173 0 0 1 1-4.37c1.48-.93 3.44-.48 4.37 1 2.51 4 7.54 5.7 11.98 4.04l19.62-7.35a9.92 9.92 0 0 0 5.59-5.22c1.11-2.43 1.2-5.15.26-7.65-1.94-5.16-7.71-7.79-12.88-5.86l-15.3 5.73c-1.64.61-3.47-.22-4.08-1.86-.61-1.64.22-3.47 1.86-4.08l15.3-5.73c8.44-3.16 17.88 1.13 21.04 9.57 1.53 4.09 1.38 8.53-.43 12.5a16.275 16.275 0 0 1-9.14 8.54l-19.62 7.35c-1.87.7-3.8 1.03-5.7 1.03z"/></g><g><path class="st18" d="M950.51 226.85c-4.75 0-9.42-2.05-12.6-5.88a3.174 3.174 0 1 1 4.89-4.05c3.02 3.63 8.23 4.65 12.4 2.42l18.48-9.87a9.941 9.941 0 0 0 4.86-5.92c.78-2.56.51-5.26-.75-7.62a9.941 9.941 0 0 0-5.92-4.86 9.923 9.923 0 0 0-7.62.75l-14.41 7.7a3.169 3.169 0 1 1-2.99-5.59l14.41-7.7c3.85-2.06 8.27-2.49 12.45-1.23 4.18 1.27 7.61 4.09 9.67 7.94 4.25 7.95 1.24 17.87-6.71 22.12l-18.48 9.87c-2.43 1.3-5.07 1.92-7.68 1.92z"/></g><g><path class="st18" d="M1014.54 187.22c-6.37 0-12.35-3.75-14.98-9.75-.7-1.6.02-3.47 1.63-4.18 1.6-.71 3.47.02 4.18 1.63 1.9 4.32 6.64 6.74 11.26 5.74l20.48-4.41c5.39-1.16 8.83-6.49 7.67-11.88-1.16-5.39-6.5-8.83-11.88-7.67l-15.97 3.44a3.17 3.17 0 0 1-3.77-2.43c-.37-1.71.72-3.4 2.43-3.77l15.97-3.44c8.81-1.9 17.52 3.72 19.42 12.53 1.9 8.81-3.72 17.52-12.53 19.42l-20.48 4.41c-1.15.25-2.3.36-3.43.36z"/></g><g><path class="st18" d="M556.53 258.99h-.17a3.176 3.176 0 0 1-3-3.34 9.976 9.976 0 0 0-5.6-9.53l-7-3.42a3.174 3.174 0 0 1-1.46-4.24 3.174 3.174 0 0 1 4.24-1.46l7 3.42c5.92 2.89 9.51 9 9.15 15.58a3.168 3.168 0 0 1-3.16 2.99z"/></g><g><path class="st18" d="M484.45 234.23c-4.75 0-9.46-2.05-12.69-6.02l-13.23-16.24c-5.69-6.99-4.64-17.3 2.35-22.99 6.99-5.69 17.3-4.64 22.99 2.35l8.31 10.2c1.11 1.36.9 3.36-.46 4.46-1.36 1.11-3.36.9-4.46-.46l-8.31-10.2c-3.48-4.28-9.79-4.92-14.07-1.44-4.28 3.48-4.92 9.79-1.44 14.07l13.23 16.24c3.48 4.28 9.79 4.92 14.07 1.44 1.05-.85 1.9-1.89 2.52-3.07a3.173 3.173 0 1 1 5.61 2.97 16.213 16.213 0 0 1-4.12 5.02 16.213 16.213 0 0 1-10.3 3.67z"/></g><g><path class="st18" d="M421.28 194.89c-2.62 0-5.22-.64-7.61-1.9l-18.53-9.78c-3.86-2.04-6.7-5.46-7.99-9.63a16.24 16.24 0 0 1 1.16-12.46c4.21-7.97 14.11-11.03 22.08-6.82l11.64 6.14a3.173 3.173 0 1 1-2.97 5.61l-11.64-6.14c-4.88-2.57-10.94-.7-13.51 4.18a9.913 9.913 0 0 0-.71 7.62 9.903 9.903 0 0 0 4.89 5.89l18.53 9.78a9.913 9.913 0 0 0 7.62.71 9.903 9.903 0 0 0 5.89-4.89c.63-1.2 1.01-2.48 1.12-3.81a3.178 3.178 0 0 1 3.43-2.89c1.74.15 3.04 1.69 2.89 3.43-.19 2.18-.8 4.28-1.83 6.23-2.04 3.86-5.46 6.7-9.63 7.99-1.58.5-3.21.74-4.83.74z"/></g><g><path class="st11" d="M910.83 245.12c-.72 0-1.44-.24-2.03-.74-.85-.71-1.62-1.5-2.31-2.37a16.231 16.231 0 0 1-3.46-12.02c.49-4.34 2.64-8.23 6.05-10.95l3.4-2.71a3.177 3.177 0 0 1 4.46.5c1.09 1.37.87 3.36-.5 4.46l-3.4 2.71a9.951 9.951 0 0 0-3.7 6.7c-.3 2.65.45 5.27 2.12 7.36.42.53.9 1.02 1.42 1.45a3.18 3.18 0 0 1 .4 4.47c-.65.75-1.55 1.14-2.45 1.14z"/></g><g><path class="st11" d="M972.67 204.56c-.78 0-1.56-.29-2.18-.87-.8-.75-1.53-1.6-2.16-2.5-2.51-3.57-3.47-7.91-2.72-12.21.75-4.3 3.14-8.05 6.71-10.56l3.56-2.5a3.174 3.174 0 0 1 4.42.77c1.01 1.43.66 3.41-.77 4.42l-3.56 2.5a9.916 9.916 0 0 0-4.11 6.46 9.96 9.96 0 0 0 1.66 7.47c.39.56.84 1.07 1.33 1.54 1.27 1.2 1.33 3.21.13 4.48-.63.67-1.47 1-2.31 1z"/></g><g><path class="st11" d="M471.16 195.87c-.07 0-.15 0-.22-.01a3.17 3.17 0 0 1-2.95-3.38 9.962 9.962 0 0 0-4.78-9.24l-8.2-4.99a3.17 3.17 0 0 1-1.06-4.36 3.17 3.17 0 0 1 4.36-1.06l8.2 4.99c5.24 3.19 8.23 8.97 7.81 15.09a3.176 3.176 0 0 1-3.16 2.96z"/></g><path class="st1" d="m1048.08 565.65-16.86-6.7a3.979 3.979 0 0 0-3.93.57l-14.24 11.25a3.996 3.996 0 0 0-1.47 3.69l2.63 17.96c.21 1.4 1.14 2.59 2.46 3.11l16.86 6.7c1.32.52 2.82.31 3.93-.57l14.24-11.26a3.996 3.996 0 0 0 1.47-3.69l-2.63-17.96a3.997 3.997 0 0 0-2.46-3.1z"/><path class="st5" d="m555.18 540.71 9.99 26.4c1.08 2.86 4.85 3.48 6.79 1.11l17.87-21.85c1.94-2.37.58-5.94-2.43-6.43l-27.87-4.55c-3.01-.5-5.43 2.46-4.35 5.32z"/><path class="st1" d="m355.31 93.74-19.29 20.62c-2.09 2.23-.98 5.89 2 6.58l27.5 6.39c2.98.69 5.59-2.1 4.7-5.02l-8.21-27.01c-.89-2.93-4.61-3.79-6.7-1.56z"/></svg>