<svg xmlns="http://www.w3.org/2000/svg" xmlns:xlink="http://www.w3.org/1999/xlink" viewBox="0 0 512 512"><defs/><defs><linearGradient id="a" x1="48" x2="467.2" y1="259.7" y2="259.7" gradientUnits="userSpaceOnUse"><stop offset="0" stop-color="#6d276b"/><stop offset=".3" stop-color="#6b2669"/><stop offset=".5" stop-color="#632464"/><stop offset=".7" stop-color="#55215a"/><stop offset=".7" stop-color="#522058"/></linearGradient><linearGradient id="b" x1="365.3" x2="39.3" y1="41.5" y2="367.5" xlink:href="#a"/></defs><g style="isolation:isolate"><path fill="url(#a)" d="M272 26a28 28 0 00-29 0L62 131a28 28 0 00-14 24v209a28 28 0 0014 25l181 105a28 28 0 0029 0l181-105a28 28 0 0014-25V155"/><path fill="url(#b)" d="M467 155a28 28 0 00-14-24L272 26a28 28 0 00-29 0L62 131a28 28 0 00-14 24v209a28 28 0 0014 25z"/><path fill="#fff" d="M115 230s5-36 40-55 59-5 59-5 19-18 35-22c0 0 10-5 10 4v19a6 6 0 01-3 6 66 66 0 00-30 26s-4 5-9 2c0 0-32-25-62 7 0 0-11 11-10 32 0 0 2 9-5 10s-34 8-33 40c0 0 3 33 39 33h81v-43h-25s-9 1-7-7a10 10 0 011-3l53-65s4-4 8-2a7 7 0 012 6v138s1 6-5 6h-96s-56 5-77-42c0 0-23-51 34-85zM270 150s-1-7 9-8c0 0 71-3 100 67 0 0 56 15 56 74 0 0 2 74-73 74h-83s-9 2-9-7v-16s-1-6 7-7h81s45 2 47-43c0 0 3-41-43-48 0 0-10 1-10-8s-14-40-50-53v60h26s9 0 7 9l-54 66s-9 9-11-3z"/></g></svg>