<svg xmlns="http://www.w3.org/2000/svg" viewBox="0 0 512 512">
  <defs/>
  <path fill="#522058" d="M0 0h512v512H0z"/>
  <path fill="#fff" d="M469 362V153a28 28 0 00-15-25L273 24a28 28 0 00-28 0L63 128a28 28 0 00-14 25v209a28 28 0 0014 25l182 105a28 28 0 0028 0l181-105a28 28 0 0015-25z"/>
  <path fill="#522058" d="M117 228s4-36 39-55 59-5 59-5 20-18 35-22c0 0 11-5 11 4v19a6 6 0 01-4 6 66 66 0 00-30 26s-4 5-8 2c0 0-32-25-62 7 0 0-12 11-11 32 0 0 2 9-5 10s-34 7-33 40c0 0 4 33 40 33h80v-43h-25s-9 1-7-7a10 10 0 011-3l53-65s5-4 8-2a7 7 0 013 6v138s0 6-5 6h-97s-55 5-76-42c0 0-24-51 34-85zM271 148s-1-7 9-8c0 0 72-3 100 67 0 0 56 15 56 74 0 0 2 74-73 74h-83s-9 2-9-7v-16s-1-6 8-7h80s46 2 47-43c0 0 3-42-43-48 0 0-10 1-9-8s-15-40-50-53v60h25s10 0 7 9l-54 66s-9 9-11-3z"/>
</svg>
