<svg viewBox="0 0 14 15" width="36" height="36">
    <path d="M7.00016 0.860001C3.3335 0.860001 0.333496 3.85333 0.333496 7.54C0.333496 10.8733 2.7735 13.64 5.96016 14.14V9.47333H4.26683V7.54H5.96016V6.06667C5.96016 4.39333 6.9535 3.47333 8.48016 3.47333C9.20683 3.47333 9.96683 3.6 9.96683 3.6V5.24667H9.12683C8.30016 5.24667 8.04016 5.76 8.04016 6.28667V7.54H9.8935L9.5935 9.47333H8.04016V14.14C9.61112 13.8919 11.0416 13.0903 12.0734 11.88C13.1053 10.6697 13.6704 9.13043 13.6668 7.54C13.6668 3.85333 10.6668 0.860001 7.00016 0.860001Z"
          fill="rgb(0, 107, 250)"/>
</svg>