<svg width="36" height="36" viewBox="0 0 36 36" fill="none" xmlns="http://www.w3.org/2000/svg">
    <path d="M18 9.91406C13.5 9.91406 9.91406 13.5703 9.91406 18C9.91406 22.5 13.5 26.0859 18 26.0859C22.4297 26.0859 26.0859 22.5 26.0859 18C26.0859 13.5703 22.4297 9.91406 18 9.91406ZM18 23.2734C15.1172 23.2734 12.7266 20.9531 12.7266 18C12.7266 15.1172 15.0469 12.7969 18 12.7969C20.8828 12.7969 23.2031 15.1172 23.2031 18C23.2031 20.9531 20.8828 23.2734 18 23.2734ZM28.2656 9.63281C28.2656 8.57812 27.4219 7.73438 26.3672 7.73438C25.3125 7.73438 24.4688 8.57812 24.4688 9.63281C24.4688 10.6875 25.3125 11.5312 26.3672 11.5312C27.4219 11.5312 28.2656 10.6875 28.2656 9.63281ZM33.6094 11.5312C33.4688 9 32.9062 6.75 31.0781 4.92188C29.25 3.09375 27 2.53125 24.4688 2.39062C21.8672 2.25 14.0625 2.25 11.4609 2.39062C8.92969 2.53125 6.75 3.09375 4.85156 4.92188C3.02344 6.75 2.46094 9 2.32031 11.5312C2.17969 14.1328 2.17969 21.9375 2.32031 24.5391C2.46094 27.0703 3.02344 29.25 4.85156 31.1484C6.75 32.9766 8.92969 33.5391 11.4609 33.6797C14.0625 33.8203 21.8672 33.8203 24.4688 33.6797C27 33.5391 29.25 32.9766 31.0781 31.1484C32.9062 29.25 33.4688 27.0703 33.6094 24.5391C33.75 21.9375 33.75 14.1328 33.6094 11.5312ZM30.2344 27.2812C29.7422 28.6875 28.6172 29.7422 27.2812 30.3047C25.1719 31.1484 20.25 30.9375 18 30.9375C15.6797 30.9375 10.7578 31.1484 8.71875 30.3047C7.3125 29.7422 6.25781 28.6875 5.69531 27.2812C4.85156 25.2422 5.0625 20.3203 5.0625 18C5.0625 15.75 4.85156 10.8281 5.69531 8.71875C6.25781 7.38281 7.3125 6.32812 8.71875 5.76562C10.7578 4.92188 15.6797 5.13281 18 5.13281C20.25 5.13281 25.1719 4.92188 27.2812 5.76562C28.6172 6.25781 29.6719 7.38281 30.2344 8.71875C31.0781 10.8281 30.8672 15.75 30.8672 18C30.8672 20.3203 31.0781 25.2422 30.2344 27.2812Z"
          fill="url(#paint0_linear)"></path>
    <defs>
        <linearGradient id="paint0_linear" x1="13.4367" y1="62.5289" x2="79.7836" y2="-5.19609"
                        gradientUnits="userSpaceOnUse">
            <stop stop-color="white"></stop>
            <stop offset="0.147864" stop-color="#F6640E"></stop>
            <stop offset="0.443974" stop-color="#BA03A7"></stop>
            <stop offset="0.733337" stop-color="#6A01B9"></stop>
            <stop offset="1" stop-color="#6B01B9"></stop>
        </linearGradient>
    </defs>
</svg>