<svg width="36" height="36" viewBox="0 0 36 36" fill="none" xmlns="http://www.w3.org/2000/svg">
    <path d="M33.6905 9C32.5355 9.525 31.2905 9.87 30.0005 10.035C31.3205 9.24 32.3405 7.98 32.8205 6.465C31.5755 7.215 30.1955 7.74 28.7405 8.04C27.5555 6.75 25.8905 6 26.0005 6C20.4755 6 17.5955 8.88 17.5955 12.435C17.5955 12.945 17.6555 13.44 17.7605 13.905C12.4205 13.635 7.66555 11.07 4.50055 7.185C3.94555 8.13 3.63055 9.24 3.63055 10.41C3.63055 12.645 4.75555 14.625 6.49555 15.75C5.43055 15.75 4.44055 15.45 3.57055 15V15.045C3.57055 18.165 5.79055 20.775 8.73055 21.36C7.78664 21.6183 6.79569 21.6543 5.83555 21.465C6.24296 22.7437 7.04085 23.8626 8.11707 24.6644C9.19329 25.4662 10.4937 25.9105 11.8355 25.935C9.56099 27.7357 6.74154 28.709 3.84055 28.695C3.33055 28.695 2.82055 28.665 2.31055 28.605C5.16055 30.435 8.55055 31.5 12.1805 31.5C26.0005 31.5 30.4955 21.69 30.4955 13.185C30.4955 12.9 30.4955 12.63 30.4805 12.345C31.7405 11.445 32.8205 10.305 33.6905 9Z"
          fill="#1B90EF"/>
</svg>