<svg xmlns="http://www.w3.org/2000/svg" xmlns:xlink="http://www.w3.org/1999/xlink" viewBox="0 0 800 600"><g transform="matrix(.08333 0 0 .08826 0 544)"><path fill="#fff" d="M0-6168h9600V630H0Z"/><g id="b" transform="matrix(1.09036 0 0 1 0 -5800)"><path id="a" fill="#003da5" stroke-width=".9" d="M3748-368v2871H0V-368ZM2164 1497v-121h-108c0-62 30-122 62-141 18-16 61-23 97-4 48 27 51 105 26 141 228-42 206-262 128-342-63-65-131-74-184-54-120 43-200 186-204 400h-63c0-194 34-256 122-501 45-115 18-257-61-388-29-47-65-89-105-135-40 46-76 88-105 135-79 131-106 273-61 388 88 245 122 307 122 501h-63c-3-214-84-357-204-400-52-20-121-11-184 54-77 80-100 300 128 342-25-36-22-114 26-141 37-19 79-12 97 4 32 19 62 79 62 141h-107v121h223c-2 62-36 111-99 138 8 27 46 80 99 76 10 57 19 88 66 140 47-52 56-83 67-140 52 4 91-49 98-76-63-27-97-76-99-138z"/><use xlink:href="#a" width="100%" height="100%" x="5600" transform="translate(-544)"/></g><use xlink:href="#b" width="100%" height="100%" y="4000" transform="translate(0 -67)"/></g></svg>