<svg width="32" height="32" viewBox="0 0 32 32" xmlns="http://www.w3.org/2000/svg">
    <path d="M18.19 11.087c-.235-.206-.54-.337-.878-.337-.724 0-1.312.588-1.312 1.313 0 .387.17.73.438.972l1.83 1.652H10.31C9.588 14.687 9 15.275 9 16s.588 1.313 1.313 1.313h7.954l-1.833 1.65c-.263.243-.434.587-.434.974 0 .725.588 1.313 1.313 1.313.337 0 .642-.13.875-.34l4.378-3.934c.263-.244.434-.588.434-.976s-.17-.732-.438-.972l-4.37-3.94zM16 2C8.268 2 2 8.268 2 16s6.268 14 14 14 14-6.268 14-14S23.732 2 16 2zm0 25.375C9.718 27.375 4.625 22.282 4.625 16S9.718 4.625 16 4.625 27.375 9.718 27.375 16 22.282 27.375 16 27.375z"
          fill="#FFF" opacity="1" fill-rule="evenodd"/>
</svg>