<svg width="28" height="28" viewBox="0 0 28 28" fill="none" xmlns="http://www.w3.org/2000/svg">
<g clip-path="url(#clip0_3397_2072)">
<path d="M14 28C21.732 28 28 21.732 28 14C28 6.26801 21.732 0 14 0C6.26801 0 0 6.26801 0 14C0 21.732 6.26801 28 14 28Z" fill="white"/>
<path d="M14.2445 17.3775C14.2039 17.3444 14.1645 17.3098 14.1263 17.2737C13.5637 17.8134 12.8836 18.2313 12.1279 18.4854C12.6578 18.9049 13.2523 19.2461 13.8937 19.4928C13.7551 19.2448 13.6755 18.9592 13.6755 18.6549C13.6755 18.1478 13.8953 17.6919 14.2445 17.3772V17.3775Z" fill="#FBF060"/>
<path d="M21.8963 15.6576C22.13 15.6576 22.3555 15.6927 22.5679 15.7579C22.8949 14.9644 23.076 14.0954 23.076 13.1837C23.076 10.5501 21.5693 8.26856 19.3711 7.15356C19.6196 7.8554 19.7552 8.61077 19.7552 9.39771C19.7552 11.38 18.8976 13.1619 17.5331 14.3929C17.7707 14.7489 17.9091 15.177 17.9091 15.6372C17.9091 16.4819 17.4424 17.2179 16.7527 17.601C16.979 17.8922 17.1141 18.2576 17.1141 18.6549C17.1141 19.1645 16.8921 19.6224 16.5396 19.9373C17.747 19.8984 18.8744 19.5431 19.8414 18.9508C19.6924 18.6473 19.6088 18.3058 19.6088 17.9449C19.6088 16.6817 20.6328 15.6576 21.8961 15.6576H21.8963Z" fill="#FBF060"/>
<path d="M22.5676 15.7578C22.0185 17.0892 21.0568 18.2068 19.8413 18.951C20.2136 19.7099 20.9937 20.2325 21.896 20.2325C23.1593 20.2325 24.1834 19.2084 24.1834 17.9451C24.1834 16.9155 23.503 16.045 22.5673 15.7581H22.5676V15.7578Z" fill="#FBF060"/>
<path d="M22.5675 15.758C22.3551 15.6928 22.1298 15.6577 21.896 15.6577C20.6327 15.6577 19.6086 16.6818 19.6086 17.945C19.6086 18.3059 19.6925 18.6474 19.8412 18.9509C21.0568 18.2067 22.0185 17.0892 22.5675 15.7577V15.758Z" fill="#FBF060"/>
<path d="M19.4587 24.7658C20.2723 24.7658 20.9318 24.1063 20.9318 23.2927C20.9318 22.4791 20.2723 21.8196 19.4587 21.8196C18.6451 21.8196 17.9856 22.4791 17.9856 23.2927C17.9856 24.1063 18.6451 24.7658 19.4587 24.7658Z" fill="#FBF060"/>
<path d="M10.4203 8.05468C10.8741 8.05468 11.3148 8.1115 11.7355 8.21757C12.9399 7.1056 14.5494 6.42599 16.318 6.42599C17.4166 6.42599 18.4538 6.68839 19.3708 7.15358C18.4467 4.54274 15.9566 2.67212 13.0291 2.67212C9.31461 2.67212 6.30322 5.68325 6.30322 9.39798C6.30322 9.58663 6.3113 9.77326 6.32671 9.95788C7.30887 8.79414 8.77819 8.05468 10.4203 8.05468Z" fill="#76CBC6"/>
<path d="M11.7356 8.2176C14.0522 8.80276 15.768 10.8976 15.7746 13.3946C16.5083 13.4304 17.1495 13.8184 17.5326 14.3929C18.8971 13.162 19.7548 11.38 19.7548 9.39776C19.7548 8.61082 19.6191 7.85545 19.3706 7.15362C18.4536 6.68842 17.4164 6.42603 16.3178 6.42603C14.5492 6.42603 12.9398 7.10563 11.7354 8.2176H11.7356Z" fill="#75C592"/>
<path d="M14.1233 23.9974C14.7151 23.9974 15.1949 23.5176 15.1949 22.9258C15.1949 22.334 14.7151 21.8542 14.1233 21.8542C13.5315 21.8542 13.0518 22.334 13.0518 22.9258C13.0518 23.5176 13.5315 23.9974 14.1233 23.9974Z" fill="#76CBC6"/>
<path d="M14.1262 17.2736C14.1644 17.3095 14.2038 17.3441 14.2444 17.3774C14.549 17.1029 14.9523 16.9357 15.3945 16.9357C15.9466 16.9357 16.4378 17.1964 16.7522 17.6009C17.4419 17.2178 17.9086 16.4819 17.9086 15.6371C17.9086 15.1767 17.77 14.7489 17.5326 14.3928C16.8724 14.9883 16.0936 15.4548 15.2357 15.7525C14.9571 16.3238 14.58 16.8382 14.1262 17.2736Z" fill="#75C592"/>
<path d="M15.7748 13.3945V13.4092C15.7748 14.2497 15.5808 15.0449 15.2358 15.7528C16.0937 15.4551 16.8726 14.9886 17.5328 14.3931C17.1494 13.8186 16.5084 13.4306 15.7748 13.3948V13.3945Z" fill="#75C592"/>
<path d="M13.8938 19.4932C14.1878 20.0187 14.7497 20.3743 15.3949 20.3743C15.8346 20.3743 16.2357 20.2089 16.5397 19.9374C16.4663 19.9397 16.3925 19.9414 16.3183 19.9414C15.4639 19.9414 14.6466 19.7823 13.8941 19.4932H13.8938Z" fill="#76CBC6"/>
<path d="M17.114 18.6551C17.114 18.2578 16.9789 17.8924 16.7526 17.6012C16.4301 17.7805 16.0588 17.8828 15.6636 17.8828C15.1254 17.8828 14.6314 17.6934 14.2448 17.3777C13.8955 17.6924 13.6758 18.1482 13.6758 18.6553C13.6758 18.9596 13.7551 19.2453 13.894 19.4933C14.6466 19.7827 15.4638 19.9416 16.3182 19.9416C16.3924 19.9416 16.4662 19.94 16.5397 19.9375C16.8922 19.6226 17.1142 19.165 17.1142 18.6551H17.114Z" fill="#75C592"/>
<path d="M15.395 16.9358C14.9528 16.9358 14.5494 17.103 14.2449 17.3775C14.6315 17.6932 15.1255 17.8826 15.6637 17.8826C16.0589 17.8826 16.4302 17.7803 16.7527 17.601C16.4383 17.1964 15.947 16.9358 15.395 16.9358Z" fill="#75C592"/>
<path d="M9.91939 15.3625C7.92679 14.3215 6.5206 12.3115 6.32665 9.95776C5.53996 10.8899 5.06567 12.0941 5.06567 13.4091C5.06567 14.6504 5.48819 15.7926 6.19684 16.7008C6.52338 16.4682 6.92241 16.3308 7.35376 16.3308C8.45638 16.3308 9.35015 17.2246 9.35015 18.3272C9.35015 18.4376 9.34081 18.5457 9.32363 18.651C9.67771 18.7247 10.0444 18.7636 10.4204 18.7636C11.0175 18.7636 11.5918 18.6659 12.1282 18.4853C11.119 17.6867 10.3432 16.6061 9.91965 15.3623H9.91939V15.3625Z" fill="#F15B5C"/>
<path d="M13.468 16.1088C13.3228 16.1182 13.1765 16.1235 13.0291 16.1235C11.907 16.1235 10.8496 15.8485 9.91943 15.3625C10.343 16.6063 11.1188 17.6867 12.128 18.4856C12.8836 18.2315 13.5637 17.8135 14.1264 17.2738C13.7998 16.967 13.5652 16.5634 13.468 16.1091V16.1088Z" fill="#F1582A"/>
<path d="M9.91941 15.3627C9.68656 14.679 9.56028 13.9461 9.56028 13.1837C9.56028 11.2201 10.3982 9.45229 11.7355 8.21758C11.3147 8.11126 10.874 8.05469 10.4202 8.05469C8.77814 8.05469 7.30882 8.79415 6.32666 9.95789C6.52062 12.3116 7.9268 14.3217 9.91941 15.3627Z" fill="#CA4F4A"/>
<path d="M15.6636 13.392C15.701 13.392 15.7379 13.393 15.7747 13.3948C15.7682 10.8978 14.0524 8.80293 11.7357 8.21777C10.3982 9.45248 9.56055 11.2201 9.56055 13.1839C9.56055 13.9463 9.68682 14.6792 9.91967 15.3629C10.8498 15.8488 11.9072 16.1238 13.0293 16.1238C13.1768 16.1238 13.323 16.1185 13.4682 16.1091C13.4356 15.9571 13.4185 15.7993 13.4185 15.6374C13.4185 14.3974 14.4239 13.392 15.6639 13.392H15.6636Z" fill="#C94E35"/>
<path d="M15.2359 15.7529C14.6765 15.9471 14.0835 16.0694 13.468 16.1093C13.5652 16.5639 13.7999 16.9672 14.1264 17.274C14.5802 16.8389 14.9573 16.3244 15.2359 15.7529Z" fill="#C94E35"/>
<path d="M15.7747 13.4093V13.3946C15.7379 13.3929 15.701 13.3918 15.6636 13.3918C14.4236 13.3918 13.4182 14.3972 13.4182 15.6372C13.4182 15.7991 13.4354 15.957 13.468 16.109C14.0834 16.0694 14.6764 15.9471 15.2358 15.7527C15.581 15.0448 15.7747 14.2498 15.7747 13.409V13.4093Z" fill="#C94E35"/>
<path d="M6.19689 16.7009C5.68902 17.0628 5.35742 17.6563 5.35742 18.3273C5.35742 19.43 6.25119 20.3237 7.35381 20.3237C8.34608 20.3237 9.16888 19.5997 9.32369 18.6511C8.06145 18.3885 6.96236 17.6813 6.19689 16.7007V16.7009Z" fill="#F15B5C"/>
<path d="M7.3537 16.3308C6.92235 16.3308 6.52332 16.4682 6.19678 16.7008C6.962 17.6814 8.06134 18.3883 9.32357 18.6512C9.34075 18.5457 9.35009 18.4376 9.35009 18.3275C9.35009 17.2248 8.45632 16.3311 7.3537 16.3311V16.3308Z" fill="#F15B5C"/>
<path d="M8.70553 24.3989C9.51911 24.3989 10.1786 23.7393 10.1786 22.9258C10.1786 22.1122 9.51911 21.4526 8.70553 21.4526C7.89196 21.4526 7.23242 22.1122 7.23242 22.9258C7.23242 23.7393 7.89196 24.3989 8.70553 24.3989Z" fill="#F15B5C"/>
</g>
<defs>
<clipPath id="clip0_3397_2072">
<rect width="28" height="28" fill="white"/>
</clipPath>
</defs>
</svg>
