<svg width="78" height="99" fill="none" xmlns="http://www.w3.org/2000/svg"><g filter="url(#filter0_d)"><rect x="2" y="1" width="74" height="95" rx="3" fill="#fff"/></g><rect x="12" y="11" width="54" height="38" rx="1.543" fill="#AAAEB1"/><rect x="12.001" y="57" width="32.143" height="3.36" rx="1.68" fill="#AAAEB1"/><rect x="12" y="79" width="29" height="9" rx="1" fill="#317CB5"/><path d="M16.472 85l.292-.824h1.176l.293.824h.37l-1.069-2.91h-.363L16.102 85h.37zm.403-1.136l.466-1.313h.023l.465 1.313h-.954zm2.959 1.181c.42 0 .562-.26.636-.38h.04V85h.324v-2.91h-.335v1.075h-.029c-.074-.114-.204-.375-.63-.375-.552 0-.932.437-.932 1.125 0 .693.38 1.13.926 1.13zm.045-.3c-.42 0-.636-.37-.636-.836 0-.46.21-.818.636-.818.41 0 .625.33.625.818 0 .494-.221.835-.625.835zm2.44.3c.42 0 .562-.26.636-.38h.04V85h.323v-2.91h-.335v1.075h-.029c-.073-.114-.204-.375-.63-.375-.551 0-.932.437-.932 1.125 0 .693.38 1.13.926 1.13zm.045-.3c-.42 0-.637-.37-.637-.836 0-.46.21-.818.637-.818.409 0 .625.33.625.818 0 .494-.222.835-.625.835zm3.689-1.927h-.466v-.522h-.336v.522h-.33v.284h.33v1.364c0 .38.307.562.591.562a.696.696 0 00.25-.04l-.068-.3c-.028.005-.074.016-.148.016-.147 0-.29-.045-.29-.329v-1.273h.467v-.284zm1.367 2.228c.59 0 .988-.45.988-1.126 0-.681-.397-1.13-.988-1.13s-.989.449-.989 1.13c0 .677.398 1.126.989 1.126zm0-.302c-.45 0-.654-.386-.654-.823 0-.438.205-.83.654-.83.449 0 .653.392.653.83 0 .437-.204.823-.653.823zm3.511.302c.483 0 .802-.296.858-.682h-.335c-.062.238-.261.38-.523.38-.397 0-.653-.33-.653-.835 0-.494.261-.818.654-.818.295 0 .471.182.522.38h.335c-.056-.409-.403-.681-.863-.681-.591 0-.983.466-.983 1.13 0 .654.375 1.126.988 1.126zm1.99.005c.381 0 .58-.204.648-.347h.017V85h.336v-1.438c0-.693-.529-.772-.807-.772-.33 0-.705.113-.875.511l.318.114c.074-.16.248-.33.568-.33.308 0 .46.164.46.443v.012c0 .162-.164.147-.562.199-.405.052-.847.142-.847.642 0 .426.33.67.745.67zm.052-.301c-.267 0-.46-.12-.46-.352 0-.256.232-.335.494-.37.142-.017.523-.056.58-.125v.307c0 .273-.217.54-.614.54zm1.56.25h.336v-1.38c0-.296.233-.512.55-.512.09 0 .183.017.205.023v-.341a3.164 3.164 0 00-.176-.006c-.261 0-.489.148-.568.364h-.023v-.33h-.324V85zm2.574-2.182h-.466v-.522h-.335v.522h-.33v.284h.33v1.364c0 .38.307.562.591.562a.696.696 0 00.25-.04l-.068-.3c-.029.005-.074.016-.148.016-.148 0-.29-.045-.29-.329v-1.273h.466v-.284z" fill="#fff"/><path d="M13.777 72.92h.465l.002-.502c.94-.067 1.48-.585 1.482-1.319-.002-.778-.645-1.133-1.32-1.293l-.144-.037.008-1.252c.351.062.577.272.612.588h.782c-.013-.697-.56-1.206-1.39-1.285l.003-.51h-.464l-.003.51c-.822.084-1.413.588-1.411 1.313 0 .645.458 1.015 1.197 1.206l.197.05-.009 1.326c-.392-.061-.675-.285-.704-.682h-.8c.031.822.597 1.311 1.5 1.385l-.003.502zm.472-1.205l.008-1.203c.4.116.654.27.656.58-.002.325-.263.557-.664.623zm-.452-2.065c-.302-.096-.579-.256-.574-.567.002-.283.215-.502.583-.566l-.009 1.133zm4.605 3.27h.465l.002-.502c.94-.067 1.48-.585 1.482-1.319-.002-.778-.645-1.133-1.32-1.293l-.144-.037.009-1.252c.35.062.576.272.611.588h.782c-.013-.697-.56-1.206-1.389-1.285l.002-.51h-.464l-.003.51c-.822.084-1.413.588-1.411 1.313 0 .645.458 1.015 1.197 1.206l.197.05-.009 1.326c-.392-.061-.675-.285-.703-.682h-.8c.03.822.596 1.311 1.499 1.385l-.003.502zm.472-1.205l.009-1.203c.398.116.653.27.655.58-.002.325-.263.557-.664.623zm-.452-2.065c-.302-.096-.578-.256-.574-.567.002-.283.215-.502.583-.566l-.009 1.133zm4.606 3.27h.464l.002-.502c.94-.067 1.48-.585 1.482-1.319-.002-.778-.644-1.133-1.32-1.293l-.144-.037.009-1.252c.35.062.576.272.611.588h.783c-.014-.697-.561-1.206-1.39-1.285l.002-.51h-.464l-.002.51c-.822.084-1.414.588-1.412 1.313 0 .645.458 1.015 1.197 1.206l.197.05-.009 1.326c-.392-.061-.675-.285-.703-.682h-.8c.03.822.596 1.311 1.499 1.385l-.002.502zm.47-1.205l.01-1.203c.398.116.653.27.655.58-.002.325-.263.557-.664.623zm-.45-2.065c-.303-.096-.58-.256-.575-.567.002-.283.215-.502.583-.566l-.009 1.133zm4.605 3.27h.464l.002-.502c.94-.067 1.48-.585 1.482-1.319-.002-.778-.644-1.133-1.32-1.293l-.144-.037.009-1.252c.35.062.576.272.611.588h.783c-.014-.697-.561-1.206-1.39-1.285l.002-.51h-.464l-.002.51c-.822.084-1.414.588-1.412 1.313 0 .645.458 1.015 1.197 1.206l.197.05-.009 1.326c-.392-.061-.675-.285-.703-.682h-.8c.03.822.596 1.311 1.499 1.385l-.002.502zm.47-1.205l.01-1.203c.399.116.653.27.655.58-.002.325-.263.557-.664.623zm-.45-2.065c-.303-.096-.58-.256-.575-.567.002-.283.215-.502.583-.566l-.009 1.133z" fill="#AAAEB1"/><defs><filter id="filter0_d" x="0" y="0" width="78" height="99" filterUnits="userSpaceOnUse" color-interpolation-filters="sRGB"><feFlood flood-opacity="0" result="BackgroundImageFix"/><feColorMatrix in="SourceAlpha" values="0 0 0 0 0 0 0 0 0 0 0 0 0 0 0 0 0 0 127 0"/><feOffset dy="1"/><feGaussianBlur stdDeviation="1"/><feColorMatrix values="0 0 0 0 0 0 0 0 0 0 0 0 0 0 0 0 0 0 0.12 0"/><feBlend in2="BackgroundImageFix" result="effect1_dropShadow"/><feBlend in="SourceGraphic" in2="effect1_dropShadow" result="shape"/></filter></defs></svg>