<svg width="122" height="96" fill="none" xmlns="http://www.w3.org/2000/svg"><g filter="url(#filter0_d)"><rect x="2" y="1" width="118" height="92" rx="3" fill="#fff"/></g><mask id="mask0" maskUnits="userSpaceOnUse" x="2" y="1" width="118" height="92"><rect x="2" y="1" width="118" height="92" rx="3" fill="#fff"/></mask><g mask="url(#mask0)" fill="#CACCCE"><rect x="13" y="11.903" width="44.999" height="21.048" rx="1"/><rect x="13" y="36.581" width="25.833" height="2.177" rx="1.089"/><rect opacity=".5" x="13" y="41.661" width="44.999" height=".726" rx=".363"/><rect opacity=".5" x="13" y="45.291" width="36.666" height=".726" rx=".363"/><rect x="64" y="11.903" width="44.999" height="21.048" rx="1"/><rect x="64" y="36.581" width="25.833" height="2.177" rx="1.089"/><rect opacity=".5" x="64" y="41.661" width="44.999" height=".726" rx=".363"/><rect opacity=".5" x="64" y="45.291" width="36.666" height=".726" rx=".363"/><rect x="13" y="58" width="44.999" height="21.048" rx="1"/><rect x="13" y="82.677" width="25.833" height="2.177" rx="1.089"/><rect opacity=".5" x="13" y="87.758" width="44.999" height=".726" rx=".363"/><rect opacity=".5" x="13" y="91.387" width="36.666" height=".726" rx=".363"/><rect x="64" y="58" width="44.999" height="21.048" rx="1"/><rect x="64" y="82.677" width="25.833" height="2.177" rx="1.089"/><rect opacity=".5" x="64" y="87.758" width="44.999" height=".726" rx=".363"/><rect opacity=".5" x="64" y="91.387" width="36.666" height=".726" rx=".363"/></g><defs><filter id="filter0_d" x="0" y="0" width="122" height="96" filterUnits="userSpaceOnUse" color-interpolation-filters="sRGB"><feFlood flood-opacity="0" result="BackgroundImageFix"/><feColorMatrix in="SourceAlpha" values="0 0 0 0 0 0 0 0 0 0 0 0 0 0 0 0 0 0 127 0"/><feOffset dy="1"/><feGaussianBlur stdDeviation="1"/><feColorMatrix values="0 0 0 0 0 0 0 0 0 0 0 0 0 0 0 0 0 0 0.12 0"/><feBlend in2="BackgroundImageFix" result="effect1_dropShadow"/><feBlend in="SourceGraphic" in2="effect1_dropShadow" result="shape"/></filter></defs></svg>