<svg width="122" height="96" fill="none" xmlns="http://www.w3.org/2000/svg"><g filter="url(#filter0_d)"><rect x="2" y="1" width="118" height="92" rx="3" fill="#fff"/></g><mask id="mask0" maskUnits="userSpaceOnUse" x="2" y="1" width="118" height="92"><rect x="2" y="1" width="118" height="92" rx="3" fill="#fff"/></mask><g mask="url(#mask0)" fill="#CACCCE"><rect x="13" y="12" width="45" height="48" rx="1"/><rect x="13" y="65" width="26" height="3" rx="1.5"/><rect opacity=".5" x="13" y="72" width="45" height="1" rx=".5"/><rect opacity=".5" x="13" y="77" width="45" height="1" rx=".5"/><rect opacity=".5" x="13" y="82" width="36" height="1" rx=".5"/><rect x="64" y="12" width="45" height="22" rx="1"/><rect x="64" y="39" width="22" height="3" rx="1.5"/><rect opacity=".5" x="64" y="46" width="45" height="1" rx=".5"/><rect opacity=".5" x="64" y="51" width="45" height="1" rx=".5"/><rect opacity=".5" x="64" y="56" width="45" height="1" rx=".5"/><rect opacity=".5" x="64" y="61" width="15" height="1" rx=".5"/><rect x="64" y="70" width="45" height="29" rx="1"/></g><defs><filter id="filter0_d" x="0" y="0" width="122" height="96" filterUnits="userSpaceOnUse" color-interpolation-filters="sRGB"><feFlood flood-opacity="0" result="BackgroundImageFix"/><feColorMatrix in="SourceAlpha" values="0 0 0 0 0 0 0 0 0 0 0 0 0 0 0 0 0 0 127 0"/><feOffset dy="1"/><feGaussianBlur stdDeviation="1"/><feColorMatrix values="0 0 0 0 0 0 0 0 0 0 0 0 0 0 0 0 0 0 0.12 0"/><feBlend in2="BackgroundImageFix" result="effect1_dropShadow"/><feBlend in="SourceGraphic" in2="effect1_dropShadow" result="shape"/></filter></defs></svg>