<svg width="72" height="86" fill="none" xmlns="http://www.w3.org/2000/svg"><rect width="72" height="50.667" rx="1.543" fill="#AAAEB1"/><rect x=".002" y="61.334" width="42.857" height="4.479" rx="2.24" fill="#AAAEB1"/><path d="M1.777 81.707h.465l.002-.501c.94-.068 1.48-.585 1.482-1.32-.002-.778-.645-1.133-1.32-1.293l-.144-.037.009-1.251c.35.06.576.271.611.587h.782c-.013-.697-.56-1.206-1.39-1.284l.003-.511h-.465l-.002.51c-.822.085-1.413.589-1.41 1.313 0 .645.458 1.015 1.196 1.206l.198.05-.009 1.326c-.392-.061-.675-.285-.704-.681h-.8c.031.821.597 1.31 1.5 1.385l-.003.501zm.472-1.205l.008-1.203c.4.116.653.27.656.58-.003.325-.263.557-.664.623zm-.452-2.064c-.302-.097-.578-.257-.574-.568.002-.283.215-.502.583-.565l-.009 1.133zm4.605 3.27h.465l.002-.502c.94-.068 1.48-.585 1.482-1.32-.002-.778-.644-1.133-1.32-1.293l-.144-.037.009-1.251c.35.06.576.271.611.587h.782c-.013-.697-.56-1.206-1.389-1.284l.002-.511h-.464l-.003.51c-.821.084-1.413.588-1.411 1.313 0 .645.458 1.015 1.197 1.206l.197.05-.009 1.326c-.392-.061-.675-.285-.703-.681h-.8c.03.821.596 1.31 1.499 1.385l-.003.501zm.472-1.206l.008-1.203c.4.116.654.27.656.58-.002.325-.263.557-.664.623zm-.452-2.064c-.302-.097-.578-.257-.574-.568.002-.283.215-.502.583-.565l-.009 1.133zm4.606 3.27h.464l.002-.502c.94-.068 1.48-.585 1.482-1.32-.002-.778-.644-1.133-1.32-1.293l-.144-.037.009-1.251c.35.06.576.271.611.587h.783c-.014-.697-.561-1.206-1.39-1.284l.002-.511h-.464l-.003.51c-.821.084-1.413.588-1.41 1.313 0 .645.457 1.015 1.196 1.206l.197.05-.009 1.326c-.392-.061-.675-.285-.703-.681h-.8c.03.821.596 1.31 1.499 1.385l-.002.501zm.47-1.206l.01-1.203c.398.116.653.27.655.58-.002.325-.263.557-.664.623zm-.45-2.064c-.303-.097-.58-.257-.575-.568.002-.283.215-.502.583-.565l-.009 1.133zm4.605 3.27h.464l.002-.502c.94-.068 1.48-.585 1.482-1.32-.002-.778-.644-1.133-1.32-1.293l-.144-.037.009-1.251c.35.06.576.271.611.587h.783c-.014-.697-.561-1.206-1.39-1.284l.002-.511h-.464l-.003.51c-.821.084-1.413.588-1.41 1.313 0 .645.457 1.015 1.196 1.206l.197.05-.009 1.326c-.392-.061-.675-.285-.703-.681h-.8c.03.821.596 1.31 1.499 1.385l-.002.501zm.47-1.206l.01-1.203c.399.116.653.27.655.58-.002.325-.263.557-.664.623zm-.45-2.064c-.303-.097-.58-.257-.575-.568.002-.283.215-.502.583-.565l-.009 1.133z" fill="#AAAEB1"/></svg>