<svg width="78" height="76" fill="none" xmlns="http://www.w3.org/2000/svg"><g filter="url(#filter0_d)"><rect x="2" y="1" width="74" height="72" rx="3" fill="#fff"/></g><rect x="20" y="11" width="38" height="38" rx="1" fill="#AAAEB1"/><rect x="25" y="17" width="12" height="1" rx=".5" fill="#DADDDE"/><rect x="39" y="17" width="8" height="1" rx=".5" fill="#DADDDE"/><rect x="49" y="17" width="4" height="1" rx=".5" fill="#DADDDE"/><rect x="25" y="23" width="12" height="1" rx=".5" fill="#DADDDE"/><rect x="39" y="23" width="8" height="1" rx=".5" fill="#DADDDE"/><rect x="49" y="23" width="4" height="1" rx=".5" fill="#DADDDE"/><rect x="25" y="29" width="12" height="1" rx=".5" fill="#DADDDE"/><rect x="39" y="29" width="8" height="1" rx=".5" fill="#DADDDE"/><rect x="49" y="29" width="4" height="1" rx=".5" fill="#DADDDE"/><rect x="25" y="35" width="12" height="1" rx=".5" fill="#DADDDE"/><rect x="39" y="35" width="8" height="1" rx=".5" fill="#DADDDE"/><rect x="49" y="35" width="4" height="1" rx=".5" fill="#DADDDE"/><rect x="25" y="41" width="12" height="1" rx=".5" fill="#DADDDE"/><rect x="39" y="41" width="8" height="1" rx=".5" fill="#DADDDE"/><rect x="49" y="41" width="4" height="1" rx=".5" fill="#DADDDE"/><rect opacity=".6" x="20" y="52" width="38" height="11" rx="1" fill="#AAAEB1"/><defs><filter id="filter0_d" x="0" y="0" width="78" height="76" filterUnits="userSpaceOnUse" color-interpolation-filters="sRGB"><feFlood flood-opacity="0" result="BackgroundImageFix"/><feColorMatrix in="SourceAlpha" values="0 0 0 0 0 0 0 0 0 0 0 0 0 0 0 0 0 0 127 0"/><feOffset dy="1"/><feGaussianBlur stdDeviation="1"/><feColorMatrix values="0 0 0 0 0 0 0 0 0 0 0 0 0 0 0 0 0 0 0.12 0"/><feBlend in2="BackgroundImageFix" result="effect1_dropShadow"/><feBlend in="SourceGraphic" in2="effect1_dropShadow" result="shape"/></filter></defs></svg>