<svg width="78" height="76" fill="none" xmlns="http://www.w3.org/2000/svg"><g filter="url(#filter0_d)"><rect x="2" y="1" width="74" height="72" rx="3" fill="#fff"/></g><rect x="10" y="11" width="38" height="52" rx="1" fill="#AAAEB1"/><rect x="15" y="18" width="12" height="1" rx=".5" fill="#DADDDE"/><rect x="29" y="18" width="8" height="1" rx=".5" fill="#DADDDE"/><rect x="39" y="18" width="4" height="1" rx=".5" fill="#DADDDE"/><rect x="15" y="24" width="12" height="1" rx=".5" fill="#DADDDE"/><rect x="29" y="24" width="8" height="1" rx=".5" fill="#DADDDE"/><rect x="39" y="24" width="4" height="1" rx=".5" fill="#DADDDE"/><rect x="15" y="30" width="12" height="1" rx=".5" fill="#DADDDE"/><rect x="29" y="30" width="8" height="1" rx=".5" fill="#DADDDE"/><rect x="39" y="30" width="4" height="1" rx=".5" fill="#DADDDE"/><rect x="15" y="36" width="12" height="1" rx=".5" fill="#DADDDE"/><rect x="29" y="36" width="8" height="1" rx=".5" fill="#DADDDE"/><rect x="39" y="36" width="4" height="1" rx=".5" fill="#DADDDE"/><rect x="15" y="42" width="12" height="1" rx=".5" fill="#DADDDE"/><rect x="29" y="42" width="8" height="1" rx=".5" fill="#DADDDE"/><rect x="39" y="42" width="4" height="1" rx=".5" fill="#DADDDE"/><rect x="15" y="48" width="12" height="1" rx=".5" fill="#DADDDE"/><rect x="29" y="48" width="8" height="1" rx=".5" fill="#DADDDE"/><rect x="39" y="48" width="4" height="1" rx=".5" fill="#DADDDE"/><rect x="15" y="54" width="12" height="1" rx=".5" fill="#DADDDE"/><rect x="29" y="54" width="8" height="1" rx=".5" fill="#DADDDE"/><rect x="39" y="54" width="4" height="1" rx=".5" fill="#DADDDE"/><rect opacity=".6" x="52" y="11" width="16" height="25" rx="1" fill="#AAAEB1"/><defs><filter id="filter0_d" x="0" y="0" width="78" height="76" filterUnits="userSpaceOnUse" color-interpolation-filters="sRGB"><feFlood flood-opacity="0" result="BackgroundImageFix"/><feColorMatrix in="SourceAlpha" values="0 0 0 0 0 0 0 0 0 0 0 0 0 0 0 0 0 0 127 0"/><feOffset dy="1"/><feGaussianBlur stdDeviation="1"/><feColorMatrix values="0 0 0 0 0 0 0 0 0 0 0 0 0 0 0 0 0 0 0.12 0"/><feBlend in2="BackgroundImageFix" result="effect1_dropShadow"/><feBlend in="SourceGraphic" in2="effect1_dropShadow" result="shape"/></filter></defs></svg>