<svg width="78" height="76" fill="none" xmlns="http://www.w3.org/2000/svg"><g filter="url(#filter0_d)"><rect x="2" y="1" width="74" height="72" rx="3" fill="#fff"/></g><rect x="20" y="11" width="17.538" height="1" rx=".5" fill="#DADDDE"/><rect x="40.462" y="11" width="17.538" height="1" rx=".5" fill="#DADDDE"/><rect x="20" y="17" width="38" height="1" rx=".5" fill="#DADDDE"/><rect x="20" y="23" width="38" height="1" rx=".5" fill="#DADDDE"/><rect x="20" y="43" width="38" height="1" rx=".5" fill="#DADDDE"/><rect x="20" y="29" width="17.538" height="1" rx=".5" fill="#DADDDE"/><rect x="40.462" y="29" width="17.538" height="1" rx=".5" fill="#DADDDE"/><rect x="20" y="37" width="17.538" height="1" rx=".5" fill="#DADDDE"/><rect x="40.462" y="37" width="17.538" height="1" rx=".5" fill="#DADDDE"/><rect opacity=".6" x="20" y="48" width="38" height="15" rx="1" fill="#AAAEB1"/><defs><filter id="filter0_d" x="0" y="0" width="78" height="76" filterUnits="userSpaceOnUse" color-interpolation-filters="sRGB"><feFlood flood-opacity="0" result="BackgroundImageFix"/><feColorMatrix in="SourceAlpha" values="0 0 0 0 0 0 0 0 0 0 0 0 0 0 0 0 0 0 127 0"/><feOffset dy="1"/><feGaussianBlur stdDeviation="1"/><feColorMatrix values="0 0 0 0 0 0 0 0 0 0 0 0 0 0 0 0 0 0 0.12 0"/><feBlend in2="BackgroundImageFix" result="effect1_dropShadow"/><feBlend in="SourceGraphic" in2="effect1_dropShadow" result="shape"/></filter></defs></svg>