<svg width="145" height="158" viewBox="0 0 145 158" fill="none" xmlns="http://www.w3.org/2000/svg">
<rect width="145" height="158" fill="white"/>
<rect x="17" y="21" width="111.8" height="36" fill="#AAAEB1" fill-opacity="0.2"/>
<rect x="17" y="62" width="111.8" height="3" fill="#AAAEB1" fill-opacity="0.2"/>
<rect x="17" y="68" width="111.8" height="3" fill="#AAAEB1" fill-opacity="0.2"/>
<rect x="17" y="74" width="111.8" height="3" fill="#AAAEB1" fill-opacity="0.2"/>
<rect x="17" y="80" width="111.8" height="3" fill="#AAAEB1" fill-opacity="0.2"/>
<rect x="17" y="86" width="111.8" height="3" fill="#AAAEB1" fill-opacity="0.2"/>
<rect x="17" y="92" width="111.8" height="3" fill="#AAAEB1" fill-opacity="0.2"/>
<rect x="17" y="98" width="111.8" height="3" fill="#AAAEB1" fill-opacity="0.2"/>
<rect x="17" y="104" width="111.8" height="3" fill="#AAAEB1" fill-opacity="0.2"/>
<rect x="17" y="110" width="111.8" height="3" fill="#AAAEB1" fill-opacity="0.2"/>
<rect x="17" y="116" width="111.8" height="3" fill="#AAAEB1" fill-opacity="0.2"/>
<rect x="17" y="122" width="111.8" height="3" fill="#AAAEB1" fill-opacity="0.2"/>
<rect x="17" y="128" width="111.8" height="3" fill="#AAAEB1" fill-opacity="0.2"/>
<rect x="17" y="134" width="77.4" height="3" fill="#AAAEB1" fill-opacity="0.2"/>
</svg>
