<svg width="145" height="158" viewBox="0 0 145 158" fill="none" xmlns="http://www.w3.org/2000/svg">
<rect width="145" height="158" fill="white"/>
<rect x="7.07324" y="21" width="131.797" height="36" fill="#AAAEB1" fill-opacity="0.2"/>
<rect x="7.07324" y="62" width="131.797" height="3" fill="#AAAEB1" fill-opacity="0.2"/>
<rect x="7.07324" y="68" width="131.797" height="3" fill="#AAAEB1" fill-opacity="0.2"/>
<rect x="7.07324" y="74" width="131.797" height="3" fill="#AAAEB1" fill-opacity="0.2"/>
<rect x="7.07324" y="80" width="131.797" height="3" fill="#AAAEB1" fill-opacity="0.2"/>
<rect x="7.07324" y="86" width="131.797" height="3" fill="#AAAEB1" fill-opacity="0.2"/>
<rect x="7.07324" y="92" width="131.797" height="3" fill="#AAAEB1" fill-opacity="0.2"/>
<rect x="7.07324" y="98" width="131.797" height="3" fill="#AAAEB1" fill-opacity="0.2"/>
<rect x="7.07324" y="104" width="131.797" height="3" fill="#AAAEB1" fill-opacity="0.2"/>
<rect x="7.07324" y="110" width="131.797" height="3" fill="#AAAEB1" fill-opacity="0.2"/>
<rect x="7.07324" y="116" width="131.797" height="3" fill="#AAAEB1" fill-opacity="0.2"/>
<rect x="7.07324" y="122" width="131.797" height="3" fill="#AAAEB1" fill-opacity="0.2"/>
<rect x="7.07324" y="128" width="131.797" height="3" fill="#AAAEB1" fill-opacity="0.2"/>
<rect x="7.07324" y="134" width="91.2439" height="3" fill="#AAAEB1" fill-opacity="0.2"/>
</svg>
