<svg width="119" height="54" fill="none" xmlns="http://www.w3.org/2000/svg"><rect width="119" height="54" rx="3" fill="#fff"/><rect x=".5" y=".5" width="118" height="23" rx="2.5" fill="#AAAEB1" stroke="#fff"/><path d="M8.316 14h2.328v-.634h-1.56v-3.002h-.768V14zm7.037-1.818c0-1.19-.739-1.868-1.703-1.868-.97 0-1.703.678-1.703 1.868 0 1.184.734 1.868 1.703 1.868.964 0 1.703-.679 1.703-1.868zm-.78 0c0 .77-.365 1.188-.923 1.188-.56 0-.923-.418-.923-1.188s.364-1.188.923-1.188c.558 0 .923.417.923 1.188zm4.76-.643h.782c-.1-.719-.733-1.225-1.555-1.225-.961 0-1.701.692-1.701 1.871 0 1.15.692 1.865 1.717 1.865.918 0 1.573-.58 1.573-1.538v-.458h-1.522v.579h.781c-.01.45-.318.737-.829.737-.577 0-.94-.432-.94-1.192 0-.756.377-1.184.933-1.184.396 0 .664.204.762.545zm5.735.643c0-1.19-.739-1.868-1.703-1.868-.97 0-1.703.678-1.703 1.868 0 1.184.734 1.868 1.703 1.868.964 0 1.703-.679 1.703-1.868zm-.78 0c0 .77-.365 1.188-.923 1.188-.56 0-.923-.418-.923-1.188s.364-1.188.923-1.188c.558 0 .923.417.923 1.188z" fill="#E8EBEC"/><rect x="95" y="8" width="16" height="8" rx="1" fill="#E8EBEC"/><rect x="81" y="11" width="8" height="2" rx="1" fill="#DADDDE"/><rect x="71" y="11" width="8" height="2" rx="1" fill="#DADDDE"/><rect x="61" y="11" width="8" height="2" rx="1" fill="#DADDDE"/></svg>