<svg xmlns="http://www.w3.org/2000/svg" width="109" height="168"><defs><clipPath id="b"><path d="M0 0h109v168H0z"/></clipPath></defs><g id="a" clip-path="url(#b)"><g transform="translate(0 -7)"><rect width="109" height="168" rx="3" transform="translate(0 7)" fill="#fff"/><rect width="84" height="168" rx="3" transform="translate(0 7)" fill="#aaaeb1"/><g opacity=".5" fill="#fff"><path transform="rotate(45 14.156 89.889)" d="M0 0h8v1H0z"/><path transform="rotate(135 33.156 23.707)" d="M0 0h8v1H0z"/></g><path transform="translate(11 17)" fill="#fff" d="M0 0h16v5H0z"/><path transform="translate(11 149)" fill="#fff" opacity=".5" d="M0 0h38v12H0z"/><path transform="translate(11 58)" fill="#fff" opacity=".5" d="M0 0h34v3H0z"/><path transform="translate(11 71)" fill="#fff" opacity=".5" d="M0 0h24v3H0z"/><path transform="translate(11 84)" fill="#fff" opacity=".5" d="M0 0h44v3H0z"/><path transform="translate(11 97)" fill="#fff" opacity=".5" d="M0 0h37v3H0z"/><path transform="translate(11 110)" fill="#fff" opacity=".5" d="M0 0h19v3H0z"/></g></g></svg>