<svg width="78" height="93" fill="none" xmlns="http://www.w3.org/2000/svg"><g filter="url(#filter0_d)"><rect x="2" y="1" width="74" height="89" rx="3" fill="#fff"/></g><rect x="12" y="11" width="54" height="38" rx="1.543" fill="#AAAEB1"/><rect x="12.001" y="57" width="32.143" height="3.36" rx="1.68" fill="#AAAEB1"/><path d="M13.777 73.92h.465l.002-.502c.94-.067 1.48-.585 1.482-1.319-.002-.778-.645-1.133-1.32-1.293l-.144-.037.008-1.252c.351.062.577.272.612.588h.782c-.013-.697-.56-1.206-1.39-1.285l.003-.51h-.464l-.003.51c-.822.084-1.413.588-1.411 1.313 0 .645.458 1.015 1.197 1.206l.197.05-.009 1.326c-.392-.061-.675-.285-.704-.682h-.8c.031.822.597 1.311 1.5 1.385l-.003.502zm.472-1.205l.008-1.203c.4.116.654.27.656.58-.002.325-.263.557-.664.623zm-.452-2.065c-.302-.096-.579-.256-.574-.567.002-.283.215-.502.583-.566l-.009 1.133zm4.605 3.27h.465l.002-.502c.94-.067 1.48-.585 1.482-1.319-.002-.778-.645-1.133-1.32-1.293l-.144-.037.009-1.252c.35.062.576.272.611.588h.782c-.013-.697-.56-1.206-1.389-1.285l.002-.51h-.464l-.003.51c-.822.084-1.413.588-1.411 1.313 0 .645.458 1.015 1.197 1.206l.197.05-.009 1.326c-.392-.061-.675-.285-.703-.682h-.8c.03.822.596 1.311 1.499 1.385l-.003.502zm.472-1.205l.009-1.203c.398.116.653.27.655.58-.002.325-.263.557-.664.623zm-.452-2.065c-.302-.096-.578-.256-.574-.567.002-.283.215-.502.583-.566l-.009 1.133zm4.606 3.27h.464l.002-.502c.94-.067 1.48-.585 1.482-1.319-.002-.778-.644-1.133-1.32-1.293l-.144-.037.009-1.252c.35.062.576.272.611.588h.783c-.014-.697-.561-1.206-1.39-1.285l.002-.51h-.464l-.002.51c-.822.084-1.414.588-1.412 1.313 0 .645.458 1.015 1.197 1.206l.197.05-.009 1.326c-.392-.061-.675-.285-.703-.682h-.8c.03.822.596 1.311 1.499 1.385l-.002.502zm.47-1.205l.01-1.203c.398.116.653.27.655.58-.002.325-.263.557-.664.623zm-.45-2.065c-.303-.096-.58-.256-.575-.567.002-.283.215-.502.583-.566l-.009 1.133zm4.605 3.27h.464l.002-.502c.94-.067 1.48-.585 1.482-1.319-.002-.778-.644-1.133-1.32-1.293l-.144-.037.009-1.252c.35.062.576.272.611.588h.783c-.014-.697-.561-1.206-1.39-1.285l.002-.51h-.464l-.002.51c-.822.084-1.414.588-1.412 1.313 0 .645.458 1.015 1.197 1.206l.197.05-.009 1.326c-.392-.061-.675-.285-.703-.682h-.8c.03.822.596 1.311 1.499 1.385l-.002.502zm.47-1.205l.01-1.203c.399.116.653.27.655.58-.002.325-.263.557-.664.623zm-.45-2.065c-.303-.096-.58-.256-.575-.567.002-.283.215-.502.583-.566l-.009 1.133z" fill="#AAAEB1"/><defs><filter id="filter0_d" x="0" y="0" width="78" height="93" filterUnits="userSpaceOnUse" color-interpolation-filters="sRGB"><feFlood flood-opacity="0" result="BackgroundImageFix"/><feColorMatrix in="SourceAlpha" values="0 0 0 0 0 0 0 0 0 0 0 0 0 0 0 0 0 0 127 0"/><feOffset dy="1"/><feGaussianBlur stdDeviation="1"/><feColorMatrix values="0 0 0 0 0 0 0 0 0 0 0 0 0 0 0 0 0 0 0.12 0"/><feBlend in2="BackgroundImageFix" result="effect1_dropShadow"/><feBlend in="SourceGraphic" in2="effect1_dropShadow" result="shape"/></filter></defs></svg>