<svg width="78" height="72" fill="none" xmlns="http://www.w3.org/2000/svg"><g filter="url(#filter0_d)"><rect x="2" y="1" width="74" height="68" rx="3" fill="#fff"/></g><path opacity=".5" fill="#AAAEB1" d="M12 11h54v48H12z"/><path opacity=".3" fill="#000" d="M12 11h54v48H12z"/><path d="M25.499 35c-.162-.895-.878-1.423-1.756-1.423-1.116 0-1.926.86-1.926 2.241 0 1.38.81 2.242 1.926 2.242.878 0 1.594-.529 1.756-1.424h-.529c-.127.605-.647.93-1.227.93-.792 0-1.415-.614-1.415-1.748 0-1.133.623-1.747 1.415-1.747.58 0 1.1.324 1.227.929h.529zm1.748 3.077c.572 0 .87-.307.972-.52h.026V38h.502v-2.156c0-1.04-.792-1.16-1.21-1.16-.494 0-1.056.171-1.312.768l.477.17c.11-.239.373-.494.852-.494.463 0 .69.245.69.665v.017c0 .243-.247.221-.843.298-.607.079-1.27.213-1.27.963 0 .64.494 1.006 1.116 1.006zm.077-.452c-.4 0-.69-.179-.69-.528 0-.384.35-.503.741-.554.213-.026.784-.086.87-.188v.46c0 .41-.324.81-.92.81zm3.765-2.898h-.7v-.784h-.502v.784h-.494v.426h.494V37.2c0 .57.46.844.886.844.188 0 .307-.035.375-.06l-.102-.452c-.043.009-.11.026-.222.026-.221 0-.434-.068-.434-.495v-1.909h.699v-.426zm2.093 3.341c.665 0 1.15-.332 1.304-.826L34 37.105c-.128.341-.424.512-.818.512-.59 0-.997-.382-1.02-1.083h2.375v-.213c0-1.219-.724-1.636-1.406-1.636-.886 0-1.475.698-1.475 1.704s.58 1.68 1.526 1.68zm-1.02-1.969c.034-.509.394-.963.969-.963.545 0 .895.41.895.963H32.16zm4.461 3.197c.784 0 1.415-.358 1.415-1.202v-3.367h-.486v.52h-.051c-.11-.17-.316-.562-.955-.562-.826 0-1.397.656-1.397 1.662 0 1.022.596 1.602 1.389 1.602.639 0 .844-.375.954-.554h.043v.665c0 .545-.383.792-.912.792-.594 0-.803-.313-.938-.494l-.4.281c.205.343.607.656 1.338.656zm-.017-1.799c-.63 0-.955-.477-.955-1.159 0-.665.316-1.202.955-1.202.614 0 .938.495.938 1.202 0 .724-.333 1.16-.938 1.16zm3.682.571c.886 0 1.483-.673 1.483-1.687 0-1.023-.597-1.696-1.483-1.696-.886 0-1.483.673-1.483 1.696 0 1.014.596 1.687 1.483 1.687zm0-.451c-.673 0-.98-.58-.98-1.236 0-.657.306-1.245.98-1.245.673 0 .98.588.98 1.245 0 .656-.307 1.236-.98 1.236zm2.25.383h.503v-2.071c0-.443.35-.767.827-.767.134 0 .273.026.307.034v-.511a4.788 4.788 0 00-.264-.009c-.392 0-.733.222-.853.546h-.034v-.495h-.486V38zm2.656 1.227c.454 0 .774-.24.963-.75l1.394-3.741-.55-.009-.903 2.608h-.034l-.904-2.608h-.545l1.21 3.29-.094.256c-.183.498-.409.545-.775.451l-.128.444c.05.025.196.06.366.06zm4.889-3.068c0 1.074.29 1.969.81 2.727h.442c-.409-.562-.733-1.713-.733-2.727 0-1.014.324-2.165.733-2.727h-.443c-.52.758-.81 1.653-.81 2.727zm3.41 1.9c.962 0 1.516-.815 1.516-2.24 0-1.416-.562-2.242-1.517-2.242-.954 0-1.517.826-1.517 2.241 0 1.426.554 2.242 1.517 2.242zm0-.468c-.636 0-1.007-.637-1.007-1.773 0-1.133.376-1.781 1.006-1.781s1.006.648 1.006 1.781c0 1.136-.37 1.773-1.006 1.773zm3.408-1.773c0-1.074-.29-1.969-.81-2.727h-.443c.41.562.733 1.713.733 2.727 0 1.014-.324 2.165-.733 2.727h.444c.52-.758.81-1.653.81-2.727z" fill="#fff"/><defs><filter id="filter0_d" x="0" y="0" width="78" height="72" filterUnits="userSpaceOnUse" color-interpolation-filters="sRGB"><feFlood flood-opacity="0" result="BackgroundImageFix"/><feColorMatrix in="SourceAlpha" values="0 0 0 0 0 0 0 0 0 0 0 0 0 0 0 0 0 0 127 0"/><feOffset dy="1"/><feGaussianBlur stdDeviation="1"/><feColorMatrix values="0 0 0 0 0 0 0 0 0 0 0 0 0 0 0 0 0 0 0.12 0"/><feBlend in2="BackgroundImageFix" result="effect1_dropShadow"/><feBlend in="SourceGraphic" in2="effect1_dropShadow" result="shape"/></filter></defs></svg>