<svg width="78" height="62" fill="none" xmlns="http://www.w3.org/2000/svg"><g filter="url(#filter0_d)"><rect x="2" y="1" width="74" height="58" rx="3" fill="#fff"/></g><rect opacity=".5" x="12" y="11" width="54" height="38" rx="1.543" fill="#AAAEB1"/><rect x="24" y="25" width="29" height="9" rx="1" fill="#317CB5"/><path d="M32.002 29.546c0-.921-.54-1.495-1.284-1.495s-1.284.574-1.284 1.495c0 .92.54 1.494 1.284 1.494.19 0 .366-.037.524-.108l.254.34h.387l-.38-.503c.31-.255.5-.678.5-1.223zm-1.398.545l.432.565a.939.939 0 01-.318.054c-.528 0-.943-.409-.943-1.165 0-.755.415-1.164.943-1.164s.943.409.943 1.165c0 .438-.139.76-.36.953l-.31-.408h-.387zm3.32.017a.567.567 0 01-.563.596c-.278 0-.477-.204-.477-.522v-1.364h-.335v1.386c0 .557.295.824.705.824a.68.68 0 00.647-.397h.023V31h.335v-2.182h-.335v1.29zm.95.892h.334v-2.182h-.335V31zm.17-2.546c.13 0 .238-.102.238-.227a.234.234 0 00-.238-.227.234.234 0 00-.239.227c0 .125.108.227.239.227zm1.665 2.591c.483 0 .8-.295.858-.681h-.336c-.062.238-.26.38-.522.38-.398 0-.654-.33-.654-.835 0-.494.262-.818.654-.818.295 0 .471.182.522.38h.336c-.057-.409-.404-.681-.864-.681-.59 0-.983.466-.983 1.13 0 .654.375 1.125.989 1.125zM38.057 31h.335v-.817l.234-.217.817 1.034h.426l-.99-1.25.922-.932h-.415l-.954.972h-.04v-1.7h-.335V31zm5.085-2.182h-.364l-.602 1.739h-.023l-.602-1.739h-.364L41.994 31h.34l.808-2.182zM43.584 31h.335v-2.182h-.335V31zm.17-2.546c.131 0 .24-.102.24-.227a.234.234 0 00-.24-.227.234.234 0 00-.238.227c0 .125.108.227.239.227zm1.694 2.591c.443 0 .767-.221.87-.55l-.324-.092c-.086.228-.283.341-.546.341-.393 0-.665-.254-.68-.721h1.584v-.142c0-.813-.483-1.091-.938-1.091-.59 0-.983.466-.983 1.136 0 .67.387 1.12 1.017 1.12zm-.68-1.312c.023-.34.263-.642.646-.642.364 0 .597.273.597.642h-1.243zM47.356 31h.33l.477-1.676h.034L48.674 31h.33l.664-2.182h-.352l-.472 1.665h-.022l-.46-1.665h-.358l-.466 1.67h-.023l-.472-1.67h-.352L47.356 31z" fill="#fff"/><defs><filter id="filter0_d" x="0" y="0" width="78" height="62" filterUnits="userSpaceOnUse" color-interpolation-filters="sRGB"><feFlood flood-opacity="0" result="BackgroundImageFix"/><feColorMatrix in="SourceAlpha" values="0 0 0 0 0 0 0 0 0 0 0 0 0 0 0 0 0 0 127 0"/><feOffset dy="1"/><feGaussianBlur stdDeviation="1"/><feColorMatrix values="0 0 0 0 0 0 0 0 0 0 0 0 0 0 0 0 0 0 0.12 0"/><feBlend in2="BackgroundImageFix" result="effect1_dropShadow"/><feBlend in="SourceGraphic" in2="effect1_dropShadow" result="shape"/></filter></defs></svg>