<svg width="78" height="62" fill="none" xmlns="http://www.w3.org/2000/svg"><g filter="url(#filter0_d)"><rect x="2" y="1" width="74" height="58" rx="3" fill="#fff"/></g><path fill="#AAAEB1" d="M12 11h54v38H12z"/><path fill="#317CB5" d="M43 11h23v11.5H43z"/><path d="M50.662 15.768h.435c-.02-.561-.537-.98-1.256-.98-.711 0-1.27.413-1.27 1.038 0 .5.363.799.944.965l.457.131c.392.109.74.247.74.617 0 .407-.392.675-.907.675-.443 0-.835-.196-.871-.617h-.465c.044.61.537 1.024 1.336 1.024.857 0 1.343-.472 1.343-1.074 0-.698-.66-.922-1.045-1.024l-.378-.102c-.276-.072-.719-.218-.719-.617 0-.356.327-.617.82-.617.45 0 .792.214.836.58zm1.379 2.788l.373-1.053h1.503l.374 1.053h.472l-1.365-3.718h-.464l-1.365 3.718h.472zm.515-1.452l.595-1.677h.03l.595 1.677h-1.22zm2.786 1.452h2.178v-.4h-1.728V14.84h-.45v3.717zm2.875 0h2.273v-.4h-1.823v-1.263h1.677v-.4h-1.677v-1.255h1.794v-.4h-2.244v3.718z" fill="#fff"/><defs><filter id="filter0_d" x="0" y="0" width="78" height="62" filterUnits="userSpaceOnUse" color-interpolation-filters="sRGB"><feFlood flood-opacity="0" result="BackgroundImageFix"/><feColorMatrix in="SourceAlpha" values="0 0 0 0 0 0 0 0 0 0 0 0 0 0 0 0 0 0 127 0"/><feOffset dy="1"/><feGaussianBlur stdDeviation="1"/><feColorMatrix values="0 0 0 0 0 0 0 0 0 0 0 0 0 0 0 0 0 0 0.12 0"/><feBlend in2="BackgroundImageFix" result="effect1_dropShadow"/><feBlend in="SourceGraphic" in2="effect1_dropShadow" result="shape"/></filter></defs></svg>