<svg width="14" height="14" viewBox="0 0 14 14" fill="none" xmlns="http://www.w3.org/2000/svg">
<path fill-rule="evenodd" clip-rule="evenodd" d="M2.41357 13.3566C2.41357 13.0011 2.70176 12.7129 3.05725 12.7129H10.7814C11.1369 12.7129 11.4251 13.0011 11.4251 13.3566C11.4251 13.7121 11.1369 14.0002 10.7814 14.0002H3.05725C2.70176 14.0002 2.41357 13.7121 2.41357 13.3566Z" fill="url(#paint0_linear_1317_1366)"/>
<path fill-rule="evenodd" clip-rule="evenodd" d="M7.34031 0.246078C7.25483 0.0940736 7.09398 0 6.91954 0C6.74517 0 6.58431 0.0940736 6.49883 0.246078L5.52102 1.98439C4.64103 3.54881 2.59341 3.99554 1.14178 2.93981L0.766736 2.66705C0.601233 2.54668 0.377819 2.54375 0.209208 2.65972C0.040596 2.77569 -0.0365745 2.98537 0.0166319 3.18298L2.26951 11.5508C2.32625 11.7615 2.51738 11.908 2.73566 11.908H11.1034C11.3218 11.908 11.5129 11.7615 11.5697 11.5508L13.8225 3.18298C13.8757 2.98537 13.7985 2.77569 13.6299 2.65972C13.4613 2.54375 13.2379 2.54668 13.0724 2.66705L12.6973 2.93981C11.2457 3.99554 9.19809 3.5488 8.31811 1.98438L7.34031 0.246078ZM6.91954 7.88506C6.38632 7.88506 5.95402 8.31735 5.95402 8.85057C5.95402 9.3838 6.38632 9.81609 6.91954 9.81609H6.92598C7.4592 9.81609 7.89149 9.3838 7.89149 8.85057C7.89149 8.31735 7.4592 7.88506 6.92598 7.88506H6.91954Z" fill="url(#paint1_linear_1317_1366)"/>
<defs>
<linearGradient id="paint0_linear_1317_1366" x1="6.91932" y1="12.7129" x2="6.91932" y2="14.0002" gradientUnits="userSpaceOnUse">
<stop stop-color="#868A97"/>
<stop offset="1" stop-color="#13151D"/>
</linearGradient>
<linearGradient id="paint1_linear_1317_1366" x1="6.91957" y1="0" x2="6.91957" y2="11.908" gradientUnits="userSpaceOnUse">
<stop stop-color="#868A97"/>
<stop offset="1" stop-color="#13151D"/>
</linearGradient>
</defs>
</svg>
