<svg width="78" height="76" viewBox="0 0 78 76" fill="none" xmlns="http://www.w3.org/2000/svg">
<g filter="url(#filter0_d_4_3191)">
<path d="M14.0709 13.6355L18.5079 12.2159C19.9091 11.7428 21.0767 10.9147 22.0108 9.73176L24.6964 5.94635C26.4479 3.46218 29.6005 2.51582 32.4028 3.34388L36.8399 4.76341C38.241 5.23659 39.759 5.23659 41.1601 4.76341L45.5972 3.34388C48.3995 2.39753 51.5521 3.46218 53.3036 5.82806L55.9892 9.61347C56.8065 10.7964 58.0909 11.7428 59.4921 12.0976L63.9291 13.5172C66.7314 14.4635 68.7164 17.1843 68.7164 20.1416V24.8734C68.7164 26.2929 69.1835 27.8308 70.0008 29.0137L72.6864 32.7991C74.4379 35.2833 74.4379 38.5955 72.6864 40.9614L70.0008 44.7468C69.1835 45.9297 68.7164 47.3493 68.7164 48.8871V53.6189C68.7164 56.6945 66.8482 59.297 63.9291 60.2433L59.4921 61.6628C58.0909 62.136 56.9233 62.9641 55.9892 64.147L53.3036 67.9324C51.5521 70.4166 48.3995 71.363 45.5972 70.5349L41.1601 69.1154C39.759 68.6422 38.241 68.6422 36.8399 69.1154L32.4028 70.5349C29.6005 71.4813 26.4479 70.4166 24.6964 68.0507L22.0108 64.3836C21.1935 63.2007 19.9091 62.2543 18.5079 61.8994L14.0709 60.4799C11.2686 59.5336 9.28357 56.8128 9.28357 53.8554V49.1237C9.28357 47.7041 8.81651 46.1663 7.99917 44.9834L5.31359 41.198C3.56214 38.7138 3.56214 35.4016 5.31359 33.0357L7.99917 29.2503C8.81651 28.0673 9.28357 26.6478 9.28357 25.11V20.3782C9.28357 17.1843 11.1518 14.5818 14.0709 13.6355Z" fill="url(#paint0_linear_4_3191)"/>
</g>
<g filter="url(#filter1_d_4_3191)">
<path d="M19.8313 14.1655L19.8313 14.1656L19.8389 14.163C21.2535 13.6853 22.4346 12.8467 23.3741 11.657L23.382 11.6469L23.3894 11.6364L25.9216 8.0673L25.9224 8.0661C27.4404 5.91301 30.1825 5.08048 32.6329 5.80218L36.8072 7.13767C38.2297 7.61711 39.7703 7.61711 41.1929 7.13765L45.3725 5.80045L45.3726 5.80051L45.3802 5.79795C47.8059 4.97878 50.5528 5.89859 52.0815 7.96001L54.607 11.5198C54.6076 11.5206 54.6082 11.5215 54.6087 11.5223C55.4393 12.723 56.7418 13.6891 58.1831 14.0586L62.3483 15.3912C64.7889 16.2171 66.5183 18.5933 66.5183 21.1621V25.6235C66.5183 27.0613 66.9884 28.6108 67.818 29.8114L67.818 29.8114L67.8216 29.8165L70.3528 33.3844C70.353 33.3846 70.3531 33.3848 70.3533 33.3851C71.8855 35.5588 71.8769 38.4451 70.3596 40.4947L70.3595 40.4946L70.3537 40.5029L67.8216 44.072L67.8215 44.0719L67.818 44.077C66.9908 45.2743 66.5183 46.7115 66.5183 48.265V52.7263C66.5183 55.4122 64.8941 57.6714 62.3517 58.4962C62.3512 58.4964 62.3508 58.4965 62.3504 58.4966L58.1687 59.8345L58.1687 59.8344L58.1611 59.837C56.7465 60.3147 55.5654 61.1533 54.6259 62.343L54.618 62.3531L54.6106 62.3636L52.0784 65.9327L52.0776 65.9339C50.5596 68.087 47.8175 68.9195 45.3672 68.1978L41.1927 66.8623C39.7703 66.3829 38.2297 66.3829 36.8073 66.8623L32.6275 68.1995L32.6274 68.1995L32.6198 68.2021C30.1929 69.0216 27.4445 68.1005 25.9163 66.0369C25.9161 66.0366 25.9158 66.0363 25.9156 66.036L23.389 62.586C22.5584 61.3868 21.2569 60.4221 19.817 60.053L15.6516 58.7203C13.2111 57.8943 11.4817 55.5182 11.4817 52.9494V48.488C11.4817 47.0503 11.0116 45.5008 10.182 44.3001L10.182 44.3001L10.1784 44.295L7.64718 40.7271C7.64696 40.7268 7.64674 40.7265 7.64652 40.7262C6.11453 38.5525 6.12316 35.6663 7.6404 33.6169L7.64048 33.6169L7.64633 33.6087L10.1784 30.0396L10.1785 30.0396L10.182 30.0345C11.0092 28.8373 11.4817 27.4 11.4817 25.8466V21.3852C11.4817 18.5827 13.1107 16.3268 15.6488 15.5036C15.649 15.5035 15.6493 15.5034 15.6496 15.5034L19.8313 14.1655Z" stroke="white" shape-rendering="crispEdges"/>
</g>
<mask id="mask0_4_3191" style="mask-type:alpha" maskUnits="userSpaceOnUse" x="6" y="5" width="66" height="64">
<path d="M15.4954 15.0277L19.6789 13.6893C21 13.2432 22.1009 12.4624 22.9817 11.3471L25.5138 7.77799C27.1651 5.43577 30.1376 4.54349 32.7798 5.32423L36.9633 6.66264C38.2844 7.10878 39.7156 7.10878 41.0367 6.66264L45.2202 5.32423C47.8624 4.43196 50.8349 5.43577 52.4862 7.66645L55.0183 11.2356C55.789 12.3509 57 13.2432 58.3211 13.5778L62.5046 14.9162C65.1468 15.8085 67.0183 18.3738 67.0183 21.1621V25.6235C67.0183 26.9619 67.4587 28.4119 68.2294 29.5272L70.7615 33.0963C72.4128 35.4385 72.4128 38.5615 70.7615 40.7922L68.2294 44.3613C67.4587 45.4766 67.0183 46.815 67.0183 48.265V52.7263C67.0183 55.6262 65.2569 58.08 62.5046 58.9723L58.3211 60.3107C57 60.7568 55.8991 61.5376 55.0183 62.6529L52.4862 66.222C50.8349 68.5642 47.8624 69.4565 45.2202 68.6758L41.0367 67.3374C39.7156 66.8912 38.2844 66.8912 36.9633 67.3374L32.7798 68.6758C30.1376 69.568 27.1651 68.5642 25.5138 66.3335L22.9817 62.876C22.211 61.7606 21 60.8684 19.6789 60.5338L15.4954 59.1953C12.8532 58.3031 10.9817 55.7378 10.9817 52.9494V48.488C10.9817 47.1496 10.5413 45.6997 9.77064 44.5843L7.23853 41.0152C5.58716 38.673 5.58716 35.5501 7.23853 33.3194L9.77064 29.7503C10.5413 28.6349 10.9817 27.2965 10.9817 25.8466V21.3852C10.9817 18.3738 12.7431 15.92 15.4954 15.0277Z" fill="url(#paint1_linear_4_3191)"/>
</mask>
<g mask="url(#mask0_4_3191)">
<rect opacity="0.2" x="4" y="27" width="70" height="20" fill="white"/>
</g>
<path d="M22.1513 17.9333C22.0389 17.5344 22.4327 17.1798 22.8177 17.3333L24.1431 17.8615C24.2958 17.9223 24.4687 17.9042 24.6055 17.8131L25.7939 17.021C26.1387 16.7912 26.5973 17.0564 26.5701 17.4698L26.4767 18.893C26.466 19.0573 26.5367 19.2164 26.666 19.3183L27.7855 20.2014C28.1109 20.4581 28.0006 20.9765 27.599 21.0786L26.2163 21.43C26.0567 21.4706 25.9274 21.587 25.8704 21.7415L25.3763 23.0799C25.2328 23.4687 24.7057 23.5241 24.4845 23.1737L23.7232 21.968C23.6353 21.8288 23.4845 21.7418 23.32 21.7353L21.8948 21.6795C21.4808 21.6632 21.2651 21.1794 21.5296 20.8606L22.4416 19.7615C22.5466 19.635 22.5826 19.4649 22.5381 19.3067L22.1513 17.9333Z" fill="white"/>
<path d="M38.1243 11.8293C38.3077 11.4578 38.8376 11.4578 39.021 11.8293L39.6525 13.1088C39.7253 13.2562 39.8659 13.3584 40.0286 13.3822L41.4417 13.5888C41.8517 13.6487 42.0151 14.1526 41.7183 14.4417L40.6965 15.4369C40.5786 15.5517 40.5247 15.7173 40.5526 15.8796L40.7936 17.2849C40.8637 17.6934 40.4349 18.0049 40.0681 17.812L38.8054 17.1479C38.6597 17.0713 38.4856 17.0713 38.3399 17.1479L37.0772 17.812C36.7104 18.0049 36.2816 17.6934 36.3517 17.2849L36.5927 15.8796C36.6205 15.7173 36.5667 15.5517 36.4487 15.4369L35.427 14.4417C35.1302 14.1526 35.2936 13.6487 35.7036 13.5888L37.1167 13.3822C37.2794 13.3584 37.42 13.2562 37.4927 13.1088L38.1243 11.8293Z" fill="white"/>
<path d="M56.0882 17.9333C56.2006 17.5344 55.8068 17.1798 55.4218 17.3333L54.0964 17.8615C53.9437 17.9223 53.7708 17.9042 53.634 17.8131L52.4456 17.021C52.1008 16.7912 51.6422 17.0564 51.6694 17.4698L51.7628 18.893C51.7735 19.0573 51.7028 19.2164 51.5735 19.3183L50.454 20.2014C50.1286 20.4581 50.2389 20.9765 50.6405 21.0786L52.0233 21.43C52.1828 21.4706 52.3121 21.587 52.3691 21.7415L52.8632 23.0799C53.0067 23.4687 53.5338 23.5241 53.755 23.1737L54.5163 21.968C54.6042 21.8288 54.755 21.7418 54.9195 21.7353L56.3447 21.6795C56.7587 21.6632 56.9744 21.1794 56.7099 20.8606L55.7979 19.7615C55.6929 19.635 55.6569 19.4649 55.7014 19.3067L56.0882 17.9333Z" fill="white"/>
<path d="M22.1513 55.0077C22.0389 55.4065 22.4327 55.7611 22.8177 55.6077L24.1431 55.0794C24.2958 55.0186 24.4687 55.0367 24.6055 55.1279L25.7939 55.9199C26.1387 56.1497 26.5973 55.8846 26.5701 55.4711L26.4767 54.0479C26.466 53.8836 26.5367 53.7245 26.666 53.6226L27.7855 52.7395C28.1109 52.4828 28.0006 51.9644 27.599 51.8623L26.2163 51.5109C26.0567 51.4704 25.9274 51.3539 25.8704 51.1995L25.3763 49.861C25.2328 49.4722 24.7057 49.4168 24.4845 49.7673L23.7232 50.9729C23.6353 51.1121 23.4845 51.1991 23.32 51.2056L21.8948 51.2615C21.4808 51.2777 21.2651 51.7615 21.5296 52.0804L22.4416 53.1794C22.5466 53.3059 22.5826 53.476 22.5381 53.6342L22.1513 55.0077Z" fill="white"/>
<path d="M38.1243 55.5656C38.3077 55.194 38.8376 55.194 39.021 55.5656L39.6525 56.8451C39.7253 56.9925 39.8659 57.0947 40.0286 57.1185L41.4417 57.3251C41.8517 57.385 42.0151 57.8889 41.7183 58.178L40.6965 59.1732C40.5786 59.288 40.5247 59.4536 40.5526 59.6159L40.7936 61.0212C40.8637 61.4297 40.4349 61.7412 40.0681 61.5483L38.8054 60.8842C38.6597 60.8076 38.4856 60.8076 38.3399 60.8842L37.0772 61.5483C36.7104 61.7412 36.2816 61.4297 36.3517 61.0212L36.5927 59.6159C36.6205 59.4536 36.5667 59.288 36.4487 59.1732L35.427 58.178C35.1302 57.8889 35.2936 57.385 35.7036 57.3251L37.1167 57.1185C37.2794 57.0947 37.42 56.9925 37.4927 56.8451L38.1243 55.5656Z" fill="white"/>
<path d="M56.0882 55.0077C56.2006 55.4065 55.8068 55.7611 55.4218 55.6077L54.0964 55.0794C53.9437 55.0186 53.7708 55.0367 53.634 55.1279L52.4456 55.9199C52.1008 56.1497 51.6422 55.8846 51.6694 55.4711L51.7628 54.0479C51.7735 53.8836 51.7028 53.7245 51.5735 53.6226L50.454 52.7395C50.1286 52.4828 50.2389 51.9644 50.6405 51.8623L52.0233 51.5109C52.1828 51.4704 52.3121 51.3539 52.3691 51.1995L52.8632 49.861C53.0067 49.4722 53.5338 49.4168 53.755 49.7673L54.5163 50.9729C54.6042 51.1121 54.755 51.1991 54.9195 51.2056L56.3447 51.2615C56.7587 51.2777 56.9744 51.7615 56.7099 52.0804L55.7979 53.1794C55.6929 53.3059 55.6569 53.476 55.7014 53.6342L56.0882 55.0077Z" fill="white"/>
<path d="M13.7267 32.4688V41H11.8166V32.4688H13.7267ZM17.0841 36.0664V37.543H13.1935V36.0664H17.0841ZM17.4591 32.4688V33.9512H13.1935V32.4688H17.4591ZM23.9516 39.5234V41H19.4105V39.5234H23.9516ZM20.0609 32.4688V41H18.1508V32.4688H20.0609ZM23.3656 35.9023V37.332H19.4105V35.9023H23.3656ZM23.9574 32.4688V33.9512H19.4105V32.4688H23.9574ZM28.194 34.0918L25.9909 41H23.9518L27.11 32.4688H28.3991L28.194 34.0918ZM30.0221 41L27.8131 34.0918L27.5846 32.4688H28.8913L32.0612 41H30.0221ZM29.9284 37.8242V39.3008H25.4811V37.8242H29.9284ZM35.788 32.4688V41H33.8837V32.4688H35.788ZM38.3837 32.4688V33.9512H31.3407V32.4688H38.3837ZM43.757 32.4688H45.6671V38.0703C45.6671 38.7344 45.5265 39.293 45.2452 39.7461C44.9679 40.1992 44.5812 40.541 44.0851 40.7715C43.589 41.002 43.0148 41.1172 42.3624 41.1172C41.7062 41.1172 41.128 41.002 40.628 40.7715C40.132 40.541 39.7413 40.1992 39.4562 39.7461C39.1749 39.293 39.0343 38.7344 39.0343 38.0703V32.4688H40.9503V38.0703C40.9503 38.4375 41.005 38.7383 41.1144 38.9727C41.2277 39.2031 41.3898 39.373 41.6007 39.4824C41.8116 39.5879 42.0655 39.6406 42.3624 39.6406C42.6593 39.6406 42.9113 39.5879 43.1183 39.4824C43.3292 39.373 43.4874 39.2031 43.5929 38.9727C43.7023 38.7383 43.757 38.4375 43.757 38.0703V32.4688ZM46.7923 32.4688H50.0677C50.7201 32.4688 51.2845 32.5664 51.7611 32.7617C52.2416 32.957 52.6107 33.2461 52.8685 33.6289C53.1263 34.0117 53.2552 34.4844 53.2552 35.0469C53.2552 35.5156 53.1791 35.9141 53.0267 36.2422C52.8744 36.5703 52.6595 36.8418 52.3822 37.0566C52.1087 37.2715 51.7884 37.4453 51.4212 37.5781L50.8002 37.918H48.0111L47.9994 36.4355H50.0736C50.3587 36.4355 50.5951 36.3848 50.7826 36.2832C50.9701 36.1816 51.1107 36.0391 51.2045 35.8555C51.3021 35.668 51.3509 35.4492 51.3509 35.1992C51.3509 34.9414 51.3021 34.7188 51.2045 34.5312C51.1068 34.3438 50.9623 34.2012 50.7709 34.1035C50.5834 34.002 50.349 33.9512 50.0677 33.9512H48.7025V41H46.7923V32.4688ZM51.515 41L49.599 37.209L51.6146 37.2031L53.5599 40.9121V41H51.515ZM60.1109 39.5234V41H55.5699V39.5234H60.1109ZM56.2203 32.4688V41H54.3102V32.4688H56.2203ZM59.525 35.9023V37.332H55.5699V35.9023H59.525ZM60.1168 32.4688V33.9512H55.5699V32.4688H60.1168ZM63.5096 41H61.6346L61.6463 39.5234H63.5096C63.9354 39.5234 64.2948 39.4258 64.5877 39.2305C64.8807 39.0312 65.1034 38.7383 65.2557 38.3516C65.408 37.9609 65.4842 37.4863 65.4842 36.9277V36.5352C65.4842 36.1133 65.4412 35.7422 65.3553 35.4219C65.2694 35.0977 65.1424 34.8262 64.9745 34.6074C64.8065 34.3887 64.5975 34.2246 64.3475 34.1152C64.1014 34.0059 63.8182 33.9512 63.4979 33.9512H61.5995V32.4688H63.4979C64.076 32.4688 64.6034 32.5664 65.0799 32.7617C65.5604 32.957 65.9745 33.2363 66.3221 33.5996C66.6737 33.9629 66.9452 34.3926 67.1366 34.8887C67.328 35.3848 67.4237 35.9375 67.4237 36.5469V36.9277C67.4237 37.5332 67.328 38.0859 67.1366 38.5859C66.9452 39.082 66.6737 39.5117 66.3221 39.875C65.9745 40.2344 65.5623 40.5117 65.0858 40.707C64.6092 40.9023 64.0838 41 63.5096 41ZM62.7186 32.4688V41H60.8084V32.4688H62.7186Z" fill="white"/>
<defs>
<filter id="filter0_d_4_3191" x="0" y="0" width="78" height="75.8788" filterUnits="userSpaceOnUse" color-interpolation-filters="sRGB">
<feFlood flood-opacity="0" result="BackgroundImageFix"/>
<feColorMatrix in="SourceAlpha" type="matrix" values="0 0 0 0 0 0 0 0 0 0 0 0 0 0 0 0 0 0 127 0" result="hardAlpha"/>
<feOffset dy="1"/>
<feGaussianBlur stdDeviation="2"/>
<feComposite in2="hardAlpha" operator="out"/>
<feColorMatrix type="matrix" values="0 0 0 0 0.33125 0 0 0 0 0.021875 0 0 0 0 0.4375 0 0 0 0.3 0"/>
<feBlend mode="normal" in2="BackgroundImageFix" result="effect1_dropShadow_4_3191"/>
<feBlend mode="normal" in="SourceGraphic" in2="effect1_dropShadow_4_3191" result="shape"/>
</filter>
<filter id="filter1_d_4_3191" x="2" y="2" width="74" height="72" filterUnits="userSpaceOnUse" color-interpolation-filters="sRGB">
<feFlood flood-opacity="0" result="BackgroundImageFix"/>
<feColorMatrix in="SourceAlpha" type="matrix" values="0 0 0 0 0 0 0 0 0 0 0 0 0 0 0 0 0 0 127 0" result="hardAlpha"/>
<feOffset dy="1"/>
<feGaussianBlur stdDeviation="2"/>
<feComposite in2="hardAlpha" operator="out"/>
<feColorMatrix type="matrix" values="0 0 0 0 0.33125 0 0 0 0 0.021875 0 0 0 0 0.4375 0 0 0 0.3 0"/>
<feBlend mode="normal" in2="BackgroundImageFix" result="effect1_dropShadow_4_3191"/>
<feBlend mode="normal" in="SourceGraphic" in2="effect1_dropShadow_4_3191" result="shape"/>
</filter>
<linearGradient id="paint0_linear_4_3191" x1="52.4167" y1="-2.90419" x2="25.5907" y2="76.608" gradientUnits="userSpaceOnUse">
<stop stop-color="#CE42FF"/>
<stop offset="1" stop-color="#870FB1"/>
</linearGradient>
<linearGradient id="paint1_linear_4_3191" x1="39" y1="5" x2="39" y2="69" gradientUnits="userSpaceOnUse">
<stop stop-color="#FF5887"/>
<stop offset="1" stop-color="#D10840"/>
</linearGradient>
</defs>
</svg>
