<svg xmlns="http://www.w3.org/2000/svg" viewBox="0 0 62 60" fill="none">
<path d="M59.3969 24.6664C54.3241 16.6423 48.0337 15.9489 45.3959 15.5526C38.091 14.7601 32.3079 19.416 31.6992 20.0104L31.1919 20.4067C31.1919 20.4067 30.3802 21.1992 28.554 23.1804C28.0467 23.7748 23.9885 28.6289 22.5681 30.412C21.3506 32.0961 18.5098 36.1576 18.2054 36.5539C18.0025 36.8511 17.6981 37.5445 17.901 37.7426C18.2054 38.0398 18.6112 37.8417 19.3214 37.3464C19.8287 36.9501 21.3506 35.4642 21.655 35.167C21.9593 34.8698 22.5681 34.5726 22.771 34.8698C22.9739 35.167 22.6695 35.6623 22.1622 36.2567C21.7564 36.752 19.8287 39.0304 19.4229 39.4267C19.1185 39.8229 18.2054 41.1107 18.4083 41.4079C18.7127 41.8042 19.22 41.507 19.9302 41.0117C20.5389 40.6154 23.4812 37.6436 23.7855 37.3464C23.9885 37.0492 24.3943 36.851 24.4957 36.9501C24.5972 37.0492 24.4957 37.2473 24.3943 37.4454C24.2928 37.5445 24.0899 37.9408 23.1768 39.2286C22.771 39.7239 20.7418 42.7948 20.4375 43.3892C20.0316 43.8845 19.8287 45.0733 20.1331 45.1723C20.6404 45.4695 21.1477 44.7761 21.8579 43.9836C22.3652 43.4883 25.003 39.922 25.4089 39.4267C25.8147 38.9313 26.4234 38.1389 26.6263 38.238C26.9307 38.337 26.5249 39.0304 26.0176 40.0211C25.8147 40.4173 24.2928 43.1911 23.9885 43.9836C23.5826 44.7761 23.6841 45.6676 23.9885 45.7667C24.9016 45.8658 25.6118 44.5779 26.0176 43.9836C26.322 43.3892 27.7424 40.9126 28.2497 40.0211C28.7569 39.2286 29.2642 39.0304 29.4671 39.1295C29.7715 39.2285 29.67 39.7239 29.5686 40.1201C29.4671 40.5164 28.6555 42.7948 28.3511 43.6864C28.0467 44.578 28.3511 45.2714 28.6555 45.3704C29.4671 45.6676 29.7715 45.1723 30.1773 44.3798C30.4817 43.5873 32.5108 39.7238 33.7283 36.9501C34.8443 34.4735 38.1924 28.7279 39.1055 27.4401C40.0187 26.1523 40.5259 26.2514 40.8303 26.3505C41.1347 26.4495 41.1347 27.0439 40.9318 27.6383C40.8303 27.8364 40.2216 29.2232 40.0187 29.7185C39.8157 30.2139 39.7143 30.8082 39.9172 30.9073C40.323 31.0064 40.6274 30.5111 40.8303 30.1148C41.0332 29.8176 42.3522 27.1429 42.8594 26.4495C43.1638 25.8551 43.7726 25.2607 44.0769 25.4589C44.3813 25.657 44.1784 26.3505 43.874 27.3411C43.5696 28.2326 42.758 29.9167 42.5551 30.6101C42.3522 31.2045 42.2507 31.7989 42.3522 31.8979C42.6565 31.997 42.8594 31.6007 43.3667 30.7092C43.6711 30.2139 44.99 27.6382 45.3959 26.7467C45.9031 25.9542 46.5119 25.7561 46.7148 25.8551C46.9177 26.0533 46.8163 26.9448 46.6133 27.5392C46.4104 27.9354 45.5988 30.1148 45.193 31.3036C44.8886 31.997 44.6857 32.9876 44.8886 33.0867C45.2944 33.1858 45.4973 32.6904 45.9031 32.0961C46.2075 31.6998 47.3235 29.3223 47.8308 28.5298C48.3381 27.7373 48.8454 27.6382 49.0483 27.9354C49.2512 28.2326 49.1498 28.9261 48.7439 29.9167C48.4396 30.5111 46.7148 34.2754 46.309 35.167C45.9031 35.9595 46.1061 36.4548 46.2075 36.5539C46.6133 36.5539 47.0192 36.2567 47.3235 35.9595C47.6279 35.6623 48.541 34.3745 49.2512 33.4829C49.86 32.5913 50.3673 32.4923 50.6716 32.5914C50.976 32.6904 51.1789 33.2848 50.8745 34.3745C49.6571 37.2473 48.3381 39.2286 45.193 43.1911C40.2216 49.1348 36.5691 50.9179 33.221 52.8001C28.554 55.3757 21.655 55.3758 18.6112 55.1776C18.3069 55.1776 17.9011 55.0786 17.5967 55.0786C23.5826 60.9233 31.3948 60.0317 34.1341 59.8336C44.7871 58.3476 51.0775 52.4039 53.208 50.6208C60.5129 43.4883 61.1217 38.8323 61.9333 35.6623C62.3392 30.8082 60.8173 27.6383 59.3969 24.6664Z" fill="url(#paint0_linear_5931_4260)"/>
<path d="M15.0603 54.3856C16.0748 54.7819 17.0894 54.98 18.104 54.98C21.1477 55.1781 28.0467 55.1781 32.7138 52.6025C36.0618 50.7203 39.7143 49.0362 44.6857 42.9934C47.8308 39.0309 49.1498 37.0496 50.3673 34.1768C50.6716 33.1862 50.4687 32.4928 50.1643 32.3937C49.86 32.2946 49.3527 32.3937 48.7439 33.2853C48.0337 34.2759 47.1206 35.4647 46.8163 35.7619C46.5119 36.059 46.1061 36.4553 45.7002 36.3562C45.5988 36.3562 45.3959 35.8609 45.8017 34.9693C46.2075 34.0777 47.9323 30.3134 48.2367 29.719C48.541 28.7284 48.7439 28.0349 48.541 27.7378C48.3381 27.4406 47.8308 27.6387 47.3236 28.3322C46.8163 29.0256 45.5988 31.5021 45.3959 31.8984C44.99 32.4928 44.8886 32.889 44.3813 32.889C44.1784 32.79 44.3813 31.7993 44.6857 31.1059C45.193 29.9172 46.0046 27.7378 46.1061 27.3415C46.309 26.8462 46.4104 25.8556 46.2075 25.6575C46.0046 25.4593 45.3959 25.6574 44.8886 26.549C44.3813 27.3415 43.1638 30.0162 42.8594 30.5115C42.2507 31.4031 42.1492 31.7993 41.8449 31.7003C41.7434 31.7003 41.8449 31.0068 42.0478 30.4125C42.2507 29.719 43.0624 28.035 43.3667 27.1434C43.6711 26.1528 43.874 25.4593 43.5696 25.2612C43.2653 25.0631 42.6565 25.6574 42.3522 26.2518C41.9463 26.9453 40.5259 29.719 40.323 29.9171C40.1201 30.3134 39.8157 30.8087 39.4099 30.7096C39.3085 30.6106 39.4099 30.0162 39.5114 29.5209C39.7143 29.0256 40.323 27.6387 40.4245 27.4406C40.6274 26.8462 40.6274 26.2518 40.323 26.1528C40.0187 26.0537 39.5114 25.9546 38.5983 27.2424C37.6851 28.5303 34.3371 34.2759 33.221 36.7525C32.0036 39.5262 30.0759 43.3897 29.6701 44.1822C29.3657 44.9747 29.0613 45.47 28.1482 45.1728C27.8438 45.0737 27.6409 44.3803 27.8438 43.4887C28.1482 42.5972 28.9599 40.3187 29.0613 39.9224C29.1628 39.5262 29.2642 39.0309 28.9599 38.9318C28.6555 38.8328 28.1482 39.0309 27.7424 39.8234C27.1336 40.715 25.8147 43.0925 25.5103 43.7859C25.2059 44.3803 24.3943 45.7671 23.4812 45.569C23.1768 45.47 23.0754 44.5784 23.4812 43.7859C23.887 42.9934 25.3074 40.2197 25.5103 39.8234C26.0176 38.8328 26.4234 38.2384 26.1191 38.0403C25.8147 37.8422 25.206 38.7337 24.9016 39.2291C24.4958 39.7244 21.8579 43.2906 21.3506 43.7859C20.6404 44.5784 20.0317 45.1728 19.6258 44.9747C19.4229 44.8756 19.6258 43.6869 19.9302 43.1916C20.336 42.6962 22.2637 39.6253 22.6695 39.0309C23.5826 37.7431 23.7856 37.3469 23.887 37.2478C23.9885 37.1487 24.0899 36.8515 23.9885 36.7525C23.887 36.6534 23.5826 36.8515 23.2783 37.1487C23.0754 37.4459 20.0316 40.3187 19.4229 40.814C18.7127 41.3093 18.2054 41.6066 17.9011 41.2103C17.5967 40.8141 18.5098 39.5262 18.9156 39.2291C19.22 38.8328 21.2491 36.5543 21.655 36.059C22.1622 35.3656 22.4666 34.8703 22.2637 34.6721C22.0608 34.3749 21.452 34.7712 21.1477 34.9693C20.8433 35.2665 19.3215 36.7525 18.8142 37.1487C18.104 37.644 17.6981 37.8422 17.3938 37.545C17.1909 37.3468 17.4952 36.6534 17.6981 36.3562C18.0025 35.8609 20.7418 31.8984 22.0608 30.2143C23.3797 28.4312 27.438 23.5771 28.0467 22.9828C29.873 21.0015 30.6846 20.209 30.6846 20.209C30.6846 20.209 27.5395 16.7418 21.452 15.5531C18.2054 15.2559 13.5384 14.1662 6.23351 19.8128C4.40729 21.3978 0.754839 25.2612 0.0446409 31.7003C-0.056816 34.0778 -0.259728 39.6253 2.98689 44.8756C5.62477 47.9465 7.95828 51.81 15.0603 54.3856Z" fill="url(#paint1_linear_5931_4260)"/>
<path opacity="0.2" d="M15.7705 24.3694C21.8221 24.3694 26.7278 19.5794 26.7278 13.6706C26.7278 7.76185 21.8221 2.97186 15.7705 2.97186C9.71891 2.97186 4.81314 7.76185 4.81314 13.6706C4.81314 19.5794 9.71891 24.3694 15.7705 24.3694Z" fill="#231F20"/>
<path d="M15.7705 21.0013C21.71 21.0013 26.5249 16.3 26.5249 10.5007C26.5249 4.70133 21.71 0 15.7705 0C9.83094 0 5.01602 4.70133 5.01602 10.5007C5.01602 16.3 9.83094 21.0013 15.7705 21.0013Z" fill="url(#paint2_linear_5931_4260)"/>
<path d="M15.7705 17.2369C20.6454 17.2369 24.5972 13.3783 24.5972 8.61845C24.5972 3.85862 20.6454 0 15.7705 0C10.8956 0 6.94374 3.85862 6.94374 8.61845C6.94374 13.3783 10.8956 17.2369 15.7705 17.2369Z" fill="url(#paint3_linear_5931_4260)"/>
<g opacity="0.3">
<path d="M19.6259 12.0852C19.3215 13.0759 18.3069 13.6702 17.1909 13.6702V14.7599C17.1909 14.9581 16.988 15.1562 16.7851 15.1562H16.0749C15.872 15.1562 15.6691 14.9581 15.6691 14.7599V13.6702C14.9589 13.6702 14.2487 13.4721 13.7414 12.9768C13.5385 12.8778 13.5385 12.5806 13.7414 12.4815L14.553 11.689C14.6545 11.5899 14.8574 11.5899 14.9589 11.689C15.1618 11.8871 15.4662 11.8871 15.7705 11.8871H17.2924C17.6982 11.8871 18.0026 11.5899 18.0026 11.1937C18.0026 10.8965 17.7997 10.6984 17.4953 10.5993L15.1618 9.90585C14.1472 9.60867 13.3356 8.81615 13.2341 7.72647C13.1326 6.33959 14.2487 5.0518 15.6691 5.0518H15.7705V3.9621C15.7705 3.76398 15.9734 3.56586 16.1764 3.56586H16.8865C17.0895 3.56586 17.2924 3.76398 17.2924 3.9621V5.0518C18.0026 5.0518 18.7128 5.24993 19.2201 5.74525C19.423 5.84431 19.423 6.1415 19.2201 6.24056L18.4084 7.03308C18.3069 7.13214 18.104 7.13214 18.0026 7.03308C17.7997 6.83495 17.4953 6.83494 17.1909 6.83494H15.6691C15.2632 6.83494 14.9589 7.13214 14.9589 7.52839C14.9589 7.82558 15.1618 8.12274 15.4662 8.12274L17.9011 8.81619C19.3215 9.3115 20.1332 10.6984 19.6259 12.0852Z" fill="#231F20"/>
</g>
<path d="M18.9156 11.194C18.6112 12.1846 17.5966 12.779 16.4806 12.779V13.8687C16.4806 14.0668 16.2777 14.265 16.0748 14.265H15.3646C15.1617 14.265 14.9587 14.0668 14.9587 13.8687V12.779C14.2485 12.779 13.5383 12.5809 13.0311 12.0856C12.8281 11.9865 12.8281 11.6893 13.0311 11.5903L13.8427 10.7978C13.9442 10.6987 14.1471 10.6987 14.2485 10.7978C14.4515 10.9959 14.7558 10.9959 15.0602 10.9959H16.5821C16.9879 10.9959 17.2922 10.6987 17.2922 10.3025C17.2922 10.0053 17.0893 9.8071 16.785 9.70804L14.4515 9.01465C13.4369 8.71746 12.6252 7.92495 12.5238 6.83526C12.4223 5.44839 13.5383 4.16056 14.9587 4.16056H15.0602V3.07087C15.0602 2.87274 15.2631 2.67462 15.466 2.67462H16.1762C16.3791 2.67462 16.5821 2.87274 16.5821 3.07087V4.16056C17.2923 4.16056 18.0024 4.3587 18.5097 4.85401C18.7126 4.95307 18.7126 5.25026 18.5097 5.34932L17.6981 6.14181C17.5966 6.24087 17.3937 6.24087 17.2922 6.14181C17.0893 5.94369 16.785 5.94367 16.4806 5.94367H14.9587C14.5529 5.94367 14.2485 6.24087 14.2485 6.63712C14.2485 6.93431 14.4515 7.23147 14.7558 7.23147L17.1908 7.92492C18.6112 8.5193 19.4228 9.90616 18.9156 11.194Z" fill="white"/>
<defs>
<linearGradient id="paint0_linear_5931_4260" x1="17.9658" y1="15.9345" x2="41.3584" y2="44.4646" gradientUnits="userSpaceOnUse">
<stop stop-color="white"/>
<stop offset="1" stop-color="#FFBF00"/>
</linearGradient>
<linearGradient id="paint1_linear_5931_4260" x1="46.0409" y1="50.8881" x2="9.5392" y2="25.1635" gradientUnits="userSpaceOnUse">
<stop stop-color="#F8003C"/>
<stop offset="1" stop-color="#FF8438"/>
</linearGradient>
<linearGradient id="paint2_linear_5931_4260" x1="18.1309" y1="0.200107" x2="15.5378" y2="12.1514" gradientUnits="userSpaceOnUse">
<stop stop-color="#00D5C9"/>
<stop offset="1" stop-color="white"/>
</linearGradient>
<linearGradient id="paint3_linear_5931_4260" x1="15.5546" y1="-0.0244685" x2="15.9791" y2="17.1805" gradientUnits="userSpaceOnUse">
<stop stop-color="#0099AC"/>
<stop offset="0.9996" stop-color="#00D5C9"/>
</linearGradient>
</defs>
</svg>