<svg width="130" height="45" viewBox="0 0 130 45" fill="none" xmlns="http://www.w3.org/2000/svg">
<path d="M7.35682 9.71188C7.35682 9.71188 7.84081 9.13104 9.68002 8.45348C11.616 7.77589 24.5869 6.03352 27.1037 10.5831C29.6204 15.1325 29.6204 25.5868 29.6204 25.5868L29.4268 27.2323L27.3941 36.3314L23.9093 40.6873L23.6189 40.9777L21.3926 42.9136L18.779 43.8816L16.843 44.5592H16.6495L12.3903 42.8168L10.5512 41.2681L9.87354 40.6873L6.38883 35.557L5.61445 29.0715L4.25928 27.1355V23.8444L4.54967 20.4565L5.51765 12.035L7.35682 9.71188Z" fill="white"/>
<path d="M18.0046 3.80715C18.1014 3.22636 18.4887 2.74236 19.0694 2.64557C19.3598 2.54877 19.747 2.54877 20.0374 2.64557C20.9086 2.83916 21.6829 3.41996 22.2638 4.09754C22.8445 4.77513 23.2318 5.64631 23.5222 6.4207C24.2965 8.25987 24.6837 10.2927 24.8773 12.3254L26.0389 13.2934C25.9421 10.7766 25.3613 8.35667 24.4902 6.0335C24.1029 5.06553 23.6189 4.09754 23.0381 3.22636C22.4574 2.35517 21.5862 1.67759 20.6182 1.29039C19.6502 0.903202 18.4887 0.903202 17.6175 1.29039C16.6495 1.77438 15.9719 2.74236 15.8751 3.71035L18.0046 3.80715Z" fill="#107DBB" stroke="#081626" stroke-width="0.1232" stroke-miterlimit="10"/>
<path d="M16.2618 3.61357C16.5522 2.35519 17.8106 1.58081 19.069 1.48401C20.3273 1.48401 21.5857 2.0648 22.3601 3.03279C22.7473 3.41998 23.0377 3.90397 23.3281 4.38796C24.6833 6.61431 25.3608 9.13109 25.7481 11.7446" stroke="#081626" stroke-width="0.1232" stroke-miterlimit="10"/>
<path d="M17.0367 3.71029C17.327 2.93591 18.1015 2.35512 18.9726 2.25832C19.8438 2.16153 20.715 2.45192 21.3925 2.93591C22.0702 3.4199 22.6509 4.09749 23.0382 4.87187C24.2965 7.00143 24.5869 9.51823 24.8773 12.0349" stroke="#081626" stroke-width="0.1232" stroke-miterlimit="10"/>
<path d="M16.6495 3.71033C16.9399 2.93594 17.7143 2.06476 18.6822 1.87116C19.8438 1.67757 20.715 2.06476 21.3926 2.54875C22.0702 3.03274 22.5542 3.71033 23.0382 4.38792C24.3933 6.51748 24.7805 9.03423 25.1678 11.4542" stroke="#4BBEED" stroke-width="0.2464" stroke-miterlimit="10" stroke-linecap="round" stroke-linejoin="round"/>
<path d="M2.32339 32.4594C2.1298 32.4594 2.033 32.3625 1.93619 32.2657L0.484222 25.1027C0.484222 24.9091 0.58102 24.8123 0.677819 24.7155C0.871414 24.7155 0.968212 24.8123 1.06501 24.9091L2.51699 32.0722C2.51699 32.2657 2.42019 32.3625 2.32339 32.4594Z" fill="#00529A"/>
<path d="M1.64557 32.1691C1.45197 32.1691 1.35517 32.0723 1.25837 31.9754L0 25.4899C0 25.3931 0.096798 25.1996 0.193596 25.1996C0.387193 25.1996 0.483991 25.2964 0.58079 25.3931L1.83916 31.7818C1.93596 31.9754 1.83916 32.0723 1.64557 32.1691Z" fill="#061E31"/>
<path d="M4.45286 33.9114C3.67847 34.105 2.80728 33.5242 2.71049 32.7498L0.871324 24.2316C0.677725 23.4572 1.25852 22.5861 2.0329 22.4893C2.90408 22.2956 3.67847 22.7796 3.87207 23.6508L5.61443 32.1691C5.80803 32.9434 5.22724 33.8146 4.45286 33.9114Z" fill="url(#paint0_linear_1_57)" stroke="#062138" stroke-width="0.2464" stroke-miterlimit="10"/>
<path d="M0.968018 27.3292L1.54881 27.2324" stroke="#3CC5F2" stroke-width="0.2464" stroke-miterlimit="10"/>
<path d="M1.06461 27.8132L1.64539 27.7164" stroke="#3CC5F2" stroke-width="0.2464" stroke-miterlimit="10"/>
<path d="M1.16162 28.2972L1.74241 28.2004" stroke="#3CC5F2" stroke-width="0.2464" stroke-miterlimit="10"/>
<path d="M1.25864 28.7811L1.83942 28.6843" stroke="#3CC5F2" stroke-width="0.2464" stroke-miterlimit="10"/>
<path d="M2.22623 30.0394L4.93657 29.4585L5.22697 30.9105L2.51662 31.3945L2.22623 30.0394Z" fill="url(#paint1_linear_1_57)"/>
<path d="M9.09918 22.9732C8.61519 24.5219 6.77603 25.2964 5.22725 25.006C4.84006 24.9092 4.45287 24.8124 4.06567 24.6187C4.06567 22.7796 4.25927 21.3277 4.25927 21.3277L4.84006 13.971C4.93686 12.7126 5.51764 11.551 6.29204 10.583C6.77603 10.099 7.16322 9.71182 7.64721 9.32468C7.74401 9.32468 7.8408 9.22787 7.9376 9.22787C7.45361 10.1959 7.16322 11.3574 7.16322 12.519C7.06642 14.9389 7.8408 17.2621 8.71195 19.4884C9.09918 20.65 9.48641 21.9084 9.09918 22.9732Z" fill="url(#paint2_linear_1_57)"/>
<path d="M31.459 32.4594C31.6526 32.4594 31.7494 32.3625 31.8462 32.2657L33.2981 25.1027C33.2981 24.9091 33.2013 24.8123 33.1045 24.7155C32.911 24.7155 32.8142 24.8123 32.7174 24.9091L31.2654 32.0722C31.2654 32.2657 31.3622 32.3625 31.459 32.4594Z" fill="#00529A"/>
<path d="M32.1371 32.1691C32.3307 32.1691 32.4275 32.0723 32.5243 31.9754L33.7827 25.5867C33.7827 25.3931 33.6859 25.2964 33.5891 25.1996C33.3955 25.1996 33.2987 25.2964 33.2019 25.3931L31.9436 31.7818C31.8468 31.9754 31.9436 32.0723 32.1371 32.1691Z" fill="#061E31"/>
<path d="M29.3298 33.9113C30.1043 34.1049 30.9755 33.5241 31.0723 32.7497L32.9114 24.2314C33.105 23.4571 32.5242 22.5859 31.7498 22.4891C30.9755 22.2955 30.1043 22.8763 30.0075 23.6507L28.2651 32.1689C27.9747 32.9433 28.5555 33.8145 29.3298 33.9113Z" fill="url(#paint3_linear_1_57)" stroke="#062138" stroke-width="0.2464" stroke-miterlimit="10"/>
<path d="M32.8147 27.3292L32.2338 27.2324" stroke="#3CC5F2" stroke-width="0.2464" stroke-miterlimit="10"/>
<path d="M32.7176 27.8132L32.1368 27.7164" stroke="#3CC5F2" stroke-width="0.2464" stroke-miterlimit="10"/>
<path d="M32.621 28.2972L32.0402 28.2004" stroke="#3CC5F2" stroke-width="0.2464" stroke-miterlimit="10"/>
<path d="M32.5244 28.7811L31.9437 28.6843" stroke="#3CC5F2" stroke-width="0.2464" stroke-miterlimit="10"/>
<path d="M31.5561 30.0394L28.8458 29.4585L28.5554 30.9105L31.2657 31.3945L31.5561 30.0394Z" fill="url(#paint4_linear_1_57)"/>
<path d="M8.13108 9.03437C7.93749 9.13118 7.74389 9.22798 7.64709 9.32479C7.74389 9.32479 7.84069 9.22798 7.93749 9.22798C9.00226 9.03437 10.5511 9.13117 12.1966 10.4864C15.1974 13.0031 15.1974 13.6807 16.9397 13.6807V6.42084C16.8429 6.42084 12.1966 5.93685 8.13108 9.03437ZM25.6515 9.03437C21.586 6.03365 16.8429 6.41436 16.8429 6.41436V13.8743C18.5853 13.8743 18.5853 13.2935 21.586 10.68C23.2316 9.22798 24.7804 9.22798 25.8451 9.4216C25.942 9.4216 26.0388 9.4216 26.1356 9.5184C26.0388 9.22798 25.8451 9.13118 25.6515 9.03437Z" fill="url(#paint5_radial_1_57)"/>
<path d="M24.6836 22.9732C25.1676 24.5219 27.0068 25.2964 28.5556 25.006C28.9428 24.9092 29.33 24.8124 29.7171 24.6187C29.7171 22.7796 29.5236 21.3277 29.5236 21.3277L28.8459 13.971C28.7491 12.7126 28.1684 11.551 27.394 10.583C27.0068 10.099 26.6196 9.71182 26.1356 9.32468C26.0388 9.32468 25.942 9.22787 25.8452 9.22787C26.3292 10.1959 26.6196 11.3574 26.6196 12.519C26.7164 14.9389 25.942 17.2621 25.0708 19.4884C24.6836 20.65 24.2965 21.9084 24.6836 22.9732Z" fill="url(#paint6_linear_1_57)"/>
<path d="M14.4228 43.3976C13.5517 43.3008 12.9709 43.1073 12.5837 42.9136C12.2933 42.8168 12.0997 42.6232 11.9061 42.5264L9.87336 40.6873L7.64699 38.8481C6.96941 38.2673 6.48542 37.4929 6.19502 36.7185C5.03345 33.3306 4.64625 29.7491 4.16226 27.1355C4.06547 26.6515 4.06546 26.1676 3.96866 25.6835C4.16226 25.6835 4.45266 25.7803 4.64625 25.8771C5.61423 26.2644 6.48542 26.9419 7.2598 27.5227C7.64699 27.8131 9.29252 28.7811 9.38933 29.3618C9.38933 29.8459 8.22779 30.5234 8.03419 31.1043C7.74379 31.8786 7.84059 32.653 8.03419 33.4274C8.22779 34.589 8.51818 35.7506 8.90538 36.8153C9.1958 37.7833 9.67975 38.7513 10.3573 39.5257C11.1318 40.3 12.0997 40.8809 12.9709 41.5584C13.6485 41.9457 14.2293 42.6232 14.4228 43.3976Z" fill="url(#paint7_linear_1_57)"/>
<path d="M16.843 13.7773V43.5912H16.7462C15.875 43.5912 15.0039 43.5912 14.4231 43.4944C14.1327 42.72 13.5519 42.1392 12.9711 41.6552C12.0999 40.9776 11.1319 40.4936 10.3576 39.6225C9.67993 38.7513 9.29279 37.7833 9.00237 36.8153C8.61519 35.7506 8.32479 34.589 8.1312 33.4274C8.0344 32.653 7.9376 31.8786 8.1312 31.1042C8.32479 30.5234 9.4864 29.8459 9.4864 29.3618C9.4864 28.7811 7.8408 27.8131 7.35681 27.5227C6.58243 26.8451 5.71124 26.1675 4.74326 25.8771C4.54966 25.7803 4.25927 25.6835 4.06567 25.6835C4.06567 25.2963 4.06567 25.0059 4.06567 24.6187C4.45287 24.8124 4.84006 24.9092 5.22725 25.0059C6.77603 25.2963 8.61519 24.5219 9.09918 22.9732C9.48641 21.8116 9.00237 20.65 8.61519 19.4884C7.8408 17.262 6.96962 14.9389 7.06642 12.5189C7.06642 11.3574 7.35681 10.2926 7.8408 9.22778C8.90557 9.03425 10.4544 9.13097 12.0999 10.4862C15.1975 13.0997 15.1975 13.7773 16.843 13.7773Z" fill="url(#paint8_linear_1_57)"/>
<path d="M19.3594 43.3976C20.2307 43.3008 20.8114 43.1073 21.1987 42.9137C21.489 42.8169 21.6826 42.6233 21.8762 42.5265L23.909 40.7841L26.1354 38.945C26.8129 38.3641 27.2969 37.5898 27.5873 36.8154C28.7489 33.4274 29.1361 29.8459 29.6201 27.2324C29.7169 26.7484 29.7169 26.2644 29.8137 25.7804C29.6201 25.7804 29.3297 25.8772 29.1361 25.974C28.1682 26.3612 27.2969 27.0388 26.5225 27.6195C26.1354 27.91 24.4898 28.878 24.393 29.4587C24.393 29.9427 25.5545 30.6203 25.7482 31.2011C26.0386 31.9755 25.9418 32.7499 25.7482 33.5242C25.5545 34.6858 25.2641 35.8474 24.877 36.9122C24.5866 37.8802 24.1026 38.8482 23.425 39.6225C22.6506 40.3969 21.6826 40.9777 20.8114 41.6553C20.1339 41.9457 19.553 42.6233 19.3594 43.3976Z" fill="url(#paint9_linear_1_57)"/>
<path d="M16.9396 13.7775V43.5913H17.0364C17.9076 43.5913 18.7788 43.5913 19.3595 43.4945C19.65 42.7201 20.2307 42.1393 20.8116 41.6554C21.6827 40.9777 22.6507 40.4938 23.4251 39.6226C24.1027 38.8482 24.4899 37.8802 24.8771 36.9123C25.2642 35.8475 25.5547 34.6859 25.7483 33.5243C25.8451 32.7499 25.9419 31.9756 25.7483 31.2011C25.5547 30.6204 24.3931 29.9428 24.3931 29.4588C24.3931 28.878 26.0387 27.91 26.5226 27.6196C27.297 26.942 28.1682 26.2644 29.1361 25.9741C29.3298 25.8773 29.6202 25.7805 29.8138 25.7805C29.8138 25.3932 29.8138 25.1028 29.8138 24.7157C29.4266 24.9093 29.0394 25.0061 28.6522 25.1028C27.1035 25.3932 25.2642 24.6189 24.7803 23.0701C24.3931 21.9085 24.8771 20.7469 25.2642 19.5853C26.0387 17.359 26.9099 15.0359 26.8131 12.6159C26.8131 11.4543 26.5226 10.3895 26.0387 9.3247C24.9739 9.13118 23.4251 9.2279 21.7795 10.5831C18.5852 13.0999 18.5852 13.7775 16.9396 13.7775Z" fill="url(#paint10_linear_1_57)"/>
<path d="M4.25902 21.4244C3.77503 24.0379 4.25902 27.1355 4.25902 27.1355L9.09892 30.4266C9.77648 30.9106 10.5509 31.0074 11.3253 30.9106L16.9396 29.7491L22.5539 30.9106C23.3283 31.1042 24.1027 30.9106 24.7802 30.4266L29.6201 27.1355C29.6201 27.1355 30.1041 23.9411 29.6201 21.3276C21.1987 23.1667 12.5837 23.2635 4.25902 21.4244Z" fill="#061E31"/>
<path d="M4.25902 21.134C3.77503 23.7476 4.25902 27.1355 4.25902 27.1355L9.87329 30.4266C10.0669 30.5234 10.2605 30.5234 10.4541 30.5234L16.9396 29.4587L23.4251 30.5234C23.6186 30.5234 23.8122 30.5234 24.0058 30.4266L29.6201 27.1355C29.6201 27.1355 30.1041 23.6508 29.6201 21.0372C21.1987 22.9731 12.5837 22.9731 4.25902 21.134Z" fill="url(#paint11_linear_1_57)"/>
<path d="M4.25928 21.0372L4.84007 21.134C12.7775 22.6827 21.0054 22.6827 28.9428 21.134L29.5237 21.0372" stroke="#061E31" stroke-width="0.2464" stroke-miterlimit="10"/>
<path d="M4.25928 21.1341L4.84007 21.2309C12.7775 22.7796 21.0054 22.7796 28.9428 21.2309L29.5237 21.1341" stroke="url(#paint12_linear_1_57)" stroke-width="0.2464" stroke-miterlimit="10"/>
<path d="M16.4558 32.653C19.9308 32.653 22.7477 29.836 22.7477 26.3611C22.7477 22.8862 19.9308 20.0692 16.4558 20.0692C12.9809 20.0692 10.1639 22.8862 10.1639 26.3611C10.1639 29.836 12.9809 32.653 16.4558 32.653Z" fill="url(#paint13_radial_1_57)"/>
<path d="M17.9079 29.6523L16.8431 29.4587L15.2943 29.749V22.4892H17.9079V29.6523Z" fill="#57E2F7"/>
<path d="M7.93744 29.2651L5.32388 27.8132V21.6181L7.93744 22.0052V29.2651Z" fill="#004F71"/>
<path d="M19.4563 29.9426L18.585 29.749V22.4892H19.4563V29.9426Z" fill="#57E2F7"/>
<path d="M22.6509 30.4266L21.7797 30.2331V22.3924L22.6509 22.2957V30.4266Z" fill="#57E2F7"/>
<path d="M23.9091 40.6873C20.8116 44.656 16.9396 44.5592 16.9396 44.5592V43.4944H17.0364C19.166 43.5912 20.5211 43.1072 21.1987 42.8168C21.4891 42.72 21.6827 42.5264 21.8763 42.4296L23.9091 40.6873Z" fill="#061E31"/>
<path d="M9.87378 40.6873C12.9713 44.656 16.8433 44.5592 16.8433 44.5592V43.4944H16.7464C14.6169 43.5912 13.2618 43.1072 12.5842 42.8168C12.2938 42.72 12.1002 42.5264 11.9065 42.4296L9.87378 40.6873Z" fill="#061E31"/>
<path d="M30.0076 26.3611L31.9436 26.6515" stroke="white" stroke-width="0.2464" stroke-miterlimit="10" stroke-linecap="round"/>
<path d="M3.67819 26.2645L1.83902 26.5548" stroke="white" stroke-width="0.2464" stroke-miterlimit="10" stroke-linecap="round"/>
<path d="M10.3571 41.1714L11.809 34.686C11.809 34.5891 11.9058 34.5891 12.0027 34.5891H21.6825C21.7793 34.5891 21.8761 34.686 21.8761 34.686L23.3281 41.1714L23.0377 41.4618L21.5857 34.8796H12.1963L10.6475 41.365L10.3571 41.1714Z" fill="url(#paint14_radial_1_57)"/>
<path d="M21.1022 36.7186H12.6807C12.5839 36.7186 12.4872 36.6218 12.4872 36.525C12.4872 36.4282 12.5839 36.3315 12.6807 36.3315H21.1022C21.199 36.3315 21.2958 36.4282 21.2958 36.525C21.2958 36.7186 21.199 36.7186 21.1022 36.7186Z" fill="url(#paint15_radial_1_57)"/>
<path d="M18.1014 39.8161H15.7782C15.2943 39.8161 14.907 39.429 14.907 38.9449C14.907 38.461 15.2943 38.0738 15.7782 38.0738H18.1014C18.5854 38.0738 18.9726 38.461 18.9726 38.9449C19.0694 39.429 18.6822 39.8161 18.1014 39.8161Z" fill="url(#paint16_linear_1_57)"/>
<path d="M11.519 7.1951C11.4222 7.1951 11.3254 7.2919 11.2286 7.2919L12.8741 8.45347V11.1638C12.9709 11.2606 13.0677 11.2606 13.0677 11.3575V8.25988L11.519 7.1951Z" fill="#4BBEED"/>
<path d="M10.4544 7.5824C10.3576 7.5824 10.2607 7.6792 10.1639 7.6792L11.7128 8.74397V10.1959C11.8095 10.2927 11.9063 10.2927 11.9063 10.3895V8.64718L10.4544 7.5824Z" fill="#4BBEED"/>
<path d="M9.68019 7.96951C9.58338 7.96951 9.48657 8.06631 9.48657 8.06631L10.5514 8.84072V9.51828C10.6482 9.51828 10.745 9.61509 10.745 9.61509V8.7439L9.68019 7.96951Z" fill="#4BBEED"/>
<path d="M13.5518 6.61444V7.67923L12.6806 6.80804C12.5838 6.80804 12.487 6.90484 12.3902 6.90484L13.5518 8.06642V11.8416C13.6486 11.9384 13.7454 12.0352 13.7454 12.0352V6.61444C13.7454 6.61444 13.6486 6.61444 13.5518 6.61444Z" fill="#4BBEED"/>
<path d="M16.4558 6.61423L16.2622 6.42062L15.2942 7.48541L14.3262 6.42062H14.2294L14.1326 6.51742L15.1974 7.7758V9.8086L14.7135 9.32456V7.9694H14.5199V9.32456L15.2942 10.0989V13.2933C15.391 13.3901 15.4878 13.3901 15.4878 13.4869V7.7758L16.4558 6.61423Z" fill="#4BBEED"/>
<path d="M16.3588 12.6158L16.5524 12.8094L16.8429 12.4222V12.035L16.3588 12.6158Z" fill="#4BBEED"/>
<path d="M16.8428 11.1638V10.8735L16.262 11.4542V10.3895L16.8428 9.8087V8.25991H16.746V9.61509L16.1652 10.1958V7.96951H15.9716V13.5838C16.0684 13.5838 16.1652 13.5838 16.1652 13.5838V11.6479L16.8428 11.1638Z" fill="#4BBEED"/>
<path d="M14.3262 10.4864V12.5191C14.423 12.6159 14.5198 12.7127 14.5198 12.7127V10.4864H14.3262Z" fill="#4BBEED"/>
<path d="M17.8108 11.4542V9.80868V6.51752H17.6172V7.7759L17.0364 7.19511L16.9396 7.29191V7.38871L17.6172 8.06629V10.099L16.9396 10.7767V11.067L17.6172 10.3894V11.3574L16.9396 12.035V12.3254L17.6172 11.6478V13.5838C17.714 13.5838 17.8108 13.5838 17.8108 13.487V11.4542Z" fill="#4BBEED"/>
<path d="M17.0364 9.71189V8.25995H16.9396V9.8087L17.0364 9.71189Z" fill="#4BBEED"/>
<path d="M19.1658 10.583C19.1658 10.7766 19.2626 10.9701 19.4562 10.9701C19.6498 10.9701 19.7466 10.7766 19.7466 10.6798C19.7466 10.583 19.553 10.3894 19.4562 10.3894C19.3594 10.3894 19.2626 10.3894 19.2626 10.4862L18.3914 9.61498V6.42062C18.2946 6.42062 18.1978 6.42062 18.1978 6.42062V9.61498L19.1658 10.583Z" fill="#4BBEED"/>
<path d="M18.2949 13.3902C18.3917 13.3902 18.4885 13.2934 18.4885 13.1966V10.6798L19.8436 12.035C19.9404 11.9382 19.9404 11.9382 20.0372 11.8414L18.2949 10.099V13.3902Z" fill="#4BBEED"/>
<path d="M19.3599 6.51752C19.2631 6.51752 19.1663 6.51752 19.1663 6.51752V9.13104L21.1024 11.067C21.1991 10.9703 21.1991 10.9703 21.2959 10.8735L19.3599 9.03432V6.51752Z" fill="#4BBEED"/>
<path d="M20.5216 6.71109C20.4247 6.71109 20.3279 6.71109 20.3279 6.71109V9.03425L21.7799 10.4862C21.8767 10.3895 21.8767 10.3895 21.9735 10.2927L20.6184 8.93744V6.71109H20.5216Z" fill="#4BBEED"/>
<path d="M21.1989 8.64715V6.90478C21.1021 6.90478 21.0053 6.90478 21.0053 6.80798V8.64715H21.1989Z" fill="#4BBEED"/>
<path d="M21.5861 9.42147L21.7797 9.61508L22.0702 9.32466V7.09832C21.9733 7.09832 21.8765 7.00153 21.8765 7.00153V9.22785L21.5861 9.42147Z" fill="#4BBEED"/>
<path d="M23.4248 7.6792C23.328 7.6792 23.2312 7.5824 23.2312 7.5824L22.36 8.45358V10.0992C22.4569 10.0024 22.5537 10.0024 22.5537 10.0024V8.45358L23.4248 7.6792Z" fill="#4BBEED"/>
<path d="M23.3287 8.45338C23.1352 8.45338 23.0384 8.64697 23.0384 8.74377C23.0384 8.93741 23.2319 9.03413 23.3287 9.03413C23.5223 9.03413 23.6191 8.8406 23.6191 8.74377V8.64697L24.2967 7.96939C24.2 7.96939 24.1032 7.87259 24.1032 7.87259L23.5223 8.45338C23.4255 8.55017 23.3287 8.45338 23.3287 8.45338Z" fill="#4BBEED"/>
<path d="M25.8454 9.32469C24.9742 9.13107 24.1031 9.32469 23.3286 9.61502C22.5542 10.0022 21.8767 10.4862 21.1991 11.067C20.6183 11.6478 19.9407 12.2286 19.2632 12.9062C18.9728 13.1966 18.5855 13.5837 18.1984 13.7774C17.8112 13.971 17.3272 14.0678 16.8432 14.0678C16.3592 14.0678 15.972 13.971 15.488 13.7774C15.2944 13.6806 15.1008 13.5837 14.9072 13.3902C14.7136 13.1966 14.52 13.0998 14.4232 12.9062L12.4872 11.067C12.1969 10.7766 11.8097 10.4862 11.5192 10.1959C11.1321 9.90544 10.8417 9.71183 10.4545 9.51821C9.68009 9.13107 8.80892 9.13107 7.93774 9.32469C8.80892 9.03427 9.68009 9.03427 10.5513 9.32469C10.9385 9.51821 11.3257 9.71183 11.7129 10.0022C12.1001 10.1959 12.4872 10.4862 12.7776 10.7766C13.4552 11.3575 14.036 11.9382 14.7136 12.519C14.9072 12.6158 15.004 12.8094 15.1976 12.9062C15.3912 13.003 15.5848 13.1966 15.7784 13.1966C16.0688 13.3902 16.5528 13.3902 16.94 13.3902C17.3272 13.3902 17.7144 13.3902 18.1016 13.1966C18.4887 13.003 18.7791 12.8094 19.0696 12.4222L21.0055 10.6798C21.6831 10.1959 22.4574 9.71183 23.2319 9.42149C24.1031 9.13107 25.0711 9.03427 25.8454 9.32469Z" fill="#34B4E8"/>
<path d="M8.51813 8.64706C9.09893 8.25987 9.77649 7.87267 10.4541 7.58228C11.1317 7.29189 11.8093 7.00149 12.5836 6.8079C14.0356 6.4207 15.4876 6.22711 16.9396 6.13031C18.3915 6.13031 19.8435 6.32391 21.2954 6.8079C22.7475 7.19509 24.1027 7.77588 25.2642 8.64706C24.0059 7.96947 22.6507 7.38868 21.1987 7.00149C19.7467 6.6143 18.2947 6.4207 16.8428 6.4207C13.9388 6.4207 11.0349 7.19509 8.51813 8.64706Z" fill="#061E31"/>
<path d="M19.3599 5.35598C19.3599 5.54958 19.2631 5.83997 19.0695 5.93677C18.9727 6.03357 18.9727 6.03357 18.876 6.13037C18.7792 6.13037 18.6824 6.22717 18.5856 6.22717H18.4888H15.2944H15.1976C15.1008 6.22717 15.004 6.22717 14.9073 6.13037C14.6168 6.03357 14.4232 5.64638 14.4232 5.35598C14.4232 5.16239 14.52 4.87199 14.7136 4.7752C14.8104 4.6784 14.8104 4.6784 14.9073 4.5816C15.004 4.5816 15.1008 4.4848 15.1976 4.4848H15.2944H18.4888H18.5856C18.6824 4.4848 18.7792 4.4848 18.876 4.5816C19.1663 4.6784 19.3599 4.96879 19.3599 5.35598Z" stroke="#061E31" stroke-width="0.2464" stroke-miterlimit="10"/>
<path d="M18.1982 4.48483H15.5847C15.3911 4.48483 15.1006 4.29123 15.1006 4.00084C15.1006 3.80724 15.2943 3.51685 15.5847 3.51685H18.1982C18.3918 3.51685 18.6822 3.71044 18.6822 4.00084C18.6822 4.29123 18.4886 4.48483 18.1982 4.48483Z" fill="#107DBB" stroke="#081626" stroke-width="0.2464" stroke-miterlimit="10"/>
<path d="M19.3599 5.35611C19.3599 5.54971 19.2631 5.8401 19.0694 5.9369C18.9727 6.0337 18.9726 6.0337 18.8759 6.13049C18.8759 6.13049 18.7791 6.0337 18.7791 5.9369V4.77532C18.7791 4.67852 18.7791 4.67852 18.8759 4.58173C19.1663 4.67852 19.3599 4.96892 19.3599 5.35611Z" fill="#107DBB" stroke="#081626" stroke-width="0.2464" stroke-miterlimit="10"/>
<path d="M15.004 4.77532V5.9369C15.004 6.0337 15.004 6.0337 14.9073 6.13049C14.6168 6.0337 14.4232 5.6465 14.4232 5.35611C14.4232 5.16251 14.52 4.87212 14.7136 4.77532C14.8104 4.67852 14.8104 4.67852 14.9073 4.58173C14.9073 4.58173 15.004 4.67852 15.004 4.77532Z" fill="#107DBB" stroke="#081626" stroke-width="0.2464" stroke-miterlimit="10"/>
<path d="M15.3911 6.22717C15.1007 6.22717 14.907 6.03357 14.907 5.74318V4.96879C14.907 4.6784 15.1007 4.4848 15.3911 4.4848C15.6815 4.4848 15.8751 4.6784 15.8751 4.96879V5.83997C15.8751 6.03357 15.6815 6.22717 15.3911 6.22717Z" fill="#107DBB" stroke="#081626" stroke-width="0.2464" stroke-miterlimit="10"/>
<path d="M18.3917 6.22717C18.1013 6.22717 17.9077 6.03357 17.9077 5.74318V4.96879C17.9077 4.6784 18.1013 4.4848 18.3917 4.4848C18.682 4.4848 18.8756 4.6784 18.8756 4.96879V5.83997C18.7788 6.03357 18.5853 6.22717 18.3917 6.22717Z" fill="#107DBB" stroke="#081626" stroke-width="0.2464" stroke-miterlimit="10"/>
<path d="M17.4237 6.22717C17.1332 6.22717 16.9396 6.03357 16.9396 5.74318V4.96879C16.9396 4.6784 17.1332 4.4848 17.4237 4.4848C17.7141 4.4848 17.9076 4.6784 17.9076 4.96879V5.74318C17.9076 6.03357 17.7141 6.22717 17.4237 6.22717Z" fill="#107DBB" stroke="#081626" stroke-width="0.2464" stroke-miterlimit="10"/>
<path d="M16.359 6.22717C16.0686 6.22717 15.8751 6.03357 15.8751 5.74318V4.96879C15.8751 4.6784 16.0686 4.4848 16.359 4.4848C16.6494 4.4848 16.843 4.6784 16.843 4.96879V5.74318C16.9398 6.03357 16.6494 6.22717 16.359 6.22717Z" fill="#107DBB" stroke="#081626" stroke-width="0.2464" stroke-miterlimit="10"/>
<path d="M18.3919 4.96881V5.4528" stroke="#4BBEED" stroke-width="0.2464" stroke-miterlimit="10" stroke-linecap="round" stroke-linejoin="round"/>
<path d="M17.4239 4.96881V5.4528" stroke="#4BBEED" stroke-width="0.2464" stroke-miterlimit="10" stroke-linecap="round" stroke-linejoin="round"/>
<path d="M16.3588 4.96881V5.4528" stroke="#4BBEED" stroke-width="0.2464" stroke-miterlimit="10" stroke-linecap="round" stroke-linejoin="round"/>
<path d="M15.3908 4.96881V5.4528" stroke="#4BBEED" stroke-width="0.2464" stroke-miterlimit="10" stroke-linecap="round" stroke-linejoin="round"/>
<path d="M15.5844 3.90393H18.1012" stroke="#4BBEED" stroke-width="0.1232" stroke-miterlimit="10" stroke-linecap="round" stroke-linejoin="round"/>
<path d="M46.4632 31.9754H46.9472C47.2376 31.9754 47.528 32.0722 47.8184 32.169C47.8184 32.0722 47.8184 31.9754 47.8184 31.8785C47.8184 31.7817 47.8184 31.7817 47.8184 31.6849C47.3344 31.201 47.044 30.717 46.7536 30.1362C46.6568 30.1362 46.56 30.1362 46.4632 30.1362H43.4625C43.172 30.1362 42.9785 30.233 42.8817 30.3298C42.7849 30.4265 42.5913 30.6201 42.5913 30.9106V33.4273C42.5913 33.6209 42.6881 33.8145 42.7849 34.0081C42.8817 34.1049 43.172 34.2017 43.4625 34.2017C43.6561 34.2017 43.8497 34.2017 43.9465 34.1049C44.0433 34.1049 44.2368 34.0081 44.2368 34.0081V32.3626H45.8824V32.4593C45.9793 32.5561 45.9793 32.6529 46.076 32.8465C46.076 33.0401 46.1728 33.2338 46.1728 33.4273C46.1728 33.8145 46.076 34.1049 45.9793 34.3953C45.8824 34.6857 45.6888 34.9761 45.4952 35.2665C45.3016 35.46 45.0113 35.6537 44.624 35.8473C44.2368 35.9441 43.8497 36.0409 43.3656 36.0409C42.4945 36.0409 41.8169 35.7505 41.3329 35.2665C40.8489 34.7825 40.5585 34.1049 40.5585 33.2338C40.5585 32.7497 40.6553 32.3626 40.7521 31.9754C40.8489 31.5881 41.0425 31.2978 41.1393 31.1042C41.0425 31.0074 40.9457 30.9106 40.7521 30.8138C40.5585 30.717 40.3649 30.6201 40.1713 30.6201C39.7841 30.6201 39.3969 30.9106 39.1065 31.3945C38.8162 31.8785 38.7194 32.6529 38.7194 33.5241C38.7194 34.2017 38.8162 34.7825 39.0098 35.3632C39.2033 35.9441 39.4937 36.5248 39.881 36.9121C40.2681 37.396 40.7521 37.7832 41.3329 38.0737C41.9137 38.364 42.5913 38.4608 43.3656 38.4608C44.14 38.4608 44.8177 38.364 45.3016 38.0737C45.6888 37.88 46.076 37.5896 46.3664 37.2993C46.4632 37.1057 46.4632 37.0089 46.4632 36.9121V31.9754Z" fill="#21BBFF"/>
<path d="M47.8185 25.6835V25.2962C47.044 24.7155 46.4633 23.941 46.076 23.1667V26.1674H44.2369V23.2635C44.2369 23.0698 44.1401 22.8763 44.0433 22.6827C43.9465 22.5859 43.6561 22.4891 43.3657 22.4891C43.1721 22.4891 42.9786 22.4891 42.8818 22.5859C42.785 22.5859 42.6881 22.6827 42.5913 22.6827V26.1674H40.9458V22.8763C40.9458 22.6827 40.849 22.4891 40.7522 22.2955C40.6554 22.1987 40.365 22.1019 40.0745 22.1019C39.881 22.1019 39.6874 22.1019 39.5906 22.1987C39.4938 22.1987 39.397 22.2955 39.3002 22.2955V27.1354C39.3002 27.5226 39.397 27.813 39.5906 28.0066C39.7842 28.2002 40.0745 28.297 40.4618 28.297H46.4633C46.4633 27.329 46.8505 26.361 47.8185 25.6835Z" fill="#21BBFF"/>
<path d="M40.8489 16.4877V14.7453C40.8489 14.5517 40.7521 14.3581 40.6553 14.1645C40.5585 14.0678 40.2682 13.971 39.8809 13.971C39.6873 13.971 39.4937 13.971 39.3002 14.0677C39.2034 14.0677 39.0098 14.1645 38.913 14.1645V20.5532C38.913 20.7468 39.0098 20.9405 39.1066 21.134C39.2034 21.2308 39.4937 21.3276 39.8809 21.3276C40.0746 21.3276 40.2682 21.3276 40.4617 21.2308C40.5585 21.2308 40.7521 21.134 40.8489 21.134V18.8109H45.6888C45.8824 17.9397 46.3665 17.1653 46.9472 16.4877H40.8489Z" fill="#21BBFF"/>
<path d="M57.2078 13.0998C57.8854 12.6157 58.563 12.7125 59.1437 13.0998C59.4342 13.3902 59.8214 13.8741 60.4021 14.5517C60.6926 14.9389 61.0797 15.2293 61.4669 15.3262V10.9702C61.4669 10.8734 61.4669 10.7766 61.2733 10.6798C61.2733 10.6798 61.2733 10.6798 61.1765 10.6798H60.0149C59.7246 10.6798 59.4342 10.6798 59.1437 10.7766C58.2726 10.9702 57.4014 11.7446 56.4334 12.9062C56.143 13.2934 55.8527 13.8741 55.659 14.3582L55.5622 14.5517H55.3686C53.3359 14.1646 51.3999 14.4549 49.5607 15.2293C47.1408 16.2941 45.9792 18.0365 45.9792 20.3596C45.9792 22.3923 46.9472 24.038 48.8832 25.1996L49.1735 25.3931L48.5928 25.6835C47.3344 26.4579 46.7536 27.5227 46.9472 28.9747C46.9472 29.0715 46.9472 29.1683 47.0439 29.3618C47.528 31.3946 49.6576 32.8466 53.4327 33.8146C54.6911 34.105 55.7559 34.4921 56.5302 34.8794C57.4982 35.3633 57.9822 35.8473 58.1758 36.3313C58.2726 36.6217 58.1758 36.9121 58.079 37.1057C57.595 37.8801 56.4334 38.2673 54.3038 38.2673C53.4327 38.2673 52.6583 38.0737 51.9807 37.5897C51.3031 37.1057 50.5287 36.2345 49.6576 34.9762C49.3671 34.5889 49.2703 34.2985 49.0767 34.105C48.3992 33.137 47.6248 32.653 46.9472 32.5562V36.8153C46.9472 36.8153 46.9472 37.0089 47.3344 37.2026C47.4312 37.2993 47.6248 37.3961 47.8184 37.4929C49.6576 38.3641 51.8839 38.8481 54.3038 38.8481C55.3686 38.8481 56.3366 38.7513 57.2078 38.5577C59.9182 37.9769 61.2733 36.6217 61.2733 34.4921C61.2733 33.7178 61.1765 33.137 60.8862 32.5562C60.2085 30.8138 58.1758 29.5554 54.7879 28.6843C52.8519 28.2003 51.3999 27.8131 50.6255 27.5227C49.5608 27.1355 49.0767 26.8451 48.98 26.3611C48.98 26.1675 49.0767 25.8771 49.4639 25.6835L49.5607 25.5867H49.6576C50.916 26.0707 52.1743 26.3611 53.5295 26.3611C54.9814 26.3611 56.3366 26.0707 57.6918 25.4899C60.1117 24.4251 61.2733 22.6828 61.2733 20.2629C61.2733 19.4884 61.1765 18.8108 60.8862 18.1333C60.2085 16.3909 58.563 15.1325 56.143 14.5517V14.7453L56.2398 14.5517C56.3366 14.3582 56.4334 14.1646 56.4334 14.0678C56.627 13.6805 56.9175 13.3902 57.2078 13.0998ZM56.627 20.4564C56.627 21.5212 56.627 22.3923 56.5302 22.9732C56.2398 25.006 55.3686 25.9739 53.8199 25.9739C52.9487 25.9739 52.1743 25.5867 51.6903 24.9091C51.2063 24.1348 50.916 22.6828 50.916 20.3596C50.916 19.2949 50.916 18.4236 51.0128 17.8429C51.3031 15.8101 52.1743 14.8421 53.7231 14.8421C54.5943 14.8421 55.3686 15.2293 55.8527 15.9069C56.4334 16.7781 56.627 18.2301 56.627 20.4564Z" fill="#05092B"/>
<path d="M75.4059 15.0359C74.5347 14.7455 73.5668 14.5518 72.4052 14.5518C71.1469 14.5518 69.8885 14.7455 68.8237 15.1327C67.0813 15.9071 65.7261 17.2622 64.8549 19.1014C64.0806 20.8438 63.887 22.5861 64.1774 24.4253C64.5645 26.8453 65.8229 28.6844 67.8557 29.846C69.2109 30.6204 70.566 31.0076 72.018 31.0076C74.5347 31.0076 76.6643 29.846 78.2131 27.6196C78.3099 27.426 78.4067 27.3292 78.4067 27.2324C78.4067 27.1356 78.3099 27.0389 78.1163 27.0389C78.1163 27.0389 78.1163 27.0389 78.0195 27.0389C78.0195 27.0389 77.9227 27.1356 77.9227 27.2324C77.1483 28.2004 75.9868 28.6844 74.4379 28.4908C73.0828 28.394 71.9212 27.8132 71.1469 26.9421C70.2756 25.9741 69.7917 24.8125 69.5012 23.2637V23.0701H79.1811C79.3746 23.0701 79.3746 22.8765 79.4715 22.7797C79.4715 20.2629 78.7939 18.1334 77.6323 16.6814C77.0515 16.0039 76.2771 15.423 75.4059 15.0359ZM73.0828 22.5861H69.6948H69.5012V22.3925C69.5012 21.9085 69.4044 21.4245 69.4044 20.9406C69.4044 20.4565 69.4044 19.9726 69.4044 19.4886C69.598 16.5846 70.566 15.1327 72.1148 15.1327H72.4052C73.954 15.423 74.7284 17.2622 74.8252 20.747C74.8252 21.9085 74.2443 22.4893 73.0828 22.5861Z" fill="#05092B"/>
<path d="M102.026 30.3299C100.864 30.3299 100.09 30.1363 99.7022 29.6523C99.5089 29.3619 99.3148 28.7811 99.3148 26.5548V19.8757C99.3148 18.5205 98.9274 17.2621 98.1535 16.391C97.1854 15.2294 95.8299 14.7453 94.185 14.7453C92.3451 14.7453 90.6031 15.6166 89.1514 17.1653L88.764 17.5526V15.1326C88.764 14.9389 88.764 14.8421 88.764 14.8421C88.764 14.7453 88.6669 14.7453 88.5707 14.7453C88.5707 14.7453 88.4737 14.7453 88.3766 14.8421L80.6329 19.1981C80.5361 19.2949 80.4393 19.3917 80.5361 19.5853C80.6329 19.682 80.7297 19.682 80.8265 19.682C81.3105 19.4885 81.7945 19.4885 82.2785 19.7788C83.0529 20.2629 83.4401 21.0372 83.4401 22.102V26.6515C83.4401 28.2971 83.3433 29.2651 83.0529 29.7491C82.7624 30.2331 81.9881 30.5235 80.7297 30.5235C80.6329 30.5235 80.5361 30.6202 80.4393 30.8139C80.4393 30.9107 80.5361 31.0075 80.7297 31.0075H90.506C90.7001 31.0075 90.7001 30.9107 90.7963 30.717C90.7963 30.6202 90.7001 30.5235 90.506 30.5235C90.4098 30.5235 90.2157 30.5235 90.1195 30.5235C89.2476 30.2331 88.8611 29.0715 88.764 26.7483V18.5205V18.4237C88.9573 18.1333 89.2476 17.8429 89.5379 17.5526C90.4098 16.6813 91.3779 16.4878 92.3451 16.9717C93.3131 17.4557 93.8947 18.5205 93.8947 19.9725V26.6515C93.8947 27.9099 93.7976 28.7811 93.7005 29.3619C93.5073 30.0395 93.0228 30.4267 92.3451 30.4267C92.2489 30.4267 92.1518 30.4267 92.0547 30.717C92.0547 30.9107 92.1518 30.9107 92.3451 31.0075H101.929C102.026 31.0075 102.122 30.9107 102.219 30.717C102.316 30.4267 102.219 30.3299 102.026 30.3299Z" fill="#05092B"/>
<path d="M114.028 30.3299C112.867 30.3299 112.092 30.1363 111.802 29.6523C111.512 29.2651 111.414 28.2003 111.318 26.458V15.1326C111.318 14.9389 111.318 14.9389 111.318 14.8421C111.318 14.8421 111.221 14.7453 111.124 14.7453C111.028 14.7453 111.028 14.7453 110.931 14.7453L103.09 19.1013C102.993 19.1981 102.897 19.2949 102.993 19.4885C103.09 19.5853 103.187 19.5853 103.283 19.5853C103.478 19.4885 103.671 19.3917 103.865 19.3917C104.155 19.3917 104.446 19.4885 104.736 19.682C105.51 20.1661 105.897 20.9404 105.897 22.0052V26.5548C105.897 28.2003 105.8 29.1683 105.51 29.6523C105.22 30.1363 104.446 30.4267 103.187 30.4267C103.09 30.4267 102.993 30.5235 102.897 30.717C102.897 30.8138 102.993 30.9107 103.187 30.9107H113.931C114.028 30.9107 114.125 30.8139 114.222 30.6202C114.319 30.5235 114.319 30.4267 114.028 30.3299Z" fill="#05092B"/>
<path d="M125.935 15.0359C125.16 14.7455 124.096 14.5518 122.934 14.5518C121.676 14.5518 120.417 14.7455 119.352 15.1327C117.61 15.9071 116.255 17.2622 115.384 19.1014C114.609 20.8438 114.416 22.5861 114.706 24.4253C115.094 26.8453 116.352 28.6844 118.384 29.846C119.74 30.6204 121.094 31.0076 122.547 31.0076C125.064 31.0076 127.193 29.846 128.742 27.6196C128.839 27.426 128.935 27.3292 128.935 27.2324C128.935 27.1356 128.839 27.0389 128.645 27.0389C128.645 27.0389 128.645 27.0389 128.549 27.0389C128.549 27.0389 128.451 27.1356 128.451 27.2324C127.677 28.2004 126.515 28.5876 124.967 28.4908C123.611 28.394 122.45 27.8132 121.676 26.9421C120.804 25.9741 120.32 24.8125 120.03 23.2637V23.0701H129.71C129.903 23.0701 129.903 22.9733 130 22.7797C130 20.2629 129.322 18.1334 128.161 16.6814C127.58 16.0039 126.806 15.423 125.935 15.0359ZM123.611 22.5861H120.127H120.03V22.3925C120.03 21.9085 119.933 21.4245 119.933 20.9406C119.933 20.4565 119.933 19.9726 119.933 19.4886C120.127 16.5846 121.094 15.1327 122.644 15.1327H122.934C124.483 15.423 125.257 17.2622 125.354 20.747C125.354 21.9085 124.773 22.4893 123.611 22.5861Z" fill="#05092B"/>
<path d="M108.221 12.9062C108.801 12.9062 109.382 12.7126 109.963 12.4221C110.931 11.7446 111.414 10.9702 111.414 9.80863C111.414 9.51821 111.414 9.32468 111.318 9.03426C111.028 7.96947 110.447 7.29189 109.382 6.90469C108.607 6.61429 107.833 6.61429 107.155 6.90469C106.962 7.00149 106.768 7.09829 106.478 7.19509C105.51 7.77588 105.026 8.64706 105.026 9.80863C105.026 10.3895 105.219 10.9702 105.51 11.551C106.187 12.4221 107.058 12.9062 108.221 12.9062Z" fill="url(#paint17_linear_1_57)"/>
<defs>
<linearGradient id="paint0_linear_1_57" x1="2.05275" y1="22.7049" x2="4.51829" y2="33.9274" gradientUnits="userSpaceOnUse">
<stop stop-color="#7799A5"/>
<stop offset="0.5053" stop-color="#EEF3F6"/>
<stop offset="1" stop-color="#3A6177"/>
</linearGradient>
<linearGradient id="paint1_linear_1_57" x1="3.49825" y1="29.0796" x2="3.90771" y2="31.4773" gradientUnits="userSpaceOnUse">
<stop stop-color="#E5EEF2"/>
<stop offset="1" stop-color="#7294A2"/>
</linearGradient>
<linearGradient id="paint2_linear_1_57" x1="8.1433" y1="16.9227" x2="3.32545" y2="18.1697" gradientUnits="userSpaceOnUse">
<stop stop-color="#E5EEF2"/>
<stop offset="1" stop-color="#7294A2"/>
</linearGradient>
<linearGradient id="paint3_linear_1_57" x1="31.7298" y1="22.7048" x2="29.264" y2="33.9274" gradientUnits="userSpaceOnUse">
<stop stop-color="#7799A5"/>
<stop offset="0.5053" stop-color="#EEF3F6"/>
<stop offset="1" stop-color="#3A6177"/>
</linearGradient>
<linearGradient id="paint4_linear_1_57" x1="30.2838" y1="29.0796" x2="29.8745" y2="31.4773" gradientUnits="userSpaceOnUse">
<stop stop-color="#E5EEF2"/>
<stop offset="1" stop-color="#7294A2"/>
</linearGradient>
<radialGradient id="paint5_radial_1_57" cx="0" cy="0" r="1" gradientUnits="userSpaceOnUse" gradientTransform="translate(16.938 7.5497) scale(6.45915)">
<stop stop-color="#00B8F0"/>
<stop offset="1" stop-color="#005886"/>
</radialGradient>
<linearGradient id="paint6_linear_1_57" x1="25.6394" y1="16.9227" x2="30.457" y2="18.1697" gradientUnits="userSpaceOnUse">
<stop stop-color="#E5EEF2"/>
<stop offset="1" stop-color="#7294A2"/>
</linearGradient>
<linearGradient id="paint7_linear_1_57" x1="9.98352" y1="34.254" x2="6.01585" y2="35.7277" gradientUnits="userSpaceOnUse">
<stop stop-color="#E5EEF2"/>
<stop offset="1" stop-color="#7294A2"/>
</linearGradient>
<linearGradient id="paint8_linear_1_57" x1="17.1994" y1="24.7523" x2="-5.13258" y2="32.4608" gradientUnits="userSpaceOnUse">
<stop stop-color="white"/>
<stop offset="1" stop-color="#A4C4D1"/>
</linearGradient>
<linearGradient id="paint9_linear_1_57" x1="23.7985" y1="34.2541" x2="27.7659" y2="35.7277" gradientUnits="userSpaceOnUse">
<stop stop-color="#E5EEF2"/>
<stop offset="1" stop-color="#7294A2"/>
</linearGradient>
<linearGradient id="paint10_linear_1_57" x1="16.5827" y1="24.7524" x2="38.9148" y2="32.4609" gradientUnits="userSpaceOnUse">
<stop stop-color="white"/>
<stop offset="1" stop-color="#A4C4D1"/>
</linearGradient>
<linearGradient id="paint11_linear_1_57" x1="4.04858" y1="25.8238" x2="29.7308" y2="25.8238" gradientUnits="userSpaceOnUse">
<stop stop-color="#1F5F88"/>
<stop offset="0.5212" stop-color="#1ABDCC"/>
<stop offset="1" stop-color="#1C5B85"/>
</linearGradient>
<linearGradient id="paint12_linear_1_57" x1="4.24892" y1="21.7837" x2="29.5165" y2="21.7837" gradientUnits="userSpaceOnUse">
<stop stop-color="#4CC7ED"/>
<stop offset="1" stop-color="#1ABDCC"/>
</linearGradient>
<radialGradient id="paint13_radial_1_57" cx="0" cy="0" r="1" gradientUnits="userSpaceOnUse" gradientTransform="translate(16.4109 26.3667) scale(6.2765)">
<stop stop-color="white"/>
<stop offset="1" stop-color="white" stop-opacity="0"/>
</radialGradient>
<radialGradient id="paint14_radial_1_57" cx="0" cy="0" r="1" gradientUnits="userSpaceOnUse" gradientTransform="translate(16.8911 37.984) scale(5.19671)">
<stop stop-color="#25BDCC"/>
<stop offset="1" stop-color="#005786"/>
</radialGradient>
<radialGradient id="paint15_radial_1_57" cx="0" cy="0" r="1" gradientUnits="userSpaceOnUse" gradientTransform="translate(16.8917 36.5842) scale(3.10084 3.10082)">
<stop stop-color="#25BDCC"/>
<stop offset="1" stop-color="#005786"/>
</radialGradient>
<linearGradient id="paint16_linear_1_57" x1="16.9585" y1="41.0781" x2="17.0156" y2="38.5091" gradientUnits="userSpaceOnUse">
<stop stop-color="#E5EEF2"/>
<stop offset="1" stop-color="#7294A2"/>
</linearGradient>
<linearGradient id="paint17_linear_1_57" x1="105.277" y1="6.46097" x2="110.716" y2="12.4773" gradientUnits="userSpaceOnUse">
<stop offset="0.2206" stop-color="#FFCB43"/>
<stop offset="1" stop-color="#FF539B"/>
</linearGradient>
</defs>
</svg>
