<svg xmlns="http://www.w3.org/2000/svg" viewBox="0 0 47 61" fill="none">
<path d="M10.13 12.9939C11.0554 12.1867 12.1499 11.5973 13.3332 11.2691C16.0025 10.3246 33.8662 7.92905 37.3431 14.1985C40.82 20.4679 40.8063 34.8683 40.8063 34.8683L40.5462 37.127L37.74 49.6658L32.9353 55.6751L32.5384 56.0721L29.4721 58.8098L25.872 60.1787L23.2711 61H23.011L17.1386 58.6045L14.6062 56.469L13.6069 55.6751L8.80222 48.5981L7.73451 39.6731L5.87285 37.0038V32.4728L6.26982 27.805L7.63869 16.197L10.13 12.9939Z" fill="#121426"/>
<path d="M24.8032 4.8628C24.8472 4.47549 25.0125 4.112 25.2756 3.82435C25.5387 3.53669 25.886 3.33959 26.2678 3.26123C26.713 3.11873 27.1915 3.11873 27.6367 3.26123C28.8436 3.58812 29.9167 4.2875 30.703 5.25978C31.4562 6.22141 32.0395 7.30472 32.4277 8.46292C33.4267 11.069 34.0311 13.8095 34.2209 16.594L35.8225 17.9629C35.6473 14.5351 34.9264 11.1572 33.6871 7.95644C33.1503 6.60239 32.4809 5.30477 31.6885 4.08255C30.8785 2.88703 29.7365 1.95445 28.4033 1.39957C27.0862 0.866809 25.6137 0.866809 24.2967 1.39957C23.6542 1.71369 23.0993 2.18172 22.6814 2.76205C22.2634 3.34238 21.9954 4.017 21.9012 4.72592L24.8032 4.8628Z" fill="#107DBB" stroke="#081626" stroke-width="0.11" stroke-miterlimit="10"/>
<path d="M22.4084 4.58904C22.658 3.75447 23.1665 3.02087 23.8604 2.49429C24.5543 1.96771 25.3977 1.67542 26.2686 1.65967C27.1343 1.66141 27.9889 1.85362 28.772 2.22267C29.555 2.59172 30.2472 3.12855 30.7996 3.7951C31.3293 4.35816 31.7889 4.98326 32.1684 5.65676C33.9444 8.78138 35.0755 12.2305 35.4948 15.8001" stroke="#081626" stroke-width="0.11" stroke-miterlimit="10"/>
<path d="M23.4755 4.72598C23.6968 4.18434 24.0604 3.71263 24.5279 3.36081C24.9954 3.00898 25.5493 2.79013 26.1311 2.72743C27.321 2.61644 28.5101 2.94783 29.4711 3.65826C30.4394 4.37303 31.2192 5.31262 31.7434 6.39599C33.4682 9.32537 33.8652 12.8023 34.2758 16.2655" stroke="#081626" stroke-width="0.11" stroke-miterlimit="10"/>
<path d="M22.9421 4.72585C23.1662 4.11763 23.5311 3.5711 24.0069 3.13095C24.4828 2.6908 25.056 2.36954 25.6798 2.19345C26.3333 2.08577 27.0019 2.11279 27.6445 2.27286C28.2871 2.43293 28.8902 2.72267 29.4168 3.12428C30.3059 3.84031 31.0733 4.6955 31.6892 5.65668C33.5508 8.59974 34.0847 12.063 34.6185 15.403" stroke="#4BBEED" stroke-width="0.21" stroke-linecap="round" stroke-linejoin="round"/>
<path d="M3.20315 44.3408C3.09921 44.3388 2.99712 44.313 2.90462 44.2656C2.81212 44.2181 2.73164 44.1503 2.66929 44.0671L0.670746 34.1976C0.672186 34.0949 0.69624 33.9939 0.741195 33.9016C0.786149 33.8093 0.850898 33.7281 0.93083 33.6637C1.03476 33.6658 1.13685 33.6915 1.22936 33.739C1.32186 33.7864 1.40234 33.8543 1.46469 33.9375L3.46323 43.807C3.46179 43.9096 3.43774 44.0107 3.39278 44.103C3.34783 44.1952 3.28308 44.2765 3.20315 44.3408Z" fill="#00529A"/>
<path d="M2.27232 43.9302C2.16916 43.9318 2.06708 43.9091 1.97433 43.8639C1.88158 43.8187 1.80078 43.7524 1.73846 43.6701L0 34.7314C0 34.5946 0.136887 34.3345 0.260085 34.3345C0.362718 34.3359 0.463771 34.36 0.556046 34.4049C0.648321 34.4499 0.729549 34.5146 0.793942 34.5946L2.5324 43.3553C2.73773 43.6701 2.5324 43.807 2.27232 43.9302Z" fill="#061E31"/>
<path d="M6.13315 46.3395C5.86947 46.395 5.59732 46.397 5.33285 46.3454C5.06838 46.2937 4.81697 46.1895 4.59355 46.0388C4.37013 45.8882 4.17924 45.6942 4.03222 45.4684C3.88519 45.2426 3.78501 44.9895 3.73763 44.7242L1.20523 32.9931C1.14958 32.7304 1.14707 32.4592 1.19786 32.1955C1.24865 31.9318 1.35171 31.6809 1.50097 31.4576C1.65023 31.2344 1.84266 31.0433 2.06693 30.8956C2.2912 30.7479 2.54276 30.6465 2.80681 30.5976C3.07865 30.527 3.36207 30.513 3.63954 30.5564C3.91702 30.5997 4.18265 30.6996 4.42001 30.8497C4.65736 30.9998 4.86141 31.197 5.01951 31.4291C5.17762 31.6612 5.28642 31.9233 5.33921 32.1991L7.73472 43.9303C7.79243 44.194 7.7965 44.4666 7.74668 44.7319C7.69687 44.9972 7.59419 45.2497 7.44476 45.4745C7.29533 45.6993 7.1022 45.8917 6.87687 46.0403C6.65154 46.1889 6.39862 46.2907 6.13315 46.3395Z" fill="url(#paint0_linear_5931_4804)" stroke="#062138" stroke-width="0.21" stroke-miterlimit="10"/>
<path d="M1.36882 37.2638L2.17645 37.127" stroke="#3CC5F2" stroke-width="0.21" stroke-miterlimit="10"/>
<path d="M1.46423 37.8799L2.27186 37.743" stroke="#3CC5F2" stroke-width="0.21" stroke-miterlimit="10"/>
<path d="M1.60164 38.6053L2.39558 38.4684" stroke="#3CC5F2" stroke-width="0.21" stroke-miterlimit="10"/>
<path d="M1.73796 39.2488L2.5319 39.1256" stroke="#3CC5F2" stroke-width="0.21" stroke-miterlimit="10"/>
<path d="M3.06622 41.0009L6.84429 40.2069L7.24126 42.2055L3.50426 42.8625L3.06622 41.0009Z" fill="url(#paint1_linear_5931_4804)"/>
<path d="M12.5393 31.2683C12.1131 32.2793 11.3443 33.1079 10.3681 33.6085C9.39183 34.1091 8.27041 34.2499 7.20071 34.0061C6.64642 33.8966 6.10826 33.7172 5.59913 33.4722C5.59798 31.9577 5.68941 30.4446 5.8729 28.9413L6.66685 18.8117C6.86089 17.1098 7.55655 15.5041 8.66539 14.1986C9.25581 13.5828 9.88201 13.0023 10.5407 12.4601C10.6639 12.4601 10.8008 12.3232 10.9377 12.3232C10.2394 13.7367 9.87414 15.2913 9.86999 16.8679C9.9091 20.1755 10.6363 23.4387 12.0054 26.4499C12.7019 27.9555 12.8893 29.6469 12.5393 31.2683Z" fill="url(#paint2_linear_5931_4804)"/>
<path d="M43.3383 44.3408C43.4422 44.3388 43.5443 44.313 43.6368 44.2656C43.7293 44.2181 43.8098 44.1503 43.8721 44.0671L45.8707 34.1976C45.8692 34.0949 45.8452 33.9939 45.8002 33.9016C45.7553 33.8093 45.6905 33.7281 45.6106 33.6637C45.5066 33.6658 45.4045 33.6915 45.312 33.739C45.2195 33.7864 45.1391 33.8543 45.0767 33.9375L43.0782 43.807C43.0796 43.9096 43.1037 44.0107 43.1486 44.103C43.1936 44.1952 43.2583 44.2765 43.3383 44.3408Z" fill="#00529A"/>
<path d="M44.2684 43.9302C44.3716 43.9318 44.4737 43.9091 44.5664 43.8639C44.6592 43.8187 44.74 43.7524 44.8023 43.6701L46.5407 34.8683C46.5384 34.7659 46.5139 34.6651 46.469 34.573C46.4241 34.4808 46.3599 34.3995 46.2807 34.3345C46.178 34.3359 46.077 34.36 45.9847 34.4049C45.8924 34.4499 45.8112 34.5146 45.7468 34.5946L44.0083 43.3553C43.8715 43.6701 44.0083 43.807 44.2684 43.9302Z" fill="#061E31"/>
<path d="M40.4085 46.3395C40.6722 46.395 40.9444 46.397 41.2088 46.3454C41.4733 46.2937 41.7247 46.1895 41.9481 46.0388C42.1716 45.8882 42.3624 45.6942 42.5095 45.4684C42.6565 45.2426 42.7567 44.9895 42.8041 44.7242L45.3365 32.9794C45.4157 32.4602 45.2917 31.9304 44.9901 31.5004C44.6886 31.0704 44.2327 30.7733 43.7176 30.6709C43.2024 30.5686 42.6677 30.6689 42.2246 30.9511C41.7816 31.2332 41.4645 31.6753 41.3394 32.1854L38.9438 43.9166C38.8567 44.172 38.8265 44.4433 38.8554 44.7116C38.8844 44.9799 38.9717 45.2386 39.1113 45.4695C39.2509 45.7005 39.4394 45.898 39.6635 46.0483C39.8876 46.1986 40.1419 46.298 40.4085 46.3395Z" fill="url(#paint3_linear_5931_4804)" stroke="#062138" stroke-width="0.21" stroke-miterlimit="10"/>
<path d="M45.1719 37.2638L44.3642 37.127" stroke="#3CC5F2" stroke-width="0.21" stroke-miterlimit="10"/>
<path d="M45.0763 37.8799L44.2687 37.743" stroke="#3CC5F2" stroke-width="0.21" stroke-miterlimit="10"/>
<path d="M44.9399 38.6053L44.1459 38.4684" stroke="#3CC5F2" stroke-width="0.21" stroke-miterlimit="10"/>
<path d="M44.803 39.2488L44.0091 39.1256" stroke="#3CC5F2" stroke-width="0.21" stroke-miterlimit="10"/>
<path d="M43.4746 41.0009L39.6965 40.2069L39.2996 42.2055L43.0366 42.8625L43.4746 41.0009Z" fill="url(#paint4_linear_5931_4804)"/>
<path d="M11.1978 12.0631C10.9612 12.1639 10.74 12.2976 10.5407 12.4601C10.6639 12.4601 10.8008 12.3232 10.9377 12.3232C11.9842 12.1557 13.055 12.2249 14.0713 12.5257C15.0875 12.8266 16.0234 13.3514 16.8101 14.0617C20.9167 17.5249 20.9167 18.4694 23.3396 18.4694V8.46299C18.996 8.20723 14.7 9.48102 11.1978 12.0631ZM35.3446 12.0631C31.82 9.57801 27.5815 8.30935 23.2712 8.4493V18.7158C25.6667 18.7158 25.6667 17.9219 29.8007 14.3217C30.5574 13.592 31.4783 13.0545 32.4858 12.7544C33.4934 12.4542 34.5582 12.4003 35.591 12.597C35.6632 12.5871 35.7368 12.5943 35.8058 12.6181C35.8747 12.6419 35.9371 12.6815 35.9879 12.7339C35.9382 12.5808 35.8545 12.441 35.7431 12.3248C35.6316 12.2087 35.4954 12.1192 35.3446 12.0631Z" fill="url(#paint5_radial_5931_4804)"/>
<path d="M34.0027 31.2683C34.4289 32.2793 35.1977 33.1079 36.1739 33.6085C37.1502 34.1091 38.2716 34.2499 39.3413 34.0061C39.8956 33.8966 40.4337 33.7172 40.9429 33.4722C40.944 31.9577 40.8526 30.4446 40.6691 28.9413L39.6972 18.8664C39.5255 17.1499 38.8437 15.5242 37.7397 14.1986C37.2307 13.5527 36.6472 12.9692 36.0013 12.4601C35.8781 12.4601 35.7412 12.3232 35.6043 12.3232C36.3026 13.7367 36.6679 15.2913 36.672 16.8679C36.6329 20.1755 35.9057 23.4387 34.5366 26.4499C33.8401 27.9555 33.6527 29.6469 34.0027 31.2683Z" fill="url(#paint6_linear_5931_4804)"/>
<path d="M19.876 59.3984C18.9952 59.331 18.1333 59.1086 17.3299 58.7414C17.0076 58.5852 16.6966 58.4068 16.399 58.2075L13.6066 55.6751L10.5403 53.1427C9.63735 52.3424 8.94613 51.3315 8.52806 50.1997C7.28472 45.8762 6.36954 41.465 5.79033 37.0038C5.65344 36.3331 5.65344 35.6349 5.51656 35.0052C5.84569 35.0275 6.16695 35.1159 6.46107 35.2653C7.7546 35.8634 8.9648 36.6273 10.0612 37.5377C10.595 37.9346 12.7989 39.2624 12.9906 40.0701C13.1822 40.8777 11.389 41.6716 11.1289 42.4656C10.7863 43.5058 10.7863 44.6285 11.1289 45.6687C11.3801 47.2583 11.7788 48.821 12.3198 50.3365C12.7225 51.7061 13.4028 52.9782 14.3184 54.0736C15.4626 55.0573 16.6648 55.9716 17.9185 56.8113C18.399 57.0925 18.8192 57.4658 19.1551 57.9097C19.491 58.3537 19.736 58.8596 19.876 59.3984Z" fill="url(#paint7_linear_5931_4804)"/>
<path d="M23.2712 18.5925V59.6585H23.1343C22.0692 59.6905 21.0032 59.6448 19.9448 59.5216C19.4768 58.53 18.76 57.6764 17.8642 57.044C16.5801 56.2475 15.3747 55.3308 14.264 54.3062C13.3931 53.1155 12.7609 51.7675 12.4024 50.3365C11.8631 48.8194 11.46 47.2573 11.1978 45.6687C11.0061 44.6096 11.0061 43.5247 11.1978 42.4655C11.4716 41.6716 13.0731 40.7408 13.0731 40.07C13.0731 39.3993 10.8008 37.8798 10.1301 37.5376C9.10274 36.536 7.87612 35.7618 6.52995 35.2653C6.24129 35.1144 5.92418 35.0258 5.59912 35.0052V33.5269C6.10825 33.7718 6.64641 33.9512 7.20069 34.0607C8.2704 34.3045 9.39182 34.1638 10.3681 33.6631C11.3443 33.1625 12.113 32.334 12.5393 31.323C13.0731 29.7214 12.4024 28.1198 11.8685 26.5183C10.8008 23.452 9.59621 20.2489 9.7331 16.9362C9.75299 15.3615 10.1174 13.8103 10.8008 12.3916C11.8422 12.215 12.91 12.2732 13.926 12.5622C14.942 12.8511 15.8806 13.3634 16.6732 14.0616C20.9441 17.6617 20.9441 18.5925 23.2712 18.5925Z" fill="url(#paint8_linear_5931_4804)"/>
<path d="M26.6661 59.3984C27.5468 59.331 28.4088 59.1086 29.2122 58.7414C29.5344 58.5852 29.8455 58.4068 30.143 58.2075L32.8807 55.7983L35.947 53.2659C36.8524 52.4733 37.5443 51.466 37.9592 50.3365C39.204 46.0088 40.1192 41.593 40.6969 37.127C40.8338 36.4699 40.8338 35.7581 40.9707 35.1284C40.6407 35.1557 40.3196 35.2487 40.0262 35.4022C38.7356 36.0001 37.526 36.759 36.4261 37.6608C35.8922 38.0715 33.6883 39.3993 33.4967 40.2069C33.3051 41.0145 35.0983 41.7948 35.3584 42.6024C35.701 43.6427 35.701 44.7653 35.3584 45.8056C35.125 47.3933 34.7446 48.956 34.2222 50.4734C33.8222 51.84 33.1415 53.1081 32.2237 54.1967C31.1221 55.2139 29.9611 56.1646 28.7467 57.044C28.2456 57.2553 27.7984 57.5767 27.4382 57.9842C27.0781 58.3918 26.8142 58.8751 26.6661 59.3984Z" fill="url(#paint9_linear_5931_4804)"/>
<path d="M23.3391 18.5926V59.6586H23.476C24.5411 59.6906 25.6071 59.6448 26.6655 59.5217C27.1335 58.53 27.8504 57.6765 28.7462 57.044C30.0302 56.2475 31.2356 55.3308 32.3463 54.3063C33.1863 53.1455 33.8206 51.849 34.2216 50.4735C34.7627 48.9579 35.1614 47.3952 35.4125 45.8056C35.6179 44.7478 35.6179 43.6603 35.4125 42.6025C35.1525 41.7949 33.5509 40.864 33.5509 40.207C33.5509 39.5499 35.8232 38.0716 36.4803 37.6609C37.5104 36.6661 38.7365 35.8969 40.0804 35.4023C40.3873 35.2482 40.723 35.1596 41.066 35.1422V33.6638C40.5544 33.9028 40.017 34.0819 39.4644 34.1977C38.3949 34.436 37.2758 34.2927 36.3008 33.7927C35.3258 33.2927 34.5564 32.4675 34.1258 31.4599C33.592 29.8584 34.2627 28.2568 34.7966 26.6552C36.0952 23.6209 36.8193 20.3718 36.932 17.0731C36.9049 15.5038 36.5408 13.9585 35.8643 12.5422C34.826 12.3619 33.7605 12.4172 32.7465 12.7038C31.7324 12.9905 30.7957 13.5013 30.0055 14.1985C25.5978 17.6618 25.5978 18.5926 23.3391 18.5926Z" fill="url(#paint10_linear_5931_4804)"/>
<path d="M5.87188 29.1328C5.49276 31.7428 5.49276 34.3939 5.87188 37.0038L12.5383 41.5348C13.4365 42.1433 14.5342 42.3835 15.6045 42.2055L23.3386 40.6176L31.0727 42.2192C31.6016 42.3412 32.1509 42.3443 32.6812 42.2283C33.2114 42.1123 33.7093 41.8801 34.139 41.5485L40.8053 37.0175C41.1835 34.3616 41.1835 31.6655 40.8053 29.0096C29.3075 31.5825 17.3876 31.6245 5.87188 29.1328Z" fill="#061E31"/>
<path d="M5.87233 28.7358C5.50201 31.461 5.50201 34.2238 5.87233 36.949L13.6064 41.48C13.8554 41.5914 14.1284 41.6384 14.4004 41.6169L23.3391 40.1522L32.2778 41.6169C32.5497 41.6384 32.8227 41.5914 33.0717 41.48L40.8058 36.949C41.1796 34.1599 41.1796 31.3333 40.8058 28.5442C29.3208 31.2078 17.3859 31.2732 5.87233 28.7358Z" fill="url(#paint11_linear_5931_4804)"/>
<path d="M5.87285 28.5989L6.66679 28.7358C17.6334 30.8713 28.9089 30.8713 39.8755 28.7358L40.6694 28.5989" stroke="#061E31" stroke-width="0.21" stroke-miterlimit="10"/>
<path d="M5.87285 28.7358L6.66679 28.859C17.6334 30.9946 28.9089 30.9946 39.8755 28.859L40.6694 28.7358" stroke="url(#paint12_linear_5931_4804)" stroke-width="0.21" stroke-miterlimit="10"/>
<path opacity="0.7" d="M22.6684 44.601C24.3821 44.601 26.0574 44.0928 27.4823 43.1407C28.9073 42.1885 30.0179 40.8353 30.6737 39.252C31.3295 37.6687 31.5011 35.9264 31.1668 34.2456C30.8324 32.5648 30.0072 31.0208 28.7954 29.809C27.5836 28.5972 26.0396 27.772 24.3588 27.4376C22.678 27.1033 20.9357 27.2749 19.3524 27.9307C17.7691 28.5865 16.4158 29.6971 15.4637 31.1221C14.5116 32.547 14.0034 34.2223 14.0034 35.936C14.0016 37.0744 14.2245 38.202 14.6593 39.2541C15.0941 40.3062 15.7323 41.2621 16.5373 42.0671C17.3423 42.8721 18.2982 43.5102 19.3503 43.9451C20.4024 44.3799 21.53 44.6028 22.6684 44.601Z" fill="url(#paint13_radial_5931_4804)"/>
<path d="M32.9344 55.675C31.8341 57.2197 30.4029 58.4992 28.7452 59.4204C27.0875 60.3416 25.2451 60.8812 23.3524 60.9999V59.5353H23.4892C25.4473 59.6718 27.4104 59.3532 29.2248 58.6044C29.5498 58.4535 29.8612 58.2749 30.1556 58.0706L32.9344 55.675Z" fill="#061E31"/>
<path d="M13.6066 55.675C14.7069 57.2197 16.1381 58.4992 17.7958 59.4204C19.4535 60.3416 21.2959 60.8812 23.1886 60.9999V59.5353H23.0518C21.0937 59.6718 19.1306 59.3532 17.3162 58.6044C16.9912 58.4535 16.6798 58.2749 16.3854 58.0706L13.6066 55.675Z" fill="#061E31"/>
<path d="M41.3402 35.936L44.0095 36.333" stroke="#121426" stroke-width="0.21" stroke-miterlimit="10" stroke-linecap="round"/>
<path d="M5.06548 35.7992L2.53308 36.1962" stroke="#121426" stroke-width="0.21" stroke-miterlimit="10" stroke-linecap="round"/>
<path d="M14.2643 56.3322L16.2765 47.462C16.2765 47.3251 16.3997 47.3251 16.5366 47.3251H29.8694C29.9731 47.3395 30.0693 47.3876 30.1431 47.462L32.1417 56.387L31.7447 56.7976L29.7325 47.722H16.8104L14.6749 56.6607L14.2643 56.3322Z" fill="url(#paint14_radial_5931_4804)"/>
<path d="M29.0747 50.1998H17.4667C17.4062 50.186 17.3522 50.152 17.3135 50.1035C17.2748 50.0551 17.2538 49.9949 17.2538 49.9328C17.2538 49.8708 17.2748 49.8106 17.3135 49.7621C17.3522 49.7136 17.4062 49.6797 17.4667 49.6659H29.0747C29.1438 49.6724 29.2082 49.7038 29.256 49.7541C29.3038 49.8044 29.3318 49.8703 29.3348 49.9397C29.3348 50.1998 29.2116 50.1998 29.0747 50.1998Z" fill="url(#paint15_radial_5931_4804)"/>
<path d="M24.9407 54.4705H21.7375C21.5695 54.4885 21.3995 54.4709 21.2387 54.4189C21.0779 54.3669 20.9298 54.2817 20.8041 54.1687C20.6784 54.0557 20.5779 53.9176 20.5091 53.7632C20.4403 53.6088 20.4047 53.4417 20.4047 53.2727C20.4047 53.1037 20.4403 52.9366 20.5091 52.7822C20.5779 52.6279 20.6784 52.4897 20.8041 52.3767C20.9298 52.2638 21.0779 52.1785 21.2387 52.1265C21.3995 52.0745 21.5695 52.057 21.7375 52.075H24.9407C25.2565 52.075 25.5594 52.2004 25.7828 52.4238C26.0061 52.6471 26.1316 52.95 26.1316 53.2659C26.2685 53.9366 25.7346 54.4705 24.9407 54.4705Z" fill="url(#paint16_linear_5931_4804)"/>
<path d="M15.8652 9.53064C15.742 9.53064 15.6051 9.66753 15.4682 9.66753L17.7953 11.2691V14.9924C17.9185 15.1293 18.0553 15.1293 18.0553 15.2662V10.9953L15.8652 9.53064Z" fill="#4BBEED"/>
<path d="M14.4004 10.0646C14.2635 10.0646 14.1403 10.2015 14.0034 10.2015L16.1388 11.6661V13.6647C16.2757 13.8016 16.3989 13.8016 16.3989 13.9248V11.5293L14.4004 10.0646Z" fill="#4BBEED"/>
<path d="M13.3328 10.5983C13.2325 10.6115 13.1403 10.66 13.0727 10.7352L14.5374 11.7892V12.7337C14.6355 12.7443 14.7271 12.7877 14.7975 12.8569V11.666L13.3328 10.5983Z" fill="#4BBEED"/>
<path d="M18.6712 8.72302V10.2014L17.4666 8.9968C17.3297 8.9968 17.2065 9.13368 17.0696 9.13368L18.6712 10.7353V15.978L18.9313 16.2381V8.72302H18.6712Z" fill="#4BBEED"/>
<path d="M22.6685 8.72297L22.4084 8.46289L21.0395 9.92758L19.6706 8.46289H19.5338L19.3969 8.59978L20.9437 10.3245V13.1307L20.2729 12.46V10.5983H19.9992V12.46L21.0669 13.5277V17.9354C21.2038 18.0586 21.3407 18.0586 21.3407 18.1955V10.3245L22.6685 8.72297Z" fill="#4BBEED"/>
<path d="M22.5312 16.9908L22.8049 17.2646L23.2019 16.7308V16.1969L22.5312 16.9908Z" fill="#4BBEED"/>
<path d="M23.2707 14.9923V14.609L22.4767 15.4167V13.9246L23.2707 13.1307V10.9952H23.1338V12.8569L22.3399 13.6645V10.5983H22.0661V18.3324H22.3399V15.5946L23.2707 14.9923Z" fill="#4BBEED"/>
<path d="M19.739 14.0616V16.8678L19.9991 17.1279V14.0616H19.739Z" fill="#4BBEED"/>
<path d="M24.5437 15.403V8.55872H24.27V10.3246L23.476 9.53061L23.3391 9.6675V9.7907L24.27 10.7352V13.4729L23.3391 14.4038V14.8144L24.27 13.8699V15.2388L23.3391 16.1696V16.5666L24.27 15.6358V18.3735C24.4069 18.3735 24.5437 18.3735 24.5437 18.2366V15.403Z" fill="#4BBEED"/>
<path d="M23.476 12.9938V10.9952H23.3391V13.1307L23.476 12.9938Z" fill="#4BBEED"/>
<path d="M26.4051 14.1984C26.4051 14.4585 26.542 14.7323 26.802 14.7323C26.9052 14.7258 27.0025 14.6819 27.0756 14.6088C27.1486 14.5357 27.1925 14.4385 27.199 14.3353C27.172 14.2394 27.1216 14.1516 27.0523 14.0799C26.983 14.0083 26.897 13.9549 26.802 13.9247C26.6652 13.9247 26.542 13.9247 26.542 14.0616L25.3374 12.857V8.46289H25.0773V12.857L26.4051 14.1984Z" fill="#4BBEED"/>
<path d="M25.2004 18.0587C25.2697 18.0557 25.3356 18.0277 25.386 17.9799C25.4363 17.9321 25.4676 17.8677 25.4742 17.7986V14.3353L27.3769 16.197L27.6506 15.9232L25.2004 13.5277V18.0587Z" fill="#4BBEED"/>
<path d="M26.6654 8.59985H26.4054V12.2L29.0747 14.8693L29.3347 14.5955L26.6654 12.0631V8.59985Z" fill="#4BBEED"/>
<path d="M28.2671 8.85986H28.007V12.063L30.0055 14.0616L30.2656 13.8015L28.404 11.8714V8.85986H28.2671Z" fill="#4BBEED"/>
<path d="M29.2122 11.5292V9.13371C29.0753 9.13371 28.9384 9.13371 28.9384 8.99683V11.5292H29.2122Z" fill="#4BBEED"/>
<path d="M29.7321 12.5969L30.0059 12.857L30.4028 12.46V9.39372C30.3026 9.38053 30.2104 9.33199 30.1427 9.25684V12.3231L29.7321 12.5969Z" fill="#4BBEED"/>
<path d="M32.2779 10.2015C32.1741 10.187 32.0779 10.1389 32.0041 10.0646L30.7995 11.2692V13.5278C30.8706 13.4497 30.9682 13.4009 31.0733 13.3909V11.2692L32.2779 10.2015Z" fill="#4BBEED"/>
<path d="M32.1409 11.2692C32.0367 11.2726 31.9377 11.3155 31.864 11.3892C31.7903 11.463 31.7474 11.562 31.744 11.6662C31.7504 11.7693 31.7943 11.8666 31.8674 11.9397C31.9405 12.0128 32.0378 12.0567 32.1409 12.0631C32.2431 12.0539 32.3388 12.0091 32.4114 11.9366C32.4839 11.864 32.5287 11.7683 32.5379 11.6662V11.5293L33.4687 10.5984C33.3698 10.5812 33.2789 10.5333 33.2086 10.4615L32.401 11.2692C32.3656 11.3019 32.3192 11.3201 32.271 11.3201C32.2228 11.3201 32.1763 11.3019 32.1409 11.2692Z" fill="#4BBEED"/>
<path d="M35.5905 12.46C34.4219 12.2577 33.2198 12.3955 32.1273 12.857C31.069 13.4001 30.0846 14.0763 29.1979 14.8692C28.3903 15.6632 27.4595 16.4571 26.5286 17.4016C26.0978 17.8643 25.6048 18.2651 25.064 18.5925C24.4791 18.8728 23.8371 19.0133 23.1886 19.0032C22.546 18.9999 21.9114 18.8599 21.3269 18.5925C21.0256 18.4688 20.7513 18.2875 20.5193 18.0587C20.2592 17.7986 19.9855 17.6617 19.8623 17.4016L17.193 14.8692C16.796 14.4586 16.2621 14.0616 15.8241 13.6646C15.3681 13.3063 14.8774 12.9945 14.3594 12.7338C13.2874 12.2578 12.0852 12.1613 10.9509 12.46C12.1181 12.0626 13.3839 12.0626 14.5511 12.46C15.1107 12.7236 15.6466 13.0351 16.1526 13.3909C16.6913 13.6719 17.1849 14.0318 17.6173 14.4586C18.5481 15.2662 19.3558 16.0601 20.3551 16.8678C20.6151 16.991 20.752 17.2647 21.0258 17.4016C21.2996 17.5385 21.546 17.7986 21.8197 17.7986C22.3222 18.0219 22.874 18.1115 23.4213 18.0587C23.9682 18.1 24.5172 18.0109 25.0229 17.7986C25.5637 17.5668 26.0353 17.199 26.3918 16.7309L28.9378 14.3354C29.8802 13.6254 30.911 13.041 32.0041 12.5969C33.1526 12.161 34.4122 12.1129 35.5905 12.46Z" fill="#34B4E8"/>
<path d="M11.7312 11.5291C12.5761 10.9633 13.4694 10.4732 14.4005 10.0645C15.3461 9.6289 16.3258 9.27179 17.3299 8.99674C19.2971 8.48776 21.3102 8.17594 23.3392 8.06591C25.3752 8.04648 27.4006 8.36092 29.3348 8.99674C31.3058 9.48097 33.1649 10.3408 34.8103 11.5291C33.0379 10.5584 31.1592 9.79593 29.2116 9.25683C23.314 7.66698 17.0264 8.48432 11.7312 11.5291Z" fill="#061E31"/>
<path d="M26.6655 6.99827C26.6707 7.1532 26.6371 7.30696 26.5677 7.44561C26.4984 7.58426 26.3956 7.7034 26.2685 7.79221L26.0084 8.06599C25.8715 8.06599 25.7347 8.18918 25.5978 8.18918H20.9436C20.8704 8.19815 20.7961 8.19183 20.7254 8.17062C20.6547 8.14942 20.5892 8.11379 20.533 8.06599C20.335 7.96671 20.1686 7.8142 20.0526 7.62559C19.9365 7.43698 19.8753 7.21973 19.8759 6.99827C19.8697 6.84125 19.9027 6.68516 19.972 6.54414C20.0413 6.40311 20.1448 6.28161 20.2729 6.19064L20.533 5.93056C20.6699 5.93056 20.8067 5.79367 20.9436 5.79367H25.5978C25.6721 5.78472 25.7475 5.79236 25.8185 5.81603C25.8895 5.8397 25.9543 5.87881 26.0084 5.93056C26.2178 6.01473 26.3947 6.1639 26.513 6.35611C26.6312 6.54831 26.6847 6.77341 26.6655 6.99827Z" stroke="#061E31" stroke-width="0.21" stroke-miterlimit="10"/>
<path d="M25.0771 5.79374H21.4633C21.291 5.78071 21.1294 5.70548 21.0085 5.58207C20.8876 5.45866 20.8157 5.2955 20.8062 5.123C20.816 4.95193 20.8884 4.79044 21.0096 4.66928C21.1307 4.54811 21.2922 4.47574 21.4633 4.46594H25.0771C25.2482 4.47574 25.4097 4.54811 25.5308 4.66928C25.652 4.79044 25.7244 4.95193 25.7342 5.123C25.7423 5.21195 25.731 5.3016 25.7011 5.38576C25.6712 5.46991 25.6233 5.54655 25.5608 5.61036C25.4983 5.67417 25.4226 5.72362 25.3391 5.75528C25.2556 5.78695 25.1662 5.80007 25.0771 5.79374Z" fill="#107DBB" stroke="#081626" stroke-width="0.21" stroke-miterlimit="10"/>
<path d="M26.6649 6.99838C26.6701 7.15331 26.6365 7.30707 26.5671 7.44572C26.4978 7.58436 26.395 7.7035 26.2679 7.79232L26.0078 8.06609C25.9335 7.99226 25.8854 7.89609 25.8709 7.79232V6.19075C25.8709 6.06755 25.8709 6.06755 26.0078 5.93066C26.2172 6.01484 26.3941 6.16401 26.5124 6.35621C26.6306 6.54842 26.6841 6.77352 26.6649 6.99838Z" fill="#107DBB" stroke="#081626" stroke-width="0.21" stroke-miterlimit="10"/>
<path d="M20.6699 6.19075V7.76494C20.6699 7.90183 20.6699 7.90183 20.533 8.03872C20.335 7.93944 20.1686 7.78693 20.0526 7.59832C19.9365 7.40971 19.8753 7.19247 19.8759 6.971C19.8697 6.81399 19.9027 6.65789 19.972 6.51687C20.0413 6.37584 20.1448 6.25434 20.2729 6.16337L20.533 5.93066C20.6047 6.00088 20.6526 6.09185 20.6699 6.19075Z" fill="#107DBB" stroke="#081626" stroke-width="0.21" stroke-miterlimit="10"/>
<path d="M21.2037 8.18911C21.1153 8.19498 21.0266 8.18212 20.9435 8.15137C20.8604 8.12061 20.7847 8.07265 20.7214 8.01063C20.6581 7.94861 20.6086 7.87393 20.5761 7.79146C20.5436 7.70899 20.5289 7.62059 20.533 7.53206V6.46434C20.533 6.28282 20.6051 6.10873 20.7335 5.98037C20.8618 5.85202 21.0359 5.77991 21.2174 5.77991C21.3989 5.77991 21.573 5.85202 21.7014 5.98037C21.8297 6.10873 21.9019 6.28282 21.9019 6.46434V7.65525C21.8918 7.73644 21.8656 7.81481 21.8249 7.88578C21.7842 7.95674 21.7297 8.01889 21.6648 8.06859C21.5998 8.11829 21.5255 8.15454 21.4464 8.17523C21.3672 8.19593 21.2847 8.20064 21.2037 8.18911Z" fill="#107DBB" stroke="#081626" stroke-width="0.21" stroke-miterlimit="10"/>
<path d="M25.3373 8.18911C25.2467 8.19913 25.155 8.18936 25.0686 8.16047C24.9821 8.13158 24.9029 8.08426 24.8366 8.02178C24.7702 7.9593 24.7182 7.88316 24.6841 7.7986C24.65 7.71405 24.6347 7.6231 24.6392 7.53206V6.46434C24.6392 6.28282 24.7113 6.10873 24.8397 5.98037C24.968 5.85202 25.1421 5.77991 25.3236 5.77991C25.5052 5.77991 25.6793 5.85202 25.8076 5.98037C25.936 6.10873 26.0081 6.28282 26.0081 6.46434V7.65525C25.9503 7.79353 25.8585 7.91496 25.7412 8.00829C25.624 8.10162 25.4851 8.16381 25.3373 8.18911Z" fill="#107DBB" stroke="#081626" stroke-width="0.21" stroke-miterlimit="10"/>
<path d="M24.01 8.18911C23.921 8.19728 23.8314 8.186 23.7472 8.15606C23.6631 8.12612 23.5864 8.07824 23.5226 8.01574C23.4588 7.95323 23.4094 7.8776 23.3777 7.79408C23.346 7.71056 23.3329 7.62115 23.3392 7.53206V6.46434C23.3392 6.28282 23.4114 6.10873 23.5397 5.98037C23.6681 5.85202 23.8422 5.77991 24.0237 5.77991C24.2052 5.77991 24.3793 5.85202 24.5076 5.98037C24.636 6.10873 24.7081 6.28282 24.7081 6.46434V7.53206C24.7151 7.62372 24.7015 7.71579 24.6682 7.80151C24.635 7.88723 24.583 7.96442 24.5161 8.02743C24.4491 8.09044 24.3689 8.13766 24.2814 8.16564C24.1938 8.19361 24.1011 8.20163 24.01 8.18911Z" fill="#107DBB" stroke="#081626" stroke-width="0.21" stroke-miterlimit="10"/>
<path d="M22.5322 8.18911C22.4466 8.19121 22.3615 8.17543 22.2823 8.14278C22.2032 8.11014 22.1317 8.06134 22.0724 7.99951C22.0132 7.93768 21.9674 7.86418 21.9382 7.78369C21.9089 7.7032 21.8968 7.6175 21.9025 7.53206V6.46434C21.9025 6.28282 21.9746 6.10873 22.103 5.98037C22.2314 5.85202 22.4054 5.77991 22.587 5.77991C22.7685 5.77991 22.9426 5.85202 23.0709 5.98037C23.1993 6.10873 23.2714 6.28282 23.2714 6.46434V7.53206C23.3398 7.92903 22.9429 8.18911 22.5322 8.18911Z" fill="#107DBB" stroke="#081626" stroke-width="0.21" stroke-miterlimit="10"/>
<path d="M25.3378 6.46436V7.1351" stroke="#4BBEED" stroke-width="0.21" stroke-linecap="round" stroke-linejoin="round"/>
<path d="M24.0099 6.46436V7.1351" stroke="#4BBEED" stroke-width="0.21" stroke-linecap="round" stroke-linejoin="round"/>
<path d="M22.5312 6.46436V7.1351" stroke="#4BBEED" stroke-width="0.21" stroke-linecap="round" stroke-linejoin="round"/>
<path d="M21.2031 6.46436V7.1351" stroke="#4BBEED" stroke-width="0.21" stroke-linecap="round" stroke-linejoin="round"/>
<path d="M21.4638 5.02698H24.9407" stroke="#4BBEED" stroke-width="0.11" stroke-linecap="round" stroke-linejoin="round"/>
<defs>
<linearGradient id="paint0_linear_5931_4804" x1="2.86156" y1="30.8987" x2="6.25635" y2="46.3532" gradientUnits="userSpaceOnUse">
<stop stop-color="#7799A5"/>
<stop offset="0.51" stop-color="#EEF3F6"/>
<stop offset="1" stop-color="#3A6177"/>
</linearGradient>
<linearGradient id="paint1_linear_5931_4804" x1="4.80468" y1="39.6867" x2="5.36592" y2="42.9857" gradientUnits="userSpaceOnUse">
<stop stop-color="#E5EEF2"/>
<stop offset="1" stop-color="#7294A2"/>
</linearGradient>
<linearGradient id="paint2_linear_5931_4804" x1="11.2115" y1="22.8909" x2="4.57248" y2="24.602" gradientUnits="userSpaceOnUse">
<stop stop-color="#E5EEF2"/>
<stop offset="1" stop-color="#7294A2"/>
</linearGradient>
<linearGradient id="paint3_linear_5931_4804" x1="43.7349" y1="30.8987" x2="40.3401" y2="46.3669" gradientUnits="userSpaceOnUse">
<stop stop-color="#7799A5"/>
<stop offset="0.51" stop-color="#EEF3F6"/>
<stop offset="1" stop-color="#3A6177"/>
</linearGradient>
<linearGradient id="paint4_linear_5931_4804" x1="41.7361" y1="39.6867" x2="41.1749" y2="42.9857" gradientUnits="userSpaceOnUse">
<stop stop-color="#E5EEF2"/>
<stop offset="1" stop-color="#7294A2"/>
</linearGradient>
<radialGradient id="paint5_radial_5931_4804" cx="0" cy="0" r="1" gradientUnits="userSpaceOnUse" gradientTransform="translate(24.0685 11.5368) scale(8.8723)">
<stop stop-color="#00B8F0"/>
<stop offset="1" stop-color="#005886"/>
</radialGradient>
<linearGradient id="paint6_linear_5931_4804" x1="35.3305" y1="22.8909" x2="41.9695" y2="24.602" gradientUnits="userSpaceOnUse">
<stop stop-color="#E5EEF2"/>
<stop offset="1" stop-color="#7294A2"/>
</linearGradient>
<linearGradient id="paint7_linear_5931_4804" x1="13.7571" y1="46.8049" x2="8.28167" y2="48.8308" gradientUnits="userSpaceOnUse">
<stop stop-color="#E5EEF2"/>
<stop offset="1" stop-color="#7294A2"/>
</linearGradient>
<linearGradient id="paint8_linear_5931_4804" x1="23.6818" y1="33.6911" x2="-7.07658" y2="44.3135" gradientUnits="userSpaceOnUse">
<stop stop-color="white"/>
<stop offset="1" stop-color="#A4C4D1"/>
</linearGradient>
<linearGradient id="paint9_linear_5931_4804" x1="32.7712" y1="46.8596" x2="38.233" y2="48.8992" gradientUnits="userSpaceOnUse">
<stop stop-color="#E5EEF2"/>
<stop offset="1" stop-color="#7294A2"/>
</linearGradient>
<linearGradient id="paint10_linear_5931_4804" x1="22.8464" y1="33.7322" x2="53.6048" y2="44.3546" gradientUnits="userSpaceOnUse">
<stop stop-color="white"/>
<stop offset="1" stop-color="#A4C4D1"/>
</linearGradient>
<linearGradient id="paint11_linear_5931_4804" x1="5.57118" y1="35.1421" x2="40.9564" y2="35.1421" gradientUnits="userSpaceOnUse">
<stop stop-color="#1F5F88"/>
<stop offset="0.52" stop-color="#1ABDCC"/>
<stop offset="1" stop-color="#1C5B85"/>
</linearGradient>
<linearGradient id="paint12_linear_5931_4804" x1="5.84547" y1="29.5982" x2="40.6557" y2="29.5982" gradientUnits="userSpaceOnUse">
<stop stop-color="#4CC7ED"/>
<stop offset="1" stop-color="#1ABDCC"/>
</linearGradient>
<radialGradient id="paint13_radial_5931_4804" cx="0" cy="0" r="1" gradientUnits="userSpaceOnUse" gradientTransform="translate(23.1568 37.0388) scale(8.62221)">
<stop stop-color="white"/>
<stop offset="1" stop-color="white" stop-opacity="0"/>
</radialGradient>
<radialGradient id="paint14_radial_5931_4804" cx="0" cy="0" r="1" gradientUnits="userSpaceOnUse" gradientTransform="translate(22.3269 49.9944) scale(7.14548 7.14548)">
<stop stop-color="#25BDCC"/>
<stop offset="1" stop-color="#005786"/>
</radialGradient>
<radialGradient id="paint15_radial_5931_4804" cx="0" cy="0" r="1" gradientUnits="userSpaceOnUse" gradientTransform="translate(22.7957 49.0387) scale(4.26347 4.26346)">
<stop stop-color="#25BDCC"/>
<stop offset="1" stop-color="#005786"/>
</radialGradient>
<linearGradient id="paint16_linear_5931_4804" x1="23.2844" y1="56.2089" x2="23.3665" y2="52.6773" gradientUnits="userSpaceOnUse">
<stop stop-color="#E5EEF2"/>
<stop offset="1" stop-color="#7294A2"/>
</linearGradient>
</defs>
</svg>