<svg xmlns="http://www.w3.org/2000/svg" viewBox="0 0 47 50" fill="none">
<path d="M44.8518 15.8178C44.0615 15.2251 42.8759 15.0275 41.888 15.2251C40.9001 15.4227 39.9122 16.0154 39.3194 17.0034C36.5532 21.3502 30.0329 21.5478 30.0329 21.5478H29.8353C19.5609 21.5478 15.6092 30.4391 15.4116 30.8343C14.6213 32.8102 15.4116 35.1812 17.3875 35.9715C17.7827 36.1691 18.3754 36.3667 18.9682 36.3667C20.5488 36.3667 21.9319 35.3788 22.7223 33.9957C23.7102 32.2174 25.0933 30.8343 27.0691 30.044V37.157C26.8716 38.5401 26.0812 39.7256 24.8957 40.516C23.5126 41.5039 21.3392 42.0967 18.7706 42.0967C15.8068 42.0967 13.4358 41.1087 11.6575 39.1329C9.87925 37.157 8.89132 33.9957 8.89132 30.044V19.3744C9.08891 15.8178 9.87925 13.2492 11.6575 11.471C13.4358 9.49513 15.8068 8.5072 18.7706 8.5072C21.3392 8.5072 23.315 9.09996 24.8957 10.0879C26.0812 10.8782 26.8716 12.2613 27.0691 13.842V14.0396C27.0691 16.6082 29.045 18.584 31.6136 18.584C34.1822 18.584 36.1581 16.6082 36.1581 14.0396V13.0517C35.9605 11.0758 35.3677 9.29754 34.3798 7.71686C33.3919 6.13618 32.2064 4.5555 30.6257 3.56758C27.4643 1.19656 23.5126 0.0110474 18.7706 0.0110474C13.2382 0.0110474 8.69374 1.9869 5.13721 5.54343C1.97585 9.09996 0.197585 13.6444 0 18.9792C0 19.1768 0 19.1768 0 19.3744V19.7695C0 19.9671 0 19.9671 0 20.1647V29.8464C0 35.7739 1.77826 40.7136 5.13721 44.4677C8.49616 48.2218 13.2382 50.0001 18.7706 50.0001C23.315 50.0001 27.2667 48.8145 30.4281 46.6411C33.3919 44.6653 35.3677 41.5039 35.7629 37.9474L35.9605 28.2657C39.1218 27.2778 43.0735 25.3019 45.6421 21.3502C46.2349 20.5599 46.6301 19.3744 46.4325 18.3865C46.4325 17.3985 45.6421 16.4106 44.8518 15.8178Z" fill="url(#paint0_linear_5931_5040)"/>
<path d="M27.0691 13.4468C27.0691 16.0154 29.045 18.1888 31.6136 18.1888C34.1822 18.1888 36.158 16.2129 36.158 13.6443V13.0516C35.9604 11.0757 35.3677 9.29747 34.3798 7.71679C33.3918 6.13611 32.6015 5.14819 30.6256 3.56751C25.4884 -0.384193 18.7705 0.010977 18.7705 0.010977C25.4884 2.57958 27.0691 11.0757 27.0691 13.4468Z" fill="url(#paint1_linear_5931_5040)"/>
<path d="M44.8519 15.8177C44.0615 15.225 42.876 15.0274 41.8881 15.225C40.9002 15.4226 39.9122 16.0153 39.3195 17.0032C36.5533 21.3501 30.033 21.5477 30.033 21.5477H29.8354C19.561 21.5477 15.6093 30.439 15.4117 30.8342C14.6214 32.81 15.4117 35.1811 17.3876 35.9714C17.7827 36.169 18.3755 36.3666 18.9682 36.3666C20.5489 36.3666 21.932 35.3786 22.7223 33.9956C22.7223 33.798 24.303 31.0318 27.0692 30.0438C30.4282 28.8583 32.0088 29.8463 36.1581 28.4632C39.3195 27.4752 43.2712 25.4994 45.8398 21.5477C46.4325 20.7574 46.8277 19.5718 46.6301 18.5839C46.4325 17.3984 45.6422 16.4105 44.8519 15.8177Z" fill="url(#paint2_linear_5931_5040)"/>
<path d="M44.8516 15.8177C44.0613 15.225 42.8758 15.0274 41.8879 15.225C40.8999 15.4226 39.912 16.0153 39.3193 17.0032C36.5531 21.3501 29.8352 21.5477 29.8352 21.5477C36.7506 20.3622 39.7144 30.439 45.8396 21.5477C46.4323 20.7574 46.8275 19.5718 46.6299 18.5839C46.4323 17.3984 45.642 16.4105 44.8516 15.8177Z" fill="url(#paint3_linear_5931_5040)"/>
<defs>
<linearGradient id="paint0_linear_5931_5040" x1="0" y1="25.0166" x2="46.5983" y2="25.0166" gradientUnits="userSpaceOnUse">
<stop stop-color="#007BFF"/>
<stop offset="1" stop-color="#221377"/>
</linearGradient>
<linearGradient id="paint1_linear_5931_5040" x1="27.3313" y1="6.37005" x2="37.1977" y2="20.5403" gradientUnits="userSpaceOnUse">
<stop stop-color="#007BFF"/>
<stop offset="1" stop-color="#221377"/>
</linearGradient>
<linearGradient id="paint2_linear_5931_5040" x1="18.2069" y1="33.3718" x2="43.9527" y2="16.598" gradientUnits="userSpaceOnUse">
<stop stop-color="#FC9257"/>
<stop offset="1" stop-color="#F05A24"/>
</linearGradient>
<linearGradient id="paint3_linear_5931_5040" x1="41.7005" y1="19.4318" x2="36.0202" y2="23.097" gradientUnits="userSpaceOnUse">
<stop stop-color="#FFA44D"/>
<stop offset="1" stop-color="#FBD06A"/>
</linearGradient>
</defs>
</svg>