<svg width="20" height="20" viewBox="0 0 20 20" fill="none" xmlns="http://www.w3.org/2000/svg">
<path opacity="0.3" d="M10 0C15.5229 0 20 4.47715 20 10C20 15.5229 15.5229 20 10 20C4.47715 20 0 15.5229 0 10C0 4.47715 4.47715 0 10 0Z" fill="#C20F6F"/>
<path d="M14.5115 11.329C14.9857 10.5905 15.349 9.73711 15.349 8.8372C15.349 7.11591 14.1301 5.58139 12.3258 5.58139C11.5481 5.58139 10.8157 5.83266 10.0002 6.54251C9.18467 5.83266 8.4523 5.58139 7.67462 5.58139C5.87033 5.58139 4.65137 7.11591 4.65137 8.8372C4.65137 9.73711 5.01474 10.5905 5.48894 11.329C5.96658 12.0728 6.59116 12.7539 7.19588 13.3239C7.80334 13.8966 8.40802 14.3737 8.85918 14.7066C9.08513 14.8732 9.62597 15.2398 9.62597 15.2398L9.71407 15.288C9.92597 15.3833 10.1756 15.3668 10.3754 15.2398L10.3796 15.2369C10.5174 15.1433 10.9176 14.8715 11.1412 14.7066C11.5924 14.3737 12.197 13.8966 12.8045 13.3239C13.4092 12.7539 14.0339 12.0728 14.5115 11.329Z" fill="#C20F6F"/>
</svg>
