<svg xmlns="http://www.w3.org/2000/svg" xmlns:xlink="http://www.w3.org/1999/xlink" width="43.844" height="40.035" viewBox="0 0 43.844 40.035"><defs><linearGradient id="a" x1="0.337" y1="0.05" x2="0.609" y2="0.924" gradientUnits="objectBoundingBox"><stop offset="0.032" stop-color="#ff057c"/><stop offset="0.982" stop-color="#6610f2"/></linearGradient><linearGradient id="b" x1="0.162" y1="0.863" x2="0.941" y2="0.195" gradientUnits="objectBoundingBox"><stop offset="0" stop-color="#ff005c"/><stop offset="1" stop-color="#ffcc03"/></linearGradient><linearGradient id="c" x1="1.509" y1="5.221" x2="0.654" y2="1.098" xlink:href="#b"/><linearGradient id="d" x1="1.236" y1="4.398" x2="0.403" y2="0.126" xlink:href="#b"/><linearGradient id="e" x1="0.978" y1="2.797" x2="0.171" y2="-1.297" xlink:href="#b"/><linearGradient id="f" x1="0.679" y1="1.199" x2="-0.026" y2="-2.144" xlink:href="#b"/><linearGradient id="g" x1="-0.048" y1="0.918" x2="0.819" y2="0.336" xlink:href="#b"/></defs><g transform="translate(-338.579 -450)"><path d="M358.55,455.717s-21.17,7.251-19.918,25.076c0,0,.793,11.97,14.677,12.627.033.033,15.656,1.181,26.685-10.831,0,0-5.645,5.711-18.709,8.37,4.726-1.575,12.013-4.365,14.573-6.893-4.956,2.363-6.466,3.02-8.731,3.413,2.2-1.05,10.24-4.365,14.442-10.5a32.316,32.316,0,0,1-11.586,7.484c2.855-1.772,9.814-7.024,12.44-11.521-6.171,5.678-13.982,13.063-26.061,13.621-4.743-.223-10.031-1.561-11.894-6.694a10.088,10.088,0,0,1-.334-5.58C344.951,470.517,347.907,463.031,358.55,455.717Z" transform="translate(0 -3.428)" fill="url(#a)"/><path d="M371.212,479.685l2.757-7.779-7.779-2.954,8.5-1.28,3.085-7.385,2.757,6.466s6.97-1.123,9.686-6.93a6.555,6.555,0,0,0,.633-3.323c-.212-2.49-1.966-5.764-9.5-5.862.657-.361,10.4-2.954,12.308,5.777.492,2.757-.492,10.491-11.225,14.748l2.659,6.259-6.794-3.446Z" transform="translate(-16.557 0)" fill="url(#b)"/><path d="M393.745,450.947l.645.785,1.012-.087-.547.856.4.936-.983-.255-.768.665-.061-1.014-.87-.525.946-.371Z" transform="translate(-32.376 -0.568)" fill="url(#c)"/><path d="M406.91,455.626l.916.44.882-.505-.135,1.007.753.682-1,.182-.416.927-.482-.894-1.01-.11.7-.735Z" transform="translate(-40.679 -3.335)" fill="url(#d)"/><path d="M416.815,464.418l.531.906,1.048.076-.7.785.251,1.02-.962-.421-.892.554.1-1.045-.8-.677,1.026-.225Z" transform="translate(-46.062 -8.646)" fill="url(#e)"/><path d="M404.864,476.818l.845.92,1.237-.174-.614,1.087.548,1.122-1.224-.248-.9.868-.143-1.241-1.1-.586,1.136-.519Z" transform="translate(-38.937 -16.081)" fill="url(#f)"/><path d="M412.794,485.156s11.045-4.424,10.668-15.971c0,0,4.455,9.037-9.476,19.235Z" transform="translate(-44.504 -11.504)" fill="url(#g)"/></g></svg>