<svg width="140" height="27" viewBox="0 0 140 27" fill="none" xmlns="http://www.w3.org/2000/svg">
<path d="M50.2946 3.80365L44.5889 18.015L38.8304 3.80365H34.5511V22.664H37.8795V9.87912L43.1096 22.664H45.9096L51.1398 9.87912V22.664H54.4681V3.80365H50.2946Z" fill="#252525"/>
<path d="M69.4188 11.7284C68.8377 10.7246 67.9924 9.93214 66.9886 9.40384C65.9848 8.87554 64.7697 8.61139 63.449 8.61139C62.1282 8.61139 60.966 8.92838 59.9093 9.50951C58.9056 10.0906 58.0603 10.9359 57.532 12.0454C56.9509 13.102 56.6867 14.3699 56.6867 15.7963C56.6867 17.2227 57.0037 18.4378 57.5848 19.4944C58.166 20.551 59.0112 21.3963 60.0678 21.9774C61.1244 22.5586 62.3924 22.8755 63.8716 22.8755C65.5094 22.8755 66.9358 22.4001 68.0452 21.502C69.1546 20.6038 69.8414 19.4416 70.1056 18.0152L70.1584 17.8038H66.9358L66.8829 17.9623C66.7244 18.6491 66.3546 19.2303 65.7735 19.6001C65.1924 19.9699 64.5056 20.1812 63.6603 20.1812C62.6037 20.1812 61.7584 19.8642 61.1244 19.2303C60.4905 18.5963 60.1207 17.6982 60.0678 16.5888H70.2112V16.4303C70.2641 16.0605 70.3169 15.6906 70.3169 15.3208C70.3169 13.8944 69.9999 12.7321 69.4188 11.7284ZM60.1735 14.0529C60.332 13.2605 60.649 12.6265 61.2301 12.0982C61.8641 11.5699 62.6565 11.3057 63.5018 11.3057C64.4527 11.3057 65.2452 11.5699 65.8792 12.0982C66.4603 12.5737 66.8301 13.2076 66.9358 14.0529H60.1735Z" fill="#252525"/>
<path d="M77.4489 19.7586C76.9734 19.7586 76.6565 19.6529 76.498 19.4944C76.3395 19.3359 76.2338 18.9661 76.2338 18.4906V11.6227H79.5093V8.71705H76.2338V4.91327L72.9584 5.96987V8.71705H71.6376L70.581 11.6227H72.9584V18.7548C72.9584 20.0755 73.2753 21.0265 73.9093 21.6604C74.5433 22.2944 75.547 22.6114 76.8678 22.6114H79.8263V19.7057H77.4489V19.7586Z" fill="#252525"/>
<path d="M93.4563 6.8678V3.80365H81.2525V22.664H84.6865V14.8452H91.9242V11.8338H84.6865V6.8678H93.4563Z" fill="#252525"/>
<path d="M106.928 11.9925C106.347 10.9359 105.502 10.0906 104.445 9.45664C103.389 8.87551 102.121 8.55853 100.747 8.55853C99.3736 8.55853 98.1056 8.87551 97.049 9.45664C95.9924 10.0378 95.1472 10.8831 94.566 11.9925C93.9849 13.0491 93.6679 14.317 93.6679 15.6906C93.6679 17.117 93.9849 18.3321 94.566 19.4415C95.1472 20.4982 95.9924 21.3434 97.049 21.9246C98.1056 22.5057 99.3736 22.8227 100.747 22.8227C102.121 22.8227 103.389 22.5057 104.445 21.9246C105.502 21.3434 106.347 20.4982 106.981 19.4415C107.562 18.3849 107.879 17.117 107.879 15.6906C107.774 14.317 107.509 13.1019 106.928 11.9925ZM100.694 20.0227C99.5321 20.0227 98.6339 19.6529 97.9472 18.8604C97.2604 18.068 96.8906 17.0114 96.8906 15.7434C96.8906 14.4755 97.2604 13.4189 97.9472 12.6265C98.6339 11.834 99.5321 11.4642 100.694 11.4642C101.857 11.4642 102.755 11.834 103.441 12.6265C104.128 13.4189 104.498 14.4755 104.498 15.7434C104.498 17.0114 104.128 18.068 103.441 18.8604C102.755 19.6 101.857 20.0227 100.694 20.0227Z" fill="#252525"/>
<path d="M116.755 8.76978C115.698 8.76978 114.8 8.9811 114.166 9.35091C113.69 9.66789 113.215 10.0377 112.898 10.5132L112.634 8.82261L109.728 9.8792V22.6641H112.951V15.6905C112.951 14.5811 113.215 13.6302 113.69 12.8905C114.166 12.1509 114.958 11.8339 116.068 11.8339H117.547V8.76978H116.755Z" fill="#252525"/>
<path d="M138.574 10.0906C137.623 9.08687 136.355 8.61139 134.823 8.61139C133.713 8.61139 132.709 8.82271 131.917 9.29818C131.23 9.66799 130.649 10.1963 130.174 10.8831C129.804 10.1963 129.223 9.61517 128.589 9.24536C127.849 8.82272 126.951 8.61139 126 8.61139C124.415 8.61139 123.147 9.19253 122.143 10.302L121.879 8.76988L119.026 9.82649V22.6642H122.249V15.2152C122.249 14.0529 122.513 13.102 123.042 12.4152C123.57 11.7284 124.309 11.4114 125.208 11.4114C126.106 11.4114 126.74 11.6755 127.162 12.2567C127.638 12.8378 127.849 13.6831 127.849 14.8454V22.6642H131.125V15.1623C131.125 14.0001 131.389 13.102 131.917 12.4152C132.445 11.7812 133.185 11.4642 134.083 11.4642C134.981 11.4642 135.615 11.7284 136.038 12.3095C136.46 12.8906 136.725 13.7359 136.725 14.8982V22.6642H140V14.8454C140 12.6793 139.525 11.0944 138.574 10.0906Z" fill="#252525"/>
<path d="M28.951 9.77359L22.9283 10.2491V2.74717C22.9283 1.21509 21.7132 0 20.1811 0H2.74717C1.21509 0 0 1.21509 0 2.74717V15.2151L7.76604 19.9698L28.951 9.77359Z" fill="url(#paint0_linear_1_706)"/>
<path d="M7.87173 25.1998L0.0528564 15.2149V23.8263C0.0528564 25.3584 1.26795 26.5734 2.80003 26.5734H20.234C21.7661 26.5734 22.9812 25.3584 22.9812 23.8263V17.1168L29.0038 9.87909L7.87173 25.1998Z" fill="url(#paint1_linear_1_706)"/>
<g opacity="0.2">
<path d="M18.2791 4.59625H8.87537V5.86417H18.2791V4.59625Z" fill="black"/>
<path d="M5.91696 6.39252C6.55887 6.39252 7.07923 5.87216 7.07923 5.23026C7.07923 4.58836 6.55887 4.06799 5.91696 4.06799C5.27506 4.06799 4.7547 4.58836 4.7547 5.23026C4.7547 5.87216 5.27506 6.39252 5.91696 6.39252Z" fill="black"/>
<path d="M18.2791 9.1925H8.87537V10.4604H18.2791V9.1925Z" fill="black"/>
<path d="M5.91699 11.0414C6.5589 11.0414 7.07926 10.5211 7.07926 9.87917C7.07926 9.23727 6.5589 8.71692 5.91699 8.71692C5.27509 8.71692 4.75473 9.23727 4.75473 9.87917C4.75473 10.5211 5.27509 11.0414 5.91699 11.0414Z" fill="black"/>
<path d="M15.3735 13.8416H8.87537V15.1096H15.3735V13.8416Z" fill="black"/>
<path d="M5.91699 15.6377C6.5589 15.6377 7.07926 15.1173 7.07926 14.4754C7.07926 13.8335 6.5589 13.3132 5.91699 13.3132C5.27509 13.3132 4.75473 13.8335 4.75473 14.4754C4.75473 15.1173 5.27509 15.6377 5.91699 15.6377Z" fill="black"/>
</g>
<path d="M18.2791 3.27539H8.87537V4.54331H18.2791V3.27539Z" fill="white"/>
<path d="M5.91696 5.12458C6.55887 5.12458 7.07923 4.60422 7.07923 3.96232C7.07923 3.32042 6.55887 2.80005 5.91696 2.80005C5.27506 2.80005 4.7547 3.32042 4.7547 3.96232C4.7547 4.60422 5.27506 5.12458 5.91696 5.12458Z" fill="white"/>
<path d="M18.2791 7.92456H8.87537V9.19248H18.2791V7.92456Z" fill="white"/>
<path d="M5.91699 9.72083C6.5589 9.72083 7.07926 9.20047 7.07926 8.55856C7.07926 7.91666 6.5589 7.3963 5.91699 7.3963C5.27509 7.3963 4.75473 7.91666 4.75473 8.55856C4.75473 9.20047 5.27509 9.72083 5.91699 9.72083Z" fill="white"/>
<path d="M15.3735 12.5208H8.87537V13.7887H15.3735V12.5208Z" fill="white"/>
<path d="M5.91699 14.3171C6.5589 14.3171 7.07926 13.7967 7.07926 13.1548C7.07926 12.5129 6.5589 11.9926 5.91699 11.9926C5.27509 11.9926 4.75473 12.5129 4.75473 13.1548C4.75473 13.7967 5.27509 14.3171 5.91699 14.3171Z" fill="white"/>
<defs>
<linearGradient id="paint0_linear_1_706" x1="5.33638" y1="18.7007" x2="19.1295" y2="-0.622344" gradientUnits="userSpaceOnUse">
<stop stop-color="#F8003C"/>
<stop offset="1" stop-color="#FF8438"/>
</linearGradient>
<linearGradient id="paint1_linear_1_706" x1="0.651264" y1="24.9101" x2="22.4176" y2="15.9588" gradientUnits="userSpaceOnUse">
<stop offset="0.1645" stop-color="#0099AC"/>
<stop offset="0.9996" stop-color="#00D5C9"/>
</linearGradient>
</defs>
</svg>
