<svg xmlns="http://www.w3.org/2000/svg" viewBox="0 0 55 52" fill="none">
<path d="M54.8 19.4004L43.4 20.3004V6.1004C43.4 3.2004 41.1 0.900391 38.2 0.900391H5.2C2.3 0.900391 0 3.2004 0 6.1004V29.7004L14.7 38.7004L54.8 19.4004Z" fill="url(#paint0_linear_5931_4163)"/>
<path d="M14.9 48.6004L0.100006 29.7004V46.0004C0.100006 48.9004 2.40001 51.2004 5.30001 51.2004H38.3C41.2 51.2004 43.5 48.9004 43.5 46.0004V33.3004L54.9 19.6004L14.9 48.6004Z" fill="url(#paint1_linear_5931_4163)"/>
<g opacity="0.2">
<path d="M34.6 9.50079H16.8V11.9008H34.6V9.50079Z" fill="black"/>
<path d="M11.2 13.0004C12.415 13.0004 13.4 12.0154 13.4 10.8004C13.4 9.58536 12.415 8.6004 11.2 8.6004C9.98497 8.6004 9 9.58536 9 10.8004C9 12.0154 9.98497 13.0004 11.2 13.0004Z" fill="black"/>
<path d="M34.6 18.3004H16.8V20.7004H34.6V18.3004Z" fill="black"/>
<path d="M11.2 21.7004C12.415 21.7004 13.4 20.7154 13.4 19.5004C13.4 18.2854 12.415 17.3004 11.2 17.3004C9.98497 17.3004 9 18.2854 9 19.5004C9 20.7154 9.98497 21.7004 11.2 21.7004Z" fill="black"/>
<path d="M29.1 27.0008H16.8V29.4008H29.1V27.0008Z" fill="black"/>
<path d="M11.2 30.4008C12.415 30.4008 13.4 29.4158 13.4 28.2008C13.4 26.9858 12.415 26.0008 11.2 26.0008C9.98497 26.0008 9 26.9858 9 28.2008C9 29.4158 9.98497 30.4008 11.2 30.4008Z" fill="black"/>
</g>
<path d="M34.6 7.1004H16.8V9.5004H34.6V7.1004Z" fill="white"/>
<path d="M11.2 10.5004C12.415 10.5004 13.4 9.51541 13.4 8.30038C13.4 7.08536 12.415 6.1004 11.2 6.1004C9.98497 6.1004 9 7.08536 9 8.30038C9 9.51541 9.98497 10.5004 11.2 10.5004Z" fill="white"/>
<path d="M34.6 15.8004H16.8V18.2004H34.6V15.8004Z" fill="white"/>
<path d="M11.2 19.2004C12.415 19.2004 13.4 18.2154 13.4 17.0004C13.4 15.7854 12.415 14.8004 11.2 14.8004C9.98497 14.8004 9 15.7854 9 17.0004C9 18.2154 9.98497 19.2004 11.2 19.2004Z" fill="white"/>
<path d="M29.1 24.5008H16.8V26.9008H29.1V24.5008Z" fill="white"/>
<path d="M11.2 27.9008C12.415 27.9008 13.4 26.9158 13.4 25.7008C13.4 24.4858 12.415 23.5008 11.2 23.5008C9.98497 23.5008 9 24.4858 9 25.7008C9 26.9158 9.98497 27.9008 11.2 27.9008Z" fill="white"/>
<defs>
<linearGradient id="paint0_linear_5931_4163" x1="10.0628" y1="36.219" x2="36.1712" y2="-0.356799" gradientUnits="userSpaceOnUse">
<stop stop-color="#F8003C"/>
<stop offset="1" stop-color="#FF8438"/>
</linearGradient>
<linearGradient id="paint1_linear_5931_4163" x1="1.19451" y1="47.9728" x2="42.3951" y2="31.0293" gradientUnits="userSpaceOnUse">
<stop offset="0.1645" stop-color="#0099AC"/>
<stop offset="0.9996" stop-color="#00D5C9"/>
</linearGradient>
</defs>
</svg>