<svg width="33" height="22" viewBox="0 0 33 22" fill="none" xmlns="http://www.w3.org/2000/svg">
<path d="M22.358 6V16C22.358 16.62 22.338 17.17 22.268 17.66C21.978 20.29 20.738 21 17.358 21H15.358C11.9779 21 10.7379 20.29 10.4479 17.66C10.3779 17.17 10.3579 16.62 10.3579 16V6C10.3579 5.38 10.3779 4.83 10.4479 4.34C10.7379 1.71 11.9779 1 15.358 1H17.358C20.738 1 21.978 1.71 22.268 4.34C22.338 4.83 22.358 5.38 22.358 6Z" stroke="white" stroke-width="2" stroke-linecap="round" stroke-linejoin="round"/>
<path d="M10.3579 16.0001C10.3579 16.6201 10.3779 17.1701 10.4479 17.6601C10.3079 17.6701 10.1779 17.6701 10.0279 17.6701H9.68794C7.02792 17.6701 6.35791 17.0001 6.35791 14.3301V7.67008C6.35791 5.00008 7.02792 4.33008 9.68794 4.33008H10.0279C10.1779 4.33008 10.3079 4.33008 10.4479 4.34008C10.3779 4.83008 10.3579 5.38008 10.3579 6.00008V16.0001Z" stroke="white" stroke-width="2" stroke-linecap="round" stroke-linejoin="round"/>
<path d="M26.3581 7.67008V14.3301C26.3581 17.0001 25.6881 17.6701 23.0281 17.6701H22.6881C22.5381 17.6701 22.4081 17.6701 22.2681 17.6601C22.3381 17.1701 22.3581 16.6201 22.3581 16.0001V6.00008C22.3581 5.38008 22.3381 4.83008 22.2681 4.34008C22.4081 4.33008 22.5381 4.33008 22.6881 4.33008H23.0281C25.6881 4.33008 26.3581 5.00008 26.3581 7.67008Z" stroke="white" stroke-width="2" stroke-linecap="round" stroke-linejoin="round"/>
<path d="M29.9897 9.08496C30.1111 9.00393 30.2704 9.01623 30.3804 9.12109L32.3677 10.9053L32.4917 11.0166L32.3677 11.1279L30.3813 12.9131L30.3384 12.9512H30.1802C30.1269 12.9512 30.0752 12.929 30.0454 12.9141C30.0109 12.8968 29.9706 12.8715 29.939 12.8398C29.8131 12.7139 29.8131 12.5175 29.939 12.3916L29.9458 12.3857L31.5356 10.9814L29.978 9.5791L29.9722 9.57422L29.9731 9.57324C29.9239 9.52396 29.8803 9.45719 29.8647 9.37988C29.8482 9.29705 29.8642 9.20079 29.939 9.12598L29.9897 9.08496Z" fill="white" stroke="white" stroke-width="0.3"/>
<path d="M2.72656 9.08496C2.60516 9.00393 2.44594 9.01623 2.33594 9.12109L0.348633 10.9053L0.224609 11.0166L0.348633 11.1279L2.33496 12.9131L2.37793 12.9512H2.53613C2.58938 12.9512 2.64108 12.929 2.6709 12.9141C2.70544 12.8968 2.74569 12.8715 2.77734 12.8398C2.90319 12.7139 2.90324 12.5175 2.77734 12.3916L2.77051 12.3857L1.18066 10.9814L2.73828 9.5791L2.74414 9.57422L2.74316 9.57324C2.7924 9.52396 2.83597 9.45719 2.85156 9.37988C2.86813 9.29705 2.85216 9.20079 2.77734 9.12598L2.72656 9.08496Z" fill="white" stroke="white" stroke-width="0.3"/>
</svg>
