<svg width="22" height="22" viewBox="0 0 22 22" fill="none" xmlns="http://www.w3.org/2000/svg">
<path d="M10 20H3C1.89543 20 1 19.1046 1 18V3.00001C1 1.89543 1.89543 1 3 1H17C18.1046 1 19 1.89543 19 3.00001V9.50002" stroke="white" stroke-width="2" stroke-linecap="round"/>
<path d="M16.4069 13.4036C16.6192 12.8655 17.3808 12.8655 17.5931 13.4036L17.6298 13.4969C18.1482 14.8113 19.1887 15.8518 20.5031 16.3702L20.5964 16.4069C21.1345 16.6192 21.1345 17.3808 20.5964 17.5931L20.5031 17.6298C19.1887 18.1482 18.1482 19.1887 17.6298 20.5031L17.5931 20.5964C17.3808 21.1345 16.6192 21.1345 16.4069 20.5964L16.3702 20.5031C15.8518 19.1887 14.8113 18.1482 13.4969 17.6298L13.4036 17.5931C12.8655 17.3808 12.8655 16.6192 13.4036 16.4069L13.4969 16.3702C14.8113 15.8518 15.8518 14.8113 16.3702 13.4969L16.4069 13.4036Z" stroke="white" stroke-width="2"/>
<path d="M6 6H14M6 10.5H14M6 15H10" stroke="white" stroke-width="2" stroke-linecap="round" stroke-linejoin="round"/>
</svg>
