<svg viewBox="0 0 50 50" fill="none" xmlns="http://www.w3.org/2000/svg">
<path d="M0 24.988C0 11.1875 11.1875 0 24.988 0C38.7885 0 49.9761 11.1935 49.9761 24.994C49.9761 38.8011 38.7832 50 24.9761 50H4.54328C2.03409 50 0 47.9659 0 45.4567V24.988Z" fill="url(#paint0_linear_5931_4023)"/>
<path opacity="0.7" d="M42.1504 19.5652C46.1809 19.5654 49.4974 22.6128 49.9268 26.5291C49.1337 39.6216 38.2672 49.9998 24.9756 49.9998H4.54297C2.03394 49.9996 2.13563e-05 47.9658 0 45.4568V24.988C1.67373e-06 23.2044 0.187738 21.4647 0.542969 19.7869C1.13638 19.6429 1.75589 19.5652 2.39355 19.5652H42.1504Z" fill="url(#paint1_linear_5931_4023)"/>
<path d="M9.02345 24.9954C9.02349 15.8315 16.7408 8.47167 26.0278 9.06118L26.0319 9.05169C33.8633 9.54881 40.2706 15.8444 40.8997 23.6662C41.6561 33.0764 34.2553 40.9474 25.0124 40.9609C22.1674 40.9653 19.8581 43.2536 19.8581 46.1V49.9995H9.02752V46.0946C9.02769 35.6287 16.319 30.2131 24.7793 30.1251C27.6459 30.0985 30.1085 27.8378 30.122 25.0226C30.1352 22.2069 27.8877 19.9145 25.0911 19.8617C22.1889 19.8045 19.8581 22.2723 19.8581 25.1758V27.2741C19.8581 28.2154 19.2386 29.0253 18.3506 29.3289C15.1142 30.4332 12.3165 32.4925 10.2937 35.1761C9.88463 35.7165 9.02345 35.4082 9.02345 34.7353V24.9954Z" fill="url(#paint2_linear_5931_4023)"/>
<defs>
<linearGradient id="paint0_linear_5931_4023" x1="24.988" y1="0" x2="24.988" y2="50" gradientUnits="userSpaceOnUse">
<stop stop-color="#6D85FF"/>
<stop offset="1" stop-color="#3353F4"/>
</linearGradient>
<linearGradient id="paint1_linear_5931_4023" x1="22.3463" y1="19.5652" x2="22.3463" y2="53.2606" gradientUnits="userSpaceOnUse">
<stop stop-color="#6D85FF"/>
<stop offset="1" stop-color="#3353F4"/>
</linearGradient>
<linearGradient id="paint2_linear_5931_4023" x1="15.21" y1="8.69651" x2="30.9759" y2="54.3428" gradientUnits="userSpaceOnUse">
<stop stop-color="white"/>
<stop offset="1" stop-color="white" stop-opacity="0.8"/>
</linearGradient>
</defs>
</svg>
