<svg width="20" height="20" viewBox="0 0 20 20" fill="none" xmlns="http://www.w3.org/2000/svg">
<path opacity="0.4" d="M10 0C15.5229 0 20 4.47715 20 10C20 15.5229 15.5229 20 10 20C4.47715 20 0 15.5229 0 10C0 4.47715 4.47715 0 10 0Z" fill="#F6BC0E"/>
<path d="M9.99902 4.39026C10.5465 4.39026 10.9777 4.8038 11.2532 5.36181L12.1726 7.21591C12.2005 7.27329 12.2665 7.35409 12.3658 7.42801C12.4652 7.50185 12.5623 7.54259 12.6262 7.55333L14.2906 7.83214C14.8918 7.93317 15.3957 8.22782 15.5593 8.74099C15.7228 9.25377 15.4833 9.78655 15.051 10.2196L13.7576 11.5237C13.7063 11.5754 13.6489 11.6728 13.6129 11.7996C13.5772 11.9256 13.5739 12.0402 13.5902 12.1144L13.5904 12.1154L13.9604 13.7281C14.1137 14.3993 14.0629 15.065 13.5896 15.4129C13.1145 15.7621 12.4654 15.6073 11.8756 15.2561L10.3154 14.3249C10.2499 14.2858 10.1375 14.2541 10.0017 14.2541C9.86682 14.2541 9.7519 14.2853 9.68214 14.326L9.68116 14.3265L8.12409 15.2559C7.53502 15.6083 6.88668 15.7604 6.4116 15.4108C5.93853 15.0628 5.88512 14.3985 6.03904 13.7278L6.40889 12.1154L6.40912 12.1144C6.42533 12.0402 6.42216 11.9256 6.38639 11.7996C6.35039 11.6728 6.29299 11.5754 6.24174 11.5237L4.94781 10.2191C4.51826 9.78606 4.27956 9.25367 4.44171 8.74167C4.60433 8.22821 5.10726 7.9332 5.70885 7.83211L7.37184 7.55354C7.4328 7.54296 7.5291 7.50259 7.62812 7.42856C7.72733 7.35439 7.79359 7.27341 7.82153 7.21591L7.82293 7.21305L8.74116 5.36132C9.01911 4.80378 9.45209 4.39026 9.99902 4.39026Z" fill="#F6BC0E"/>
</svg>
