<svg xmlns="http://www.w3.org/2000/svg" viewBox="0 0 60 52" fill="none">
<path d="M23.9 7.70049C26 7.40049 27.4 5.50047 27.1 3.40047C26.8 1.30047 24.9 -0.0995138 22.8 0.200486C20.7 0.500486 19.3 2.40047 19.6 4.50047C19.6 4.80047 19.7 5.10047 19.8 5.40047L12.4 17.5005H18.1L23.9 7.70049Z" fill="url(#paint0_linear_5931_4112)"/>
<path opacity="0.49" d="M23.9 7.70049C26 7.40049 27.4 5.50047 27.1 3.40047C26.8 1.30047 24.9 -0.0995138 22.8 0.200486C20.7 0.500486 19.3 2.40047 19.6 4.50047C19.6 4.80047 19.7 5.10047 19.8 5.40047L12.4 17.5005H18.1L23.9 7.70049Z" fill="url(#paint1_linear_5931_4112)"/>
<path d="M38.5 5.30047C39.3 3.30047 38.4 1.10047 36.4 0.300465C34.4 -0.499535 32.2 0.400471 31.4 2.40047C30.6 4.40047 31.5 6.60047 33.5 7.40047C33.8 7.50047 34.1 7.60048 34.4 7.60048L40.1 17.4005H45.8L38.5 5.30047Z" fill="url(#paint2_linear_5931_4112)"/>
<path opacity="0.49" d="M38.5 5.30047C39.3 3.30047 38.4 1.10047 36.4 0.300465C34.4 -0.499535 32.2 0.400471 31.4 2.40047C30.6 4.40047 31.5 6.60047 33.5 7.40047C33.8 7.50047 34.1 7.60048 34.4 7.60048L40.1 17.4005H45.8L38.5 5.30047Z" fill="url(#paint3_linear_5931_4112)"/>
<path d="M4 27.1H6.9H31.8C31.9 26.9 32 26.8 32.1 26.6C32.7 25.7 33.4 25.1 34 24.6C34.6 24.1 35.3 23.8 35.9 23.6C37.2 23.2 38.5 23.4 39.7 24C40.1 22.6 41 21.6 42.3 20.9C42.7 20.7 43.1 20.6 43.4 20.5L43.9 20.3H45H45.3H45.6H46.7L47.2 20.5C47.4 20.6 47.8 20.7 48.3 20.9C49.6 21.5 50.5 22.6 50.9 24C52.1 23.4 53.4 23.2 54.7 23.6C55.4 23.8 56 24.1 56.6 24.6C56.9 24.8 57.1 25 57.4 25.3C57.8 24.7 58.1 23.9 58.1 23.1V21.5C58.1 19.3 56.3 17.5 54.1 17.5H45.8H40.1H18.1H12.4H4C1.8 17.5 0 19.3 0 21.5V23.1C0 25.3 1.8 27.1 4 27.1ZM9.5 23.3C9.5 22.1 10.5 21.1 11.7 21.1C12.9 21.1 13.9 22.1 13.9 23.3C13.9 24.5 12.9 25.5 11.7 25.5C10.5 25.5 9.5 24.5 9.5 23.3Z" fill="url(#paint4_linear_5931_4112)"/>
<path d="M32.5 49.1005C31.6 48.0005 31.3 46.7005 31.5 45.3005C31.5 45.1005 31.6 44.8005 31.7 44.5005C31.8 44.1005 32 43.8005 32.2 43.5005C31.9 43.4005 31.6 43.3005 31.3 43.2005V43.3005C31.3 43.8005 31 44.3005 30.6 44.5005C30.3 44.7005 30 44.8005 29.6 44.8005H28.7C27.8 44.8005 27.1 44.1005 27.1 43.2005L27 41.8005L26.6 32.2005C26.6 31.5005 27.1 30.9005 27.8 30.9005H30.3C30.9 30.9005 31.4 31.3005 31.5 31.9005C31.6 31.9005 31.6 31.9005 31.7 31.8005C31 30.4005 30.9 28.7005 31.7 27.2005C31.8 27.1005 31.8 27.0005 31.9 26.9005H6.9H4H3.8L7 45.5005C7.5 48.3005 9.9 50.3005 12.7 50.3005H33.8C33.4 50.1005 32.9 49.6005 32.5 49.1005ZM18.9 44.8005C18.8 44.8005 18.8 44.8005 18.7 44.8005H17.8C16.7 44.8005 15.8 44.1005 15.6 43.0005L13.4 32.2005C13.4 32.1005 13.4 32.0005 13.4 31.8005C13.5 31.4005 13.8 31.1005 14.2 31.0005C14.3 31.0005 14.3 31.0005 14.4 31.0005H17.1C17.9 31.0005 18.6 31.6005 18.7 32.4005L19.1 36.0005L20 43.3005C20.1 44.1005 19.6 44.7005 18.9 44.8005Z" fill="url(#paint5_linear_5931_4112)"/>
<path d="M55.9 40.5008C56.5 40.5008 57.1 40.4008 57.7001 40.4008C58.1 40.4008 58.5 40.3008 58.8 40.1008C59.2 39.8008 59.5 39.4008 59.5 38.9008V38.8008C59.6 38.6008 59.6001 38.5008 59.6001 38.3008C59.6001 38.0008 59.6 37.8008 59.7001 37.5008C59.7001 37.4008 59.7001 37.4008 59.7001 37.3008C59.7001 37.1008 59.7001 36.9008 59.6001 36.7008C59.5001 36.2008 59.4 35.8008 59 35.4008C58.6 35.0008 58.2001 34.8008 57.6001 34.8008C57.0001 34.8008 56.5 34.8008 55.9 34.8008C55.2 34.8008 54.6 34.3008 54.3 33.7008C54.3 33.6008 54.3 33.5008 54.3 33.4008C54.3 32.9008 54.5 32.5008 54.8 32.1008C55.2 31.7008 55.6 31.3008 56 30.9008C56.6 30.3008 56.7 29.5008 56.3 28.7008C56.2 28.5008 56.1 28.4008 56 28.2008C55.7 27.7008 55.2 27.3008 54.8 26.9008C54.5 26.7008 54.2 26.5008 53.9 26.4008C53.3 26.2008 52.7001 26.3008 52.2001 26.7008C52 26.9008 51.7 27.1008 51.5 27.3008C51.2 27.6008 51 27.9008 50.7001 28.1008C50.2001 28.5008 49.6001 28.5008 49.1001 28.3008C48.7001 28.1008 48.4 27.7008 48.3 27.3008C48.2 27.1008 48.3 26.8008 48.3 26.6008C48.3 26.2008 48.3 25.7008 48.3 25.3008C48.3 24.5008 47.9001 23.9008 47.2001 23.5008C47.0001 23.4008 46.7 23.4008 46.5 23.3008H46.4C46.2 23.3008 46.1 23.3008 45.9 23.3008C45.8 23.3008 45.8001 23.3008 45.7001 23.3008C45.6 23.3008 45.5 23.3008 45.5 23.3008C45.4 23.3008 45.3 23.3008 45.3 23.3008C45.2 23.3008 45.2001 23.3008 45.1001 23.3008C44.9001 23.3008 44.8001 23.3008 44.6001 23.3008H44.5C44.3 23.4008 44 23.4008 43.8 23.5008C43.1 23.9008 42.7001 24.5008 42.7001 25.3008C42.7001 25.7008 42.7001 26.2008 42.7001 26.6008C42.7001 26.8008 42.7001 27.1008 42.7001 27.3008C42.6 27.8008 42.3 28.1008 41.9 28.3008C41.3 28.5008 40.8 28.5008 40.3 28.1008C40 27.9008 39.8 27.6008 39.5 27.3008C39.3 27.1008 39.1 26.8008 38.8 26.7008C38.3 26.3008 37.7001 26.2008 37.1001 26.4008C36.8001 26.5008 36.5001 26.7008 36.2001 26.9008C35.7001 27.3008 35.3 27.7008 35 28.2008C34.9 28.4008 34.8001 28.5008 34.7001 28.7008C34.3001 29.5008 34.5 30.3008 35 30.9008C35.4 31.3008 35.8001 31.7008 36.2001 32.1008C36.5001 32.4008 36.8001 32.9008 36.7001 33.4008C36.7001 33.5008 36.7001 33.6008 36.7001 33.7008C36.4001 34.3008 35.8001 34.8008 35.1001 34.8008C34.5001 34.8008 34 34.8008 33.4 34.8008C32.9 34.8008 32.4 35.0008 32 35.4008C31.6 35.8008 31.5 36.2008 31.4 36.7008C31.4 36.9008 31.4 37.1008 31.3 37.3008C31.3 37.4008 31.3 37.4008 31.3 37.5008C31.3 37.8008 31.3 38.0008 31.4 38.3008C31.4 38.5008 31.5 38.6008 31.5 38.8008V38.9008C31.6 39.4008 31.8001 39.8008 32.2001 40.1008C32.5001 40.3008 32.9 40.4008 33.3 40.4008C33.9 40.4008 34.5001 40.4008 35.1001 40.5008C35.7001 40.5008 36.2 40.8008 36.5 41.3008C36.8 41.9008 36.9 42.7008 36.4 43.3008C36 43.7008 35.7 44.1008 35.3 44.5008C35.1 44.7008 34.9 45.0008 34.8 45.4008C34.6 46.0008 34.6001 46.6008 35.1001 47.1008C35.6001 47.7008 36.1001 48.1008 36.6001 48.6008C36.8001 48.8008 37 48.9008 37.3 48.9008C37.9 49.0008 38.5 48.8008 39 48.4008C39.4 48.0008 39.8 47.6008 40.3 47.2008C40.5 47.0008 40.7 46.9008 40.9 46.8008C41.3 46.7008 41.6 46.7008 42 46.8008C42 46.8008 42.0001 46.8008 42.1001 46.8008C42.5001 47.1008 42.8 47.5008 42.9 48.0008C42.9 48.2008 42.9 48.4008 42.9 48.6008C42.9 49.1008 42.9 49.5008 42.9 50.0008C42.9 50.9008 43.4001 51.4008 44.2001 51.7008C44.7001 51.9008 45.2 52.0008 45.8 52.0008C46.3 52.0008 46.9 51.9008 47.4 51.7008C48.2 51.4008 48.6 50.8008 48.7001 50.0008C48.7001 49.5008 48.7001 49.1008 48.7001 48.6008C48.7001 48.4008 48.7001 48.2008 48.7001 48.0008C48.8001 47.5008 49.1 47.1008 49.5 46.8008C49.5 46.8008 49.5001 46.8008 49.6001 46.8008C49.7001 46.8008 49.8 46.8008 49.9 46.7008L48.3 45.2008C47.5 45.4008 46.7 45.6008 45.9 45.6008C41.5 45.6008 38 42.1008 38 37.7008C38 33.3008 41.5 29.8008 45.9 29.8008C50.3 29.8008 53.8 33.3008 53.8 37.7008C53.8 38.4008 53.7 39.1008 53.5 39.7008L55.1001 41.2008C55.0001 40.8008 55.4 40.6008 55.9 40.5008Z" fill="#252525"/>
<path d="M57.1001 46.4002C57.0001 46.1002 56.8001 45.8002 56.5001 45.5002C55.1001 44.1002 53.7001 42.8002 52.2001 41.4002C51.8001 41.1002 51.5001 40.7002 51.1001 40.4002L51.0001 40.3002C50.9001 40.1002 50.9001 40.0002 50.9001 39.7002C50.9001 39.5002 51.0001 39.4002 51.0001 39.2002C51.3001 38.1002 51.3001 36.9002 51.0001 35.8002C50.6001 34.6002 49.9001 33.6002 48.8001 32.8002C47.8001 32.1002 46.8001 31.7002 45.6001 31.7002C45.0001 31.7002 44.4001 31.8002 43.9001 32.0002C43.9001 32.1002 44.0001 32.1002 44.0001 32.2002C44.7001 32.9002 45.5001 33.6002 46.2001 34.3002C46.4001 34.5002 46.6001 34.7002 46.7001 34.9002C47.1001 35.7002 47.2001 36.5002 46.9001 37.3002C46.7001 37.8002 46.3001 38.2002 46.0001 38.5002C45.3001 39.1002 44.6001 39.3002 43.7001 39.1002C43.2001 39.0002 42.7001 38.8002 42.3001 38.4002C41.8001 37.9002 41.3001 37.5002 40.8001 37.0002C40.5001 36.7002 40.3001 36.5002 40.0001 36.2002L39.9001 36.1002C39.8001 36.1002 39.7001 36.2002 39.7001 36.3002C39.7001 36.6002 39.6001 36.9002 39.6001 37.2002C39.6001 38.0002 39.7001 38.7002 40.0001 39.5002C40.5001 40.7002 41.4001 41.7002 42.5001 42.4002C43.8001 43.2002 45.2001 43.4002 46.7001 43.1002C47.1001 43.0002 47.4001 42.9002 47.7001 42.8002C48.0001 42.7002 48.3001 42.7002 48.6001 43.0002C48.9001 43.3002 49.3001 43.6002 49.6001 43.9002C50.7001 44.9002 51.8001 46.0002 52.8001 47.0002C53.2001 47.4002 53.6001 47.8002 54.1001 48.2002C54.4001 48.4002 54.7001 48.6002 55.1001 48.6002C55.5001 48.6002 55.9001 48.6002 56.2001 48.4002C56.5001 48.2002 56.8001 47.9002 57.0001 47.6002C57.3001 47.5002 57.3001 47.0002 57.1001 46.4002ZM55.2001 48.0002C54.7001 48.0002 54.2001 47.6002 54.2001 47.0002C54.2001 46.4002 54.6001 46.0002 55.2001 46.0002C55.7001 46.0002 56.2001 46.3002 56.2001 46.9002C56.2001 47.6002 55.8001 48.0002 55.2001 48.0002Z" fill="url(#paint6_linear_5931_4112)"/>
<defs>
<linearGradient id="paint0_linear_5931_4112" x1="15.8215" y1="18.76" x2="20.2622" y2="9.96237" gradientUnits="userSpaceOnUse">
<stop stop-color="#44A6FF"/>
<stop offset="1" stop-color="#1BC1FF"/>
</linearGradient>
<linearGradient id="paint1_linear_5931_4112" x1="20.3587" y1="18.5889" x2="19.7303" y2="9.74938" gradientUnits="userSpaceOnUse">
<stop/>
<stop offset="0.1448" stop-color="#303030"/>
<stop offset="0.3812" stop-color="#797979"/>
<stop offset="0.5934" stop-color="#B2B2B2"/>
<stop offset="0.7737" stop-color="#DCDCDC"/>
<stop offset="0.9151" stop-color="#F6F6F6"/>
<stop offset="1" stop-color="white"/>
</linearGradient>
<linearGradient id="paint2_linear_5931_4112" x1="44.7502" y1="17.6062" x2="37.8797" y2="7.97067" gradientUnits="userSpaceOnUse">
<stop stop-color="#47B2D4"/>
<stop offset="1" stop-color="#00D5C9"/>
</linearGradient>
<linearGradient id="paint3_linear_5931_4112" x1="43.7415" y1="18.6253" x2="37.269" y2="7.75397" gradientUnits="userSpaceOnUse">
<stop/>
<stop offset="0.1448" stop-color="#303030"/>
<stop offset="0.3812" stop-color="#797979"/>
<stop offset="0.5934" stop-color="#B2B2B2"/>
<stop offset="0.7737" stop-color="#DCDCDC"/>
<stop offset="0.9151" stop-color="#F6F6F6"/>
<stop offset="1" stop-color="white"/>
</linearGradient>
<linearGradient id="paint4_linear_5931_4112" x1="0.0042" y1="22.2708" x2="58.3064" y2="22.2708" gradientUnits="userSpaceOnUse">
<stop stop-color="#F8003C"/>
<stop offset="1" stop-color="#FF8438"/>
</linearGradient>
<linearGradient id="paint5_linear_5931_4112" x1="18.8365" y1="27.1306" x2="18.8365" y2="46.116" gradientUnits="userSpaceOnUse">
<stop stop-color="#00D5C9"/>
<stop offset="1" stop-color="#0099AC"/>
</linearGradient>
<linearGradient id="paint6_linear_5931_4112" x1="56.6771" y1="47.9478" x2="47.452" y2="39.4914" gradientUnits="userSpaceOnUse">
<stop stop-color="#F8003C"/>
<stop offset="1" stop-color="#FF8438"/>
</linearGradient>
</defs>
</svg>