<svg width="190" height="44" viewBox="0 0 190 32" fill="none" xmlns="http://www.w3.org/2000/svg">
<path d="M13.094 4.17556C14.2492 4.01053 15.0193 2.96538 14.8543 1.81021C14.6892 0.655033 13.6441 -0.11508 12.4889 0.0499449C11.3337 0.214969 10.5636 1.26012 10.7287 2.41529C10.7287 2.58032 10.7837 2.74534 10.8387 2.91037L6.76807 9.62137H9.90353L13.094 4.17556Z" fill="url(#paint0_linear_1_623)"/>
<path opacity="0.49" d="M13.094 4.17556C14.2492 4.01053 15.0193 2.96538 14.8543 1.81021C14.6892 0.655033 13.6441 -0.11508 12.4889 0.0499449C11.3337 0.214969 10.5636 1.26012 10.7287 2.41529C10.7287 2.58032 10.7837 2.74534 10.8387 2.91037L6.76807 9.62137H9.90353L13.094 4.17556Z" fill="url(#paint1_linear_1_623)"/>
<path d="M21.1252 2.91032C21.5652 1.81015 21.0702 0.599975 19.97 0.159909C18.8698 -0.280156 17.6597 0.214917 17.2196 1.31508C16.7795 2.41524 17.2746 3.62542 18.3748 4.06549C18.5398 4.1205 18.7048 4.17551 18.8698 4.17551L22.0053 9.56631H25.1408L21.1252 2.91032Z" fill="url(#paint2_linear_1_623)"/>
<path opacity="0.49" d="M21.1252 2.91032C21.5652 1.81015 21.0702 0.599975 19.97 0.159909C18.8698 -0.280156 17.6597 0.214917 17.2196 1.31508C16.7795 2.41524 17.2746 3.62542 18.3748 4.06549C18.5398 4.1205 18.7048 4.17551 18.8698 4.17551L22.0053 9.56631H25.1408L21.1252 2.91032Z" fill="url(#paint3_linear_1_623)"/>
<path d="M2.20251 14.8471H3.79775H17.4948C17.5498 14.7371 17.6048 14.682 17.6598 14.572C17.9899 14.077 18.3749 13.7469 18.705 13.4719C19.035 13.1968 19.4201 13.0318 19.7501 12.9218C20.4652 12.7018 21.1803 12.8118 21.8404 13.1418C22.0605 12.3717 22.5555 11.8216 23.2706 11.4366C23.4907 11.3266 23.7107 11.2715 23.8757 11.2165L24.1508 11.1065H24.7559H24.9209H25.0859H25.691L25.966 11.2165C26.0761 11.2715 26.2961 11.3266 26.5711 11.4366C27.2862 11.7666 27.7813 12.3717 28.0013 13.1418C28.6614 12.8118 29.3766 12.7018 30.0917 12.9218C30.4767 13.0318 30.8068 13.1968 31.1368 13.4719C31.3018 13.5819 31.4119 13.6919 31.5769 13.8569C31.7969 13.5269 31.9619 13.0868 31.9619 12.6467V11.7666C31.9619 10.5564 30.9718 9.56628 29.7616 9.56628H25.1409H22.0055H9.90366H6.76819H2.20251C0.992333 9.56628 0.00218562 10.5564 0.00218562 11.7666V12.6467C-0.0528226 13.8569 0.937325 14.8471 2.20251 14.8471ZM5.17295 12.8118C5.17295 12.1517 5.72304 11.6016 6.38313 11.6016C7.04323 11.6016 7.59331 12.1517 7.59331 12.8118C7.59331 13.4719 7.04323 14.022 6.38313 14.022C5.72304 14.022 5.17295 13.4719 5.17295 12.8118Z" fill="url(#paint4_linear_1_623)"/>
<path d="M17.8247 26.9489C17.3297 26.3438 17.1647 25.6287 17.2747 24.8586C17.2747 24.7486 17.3297 24.5836 17.3847 24.4185C17.4397 24.1985 17.5497 24.0335 17.6597 23.8684C17.4947 23.8134 17.3297 23.7584 17.1647 23.7034V23.7584C17.1647 24.0335 16.9996 24.3085 16.7796 24.4185C16.6146 24.5285 16.4495 24.5836 16.2295 24.5836H15.7344C15.2394 24.5836 14.8543 24.1985 14.8543 23.7034L14.7993 22.9333L14.5793 17.6525C14.5793 17.2675 14.8543 16.9374 15.2394 16.9374H16.6146C16.9446 16.9374 17.2197 17.1575 17.2747 17.4875C17.3297 17.4875 17.3297 17.4875 17.3847 17.4325C16.9996 16.6624 16.9446 15.7272 17.3847 14.9021C17.4397 14.8471 17.4397 14.7921 17.4947 14.7371H3.79766H2.20242H2.09241L3.85267 24.9686C4.12771 26.5088 5.44791 27.609 6.98814 27.609H18.5949C18.3198 27.499 18.0448 27.279 17.8247 26.9489ZM10.3436 24.6386C10.2886 24.6386 10.2886 24.6386 10.2336 24.6386H9.73855C9.13346 24.6386 8.63838 24.2535 8.52837 23.6484L7.31819 17.7075C7.31819 17.6525 7.31819 17.5975 7.31819 17.4875C7.37319 17.2675 7.53822 17.1024 7.75825 17.0474C7.81326 17.0474 7.81326 17.0474 7.86827 17.0474H9.35349C9.79355 17.0474 10.1786 17.3775 10.2336 17.8175L10.4537 19.7978L10.9487 23.8134C11.0037 24.2535 10.7287 24.5836 10.3436 24.6386Z" fill="url(#paint5_linear_1_623)"/>
<path d="M30.7516 22.2733C31.0817 22.2733 31.4117 22.2183 31.7418 22.2183C31.9618 22.2183 32.1818 22.1632 32.3469 22.0532C32.5669 21.8882 32.7319 21.6682 32.7319 21.3931V21.3381C32.7869 21.2281 32.7869 21.1731 32.7869 21.0631C32.7869 20.8981 32.7869 20.788 32.8419 20.623C32.8419 20.568 32.8419 20.568 32.8419 20.513C32.8419 20.403 32.8419 20.293 32.7869 20.183C32.7319 19.9079 32.6769 19.6879 32.4569 19.4678C32.2368 19.2478 32.0168 19.1378 31.6868 19.1378C31.3567 19.1378 31.0817 19.1378 30.7516 19.1378C30.3666 19.1378 30.0365 18.8628 29.8715 18.5327C29.8715 18.4777 29.8715 18.4227 29.8715 18.3677C29.8715 18.0926 29.9815 17.8726 30.1465 17.6526C30.3666 17.4325 30.5866 17.2125 30.8066 16.9925C31.1367 16.6624 31.1917 16.2224 30.9716 15.7823C30.9166 15.6723 30.8616 15.6173 30.8066 15.5073C30.6416 15.2322 30.3666 15.0122 30.1465 14.7921C29.9815 14.6821 29.8165 14.5721 29.6515 14.5171C29.3214 14.4071 28.9914 14.4621 28.7163 14.6821C28.6063 14.7922 28.4413 14.9022 28.3313 15.0122C28.1662 15.1772 28.0562 15.3422 27.8912 15.4522C27.6162 15.6723 27.2861 15.6723 27.0111 15.5623C26.791 15.4523 26.626 15.2322 26.571 15.0122C26.516 14.9022 26.571 14.7371 26.571 14.6271C26.571 14.4071 26.571 14.1321 26.571 13.912C26.571 13.472 26.351 13.1419 25.9659 12.9219C25.8559 12.8669 25.6909 12.8669 25.5808 12.8119H25.5258C25.4158 12.8119 25.3608 12.8119 25.2508 12.8119C25.1958 12.8119 25.1958 12.8119 25.1408 12.8119C25.0858 12.8119 25.0308 12.8119 25.0308 12.8119C24.9758 12.8119 24.9207 12.8119 24.9207 12.8119C24.8657 12.8119 24.8657 12.8119 24.8107 12.8119C24.7007 12.8119 24.6457 12.8119 24.5357 12.8119H24.4807C24.3707 12.8669 24.2056 12.8669 24.0956 12.9219C23.7106 13.1419 23.4905 13.472 23.4905 13.912C23.4905 14.1321 23.4905 14.4071 23.4905 14.6271C23.4905 14.7371 23.4905 14.9022 23.4905 15.0122C23.4355 15.2872 23.2705 15.4523 23.0505 15.5623C22.7204 15.6723 22.4454 15.6723 22.1703 15.4522C22.0053 15.3422 21.8953 15.1772 21.7303 15.0122C21.6203 14.9022 21.5102 14.7371 21.3452 14.6821C21.0702 14.4621 20.7401 14.4071 20.4101 14.5171C20.2451 14.5721 20.08 14.6821 19.915 14.7921C19.64 15.0122 19.4199 15.2322 19.2549 15.5073C19.1999 15.6173 19.1449 15.6723 19.0899 15.7823C18.8699 16.2224 18.9799 16.6624 19.2549 16.9925C19.4749 17.2125 19.695 17.4325 19.915 17.6526C20.08 17.8176 20.2451 18.0926 20.19 18.3677C20.19 18.4227 20.19 18.4777 20.19 18.5327C20.025 18.8628 19.695 19.1378 19.3099 19.1378C18.9799 19.1378 18.7048 19.1378 18.3748 19.1378C18.0997 19.1378 17.8247 19.2478 17.6047 19.4678C17.3846 19.6879 17.3296 19.9079 17.2746 20.183C17.2746 20.293 17.2746 20.403 17.2196 20.513C17.2196 20.568 17.2196 20.568 17.2196 20.623C17.2196 20.788 17.2196 20.8981 17.2746 21.0631C17.2746 21.1731 17.3296 21.2281 17.3296 21.3381V21.3931C17.3846 21.6682 17.4946 21.8882 17.7147 22.0532C17.8797 22.1632 18.0997 22.2183 18.3198 22.2183C18.6498 22.2183 18.9799 22.2183 19.3099 22.2733C19.64 22.2733 19.915 22.4383 20.08 22.7133C20.2451 23.0434 20.3001 23.4834 20.025 23.8135C19.805 24.0335 19.64 24.2536 19.4199 24.4736C19.3099 24.5836 19.1999 24.7486 19.1449 24.9687C19.0349 25.2987 19.0349 25.6288 19.3099 25.9038C19.585 26.2338 19.86 26.4539 20.135 26.7289C20.2451 26.8389 20.3551 26.8939 20.5201 26.8939C20.8501 26.949 21.1802 26.8389 21.4552 26.6189C21.6753 26.3989 21.8953 26.1788 22.1703 25.9588C22.2804 25.8488 22.3904 25.7938 22.5004 25.7388C22.7204 25.6838 22.8854 25.6838 23.1055 25.7388C23.1055 25.7388 23.1055 25.7388 23.1605 25.7388C23.3805 25.9038 23.5455 26.1238 23.6006 26.3989C23.6006 26.5089 23.6006 26.6189 23.6006 26.7289C23.6006 27.004 23.6006 27.224 23.6006 27.499C23.6006 27.9941 23.8756 28.2692 24.3157 28.4342C24.5907 28.5442 24.8657 28.5992 25.1958 28.5992C25.4708 28.5992 25.8009 28.5442 26.0759 28.4342C26.516 28.2692 26.736 27.9391 26.791 27.499C26.791 27.224 26.791 27.004 26.791 26.7289C26.791 26.6189 26.791 26.5089 26.791 26.3989C26.846 26.1238 27.0111 25.9038 27.2311 25.7388C27.2311 25.7388 27.2311 25.7388 27.2861 25.7388C27.3411 25.7388 27.3961 25.7388 27.4511 25.6838L26.571 24.8586C26.1309 24.9687 25.6909 25.0787 25.2508 25.0787C22.8304 25.0787 20.9052 23.1534 20.9052 20.733C20.9052 18.3127 22.8304 16.3874 25.2508 16.3874C27.6712 16.3874 29.5964 18.3127 29.5964 20.733C29.5964 21.1181 29.5414 21.5031 29.4314 21.8332L30.3116 22.6583C30.2565 22.4383 30.4766 22.2733 30.7516 22.2733Z" fill="#252525"/>
<path d="M31.4118 25.5187C31.3568 25.3537 31.2468 25.1887 31.0818 25.0237C30.3117 24.2535 29.5416 23.5384 28.7164 22.7683C28.4964 22.6033 28.3314 22.3833 28.1113 22.2182L28.0563 22.1632C28.0013 22.0532 28.0013 21.9982 28.0013 21.8332C28.0013 21.7232 28.0563 21.6682 28.0563 21.5581C28.2214 20.953 28.2214 20.293 28.0563 19.6879C27.8363 19.0278 27.4512 18.4777 26.8461 18.0376C26.2961 17.6526 25.746 17.4325 25.0859 17.4325C24.7558 17.4325 24.4258 17.4875 24.1508 17.5976C24.1508 17.6526 24.2058 17.6526 24.2058 17.7076C24.5908 18.0926 25.0309 18.4777 25.4159 18.8627C25.526 18.9728 25.636 19.0828 25.691 19.1928C25.911 19.6329 25.966 20.0729 25.801 20.513C25.691 20.788 25.4709 21.0081 25.3059 21.1731C24.9209 21.5031 24.5358 21.6131 24.0407 21.5031C23.7657 21.4481 23.4907 21.3381 23.2706 21.1181C22.9956 20.843 22.7205 20.623 22.4455 20.348C22.2805 20.1829 22.1705 20.0729 22.0054 19.9079L21.9504 19.8529C21.8954 19.8529 21.8404 19.9079 21.8404 19.9629C21.8404 20.1279 21.7854 20.293 21.7854 20.458C21.7854 20.898 21.8404 21.2831 22.0054 21.7232C22.2805 22.3833 22.7755 22.9333 23.3806 23.3184C24.0957 23.7585 24.8659 23.8685 25.691 23.7035C25.911 23.6484 26.076 23.5934 26.2411 23.5384C26.4061 23.4834 26.5711 23.4834 26.7361 23.6485C26.9012 23.8135 27.1212 23.9785 27.2862 24.1435C27.8913 24.6936 28.4964 25.2987 29.0465 25.8488C29.2665 26.0688 29.4865 26.2888 29.7616 26.5089C29.9266 26.6189 30.0916 26.7289 30.3117 26.7289C30.5317 26.7289 30.7517 26.7289 30.9168 26.6189C31.0818 26.5089 31.2468 26.3438 31.3568 26.1788C31.4668 26.1238 31.4668 25.8488 31.4118 25.5187ZM30.3117 26.3989C30.0366 26.3989 29.7616 26.1788 29.7616 25.8488C29.7616 25.5187 29.9816 25.2987 30.3117 25.2987C30.5867 25.2987 30.8617 25.4637 30.8617 25.7938C30.8617 26.1788 30.6417 26.3989 30.3117 26.3989Z" fill="url(#paint6_linear_1_623)"/>
<path d="M52.9203 15.5622C51.9851 15.1772 50.94 14.9021 49.6748 14.6821C48.4646 14.462 47.5294 14.242 46.8694 14.077C46.2643 13.912 45.7142 13.6369 45.3841 13.3069C45.0541 12.9768 44.8341 12.5368 44.8341 11.9867C44.8341 11.1616 45.1091 10.5565 45.7692 10.1164C46.3743 9.67633 47.2544 9.40128 48.3546 9.40128C49.4547 9.40128 50.3899 9.67633 51.105 10.2814C51.8201 10.8315 52.2051 11.6016 52.3152 12.5368V12.7018H55.8357V12.4817C55.7807 11.2716 55.4506 10.2264 54.7905 9.29127C54.1304 8.35613 53.2503 7.64102 52.1501 7.09094C51.05 6.54086 49.7848 6.32083 48.3546 6.32083C46.9794 6.32083 45.7692 6.54086 44.724 7.03594C43.6789 7.53101 42.7987 8.24611 42.1937 9.12624C41.5886 10.0064 41.3135 11.0515 41.3135 12.2067C41.3135 13.4169 41.5886 14.462 42.1937 15.2322C42.7987 16.0023 43.5139 16.5524 44.449 16.9374C45.3291 17.3225 46.4293 17.5975 47.6945 17.8175C48.9047 18.0376 49.8398 18.2576 50.5549 18.4226C51.215 18.5877 51.7101 18.8627 52.0951 19.2478C52.4252 19.5778 52.6452 20.0179 52.6452 20.623C52.6452 21.4481 52.3152 22.1082 51.6551 22.5482C50.995 23.0433 50.0598 23.2634 48.9047 23.2634C47.6395 23.2634 46.5943 22.9333 45.7692 22.2732C44.9991 21.6131 44.559 20.733 44.449 19.6878V19.5228L40.9285 19.4678V19.6878C40.9285 21.008 41.3135 22.1632 41.9736 23.1533C42.6337 24.1435 43.5689 24.9686 44.779 25.5187C45.9342 26.0688 47.3644 26.3438 48.9047 26.3438C50.2799 26.3438 51.6001 26.0688 52.7002 25.5737C53.8004 25.0786 54.6805 24.3085 55.3406 23.3734C55.9457 22.4382 56.2757 21.3931 56.2757 20.1829C56.2757 18.9727 56.0007 17.9826 55.3956 17.2125C54.6255 16.5524 53.8554 15.9473 52.9203 15.5622Z" fill="#252525"/>
<path d="M65.7919 11.5466C64.0317 11.5466 62.6565 12.1517 61.5563 13.3619V6.54089L58.2008 7.64106V26.2338H61.5563V18.9177C61.5563 17.5425 61.8864 16.4974 62.4914 15.7273C63.1515 14.9571 63.9767 14.5721 65.0768 14.5721C66.122 14.5721 66.8921 14.9021 67.4422 15.5622C67.9923 16.2223 68.2673 17.2125 68.2673 18.4777V26.2888H71.6778V18.3127C71.6778 16.0023 71.1277 14.2971 70.0276 13.1969C68.9274 12.0417 67.4972 11.5466 65.7919 11.5466Z" fill="#252525"/>
<path d="M84.6599 12.4818C83.5597 11.8767 82.2395 11.5467 80.8093 11.5467C79.3791 11.5467 78.0589 11.8767 76.9588 12.4818C75.8586 13.0869 74.9785 13.967 74.3734 15.1222C73.7683 16.2224 73.4382 17.5426 73.4382 18.9728C73.4382 20.458 73.7683 21.7232 74.3734 22.8783C74.9785 23.9785 75.8586 24.8586 76.9588 25.4637C78.0589 26.0688 79.3791 26.3989 80.8093 26.3989C82.2395 26.3989 83.5597 26.0688 84.6599 25.4637C85.7601 24.8586 86.6402 23.9785 87.3003 22.8783C87.9054 21.7782 88.2354 20.458 88.2354 18.9728C88.2354 17.5426 87.9054 16.2224 87.3003 15.1222C86.6952 13.967 85.8151 13.0869 84.6599 12.4818ZM80.8093 23.4284C79.5991 23.4284 78.664 23.0434 77.9489 22.2182C77.2338 21.3931 76.8487 20.293 76.8487 18.9728C76.8487 17.6526 77.2338 16.5524 77.9489 15.7273C78.664 14.9022 79.5991 14.5171 80.8093 14.5171C82.0195 14.5171 82.9546 14.9022 83.6697 15.7273C84.3849 16.5524 84.7699 17.6526 84.7699 18.9728C84.7699 20.293 84.3849 21.3931 83.6697 22.2182C82.9546 22.9884 82.0195 23.4284 80.8093 23.4284Z" fill="#252525"/>
<path d="M101.493 12.4268C100.448 11.8217 99.2924 11.5467 97.9722 11.5467C96.1569 11.5467 94.6717 12.2068 93.5166 13.527L93.1865 11.7117L90.2161 12.8119V31.7347L93.5716 30.6345V24.5836C94.0116 25.0787 94.5067 25.4637 95.1118 25.7388C95.8819 26.1238 96.8721 26.3439 97.9172 26.3439C99.2374 26.3439 100.448 26.0138 101.438 25.4087C102.483 24.8036 103.308 23.9235 103.858 22.8233C104.463 21.7232 104.738 20.403 104.738 18.9728C104.738 17.4875 104.463 16.1673 103.858 15.0672C103.363 13.912 102.538 13.0319 101.493 12.4268ZM97.4221 14.4621C98.5773 14.4621 99.5124 14.8472 100.228 15.6723C100.943 16.4974 101.328 17.5976 101.328 18.9178C101.328 20.238 100.943 21.3381 100.228 22.1632C99.5124 22.9884 98.5773 23.4284 97.4221 23.4284C96.267 23.4284 95.3318 23.0434 94.6167 22.1632C93.9016 21.3381 93.5166 20.238 93.5166 18.8628C93.5166 17.5426 93.9016 16.4424 94.6167 15.6723C95.3318 14.8472 96.267 14.4621 97.4221 14.4621Z" fill="#252525"/>
<path d="M110.679 17.8176H118.435V14.6821H110.679V9.73137H120.085V6.54089H107.103V26.1788H120.415V22.9883H110.679V17.8176Z" fill="#252525"/>
<path d="M129.876 11.5467C128.061 11.5467 126.576 12.1517 125.476 13.3069L125.201 11.7117L122.23 12.8119V26.2338H125.586V18.9178C125.586 17.5425 125.916 16.4424 126.521 15.6723C127.181 14.9022 128.006 14.5171 129.106 14.5171C130.152 14.5171 130.922 14.8472 131.472 15.5072C132.022 16.1673 132.297 17.1575 132.297 18.4227V26.2338H135.707V18.2577C135.707 15.9473 135.157 14.2421 134.057 13.1419C133.012 12.0417 131.637 11.5467 129.876 11.5467Z" fill="#252525"/>
<path d="M148.854 13.582C148.414 13.0319 147.864 12.5368 147.204 12.2068C146.434 11.7667 145.444 11.5467 144.344 11.5467C143.023 11.5467 141.868 11.8767 140.823 12.4818C139.778 13.0869 138.953 13.967 138.348 15.0672C137.743 16.1673 137.468 17.4875 137.468 18.9178C137.468 20.403 137.743 21.7232 138.348 22.8233C138.953 23.9235 139.778 24.8036 140.768 25.3537C141.813 25.9588 142.968 26.2338 144.289 26.2338C146.159 26.2338 147.644 25.5737 148.689 24.3636V25.2987C148.689 27.8291 147.424 29.0393 144.839 29.0393C143.849 29.0393 143.023 28.8192 142.418 28.4342C141.813 28.0491 141.428 27.499 141.263 26.7289L141.208 26.5639H137.798V26.7839C137.908 28.3792 138.623 29.6443 139.888 30.5795C141.098 31.4596 142.693 31.8997 144.674 31.8997C147.149 31.8997 149.074 31.3496 150.285 30.1944C151.495 29.0943 152.1 27.444 152.1 25.4087V11.7117H149.184L148.854 13.582ZM144.894 23.3184C143.739 23.3184 142.803 22.9334 142.088 22.1082C141.373 21.2831 140.988 20.1829 140.988 18.8628C140.988 17.5426 141.373 16.4424 142.088 15.6173C142.803 14.7921 143.739 14.4071 144.894 14.4071C146.049 14.4071 146.984 14.7921 147.699 15.6173C148.414 16.4424 148.799 17.5426 148.799 18.8628C148.799 20.1829 148.414 21.2281 147.699 22.0532C146.984 22.9333 146.049 23.3184 144.894 23.3184Z" fill="#252525"/>
<path d="M157.986 11.7116H154.63V26.2338H157.986V11.7116Z" fill="#252525"/>
<path d="M156.336 6.04581C155.786 6.04581 155.291 6.21083 154.906 6.59589C154.52 6.98095 154.3 7.47601 154.3 8.0261C154.3 8.57618 154.52 9.07126 154.906 9.45631C155.291 9.84137 155.786 10.0064 156.336 10.0064C156.886 10.0064 157.381 9.84137 157.766 9.45631C158.151 9.07126 158.371 8.57618 158.371 8.0261C158.371 7.47601 158.151 6.98095 157.766 6.59589C157.381 6.26584 156.886 6.04581 156.336 6.04581Z" fill="#F8003C"/>
<path d="M168.162 11.5467C166.347 11.5467 164.862 12.1517 163.762 13.3069L163.487 11.7117L160.516 12.8119V26.2338H163.872V18.9178C163.872 17.5425 164.202 16.4424 164.807 15.6723C165.467 14.9022 166.292 14.5171 167.392 14.5171C168.437 14.5171 169.208 14.8472 169.758 15.5072C170.308 16.1673 170.583 17.1575 170.583 18.4227V26.2338H173.993V18.2577C173.993 15.9473 173.443 14.2421 172.343 13.1419C171.298 12.0417 169.868 11.5467 168.162 11.5467Z" fill="#252525"/>
<path d="M189.065 14.7921C188.46 13.747 187.579 12.9219 186.534 12.3718C185.489 11.8217 184.224 11.5467 182.849 11.5467C181.474 11.5467 180.263 11.8767 179.163 12.4818C178.118 13.0869 177.238 13.967 176.688 15.1222C176.083 16.2224 175.808 17.5425 175.808 19.0278C175.808 20.513 176.138 21.7782 176.743 22.8783C177.348 23.9785 178.228 24.8586 179.328 25.4637C180.428 26.0688 181.749 26.3989 183.289 26.3989C184.994 26.3989 186.479 25.9038 187.634 24.9687C188.79 24.0335 189.505 22.8233 189.78 21.3381L189.835 21.1181H186.479L186.424 21.2831C186.259 21.9982 185.874 22.6033 185.269 22.9884C184.664 23.3734 183.949 23.5934 183.069 23.5934C181.969 23.5934 181.089 23.2634 180.428 22.6033C179.768 21.9432 179.383 21.0081 179.328 19.8529H189.89V19.6879C189.945 19.3028 190 18.9178 190 18.5327C190 17.0475 189.67 15.8373 189.065 14.7921ZM179.438 17.2125C179.548 16.3874 179.933 15.7273 180.538 15.1772C181.199 14.6271 182.024 14.3521 182.904 14.3521C183.894 14.3521 184.719 14.6271 185.379 15.1772C185.984 15.6723 186.369 16.3874 186.479 17.2125H179.438Z" fill="#252525"/>
<defs>
<linearGradient id="paint0_linear_1_623" x1="8.67118" y1="10.3028" x2="11.1139" y2="5.46336" gradientUnits="userSpaceOnUse">
<stop stop-color="#44A6FF"/>
<stop offset="1" stop-color="#1BC1FF"/>
</linearGradient>
<linearGradient id="paint1_linear_1_623" x1="11.167" y1="10.2086" x2="10.8213" y2="5.34619" gradientUnits="userSpaceOnUse">
<stop/>
<stop offset="0.1448" stop-color="#303030"/>
<stop offset="0.3812" stop-color="#797979"/>
<stop offset="0.5934" stop-color="#B2B2B2"/>
<stop offset="0.7737" stop-color="#DCDCDC"/>
<stop offset="0.9151" stop-color="#F6F6F6"/>
<stop offset="1" stop-color="white"/>
</linearGradient>
<linearGradient id="paint2_linear_1_623" x1="24.5843" y1="9.66802" x2="20.805" y2="4.36771" gradientUnits="userSpaceOnUse">
<stop stop-color="#47B2D4"/>
<stop offset="1" stop-color="#00D5C9"/>
</linearGradient>
<linearGradient id="paint3_linear_1_623" x1="24.0294" y1="10.2286" x2="20.469" y2="4.2485" gradientUnits="userSpaceOnUse">
<stop/>
<stop offset="0.1448" stop-color="#303030"/>
<stop offset="0.3812" stop-color="#797979"/>
<stop offset="0.5934" stop-color="#B2B2B2"/>
<stop offset="0.7737" stop-color="#DCDCDC"/>
<stop offset="0.9151" stop-color="#F6F6F6"/>
<stop offset="1" stop-color="white"/>
</linearGradient>
<linearGradient id="paint4_linear_1_623" x1="-0.0294991" y1="12.2341" x2="32.0415" y2="12.2341" gradientUnits="userSpaceOnUse">
<stop stop-color="#F8003C"/>
<stop offset="1" stop-color="#FF8438"/>
</linearGradient>
<linearGradient id="paint5_linear_1_623" x1="10.3297" y1="14.9072" x2="10.3297" y2="25.3508" gradientUnits="userSpaceOnUse">
<stop stop-color="#00D5C9"/>
<stop offset="1" stop-color="#0099AC"/>
</linearGradient>
<linearGradient id="paint6_linear_1_623" x1="31.1451" y1="26.3586" x2="26.0706" y2="21.7069" gradientUnits="userSpaceOnUse">
<stop stop-color="#F8003C"/>
<stop offset="1" stop-color="#FF8438"/>
</linearGradient>
</defs>
</svg>
