<svg width="22" height="20" viewBox="0 0 22 20" fill="none" xmlns="http://www.w3.org/2000/svg">
<path opacity="0.4" d="M17.5866 6.25664C17.984 6.2245 18.3863 6.30935 18.7353 6.50526C18.9862 6.64608 19.1735 6.83505 19.3088 6.99009C19.3836 7.07569 19.4846 7.20386 19.5582 7.2971C20.0142 7.85097 20.4804 8.4205 20.7541 8.8091C21.0368 9.2104 21.2509 9.5927 21.3693 10.0259C21.5439 10.6652 21.5439 11.3348 21.3693 11.9741C21.2062 12.5711 20.8778 13.0849 20.5502 13.5137C20.3518 13.7733 20.1113 14.052 19.8994 14.2975C19.7835 14.4318 19.6185 14.6265 19.5314 14.7323C19.2903 15.0265 19.0523 15.3168 18.7353 15.4947C18.3863 15.6906 17.984 15.7755 17.5866 15.7434C17.2289 15.7144 16.7381 15.4904 16.3752 15.3243C16.0191 15.1652 15.3475 14.8652 15.0917 14.1081C14.9987 13.8327 14.9994 13.5384 15.0001 13.2645V8.7355C14.9994 8.4616 14.9987 8.1672 15.0917 7.89191C15.3475 7.13482 16.0191 6.83478 16.3752 6.67566C16.7381 6.50958 17.2289 6.28557 17.5866 6.25664Z" fill="#2B58DE"/>
<path opacity="0.4" d="M3.91362 6.25664C3.51625 6.2245 3.11395 6.30935 2.76491 6.50526C2.51401 6.64608 2.32673 6.83505 2.19139 6.99009C2.11665 7.07569 2.01558 7.20386 1.94206 7.2971C1.48605 7.85097 1.01984 8.4205 0.74611 8.8091C0.46345 9.2104 0.24932 9.5927 0.13098 10.0259C-0.04366 10.6652 -0.04366 11.3348 0.13098 11.9741C0.29407 12.5711 0.6224 13.0849 0.95005 13.5137C1.14841 13.7733 1.38893 14.052 1.6008 14.2975C1.7167 14.4318 1.8817 14.6265 1.96887 14.7323C2.20992 15.0265 2.44791 15.3168 2.76491 15.4947C3.11395 15.6906 3.51625 15.7755 3.91362 15.7434C4.27132 15.7144 4.7621 15.4904 5.12501 15.3243C5.48116 15.1652 6.15271 14.8652 6.4085 14.1081C6.50152 13.8327 6.50079 13.5384 6.50011 13.2645V8.7355C6.50079 8.4616 6.50152 8.1672 6.4085 7.89191C6.15271 7.13482 5.48116 6.83478 5.12501 6.67566C4.7621 6.50958 4.27133 6.28557 3.91362 6.25664Z" fill="#2B58DE"/>
<path d="M16.75 15.4931V15.8018C16.75 16.8201 15.6266 18.0018 13.75 18.0018H11.75C11.1977 18.0018 10.75 18.4495 10.75 19.0018C10.75 19.554 11.1977 20.0018 11.75 20.0018H13.75C16.2917 20.0018 18.75 18.3181 18.75 15.8018V15.4883C18.7452 15.491 18.7404 15.4938 18.7355 15.4965C18.3865 15.6924 17.9842 15.7773 17.5868 15.7451C17.3423 15.7253 17.0356 15.6144 16.75 15.4931Z" fill="#2B58DE"/>
<path d="M4.77845 6.52053C5.0649 4.09481 7.49883 2 10.7502 2C14.0016 2 16.4356 4.09492 16.7219 6.52072C17.0154 6.39481 17.3344 6.27707 17.587 6.25664C17.9825 6.22465 18.3829 6.30855 18.7308 6.5025C18.4368 2.74945 14.8396 0 10.7502 0C6.66063 0 3.06338 2.74958 2.76953 6.50277C3.11754 6.30863 3.51811 6.22464 3.91379 6.25664C4.1663 6.27706 4.48511 6.39469 4.77845 6.52053Z" fill="#2B58DE"/>
</svg>
