<svg width="224" height="31" viewBox="0 0 224 31" fill="none" xmlns="http://www.w3.org/2000/svg">
<path d="M3.47764 12.0059C4.01449 12.0059 4.45374 12.3476 4.55135 12.8356C4.64896 13.4701 4.16091 14.0558 3.52644 14.0558H2.25751H2.11109C1.62304 14.0558 1.13499 14.3974 1.03738 14.8855C0.939767 15.5199 1.42782 16.0568 2.06229 16.0568H2.25751V22.1086C2.25751 23.524 3.38003 24.6465 4.79538 24.6465H8.21174C8.50457 24.6465 8.7974 24.7929 8.99262 24.9881L13.8731 30.1615C14.166 30.4543 14.6052 30.2591 14.6052 29.8687V25.4274C14.6052 24.9881 14.9469 24.6465 15.3861 24.6465H29.686C31.1014 24.6465 32.2239 23.524 32.2239 22.1086V9.90733H10.2128C8.69979 9.90733 7.47966 8.68722 7.47966 7.17425V5.56366H4.79538C3.38003 5.56366 2.25751 6.68618 2.25751 8.10154V9.32167C2.25751 9.6633 1.96468 9.90733 1.67184 9.90733H1.08618C0.59813 9.90733 0.110079 10.249 0.0124682 10.737C-0.0851422 11.3715 0.40291 11.9572 1.03738 11.9572L3.47764 12.0059Z" fill="url(#paint0_linear_1_675)"/>
<path d="M40.1792 8.5897H10.2129C9.48078 8.5897 8.84631 7.95524 8.84631 7.22316V1.36654C8.84631 0.634461 9.48078 0 10.2129 0H40.1792C40.9113 0 41.5458 0.634461 41.5458 1.36654V7.22316C41.5458 7.95524 40.9601 8.5897 40.1792 8.5897Z" fill="url(#paint1_linear_1_675)"/>
<path d="M13.7267 2.00092L14.41 3.41628L15.9717 3.6603L14.8492 4.78282L15.0932 6.34459L13.7267 5.56369L12.3114 6.34459L12.5554 4.78282L11.4329 3.6603L12.9946 3.41628L13.7267 2.00092Z" fill="white"/>
<path d="M19.4367 2.00092L20.1688 3.41628L21.7305 3.6603L20.608 4.78282L20.852 6.34459L19.4367 5.56369L18.0701 6.34459L18.3142 4.78282L17.1917 3.6603L18.7534 3.41628L19.4367 2.00092Z" fill="white"/>
<path d="M25.1963 2.00092L25.9284 3.41628L27.4902 3.6603L26.3677 4.78282L26.6117 6.34459L25.1963 5.56369L23.8298 6.34459L24.0738 4.78282L22.9513 3.6603L24.5131 3.41628L25.1963 2.00092Z" fill="white"/>
<path d="M30.9551 2.00092L31.6384 3.41628L33.249 3.6603L32.0776 4.78282L32.3705 6.34459L30.9551 5.56369L29.5398 6.34459L29.8326 4.78282L28.7101 3.6603L30.2718 3.41628L30.9551 2.00092Z" fill="white"/>
<path d="M36.7143 2.00092L37.3975 3.41628L38.9593 3.6603L37.8368 4.78282L38.1296 6.34459L36.7143 5.56369L35.2989 6.34459L35.5917 4.78282L34.4204 3.6603L36.031 3.41628L36.7143 2.00092Z" fill="white"/>
<path d="M25.1472 15.8129H9.87122C9.28556 15.8129 8.84631 15.3248 8.84631 14.788C8.84631 14.2023 9.33437 13.7631 9.87122 13.7631H25.0984C25.6841 13.7631 26.1233 14.2511 26.1233 14.788C26.1722 15.3248 25.7329 15.8129 25.1472 15.8129Z" fill="white"/>
<path d="M18.9978 20.9861H9.87122C9.28556 20.9861 8.84631 20.498 8.84631 19.9612C8.84631 19.3755 9.33437 18.9363 9.87122 18.9363H18.9978C19.5835 18.9363 20.0227 19.4243 20.0227 19.9612C20.0715 20.498 19.5835 20.9861 18.9978 20.9861Z" fill="white"/>
<path d="M59.917 16.9843C59.917 18.546 59.6241 19.7662 58.9897 20.547C58.3552 21.3279 57.3791 21.7184 56.1102 21.7184C54.8412 21.7184 53.8651 21.3279 53.2307 20.547C52.5962 19.7662 52.3034 18.5948 52.3034 16.9843V6.93042H49.2286V16.8379C49.2286 19.2781 49.8143 21.1815 50.9856 22.4993C52.157 23.7682 53.8651 24.4515 56.0614 24.4515C58.3064 24.4515 60.0146 23.817 61.1859 22.4993C62.3572 21.2303 62.9429 19.3269 62.9429 16.8379V6.93042H59.8682V16.9843H59.917Z" fill="#252525"/>
<path d="M68.3606 6.93042H65.4811V24.2563H68.3606V6.93042Z" fill="#252525"/>
<path d="M73.8754 21.4255C73.6801 21.2302 73.6313 20.9374 73.6313 20.4494V14.0559H75.6811L76.6573 11.518H73.6313V6.88153L70.7518 7.85763V20.7422C70.7518 21.9135 71.0447 22.792 71.5815 23.3777C72.1184 23.9633 73.0457 24.2562 74.2658 24.2562H76.9501V21.7183H74.8027C74.3634 21.7183 74.0218 21.6207 73.8754 21.4255Z" fill="#252525"/>
<path d="M79.537 6.54004C79.049 6.54004 78.6585 6.68645 78.3169 7.02809C77.9753 7.36973 77.8289 7.76017 77.8289 8.24822C77.8289 8.73627 77.9753 9.12671 78.3169 9.46835C78.6585 9.80999 79.049 9.9564 79.537 9.9564C80.0251 9.9564 80.4155 9.80999 80.7572 9.46835C81.0988 9.12671 81.2452 8.73627 81.2452 8.24822C81.2452 7.76017 81.0988 7.36973 80.7572 7.02809C80.4155 6.68645 80.0251 6.54004 79.537 6.54004Z" fill="#252525"/>
<path d="M80.9525 11.5181H78.073V24.2562H80.9525V11.5181Z" fill="#252525"/>
<path d="M97.8391 11.3718C96.8142 11.3718 95.9357 11.567 95.2036 12.0062C94.5204 12.3967 93.9835 12.8847 93.5443 13.5192C93.2026 12.8359 92.6658 12.2991 92.0313 11.9574C91.348 11.567 90.5671 11.3718 89.6398 11.3718C88.1757 11.3718 86.9556 11.9086 86.0771 12.9823L85.833 11.5182L83.2952 12.4943V24.2563H86.1747V17.4236C86.1747 16.3499 86.4187 15.4714 86.9556 14.8369C87.4924 14.2025 88.1269 13.8608 89.0054 13.8608C89.8351 13.8608 90.4695 14.1049 90.86 14.6417C91.2992 15.1786 91.4944 16.0083 91.4944 17.082V24.2563H94.4228V17.3748C94.4228 16.3011 94.6668 15.4226 95.2036 14.7881C95.6917 14.2025 96.4238 13.8608 97.2534 13.8608C98.0831 13.8608 98.6688 14.1048 99.1081 14.6905C99.5473 15.2274 99.7425 16.0571 99.7425 17.082V24.2563H102.622V17.082C102.622 15.1298 102.183 13.6656 101.304 12.7383C100.426 11.8598 99.2545 11.3718 97.8391 11.3718Z" fill="#252525"/>
<path d="M115.604 20.9864V16.0571C115.604 14.5441 115.116 13.4216 114.188 12.5919C113.261 11.811 111.943 11.3718 110.235 11.3718C108.624 11.3718 107.307 11.7134 106.331 12.4455C105.306 13.1776 104.769 14.1537 104.622 15.4714V15.6178H107.453V15.5202C107.551 14.9833 107.844 14.5929 108.283 14.2513C108.771 13.9096 109.357 13.7632 110.089 13.7632C110.918 13.7632 111.553 13.9584 112.041 14.3489C112.48 14.7393 112.724 15.2274 112.724 15.9106V16.5451H109.747C107.99 16.5451 106.623 16.8867 105.696 17.6188C104.769 18.3509 104.281 19.3758 104.281 20.6935C104.281 21.8649 104.72 22.7922 105.599 23.4754C106.477 24.1587 107.6 24.5004 109.064 24.5004C110.772 24.5004 112.138 23.8659 113.066 22.597C113.115 23.085 113.31 23.5243 113.603 23.8171C113.993 24.1587 114.579 24.3539 115.457 24.3539H116.97V21.8161H116.336C115.848 21.7185 115.604 21.5232 115.604 20.9864ZM109.405 22.1089C108.722 22.1089 108.185 21.9625 107.795 21.6696C107.404 21.3768 107.209 20.9864 107.209 20.4495C107.209 19.8639 107.404 19.4246 107.795 19.1318C108.234 18.839 108.82 18.6925 109.601 18.6925H112.773V18.9854C112.773 19.9127 112.431 20.6936 111.894 21.2304C111.309 21.8649 110.479 22.1089 109.405 22.1089Z" fill="#252525"/>
<path d="M122.144 21.4254C121.948 21.2302 121.9 20.9373 121.9 20.4493V14.0558H124.925V11.5179H121.9V6.83264L118.971 7.80875V11.5179H117.751L116.775 14.0558H118.971V20.7421C118.971 21.9134 119.264 22.7919 119.801 23.3776C120.387 23.9632 121.265 24.2561 122.485 24.2561H124.193L125.17 21.7182H123.022C122.632 21.7182 122.29 21.6206 122.144 21.4254Z" fill="#252525"/>
<path d="M135.028 12.1524C134.101 11.6643 133.027 11.4203 131.807 11.4203C130.587 11.4203 129.513 11.7131 128.586 12.25C127.659 12.7868 126.927 13.5677 126.39 14.5438C125.853 15.5199 125.609 16.6913 125.609 17.9602C125.609 19.2291 125.902 20.4005 126.439 21.3766C126.976 22.3527 127.756 23.1335 128.733 23.6704C129.709 24.2073 130.88 24.5001 132.198 24.5001C133.711 24.5001 134.98 24.0608 136.005 23.2311C137.029 22.4015 137.664 21.3278 137.908 20.01L137.957 19.8636H135.077V19.9612C134.931 20.6445 134.54 21.1325 134.052 21.523C133.515 21.9134 132.832 22.0598 132.051 22.0598C131.075 22.0598 130.245 21.767 129.66 21.1325C129.074 20.5469 128.733 19.6684 128.684 18.6435H138.103V18.5459C138.152 18.2042 138.201 17.8626 138.201 17.5209C138.201 16.3008 137.908 15.2271 137.371 14.2998C136.737 13.3725 136.005 12.6404 135.028 12.1524ZM128.733 16.3984C128.83 15.6175 129.172 14.9831 129.757 14.495C130.343 14.007 131.075 13.7141 131.905 13.7141C132.783 13.7141 133.564 13.9582 134.15 14.4462C134.687 14.9343 135.028 15.5687 135.175 16.3496H128.733V16.3984Z" fill="#252525"/>
<path d="M158.503 15.5689C159.138 14.6904 159.431 13.6655 159.431 12.4942C159.431 11.3717 159.187 10.3956 158.65 9.56588C158.162 8.73619 157.43 8.05292 156.502 7.61367C155.575 7.17443 154.501 6.93042 153.33 6.93042H146.449V24.2563H149.475V18.058H153.086L156.356 24.2563H159.772L156.112 17.3747C157.137 17.0331 157.918 16.4474 158.503 15.5689ZM149.523 9.6147H153.086C154.062 9.6147 154.843 9.85872 155.429 10.3956C156.014 10.9324 156.258 11.6157 156.258 12.4942C156.258 13.3727 155.966 14.056 155.429 14.5928C154.843 15.1297 154.062 15.3737 153.086 15.3737H149.523V9.6147Z" fill="#252525"/>
<path d="M169.875 12.1524C168.948 11.6643 167.874 11.4203 166.654 11.4203C165.434 11.4203 164.36 11.7131 163.433 12.25C162.506 12.7868 161.773 13.5677 161.237 14.5438C160.7 15.5199 160.456 16.6913 160.456 17.9602C160.456 19.2291 160.749 20.4005 161.285 21.3766C161.822 22.3527 162.603 23.1335 163.579 23.6704C164.555 24.2073 165.727 24.5001 167.044 24.5001C168.557 24.5001 169.826 24.0608 170.851 23.2311C171.876 22.4015 172.511 21.3278 172.755 20.01L172.803 19.8636H169.924V19.9612C169.777 20.6445 169.387 21.1325 168.899 21.523C168.362 21.9134 167.679 22.0598 166.898 22.0598C165.922 22.0598 165.092 21.767 164.507 21.1325C163.921 20.4981 163.579 19.6684 163.53 18.6435H172.95V18.5459C172.999 18.2042 173.047 17.8626 173.047 17.5209C173.047 16.3008 172.755 15.2271 172.218 14.2998C171.534 13.3725 170.802 12.6404 169.875 12.1524ZM163.53 16.3984C163.628 15.6175 163.97 14.9831 164.555 14.495C165.141 14.007 165.873 13.7141 166.703 13.7141C167.581 13.7141 168.362 13.9582 168.948 14.4462C169.485 14.9343 169.826 15.5687 169.973 16.3496H163.53V16.3984Z" fill="#252525"/>
<path d="M179.441 20.9375L176.122 11.6157V11.5181H172.999L177.684 24.2074L177.733 24.2562H181.101L185.835 11.5181H182.76L179.441 20.9375Z" fill="#252525"/>
<path d="M189.739 11.7622H186.859V24.2563H189.739V11.7622Z" fill="#252525"/>
<path d="M188.275 6.83264C187.787 6.83264 187.396 6.97906 187.054 7.32069C186.713 7.66233 186.566 8.05277 186.566 8.54082C186.566 9.02887 186.713 9.41932 187.054 9.76095C187.396 10.1026 187.787 10.249 188.275 10.249C188.763 10.249 189.153 10.1026 189.495 9.76095C189.836 9.41932 189.983 9.02887 189.983 8.54082C189.983 8.05277 189.836 7.66233 189.495 7.32069C189.202 6.97906 188.763 6.83264 188.275 6.83264Z" fill="#252525"/>
<path d="M201.062 12.1524C200.134 11.6643 199.061 11.4203 197.84 11.4203C196.62 11.4203 195.547 11.7131 194.619 12.25C193.692 12.7868 192.96 13.5677 192.423 14.5438C191.886 15.5199 191.642 16.6913 191.642 17.9602C191.642 19.2291 191.935 20.4005 192.472 21.3766C193.009 22.3527 193.79 23.1335 194.766 23.6704C195.742 24.2073 196.913 24.5001 198.231 24.5001C199.744 24.5001 201.013 24.0608 202.038 23.2311C203.063 22.4015 203.697 21.3278 203.941 20.01L203.99 19.8636H201.11V19.9612C200.964 20.6445 200.574 21.1325 200.037 21.523C199.5 21.9134 198.865 22.0598 198.036 22.0598C197.06 22.0598 196.23 21.767 195.644 21.1325C195.059 20.5469 194.717 19.6684 194.668 18.6435H204.088V18.5459C204.136 18.2042 204.185 17.8626 204.185 17.5209C204.185 16.3008 203.892 15.2271 203.355 14.2998C202.721 13.3725 201.989 12.6404 201.062 12.1524ZM194.717 16.3984C194.815 15.6175 195.156 14.9831 195.742 14.495C196.328 14.007 197.06 13.7141 197.889 13.7141C198.768 13.7141 199.549 13.9582 200.134 14.4462C200.671 14.9343 201.013 15.5687 201.159 16.3496H194.717V16.3984Z" fill="#252525"/>
<path d="M221.072 11.5181L218.192 20.791L215.557 11.5181H212.97L210.188 20.791L207.455 11.6157L207.406 11.5181H204.38L208.529 24.2074V24.305L211.555 24.2562L214.19 16.0569L216.728 24.2074L216.777 24.2562H219.754L224 11.5181H221.072Z" fill="#252525"/>
<defs>
<linearGradient id="paint0_linear_1_675" x1="2.35395" y1="7.18609" x2="23.4526" y2="20.7108" gradientUnits="userSpaceOnUse">
<stop stop-color="#F8003C"/>
<stop offset="1" stop-color="#FF8438"/>
</linearGradient>
<linearGradient id="paint1_linear_1_675" x1="8.85305" y1="4.30095" x2="41.5633" y2="4.30095" gradientUnits="userSpaceOnUse">
<stop stop-color="#00D5C9"/>
<stop offset="0.8355" stop-color="#0099AC"/>
</linearGradient>
</defs>
</svg>
