<svg xmlns="http://www.w3.org/2000/svg" viewBox="0 0 86 63" fill="none">
<path d="M6.92555 25.5008C8.02555 25.5008 8.92555 26.2008 9.12555 27.2008C9.32555 28.5008 8.32555 29.7008 7.02555 29.7008H4.42555H4.22555C3.22555 29.7008 2.22555 30.4008 2.02555 31.4008C1.82555 32.7008 2.82555 33.8008 4.12555 33.8008H4.52555V46.2008C4.52555 49.1008 6.82555 51.4008 9.72555 51.4008H16.7255C17.3255 51.4008 17.9255 51.7008 18.3255 52.1008L28.3255 62.7008C28.9255 63.3008 29.8255 62.9008 29.8255 62.1008V53.0008C29.8255 52.1008 30.5255 51.4008 31.4255 51.4008H60.7255C63.6255 51.4008 65.9255 49.1008 65.9255 46.2008V21.2008H20.8255C17.7255 21.2008 15.2255 18.7008 15.2255 15.6008V12.3008H9.72555C6.82555 12.3008 4.52555 14.6008 4.52555 17.5008V20.0008C4.52555 20.7008 3.92555 21.2008 3.32555 21.2008H2.22555C1.22555 21.2008 0.225547 21.9008 0.0255468 22.9008C-0.174453 24.2008 0.825549 25.4008 2.12555 25.4008H6.92555V25.5008Z" fill="url(#paint0_linear_5931_4210)"/>
<path d="M82.2256 18.5004H20.8256C19.3256 18.5004 18.0256 17.2004 18.0256 15.7004V3.70038C18.0256 2.20038 19.3256 0.900391 20.8256 0.900391H82.2256C83.7256 0.900391 85.0256 2.20038 85.0256 3.70038V15.7004C85.0256 17.3004 83.7256 18.5004 82.2256 18.5004Z" fill="url(#paint1_linear_5931_4210)"/>
<path d="M27.9254 5L29.4254 7.90002L32.6254 8.40002L30.2254 10.7L30.8254 13.9L27.9254 12.4L25.0254 13.9L25.6254 10.7L23.3254 8.40002L26.5254 7.90002L27.9254 5Z" fill="white"/>
<path d="M39.7254 5L41.1255 7.90002L44.4254 8.40002L42.0255 10.7L42.6255 13.9L39.7254 12.4L36.8254 13.9L37.4254 10.7L35.0255 8.40002L38.3254 7.90002L39.7254 5Z" fill="white"/>
<path d="M51.5254 5L52.9254 7.90002L56.1254 8.40002L53.8254 10.7L54.4254 13.9L51.5254 12.4L48.6254 13.9L49.2254 10.7L46.8254 8.40002L50.0254 7.90002L51.5254 5Z" fill="white"/>
<path d="M63.3254 5L64.7254 7.90002L67.9254 8.40002L65.6254 10.7L66.1254 13.9L63.3254 12.4L60.4254 13.9L60.9254 10.7L58.6254 8.40002L61.8254 7.90002L63.3254 5Z" fill="white"/>
<path d="M75.1255 5L76.5255 7.90002L79.7254 8.40002L77.4254 10.7L77.9254 13.9L75.1255 12.4L72.2254 13.9L72.7254 10.7L70.4254 8.40002L73.6255 7.90002L75.1255 5Z" fill="white"/>
<path d="M51.3256 33.3006H20.1256C18.9256 33.3006 18.0256 32.3006 18.0256 31.2006C18.0256 30.0006 19.0256 29.1006 20.1256 29.1006H51.3256C52.5256 29.1006 53.4256 30.1006 53.4256 31.2006C53.5256 32.3006 52.5256 33.3006 51.3256 33.3006Z" fill="white"/>
<path d="M38.8256 43.9002H20.1256C18.9256 43.9002 18.0256 42.9002 18.0256 41.8002C18.0256 40.6002 19.0256 39.7002 20.1256 39.7002H38.8256C40.0256 39.7002 40.9256 40.7002 40.9256 41.8002C40.9256 42.9002 40.0256 43.9002 38.8256 43.9002Z" fill="white"/>
<defs>
<linearGradient id="paint0_linear_5931_4210" x1="4.68495" y1="15.6459" x2="47.9153" y2="43.3577" gradientUnits="userSpaceOnUse">
<stop stop-color="#F8003C"/>
<stop offset="1" stop-color="#FF8438"/>
</linearGradient>
<linearGradient id="paint1_linear_5931_4210" x1="18.0012" y1="9.73358" x2="85.0232" y2="9.73358" gradientUnits="userSpaceOnUse">
<stop stop-color="#00D5C9"/>
<stop offset="0.8355" stop-color="#0099AC"/>
</linearGradient>
</defs>
</svg>