<svg width="220" height="32" viewBox="0 0 220 32" fill="none" xmlns="http://www.w3.org/2000/svg">
<path d="M55.2627 20.1455L51.4822 6.6806H48.4267L44.4908 20.1972L40.7621 6.78419V6.6806L37.3441 6.73239L42.6265 24.5992H46.3034L49.825 12.1183L53.4501 24.5992H57.1271L62.3577 6.88775L62.4095 6.6806H59.095L55.2627 20.1455Z" fill="#252525"/>
<path d="M74.8385 7.45739C73.8546 6.9913 72.767 6.73236 71.4723 6.73236H64.1702V24.5992H67.4329V18.54H71.4723C72.7152 18.54 73.8546 18.2811 74.8385 17.815C75.8225 17.3489 76.5475 16.6238 77.1172 15.7435C77.6351 14.8631 77.894 13.8273 77.894 12.6362C77.894 11.4451 77.6351 10.4093 77.1172 9.5289C76.5993 8.59672 75.8225 7.92348 74.8385 7.45739ZM67.4846 9.5289H71.317C72.3527 9.5289 73.1813 9.78785 73.751 10.3575C74.3207 10.8754 74.6314 11.6522 74.6314 12.5844C74.6314 13.5166 74.3207 14.2416 73.751 14.8113C73.1295 15.3809 72.3009 15.6399 71.2652 15.6399H67.4846V9.5289Z" fill="#252525"/>
<path d="M86.5427 24.5992H89.8053V17.1935H96.9002V14.3451H89.8053V9.58067H98.4021V6.68054H86.5427V24.5992Z" fill="#252525"/>
<path d="M108.604 17.7633C108.604 19.1098 108.293 20.1455 107.724 20.9223C107.154 21.6992 106.377 22.0617 105.29 22.0617C104.306 22.0617 103.581 21.7509 103.063 21.0777C102.545 20.4562 102.338 19.4723 102.338 18.2294V11.0826H99.2823V18.5401C99.2823 20.7152 99.8002 22.3206 100.784 23.3046C101.768 24.2886 103.063 24.8064 104.668 24.8064C106.325 24.8064 107.672 24.2368 108.708 23.1492L108.967 24.6511H111.66V11.1344H108.604V17.7633Z" fill="#252525"/>
<path d="M121.24 10.8754C119.48 10.8754 118.081 11.445 117.097 12.5844L116.838 11.0307L114.146 12.0665V24.5474H117.201V17.7114C117.201 16.4167 117.512 15.3809 118.133 14.6041C118.755 13.8791 119.583 13.5166 120.619 13.5166C121.603 13.5166 122.38 13.8273 122.898 14.4487C123.416 15.0702 123.674 16.0024 123.674 17.2453V24.5474H126.782V17.0899C126.782 14.9148 126.264 13.3094 125.228 12.3254C124.192 11.3932 122.846 10.8754 121.24 10.8754Z" fill="#252525"/>
<path d="M139.055 12.6361C138.641 12.1183 138.123 11.7558 137.502 11.445C136.777 11.0825 135.896 10.9272 134.912 10.9272C133.721 10.9272 132.582 11.2379 131.65 11.8075C130.666 12.3772 129.889 13.2058 129.371 14.2416C128.801 15.2773 128.543 16.5202 128.543 17.8667C128.543 19.265 128.801 20.5079 129.371 21.5437C129.941 22.5794 130.666 23.408 131.65 23.9777C132.634 24.5474 133.721 24.8063 134.964 24.8063C136.725 24.8063 138.175 24.1331 139.211 22.8384L139.522 24.6509H142.215V6.68054L139.159 7.7163V12.6361H139.055ZM135.379 22.1133C134.291 22.1133 133.359 21.699 132.686 20.9222C132.012 20.1454 131.65 19.0578 131.65 17.8149C131.65 16.572 132.012 15.5363 132.686 14.7077C133.359 13.9308 134.291 13.5165 135.379 13.5165C136.466 13.5165 137.398 13.9308 138.072 14.7077C138.745 15.4845 139.107 16.572 139.107 17.8667C139.107 19.1096 138.745 20.1454 138.072 20.9222C137.398 21.699 136.466 22.1133 135.379 22.1133Z" fill="#252525"/>
<path d="M148.947 11.6004C148.429 11.9112 147.963 12.3255 147.6 12.8433L147.342 11.0826L144.597 12.1183V24.5992H147.652V17.815C147.652 16.6756 147.911 15.7435 148.429 15.0184C148.895 14.2934 149.724 13.9309 150.811 13.9309H152.21V11.0308H151.433C150.397 11.0308 149.568 11.2379 148.947 11.6004Z" fill="#252525"/>
<path d="M164.742 21.0776V15.847C164.742 14.2416 164.224 13.0505 163.241 12.1701C162.257 11.3415 160.858 10.8754 159.046 10.8754C157.337 10.8754 155.938 11.2379 154.903 12.0147C153.815 12.7915 153.245 13.8273 153.09 15.2255V15.3809H156.094V15.2773C156.197 14.7077 156.508 14.2934 156.974 13.9308C157.492 13.5683 158.114 13.413 158.89 13.413C159.771 13.413 160.444 13.6201 160.962 14.0344C161.428 14.4487 161.687 14.9666 161.687 15.6916V16.3649H158.476C156.612 16.3649 155.162 16.7274 154.178 17.5042C153.194 18.281 152.676 19.3686 152.676 20.7669C152.676 22.0098 153.142 22.9937 154.074 23.7188C155.006 24.4438 156.197 24.8063 157.751 24.8063C159.564 24.8063 161.014 24.1331 161.998 22.7866C162.049 23.3045 162.257 23.7706 162.567 24.0813C162.982 24.4438 163.603 24.6509 164.535 24.6509H166.141V21.958H165.467C164.95 21.9062 164.742 21.6472 164.742 21.0776ZM158.114 22.3205C157.388 22.3205 156.819 22.1651 156.404 21.8544C155.99 21.5437 155.783 21.1294 155.783 20.5597C155.783 19.9382 155.99 19.4722 156.404 19.1614C156.871 18.8507 157.492 18.6953 158.321 18.6953H161.687V19.0061C161.687 19.99 161.324 20.8186 160.755 21.3883C160.133 22.0098 159.253 22.3205 158.114 22.3205Z" fill="#252525"/>
<path d="M170.491 11.5487H167.435V24.5475H170.491V11.5487Z" fill="#252525"/>
<path d="M168.937 6.78418C168.419 6.78418 168.005 6.93954 167.642 7.30206C167.28 7.66457 167.125 8.07888 167.125 8.59676C167.125 9.11463 167.28 9.52894 167.642 9.89145C168.005 10.254 168.419 10.4093 168.937 10.4093C169.455 10.4093 169.869 10.254 170.232 9.89145C170.594 9.52894 170.75 9.11463 170.75 8.59676C170.75 8.07888 170.594 7.66457 170.232 7.30206C169.921 6.93954 169.455 6.78418 168.937 6.78418Z" fill="#252525"/>
<path d="M181.677 16.9345C180.9 16.6756 179.916 16.4685 178.777 16.3649C177.948 16.2613 177.327 16.1577 176.964 16.1059C176.602 16.0542 176.291 15.8988 176.084 15.6916C175.877 15.5363 175.773 15.2773 175.773 14.9148C175.773 14.4487 175.98 14.0344 176.446 13.7755C176.912 13.4648 177.586 13.3094 178.363 13.3094C179.139 13.3094 179.813 13.5165 180.33 13.8791C180.848 14.2416 181.107 14.7077 181.159 15.2773V15.3809H184.111V15.2255C184.007 13.8273 183.438 12.7397 182.35 12.0147C181.314 11.2379 179.916 10.8754 178.207 10.8754C177.171 10.8754 176.239 11.0307 175.411 11.3932C174.582 11.7558 173.961 12.2736 173.443 12.8951C172.977 13.5683 172.718 14.2934 172.718 15.122C172.718 16.0024 172.977 16.7274 173.443 17.2453C173.909 17.7631 174.53 18.1775 175.307 18.3846C176.084 18.6435 177.016 18.7989 178.207 18.9543C179.036 19.0579 179.657 19.1614 180.072 19.265C180.434 19.3686 180.745 19.5239 181.004 19.7311C181.211 19.9382 181.314 20.249 181.314 20.6633C181.314 21.1294 181.056 21.5437 180.589 21.8544C180.072 22.1651 179.398 22.3205 178.621 22.3205C177.689 22.3205 176.964 22.1133 176.395 21.699C175.825 21.2847 175.514 20.7668 175.462 20.0936V19.99H172.51V20.1454C172.562 21.5955 173.132 22.7348 174.271 23.5634C175.411 24.392 176.861 24.8063 178.673 24.8063C179.761 24.8063 180.693 24.6509 181.573 24.2884C182.454 23.9259 183.127 23.4598 183.645 22.7866C184.163 22.1133 184.422 21.3883 184.422 20.5079C184.422 19.5239 184.163 18.7989 183.697 18.2292C183.127 17.6078 182.454 17.1935 181.677 16.9345Z" fill="#252525"/>
<path d="M187.892 6.78418C187.374 6.78418 186.959 6.93954 186.597 7.30206C186.234 7.66457 186.079 8.07888 186.079 8.59676C186.079 9.11463 186.234 9.52894 186.597 9.89145C186.959 10.254 187.374 10.4093 187.892 10.4093C188.409 10.4093 188.824 10.254 189.186 9.89145C189.549 9.52894 189.704 9.11463 189.704 8.59676C189.704 8.07888 189.549 7.66457 189.186 7.30206C188.824 6.93954 188.409 6.78418 187.892 6.78418Z" fill="#252525"/>
<path d="M189.393 11.5487H186.338V24.5475H189.393V11.5487Z" fill="#252525"/>
<path d="M199.026 10.8754C197.265 10.8754 195.867 11.445 194.883 12.5844L194.624 11.0307L191.931 12.0665V24.5474H194.986V17.7114C194.986 16.4167 195.297 15.3809 195.919 14.6041C196.54 13.8791 197.369 13.5166 198.404 13.5166C199.388 13.5166 200.165 13.8273 200.683 14.4487C201.201 15.0702 201.46 16.0024 201.46 17.2453V24.5474H204.515V17.0899C204.515 14.9148 203.997 13.3094 202.962 12.3254C201.926 11.3932 200.631 10.8754 199.026 10.8754Z" fill="#252525"/>
<path d="M217.203 11.0307L216.944 12.8951C216.53 12.3254 215.961 11.8593 215.339 11.4968C214.614 11.0825 213.682 10.8754 212.698 10.8754C211.507 10.8754 210.367 11.1861 209.435 11.7558C208.451 12.3254 207.674 13.154 207.157 14.1898C206.587 15.2255 206.328 16.4167 206.328 17.7631C206.328 19.1614 206.587 20.4043 207.157 21.3883C207.726 22.4241 208.451 23.2009 209.435 23.7705C210.419 24.3402 211.507 24.5992 212.75 24.5992C214.562 24.5992 215.96 23.9777 216.944 22.683V23.7705C216.944 26.1528 215.753 27.3439 213.268 27.3439C212.335 27.3439 211.507 27.1368 210.937 26.7742C210.367 26.4117 209.953 25.8421 209.798 25.117V25.0135H206.69V25.1688C206.794 26.6707 207.467 27.8618 208.607 28.6904C209.746 29.519 211.248 29.9333 213.06 29.9333C215.391 29.9333 217.152 29.4154 218.291 28.3797C219.43 27.3439 220 25.8421 220 23.9259V11.0825H217.203V11.0307ZM213.112 22.0098C212.025 22.0098 211.092 21.5954 210.419 20.8186C209.746 20.0418 209.383 19.0061 209.383 17.7631C209.383 16.5202 209.746 15.4845 210.419 14.7077C211.092 13.9308 212.025 13.5166 213.112 13.5166C214.2 13.5166 215.132 13.9308 215.805 14.7077C216.478 15.4845 216.841 16.572 216.841 17.8149C216.841 19.0578 216.478 20.0936 215.805 20.8704C215.132 21.5955 214.251 22.0098 213.112 22.0098Z" fill="#252525"/>
<path d="M30.3187 12.8951C27.7293 8.70024 24.5184 8.33772 23.1719 8.13057C19.4432 7.71627 16.4913 10.1503 16.1806 10.461L15.9216 10.6682C15.9216 10.6682 15.5073 11.0825 14.5751 12.1182C14.3162 12.429 12.2447 14.9666 11.5197 15.8988C10.8982 16.7791 9.44815 18.9025 9.29278 19.1096C9.18921 19.265 9.03384 19.6275 9.13742 19.7311C9.29278 19.8864 9.49993 19.7828 9.86245 19.5239C10.1214 19.3168 10.8982 18.5399 11.0536 18.3846C11.2089 18.2292 11.5197 18.0738 11.6232 18.2292C11.7268 18.3846 11.5715 18.6435 11.3125 18.9543C11.1054 19.2132 10.1214 20.4043 9.91424 20.6115C9.70709 20.8186 9.29278 21.4918 9.39636 21.6472C9.55172 21.8544 9.81066 21.699 10.1732 21.4401C10.4839 21.2329 11.9858 19.6793 12.1411 19.5239C12.2447 19.3685 12.4518 19.265 12.5036 19.3168C12.5554 19.3685 12.5036 19.4721 12.4518 19.5757C12.4001 19.6275 12.2965 19.8346 11.8304 20.5079C11.6232 20.7668 10.5875 22.3722 10.4321 22.683C10.225 22.9419 10.1214 23.5634 10.2768 23.6152C10.5357 23.7705 10.7946 23.408 11.1571 22.9937C11.4161 22.7348 12.7626 20.8704 12.9697 20.6115C13.1769 20.3525 13.4876 19.9382 13.5912 19.99C13.7465 20.0418 13.5394 20.4043 13.2805 20.9222C13.1769 21.1293 12.4001 22.5794 12.2447 22.9937C12.0375 23.408 12.0893 23.8741 12.2447 23.9259C12.7108 23.9777 13.0733 23.3044 13.2805 22.9937C13.4358 22.683 14.1608 21.3883 14.4198 20.9222C14.6787 20.5079 14.9377 20.4043 15.0412 20.4561C15.1966 20.5079 15.1448 20.7668 15.093 20.974C15.0412 21.1811 14.6269 22.3723 14.4716 22.8383C14.3162 23.3044 14.4716 23.6669 14.6269 23.7187C15.0412 23.8741 15.1966 23.6152 15.4038 23.2008C15.5591 22.7865 16.5949 20.7668 17.2163 19.3168C17.786 18.0221 19.495 15.0184 19.9611 14.3451C20.4272 13.6719 20.6861 13.7237 20.8415 13.7755C20.9968 13.8273 20.9968 14.138 20.8933 14.4487C20.8415 14.5523 20.5308 15.2773 20.4272 15.5362C20.3236 15.7952 20.2718 16.1059 20.3754 16.1577C20.5825 16.2095 20.7379 15.9505 20.8415 15.7434C20.9451 15.588 21.6183 14.1898 21.8772 13.8272C22.0326 13.5165 22.3433 13.2058 22.4987 13.3094C22.6541 13.4129 22.5505 13.7755 22.3951 14.2933C22.2398 14.7594 21.8255 15.6398 21.7219 16.0023C21.6183 16.3131 21.5665 16.6238 21.6183 16.6756C21.7737 16.7274 21.8772 16.5202 22.1362 16.0541C22.2915 15.7952 22.9648 14.4487 23.1719 13.9826C23.4309 13.5683 23.7416 13.4647 23.8452 13.5165C23.9488 13.6201 23.897 14.0862 23.7934 14.3969C23.6898 14.6041 23.2755 15.7434 23.0684 16.3649C22.913 16.7274 22.8094 17.2452 22.913 17.297C23.1201 17.3488 23.2237 17.0899 23.4309 16.7792C23.5862 16.572 24.1559 15.3291 24.4148 14.9148C24.6738 14.5005 24.9327 14.4487 25.0363 14.6041C25.1399 14.7594 25.0881 15.1219 24.8809 15.6398C24.7256 15.9505 23.8452 17.9185 23.638 18.3846C23.4309 18.7989 23.5345 19.0578 23.5862 19.1096C23.7934 19.1096 24.0005 18.9542 24.1559 18.7989C24.3113 18.6435 24.7774 17.9703 25.1399 17.5042C25.4506 17.0381 25.7095 16.9863 25.8649 17.0381C26.0203 17.0899 26.1238 17.4006 25.9685 17.9703C25.347 19.4721 24.6738 20.5079 23.0684 22.5794C20.5308 25.6867 18.6664 26.6189 16.9574 27.6028C14.5751 28.9493 11.0536 28.9493 9.49993 28.8457C9.34457 28.8457 9.13742 28.794 8.98206 28.794C12.0375 31.8494 16.0252 31.3833 17.4235 31.2798C22.8612 30.5029 26.0721 27.3957 27.1596 26.4635C30.8883 22.7348 31.1991 20.3007 31.6134 18.6435C31.8205 16.0541 31.0437 14.4487 30.3187 12.8951Z" fill="url(#paint0_linear_1_760)"/>
<path d="M7.68739 28.3798C8.20527 28.5869 8.72315 28.6905 9.24103 28.6905C10.7947 28.7941 14.3162 28.7941 16.6985 27.4476C18.4075 26.4636 20.2719 25.5832 22.8095 22.4242C24.4149 20.3527 25.0881 19.3169 25.7096 17.8151C25.8649 17.2972 25.7614 16.9347 25.606 16.8829C25.4506 16.8311 25.1917 16.8829 24.881 17.349C24.5185 17.8668 24.0524 18.4883 23.897 18.6437C23.7416 18.799 23.5345 19.0062 23.3273 18.9544C23.2755 18.9544 23.172 18.6954 23.3791 18.2293C23.5863 17.7633 24.4667 15.7953 24.622 15.4846C24.7774 14.9667 24.881 14.6042 24.7774 14.4488C24.6738 14.2935 24.4149 14.3971 24.1559 14.7596C23.897 15.1739 23.2755 16.4168 23.172 16.6239C22.9648 16.9347 22.913 17.1418 22.6541 17.1418C22.5505 17.09 22.6541 16.5721 22.8095 16.2096C23.0684 15.5882 23.4827 14.4488 23.5345 14.2417C23.6381 13.9828 23.6899 13.4649 23.5863 13.3613C23.4827 13.2577 23.172 13.3613 22.913 13.8274C22.6541 14.2417 22.0326 15.64 21.8773 15.8989C21.5665 16.365 21.5148 16.5721 21.3594 16.5204C21.3076 16.5204 21.3594 16.1578 21.463 15.8471C21.5665 15.4846 21.9809 14.6042 22.1362 14.1381C22.2916 13.6202 22.3952 13.2577 22.2398 13.1541C22.0844 13.0506 21.7737 13.3613 21.6183 13.672C21.4112 14.0345 20.6862 15.4846 20.5826 15.5882C20.479 15.7953 20.3236 16.0543 20.1165 16.0025C20.0647 15.9507 20.1165 15.64 20.1683 15.381C20.2201 15.1221 20.5826 14.3971 20.6344 14.2935C20.7379 13.9828 20.7379 13.672 20.5826 13.6202C20.4272 13.5684 20.1683 13.5167 19.7022 14.1899C19.2361 14.8631 17.5271 17.8668 16.9574 19.1615C16.336 20.6116 15.352 22.6313 15.1448 23.0456C14.9895 23.4599 14.8341 23.7189 14.368 23.5635C14.2127 23.5117 14.1091 23.1492 14.2127 22.6831C14.368 22.217 14.7823 21.0259 14.8341 20.8187C14.8859 20.6116 14.9377 20.3527 14.7823 20.3009C14.627 20.2491 14.368 20.3527 14.1609 20.767C13.8502 21.2331 13.1769 22.476 13.0215 22.8385C12.8662 23.1492 12.4519 23.8742 11.9858 23.7707C11.8304 23.7189 11.7786 23.2528 11.9858 22.8385C12.1929 22.4242 12.918 20.9741 13.0215 20.767C13.2805 20.2491 13.4876 19.9384 13.3323 19.8348C13.1769 19.783 12.8662 20.1973 12.7108 20.4562C12.5037 20.7152 11.1572 22.5795 10.8982 22.8385C10.5357 23.2528 10.225 23.5635 10.0178 23.4599C9.91427 23.4081 10.0178 22.7867 10.1732 22.5278C10.3804 22.2688 11.3643 20.6634 11.5715 20.3527C12.0376 19.6794 12.1412 19.4723 12.1929 19.4205C12.2447 19.3687 12.2965 19.2133 12.2447 19.1615C12.1929 19.1098 12.0376 19.2133 11.8822 19.3687C11.7786 19.5241 10.225 21.0259 9.91427 21.2848C9.55176 21.5438 9.29282 21.6991 9.13746 21.492C8.98209 21.2848 9.44818 20.6116 9.65533 20.4562C9.8107 20.2491 10.8465 19.058 11.0536 18.799C11.3125 18.4365 11.4679 18.1776 11.3643 18.074C11.2608 17.9186 10.95 18.1258 10.7947 18.2293C10.6393 18.3847 9.86249 19.1615 9.60355 19.3687C9.24103 19.6276 9.03388 19.7312 8.87852 19.5758C8.77494 19.4723 8.9303 19.1098 9.03388 18.9544C9.18924 18.6955 10.5875 16.6239 11.2608 15.7435C11.934 14.8114 14.0055 12.2738 14.3162 11.963C15.2484 10.9273 15.6627 10.513 15.6627 10.513C15.6627 10.513 14.0573 8.70039 10.95 8.07893C9.29282 7.92357 6.91058 7.3539 3.18185 10.3058C2.24967 11.1344 0.385302 13.1541 0.0227867 16.5204C-0.0290012 17.7633 -0.132577 20.6634 1.52464 23.4081C2.87112 25.0653 4.06224 27.0333 7.68739 28.3798Z" fill="url(#paint1_linear_1_760)"/>
<path opacity="0.2" d="M7.99812 12.7398C11.0871 12.7398 13.5912 10.2357 13.5912 7.14674C13.5912 4.05776 11.0871 1.55365 7.99812 1.55365C4.90914 1.55365 2.40503 4.05776 2.40503 7.14674C2.40503 10.2357 4.90914 12.7398 7.99812 12.7398Z" fill="#231F20"/>
<path d="M7.99806 10.979C11.0298 10.979 13.4876 8.52129 13.4876 5.48952C13.4876 2.45774 11.0298 0 7.99806 0C4.96629 0 2.50854 2.45774 2.50854 5.48952C2.50854 8.52129 4.96629 10.979 7.99806 10.979Z" fill="url(#paint2_linear_1_760)"/>
<path d="M7.9981 9.01109C10.4864 9.01109 12.5036 6.99388 12.5036 4.50554C12.5036 2.01719 10.4864 0 7.9981 0C5.50976 0 3.49255 2.01719 3.49255 4.50554C3.49255 6.99388 5.50976 9.01109 7.9981 9.01109Z" fill="url(#paint3_linear_1_760)"/>
<g opacity="0.3">
<path d="M10.0178 6.26632C9.86244 6.7842 9.34456 7.09492 8.77489 7.09492V7.66459C8.77489 7.76816 8.67132 7.87173 8.56774 7.87173H8.20522C8.10165 7.87173 7.99807 7.76816 7.99807 7.66459V7.09492C7.63556 7.09492 7.27304 6.99135 7.0141 6.73241C6.91053 6.68062 6.91053 6.52526 7.0141 6.47347L7.42841 6.05916C7.48019 6.00737 7.58377 6.00737 7.63556 6.05916C7.73913 6.16273 7.8945 6.16274 8.04986 6.16274H8.82668C9.03383 6.16274 9.18919 6.00737 9.18919 5.80022C9.18919 5.64485 9.08562 5.54129 8.93025 5.4895L7.73913 5.12698C7.22125 4.97162 6.80695 4.55731 6.75516 3.98764C6.70338 3.26261 7.27304 2.58938 7.99807 2.58938H8.04986V2.01971C8.04986 1.91613 8.15344 1.81256 8.25701 1.81256H8.61953C8.7231 1.81256 8.82668 1.91613 8.82668 2.01971V2.58938C9.18919 2.58938 9.55171 2.69295 9.81065 2.95188C9.91422 3.00367 9.91422 3.15904 9.81065 3.21082L9.39635 3.62514C9.34456 3.67692 9.24098 3.67692 9.18919 3.62514C9.08562 3.52156 8.93025 3.52155 8.77489 3.52155H7.99807C7.79092 3.52155 7.63556 3.67692 7.63556 3.88408C7.63556 4.03944 7.73913 4.19481 7.8945 4.19481L9.13741 4.55731C9.81065 4.86804 10.225 5.59308 10.0178 6.26632Z" fill="#231F20"/>
</g>
<path d="M9.60356 5.85195C9.44819 6.36983 8.93031 6.68056 8.36065 6.68056V7.25023C8.36065 7.35381 8.25707 7.45738 8.15349 7.45738H7.79098C7.6874 7.45738 7.58383 7.35381 7.58383 7.25023V6.68056C7.22131 6.68056 6.8588 6.57698 6.59986 6.31804C6.49628 6.26625 6.49628 6.11089 6.59986 6.0591L7.01416 5.64481C7.06595 5.59302 7.16952 5.59302 7.22131 5.64481C7.32489 5.74838 7.48025 5.74839 7.63562 5.74839H8.41243C8.61959 5.74839 8.77495 5.59302 8.77495 5.38587C8.77495 5.2305 8.67137 5.12692 8.51601 5.07514L7.32489 4.71263C6.80701 4.55727 6.39271 4.14296 6.34092 3.57329C6.28913 2.84826 6.8588 2.17501 7.58383 2.17501H7.63562V1.60536C7.63562 1.50178 7.73919 1.39819 7.84277 1.39819H8.20528C8.30886 1.39819 8.41243 1.50178 8.41243 1.60536V2.17501C8.77495 2.17501 9.13746 2.27859 9.3964 2.53753C9.49998 2.58932 9.49998 2.74468 9.3964 2.79647L8.9821 3.21077C8.93031 3.26256 8.82674 3.26256 8.77495 3.21077C8.67137 3.10719 8.51601 3.1072 8.36065 3.1072H7.58383C7.37668 3.1072 7.22131 3.26256 7.22131 3.46971C7.22131 3.62507 7.32489 3.78044 7.48025 3.78044L8.72316 4.14296C9.44819 4.4019 9.86249 5.17871 9.60356 5.85195Z" fill="white"/>
<defs>
<linearGradient id="paint0_linear_1_760" x1="9.13846" y1="8.31944" x2="21.4216" y2="22.9467" gradientUnits="userSpaceOnUse">
<stop stop-color="white"/>
<stop offset="1" stop-color="#FFBF00"/>
</linearGradient>
<linearGradient id="paint1_linear_1_760" x1="23.4692" y1="26.5924" x2="4.54429" y2="13.5698" gradientUnits="userSpaceOnUse">
<stop stop-color="#F8003C"/>
<stop offset="1" stop-color="#FF8438"/>
</linearGradient>
<linearGradient id="paint2_linear_1_760" x1="9.22274" y1="0.0938395" x2="7.83737" y2="6.32801" gradientUnits="userSpaceOnUse">
<stop stop-color="#00D5C9"/>
<stop offset="1" stop-color="white"/>
</linearGradient>
<linearGradient id="paint3_linear_1_760" x1="7.90768" y1="-0.0235635" x2="8.13498" y2="8.97054" gradientUnits="userSpaceOnUse">
<stop stop-color="#0099AC"/>
<stop offset="0.9996" stop-color="#00D5C9"/>
</linearGradient>
</defs>
</svg>
