<svg xmlns="http://www.w3.org/2000/svg" viewBox="0 0 55 54" fill="none">
<path d="M54.2 27C54.2 30.7 53.5 34.1 52.2 37.3C49.2 44.5 43.2 50.1 35.7 52.6C41.7 50.4 55.6 33.8 42.3 20.5C41.6 19.8 40.8 19.1 39.9 18.5C37.9 17.1 35.5 16.2 32.8 15.7C32.7 15.7 32.5 15.7 32.4 15.6C31.5 15.4 30.6 15.4 29.6 15.3C38 15.3 38.8 2.19999 31.5 0.299988C32.5 0.499988 33.5 0.700024 34.4 0.900024C34.8 1.00002 35.1 1.10001 35.5 1.20001C46.3 4.80001 54.2 15 54.2 27Z" fill="url(#paint0_linear_5931_4315)"/>
<path d="M35.6 52.6C32.9 53.5 30.1 54 27.1 54C21.8 54 16.8 52.5 12.6 49.8C7.6 46.6 3.7 41.8 1.6 36.1C0.599998 33.3 0 30.2 0 27C0 17.4 5 9.00001 12.5 4.20001C16.7 1.50001 21.7 0 27 0C28.5 0 29.9 0.0999878 31.3 0.299988C38.6 2.19999 37.8 15.2 29.4 15.3C29.1 15.3 28.9 15.3 28.6 15.3C28.1 15.3 27.6 15.3 27.1 15.4C20.1 15.9 14.3 19.7 12.4 24.9C9.6 31.5 13.2 42.8 28.6 41.7C29 41.7 29.4 41.7 29.9 41.7C37.2 41.7 40.6 48.5 35.6 52.6Z" fill="url(#paint1_linear_5931_4315)"/>
<path d="M35.6 52.6C40.5 48.5 37.1 41.7 30 41.5C29.6 41.5 29.2 41.5 28.7 41.5C13.3 42.6 9.79999 31.4 12.5 24.7C14.5 19.2 21 15.2 28.7 15.2C29.5 15.2 30.3 15.2 31.1 15.3C32.2 15.4 33.2 15.6 34.3 15.9C37.5 16.8 40.2 18.4 42.2 20.4C55.5 33.8 41.6 50.4 35.6 52.6Z" fill="#F2F2F2"/>
<path opacity="0.2" d="M35.6 52.6C35 52.8 34.5 53 33.9 53.1C37.3 50.2 34.7 44.8 28.3 43.8C27.9 43.8 27.5 43.7 27 43.7C11.6 42.8 9.19999 31.8 12.3 25.3C12.3 25.4 12.2 25.5 12.2 25.5C12.2 25.6 12.2 25.6 12.1 25.7C12.1 25.8 12.1 25.8 12 25.9C12 26 12 26 11.9 26.1C11.9 26.2 11.9 26.2 11.9 26.3C11.9 26.4 11.9 26.4 11.9 26.5C11.8 26.9 11.7 27.4 11.7 27.8V27.9C11.7 28 11.7 28 11.7 28.1C11.7 28.2 11.7 28.3 11.7 28.4C11.7 28.5 11.7 28.5 11.7 28.6C11.7 28.7 11.7 28.7 11.7 28.8C11.7 28.9 11.7 29 11.7 29.1C11.6 35.4 16.3 42.6 28.7 41.7C29.1 41.7 29.5 41.7 30 41.7C37.2 41.7 40.6 48.5 35.6 52.6Z" fill="black"/>
<path opacity="0.2" d="M32.7 15.7C32.6 15.7 32.4 15.7 32.3 15.6C31.4 15.4 30.5 15.4 29.5 15.3C37.9 15.3 38.7 2.19999 31.4 0.299988C32.2 0.399988 32.9 0.599988 33.6 0.799988C34.2 0.899988 34.7 1.2 35.2 1.5C40.5 5.2 38.9 14.8 32.7 15.7Z" fill="black"/>
<path d="M21.8001 31.8004C22.739 31.8004 23.5001 31.0392 23.5001 30.1003C23.5001 29.1615 22.739 28.4004 21.8001 28.4004C20.8612 28.4004 20.1001 29.1615 20.1001 30.1003C20.1001 31.0392 20.8612 31.8004 21.8001 31.8004Z" fill="#0099AC"/>
<path d="M29.5 31.8004C30.4389 31.8004 31.2 31.0392 31.2 30.1003C31.2 29.1615 30.4389 28.4004 29.5 28.4004C28.5612 28.4004 27.8 29.1615 27.8 30.1003C27.8 31.0392 28.5612 31.8004 29.5 31.8004Z" fill="#F8003C"/>
<path d="M37.2 31.8004C38.1389 31.8004 38.9 31.0392 38.9 30.1003C38.9 29.1615 38.1389 28.4004 37.2 28.4004C36.2611 28.4004 35.5 29.1615 35.5 30.1003C35.5 31.0392 36.2611 31.8004 37.2 31.8004Z" fill="#252525"/>
<path opacity="0.06" d="M29.5 15.3C29.2 15.3 29 15.3 28.7 15.3C28.2 15.3 27.7 15.3 27.2 15.4C10.3 16.3 2.4 27.9 1.6 36.1C0.599998 33.3 0 30.2 0 27C0 12.1 12.1 0 27 0C28.5 0 29.9 0.0999878 31.3 0.299988C38.8 2.19999 38 15.3 29.5 15.3Z" fill="white"/>
<path opacity="0.06" d="M12.7 49.8C7.70001 46.6 3.80001 41.8 1.70001 36.1C0.700008 33.3 0.100006 30.2 0.100006 27C0.100006 17.4 5.10001 9.00001 12.6 4.20001C2.00001 18.3 5.30001 40.6 12.7 49.8Z" fill="white"/>
<defs>
<linearGradient id="paint0_linear_5931_4315" x1="33.7491" y1="2.98839" x2="45.4989" y2="39.5679" gradientUnits="userSpaceOnUse">
<stop stop-color="#F8003C"/>
<stop offset="1" stop-color="#FF8438"/>
</linearGradient>
<linearGradient id="paint1_linear_5931_4315" x1="22.9625" y1="-0.3091" x2="16.9767" y2="56.888" gradientUnits="userSpaceOnUse">
<stop offset="0.07297" stop-color="#00D5C9"/>
<stop offset="0.6338" stop-color="#0099AC"/>
</linearGradient>
</defs>
</svg>