<svg width="160" height="30" viewBox="0 0 160 30" fill="none" xmlns="http://www.w3.org/2000/svg">
<path d="M55.8454 19.8983L51.8332 5.25924H48.6885L44.5679 19.8983L40.6099 5.31346V5.20502L37.0857 5.25924L42.5618 24.507H46.4113L50.1524 10.898L53.8936 24.507H57.7431L63.2192 5.42189L63.2734 5.25924H59.8034L55.8454 19.8983Z" fill="#252525"/>
<path d="M76.3404 6.01834C75.3102 5.53037 74.1716 5.25928 72.8161 5.25928H65.1713V24.507H68.5871V17.6212H72.8161C74.1174 17.6212 75.3102 17.3501 76.3404 16.8621C77.3705 16.3742 78.1296 15.6151 78.726 14.6934C79.2682 13.7716 79.5393 12.6873 79.5393 11.4402C79.5393 10.1932 79.2682 9.10882 78.726 8.1871C78.1296 7.21115 77.3163 6.50631 76.3404 6.01834ZM68.5871 8.24132H72.5993C73.6836 8.24132 74.5511 8.51242 75.1475 9.10882C75.7439 9.65101 76.0693 10.4643 76.0693 11.4402C76.0693 12.4162 75.7439 13.1752 75.1475 13.7717C74.4969 14.3681 73.6294 14.6391 72.545 14.6391H68.5871V8.24132Z" fill="#252525"/>
<path d="M99.7086 13.9886C98.8411 13.6091 97.7567 13.338 96.5096 13.1211C95.3168 12.9042 94.3951 12.6873 93.7445 12.5247C93.0938 12.362 92.6059 12.0909 92.2263 11.7656C91.8468 11.4403 91.6842 11.0065 91.6842 10.4101C91.6842 9.59685 92.0095 8.94622 92.6059 8.51247C93.2565 8.07872 94.124 7.80763 95.1542 7.80763C96.2385 7.80763 97.1603 8.07871 97.8651 8.67512C98.57 9.27153 99.0037 10.0306 99.1121 10.9523V11.0608H102.42V10.8981C102.365 9.7595 102.04 8.67514 101.389 7.80763C100.739 6.88591 99.8712 6.18105 98.8411 5.69308C97.7567 5.20511 96.5096 4.93402 95.1542 4.93402C93.7987 4.93402 92.6059 5.15091 91.5757 5.63888C90.5456 6.12685 89.7323 6.77746 89.1359 7.64497C88.5395 8.51247 88.2684 9.48841 88.2684 10.627C88.2684 11.8198 88.5395 12.7958 89.1359 13.5548C89.6781 14.3139 90.4371 14.8561 91.3588 15.2356C92.2263 15.6151 93.3107 15.8862 94.5578 16.1031C95.7506 16.32 96.7265 16.5369 97.3771 16.6995C98.0278 16.9164 98.5157 17.1875 98.8953 17.5128C99.2748 17.8381 99.4375 18.3261 99.4375 18.9225C99.4375 19.79 99.1122 20.3864 98.4073 20.8744C97.7025 21.3623 96.7807 21.5792 95.6964 21.5792C94.3951 21.5792 93.3649 21.2539 92.5517 20.6033C91.7384 19.9527 91.3046 19.0852 91.2504 18.0008V17.8923L87.9431 17.8381V18.0008C87.9431 19.2478 88.3226 20.3864 88.9732 21.4166C89.6238 22.3925 90.5456 23.1516 91.6842 23.748C92.8228 24.2902 94.1782 24.5613 95.6964 24.5613C97.0518 24.5613 98.2989 24.2902 99.3832 23.8022C100.468 23.3142 101.335 22.6094 101.932 21.6877C102.528 20.7659 102.853 19.7358 102.853 18.5972C102.853 17.4044 102.582 16.4284 101.986 15.7236C101.335 14.9103 100.576 14.3681 99.7086 13.9886Z" fill="#252525"/>
<path d="M115.432 10.8979C114.348 10.3015 113.101 9.9762 111.691 9.9762C110.281 9.9762 109.034 10.3015 107.95 10.8979C106.866 11.4943 105.998 12.3618 105.402 13.4462C104.805 14.5306 104.48 15.7776 104.48 17.1873C104.48 18.597 104.805 19.8983 105.402 20.9826C105.998 22.067 106.866 22.9345 107.95 23.5309C109.034 24.1273 110.281 24.4527 111.691 24.4527C113.101 24.4527 114.348 24.1273 115.432 23.5309C116.517 22.9345 117.384 22.067 117.98 20.9826C118.577 19.8983 118.902 18.597 118.902 17.1873C118.902 15.7776 118.577 14.5306 117.98 13.4462C117.33 12.3618 116.517 11.5485 115.432 10.8979ZM111.637 21.7417C110.444 21.7417 109.468 21.3079 108.763 20.4946C108.058 19.6814 107.679 18.597 107.679 17.2415C107.679 15.8861 108.058 14.8559 108.763 13.9884C109.468 13.1751 110.444 12.7413 111.637 12.7413C112.83 12.7413 113.806 13.1751 114.51 13.9884C115.215 14.8017 115.595 15.8861 115.595 17.2415C115.595 18.597 115.215 19.6271 114.51 20.4946C113.806 21.3079 112.83 21.7417 111.637 21.7417Z" fill="#252525"/>
<path d="M127.469 12.7957C128.282 12.7957 128.987 13.0126 129.583 13.4464C130.18 13.8801 130.559 14.5308 130.722 15.2898V15.3983H133.975L133.921 15.2356C133.65 13.6632 132.945 12.362 131.806 11.4403C130.667 10.5186 129.204 10.0306 127.469 10.0306C126.059 10.0306 124.812 10.3559 123.727 10.9523C122.643 11.5487 121.83 12.4162 121.233 13.5006C120.637 14.585 120.366 15.832 120.366 17.2959C120.366 18.7056 120.637 20.0069 121.233 21.0912C121.83 22.1756 122.643 23.0431 123.727 23.6395C124.812 24.236 126.059 24.5612 127.414 24.5612C129.204 24.5612 130.667 24.0733 131.806 23.1516C132.945 22.2298 133.65 20.9286 133.921 19.302V19.1394H130.667V19.2478C130.505 20.0069 130.125 20.6575 129.529 21.0912C128.932 21.525 128.228 21.7961 127.36 21.7961C126.222 21.7961 125.3 21.3623 124.649 20.5491C123.944 19.7358 123.619 18.5972 123.619 17.2959C123.619 15.9947 123.944 14.9103 124.649 14.097C125.408 13.1753 126.33 12.7957 127.469 12.7957Z" fill="#252525"/>
<path d="M137.716 8.56656C138.258 8.56656 138.692 8.40391 139.071 8.02437C139.451 7.64484 139.614 7.21109 139.614 6.6689C139.614 6.12671 139.451 5.69296 139.071 5.31343C138.692 4.9339 138.258 4.77124 137.716 4.77124C137.174 4.77124 136.74 4.9339 136.361 5.31343C135.981 5.69296 135.818 6.12671 135.818 6.6689C135.818 7.21109 135.981 7.64484 136.361 8.02437C136.686 8.40391 137.174 8.56656 137.716 8.56656Z" fill="#252525"/>
<path d="M139.288 10.3559H136.089V24.507H139.288V10.3559Z" fill="#252525"/>
<path d="M153.982 20.6573V15.1812C153.982 13.5004 153.44 12.2534 152.409 11.3317C151.379 10.4642 149.915 9.9762 148.018 9.9762C146.228 9.9762 144.764 10.3557 143.68 11.169C142.542 11.9823 141.945 13.0667 141.782 14.5306V14.6932H144.927V14.5848C145.036 13.9884 145.361 13.5546 145.849 13.1751C146.391 12.7956 147.042 12.6329 147.855 12.6329C148.777 12.6329 149.482 12.8498 150.024 13.2835C150.512 13.7173 150.783 14.2595 150.783 15.0185V15.7234H147.421C145.469 15.7234 143.951 16.1029 142.921 16.9162C141.891 17.7295 141.349 18.8681 141.349 20.332C141.349 21.6332 141.837 22.6634 142.813 23.4225C143.789 24.1815 145.036 24.5611 146.662 24.5611C148.56 24.5611 150.078 23.8562 151.108 22.4465C151.162 22.9887 151.379 23.4767 151.705 23.802C152.138 24.1816 152.789 24.3984 153.765 24.3984H155.446V21.5248H154.741C154.199 21.5248 153.982 21.2537 153.982 20.6573ZM147.042 21.9586C146.283 21.9586 145.686 21.7959 145.252 21.4706C144.819 21.1453 144.602 20.7115 144.602 20.1151C144.602 19.4645 144.819 18.9765 145.252 18.6512C145.74 18.3259 146.391 18.1632 147.259 18.1632H150.783V18.4886C150.783 19.5187 150.403 20.3862 149.807 20.9826C149.156 21.6333 148.234 21.9586 147.042 21.9586Z" fill="#252525"/>
<path d="M160 5.25928H156.801V24.507H160V5.25928Z" fill="#252525"/>
<path d="M29.3325 14.639C29.3325 16.6451 28.9529 18.4886 28.2481 20.2236C26.6215 24.1273 23.3684 27.1636 19.302 28.5191C22.5551 27.3263 30.0915 18.3259 22.8804 11.1148C22.5009 10.7353 22.0671 10.3557 21.5792 10.0304C20.4948 9.27136 19.1935 8.7834 17.7296 8.51231C17.6754 8.51231 17.567 8.5123 17.5128 8.45808C17.0248 8.34964 16.5368 8.34965 15.9946 8.29543C20.549 8.29543 20.9828 1.19276 17.0248 0.162598C17.567 0.271035 18.1092 0.379477 18.5971 0.487914C18.814 0.542133 18.9767 0.596346 19.1935 0.650564C25.0492 2.60244 29.3325 8.13277 29.3325 14.639Z" fill="url(#paint0_linear_1_652)"/>
<path d="M19.3019 28.5192C17.838 29.0071 16.3199 29.2782 14.6933 29.2782C11.8197 29.2782 9.10878 28.4649 6.83158 27.001C4.12064 25.266 2.0061 22.6635 0.867503 19.573C0.325314 18.0549 0 16.3741 0 14.6391C0 9.43409 2.71095 4.87971 6.77736 2.2772C9.05456 0.81329 11.7655 0 14.6391 0C15.4524 0 16.2115 0.0542288 16.9705 0.162667C20.9285 1.19283 20.4947 8.24128 15.9404 8.2955C15.7777 8.2955 15.6693 8.2955 15.5066 8.2955C15.2355 8.2955 14.9644 8.29551 14.6933 8.34973C10.898 8.62082 7.7533 10.6811 6.72315 13.5005C5.20502 17.079 7.1569 23.2057 15.5066 22.6093C15.7235 22.6093 15.9404 22.6093 16.2115 22.6093C20.1152 22.6093 21.9587 26.2962 19.3019 28.5192Z" fill="url(#paint1_linear_1_652)"/>
<path d="M19.3019 28.5192C21.9586 26.2962 20.1152 22.6093 16.2656 22.5008C16.0488 22.5008 15.8319 22.5008 15.5608 22.5008C7.21108 23.0972 5.31341 17.0247 6.77732 13.3921C7.8617 10.41 11.3859 8.24127 15.5608 8.24127C15.9945 8.24127 16.4283 8.24128 16.862 8.29549C17.4585 8.34971 18.0006 8.45815 18.597 8.62081C20.3321 9.10878 21.796 9.97628 22.8803 11.0607C30.0372 18.326 22.5008 27.3263 19.3019 28.5192Z" fill="#F2F2F2"/>
<path opacity="0.2" d="M19.3019 28.5191C18.9765 28.6276 18.7054 28.736 18.3801 28.7902C20.2236 27.2179 18.8139 24.29 15.3439 23.7478C15.127 23.7478 14.9101 23.6936 14.639 23.6936C6.28932 23.2057 4.98806 17.2416 6.66885 13.7173C6.66885 13.7716 6.61463 13.8258 6.61463 13.8258C6.61463 13.88 6.61463 13.88 6.56041 13.9342C6.56041 13.9884 6.56041 13.9884 6.50619 14.0427C6.50619 14.0969 6.50619 14.0969 6.45197 14.1511C6.45197 14.2053 6.45197 14.2053 6.45197 14.2595C6.45197 14.3138 6.45197 14.3137 6.45197 14.368C6.39776 14.5848 6.34354 14.8559 6.34354 15.0728V15.127C6.34354 15.1813 6.34354 15.1813 6.34354 15.2355C6.34354 15.2897 6.34354 15.3439 6.34354 15.3981C6.34354 15.4524 6.34354 15.4523 6.34354 15.5066C6.34354 15.5608 6.34354 15.5608 6.34354 15.615C6.34354 15.6692 6.34354 15.7234 6.34354 15.7777C6.28932 19.1934 8.83761 23.0972 15.5608 22.6092C15.7776 22.6092 15.9945 22.6092 16.2656 22.6092C20.1151 22.6092 21.9586 26.2961 19.3019 28.5191Z" fill="black"/>
<path opacity="0.2" d="M17.6754 8.45817C17.6212 8.45817 17.5127 8.45816 17.4585 8.40395C16.9705 8.29551 16.4826 8.29551 15.9404 8.2413C20.4948 8.2413 20.9285 1.13862 16.9705 0.108459C17.4043 0.162678 17.7838 0.271116 18.1633 0.379554C18.4887 0.433773 18.7598 0.596436 19.0308 0.759093C21.9587 2.76519 21.0369 8.02442 17.6754 8.45817Z" fill="black"/>
<path d="M11.8197 17.2416C12.3287 17.2416 12.7414 16.8289 12.7414 16.3198C12.7414 15.8108 12.3287 15.3981 11.8197 15.3981C11.3106 15.3981 10.8979 15.8108 10.8979 16.3198C10.8979 16.8289 11.3106 17.2416 11.8197 17.2416Z" fill="#0099AC"/>
<path d="M15.9945 17.2416C16.5036 17.2416 16.9163 16.8289 16.9163 16.3198C16.9163 15.8108 16.5036 15.3981 15.9945 15.3981C15.4855 15.3981 15.0728 15.8108 15.0728 16.3198C15.0728 16.8289 15.4855 17.2416 15.9945 17.2416Z" fill="#F8003C"/>
<path d="M20.1693 17.2416C20.6784 17.2416 21.0911 16.8289 21.0911 16.3198C21.0911 15.8108 20.6784 15.3981 20.1693 15.3981C19.6603 15.3981 19.2476 15.8108 19.2476 16.3198C19.2476 16.8289 19.6603 17.2416 20.1693 17.2416Z" fill="#252525"/>
<path opacity="0.06" d="M15.9946 8.2955C15.8319 8.2955 15.7235 8.2955 15.5608 8.2955C15.2897 8.2955 15.0186 8.2955 14.7475 8.34972C5.58455 8.83769 1.30125 15.1271 0.867503 19.573C0.325314 18.0549 0 16.3741 0 14.6391C0 6.56049 6.56049 0 14.6391 0C15.4524 0 16.2115 0.0542288 16.9705 0.162667C20.9827 1.19283 20.549 8.2955 15.9946 8.2955Z" fill="white"/>
<path opacity="0.06" d="M6.83158 27.001C4.12064 25.266 2.0061 22.6635 0.867503 19.573C0.325314 18.0549 0 16.3741 0 14.6391C0 9.43405 2.71095 4.87967 6.77736 2.27716C1.03016 9.92203 2.81938 22.0128 6.83158 27.001Z" fill="white"/>
<defs>
<linearGradient id="paint0_linear_1_652" x1="18.2649" y1="1.60894" x2="24.6356" y2="21.442" gradientUnits="userSpaceOnUse">
<stop stop-color="#F8003C"/>
<stop offset="1" stop-color="#FF8438"/>
</linearGradient>
<linearGradient id="paint1_linear_1_652" x1="12.4165" y1="-0.178814" x2="9.17107" y2="30.8328" gradientUnits="userSpaceOnUse">
<stop offset="0.07297" stop-color="#00D5C9"/>
<stop offset="0.6338" stop-color="#0099AC"/>
</linearGradient>
</defs>
</svg>
