<svg width="26" height="26" xmlns="http://www.w3.org/2000/svg">
    <g fill="none" fill-rule="evenodd">
        <circle stroke="#fff" stroke-width="2" opacity=".5" fill="#000" cx="13" cy="13" r="12"/>
        <path d="M13.435 9.178c-.126-.121-.27-.182-.436-.182-.164 0-.306.061-.428.182l-4.38 4.175c-.126.121-.188.262-.188.424 0 .161.062.302.188.423l.65.622c.126.121.273.182.441.182.17 0 .314-.061.436-.182l3.314-3.161 3.249 3.161c.126.121.269.182.432.182.164 0 .307-.061.433-.182l.662-.622c.126-.121.189-.262.189-.423 0-.162-.063-.303-.189-.424l-4.373-4.175z"
              fill="#fff"/>
    </g>
</svg>