<svg xmlns="http://www.w3.org/2000/svg" width="26" height="26">
    <g fill="none">
        <circle cx="13" cy="13" r="12" fill="#000" stroke="#fff" stroke-width="2" opacity=".5"/>
        <path fill="#fff"
              d="M12.565 16.822c.126.12.27.182.436.182.168 0 .31-.06.43-.182l4.38-4.175c.128-.12.19-.262.19-.424 0-.16-.062-.302-.19-.423l-.65-.622c-.125-.12-.272-.182-.44-.182-.17 0-.314.06-.436.182l-3.314 3.16-3.25-3.16c-.126-.12-.27-.182-.43-.182-.166 0-.31.06-.435.182l-.662.622c-.126.12-.19.262-.19.423 0 .162.064.303.19.424l4.373 4.175z"/>
    </g>
</svg>