<svg clip-rule="evenodd" fill-rule="evenodd" stroke-linejoin="round" stroke-miterlimit="2" viewBox="0 0 20 20" xmlns="http://www.w3.org/2000/svg"><path d="m13.993 20h-12.987c-.552 0-1.006-.454-1.006-1.006v-.001l.003-12.986c0-.556.449-1.007 1.007-1.007h3.99v-4c0-.549.451-1 1-1h13c.549 0 1 .451 1 1v13c0 .549-.451 1-1 1h-4v3.993c0 .556-.449 1.007-1.007 1.007zm-.993-13h-10.997l-.003 11h11zm-4.5 4.5h3v2h-3v3h-2v-3h-3v-2h3v-3h2zm9.5-9.5h-11v3h6.993c.556 0 1.007.449 1.007 1.007v6.993h3z" fill="#40bf4f" fill-rule="nonzero"/></svg>