<svg clip-rule="evenodd" fill-rule="evenodd" stroke-linejoin="round" stroke-miterlimit="1.41421" viewBox="0 0 120 120" xmlns="http://www.w3.org/2000/svg"><g fill="#e0e5e6"><path d="m110 90h-81l10-60h81zm-67.611-56-8.667 52h72.889l8.667-52z"/><path d="m21 86h-20l-1 4h20z"/><path d="m20 90h-20l1-4h20z"/><path d="m23 72h-20l-1 4h20z"/><path d="m22 76h-20l1-4h20z"/><path d="m26 58h-20l-1 4h20z"/><path d="m25 62h-20l1-4h20z"/><path d="m28 44h-20l-1 4h20z"/><path d="m27 48h-20l1-4h20z"/><path d="m30 30h-20l-1 4h20z"/><path d="m29 34h-20l1-4h20z"/></g></svg>