<svg clip-rule="evenodd" fill-rule="evenodd" stroke-linejoin="round" stroke-miterlimit="2" viewBox="0 0 20 20" xmlns="http://www.w3.org/2000/svg"><path d="m12 2c.549 0 1 .451 1 1v3c0 .549-.451 1-1 1s-1-.451-1-1v-3c0-.549.451-1 1-1zm0 15c.549 0 1 .451 1 1v3c0 .549-.451 1-1 1s-1-.451-1-1v-3c0-.549.451-1 1-1zm8.66-10c.274.475.109 1.092-.366 1.366l-2.598 1.5c-.153.09-.328.137-.506.137-.548 0-1-.451-1-1 0-.359.194-.691.506-.869l2.598-1.5c.475-.274 1.092-.109 1.366.366zm-12.99 7.5c.274.475.109 1.092-.366 1.366l-2.598 1.5c-.153.09-.328.137-.506.137-.548 0-1-.451-1-1 0-.359.194-.691.506-.869l2.598-1.5c.475-.274 1.092-.109 1.366.366zm12.99 2.5c-.274.475-.891.64-1.366.366l-2.598-1.5c-.306-.179-.494-.508-.494-.863 0-.548.451-1 1-1 .173 0 .343.045.494.131l2.598 1.5c.475.274.64.891.366 1.366zm-12.99-7.5c-.274.475-.891.64-1.366.366l-2.598-1.5c-.312-.178-.506-.51-.506-.869 0-.549.452-1 1-1 .178 0 .353.047.506.137l2.598 1.5c.475.274.64.891.366 1.366z" fill="#8b40bf" fill-rule="nonzero" transform="matrix(1.02317 0 0 1 -2.274 -2)"/></svg>