<svg clip-rule="evenodd" fill-rule="evenodd" stroke-linejoin="round" stroke-miterlimit="1.41421" viewBox="0 0 120 120" xmlns="http://www.w3.org/2000/svg"><path d="m119 52c0-5.519-4.481-10-10-10h-98c-5.519 0-10 4.481-10 10v20c0 5.519 4.481 10 10 10h98c5.519 0 10-4.481 10-10z" fill="#bdc3c7"/><path d="m120 48c0-5.519-4.481-10-10-10h-100c-5.519 0-10 4.481-10 10v20c0 5.519 4.481 10 10 10h100c5.519 0 10-4.481 10-10z" fill="#e0e5e6"/><path d="m61.145 51h4.423v5.276l4.639-5.276h5.879l-5.215 5.267 5.449 8.695h-5.449l-3.017-5.743-2.286 2.333v3.41h-4.423z" fill="#95a5a6" fill-rule="nonzero"/><path d="m43.908 57.99c0-2.279.651-4.053 1.953-5.323s3.116-1.905 5.44-1.905c2.383 0 4.219.624 5.508 1.871 1.289 1.248 1.933 2.996 1.933 5.243 0 1.632-.281 2.97-.845 4.014-.563 1.045-1.376 1.858-2.441 2.439-1.064.581-2.391.871-3.979.871-1.615 0-2.951-.251-4.009-.752-1.058-.502-1.916-1.296-2.573-2.381-.658-1.086-.987-2.445-.987-4.077zm4.424.02c0 1.409.269 2.422.806 3.038.537.615 1.268.923 2.192.923.951 0 1.686-.301 2.207-.904.521-.604.781-1.686.781-3.248 0-1.314-.271-2.275-.815-2.881s-1.281-.909-2.212-.909c-.892 0-1.608.308-2.148.923-.541.616-.811 1.635-.811 3.058z" fill="#95a5a6" fill-rule="nonzero"/></svg>