<svg clip-rule="evenodd" fill-rule="evenodd" stroke-linejoin="round" stroke-miterlimit="2" viewBox="0 0 20 20" xmlns="http://www.w3.org/2000/svg"><path d="m4.828 21-.02.02-.021-.02h-1.795c-.544-.001-.992-.449-.992-.993v-16.014c.004-.543.449-.989.992-.993h18.016c.548 0 .992.445.992.993v16.014c-.004.543-.449.989-.992.993zm15.172-6v-10h-16v14l10-10zm0 2.828-6-6-7.172 7.172h13.172zm-12-6.828c-1.097 0-2-.903-2-2s.903-2 2-2 2 .903 2 2-.903 2-2 2z" fill="#f25e0d" fill-rule="nonzero" transform="matrix(.9 0 0 .887902 -.799 -.664)"/></svg>