<svg clip-rule="evenodd" fill-rule="evenodd" stroke-linejoin="round" stroke-miterlimit="1.41421" viewBox="0 0 120 120" xmlns="http://www.w3.org/2000/svg"><g fill="#e0e5e6"><path d="m65 96h55v8h-55z"/><path d="m65 80h50v8h-50z"/><path d="m65 64h55v8h-55z"/><path d="m65 48h50v8h-50z"/><path d="m65 32h44v8h-44z"/><path d="m65 16h55v8h-55z"/><path d="m0 96h55v8h-55z"/><path d="m0 80h55v8h-55z"/><path d="m0 64h49v8h-49z"/><path d="m0 48h55v8h-55z"/><path d="m0 32h55v8h-55z"/><path d="m0 16h50v8h-50z"/></g></svg>