<svg clip-rule="evenodd" fill-rule="evenodd" stroke-linejoin="round" stroke-miterlimit="2" viewBox="0 0 20 20" xmlns="http://www.w3.org/2000/svg"><path d="m17.005 19h-14.01c-1.094 0-1.995-.901-1.995-1.995v-14.01c0-1.102.893-1.995 1.995-1.995h14.01c1.102 0 1.995.893 1.995 1.995v14.01c0 1.094-.9 1.995-1.995 1.995zm-14.005-4.227v2.227h14v-14h-14v2.227h5.715c.584 0 1.058.474 1.058 1.058v7.43c0 .58-.478 1.057-1.058 1.058zm14-9.546v2.016h-2.757v5.514h2.757v2.016h-3.715c-.58-.001-1.058-.478-1.058-1.058v-7.43c0-.584.474-1.058 1.058-1.058zm-9.243 7.53v-5.514h-4.757v5.514z" fill="#da2525" fill-rule="nonzero"/></svg>