<svg clip-rule="evenodd" fill-rule="evenodd" stroke-linejoin="round" stroke-miterlimit="2" viewBox="0 0 20 20" xmlns="http://www.w3.org/2000/svg"><path d="m16.957 19h-14.01c-1.095 0-1.995-.901-1.995-1.995v-14.01c0-1.102.893-1.995 1.995-1.995h14.01c1.102 0 1.995.893 1.995 1.995v14.01c0 1.094-.901 1.995-1.995 1.995zm-.005-16h-14v14h14zm-3.286 11.773h-7.429c-.58 0-1.058-.478-1.058-1.058v-7.43c0-.584.474-1.058 1.058-1.058h7.429c.585 0 1.058.474 1.058 1.058v7.43c0 .58-.477 1.058-1.058 1.058zm-.957-7.53h-5.515v5.514h5.515z" fill="#da2525" fill-rule="nonzero"/></svg>