<svg clip-rule="evenodd" fill-rule="evenodd" stroke-linejoin="round" stroke-miterlimit="2" viewBox="0 0 20 20" xmlns="http://www.w3.org/2000/svg"><path d="m2 3.993c.004-.543.449-.989.992-.993h18.016c.548 0 .992.445.992.993v16.014c-.004.543-.449.989-.992.993h-18.016c-.544-.001-.992-.449-.992-.993zm2 1.007v14h16v-14zm6.622 3.415 4.879 3.252c.111.074.178.199.178.333s-.067.259-.178.333l-4.88 3.252c-.066.043-.142.067-.221.067-.219 0-.399-.18-.4-.399v-6.506c0-.219.181-.399.4-.399.079 0 .156.023.222.067z" fill="#f2af0d" fill-rule="nonzero" transform="matrix(.9 0 0 .888889 -.8 -.6673)"/></svg>