<svg clip-rule="evenodd" fill-rule="evenodd" stroke-linejoin="round" stroke-miterlimit="2" viewBox="0 0 20 20" xmlns="http://www.w3.org/2000/svg"><path d="m11.246 15h-6.492l-2 5h-2.154l6.4-16h2l6.4 16h-2.154zm-.8-2-2.446-6.115-2.446 6.115zm10.554-.465v-.535h2v8h-2v-.535c-.608.35-1.297.535-1.998.535-2.195 0-4-1.806-4-4s1.805-4 4-4c.701 0 1.39.185 1.998.535zm-2 5.465c1.097 0 2-.903 2-2s-.903-2-2-2-2 .903-2 2 .903 2 2 2z" fill="#0d79f2" fill-rule="nonzero" transform="matrix(.892857 0 0 .875 -.536 -.5)"/></svg>