<svg clip-rule="evenodd" fill-rule="evenodd" stroke-linejoin="round" stroke-miterlimit="1.41421" viewBox="0 0 120 120" xmlns="http://www.w3.org/2000/svg"><g fill="#e0e5e6"><path d="m0 96h86v8h-86z"/><path d="m0 80h104v8h-104z"/><path d="m0 64h110v8h-110z"/><path d="m0 48h120v8h-120z"/><path d="m33 32h64v8h-64z"/><path d="m33 16h72v8h-72z"/></g><path d="m24 27.999c0-6.622-5.377-11.999-11.999-11.999h-.002c-6.622 0-11.999 5.377-11.999 11.999v.002c0 6.622 5.377 11.999 11.999 11.999h.002c6.622 0 11.999-5.377 11.999-11.999z" fill="#9b59b6"/><path d="m14.499 31.874h-4.715l-.649 2.363h-4.231l5.035-14.316h4.514l5.035 14.316h-4.331zm-.868-3.096-1.481-5.146-1.471 5.146z" fill="#fff" fill-rule="nonzero"/></svg>