<svg clip-rule="evenodd" fill-rule="evenodd" stroke-linejoin="round" stroke-miterlimit="2" viewBox="0 0 20 20" xmlns="http://www.w3.org/2000/svg"><path d="m5 11.1 2-2 5.5 5.5 3.5-3.5 3 3v-9.1h-14zm0 2.829v5.071h3.1l2.986-2.985-4.086-4.086zm5.929 5.071h8.071v-2.071l-3-3zm-6.929-16h16c.549 0 1 .451 1 1v16c0 .549-.451 1-1 1h-16c-.549 0-1-.451-1-1v-16c0-.549.451-1 1-1zm11.5 7c-.823 0-1.5-.677-1.5-1.5s.677-1.5 1.5-1.5 1.5.677 1.5 1.5-.677 1.5-1.5 1.5z" fill="#0d79f2" fill-rule="nonzero" transform="matrix(.888889 0 0 .888889 -.667 -.6667)"/></svg>