<svg clip-rule="evenodd" fill-rule="evenodd" stroke-linejoin="round" stroke-miterlimit="1.41421" viewBox="0 0 120 120" xmlns="http://www.w3.org/2000/svg"><g fill="#e0e5e6"><path d="m120 96h-120v-72h120zm-116-68v64h112v-64z"/><path d="m49.811 66.651-2.63 3.014-9.922-8.657-27.704 34.25-3.11-2.516 30.315-37.478z"/><path d="m104 96h-80.583l41.748-48.544zm-71.867-4h63.544l-30.623-38.28z"/></g><path d="m99.168 32.001.167.003.167.006.167.007.165.009.166.012.164.014.164.015.164.018.163.02.162.021.162.024.161.026.16.027.16.03.159.031.158.034.157.035.157.037.156.04.156.041.154.043.154.044.153.047.152.048.152.051.15.052.15.053.149.056.148.057.147.059.146.061.145.063.145.064.143.066.143.068.142.069.14.071.14.073.138.074.138.076.137.077.135.079.135.081.133.082.133.084.131.086.13.086.129.089.128.09.127.091.126.093.125.094.123.096.122.097.121.099.12.1.119.102.117.103.116.104.115.105.113.107.113.109.111.109.109.111.109.113.107.113.105.115.104.116.103.117.102.119.1.12.099.121.097.122.096.123.094.125.093.126.091.127.09.128.089.129.086.13.086.131.084.133.082.133.081.135.079.135.077.137.076.138.074.138.073.14.071.14.069.142.068.143.066.143.064.145.063.145.061.146.059.147.057.148.056.149.053.15.052.15.051.152.048.152.047.153.044.154.043.154.041.156.04.156.037.157.035.157.034.158.031.159.03.16.027.16.026.161.024.162.021.162.02.163.018.164.015.164.014.164.012.166.009.165.007.167.006.167.003.167.001.168-.001.168-.003.167-.006.167-.007.167-.009.165-.012.166-.014.164-.015.164-.018.164-.02.163-.021.162-.024.162-.026.161-.027.16-.03.16-.031.159-.034.158-.035.157-.037.157-.04.156-.041.156-.043.154-.044.154-.047.153-.048.152-.051.152-.052.15-.053.15-.056.149-.057.148-.059.147-.061.146-.063.145-.064.145-.066.143-.068.143-.069.142-.071.14-.073.14-.074.138-.076.138-.077.137-.079.135-.081.135-.082.133-.084.133-.086.131-.086.13-.089.129-.09.128-.091.127-.093.126-.094.125-.096.123-.097.122-.099.121-.1.12-.102.119-.103.117-.104.116-.105.115-.107.113-.109.113-.109.111-.111.109-.113.109-.113.107-.115.105-.116.104-.117.103-.119.102-.12.1-.121.099-.122.097-.123.096-.125.094-.126.093-.127.091-.128.09-.129.089-.13.086-.131.086-.133.084-.133.082-.135.081-.135.079-.137.077-.138.076-.138.074-.14.073-.14.071-.142.069-.143.068-.143.066-.145.064-.145.063-.146.061-.147.059-.148.057-.149.056-.15.053-.15.052-.152.051-.152.048-.153.047-.154.044-.154.043-.156.041-.156.04-.157.037-.157.035-.158.034-.159.031-.16.03-.16.027-.161.026-.162.024-.162.021-.163.02-.164.018-.164.015-.164.014-.166.012-.165.009-.167.007-.167.006-.167.003-.168.001-.168-.001-.167-.003-.167-.006-.167-.007-.165-.009-.166-.012-.164-.014-.164-.015-.164-.018-.163-.02-.162-.021-.162-.024-.161-.026-.16-.027-.16-.03-.159-.031-.158-.034-.157-.035-.157-.037-.156-.04-.156-.041-.154-.043-.154-.044-.153-.047-.152-.048-.152-.051-.15-.052-.15-.053-.149-.056-.148-.057-.147-.059-.146-.061-.145-.063-.145-.064-.143-.066-.143-.068-.142-.069-.14-.071-.14-.073-.138-.074-.138-.076-.137-.077-.135-.079-.135-.081-.133-.082-.133-.084-.131-.086-.13-.086-.129-.089-.128-.09-.127-.091-.126-.093-.125-.094-.123-.096-.122-.097-.121-.099-.12-.1-.119-.102-.117-.103-.116-.104-.115-.105-.113-.107-.113-.109-.111-.109-.109-.111-.109-.113-.107-.113-.105-.115-.104-.116-.103-.117-.102-.119-.1-.12-.099-.121-.097-.122-.096-.123-.094-.125-.093-.126-.091-.127-.09-.128-.089-.129-.086-.13-.086-.131-.084-.133-.082-.133-.081-.135-.079-.135-.077-.137-.076-.138-.074-.138-.073-.14-.071-.14-.069-.142-.068-.143-.066-.143-.064-.145-.063-.145-.061-.146-.059-.147-.057-.148-.056-.149-.053-.15-.052-.15-.051-.152-.048-.152-.047-.153-.044-.154-.043-.154-.041-.156-.04-.156-.037-.157-.035-.157-.034-.158-.031-.159-.03-.16-.027-.16-.026-.161-.024-.162-.021-.162-.02-.163-.018-.164-.015-.164-.014-.164-.012-.166-.009-.165-.007-.167-.006-.167-.003-.167-.001-.168.001-.168.003-.167.006-.167.007-.167.009-.165.012-.166.014-.164.015-.164.018-.164.02-.163.021-.162.024-.162.026-.161.027-.16.03-.16.031-.159.034-.158.035-.157.037-.157.04-.156.041-.156.043-.154.044-.154.047-.153.048-.152.051-.152.052-.15.053-.15.056-.149.057-.148.059-.147.061-.146.063-.145.064-.145.066-.143.068-.143.069-.142.071-.14.073-.14.074-.138.076-.138.077-.137.079-.135.081-.135.082-.133.084-.133.086-.131.086-.13.089-.129.09-.128.091-.127.093-.126.094-.125.096-.123.097-.122.099-.121.1-.12.102-.119.103-.117.104-.116.105-.115.107-.113.109-.113.109-.111.111-.109.113-.109.113-.107.115-.105.116-.104.117-.103.119-.102.12-.1.121-.099.122-.097.123-.096.125-.094.126-.093.127-.091.128-.09.129-.089.13-.086.131-.086.133-.084.133-.082.135-.081.135-.079.137-.077.138-.076.138-.074.14-.073.14-.071.142-.069.143-.068.143-.066.145-.064.145-.063.146-.061.147-.059.148-.057.149-.056.15-.053.15-.052.152-.051.152-.048.153-.047.154-.044.154-.043.156-.041.156-.04.157-.037.157-.035.158-.034.159-.031.16-.03.16-.027.161-.026.162-.024.162-.021.163-.02.164-.018.164-.015.164-.014.166-.012.165-.009.167-.007.167-.006.167-.003.168-.001zm-.285 4-.117.002-.116.004-.115.005-.117.006-.113.008-.115.01-.114.011-.113.012-.112.014-.114.015-.112.016-.11.018-.111.019-.11.02-.11.022-.108.023-.11.025-.109.025-.106.027-.107.028-.108.03-.106.031-.105.032-.105.034-.105.034-.104.036-.101.037-.103.038-.105.041-.1.04-.1.042-.103.044-.099.044-.097.045-.1.047-.098.048-.096.049-.097.05-.096.051-.096.053-.094.054-.093.054-.094.056-.094.058-.09.057-.091.06-.091.06-.088.06-.089.063-.089.064-.087.064-.087.066-.085.066-.085.068-.084.068-.083.069-.082.07-.082.072-.08.073-.081.074-.078.073-.078.076-.078.076-.075.077-.075.078-.075.079-.073.079-.072.081-.073.083-.069.081-.07.083-.069.085-.066.083-.067.086-.066.087-.064.087-.064.089-.063.089-.06.088-.06.091-.059.09-.059.093-.057.093-.056.092-.054.094-.054.094-.053.096-.051.095-.05.097-.049.098-.048.097-.047.098-.046.1-.044.1-.043.1-.042.101-.041.101-.04.103-.038.103-.037.103-.036.103-.034.105-.034.105-.032.105-.031.107-.029.106-.029.107-.027.108-.025.108-.025.109-.023.109-.022.11-.02.11-.019.111-.018.112-.016.111-.015.112-.014.112-.012.114-.011.114-.01.114-.008.115-.006.116-.005.115-.004.116-.002.116-.001.118.001.117.002.117.004.116.005.115.006.115.009.116.009.114.011.114.012.114.014.112.015.112.016.111.018.112.019.111.02.11.022.11.023.109.025.109.025.108.027.108.029.107.029.106.031.107.032.105.034.106.034.103.036.104.037.104.038.102.04.103.041.101.042.101.043.1.045.1.045.099.047.099.048.098.049.096.05.097.051.096.053.096.054.095.055.094.055.091.057.093.058.092.06.091.06.091.06.088.063.09.063.087.065.088.066.087.066.085.068.085.068.084.07.083.07.082.071.081.073.082.074.08.073.077.075.078.077.079.078.076.077.075.078.073.08.074.081.073.082.072.081.069.084.07.085.069.084.067.085.066.087.066.087.064.089.064.088.062.09.062.09.059.091.06.092.058.092.057.093.055.093.055.095.054.096.052.096.052.097.05.097.05.097.047.098.047.1.046.1.044.099.043.102.042.102.041.101.039.103.039.103.037.106.036.104.035.103.032.106.033.108.031.104.029.107.028.11.028.107.026.108.024.11.023.11.022.11.02.111.019.112.018.112.017.112.015.11.013.115.012.114.011.113.009.117.009.115.006.115.005.116.004.116.002.118.001.118-.001.116-.002.116-.004.115-.005.115-.006.117-.009.113-.009.114-.011.115-.012.11-.013.112-.015.112-.017.112-.018.111-.019.11-.02.11-.022.11-.023.108-.025.107-.025.11-.028.107-.028.104-.029.108-.031.106-.032.102-.033.105-.035.106-.036.103-.037.103-.039.101-.039.102-.041.102-.042.099-.043.099-.044.101-.047.098-.046.097-.047.098-.05.096-.05.096-.052.096-.052.095-.054.093-.054.092-.056.093-.057.093-.059.09-.058.09-.06.091-.062.087-.062.089-.064.087-.064.087-.066.085-.066.084-.067.085-.069.084-.07.081-.069.082-.072.081-.073.08-.074.078-.073.077-.075.078-.076.077-.078.075-.079.073-.077.074-.08.073-.082.071-.081.07-.082.07-.083.068-.084.068-.085.066-.085.066-.087.065-.088.063-.087.063-.09.06-.088.06-.091.06-.091.058-.091.057-.093.055-.093.055-.094.054-.094.053-.096.051-.096.05-.097.049-.096.048-.098.047-.099.045-.099.045-.1.043-.1.042-.101.041-.101.04-.103.038-.102.037-.103.036-.105.035-.104.033-.105.032-.105.031-.107.029-.106.029-.107.027-.108.025-.108.025-.109.023-.109.022-.11.02-.11.019-.111.018-.111.016-.111.015-.114.014-.112.012-.113.011-.114.01-.114.008-.116.006-.114.005-.116.004-.117.002-.116.001-.117-.001-.118-.002-.115-.004-.117-.005-.116-.006-.115-.008-.115-.01-.114-.011-.114-.012-.113-.014-.112-.015-.114-.016-.111-.018-.111-.019-.111-.02-.11-.022-.11-.023-.109-.025-.109-.025-.108-.027-.108-.029-.107-.029-.106-.031-.107-.032-.105-.033-.104-.035-.106-.036-.104-.037-.102-.038-.103-.04-.103-.041-.101-.042-.101-.043-.1-.044-.1-.046-.1-.047-.098-.048-.097-.049-.098-.05-.097-.051-.095-.053-.096-.053-.093-.055-.094-.056-.094-.057-.093-.059-.092-.059-.09-.06-.091-.06-.088-.063-.089-.064-.089-.064-.087-.066-.087-.067-.086-.066-.083-.069-.085-.07-.083-.069-.081-.073-.083-.072-.081-.073-.079-.075-.079-.075-.079-.075-.076-.078-.076-.078-.076-.078-.073-.081-.074-.08-.073-.082-.072-.082-.07-.083-.069-.084-.068-.085-.068-.085-.066-.087-.066-.087-.064-.089-.064-.089-.063-.088-.06-.091-.061-.09-.059-.091-.057-.095-.058-.094-.056-.092-.054-.094-.054-.096-.053-.096-.051-.096-.05-.097-.049-.098-.048-.1-.047-.097-.045-.1-.044-.102-.044-.1-.042-.1-.04-.105-.041-.103-.038-.101-.037-.104-.036-.105-.034-.106-.034-.104-.032-.106-.031-.108-.03-.107-.028-.106-.027-.109-.025-.11-.025-.108-.023-.11-.022-.11-.02-.111-.019-.11-.018-.112-.016-.114-.015-.112-.014-.113-.012-.114-.011-.115-.01-.113-.008-.117-.006-.115-.005-.116-.004-.116-.002-.118-.001-.117.001z" fill="#e74b3c"/></svg>