<svg clip-rule="evenodd" fill-rule="evenodd" stroke-linejoin="round" stroke-miterlimit="1.41421" viewBox="0 0 120 120" xmlns="http://www.w3.org/2000/svg"><g fill="#3497da"><path d="m43 86-4-4h8z"/><path d="m0 79.126h3.201l1.236 4.791 1.23-4.791h3.19v7.874h-1.987v-6.005l-1.542 6.005h-1.799l-1.536-6.005v6.005h-1.993v-7.874z" fill-rule="nonzero"/><path d="m10.103 83.068c0-1.285.358-2.286 1.074-3.002s1.714-1.074 2.992-1.074c1.31 0 2.32.352 3.029 1.055.709.704 1.064 1.689 1.064 2.957 0 .92-.155 1.675-.465 2.264s-.757 1.047-1.343 1.375c-.585.327-1.315.491-2.188.491-.888 0-1.623-.141-2.205-.424s-1.054-.731-1.415-1.343c-.362-.612-.543-1.378-.543-2.299zm2.433.011c0 .795.148 1.366.443 1.713.296.348.698.521 1.206.521.523 0 .927-.17 1.214-.51.286-.34.43-.95.43-1.831 0-.742-.15-1.283-.449-1.625s-.704-.513-1.216-.513c-.491 0-.885.174-1.182.521s-.446.922-.446 1.724z" fill-rule="nonzero"/><path d="m19.604 87v-7.874h4.056c.752 0 1.326.064 1.724.193.397.129.718.368.961.717.244.349.365.775.365 1.276 0 .437-.093.814-.279 1.131s-.442.573-.768.77c-.208.126-.492.23-.854.312.29.097.501.193.634.29.089.064.219.202.389.414.17.211.284.374.341.488l1.177 2.283h-2.75l-1.3-2.406c-.165-.312-.312-.514-.441-.607-.175-.122-.374-.183-.596-.183h-.215v3.196zm2.444-4.684h1.026c.111 0 .326-.035.645-.107.161-.032.292-.115.395-.247.102-.133.153-.285.153-.457 0-.254-.081-.449-.242-.585s-.464-.204-.908-.204h-1.069z" fill-rule="nonzero"/><path d="m28.123 79.126h6.521v1.681h-4.082v1.252h3.786v1.606h-3.786v1.552h4.2v1.783h-6.639z" fill-rule="nonzero"/></g><path d="m0 63h108v8h-108z" fill="#e0e5e6"/><path d="m0 47h96v8h-96z" fill="#e0e5e6"/><path d="m0 31h120v8h-120z" fill="#e0e5e6"/></svg>