<svg clip-rule="evenodd" fill-rule="evenodd" stroke-linejoin="round" stroke-miterlimit="2" viewBox="0 0 20 20" xmlns="http://www.w3.org/2000/svg"><path d="m4 6.143v12.824l5.065-2.17 6 3 4.935-2.117v-12.823l1.303-.558c.062-.027.129-.04.197-.04.274 0 .5.225.5.5v14.241l-7 3-6-3-6.303 2.701c-.062.027-.129.04-.197.04-.274 0-.5-.225-.5-.5v-14.241zm12.243 5.1-4.243 4.242-4.243-4.242c-1.125-1.125-1.757-2.652-1.757-4.242 0-3.292 2.708-6 6-6s6 2.708 6 6c0 1.59-.632 3.117-1.757 4.242zm-4.243 1.414 2.828-2.829c.75-.75 1.172-1.768 1.172-2.829 0-2.194-1.806-4-4-4s-4 1.806-4 4c0 1.061.422 2.079 1.172 2.829z" fill="#f2af0d" fill-rule="nonzero" transform="matrix(.900068 0 0 .857206 -.801 .141)"/></svg>