<svg clip-rule="evenodd" fill-rule="evenodd" stroke-linejoin="round" stroke-miterlimit="1.41421" viewBox="0 0 120 120" xmlns="http://www.w3.org/2000/svg"><path d="m120 94h-120l30-30h60zm-88.343-26-22 22h100.686l-22-22z" fill="#e0e5e6"/><path d="m40 46c13.05 18.093 26.375 18.433 40 0-.51 12.059-7.152 24.059-20 36-12.848-11.941-19.49-23.941-20-36z" fill="#e74b3c"/><path d="m60.129 26 .129.002.129.002.129.003.128.003.129.005.128.005.128.006.127.007.128.008.127.008.127.009.127.01.126.011.127.012.126.012.126.014.125.014.126.014.125.016.125.016.124.017.125.018.124.019.124.019.124.02.123.021.123.022.123.022.123.023.122.024.123.025.121.025.122.026.121.027.121.028.121.028.121.029.12.03.12.03.119.031.12.032.119.033.119.033.118.034.118.035.118.036.118.036.117.037.117.037.116.039.117.039.116.039.115.041.116.041.115.041.114.043.115.043.114.044.113.044.227.091.225.094.223.096.223.099.22.101.22.104.217.107.217.109.215.112.213.114.212.117.21.119.208.122.207.124.206.127.204.129.202.131.2.134.199.136.197.138.195.141.193.142.192.146.19.147.188.15.186.151.184.154.183.157.18.158.179.16.176.163.175.164.173.167.17.169.169.17.167.173.164.175.163.176.16.179.158.18.157.183.154.184.151.186.15.188.147.19.146.192.142.193.141.195.138.197.136.199.134.2.131.202.129.204.127.206.124.207.122.208.119.21.117.212.114.213.112.215.109.217.107.217.104.22.101.22.099.223.096.223.094.225.091.227.044.113.044.114.043.115.043.114.041.115.041.116.041.115.039.116.039.117.039.116.037.117.037.117.036.118.036.118.035.118.034.118.033.119.033.119.032.12.031.119.03.12.03.12.029.121.028.121.028.121.027.121.026.122.025.121.025.123.024.122.023.123.022.123.022.123.021.123.02.124.019.124.019.124.018.125.017.124.016.125.016.125.014.126.014.125.014.126.012.126.012.127.011.126.01.127.009.127.008.127.008.128.007.127.006.128.005.128.005.129.003.128.003.129.002.129.002.129v.129.129l-.002.129-.002.129-.003.129-.003.128-.005.129-.005.128-.006.128-.007.127-.008.128-.008.127-.009.127-.01.127-.011.126-.012.127-.012.126-.014.126-.014.125-.014.126-.016.125-.016.125-.017.124-.018.125-.019.124-.019.124-.02.124-.021.123-.022.123-.022.123-.023.123-.024.122-.025.123-.025.121-.026.122-.027.121-.028.121-.028.121-.029.121-.03.12-.03.12-.031.119-.032.12-.033.119-.033.119-.034.118-.035.118-.036.118-.036.118-.037.117-.037.117-.039.116-.039.117-.039.116-.041.115-.041.116-.041.115-.043.114-.043.115-.044.114-.044.113-.091.227-.094.225-.096.223-.099.223-.101.22-.104.22-.107.217-.109.217-.112.215-.114.213-.117.212-.119.21-.122.208-.124.207-.127.206-.129.204-.131.202-.134.2-.136.199-.138.197-.141.195-.142.193-.146.192-.147.19-.15.188-.151.186-.154.184-.157.183-.158.18-.16.179-.163.176-.164.175-.167.173-.169.17-.17.169-.173.167-.175.164-.176.163-.179.16-.18.158-.183.157-.184.154-.186.151-.188.15-.19.147-.192.146-.193.142-.195.141-.197.138-.199.136-.2.134-.202.131-.204.129-.206.127-.207.124-.208.122-.21.119-.212.117-.213.114-.215.112-.217.109-.217.107-.22.104-.22.101-.223.099-.223.096-.225.094-.227.091-.113.044-.114.044-.115.043-.114.043-.115.041-.116.041-.115.041-.116.039-.117.039-.116.039-.117.037-.117.037-.118.036-.118.036-.118.035-.118.034-.119.033-.119.033-.12.032-.119.031-.12.03-.12.03-.121.029-.121.028-.121.028-.121.027-.122.026-.121.025-.123.025-.122.024-.123.023-.123.022-.123.022-.123.021-.124.02-.124.019-.124.019-.125.018-.124.017-.125.016-.125.016-.126.014-.125.014-.126.014-.126.012-.127.012-.126.011-.127.01-.127.009-.127.008-.128.008-.127.007-.128.006-.128.005-.129.005-.128.003-.129.003-.129.002-.129.002h-.129-.129l-.129-.002-.129-.002-.129-.003-.128-.003-.129-.005-.128-.005-.128-.006-.127-.007-.128-.008-.127-.008-.127-.009-.127-.01-.126-.011-.127-.012-.126-.012-.126-.014-.125-.014-.126-.014-.125-.016-.125-.016-.124-.017-.125-.018-.124-.019-.124-.019-.124-.02-.123-.021-.123-.022-.123-.022-.123-.023-.122-.024-.123-.025-.121-.025-.122-.026-.121-.027-.121-.028-.121-.028-.121-.029-.12-.03-.12-.03-.119-.031-.12-.032-.119-.033-.119-.033-.118-.034-.118-.035-.118-.036-.118-.036-.117-.037-.117-.037-.116-.039-.117-.039-.116-.039-.115-.041-.116-.041-.115-.041-.114-.043-.115-.043-.114-.044-.113-.044-.227-.091-.225-.094-.223-.096-.223-.099-.22-.101-.22-.104-.217-.107-.217-.109-.215-.112-.213-.114-.212-.117-.21-.119-.208-.122-.207-.124-.206-.127-.204-.129-.202-.131-.2-.134-.199-.136-.197-.138-.195-.141-.193-.142-.192-.146-.19-.147-.188-.15-.186-.151-.184-.154-.183-.157-.18-.158-.179-.16-.176-.163-.175-.164-.173-.167-.17-.169-.169-.17-.167-.173-.164-.175-.163-.176-.16-.179-.158-.18-.157-.183-.154-.184-.151-.186-.15-.188-.147-.19-.146-.192-.142-.193-.141-.195-.138-.197-.136-.199-.134-.2-.131-.202-.129-.204-.127-.206-.124-.207-.122-.208-.119-.21-.117-.212-.114-.213-.112-.215-.109-.217-.107-.217-.104-.22-.101-.22-.099-.223-.096-.223-.094-.225-.091-.227-.044-.113-.044-.114-.043-.115-.043-.114-.041-.115-.041-.116-.041-.115-.039-.116-.039-.117-.039-.116-.037-.117-.037-.117-.036-.118-.036-.118-.035-.118-.034-.118-.033-.119-.033-.119-.032-.12-.031-.119-.03-.12-.03-.12-.029-.121-.028-.121-.028-.121-.027-.121-.026-.122-.025-.121-.025-.123-.024-.122-.023-.123-.022-.123-.022-.123-.021-.123-.02-.124-.019-.124-.019-.124-.018-.125-.017-.124-.016-.125-.016-.125-.014-.126-.014-.125-.014-.126-.012-.126-.012-.127-.011-.126-.01-.127-.009-.127-.008-.127-.008-.128-.007-.127-.006-.128-.005-.128-.005-.129-.003-.128-.003-.129-.002-.129-.002-.129v-.129-.129l.002-.129.002-.129.003-.129.003-.128.005-.129.005-.128.006-.128.007-.127.008-.128.008-.127.009-.127.01-.127.011-.126.012-.127.012-.126.014-.126.014-.125.014-.126.016-.125.016-.125.017-.124.018-.125.019-.124.019-.124.02-.124.021-.123.022-.123.022-.123.023-.123.024-.122.025-.123.025-.121.026-.122.027-.121.028-.121.028-.121.029-.121.03-.12.03-.12.031-.119.032-.12.033-.119.033-.119.034-.118.035-.118.036-.118.036-.118.037-.117.037-.117.039-.116.039-.117.039-.116.041-.115.041-.116.041-.115.043-.114.043-.115.044-.114.044-.113.091-.227.094-.225.096-.223.099-.223.101-.22.104-.22.107-.217.109-.217.112-.215.114-.213.117-.212.119-.21.122-.208.124-.207.127-.206.129-.204.131-.202.134-.2.136-.199.138-.197.141-.195.142-.193.146-.192.147-.19.15-.188.151-.186.154-.184.157-.183.158-.18.16-.179.163-.176.164-.175.167-.173.169-.17.17-.169.173-.167.175-.164.176-.163.179-.16.18-.158.183-.157.184-.154.186-.151.188-.15.19-.147.192-.146.193-.142.195-.141.197-.138.199-.136.2-.134.202-.131.204-.129.206-.127.207-.124.208-.122.21-.119.212-.117.213-.114.215-.112.217-.109.217-.107.22-.104.22-.101.223-.099.223-.096.225-.094.227-.091.113-.044.114-.044.115-.043.114-.043.115-.041.116-.041.115-.041.116-.039.117-.039.116-.039.117-.037.117-.037.118-.036.118-.036.118-.035.118-.034.119-.033.119-.033.12-.032.119-.031.12-.03.12-.03.121-.029.121-.028.121-.028.121-.027.122-.026.121-.025.123-.025.122-.024.123-.023.123-.022.123-.022.123-.021.124-.02.124-.019.124-.019.125-.018.124-.017.125-.016.125-.016.126-.014.125-.014.126-.014.126-.012.127-.012.126-.011.127-.01.127-.009.127-.008.128-.008.127-.007.128-.006.128-.005.129-.005.128-.003.129-.003.129-.002.129-.002h.129zm-.208 8-.079.001-.078.001-.074.002-.081.002-.078.003-.076.003-.081.004-.072.004-.076.004-.08.006-.079.005-.075.006-.074.007-.074.007-.078.007-.078.008-.073.009-.077.009-.072.009-.077.01-.075.01-.072.01-.075.012-.075.011-.075.012-.074.013-.074.013-.073.013-.073.014-.073.014-.073.015-.072.015-.072.015-.075.017-.072.016-.07.017-.075.018-.07.017-.07.018-.073.019-.074.02-.068.019-.069.019-.072.021-.072.021-.071.021-.068.021-.07.022-.071.023-.066.022-.073.024-.07.024-.069.024-.069.025-.065.023-.068.025-.071.027-.068.026-.056.022-.148.059-.133.056-.134.058-.133.059-.131.06-.132.063-.131.064-.129.065-.129.067-.128.069-.126.069-.125.071-.127.074-.124.075-.123.075-.122.078-.122.078-.121.081-.118.081-.119.084-.118.085-.117.086-.115.087-.114.089-.113.09-.113.092-.11.092-.109.094-.109.095-.109.097-.107.099-.104.098-.104.101-.103.102-.102.103-.101.104-.099.105-.098.106-.096.108-.096.109-.094.11-.092.111-.092.112-.09.113-.089.114-.088.117-.085.115-.085.118-.084.119-.081.119-.08.119-.079.122-.078.123-.076.124-.074.123-.073.125-.071.126-.071.128-.068.127-.067.128-.066.131-.063.13-.062.131-.061.132-.059.133-.058.133-.056.136-.058.145-.022.056-.027.07-.026.068-.025.068-.025.068-.024.07-.025.069-.023.067-.023.07-.024.072-.022.069-.022.07-.021.069-.022.071-.02.071-.02.069-.021.072-.019.071-.019.07-.018.072-.019.072-.018.073-.017.071-.017.071-.016.073-.016.073-.016.073-.015.072-.015.072-.014.074-.014.073-.013.074-.013.074-.013.073-.012.074-.011.074-.011.075-.011.075-.01.074-.01.076-.009.074-.009.076-.009.075-.008.076-.007.076-.007.075-.007.076-.006.077-.005.076-.005.077-.005.078-.004.076-.004.077-.003.078-.003.078-.002.077-.002.078-.001.078-.001.078v.079.079l.001.078.001.078.002.078.002.077.003.078.003.078.004.077.004.076.005.078.005.077.005.076.006.077.007.076.007.075.007.076.008.076.009.075.009.076.009.074.01.076.01.074.011.075.011.075.011.074.012.074.013.073.013.074.013.074.014.073.014.074.015.072.015.072.016.073.016.073.016.073.017.071.017.071.018.073.019.072.018.072.019.07.019.071.021.072.02.069.02.071.022.071.021.069.022.07.022.069.024.072.023.07.023.067.025.069.024.07.025.068.025.068.026.068.027.07.022.056.058.145.056.136.058.133.059.133.061.132.062.131.063.13.066.131.067.128.068.127.071.128.071.126.073.125.074.123.076.124.078.123.079.122.08.119.081.119.084.119.085.118.085.115.088.117.089.114.09.113.092.112.092.111.094.11.096.109.096.108.098.106.099.105.101.104.102.103.103.102.104.101.104.098.107.099.109.097.109.095.109.094.11.092.113.092.113.09.114.089.115.087.117.086.118.085.119.084.118.081.121.081.122.078.122.078.123.075.124.075.127.074.125.071.126.069.128.069.129.067.129.065.131.064.132.063.131.06.133.059.134.058.133.056.148.059.056.022.068.026.071.027.068.025.065.023.069.025.069.024.07.024.073.024.066.022.071.023.07.022.068.021.071.021.072.021.072.021.069.019.068.019.074.02.073.019.07.018.07.017.075.018.07.017.072.016.075.017.072.015.072.015.073.015.073.014.073.014.073.013.074.013.074.013.075.012.075.011.075.012.072.01.075.01.077.01.072.009.077.009.073.009.078.008.078.007.074.007.074.007.075.006.079.005.08.006.076.004.072.004.081.004.076.003.078.003.081.002.074.002.078.001.079.001h.079.079l.079-.001.078-.001.074-.002.081-.002.078-.003.076-.003.081-.004.072-.004.076-.004.08-.006.079-.005.075-.006.074-.007.074-.007.078-.007.078-.008.073-.009.077-.009.072-.009.077-.01.075-.01.072-.01.075-.012.075-.011.075-.012.074-.013.074-.013.073-.013.073-.014.073-.014.073-.015.072-.015.072-.015.075-.017.072-.016.07-.017.075-.018.07-.017.07-.018.073-.019.074-.02.068-.019.069-.019.072-.021.072-.021.071-.021.068-.021.07-.022.071-.023.066-.022.073-.024.07-.024.069-.024.069-.025.065-.023.068-.025.071-.027.068-.026.056-.022.148-.059.133-.056.134-.058.133-.059.131-.06.132-.063.131-.064.129-.065.129-.067.128-.069.126-.069.125-.071.127-.074.124-.075.123-.075.122-.078.122-.078.121-.081.118-.081.119-.084.118-.085.117-.086.115-.087.114-.089.113-.09.113-.092.11-.092.109-.094.109-.095.109-.097.107-.099.104-.098.104-.101.104-.102.101-.103.1-.103.099-.105.099-.108.096-.107.096-.11.094-.109.092-.11.093-.114.089-.112.089-.115.088-.116.085-.115.085-.118.084-.119.081-.118.08-.12.079-.122.078-.124.076-.123.074-.123.073-.125.071-.126.071-.128.068-.127.067-.129.066-.13.063-.13.063-.131.06-.132.059-.133.058-.133.056-.136.058-.145.023-.057.026-.068.025-.068.026-.07.025-.067.024-.07.025-.069.023-.068.023-.068.023-.072.023-.07.022-.069.021-.071.022-.071.02-.07.021-.07.02-.071.019-.071.019-.07.018-.072.019-.072.018-.073.017-.072.017-.07.016-.071.016-.075.016-.074.015-.071.015-.072.014-.074.014-.073.013-.073.013-.074.013-.074.012-.075.012-.075.01-.073.011-.074.01-.075.01-.077.01-.074.008-.073.009-.077.008-.076.007-.076.007-.076.007-.074.006-.079.005-.075.005-.076.005-.078.004-.078.004-.077.003-.077.003-.077.002-.077.002-.08.001-.076.001-.079v-.079-.079l-.001-.079-.001-.076-.002-.08-.002-.077-.003-.077-.003-.077-.004-.077-.004-.078-.005-.078-.005-.076-.005-.075-.006-.079-.007-.074-.007-.076-.007-.076-.008-.076-.009-.077-.008-.073-.01-.074-.01-.077-.01-.075-.011-.074-.01-.073-.012-.075-.012-.075-.013-.074-.013-.074-.013-.073-.014-.073-.014-.074-.015-.072-.015-.071-.016-.074-.016-.075-.016-.071-.017-.07-.017-.072-.018-.073-.019-.072-.018-.072-.019-.07-.019-.071-.02-.071-.021-.07-.02-.07-.022-.071-.021-.071-.022-.069-.023-.07-.023-.072-.023-.068-.023-.068-.025-.069-.024-.07-.025-.067-.026-.07-.025-.068-.026-.068-.023-.057-.058-.145-.056-.136-.058-.133-.059-.133-.06-.132-.063-.131-.063-.13-.066-.13-.067-.129-.068-.127-.071-.128-.071-.126-.073-.125-.074-.123-.076-.123-.078-.124-.079-.122-.08-.12-.081-.118-.084-.119-.085-.118-.085-.115-.088-.116-.089-.115-.089-.112-.093-.114-.092-.11-.094-.109-.096-.11-.096-.107-.099-.108-.099-.105-.1-.103-.101-.103-.104-.102-.104-.101-.104-.098-.107-.099-.109-.097-.109-.095-.109-.094-.11-.092-.113-.092-.113-.09-.114-.089-.115-.087-.117-.086-.118-.085-.119-.084-.118-.081-.121-.081-.122-.078-.122-.078-.123-.075-.124-.075-.127-.074-.125-.071-.126-.069-.128-.069-.129-.067-.129-.065-.131-.064-.132-.063-.131-.06-.133-.059-.134-.058-.133-.056-.148-.059-.056-.022-.068-.026-.071-.027-.068-.025-.065-.023-.069-.025-.069-.024-.07-.024-.073-.024-.066-.022-.071-.023-.07-.022-.068-.021-.071-.021-.072-.021-.072-.021-.069-.019-.068-.019-.074-.02-.073-.019-.07-.018-.07-.017-.075-.018-.07-.017-.072-.016-.075-.017-.072-.015-.072-.015-.073-.015-.073-.014-.073-.014-.073-.013-.074-.013-.074-.013-.075-.012-.075-.011-.075-.012-.072-.01-.075-.01-.077-.01-.072-.009-.077-.009-.073-.009-.078-.008-.078-.007-.074-.007-.074-.007-.075-.006-.079-.005-.08-.006-.076-.004-.072-.004-.081-.004-.076-.003-.078-.003-.081-.002-.074-.002-.078-.001-.079-.001h-.079z" fill="#e74b3c"/></svg>