<svg clip-rule="evenodd" fill-rule="evenodd" stroke-linejoin="round" stroke-miterlimit="1.41421" viewBox="0 0 120 120" xmlns="http://www.w3.org/2000/svg"><path d="m0 102.09h111.429v8h-111.429z" fill="#e0e5e6"/><path d="m0 86.09h120v8h-120z" fill="#e0e5e6"/><path d="m0 70.09h107.143v8h-107.143z" fill="#e0e5e6"/><path d="m0 54.09h120v8h-120z" fill="#e0e5e6"/><path d="m0 38.09h95.357v8h-95.357z" fill="#e0e5e6"/><g fill="#95a5a6" fill-rule="nonzero"><path d="m0 10h3.981v4.509h4.351v-4.509h3.999v12.885h-3.999v-5.212h-4.351v5.212h-3.981v-12.885z"/><path d="m14.968 10h10.67v2.751h-6.68v2.048h6.196v2.628h-6.196v2.54h6.873v2.918h-10.863z"/><path d="m35.903 20.758h-4.535l-.624 2.127h-4.069l4.843-12.885h4.341l4.843 12.885h-4.166zm-.835-2.786-1.423-4.632-1.416 4.632z"/><path d="m42.029 10h5.915c1.166 0 2.108.158 2.826.475.718.316 1.311.77 1.78 1.362s.808 1.28 1.019 2.065c.211.786.317 1.618.317 2.496 0 1.377-.157 2.445-.47 3.204-.314.759-.749 1.395-1.306 1.907-.556.513-1.154.854-1.793 1.024-.873.235-1.664.352-2.373.352h-5.915zm3.982 2.918v7.04h.975c.832 0 1.424-.092 1.776-.277.351-.184.627-.507.826-.967s.299-1.205.299-2.236c0-1.366-.223-2.3-.668-2.804-.446-.504-1.184-.756-2.215-.756z"/><path d="m56.136 10h3.99v12.885h-3.99z"/><path d="m63.009 10h3.718l4.851 7.128v-7.128h3.753v12.885h-3.753l-4.825-7.075v7.075h-3.744z"/><path d="m84.454 18.218v-2.681h6.152v5.493c-1.177.803-2.219 1.349-3.124 1.639s-1.979.435-3.221.435c-1.53 0-2.776-.26-3.74-.782-.964-.521-1.711-1.298-2.241-2.329s-.796-2.215-.796-3.551c0-1.406.29-2.629.87-3.669.581-1.04 1.43-1.83 2.549-2.369.873-.416 2.048-.624 3.525-.624 1.424 0 2.489.129 3.195.387s1.292.658 1.757 1.2c.466.542.816 1.229 1.051 2.061l-3.841.685c-.158-.486-.426-.858-.804-1.116s-.86-.387-1.446-.387c-.873 0-1.569.304-2.088.91-.518.606-.777 1.566-.777 2.878 0 1.395.262 2.391.786 2.989.525.597 1.256.896 2.193.896.445 0 .87-.064 1.275-.193.404-.129.867-.349 1.388-.659v-1.213z"/></g></svg>