<svg clip-rule="evenodd" fill-rule="evenodd" stroke-linejoin="round" stroke-miterlimit="2" viewBox="0 0 20 20" xmlns="http://www.w3.org/2000/svg"><path d="m15.243 4.515-6.738 6.737-.707 2.121-1.04 1.041 2.828 2.829 1.04-1.041 2.122-.707 6.737-6.738zm6.364 3.535c.388.388.388 1.026 0 1.414l-7.779 7.779-2.12.707-1.415 1.414c-.388.388-1.026.388-1.414 0l-4.243-4.243c-.388-.388-.388-1.026 0-1.414l1.414-1.414.707-2.121 7.779-7.779c.388-.388 1.026-.388 1.414 0zm-6.364-.707 1.414 1.414-4.95 4.95-1.414-1.414zm-10.96 9.547 2.828 2.829-1.414 1.414-4.243-1.414 2.828-2.829z" fill="#0d79f2" fill-rule="nonzero" transform="matrix(.97829 0 0 1.05093 -1.422 -2.2092)"/></svg>