<svg clip-rule="evenodd" fill-rule="evenodd" stroke-linejoin="round" stroke-miterlimit="2" viewBox="0 0 20 20" xmlns="http://www.w3.org/2000/svg"><path d="m20 13c-1.678 0-3.249.46-4.593 1.259 1.197 1.399 2.126 3.006 2.74 4.741h1.853zm-3.996 6c-1.96-4.698-6.596-8-12.004-8v8zm-12.004-10c3.83 0 7.323 1.435 9.974 3.796 1.79-1.175 3.885-1.799 6.026-1.796v-8h1.008c.548 0 .992.445.992.993v16.014c-.004.543-.449.989-.992.993h-18.016c-.544-.001-.992-.449-.992-.993v-16.014c.004-.543.449-.989.992-.993h3.008v-2h2v4h-4zm14-8v4h-8v-2h6v-2zm-1.5 9c-.823 0-1.5-.677-1.5-1.5s.677-1.5 1.5-1.5 1.5.677 1.5 1.5-.677 1.5-1.5 1.5z" fill="#f25e0d" fill-rule="nonzero" transform="matrix(.9 0 0 .9 -.8 .1)"/></svg>