<svg clip-rule="evenodd" fill-rule="evenodd" stroke-linejoin="round" stroke-miterlimit="2" viewBox="0 0 20 20" xmlns="http://www.w3.org/2000/svg"><path d="m10.9 2.1 9.899 1.415 1.414 9.9-9.192 9.192c-.388.388-1.026.388-1.414 0l-9.9-9.9c-.388-.388-.388-1.026 0-1.414zm.707 2.122-7.779 7.778 8.486 8.485 7.778-7.778-1.06-7.425zm2.12 6.364c-.375-.375-.586-.884-.586-1.415 0-1.097.903-2 2.001-2 .531 0 1.04.211 1.415.586s.586.884.586 1.414c0 1.098-.903 2.001-2.001 2.001-.531 0-1.04-.211-1.415-.586z" fill="#0d79f2" fill-rule="nonzero" transform="matrix(.865521 0 0 .865521 -.226 -.8176)"/></svg>