<svg clip-rule="evenodd" fill-rule="evenodd" stroke-linejoin="round" stroke-miterlimit="2" viewBox="0 0 20 20" xmlns="http://www.w3.org/2000/svg"><path d="m18.031 16.617 4.283 4.282-1.415 1.415-4.282-4.283c-1.593 1.277-3.575 1.972-5.617 1.969-4.968 0-9-4.032-9-9s4.032-9 9-9 9 4.032 9 9c.003 2.042-.692 4.024-1.969 5.617zm-2.006-.742c1.269-1.305 1.978-3.055 1.975-4.875 0-3.868-3.133-7-7-7-3.868 0-7 3.132-7 7 0 3.867 3.132 7 7 7 1.82.003 3.57-.706 4.875-1.975z" fill="#f25e0d" fill-rule="nonzero" transform="matrix(.984543 0 0 .984543 -1.9691 -1.969)"/></svg>