<svg clip-rule="evenodd" fill-rule="evenodd" stroke-linejoin="round" stroke-miterlimit="2" viewBox="0 0 20 20" xmlns="http://www.w3.org/2000/svg"><path d="m8 4h13v2h-13zm-3.5 2.5c-.823 0-1.5-.677-1.5-1.5s.677-1.5 1.5-1.5 1.5.677 1.5 1.5-.677 1.5-1.5 1.5zm0 7c-.823 0-1.5-.677-1.5-1.5s.677-1.5 1.5-1.5 1.5.677 1.5 1.5-.677 1.5-1.5 1.5zm0 6.9c-.823 0-1.5-.677-1.5-1.5s.677-1.5 1.5-1.5 1.5.677 1.5 1.5-.677 1.5-1.5 1.5zm3.5-9.4h13v2h-13zm0 7h13v2h-13z" fill="#0d79f2" fill-rule="nonzero" transform="matrix(1 0 0 .946746 -2 -1.3136)"/></svg>