<svg clip-rule="evenodd" fill-rule="evenodd" stroke-linejoin="round" stroke-miterlimit="2" viewBox="0 0 20 20" xmlns="http://www.w3.org/2000/svg"><path d="m1 2.995c0-1.102.893-1.995 1.995-1.995h14.01c1.102 0 1.995.893 1.995 1.995v14.01c0 1.094-.901 1.995-1.995 1.995h-14.01c-1.094 0-1.995-.901-1.995-1.995v-14.01zm2 .005v14h14v-14zm2.972 13.18c-.615-.266-1.202-.594-1.751-.978 1.287-1.995 3.506-3.203 5.881-3.202 2.4 0 4.517 1.207 5.778 3.047-.539.399-1.116.742-1.724 1.025-.939-1.301-2.449-2.073-4.054-2.072-1.715 0-3.23.864-4.13 2.18zm4.028-5.18c-1.92 0-3.5-1.58-3.5-3.5s1.58-3.5 3.5-3.5 3.5 1.58 3.5 3.5-1.58 3.5-3.5 3.5zm0-2c.823 0 1.5-.677 1.5-1.5s-.677-1.5-1.5-1.5-1.5.677-1.5 1.5.677 1.5 1.5 1.5z" fill="#da2525" fill-rule="nonzero"/></svg>