<svg clip-rule="evenodd" fill-rule="evenodd" stroke-linejoin="round" stroke-miterlimit="2" viewBox="0 0 20 20" xmlns="http://www.w3.org/2000/svg"><path d="m14 14.251v2.091c-.642-.227-1.319-.343-2-.343-3.292 0-6 2.708-6 6v.001l-2-.001c0-.001 0-.001 0-.002 0-4.389 3.611-8 8-8 .675 0 1.347.085 2 .254zm-2-1.251c-3.315 0-6-2.685-6-6s2.685-6 6-6 6 2.685 6 6-2.685 6-6 6zm0-2c2.21 0 4-1.79 4-4s-1.79-4-4-4-4 1.79-4 4 1.79 4 4 4zm5.793 8.914 3.535-3.535 1.415 1.414-4.95 4.95-3.536-3.536 1.415-1.414 2.12 2.121z" fill="#8b40bf" fill-rule="nonzero" transform="matrix(.853652 0 0 .827853 -1.415 .172)"/></svg>