<svg clip-rule="evenodd" fill-rule="evenodd" stroke-linejoin="round" stroke-miterlimit="1.41421" viewBox="0 0 120 120" xmlns="http://www.w3.org/2000/svg"><g fill-rule="nonzero"><g fill="#e0e5e6"><path d="m16.497 90.053-15.078-6.306v-3.947l15.078-6.293v4.733l-9.164 3.547 9.164 3.56z"/><path d="m19.852 72h7.904l3.05 11.893 3.036-11.893h7.878v19.547h-4.907v-14.907l-3.806 14.907h-4.443l-3.792-14.907v14.907h-4.92z"/><path d="m45.539 72h16.099v4.173h-10.079v3.107h9.349v3.987h-9.349v3.853h10.37v4.427h-16.39z"/><path d="m63.799 72h18.261v4.827h-6.127v14.72h-6.007v-14.72h-6.127z"/><path d="m94.897 88.32h-6.843l-.942 3.227h-6.14l7.307-19.547h6.551l7.307 19.547h-6.286zm-1.26-4.227-2.148-7.026-2.135 7.026z"/><path d="m103.503 90.053 15.078-6.306v-3.947l-15.078-6.293v4.733l9.164 3.547-9.164 3.56z"/></g><path d="m55.959 28h7.974l-.649 5.356c-.145 1.301-.446 2.779-.903 4.434.915-.449 1.516-.757 1.805-.922 1.01-.544 1.78-.934 2.309-1.171l5.015-2.341 2.49 7.484-5.557 1.135c-1.01.19-2.513.32-4.51.391 1.347 1.04 2.418 1.986 3.211 2.837l3.753 4.008-6.495 4.789-2.67-4.789c-.385-.685-1.01-2.021-1.876-4.008-.938 2.176-1.564 3.512-1.877 4.008l-2.706 4.789-6.675-4.789 4.041-4.008c1.131-1.111 2.237-2.057 3.32-2.837-1.107-.095-2.562-.308-4.366-.639l-5.593-.887 2.598-7.484 5.015 2.235c.53.236 1.841.969 3.933 2.199-.457-1.986-.745-3.464-.866-4.434z" fill="#f1c42c"/></g></svg>