<svg clip-rule="evenodd" fill-rule="evenodd" stroke-linejoin="round" stroke-miterlimit="2" viewBox="0 0 20 20" xmlns="http://www.w3.org/2000/svg"><path d="m8.595 12.812c-.127-.534-.127-1.089 0-1.623l-.992-.573 1-1.732.992.573c.398-.377.879-.655 1.405-.812v-1.145h2v1.145c.532.158 1.012.44 1.405.812l.992-.573 1 1.732-.992.573c.127.533.127 1.089 0 1.622l.992.573-1 1.732-.992-.573c-.398.377-.879.655-1.405.812v1.145h-2v-1.145c-.526-.157-1.007-.435-1.405-.812l-.992.573-1-1.732zm3.405.688c.823 0 1.5-.677 1.5-1.5s-.677-1.5-1.5-1.5-1.5.677-1.5 1.5.677 1.5 1.5 1.5zm3-9.5h-10v16h14v-12h-4zm-12-1.008c0-.548.447-.992.999-.992h12.001l5 5v13.993.007c0 .546-.447.996-.993 1h-16.014c-.543-.004-.989-.449-.993-.992z" fill="#667e99" fill-rule="nonzero" transform="matrix(.888888 0 0 .9 -.667 -.8)"/></svg>