<svg clip-rule="evenodd" fill-rule="evenodd" stroke-linejoin="round" stroke-miterlimit="2" viewBox="0 0 20 20" xmlns="http://www.w3.org/2000/svg"><path d="m18.364 15.536-1.414-1.416 1.414-1.414c.947-.939 1.48-2.218 1.48-3.551 0-2.743-2.257-5-5-5-1.333 0-2.612.533-3.551 1.48l-1.414 1.415-1.415-1.414 1.416-1.414c1.312-1.312 3.094-2.05 4.95-2.05 3.84 0 7 3.16 7 7 0 1.856-.738 3.638-2.05 4.95l-1.415 1.414zm-2.828 2.828-1.415 1.414c-1.312 1.312-3.094 2.05-4.95 2.05-3.84 0-7-3.16-7-7 0-1.856.738-3.638 2.05-4.95l1.415-1.414 1.414 1.416-1.414 1.414c-.947.939-1.48 2.218-1.48 3.551 0 2.743 2.257 5 5 5 1.333 0 2.612-.533 3.551-1.48l1.414-1.414 1.415 1.414zm-.708-10.607 1.415 1.415-7.071 7.07-1.415-1.414 7.071-7.07z" fill="#0d79f2" fill-rule="nonzero" transform="matrix(1.01731 0 0 1.01746 -2.208 -2.2096)"/></svg>