<svg clip-rule="evenodd" fill-rule="evenodd" stroke-linecap="round" stroke-linejoin="bevel" stroke-miterlimit="1" viewBox="0 0 120 120" xmlns="http://www.w3.org/2000/svg"><path d="m46.15 59.708s-10.691 10.69-18.151 18.151c-1.875 1.875-2.929 4.418-2.929 7.07s1.054 5.195 2.929 7.07c0 0 .001.001.001.001 1.875 1.875 4.419 2.929 7.071 2.929s5.196-1.054 7.071-2.929l20.858-20.858c1.875-1.875 2.929-4.419 2.929-7.071s-1.054-5.196-2.929-7.071v0" fill="none" stroke="#3497da" stroke-width="5"/><path d="m73.85 60.292s10.691-10.69 18.151-18.151c1.875-1.875 2.929-4.418 2.929-7.07s-1.054-5.195-2.929-7.07c0 0-.001-.001-.001-.001-1.875-1.875-4.419-2.929-7.071-2.929s-5.196 1.054-7.071 2.929c-6.073 6.073-14.785 14.785-20.858 20.858-1.875 1.875-2.929 4.419-2.929 7.071s1.054 5.196 2.929 7.071v0" fill="none" stroke="#3497da" stroke-width="5"/></svg>