<svg clip-rule="evenodd" fill-rule="evenodd" stroke-linejoin="round" stroke-miterlimit="2" viewBox="0 0 20 20" xmlns="http://www.w3.org/2000/svg"><path d="m9.984 17.222v-14.444h-6.222v14.444zm1.778-1.778h4.444v-10.888h-4.444zm-8.838 3.556c-.246 0-.481-.098-.654-.271-.174-.174-.272-.41-.271-.655.003-3.157.014-15.296.014-15.296s-.007-.464-.015-.918c-.004-.227.084-.446.243-.608.159-.161.376-.252.604-.252h8.033c.485 0 .879.393.879.878.001.448.001.9.001.9h5.337c.488 0 .889.401.889.889v12.666c0 .488-.401.889-.889.889h-5.334s-.004.451-.009.898c-.004.487-.401.88-.889.88z" fill="#da2525" fill-rule="nonzero"/></svg>