<svg clip-rule="evenodd" fill-rule="evenodd" stroke-linejoin="round" stroke-miterlimit="1.41421" viewBox="0 0 120 120" xmlns="http://www.w3.org/2000/svg"><g fill="#e0e5e6"><path d="m17.836 90.053-15.078-6.306v-3.947l15.078-6.293v4.733l-9.163 3.547 9.163 3.56z" fill-rule="nonzero"/><path d="m21.231 72h9.986c2.175 0 3.803.52 4.886 1.56s1.625 2.52 1.625 4.44c0 1.973-.59 3.516-1.77 4.627-1.181 1.111-2.982 1.666-5.404 1.666h-3.289v7.254h-6.034zm6.034 8.333h1.472c1.158 0 1.971-.202 2.44-.606.468-.405.703-.923.703-1.554 0-.613-.204-1.133-.61-1.56-.407-.426-1.172-.64-2.294-.64h-1.711z" fill-rule="nonzero"/><path d="m40.115 81.787c0-3.191.884-5.676 2.652-7.454 1.768-1.777 4.23-2.666 7.387-2.666 3.235 0 5.728.873 7.479 2.62 1.75 1.746 2.626 4.193 2.626 7.34 0 2.284-.383 4.157-1.147 5.62-.765 1.462-1.87 2.6-3.316 3.413-1.445.813-3.247 1.22-5.404 1.22-2.192 0-4.007-.351-5.443-1.053-1.437-.703-2.602-1.814-3.495-3.334s-1.339-3.422-1.339-5.706zm6.007.026c0 1.974.365 3.391 1.094 4.254.73.862 1.722 1.293 2.977 1.293 1.291 0 2.29-.422 2.997-1.267.708-.844 1.061-2.36 1.061-4.546 0-1.84-.369-3.185-1.107-4.034s-1.739-1.273-3.004-1.273c-1.211 0-2.183.431-2.917 1.293-.734.863-1.101 2.289-1.101 4.28z" fill-rule="nonzero"/><path d="m62.447 85.08 5.715-.36c.124.933.376 1.644.756 2.133.619.791 1.503 1.187 2.652 1.187.858 0 1.519-.202 1.983-.607.464-.404.696-.873.696-1.406 0-.507-.221-.96-.663-1.36s-1.468-.778-3.077-1.134c-2.634-.595-4.513-1.386-5.636-2.373-1.131-.987-1.697-2.244-1.697-3.773 0-1.005.29-1.954.869-2.847s1.45-1.596 2.612-2.107c1.163-.511 2.756-.766 4.781-.766 2.484 0 4.378.464 5.682 1.393s2.08 2.407 2.327 4.433l-5.662.334c-.15-.88-.466-1.52-.948-1.92s-1.147-.6-1.996-.6c-.698 0-1.224.149-1.578.446-.354.298-.531.66-.531 1.087 0 .311.146.591.438.84.283.258.955.498 2.016.72 2.625.569 4.506 1.144 5.642 1.727 1.136.582 1.963 1.304 2.48 2.166.517.863.776 1.827.776 2.894 0 1.253-.345 2.409-1.034 3.466-.69 1.058-1.654 1.86-2.891 2.407-1.238.547-2.798.82-4.681.82-3.307 0-5.597-.64-6.87-1.92s-1.993-2.907-2.161-4.88z" fill-rule="nonzero"/><path d="m81.742 72h18.26v4.827h-6.126v14.72h-6.008v-14.72h-6.126z" fill-rule="nonzero"/><path d="m102.164 90.053 15.078-6.306v-3.947l-15.078-6.293v4.733l9.163 3.547-9.163 3.56z" fill-rule="nonzero"/><path d="m47 49h20v4h-20z"/><path d="m47 42h26v4h-26z"/><path d="m47 35h26v4h-26z"/></g><path d="m47 28h26v4h-26z" fill="#3497da"/></svg>