<svg clip-rule="evenodd" fill-rule="evenodd" stroke-linejoin="round" stroke-miterlimit="2" viewBox="0 0 20 20" xmlns="http://www.w3.org/2000/svg"><path d="m8.2 1.19v2.716c-2.636.777-4.563 3.217-4.563 6.104 0 3.512 2.851 6.363 6.363 6.363 1.699 0 3.243-.667 4.384-1.753l2.351 1.357c-1.649 1.86-4.056 3.033-6.735 3.033-4.967 0-9-4.033-9-9 0-4.351 3.094-7.985 7.2-8.82zm3.6 0c4.106.835 7.2 4.469 7.2 8.82 0 .996-.162 1.955-.462 2.851l-2.352-1.358c.116-.479.177-.979.177-1.493 0-2.887-1.927-5.327-4.563-6.104z" fill="#da2525"/></svg>