<svg clip-rule="evenodd" fill-rule="evenodd" stroke-linejoin="round" stroke-miterlimit="1.41421" viewBox="0 0 120 120" xmlns="http://www.w3.org/2000/svg"><g fill="#e0e5e6"><path d="m33 33h-33v-33h33zm-29-29v25h25v-25z"/><path d="m38 0h18v5h-18z"/><path d="m63 9h9v5h-9z"/><path d="m63 14h5v5h-5z"/><path d="m57 5h6v4h-6z"/><path d="m67 0h5v5h-5z"/><path d="m53 5h4v24h-4z"/><path d="m57 19h6v5h-6z"/><path d="m47 15h6v9h-6z"/><path d="m43 10h4v5h-4z"/><path d="m43 24h4v5h-4z"/><path d="m38 29h5v9h-5z"/><path d="m43 34h4v9h-4z"/><path d="m47 43h5v4h-5z"/><path d="m28 47h19v6h-19z"/><path d="m14 38h10v9h-10z"/><path d="m0 38h10v9h-10z"/><path d="m5 47h9v5h-9z"/><path d="m9 52h5v5h-5z"/><path d="m0 57h5v6h-5z"/><path d="m5 63h4v4h-4z"/><path d="m9 63h10v10h-10z"/><path d="m5 73h10v4h-10z"/><path d="m5 77h4v5h-4z"/><path d="m19 73h5v4h-5z"/><path d="m19 77h34v5h-34z"/><path d="m34 73h4v4h-4z"/><path d="m43 73h4v4h-4z"/><path d="m53 73h4v4h-4z"/><path d="m38 82h4v4h-4z"/><path d="m29 68h5v5h-5z"/><path d="m28 56h25v7h-25z"/><path d="m34 63h19v5h-19z"/><path d="m57 57h6v10h-6z"/><path d="m63 63h4v4h-4z"/><path d="m57 47h6v5h-6z"/><path d="m34 43h4v4h-4z"/><path d="m28 38h6v5h-6z"/><path d="m38 53h5v3h-5z"/><path d="m18 47h10v9h-10z"/><path d="m47 29h6v5h-6z"/><path d="m57 29h6v14h-6z"/><path d="m63 34h5v4h-5z"/><path d="m77 5h5v33h-5z"/><path d="m120 33h-33v-33h33zm-29-29v25h25v-25z"/><path d="m33 120h-33v-33h33zm-29-29v25h25v-25z"/><path d="m24 24h-15v-15h15zm-11-11v7h7v-7z"/><path d="m111 24h-15v-15h15zm-11-11v7h7v-7z"/><path d="m24 111h-15v-15h15zm-11-11v7h7v-7z"/><path d="m68 19h5v28h-5z"/><path d="m73 38h4v39h-4z"/><path d="m67 53h6v4h-6z"/><path d="m77 53h5v4h-5z"/><path d="m86 38h5v5h-5z"/><path d="m86 47h10v16h-10z"/><path d="m92 43h23v4h-23z"/><path d="m101 47h4v6h-4z"/><path d="m115 57h-14v-4h14z"/><path d="m115 47h5v16h-5z"/><path d="m115 68h5v9h-5z"/><path d="m111 63h4v10h-4z"/><path d="m111 73h-10v-5h10z"/><path d="m86 68h-9v-5h9z"/><path d="m92 73h-10v-5h10z"/><path d="m96 77h-10v-4h10z"/><path d="m101 73h10v4h-10z"/><path d="m101 73h-5v-10h5z"/><path d="m105 77h10v9h-10z"/><path d="m115 86h5v5h-5z"/><path d="m111 101h9v4h-9z"/><path d="m105 105h15v10h-15z"/><path d="m120 120h-5v-5h5z"/><path d="m105 120h-4v-5h4z"/><path d="m96 105h9v5h-9z"/><path d="m82 110h19v5h-19z"/><path d="m82 120h-5v-5h5z"/><path d="m73 115h-6v-5h6z"/><path d="m82 110h-19v-5h19z"/><path d="m92 105h-15v-5h15z"/><path d="m72 105h-5v-5h5z"/><path d="m67 96h34v4h-34z"/><path d="m63 92h14v4h-14z"/><path d="m82 96h-5v-19h5z"/><path d="m96 82h-14v-5h14z"/><path d="m96 77h5v19h-5z"/><path d="m115 38h5v5h-5z"/><path d="m86 86h6v6h-6z"/><path d="m47 82h5v4h-5z"/><path d="m47 86h10v5h-10z"/><path d="m38 96h5v9h-5z"/><path d="m43 91h4v19h-4z"/><path d="m47 96h16v5h-16z"/><path d="m53 101h4v9h-4z"/><path d="m57 115h6v5h-6z"/><path d="m38 110h15v10h-15z"/><path d="m57 77h16v5h-16z"/><path d="m57 82h10v4h-10z"/></g></svg>