<svg clip-rule="evenodd" fill-rule="evenodd" stroke-linejoin="round" stroke-miterlimit="1.41421" viewBox="0 0 120 120" xmlns="http://www.w3.org/2000/svg"><g fill="#e0e5e6"><path d="m103 98h-18v-76h18zm-17-75v74h16v-74z"/><path d="m86 98h-18v-76h18zm-17-75v74h16v-74z"/><path d="m69 98h-18v-76h18zm-17-75v74h16v-74z"/><path d="m52 98h-18v-76h18zm-17-75v74h16v-74z"/><path d="m35 98h-18v-76h18zm-17-75v74h16v-74z"/><path d="m18 98h-18v-76h18zm-17-75v74h16v-74z"/><path d="m120 98h-120v-20h120zm-119-19v18h118v-18z"/><path d="m120 79h-120v-20h120zm-119-19v18h118v-18z"/><path d="m120 60h-120v-20h120zm-119-19v18h118v-18z"/><path d="m120 41h-120v-19h120zm-119-18v17h118v-17z"/><path d="m34 78h52v20h-52z"/><path d="m17 40h52v20h-52z"/></g></svg>