<svg clip-rule="evenodd" fill-rule="evenodd" stroke-linejoin="round" stroke-miterlimit="2" viewBox="0 0 20 20" xmlns="http://www.w3.org/2000/svg"><path d="m17.222 6.4h-14.444v7.2h14.444zm-2.778-1.8v-1.8h-8.888v1.8zm0 10.8h-8.888v1.8h8.888zm-10.666 2.7v-2.729s-1.464.007-1.918.015c-.227.004-.446-.085-.608-.246-.161-.161-.252-.381-.252-.611v-9.034c0-.491.393-.89.878-.89.448-.001 1.9-.001 1.9-.001v-2.704c0-.494.401-.9.889-.9h10.666c.488 0 .889.406.889.9v2.701s1.451.004 1.898.009c.487.004.88.406.88.9v8.958c0 .51-.404.926-.907.936-.439.009-1.871.018-1.871.018v2.678c0 .494-.401.9-.889.9h-10.666c-.488 0-.889-.406-.889-.9z" fill="#da2525" fill-rule="nonzero"/></svg>