<svg clip-rule="evenodd" fill-rule="evenodd" stroke-linejoin="round" stroke-miterlimit="2" viewBox="0 0 20 20" xmlns="http://www.w3.org/2000/svg"><path d="m17.005 19h-10.01c-1.094 0-1.995-.901-1.995-1.995v-.005h12v-12h.005c1.102 0 1.995.893 1.995 1.995v10.01c0 1.094-.9 1.995-1.995 1.995zm-4-4h-10.01c-1.094 0-1.995-.901-1.995-1.995v-10.01c0-1.102.893-1.995 1.995-1.995h10.01c1.102 0 1.995.893 1.995 1.995v10.01c0 1.094-.9 1.995-1.995 1.995zm-.005-12h-10v10h10z" fill="#da2525" fill-rule="nonzero"/></svg>