<svg clip-rule="evenodd" fill-rule="evenodd" stroke-linejoin="round" stroke-miterlimit="1.41421" viewBox="0 0 120 120" xmlns="http://www.w3.org/2000/svg"><g fill="#e0e5e6"><path d="m120 98h-120v-20h120zm-119-19v18h118v-18z"/><path d="m120 79h-120v-20h120zm-119-19v18h118v-18z"/><path d="m120 60h-120v-20h120zm-119-19v18h118v-18z"/><path d="m80 98h-40v-76h40zm-39-75v74h38v-74z"/></g><path d="m120 98h-120v-76h120zm-118-74v72h116v-72z" fill="#bdc3c7"/><path d="m120 41h-120v-19h120zm-118-17v15h116v-15z" fill="#bdc3c7"/></svg>