<svg clip-rule="evenodd" fill-rule="evenodd" stroke-linejoin="round" stroke-miterlimit="2" viewBox="0 0 20 20" xmlns="http://www.w3.org/2000/svg"><path d="m5.01 15.769-4.01 3.231v-17.077c0-.51.403-.923.9-.923h16.2c.497 0 .9.413.9.923v12.923c0 .51-.403.923-.9.923zm-2.21-.567 1.587-1.279h12.813v-11.077h-14.4zm7.216-3.402-3.023-3.102c-.791-.811-.791-2.126 0-2.937s2.073-.811 2.864 0l.159.164.16-.164c.79-.811 2.072-.811 2.863 0s.791 2.126 0 2.937l-3.024 3.101z" fill="#da2525" fill-rule="nonzero"/></svg>