<svg clip-rule="evenodd" fill-rule="evenodd" stroke-linejoin="round" stroke-miterlimit="2" viewBox="0 0 20 20" xmlns="http://www.w3.org/2000/svg"><path d="m15 4h-10v16h14v-12h-4zm-12-1.008c0-.548.447-.992.999-.992h12.001l5 5v13.993.007c0 .546-.447.996-.993 1h-16.014c-.543-.004-.989-.449-.993-.992zm9 8.508c-1.371 0-2.5-1.129-2.5-2.5s1.129-2.5 2.5-2.5 2.5 1.129 2.5 2.5-1.129 2.5-2.5 2.5zm-4.473 5.5c.25-2.27 2.19-4.008 4.473-4.008s4.223 1.738 4.473 4.008z" fill="#667e99" fill-rule="nonzero" transform="matrix(.888888 0 0 .9 -.667 -.8)"/></svg>