<svg clip-rule="evenodd" fill-rule="evenodd" stroke-linejoin="round" stroke-miterlimit="1.41421" viewBox="0 0 120 120" xmlns="http://www.w3.org/2000/svg"><g fill="#e0e5e6" fill-rule="nonzero"><path d="m17.08 90.053-15.078-6.306v-3.947l15.078-6.293v4.733l-9.163 3.547 9.163 3.56z"/><path d="m33.153 72h5.994v11.653c0 1.156-.179 2.247-.537 3.274-.358 1.026-.92 1.924-1.684 2.693-.765.769-1.567 1.309-2.407 1.62-1.167.436-2.569.653-4.204.653-.946 0-1.978-.066-3.097-.2-1.118-.133-2.053-.397-2.804-.793-.752-.396-1.439-.958-2.062-1.687-.624-.729-1.05-1.48-1.28-2.253-.371-1.244-.557-2.347-.557-3.307v-11.653h5.994v11.933c0 1.067.294 1.9.882 2.5s1.403.9 2.447.9c1.034 0 1.845-.295 2.433-.886s.882-1.429.882-2.514z"/><path d="m42.078 85.08 5.715-.36c.124.933.376 1.644.756 2.133.619.791 1.503 1.187 2.652 1.187.858 0 1.519-.202 1.983-.607.464-.404.696-.873.696-1.406 0-.507-.221-.96-.663-1.36s-1.468-.778-3.077-1.134c-2.634-.595-4.513-1.386-5.636-2.373-1.131-.987-1.697-2.244-1.697-3.773 0-1.005.289-1.954.869-2.847.579-.893 1.449-1.596 2.612-2.107s2.756-.766 4.781-.766c2.484 0 4.378.464 5.682 1.393s2.08 2.407 2.327 4.433l-5.662.334c-.15-.88-.467-1.52-.948-1.92-.482-.4-1.147-.6-1.996-.6-.699 0-1.225.149-1.578.446-.354.298-.531.66-.531 1.087 0 .311.146.591.438.84.283.258.955.498 2.016.72 2.625.569 4.506 1.144 5.642 1.727 1.136.582 1.963 1.304 2.48 2.166.517.863.776 1.827.776 2.894 0 1.253-.345 2.409-1.034 3.466-.69 1.058-1.654 1.86-2.891 2.407-1.238.547-2.799.82-4.682.82-3.306 0-5.596-.64-6.869-1.92s-1.993-2.907-2.161-4.88z"/><path d="m62.725 72h16.099v4.173h-10.078v3.107h9.349v3.987h-9.349v3.853h10.37v4.427h-16.391z"/><path d="m82.431 91.547v-19.547h10.012c1.857 0 3.276.16 4.257.48.982.32 1.773.913 2.374 1.78s.902 1.922.902 3.167c0 1.084-.23 2.02-.69 2.806-.46.787-1.092 1.425-1.896 1.914-.513.311-1.216.569-2.109.773.716.24 1.238.48 1.565.72.221.16.542.502.961 1.027.42.524.701.929.843 1.213l2.904 5.667h-6.79l-3.209-5.974c-.407-.773-.769-1.275-1.088-1.506-.433-.303-.923-.454-1.472-.454h-.53v7.934zm6.034-11.627h2.533c.274 0 .804-.089 1.591-.267.398-.08.723-.284.975-.613s.378-.707.378-1.133c0-.631-.199-1.116-.597-1.454-.398-.337-1.145-.506-2.241-.506h-2.639z"/><path d="m102.92 90.053 15.078-6.306v-3.947l-15.078-6.293v4.733l9.163 3.547-9.163 3.56z"/></g><path d="m72.971 54h-26c0-7.175 5.826-13 13-13 7.175 0 13 5.825 13 13z" fill="#e74b3c"/><circle cx="59.971" cy="35.312" fill="#e74b3c" r="7.313"/></svg>