<svg clip-rule="evenodd" fill-rule="evenodd" stroke-linejoin="round" stroke-miterlimit="2" viewBox="0 0 20 20" xmlns="http://www.w3.org/2000/svg"><path d="m12 22c-5.523 0-10-4.477-10-10s4.477-10 10-10 10 4.477 10 10-4.477 10-10 10zm0-2c4.389 0 8-3.611 8-8s-3.611-8-8-8-8 3.611-8 8 3.611 8 8 8zm-1.378-11.585 4.879 3.252c.111.074.178.199.178.333s-.067.259-.178.333l-4.88 3.252c-.066.043-.142.067-.221.067-.219 0-.399-.18-.4-.399v-6.506c0-.219.181-.399.4-.399.079 0 .156.023.222.067z" fill="#f2af0d" fill-rule="nonzero" transform="matrix(.9 0 0 .9 -.8 -.8)"/></svg>