<svg clip-rule="evenodd" fill-rule="evenodd" stroke-linejoin="round" stroke-miterlimit="2" viewBox="0 0 20 20" xmlns="http://www.w3.org/2000/svg"><path d="m19.606 6.995c-.076-.298-.292-.523-.539-.592-.437-.123-2.567-.403-7.067-.403s-6.628.28-7.069.403c-.244.068-.46.293-.537.592-.109.424-.394 2.201-.394 5.005s.285 4.58.394 5.006c.076.297.292.522.538.59.44.124 2.568.404 7.068.404s6.629-.28 7.069-.403c.244-.068.46-.293.537-.592.109-.424.394-2.205.394-5.005s-.285-4.58-.394-5.005zm1.937-.497c.457 1.782.457 5.502.457 5.502s0 3.72-.457 5.502c-.254.985-.997 1.76-1.938 2.022-1.709.476-7.605.476-7.605.476s-5.893 0-7.605-.476c-.945-.266-1.687-1.04-1.938-2.022-.457-1.782-.457-5.502-.457-5.502s0-3.72.457-5.502c.254-.985.997-1.76 1.938-2.022 1.712-.476 7.605-.476 7.605-.476s5.896 0 7.605.476c.945.266 1.687 1.04 1.938 2.022zm-11.543 9.002v-7l6 3.5z" fill="#f2af0d" fill-rule="nonzero" transform="translate(-2 -2)"/></svg>