<svg width="32" height="32" viewBox="0 0 32 32" xmlns="http://www.w3.org/2000/svg">
    <path d="M21.688 14.688h-7.955l1.833-1.65-.004-.003c.267-.24.438-.585.438-.973 0-.724-.588-1.312-1.313-1.312-.337 0-.642.13-.874.34l-.004-.003-4.376 3.937.004.004C9.17 15.268 9 15.612 9 16s.17.732.438.972l-.004.004 4.375 3.937.002-.003c.233.21.538.34.876.34.724 0 1.312-.588 1.312-1.313 0-.387-.17-.73-.438-.972l.004-.003-1.833-1.65h7.954c.725 0 1.313-.587 1.313-1.312 0-.725-.588-1.313-1.313-1.313zM16 2C8.268 2 2 8.268 2 16s6.268 14 14 14 14-6.268 14-14S23.732 2 16 2zm0 25.375C9.718 27.375 4.625 22.282 4.625 16S9.718 4.625 16 4.625 27.375 9.718 27.375 16 22.282 27.375 16 27.375z"
          fill="#FFF" opacity="1" fill-rule="evenodd"/>
</svg>