<?xml version="1.0" encoding="utf-8"?>
<!-- Generator: Adobe Illustrator 23.0.1, SVG Export Plug-In . SVG Version: 6.00 Build 0)  -->
<svg version="1.1" id="filebird_default" xmlns="http://www.w3.org/2000/svg" xmlns:xlink="http://www.w3.org/1999/xlink" x="0px"
	 y="0px" viewBox="0 0 349 225" style="enable-background:new 0 0 349 225;" xml:space="preserve">
<style type="text/css">
	.st0{fill:#F0F0F1;}
	.st1{fill:#A1A5A9;}
	.st2{fill:#FFFFFF;}
	.st3{fill:#3B6FAB;}
	.st4{fill:#3A70AC;}
	.st5{fill:#E2E2E3;}
	.st6{fill:#D3D3D3;}
	.st7{fill:#E4E5E9;}
	.st8{fill:#F7F7F7;}
	.st9{fill:#0F6CB3;}
	.st10{fill:#9FA4A8;}
</style>
<rect x="0" y="0" class="st0" width="349" height="225"/>
<g>
	<path class="st1" d="M90.8,28.6H34.3c-4,0-7.2-3.2-7.2-7.2v0c0-4,3.2-7.2,7.2-7.2h56.5c4,0,7.2,3.2,7.2,7.2v0
		C98,25.4,94.8,28.6,90.8,28.6z"/>
	<path class="st2" d="M315.4,147.1H294c-0.7,0-1.2-0.5-1.2-1.2v-11.6c0-0.7,0.5-1.2,1.2-1.2h21.4c0.7,0,1.2,0.5,1.2,1.2v11.6
		C316.6,146.6,316.1,147.1,315.4,147.1z"/>
	<g>
		<circle class="st2" cx="44.1" cy="141" r="3.7"/>
		<path class="st1" d="M47.2,137.9V136c0-0.7-0.5-1.2-1.2-1.2h-5.5c-0.3,0-0.6-0.1-0.7-0.3l-0.3-0.4c-0.2-0.3-0.6-0.4-0.9-0.4H36
			c-0.7,0-1.2,0.5-1.2,1.2v7.2c0,0.7,0.5,1.2,1.2,1.2h4.5c0.8,1.2,2.1,2,3.6,2c2.4,0,4.3-1.9,4.3-4.3
			C48.5,139.8,48,138.7,47.2,137.9z M44.1,144.1c-1.7,0-3.2-1.4-3.2-3.2c0-1.7,1.4-3.2,3.2-3.2c1.7,0,3.2,1.4,3.2,3.2
			C47.3,142.7,45.9,144.1,44.1,144.1z M44.1,141.7c-0.3,0-0.6-0.3-0.6-0.6v-2c0-0.3,0.3-0.6,0.6-0.6s0.6,0.3,0.6,0.6v2
			C44.7,141.4,44.5,141.7,44.1,141.7z M44.1,142.2c-0.3,0-0.6,0.3-0.6,0.6s0.3,0.6,0.6,0.6c0.3,0,0.6-0.3,0.6-0.6
			S44.5,142.2,44.1,142.2z"/>
	</g>
	<g>
		<g>
			<g>
				<g>
					<path class="st1" d="M126,143.1H61.5c-2,0-3.6-1.6-3.6-3.6v0c0-2,1.6-3.6,3.6-3.6H126c2,0,3.6,1.6,3.6,3.6v0
						C129.6,141.5,128,143.1,126,143.1z"/>
				</g>
			</g>
		</g>
	</g>
	<g>
		<g>
			<g>
				<g>
					<path class="st1" d="M46.7,212.4H36.1c-0.7,0-1.3-0.6-1.3-1.3v-7.7c0-0.7,0.6-1.3,1.3-1.3h2.6c0.4,0,0.7,0.2,1,0.4L40,203
						c0.2,0.2,0.5,0.4,0.8,0.4h5.9c0.7,0,1.3,0.6,1.3,1.3v6.5C48,211.9,47.4,212.4,46.7,212.4z"/>
				</g>
			</g>
		</g>
		<g>
			<g>
				<g>
					<g>
						<path class="st1" d="M138.1,210.9H61.3c-2,0-3.6-1.6-3.6-3.6v0c0-2,1.6-3.6,3.6-3.6h76.8c2,0,3.6,1.6,3.6,3.6v0
							C141.7,209.3,140,210.9,138.1,210.9z"/>
					</g>
				</g>
			</g>
		</g>
		<path class="st2" d="M315.7,214.2h-11.7c-0.7,0-1.2-0.5-1.2-1.2v-11.6c0-0.7,0.5-1.2,1.2-1.2h11.7c0.7,0,1.2,0.5,1.2,1.2v11.6
			C316.8,213.7,316.3,214.2,315.7,214.2z"/>
	</g>
	<g>
		<path class="st3" d="M321.3,29.4H224c-1.2,0-2.2-1-2.2-2.2V13c0-1.2,1-2.2,2.2-2.2h97.3c1.2,0,2.2,1,2.2,2.2v14.3
			C323.5,28.5,322.6,29.4,321.3,29.4z"/>
		<g>
			<path class="st2" d="M313.4,23.4h-59.7c-1.8,0-3.3-1.5-3.3-3.3v0c0-1.8,1.5-3.3,3.3-3.3h59.7c1.8,0,3.3,1.5,3.3,3.3v0
				C316.7,21.9,315.2,23.4,313.4,23.4z"/>
		</g>
		<g>
			<g>
				<path class="st2" d="M241.5,15.5h-6c-0.1,0-0.3-0.1-0.3-0.2l-0.4-0.4c-0.4-0.4-0.9-0.6-1.4-0.6h-2.7c-1.1,0-1.9,0.9-1.9,1.9V24
					c0,1.1,0.9,1.9,1.9,1.9h10.8c1.1,0,1.9-0.9,1.9-1.9v-6.6C243.4,16.3,242.6,15.5,241.5,15.5z"/>
			</g>
			<path class="st4" d="M239.9,20.1h-1.1V19c0-0.3-0.3-0.6-0.6-0.6c-0.3,0-0.6,0.3-0.6,0.6v1.1h-1.1c-0.3,0-0.6,0.3-0.6,0.6
				s0.3,0.6,0.6,0.6h1.1v1.1c0,0.3,0.3,0.6,0.6,0.6c0.3,0,0.6-0.3,0.6-0.6v-1.1h1.1c0.3,0,0.6-0.3,0.6-0.6S240.2,20.1,239.9,20.1z"
				/>
		</g>
	</g>
	<g>
		<rect x="27.1" y="44.2" class="st2" width="295.9" height="41.3"/>
		<path class="st5" d="M323.5,86.1h-297V43.6h297V86.1z M27.7,84.9h294.7V44.8H27.7V84.9z"/>
	</g>
	<g>
		<g>
			<g>
				<g>
					<path class="st2" d="M321.1,178.7H27.9c-1,0-1.8-0.8-1.8-1.8v-20.6c0-1,0.8-1.8,1.8-1.8h293.3c1,0,1.8,0.8,1.8,1.8v20.6
						C322.9,177.9,322.1,178.7,321.1,178.7z"/>
					<path class="st6" d="M321.1,179.3H27.9c-1.3,0-2.4-1.1-2.4-2.4v-20.6c0-1.3,1.1-2.4,2.4-2.4h293.3c1.3,0,2.4,1.1,2.4,2.4v20.6
						C323.5,178.2,322.5,179.3,321.1,179.3z M27.9,155.1c-0.7,0-1.2,0.5-1.2,1.2v20.6c0,0.7,0.5,1.2,1.2,1.2h293.3
						c0.7,0,1.2-0.5,1.2-1.2v-20.6c0-0.7-0.5-1.2-1.2-1.2H27.9z"/>
				</g>
			</g>
		</g>
	</g>
	<g>
		<g>
			<g>
				<g>
					<path class="st5" d="M321.1,122.6H27.9c-1,0-1.8-0.8-1.8-1.8v-20.6c0-1,0.8-1.8,1.8-1.8h293.3c1,0,1.8,0.8,1.8,1.8v20.6
						C322.9,121.8,322.1,122.6,321.1,122.6z"/>
				</g>
			</g>
		</g>
	</g>
	<g>
		<g>
			<g>
				<g>
					<path class="st6" d="M147.4,170.8h-87c-2,0-3.6-1.6-3.6-3.6v0c0-2,1.6-3.6,3.6-3.6h87c2,0,3.6,1.6,3.6,3.6v0
						C151,169.2,149.4,170.8,147.4,170.8z"/>
				</g>
			</g>
		</g>
	</g>
	<g>
		<g>
			<g>
				<g>
					<path class="st1" d="M40.9,171.2h-5c-0.7,0-1.2-0.5-1.2-1.2v-7.3c0-0.7,0.5-1.2,1.2-1.2h2.5c0.3,0,0.7,0.1,0.9,0.4l0.3,0.4
						c0.2,0.2,0.5,0.3,0.8,0.3H46c0.7,0,1.2,0.5,1.2,1.2v2.3c-0.7-0.6-1.7-1-2.7-1c-2.3,0-4.1,1.8-4.1,4.1
						C40.4,170,40.6,170.6,40.9,171.2z M48.3,173.1c-0.1,0.1-0.3,0.2-0.4,0.2c-0.2,0-0.3-0.1-0.4-0.2l-1.4-1.4
						c-0.5,0.3-1,0.5-1.6,0.5c-1.6,0-2.9-1.3-2.9-2.9c0-1.6,1.3-2.9,2.9-2.9c1.6,0,2.9,1.3,2.9,2.9c0,0.6-0.2,1.2-0.5,1.6l1.4,1.4
						C48.6,172.5,48.6,172.8,48.3,173.1z M44.5,171c1,0,1.7-0.8,1.7-1.7c0-1-0.8-1.7-1.7-1.7s-1.7,0.8-1.7,1.7
						C42.8,170.2,43.6,171,44.5,171z"/>
				</g>
			</g>
		</g>
	</g>
	<g>
		<g>
			<g>
				<rect x="26.1" y="186.6" class="st7" width="296.8" height="1.2"/>
			</g>
		</g>
	</g>
	<g>
		<path class="st8" d="M208.1,76.6h-79c-1,0-1.8-0.8-1.8-1.8V55.4c0-1,0.8-1.8,1.8-1.8h79c1,0,1.8,0.8,1.8,1.8v19.4
			C209.9,75.8,209.1,76.6,208.1,76.6z"/>
		<path class="st6" d="M208.1,76.8h-79c-1.1,0-2-0.9-2-2V55.4c0-1.1,0.9-2,2-2h79c1.1,0,2,0.9,2,2v19.4
			C210.1,75.9,209.2,76.8,208.1,76.8z M129.1,53.8c-0.9,0-1.6,0.7-1.6,1.6v19.4c0,0.9,0.7,1.6,1.6,1.6h79c0.9,0,1.6-0.7,1.6-1.6
			V55.4c0-0.9-0.7-1.6-1.6-1.6H129.1z"/>
	</g>
	<path class="st1" d="M199.3,68.7h-47.6c-2,0-3.6-1.6-3.6-3.6l0,0c0-2,1.6-3.6,3.6-3.6h47.6c2,0,3.6,1.6,3.6,3.6l0,0
		C202.9,67.1,201.3,68.7,199.3,68.7z"/>
	<g>
		<path class="st8" d="M119.3,76.6l-82.8,0c-1,0-1.8-0.8-1.8-1.8V55.3c0-1,0.8-1.8,1.8-1.8l82.8,0c1,0,1.8,0.8,1.8,1.8v19.4
			C121.1,75.8,120.3,76.6,119.3,76.6z"/>
		<path class="st6" d="M119.3,76.8l-82.8,0c-1.1,0-2-0.9-2-2V55.3c0-1.1,0.9-2,2-2l82.8,0c1.1,0,2,0.9,2,2v19.4
			C121.3,75.9,120.4,76.8,119.3,76.8z M36.5,53.7c-0.9,0-1.6,0.7-1.6,1.6v19.4c0,0.9,0.7,1.6,1.6,1.6l82.8,0c0.9,0,1.6-0.7,1.6-1.6
			V55.4c0-0.9-0.7-1.6-1.6-1.6L36.5,53.7z"/>
	</g>
	<path class="st1" d="M110.5,68.7l-46.9,0c-2,0-3.6-1.6-3.6-3.6v0c0-2,1.6-3.6,3.6-3.6l46.9,0c2,0,3.6,1.6,3.6,3.6l0,0
		C114.1,67.1,112.5,68.7,110.5,68.7z"/>
	<g>
		<g>
			<path class="st1" d="M314,68.3c0-0.6,0.5-1,1-1c0.6,0,1,0.5,1,1s-0.5,1-1,1C314.5,69.4,314,68.9,314,68.3z M315,66.1
				c0.6,0,1-0.5,1-1c0-0.6-0.5-1-1-1c-0.6,0-1,0.5-1,1C314,65.6,314.5,66.1,315,66.1z M315,62.8c0.6,0,1-0.5,1-1c0-0.6-0.5-1-1-1
				c-0.6,0-1,0.5-1,1C314,62.3,314.5,62.8,315,62.8z"/>
		</g>
	</g>
	<g>
		<path class="st9" d="M46.7,115.8H36.1c-0.7,0-1.3-0.6-1.3-1.3v-7.7c0-0.7,0.6-1.3,1.3-1.3h2.6c0.4,0,0.7,0.2,1,0.4l0.4,0.4
			c0.2,0.2,0.5,0.4,0.8,0.4h5.9c0.7,0,1.3,0.6,1.3,1.3v6.5C48,115.2,47.4,115.8,46.7,115.8z"/>
		<g id="l0ogjT.tif_13_">
			<g>
				<path class="st2" d="M42.8,108.5c0.1,0,0.1,0,0.2,0c0.1,0,0.2,0.1,0.3,0.2c0.7,0.7,1.5,1.5,2.2,2.2c0.1,0.1,0.2,0.2,0.2,0.3
					c0,0.1,0,0.1,0,0.2c0,0.1-0.1,0.2-0.2,0.3c-0.1,0.1-0.2,0.1-0.3,0.1c-0.1,0-0.1,0-0.1,0.1c0,0.5,0,1,0,1.6
					c0,0.2-0.1,0.4-0.3,0.5c-0.1,0-0.2,0.1-0.2,0.1c-0.3,0-0.7,0-1,0c-0.1,0-0.1-0.1-0.1-0.2c0-0.4,0-0.8,0-1.2c0-0.1,0-0.1,0-0.2
					c-0.1-0.1-0.1-0.1-0.2-0.1c-0.2,0-0.3,0-0.5,0c-0.1,0-0.3,0.1-0.3,0.3c0,0.4,0,0.8,0,1.2c0,0,0,0.1,0,0.1c0,0.1,0,0.1-0.1,0.2
					c-0.3,0-0.7,0-1,0c-0.3,0-0.5-0.3-0.5-0.5c0,0,0-0.1,0-0.1c0-0.5,0-1,0-1.5c0,0,0,0,0,0c0,0,0-0.1-0.1-0.1c-0.1,0-0.2,0-0.3-0.1
					c-0.1-0.1-0.2-0.2-0.2-0.3c0-0.1,0-0.1,0-0.2c0-0.1,0.1-0.2,0.2-0.3c0.7-0.7,1.5-1.5,2.2-2.2C42.5,108.6,42.6,108.5,42.8,108.5z
					"/>
			</g>
		</g>
	</g>
	<g>
		<g>
			<g>
				<g>
					<path class="st9" d="M94.3,114.2H61.3c-2,0-3.6-1.6-3.6-3.6v0c0-2,1.6-3.6,3.6-3.6h33.1c2,0,3.6,1.6,3.6,3.6v0
						C97.9,112.6,96.3,114.2,94.3,114.2z"/>
				</g>
			</g>
		</g>
	</g>
	<path class="st2" d="M315.4,117.6H294c-0.7,0-1.2-0.5-1.2-1.2v-11.6c0-0.7,0.5-1.2,1.2-1.2h21.4c0.7,0,1.2,0.5,1.2,1.2v11.6
		C316.6,117.1,316.1,117.6,315.4,117.6z"/>
	<g>
		<g>
			<g>
				<g>
					<g>
						<path class="st1" d="M46.5,68.9h-3.9c-0.3,0-0.5-0.1-0.7-0.3c-0.2-0.2-0.3-0.5-0.3-0.7v-6.2c0-0.3,0.1-0.6,0.3-0.8
							c0.2-0.2,0.4-0.3,0.7-0.3h2.1c0.1,0,0.3,0,0.4,0.1c0.1,0.1,0.3,0.1,0.4,0.3l0.3,0.3c0.1,0.1,0.2,0.2,0.3,0.2s0.2,0.1,0.4,0.1
							h4.7c0.3,0,0.5,0.1,0.7,0.3c0.2,0.2,0.3,0.4,0.3,0.7l-5.7,5.2V68.9z"/>
					</g>
				</g>
			</g>
			<path class="st1" d="M52.1,66.3c-0.4,0.4-0.9,0.9-1.2,1.3c-0.6,0.6-1.2,1.2-1.8,1.8c0,0-0.1,0.1-0.1,0.1c0,0-0.1,0-0.1,0
				c-0.1,0-0.2,0-0.4,0c0,0,0,0,0,0c-0.1,0-0.3,0-0.4,0c-0.1,0-0.1,0-0.2,0c-0.1,0-0.1-0.1-0.1-0.3c0-0.1,0-0.3,0-0.4
				c0-0.1,0-0.2,0-0.3c0-0.1,0-0.1,0.1-0.2c0,0,0,0,0-0.1c0.1-0.1,0.2-0.2,0.3-0.3c0.9-0.9,1.9-2,2.8-2.8L52.1,66.3z"/>
			<path class="st1" d="M51.1,64.9l1.2,1.2l0.5-0.5c0.1-0.1,0.1-0.2,0.1-0.2c0-0.2,0-0.3-0.1-0.4l-0.5-0.5c-0.1-0.1-0.3-0.2-0.4-0.1
				c-0.1,0-0.2,0.1-0.3,0.1L51.1,64.9z"/>
		</g>
	</g>
	<g>
		<g id="Iconly_Bold_Delete_3_" transform="translate(198.5 295.478)">
			<g>
				<g id="Delete_9_" transform="translate(3 2)">
					<path id="Delete-2_9_" class="st10" d="M-62.2-237c0.1,0,0.2,0,0.2,0.1l0,0.1c0,0.3,0.3,0.5,0.5,0.5h1.2c0.2,0,0.3,0.2,0.3,0.4
						c0,0,0,0,0,0v0.2c0,0.2-0.1,0.4-0.3,0.4H-67c-0.2,0-0.3-0.2-0.3-0.4v-0.2c0-0.2,0.1-0.4,0.3-0.4c0,0,0,0,0,0h1.2
						c0.2,0,0.4-0.2,0.5-0.5l0-0.1c0-0.1,0.1-0.1,0.2-0.1L-62.2-237z"/>
				</g>
			</g>
		</g>
		<path class="st10" d="M140,69.7h-4.4c-0.3,0-0.5-0.1-0.7-0.3c-0.2-0.2-0.4-0.5-0.4-0.8v-6.1h6.5v6.1c0,0.3-0.1,0.6-0.3,0.8
			C140.5,69.6,140.3,69.7,140,69.7z"/>
	</g>
	<g>
		<path class="st8" d="M306.2,76.6h-19.7c-0.9,0-1.7-0.8-1.7-1.7V55.2c0-0.9,0.8-1.7,1.7-1.7h19.7c0.9,0,1.7,0.8,1.7,1.7v19.7
			C307.9,75.8,307.2,76.6,306.2,76.6z"/>
		<g>
			<g>
				<path class="st3" d="M292.2,69.7c0.1,0,0.2,0,0.2,0c0.7,0,1.5,0,2.2,0c0.1,0,0.2,0,0.2,0.2c0,0.3,0,0.6,0,0.9
					c0,0.1,0,0.1-0.1,0.1c-1.3,0-2.5,0-3.8,0c-0.1,0-0.1,0-0.1-0.1c0-0.4,0-0.7,0-1.1c0-0.1,0.1-0.2,0.1-0.2
					c0.8-0.8,1.6-1.6,2.3-2.3c0,0,0.1-0.1,0.1-0.2c-0.1,0-0.1,0-0.2,0c-0.7,0-1.5,0-2.2,0c-0.1,0-0.2,0-0.2-0.2c0-0.3,0-0.5,0-0.8
					c0-0.1,0-0.2,0.1-0.2c1.3,0,2.5,0,3.8,0c0.1,0,0.1,0,0.1,0.1c0,0.4,0,0.8,0,1.1c0,0.1,0,0.1-0.1,0.2c-0.8,0.8-1.6,1.6-2.4,2.4
					C292.3,69.6,292.3,69.6,292.2,69.7z"/>
				<path class="st3" d="M291.9,64.4c0-0.3,0-0.9,0-1.2c0-0.1,0-0.1,0.1-0.1c0.5,0,1,0,1.4,0c0.1,0,0.2,0,0.1,0.2c0,0.3,0,0.8,0,1.1
					l1.2,0c0-0.7,0-1.6,0-2.3c0-0.4,0-1,0-1.6c0-0.3-0.1-0.7-0.3-0.9c-0.3-0.3-0.6-0.5-1.1-0.5l-1.2,0c-0.4,0-0.7,0.1-1,0.4
					c-0.3,0.3-0.4,0.6-0.4,1c0,1.3,0,2.9,0,3.9L291.9,64.4z M291.9,61.9c0-0.3,0-1.2,0-1.5l1.7,0c0,0.3,0,1.2,0,1.5L291.9,61.9z
					 M292.8,62"/>
				<polygon class="st3" points="299.9,68.2 299.9,59 298.5,59 298.5,68.2 296.4,68.2 299.3,71.1 302,68.2 				"/>
			</g>
		</g>
	</g>
</g>
</svg>
