<?xml version="1.0" encoding="utf-8"?>
<!-- Generator: Adobe Illustrator 23.0.1, SVG Export Plug-In . SVG Version: 6.00 Build 0)  -->
<svg version="1.1" id="dropbox" xmlns="http://www.w3.org/2000/svg" xmlns:xlink="http://www.w3.org/1999/xlink" x="0px" y="0px"
	 viewBox="0 0 349 225" style="enable-background:new 0 0 349 225;" xml:space="preserve">
<style type="text/css">
	.st0{fill:#F0F0F1;}
	.st1{fill:#C9C9C9;}
	.st2{fill:#E3E3E3;}
	.st3{fill:#33302F;}
	.st4{fill:#0360FE;}
	.st5{fill:#FFFFFF;}
	.st6{fill:#CAC6BE;}
	.st7{fill:#F0F0F0;}
	.st8{fill:#8CC2FF;}
</style>
<rect class="st0" width="349" height="225"/>
<g>
	<path class="st1" d="M97.1,30.6H40.4c-4,0-7.2-3.2-7.2-7.2l0,0c0-4,3.2-7.2,7.2-7.2h56.8c4,0,7.2,3.2,7.2,7.2l0,0
		C104.3,27.3,101.1,30.6,97.1,30.6z"/>
	<g>
		<rect x="33.1" y="61.1" class="st2" width="94.8" height="26.5"/>
		<g>
			<path class="st3" d="M43.2,79.5c-0.4,0-0.1,0-0.5,0c-0.2,0-0.4-0.2-0.5-0.4c-0.1-0.2,0-0.5,0.2-0.6c0.1-0.1,0.2-0.1,0.3-0.1
				c3.1,0,5.5,0,8.6,0h0.1c0.3,0,0.5,0.2,0.5,0.4c0,0.3-0.1,0.5-0.4,0.6c-0.1,0-0.2,0-0.2,0c-1.5,0-3,0-4.6,0
				C45.6,79.5,44.4,79.5,43.2,79.5z M50.4,71.8c-0.7,0.7-1.3,1.3-2,2c-1.1,1.2-2.3,2.3-3.4,3.5c-0.1,0.1-0.3,0.2-0.5,0.2
				s-0.4,0-0.7,0l0,0c-0.2,0-0.5,0-0.7,0c-0.3,0-0.6-0.2-0.6-0.6c0-0.5,0-0.9,0-1.4c0-0.2,0.1-0.3,0.2-0.4c0.2-0.2,0.3-0.3,0.5-0.5
				c1.6-1.7,3.3-3.3,4.9-5c0.5-0.5,1-0.6,1.6-0.4C50.9,69.6,51.2,71,50.4,71.8z M49.7,70.3c-0.2-0.2-0.5-0.2-0.8,0
				c-1.7,1.8-3.5,3.5-5.2,5.3c0,0-0.1,0.1-0.1,0.2c0,0.2,0,0.4,0,0.6c0.2,0,0.5,0,0.7,0l0.1-0.1c1.5-1.5,3.1-3.1,4.6-4.6
				c0.2-0.2,0.4-0.4,0.6-0.6C49.9,70.8,49.9,70.5,49.7,70.3z"/>
			<path class="st1" d="M115,78.4H64.2c-2.3,0-4.1-1.8-4.1-4.1l0,0c0-2.3,1.8-4.1,4.1-4.1H115c2.3,0,4.1,1.8,4.1,4.1l0,0
				C119.2,76.6,117.3,78.4,115,78.4z"/>
		</g>
	</g>
	<g>
		<rect x="135" y="61.1" class="st2" width="81.4" height="26.5"/>
		<g>
			<path class="st1" d="M203.5,78.4h-37.8c-2.3,0-4.1-1.8-4.1-4.1l0,0c0-2.3,1.8-4.1,4.1-4.1h37.8c2.3,0,4.1,1.8,4.1,4.1l0,0
				C207.6,76.6,205.8,78.4,203.5,78.4z"/>
			<path class="st3" d="M153,71.1h-1.2H151l-0.1-0.6c-0.1-0.8-0.8-1.4-1.6-1.4h-1.7c-0.7,0-1.3,0.6-1.4,1.3l-0.1,0.7h-0.7h-1.2
				c-0.3,0-0.5,0.2-0.5,0.5s0.2,0.5,0.5,0.5h0.7l0.5,5.7c0.1,0.9,0.8,1.6,1.7,1.6h2.8c0.9,0,1.7-0.7,1.7-1.6l0.5-5.7h0.7
				c0.3,0,0.5-0.2,0.5-0.5C153.5,71.4,153.3,71.1,153,71.1z M147.3,70.5c0-0.2,0.2-0.4,0.4-0.4h1.7c0.3,0,0.5,0.2,0.5,0.5l0.1,0.5
				h-2.7V70.5z M150.8,77.8c0,0.4-0.3,0.6-0.7,0.6h-2.8c-0.4,0-0.7-0.3-0.7-0.6l-0.5-5.6h0.6h3.9h0.7L150.8,77.8z"/>
		</g>
	</g>
	<g>
		<rect x="270.2" y="61.1" class="st2" width="26.5" height="26.5"/>
		<path class="st4" d="M282.2,72.8l-1.1-3c-0.2-0.5-0.5-0.7-1-0.7s-0.8,0.2-0.9,0.7l-1.1,3c-0.1,0.1-0.1,0.3-0.1,0.4
			c0,0.4,0.2,0.6,0.6,0.6c0.3,0,0.5-0.2,0.6-0.6l0.1-0.4h1.4l0.1,0.5c0.1,0.4,0.3,0.5,0.6,0.5c0.4,0,0.6-0.2,0.6-0.6
			C282.3,73.1,282.3,73,282.2,72.8z M280.6,71.8h-0.9l0.5-1.5L280.6,71.8z M282,79c0,0.3-0.2,0.5-0.6,0.5H279
			c-0.4,0-0.6-0.2-0.6-0.6c0-0.2,0-0.3,0.2-0.4l1.9-2.5H279c-0.3,0-0.6-0.2-0.6-0.5s0.2-0.5,0.6-0.5h2.4c0.4,0,0.6,0.2,0.6,0.6
			c0,0.2-0.1,0.3-0.2,0.4l-1.9,2.5h1.6C281.8,78.5,282,78.7,282,79z M288.6,77.5l-1.8,1.9c-0.1,0.1-0.2,0.2-0.4,0.2
			s-0.3-0.1-0.4-0.2l-1.8-1.9c-0.2-0.2-0.2-0.5,0-0.7s0.5-0.2,0.7,0l0.9,1v-8.1c0-0.3,0.2-0.5,0.5-0.5s0.5,0.2,0.5,0.5v8.1l0.9-1
			c0.2-0.2,0.5-0.2,0.7,0C288.8,77,288.8,77.3,288.6,77.5z"/>
	</g>
	<g>
		<rect x="303.7" y="61.1" class="st2" width="26.5" height="26.5"/>
		<path class="st3" d="M320.7,75.5c-0.7,0-1.2-0.5-1.2-1.2s0.5-1.2,1.2-1.2s1.2,0.5,1.2,1.2C321.9,75,321.4,75.5,320.7,75.5z
			 M318.1,74.3c0-0.7-0.5-1.2-1.2-1.2s-1.2,0.5-1.2,1.2s0.5,1.2,1.2,1.2S318.1,75,318.1,74.3z M314.4,74.3c0-0.7-0.5-1.2-1.2-1.2
			s-1.2,0.5-1.2,1.2s0.5,1.2,1.2,1.2S314.4,75,314.4,74.3z"/>
	</g>
	<g>
		<g>
			<path class="st5" d="M328.7,184.9H26.8c-0.7,0-1.2-0.5-1.2-1.2v-23.8c0-0.7,0.5-1.2,1.2-1.2h301.9c0.7,0,1.2,0.5,1.2,1.2v23.8
				C329.9,184.4,329.3,184.9,328.7,184.9z"/>
			<path class="st6" d="M328.7,185.2H26.8c-0.8,0-1.5-0.7-1.5-1.5v-23.8c0-0.8,0.7-1.5,1.5-1.5h301.9c0.8,0,1.5,0.7,1.5,1.5v23.8
				C330.2,184.6,329.5,185.2,328.7,185.2z M26.8,159.1c-0.5,0-0.9,0.4-0.9,0.9v23.8c0,0.5,0.4,0.9,0.9,0.9h301.9
				c0.5,0,0.9-0.4,0.9-0.9V160c0-0.5-0.4-0.9-0.9-0.9H26.8z"/>
		</g>
		<path class="st1" d="M39.4,175.7h-5c-0.7,0-1.2-0.5-1.2-1.2v-7.3c0-0.7,0.5-1.2,1.2-1.2h2.5c0.3,0,0.7,0.1,0.9,0.4l0.3,0.4
			c0.2,0.2,0.5,0.3,0.8,0.3h5.6c0.7,0,1.2,0.5,1.2,1.2v2.3c-0.7-0.6-1.7-1-2.7-1c-2.3,0-4.1,1.8-4.1,4.1
			C38.9,174.4,39.1,175.1,39.4,175.7z M46.9,177.6c-0.1,0.1-0.3,0.2-0.4,0.2c-0.2,0-0.3-0.1-0.4-0.2l-1.4-1.4
			c-0.5,0.3-1,0.5-1.6,0.5c-1.6,0-2.9-1.3-2.9-2.9s1.3-2.9,2.9-2.9c1.6,0,2.9,1.3,2.9,2.9c0,0.6-0.2,1.2-0.5,1.6l1.4,1.4
			C47.1,177,47.1,177.3,46.9,177.6z M43,175.5c1,0,1.7-0.8,1.7-1.7c0-1-0.8-1.7-1.7-1.7s-1.7,0.8-1.7,1.7S42.1,175.5,43,175.5z"/>
		<g>
			<g>
				<g>
					<g>
						<path class="st7" d="M155.1,175.4H59.9c-2,0-3.6-1.6-3.6-3.6l0,0c0-2,1.6-3.6,3.6-3.6h95.2c2,0,3.6,1.6,3.6,3.6l0,0
							C158.7,173.8,157.1,175.4,155.1,175.4z"/>
					</g>
				</g>
			</g>
		</g>
	</g>
	<g>
		<g>
			<path class="st8" d="M45.1,120.2H34.5c-0.7,0-1.3-0.6-1.3-1.3v-7.7c0-0.7,0.6-1.3,1.3-1.3h2.6c0.4,0,0.7,0.2,1,0.4l0.4,0.4
				c0.2,0.2,0.5,0.4,0.8,0.4h5.9c0.7,0,1.3,0.6,1.3,1.3v6.5C46.4,119.6,45.8,120.2,45.1,120.2z"/>
			<g id="l0ogjT.tif_8_">
				<g>
					<path class="st5" d="M41.2,112.9c0.1,0,0.1,0,0.2,0c0.1,0,0.2,0.1,0.3,0.2c0.7,0.7,1.5,1.5,2.2,2.2c0.1,0.1,0.2,0.2,0.2,0.3
						c0,0.1,0,0.1,0,0.2s-0.1,0.2-0.2,0.3c-0.1,0.1-0.2,0.1-0.3,0.1s-0.1,0-0.1,0.1c0,0.5,0,1,0,1.6c0,0.2-0.1,0.4-0.3,0.5
						c-0.1,0-0.2,0.1-0.2,0.1c-0.3,0-0.7,0-1,0c-0.1,0-0.1-0.1-0.1-0.2c0-0.4,0-0.8,0-1.2c0-0.1,0-0.1,0-0.2
						c-0.1-0.1-0.1-0.1-0.2-0.1c-0.2,0-0.3,0-0.5,0c-0.1,0-0.3,0.1-0.3,0.3c0,0.4,0,0.8,0,1.2v0.1c0,0.1,0,0.1-0.1,0.2
						c-0.3,0-0.7,0-1,0s-0.5-0.3-0.5-0.5V118c0-0.5,0-1,0-1.5l0,0c0,0,0-0.1-0.1-0.1s-0.2,0-0.3-0.1s-0.2-0.2-0.2-0.3
						c0-0.1,0-0.1,0-0.2s0.1-0.2,0.2-0.3c0.7-0.7,1.5-1.5,2.2-2.2C40.9,113,41,112.9,41.2,112.9z"/>
				</g>
			</g>
		</g>
		<g>
			<g>
				<g>
					<g>
						<path class="st1" d="M101.2,118.6H59.9c-2,0-3.6-1.6-3.6-3.6l0,0c0-2,1.6-3.6,3.6-3.6h41.3c2,0,3.6,1.6,3.6,3.6l0,0
							C104.8,117,103.2,118.6,101.2,118.6z"/>
					</g>
				</g>
			</g>
		</g>
	</g>
	<path class="st5" d="M329,122h-15.4c-0.7,0-1.2-0.5-1.2-1.2v-11.6c0-0.7,0.5-1.2,1.2-1.2H329c0.7,0,1.2,0.5,1.2,1.2v11.6
		C330.2,121.5,329.6,122,329,122z"/>
	<g>
		<g>
			<circle class="st5" cx="42.5" cy="146.2" r="3.7"/>
			<path class="st8" d="M45.6,143.1v-1.9c0-0.7-0.5-1.2-1.2-1.2h-5.5c-0.3,0-0.6-0.1-0.7-0.3l-0.3-0.4c-0.2-0.3-0.6-0.4-0.9-0.4
				h-2.5c-0.7,0-1.2,0.5-1.2,1.2v7.2c0,0.7,0.5,1.2,1.2,1.2H39c0.8,1.2,2.1,2,3.6,2c2.4,0,4.3-1.9,4.3-4.3
				C46.9,145,46.4,143.9,45.6,143.1z M42.5,149.4c-1.7,0-3.2-1.4-3.2-3.2c0-1.7,1.4-3.2,3.2-3.2c1.7,0,3.2,1.4,3.2,3.2
				S44.3,149.4,42.5,149.4z M42.5,146.9c-0.3,0-0.6-0.3-0.6-0.6v-2c0-0.3,0.3-0.6,0.6-0.6s0.6,0.3,0.6,0.6v2
				C43.1,146.6,42.9,146.9,42.5,146.9z M42.5,147.5c-0.3,0-0.6,0.3-0.6,0.6s0.3,0.6,0.6,0.6s0.6-0.3,0.6-0.6S42.9,147.5,42.5,147.5z
				"/>
		</g>
		<g>
			<g>
				<g>
					<g>
						<path class="st1" d="M132.6,147.7H59.9c-2,0-3.6-1.6-3.6-3.6l0,0c0-2,1.6-3.6,3.6-3.6h72.7c2,0,3.6,1.6,3.6,3.6l0,0
							C136.2,146.1,134.6,147.7,132.6,147.7z"/>
					</g>
				</g>
			</g>
		</g>
	</g>
	<path class="st5" d="M329,151.7h-11.7c-0.7,0-1.2-0.5-1.2-1.2v-11.6c0-0.7,0.5-1.2,1.2-1.2H329c0.7,0,1.2,0.5,1.2,1.2v11.6
		C330.2,151.2,329.6,151.7,329,151.7z"/>
	<g>
		<g>
			<path class="st8" d="M45.1,208H34.5c-0.7,0-1.3-0.6-1.3-1.3V199c0-0.7,0.6-1.3,1.3-1.3h2.6c0.4,0,0.7,0.2,1,0.4l0.4,0.4
				c0.2,0.2,0.5,0.4,0.8,0.4h5.9c0.7,0,1.3,0.6,1.3,1.3v6.5C46.4,207.4,45.8,208,45.1,208z"/>
		</g>
		<g>
			<g>
				<g>
					<g>
						<path class="st1" d="M144.9,206.4h-85c-2,0-3.6-1.6-3.6-3.6l0,0c0-2,1.6-3.6,3.6-3.6h85c2,0,3.6,1.6,3.6,3.6l0,0
							C148.5,204.8,146.9,206.4,144.9,206.4z"/>
					</g>
				</g>
			</g>
		</g>
		<g>
			<g>
				<path class="st3" d="M19.5,205.7c-0.2,0-0.3-0.1-0.5-0.2c-0.2-0.3-0.2-0.6,0-0.9l1.9-1.8L19,201c-0.3-0.2-0.3-0.6,0-0.9
					c0.2-0.3,0.6-0.3,0.9,0l2.4,2.3c0.1,0.1,0.2,0.3,0.2,0.5s-0.1,0.3-0.2,0.5l-2.4,2.3C19.8,205.7,19.6,205.7,19.5,205.7z"/>
			</g>
		</g>
	</g>
	<path class="st5" d="M329,211.4h-11.7c-0.7,0-1.2-0.5-1.2-1.2v-11.6c0-0.7,0.5-1.2,1.2-1.2H329c0.7,0,1.2,0.5,1.2,1.2v11.6
		C330.2,210.9,329.6,211.4,329,211.4z"/>
	<g>
		<rect x="228.4" y="13.6" class="st4" width="101.8" height="21.2"/>
		<g>
			<path class="st5" d="M243.8,23.6h-2.9v-2.9c0-0.3-0.3-0.6-0.6-0.6s-0.6,0.3-0.6,0.6v2.9h-2.9c-0.3,0-0.6,0.3-0.6,0.6
				s0.3,0.6,0.6,0.6h2.9v2.9c0,0.3,0.3,0.6,0.6,0.6s0.6-0.3,0.6-0.6v-2.9h2.9c0.3,0,0.6-0.3,0.6-0.6S244.1,23.6,243.8,23.6z"/>
			<path class="st5" d="M318.8,27.8h-63.1c-2,0-3.7-1.7-3.7-3.7l0,0c0-2,1.7-3.7,3.7-3.7h63.1c2,0,3.7,1.7,3.7,3.7l0,0
				C322.4,26.2,320.8,27.8,318.8,27.8z"/>
		</g>
	</g>
</g>
</svg>
