<?xml version="1.0" encoding="utf-8"?>
<!-- Generator: Adobe Illustrator 28.0.0, SVG Export Plug-In . SVG Version: 6.00 Build 0)  -->
<svg version="1.1" id="Layer_1" xmlns="http://www.w3.org/2000/svg" xmlns:xlink="http://www.w3.org/1999/xlink" x="0px"
	y="0px" viewBox="0 0 1000 1000" enable-background="new 0 0 1000 1000" xml:space="preserve">
	<g>
		<g>
			<path fill="#11206B" d="M890.164,682.642l2.685-11.08c0.321-1.325,2.148-1.468,2.671-0.209l4.205,10.109
			c0.177,0.424,0.549,0.736,0.998,0.835l10.088,2.223c1.347,0.297,1.51,2.153,0.235,2.679l-9.802,4.049
			c-0.423,0.175-0.734,0.543-0.836,0.989l-2.299,10.071c-0.31,1.357-2.19,1.492-2.69,0.193l-3.663-9.517
			c-0.169-0.438-0.545-0.764-1.003-0.868l-10.417-2.37c-1.364-0.31-1.492-2.204-0.182-2.694l9.132-3.422
			C889.726,683.466,890.054,683.096,890.164,682.642z" />
			<path fill="#11206B" d="M222.137,271.058l2.685-11.08c0.321-1.325,2.148-1.468,2.671-0.209l4.205,10.109
			c0.177,0.425,0.549,0.736,0.998,0.835l10.088,2.223c1.347,0.297,1.51,2.153,0.235,2.679l-9.802,4.049
			c-0.423,0.175-0.734,0.543-0.836,0.989l-2.299,10.071c-0.31,1.357-2.19,1.492-2.69,0.193l-3.663-9.517
			c-0.169-0.438-0.545-0.764-1.003-0.868l-10.417-2.37c-1.364-0.31-1.492-2.204-0.182-2.694l9.132-3.422
			C221.699,271.882,222.027,271.512,222.137,271.058z" />
			<circle fill="#F93B47" cx="834.496" cy="162.381" r="8.969" />
			<circle fill="#0AC5C3" cx="159.698" cy="210.865" r="8.969" />
			<circle fill="#11206B" cx="111.879" cy="752.516" r="7.717" />
			<path fill="#F93B47" d="M195.154,651.748c3.124,0,6.29-0.746,9.231-2.321c6.099-3.266,10.065-9.592,10.349-16.512
			c0.057-1.392-1.025-2.566-2.417-2.624c-1.373-0.046-2.566,1.025-2.624,2.417c-0.211,5.143-3.158,9.845-7.689,12.272
			c-7.088,3.794-15.942,1.116-19.738-5.972c-0.658-1.228-2.188-1.691-3.414-1.033c-1.228,0.657-1.691,2.186-1.033,3.414
			C181.352,647.988,188.145,651.748,195.154,651.748z" />

			<rect x="910.653" y="419.223" transform="matrix(-1 4.499233e-11 -4.499233e-11 -1 1835.8401 852.9796)"
				fill="#11206B" width="14.534" height="14.534" />

			<rect x="150.728" y="498.543" transform="matrix(-1 4.492972e-11 -4.492972e-11 -1 315.9905 1011.62)"
				fill="#F89F1D" width="14.534" height="14.534" />
			<path fill="#F93B47" d="M512.575-0.175l-0.573,1.348c-0.021,0.048-2.202,5.073-6.763,9.877c-5.966,6.282-13.109,9.38-21.211,9.189
			l-1.471-0.034l-0.182,7.986l1.471,0.033c0.282,0.007,0.565,0.009,0.845,0.009c10.039,0,19.193-4.089,26.474-11.826
			c5.57-5.918,8.096-11.89,8.201-12.141l0.565-1.355L512.575-0.175z" />
			<path fill="#0AC5C3" d="M636.551,130.504c-0.24-0.688-6.073-16.868-23.52-18.806l-1.463-0.163l-0.882,7.939l1.463,0.163
			c12.378,1.375,16.819,13.383,16.862,13.504l0.492,1.373l7.532-2.621L636.551,130.504z" />
			<path fill="#F89F1D" d="M408.859,105.378c-8.871-7.485-6.289-19.391-6.174-19.894l0.325-1.43l-7.775-1.797l-0.333,1.431
			c-0.162,0.695-3.819,17.144,8.806,27.796l1.124,0.949l5.151-6.106L408.859,105.378z" />
			<path fill="#F89F1D"
				d="M773.244,454.357c-1.968-0.077-3.636,1.455-3.718,3.424c-0.235,5.718-3.51,10.945-8.548,13.643
			c-3.817,2.045-8.201,2.479-12.345,1.225c-4.144-1.254-7.552-4.047-9.596-7.863c-0.931-1.737-3.101-2.394-4.837-1.464
			c-1.737,0.93-2.394,3.1-1.464,4.837c2.945,5.5,7.855,9.524,13.827,11.331c2.219,0.671,4.505,1.012,6.793,1.012
			c3.801,0,7.604-0.96,10.996-2.777c7.258-3.886,11.977-11.416,12.316-19.65C776.749,456.106,775.213,454.439,773.244,454.357z" />
			<path fill="#0AC5C3"
				d="M902.931,553.641c-1.253-4.841-4.317-8.903-8.626-11.44c-5.687-3.347-12.808-3.439-18.585-0.237
			c-1.724,0.955-2.348,3.135-1.393,4.858c0.462,0.835,1.223,1.439,2.14,1.703c0.917,0.264,1.883,0.154,2.718-0.31
			c3.573-1.981,7.977-1.926,11.494,0.144c5.499,3.237,7.339,10.345,4.102,15.844c-1,1.698-0.432,3.893,1.266,4.893
			c0.55,0.323,1.176,0.494,1.811,0.494c1.261,0,2.442-0.675,3.082-1.761C903.478,563.521,904.185,558.482,902.931,553.641z" />
			<g>
				<path fill="#11206B" d="M712.724,70.828c0.394,0.231,0.822,0.34,1.247,0.34c0.843,0,1.662-0.432,2.121-1.212l6.207-10.54
				c0.674-1.144,0.312-2.626-0.818-3.323c-0.014-0.009-0.028-0.017-0.042-0.026c-1.16-0.711-2.687-0.32-3.377,0.852l-6.207,10.541
				C711.164,68.63,711.554,70.138,712.724,70.828z" />
				<path fill="#11206B" d="M732.248,70.969c-0.004-0.017-0.008-0.034-0.012-0.051c-0.317-1.323-1.673-2.122-2.99-1.781
				l-11.845,3.066c-1.314,0.341-2.104,1.683-1.763,2.998c0.286,1.109,1.285,1.844,2.378,1.844c0.204,0,0.413-0.025,0.62-0.078
				l11.843-3.065C731.765,73.569,732.555,72.262,732.248,70.969z" />
				<path fill="#11206B" d="M728.511,85.686L717.97,79.48c-1.177-0.692-2.684-0.299-3.368,0.872c-0.689,1.171-0.3,2.679,0.87,3.368
				l10.541,6.206c1.144,0.674,2.626,0.312,3.323-0.818c0.009-0.015,0.018-0.03,0.028-0.045
				C730.075,87.903,729.684,86.377,728.511,85.686z" />
				<path fill="#11206B"
					d="M713.226,85.029c-0.339-1.316-1.66-2.104-2.998-1.766c-1.314,0.341-2.105,1.683-1.763,2.998l3.065,11.844
				c0.333,1.286,1.64,2.077,2.932,1.77c0.016-0.004,0.032-0.008,0.048-0.012c1.323-0.317,2.122-1.673,1.781-2.99L713.226,85.029z" />
				<path fill="#11206B" d="M705.077,82.227c-1.18-0.692-2.683-0.297-3.368,0.872l-6.206,10.541
				c-0.674,1.144-0.312,2.626,0.818,3.323c0.014,0.009,0.028,0.017,0.042,0.026c1.16,0.712,2.687,0.321,3.378-0.852l6.206-10.541
				C706.636,84.424,706.247,82.917,705.077,82.227z" />
				<path fill="#11206B" d="M702.165,77.854c-0.339-1.316-1.682-2.103-2.998-1.766l-11.843,3.066c-1.286,0.333-2.077,1.64-1.77,2.932
				c0.004,0.017,0.008,0.034,0.012,0.051c0.317,1.323,1.673,2.122,2.99,1.781l11.845-3.066
				C701.716,80.511,702.506,79.169,702.165,77.854z" />
				<path fill="#11206B" d="M689.292,67.369l10.541,6.206c0.394,0.231,0.824,0.34,1.247,0.34c0.843,0,1.665-0.432,2.121-1.212
				c0.69-1.171,0.3-2.679-0.87-3.368l-10.541-6.207c-1.144-0.674-2.626-0.312-3.323,0.818c-0.009,0.015-0.018,0.03-0.028,0.045
				C687.728,65.152,688.119,66.678,689.292,67.369z" />
				<path fill="#11206B" d="M709.339,66.796l-3.065-11.844c-0.333-1.286-1.64-2.077-2.932-1.77c-0.016,0.004-0.032,0.008-0.048,0.012
				c-1.323,0.317-2.122,1.673-1.781,2.99l3.065,11.845c0.286,1.109,1.285,1.845,2.378,1.845c0.204,0,0.411-0.026,0.62-0.079
				C708.889,69.453,709.68,68.111,709.339,66.796z" />
			</g>
			<g>
				<path fill="#11206B" d="M262.748,91.645c0.394,0.231,0.822,0.34,1.247,0.34c0.843,0,1.663-0.432,2.121-1.212l6.207-10.54
				c0.674-1.144,0.312-2.627-0.818-3.323c-0.014-0.009-0.028-0.017-0.042-0.026c-1.16-0.711-2.687-0.32-3.377,0.852l-6.207,10.541
				C261.189,89.447,261.578,90.955,262.748,91.645z" />
				<path fill="#11206B" d="M282.273,91.786c-0.004-0.017-0.008-0.034-0.012-0.051c-0.317-1.323-1.673-2.122-2.99-1.781
				l-11.845,3.066c-1.314,0.341-2.105,1.683-1.763,2.998c0.286,1.109,1.285,1.844,2.378,1.844c0.204,0,0.413-0.025,0.62-0.078
				l11.843-3.065C281.789,94.386,282.58,93.079,282.273,91.786z" />
				<path fill="#11206B" d="M278.536,106.503l-10.541-6.206c-1.177-0.692-2.683-0.299-3.368,0.872c-0.689,1.171-0.3,2.679,0.87,3.368
				l10.541,6.206c1.144,0.674,2.626,0.312,3.323-0.818c0.009-0.015,0.018-0.03,0.028-0.045
				C280.1,108.72,279.709,107.194,278.536,106.503z" />
				<path fill="#11206B"
					d="M263.25,105.845c-0.339-1.316-1.66-2.104-2.998-1.766c-1.314,0.341-2.104,1.683-1.763,2.998l3.065,11.844
				c0.333,1.286,1.64,2.077,2.932,1.77c0.016-0.004,0.032-0.008,0.048-0.012c1.323-0.317,2.122-1.673,1.781-2.99L263.25,105.845z" />
				<path fill="#11206B" d="M255.101,103.044c-1.18-0.692-2.683-0.297-3.368,0.872l-6.206,10.541
				c-0.674,1.144-0.312,2.626,0.818,3.323c0.014,0.009,0.028,0.017,0.042,0.026c1.16,0.712,2.687,0.321,3.378-0.852l6.206-10.541
				C256.66,105.241,256.271,103.734,255.101,103.044z" />
				<path fill="#11206B" d="M252.19,98.671c-0.339-1.316-1.682-2.103-2.998-1.766l-11.843,3.065c-1.286,0.333-2.077,1.64-1.77,2.932
				c0.004,0.017,0.008,0.034,0.012,0.051c0.317,1.323,1.673,2.122,2.99,1.781l11.845-3.066
				C251.74,101.328,252.531,99.986,252.19,98.671z" />
				<path fill="#11206B" d="M239.316,88.186l10.541,6.206c0.394,0.231,0.824,0.34,1.247,0.34c0.843,0,1.665-0.432,2.121-1.212
				c0.689-1.171,0.3-2.679-0.87-3.368l-10.541-6.207c-1.144-0.674-2.626-0.312-3.323,0.818c-0.009,0.015-0.018,0.03-0.028,0.045
				C237.752,85.969,238.143,87.495,239.316,88.186z" />
				<path fill="#11206B" d="M259.363,87.612l-3.065-11.844c-0.333-1.286-1.64-2.077-2.932-1.77c-0.016,0.004-0.032,0.008-0.048,0.012
				c-1.323,0.317-2.122,1.673-1.781,2.99l3.065,11.845c0.286,1.109,1.285,1.845,2.378,1.845c0.204,0,0.411-0.026,0.62-0.079
				C258.914,90.269,259.704,88.928,259.363,87.612z" />
			</g>
			<g>
				<path fill="#11206B" d="M901.244,294.606c-0.292-0.351-0.703-0.567-1.156-0.608c-0.296-0.028-7.308-0.645-14.81,1.194
				c-10.295,2.526-16.476,8.462-17.872,17.167c-0.335,2.078-0.474,4.04-0.418,5.837c-5.381,4.804-8.006,11.899-7.23,19.569
				c-1.327,0.273-2.608,0.782-3.821,1.518c-7.216,4.377-9.973,15.561-10.087,16.035c-0.106,0.444-0.033,0.902,0.205,1.291
				c0.24,0.388,0.615,0.66,1.055,0.765c0.131,0.031,0.264,0.048,0.399,0.048c0.059,0,0.12-0.003,0.179-0.009
				c0.718-0.076,1.313-0.598,1.48-1.296c0.025-0.103,2.574-10.3,8.541-13.918c0.833-0.505,1.707-0.859,2.609-1.059
				c1.107,4.749,3.324,8.419,5.769,9.474c2.661,1.148,5.317,0.943,7.108-0.545c1.454-1.211,2.063-3.065,1.631-4.959
				c-0.348-1.526-1.973-5.278-9.526-7.171c-0.715-0.18-1.429-0.301-2.132-0.362c-0.375-3.499-0.236-9.865,4.389-15.139
				c1.715,6.753,6.78,8.796,9.009,9.376c6.272,1.633,13.576-1.219,15.317-5.985c1.351-3.703-0.273-8.366-3.863-11.087
				c-4.629-3.509-11.097-3.153-17.559,0.88c0.059-0.874,0.164-1.784,0.314-2.721c1.177-7.337,6.319-12.176,15.282-14.384
				c6.909-1.704,13.648-1.125,13.716-1.119c0.934,0.07,1.768-0.605,1.857-1.543C901.673,295.4,901.535,294.956,901.244,294.606z
				 M888.678,324.656c-1.122,3.067-6.797,5.012-11.253,3.853c-3.921-1.021-6.292-4.064-6.88-8.818c0.1-0.074,0.2-0.148,0.303-0.221
				c8.224-5.917,13.306-3.376,15.109-2.01C888.384,319.3,889.528,322.326,888.678,324.656z M867.439,347.479
				c-0.957-0.414-2.61-2.63-3.612-6.371c0.214,0.04,0.429,0.086,0.644,0.14c3.909,0.98,6.602,2.75,7.028,4.619
				c0.145,0.636-0.027,1.195-0.485,1.576C870.242,348.084,868.876,348.097,867.439,347.479z" />
				<path fill="#11206B" d="M135.53,385.575c-1.681-1.02-3.46-1.707-5.301-2.049c0.001-0.007,0.001-0.013,0.002-0.02
				c1.123-10.329-2.396-19.888-9.663-26.308c0.09-2.423-0.095-5.08-0.548-7.906c-1.849-11.521-10.043-19.381-23.694-22.73
				c-10.014-2.456-19.337-1.628-19.728-1.591c-1.077,0.1-1.873,1.057-1.774,2.136c0.101,1.076,1.069,1.885,2.132,1.775
				c0.371-0.033,9.221-0.775,18.48,1.507c12.14,2.991,19.106,9.56,20.706,19.526c0.239,1.488,0.393,2.929,0.462,4.304
				c-8.713-5.641-17.466-6.24-23.68-1.531c-4.699,3.561-6.83,9.651-5.067,14.481c2.238,6.128,12.022,9.925,20.131,7.815
				c2.992-0.778,9.869-3.564,11.975-12.916c6.698,7.258,6.89,16.18,6.364,21.016c-0.009,0.077-0.017,0.153-0.026,0.23
				c-1.007,0.072-2.035,0.238-3.067,0.497c-9.942,2.493-12.069,7.379-12.522,9.364c-0.551,2.419,0.225,4.783,2.077,6.322
				c2.302,1.915,5.735,2.169,9.185,0.682c3.185-1.373,6.187-6.447,7.608-12.771c1.355,0.26,2.666,0.771,3.907,1.523
				c8.148,4.94,11.549,18.696,11.583,18.834c0.193,0.808,0.878,1.408,1.704,1.496c0.069,0.007,0.138,0.01,0.207,0.01
				c0.154,0,0.306-0.018,0.455-0.054c1.053-0.251,1.705-1.313,1.454-2.367C148.74,406.221,145.087,391.374,135.53,385.575z
				 M125.563,387.345c-1.251,4.951-3.52,8.526-5.146,9.227c-2.063,0.89-3.977,0.855-5.118-0.096
				c-0.712-0.592-0.981-1.455-0.758-2.43c0.597-2.622,4.294-5.085,9.647-6.427C124.649,387.504,125.108,387.412,125.563,387.345z
				 M116.471,358.917c-0.764,6.614-4.032,10.85-9.474,12.266c-6.103,1.59-13.902-1.117-15.452-5.361
				c-1.187-3.25,0.39-7.457,3.749-10.004c1.285-0.974,3.783-2.384,7.455-2.384c3.394,0,7.791,1.204,13.164,5.071
				C116.101,358.641,116.287,358.778,116.471,358.917z" />
			</g>
		</g>
		<g>
			<path fill="#F98C0B" d="M307.53,915.196l1.33,34.723c0,0-63.043-37.325-100.762,15.562c-2.942,4.125-4.861,8.97-5.017,14.034
			c-0.603,19.632,23.657,25.178,53.92,10.294c0,0,0.741,16.964,42.529,7.49c20.152-3.839,63.863-10.885,86.631-14.51
			c12.946-2.061,20.216-16.668,13.315-27.813c-4.686-7.568-15.49-12.924-38.759-9.045l-2.661-32.48l-0.353,0.046
			c-17.657,2.371-31.927,3.182-49.289,1.743L307.53,915.196z" />
			<path fill="#00A7FF" d="M455.941,913.894c79.986-24.229,161.511-42.857,243.808-57.418
			c186.318-32.966,162.917-194.822,128.198-264.259c-32.282-64.564-78.706-70.212-87.201-213.157
			c-11.498-193.486-204.874-190.206-204.874-190.206l0,0c0-0.012-33.874-2.14-58.031-0.775c0,0-197.771-4.504-208.404,186.876
			c-10.632,140.876-46.892,186.357-68.156,284.704c-18.163,84.005-50.738,221.627,104.855,259.981
			c47.818,11.787,97.983,9.952,145.117-4.325L455.941,913.894z" />
			<path fill="#F98C0B" d="M785.55,824.505l11.864,29.545c0,0,42.175-59.907,98.274-27.154c4.376,2.555,8.114,6.185,10.333,10.74
			c8.605,17.656-11.242,32.668-44.948,31.513c0,0,6.285,15.774-35.71,24.281c-19.953,4.769-62.705,16.278-84.956,22.315
			c-12.652,3.433-25.276-6.905-23.555-19.9c1.168-8.824,8.823-18.142,31.634-24.153l-9.729-28.046l-0.831-2.768
			c17.075-5.083,31.593-7.534,46.836-15.97L785.55,824.505z" />
			<g>
				<path fill="#0083FF" d="M548.642,189.241l9.004,0.995c0,0-2.74,25.267-11.675,33.873L548.642,189.241z" />
				<path fill="#0083FF" d="M514.195,210.242c0,0-22.678-1.858-42.666,1.467c-23.97,3.987-40.009-1.404-63.299-13.081
				C408.23,198.628,497.759,187.111,514.195,210.242z" />
				<path fill="#00A7FF" d="M545.971,224.109c0,0,18.681-54.888-28.527-86.256c-21.989-14.611-49.697-17.818-74.732-9.436
				c-34.987,11.714-71.521,31.123-144.107-27.764c0,0-1.115,75.019,88.954,94.083S472.681,187.74,545.971,224.109z" />
			</g>
			<g>
				<path fill="#10316B" d="M609.153,236.518c0.193-0.069,0.387-0.138,0.582-0.205c20.067-6.931,41.344,5.47,45.775,26.233
				c1.688,7.911,1.469,15.739-0.667,20.876c0,0-4.347-34.089-30.259-39.943c-1.865-0.421-3.769-0.621-5.679-0.703
				c-1.945-0.084-4.729-0.088-8.224,0.322C606.644,243.572,605.329,237.896,609.153,236.518z" />
				<path fill="#10316B" d="M404.721,255.702c-0.199-0.048-0.399-0.095-0.601-0.141c-20.699-4.718-40.509,9.914-42.666,31.034
				c-0.822,8.047,0.244,15.805,2.923,20.681c0,0,0.631-34.36,25.757-42.984c1.809-0.621,3.679-1.025,5.57-1.314
				c1.924-0.294,4.692-0.599,8.21-0.57C407.979,262.443,408.672,256.658,404.721,255.702z" />
			</g>
			<g>
				<g>
					<circle fill="#FFFFFF" cx="615.832" cy="353.478" r="72.996" />

					<radialGradient id="SVGID_1_" cx="-1092.0146" cy="156.6108" r="72.9962"
						gradientTransform="matrix(-0.9756 0.2196 0.2196 0.9756 -483.917 440.5085)"
						gradientUnits="userSpaceOnUse">
						<stop offset="0" style="stop-color:#FFFFFF" />
						<stop offset="0.4497" style="stop-color:#FDFFFF;stop-opacity:0.5503" />
						<stop offset="0.6117" style="stop-color:#F6FDFF;stop-opacity:0.3883" />
						<stop offset="0.7272" style="stop-color:#EBFBFF;stop-opacity:0.2728" />
						<stop offset="0.8205" style="stop-color:#DAF7FF;stop-opacity:0.1795" />
						<stop offset="0.9005" style="stop-color:#C4F3FF;stop-opacity:0.0995" />
						<stop offset="0.9701" style="stop-color:#A9EDFF;stop-opacity:0.0299" />
						<stop offset="1" style="stop-color:#9BEAFF;stop-opacity:0" />
					</radialGradient>
					<circle opacity="0.48" fill="url(#SVGID_1_)" cx="615.832" cy="353.478" r="72.996" />
				</g>
				<g>
					<circle fill="#10316B" cx="577.334" cy="360.915" r="14.599" />
					<circle fill="#FFFFFF" cx="568.609" cy="355.396" r="5.557" />
				</g>
				<g>
					<circle fill="#FFFFFF" cx="451.161" cy="359.229" r="91.526" />

					<radialGradient id="SVGID_00000076595080600565445820000003701048020168123830_" cx="-930.1002"
						cy="126.0581" r="91.5262"
						gradientTransform="matrix(-0.9756 0.2196 0.2196 0.9756 -483.917 440.5085)"
						gradientUnits="userSpaceOnUse">
						<stop offset="0" style="stop-color:#FFFFFF" />
						<stop offset="0.4497" style="stop-color:#FDFFFF;stop-opacity:0.5503" />
						<stop offset="0.6117" style="stop-color:#F6FDFF;stop-opacity:0.3883" />
						<stop offset="0.7272" style="stop-color:#EBFBFF;stop-opacity:0.2728" />
						<stop offset="0.8205" style="stop-color:#DAF7FF;stop-opacity:0.1795" />
						<stop offset="0.9005" style="stop-color:#C4F3FF;stop-opacity:0.0995" />
						<stop offset="0.9701" style="stop-color:#A9EDFF;stop-opacity:0.0299" />
						<stop offset="1" style="stop-color:#9BEAFF;stop-opacity:0" />
					</radialGradient>

					<circle opacity="0.48" fill="url(#SVGID_00000076595080600565445820000003701048020168123830_)"
						cx="451.161" cy="359.229" r="91.526" />
				</g>
				<g>
					<circle fill="#10316B" cx="506.34" cy="364.109" r="18.305" />
					<circle fill="#FFFFFF" cx="495.401" cy="357.19" r="6.968" />
				</g>
			</g>
			<g>
				<path fill="#FFE226" d="M498.766,449.052c-2.079,1.464-2.878,4.163-1.92,6.519c7.479,18.389,39.71,93.214,67.716,90.006
				c27.902-3.196,41.049-82.643,43.915-102.579c0.375-2.605-1.155-5.107-3.647-5.955l-0.468-0.159
				c-7.803-2.658-15.194-6.371-22.078-10.905c-8.039-5.294-20.694-11.835-32.623-10.468c-13.383,1.533-27.16,12.898-34.779,20.213
				C509.844,440.559,504.476,445.032,498.766,449.052L498.766,449.052z" />
				<path fill="#10316B" d="M603.652,442.539c0,0-47.991,19.894-102.499,11.742c10.426,26.334,44.911,79.626,62.288,77.845
				C581.794,530.245,600.69,465.183,603.652,442.539z" />
			</g>
			<g>
				<path fill="#FFBB00" d="M741.349,634.457l-5.223-54.81c-1.615-16.946-16.66-29.373-33.605-27.758L469.52,574.091
				c-12.675,1.208-24.989-4.622-32.089-15.189L426.077,542c-6.309-9.389-17.251-14.568-28.508-13.495l-70.595,6.727
				c-16.946,1.615-29.373,16.66-27.758,33.605l11.453,120.188L741.349,634.457z" />
				<g>
					<g>
						<path fill="#FFE226" d="M310.125,683.293l20.065,210.577c1.63,17.11,16.823,29.659,33.933,28.029l370.002-35.257
						c17.11-1.63,29.659-16.823,28.029-33.933l-23.201-243.481c-1.837-19.274-18.95-33.41-38.225-31.574l-190.118,18.116
						c-5.877,0.56-11.328,3.313-15.267,7.71l-13.184,14.717c-7.392,8.251-17.603,13.434-28.627,14.525
						c-26.111,2.586-76.448,7.571-110.838,10.977C322.784,645.673,308.227,663.375,310.125,683.293z" />
					</g>
				</g>
				<path id="Wordpress_Logo_9_" fill="#FFBB00" d="M441.711,758.395c3.307,35.801,26.684,66.606,60.274,79.426L446.103,719.46
				C441.942,731.99,440.446,745.252,441.711,758.395z M596.513,738.861c-1.007-9.151-4.517-17.848-10.144-25.135
				c-5.433-7.287-10.453-13.4-11.19-21.135c-1.121-8.857,5.127-16.955,13.979-18.117c0.394-0.037,0.798-0.02,1.2-0.03
				c-18.49-14.219-41.685-20.897-64.905-18.686c-31.827,3.033-62.476,16.377-77.724,42.963c7.371-0.562,34.755-3.312,34.755-3.312
				c5.24-0.79,6.335,10.587,1.117,11.727c0,0-5.707,0.236-11.589,1.104l43.7,90.505l17.568-60.842l-14.941-34.077
				c-5.301,0.209-11.583,1.104-11.583,1.104c-5.312,0.21-6.428-11.501-1.117-11.727l44.617-4.156
				c5.236-0.773,8.067,10.377,2.845,11.479c0,0-5.706,0.247-11.589,1.104l43.694,90.506l7.111-22.258
				c3.219-10.009,4.636-20.511,4.184-31.015L596.513,738.861z M539.562,772.822l-19.635,69.913
				c7.714,1.486,15.62,1.696,23.402,0.624c10.488-0.996,20.727-3.792,30.265-8.266c-0.296-0.38-0.558-0.786-0.781-1.212
				L539.562,772.822z M611.43,696.819c0.738,3.16,1.258,6.367,1.558,9.598c0.939,11.565-0.371,23.202-3.857,34.268l-20.44,85.483
				c40.982-30.087,51-87.112,22.727-129.365L611.43,696.819z" />
			</g>
			<g>
				<g>
					<g>
						<g>
							<path fill="#0083FF" d="M291.025,646.542c0,0,4.533,17.082,20.164,38.331c16.018,21.774,37.396,39.034,61.914,50.418
							c25.955,12.051,32.027,11.566,52.878,18.266c9.868,2.223,11.472,35.585-30.835,55.1c0,0-86.682,38.878-164.447-13.712
							c-20.002-13.527-59.822-79.049,1.489-135.299" />
						</g>
					</g>
				</g>
				<g>
					<path fill="#00A7FF" d="M291.025,642.421c0,0,4.533,17.082,20.164,38.331c16.018,21.774,37.396,39.034,61.914,50.418
					c25.955,12.051,31.409,15.153,52.26,21.853c9.868,2.223,12.09,31.998-30.217,51.513c0,0-84.49,38.532-162.255-14.059
					c-20.002-13.527-62.014-78.702-0.703-134.952" />
				</g>
			</g>
			<g>
				<g>
					<g>
						<g>
							<path fill="#0083FF" d="M751.441,615.429c0,0-4.534,17.082-20.164,38.331c-16.018,21.774-37.396,39.034-61.914,50.418
							c-25.955,12.051-32.027,11.566-52.878,18.266c-9.868,2.223-11.472,35.585,30.835,55.1c0,0,86.682,38.878,164.447-13.712
							c20.002-13.527,59.822-79.049-1.489-135.299" />
						</g>
					</g>
				</g>
				<g>
					<path fill="#00A7FF" d="M751.441,611.308c0,0-4.534,17.082-20.164,38.331c-16.018,21.774-37.396,39.034-61.914,50.418
					c-25.955,12.051-31.409,15.153-52.26,21.853c-9.868,2.223-12.089,31.998,30.217,51.513c0,0,84.49,38.532,162.255-14.059
					c20.002-13.527,62.014-78.702,0.703-134.952" />
				</g>
			</g>
		</g>
	</g>
</svg>