<?xml version="1.0" encoding="utf-8"?>
<!-- Generator: Adobe Illustrator 28.0.0, SVG Export Plug-In . SVG Version: 6.00 Build 0)  -->
<svg version="1.1" id="Layer_1" xmlns="http://www.w3.org/2000/svg" xmlns:xlink="http://www.w3.org/1999/xlink" x="0px" y="0px"
	 viewBox="0 0 500 500" enable-background="new 0 0 500 500" xml:space="preserve">
<g>
	<g>
		<path fill="#F98C0B" d="M137.883,451.023l0.766,20.012c0,0-36.334-21.512-58.072,8.969c-1.696,2.378-2.802,5.169-2.891,8.088
			c-0.347,11.314,13.634,14.511,31.076,5.933c0,0,0.427,9.777,24.511,4.316c11.614-2.212,36.806-6.274,49.928-8.363
			c7.461-1.188,11.651-9.606,7.674-16.03c-2.701-4.362-8.927-7.448-22.338-5.213l-1.534-18.719l-0.204,0.026
			c-10.176,1.367-18.401,1.834-28.407,1.005L137.883,451.023z"/>
		<path fill="#F98C0B" d="M362.115,451.023l-0.766,20.012c0,0,36.334-21.512,58.072,8.969c1.696,2.378,2.802,5.169,2.891,8.088
			c0.347,11.314-13.634,14.511-31.076,5.933c0,0-0.427,9.777-24.511,4.316c-11.614-2.212-36.806-6.274-49.928-8.363
			c-7.461-1.188-11.651-9.606-7.674-16.03c2.701-4.362,8.927-7.448,22.338-5.213l1.534-18.719l0.204,0.026
			c10.176,1.367,18.401,1.834,28.407,1.005L362.115,451.023z"/>
	</g>
	<radialGradient id="SVGID_1_" cx="250.0014" cy="248.9926" r="200.6334" gradientUnits="userSpaceOnUse">
		<stop  offset="0" style="stop-color:#43E7E0"/>
		<stop  offset="0.1781" style="stop-color:#3DE0E3"/>
		<stop  offset="0.4456" style="stop-color:#2ECBEA"/>
		<stop  offset="0.7676" style="stop-color:#15AAF5"/>
		<stop  offset="1" style="stop-color:#008DFF"/>
	</radialGradient>
	<path fill="url(#SVGID_1_)" d="M263.961,31.962c0,0,113.982-2.596,120.11,107.703c6.128,81.192,27.025,107.404,39.281,164.085
		c12.255,56.681,35.895,155.716-116.426,155.716c0,0-16.624,4.747-41.404,6.313c-0.015,0.001-0.03,0.002-0.045,0.003
		c-0.511,0.032-1.025,0.063-1.543,0.092c-4.164,0.243-8.224,0.367-12.159,0.393c-0.13,0.001-0.259,0.002-0.389,0.003
		c-0.44,0.002-0.877,0.002-1.314,0.002c-0.437,0-0.874,0-1.314-0.002c-0.13-0.001-0.26-0.002-0.389-0.003
		c-3.935-0.026-7.996-0.15-12.159-0.393c-0.518-0.03-1.032-0.06-1.543-0.092c-0.015-0.001-0.03-0.002-0.045-0.003
		c-24.78-1.566-41.405-6.313-41.405-6.313c-152.971,0-128.681-99.035-116.426-155.716c12.255-56.681,29.744-82.787,34.252-164.085
		c6.115-110.284,119.468-107.207,119.49-107.231v0C230.531,32.434,250.039,31.201,263.961,31.962z"/>
	<path fill="#00A7FF" d="M263.959,31.961c0,0,113.982-2.596,120.11,107.703c6.128,81.192,27.025,107.404,39.281,164.085
		s35.895,155.716-116.426,155.716c0,0-16.624,4.747-41.404,6.313c-0.015,0.001-0.03,0.002-0.045,0.003
		c-0.511,0.032-1.025,0.063-1.543,0.092c-4.164,0.243-8.224,0.367-12.159,0.393c-0.13,0.001-0.259,0.002-0.389,0.003
		c-0.44,0.002-0.877,0.002-1.314,0.002c-0.437,0-0.874,0-1.314-0.002c-0.13-0.001-0.26-0.002-0.389-0.003
		c-3.935-0.026-7.996-0.15-12.159-0.393c-0.518-0.03-1.032-0.06-1.543-0.092c-0.015-0.001-0.03-0.002-0.045-0.003
		c-24.78-1.566-41.405-6.313-41.405-6.313c-152.971,0-128.681-99.035-116.426-155.716c12.255-56.681,29.356-81.7,34.252-164.085
		C117.665,28.152,230.513,32.408,230.513,32.408l0,0C230.514,32.401,250.036,31.174,263.959,31.961z"/>
	<path fill="#10316B" d="M302.141,76.026c0,0,14.036,3.18,19.892,14.177c0,0-0.942-12.161-9.274-15.792
		C304.427,70.78,299.553,72.695,302.141,76.026z"/>
	<path fill="#10316B" d="M192.968,76.015c0,0-14.033,3.194-19.878,14.197c0,0,0.93-12.162,9.258-15.801
		C190.677,70.771,195.552,72.682,192.968,76.015z"/>
	<g>
		<circle fill="#FFFFFF" cx="195.859" cy="150.588" r="42.07"/>
		
			<radialGradient id="SVGID_00000097470166859239118180000002193661809379390374_" cx="195.8589" cy="150.588" r="42.0702" gradientUnits="userSpaceOnUse">
			<stop  offset="0" style="stop-color:#FFFFFF"/>
			<stop  offset="0.4497" style="stop-color:#FDFFFF;stop-opacity:0.5503"/>
			<stop  offset="0.6117" style="stop-color:#F6FDFF;stop-opacity:0.3883"/>
			<stop  offset="0.7272" style="stop-color:#EBFBFF;stop-opacity:0.2728"/>
			<stop  offset="0.8205" style="stop-color:#DAF7FF;stop-opacity:0.1795"/>
			<stop  offset="0.9005" style="stop-color:#C4F3FF;stop-opacity:0.0995"/>
			<stop  offset="0.9701" style="stop-color:#A9EDFF;stop-opacity:0.0299"/>
			<stop  offset="1" style="stop-color:#9BEAFF;stop-opacity:0"/>
		</radialGradient>
		
			<circle opacity="0.48" fill="url(#SVGID_00000097470166859239118180000002193661809379390374_)" cx="195.859" cy="150.588" r="42.07"/>
		
			<radialGradient id="SVGID_00000049200591435963890020000000825906326144149635_" cx="195.8589" cy="150.588" r="42.0702" gradientUnits="userSpaceOnUse">
			<stop  offset="0" style="stop-color:#FFFFFF"/>
			<stop  offset="0.4497" style="stop-color:#FDFFFF;stop-opacity:0.5503"/>
			<stop  offset="0.6117" style="stop-color:#F6FDFF;stop-opacity:0.3883"/>
			<stop  offset="0.7272" style="stop-color:#EBFBFF;stop-opacity:0.2728"/>
			<stop  offset="0.8205" style="stop-color:#DAF7FF;stop-opacity:0.1795"/>
			<stop  offset="0.9005" style="stop-color:#C4F3FF;stop-opacity:0.0995"/>
			<stop  offset="0.9701" style="stop-color:#A9EDFF;stop-opacity:0.0299"/>
			<stop  offset="1" style="stop-color:#9BEAFF;stop-opacity:0"/>
		</radialGradient>
		
			<circle opacity="0.48" fill="url(#SVGID_00000049200591435963890020000000825906326144149635_)" cx="195.859" cy="150.588" r="42.07"/>
		<path opacity="0.48" fill="#E6E6E6" d="M153.789,150.588c0-23.235,18.835-42.07,42.07-42.07c18.565,0,34.322,12.026,39.905,28.712
			L153.789,150.588z"/>
		<g>
			<circle fill="#10316B" cx="195.859" cy="164.609" r="8.414"/>
			<circle fill="#FFFFFF" cx="200.066" cy="160.402" r="3.203"/>
		</g>
	</g>
	<g>
		<circle fill="#FFFFFF" cx="298.149" cy="143.641" r="52.75"/>
		
			<radialGradient id="SVGID_00000072261774196067188240000016771752280053470379_" cx="298.1493" cy="143.6409" r="52.7496" gradientUnits="userSpaceOnUse">
			<stop  offset="0" style="stop-color:#FFFFFF"/>
			<stop  offset="0.4497" style="stop-color:#FDFFFF;stop-opacity:0.5503"/>
			<stop  offset="0.6117" style="stop-color:#F6FDFF;stop-opacity:0.3883"/>
			<stop  offset="0.7272" style="stop-color:#EBFBFF;stop-opacity:0.2728"/>
			<stop  offset="0.8205" style="stop-color:#DAF7FF;stop-opacity:0.1795"/>
			<stop  offset="0.9005" style="stop-color:#C4F3FF;stop-opacity:0.0995"/>
			<stop  offset="0.9701" style="stop-color:#A9EDFF;stop-opacity:0.0299"/>
			<stop  offset="1" style="stop-color:#9BEAFF;stop-opacity:0"/>
		</radialGradient>
		
			<circle opacity="0.48" fill="url(#SVGID_00000072261774196067188240000016771752280053470379_)" cx="298.149" cy="143.641" r="52.75"/>
		<path opacity="0.48" fill="#E6E6E6" d="M350.899,143.641c0-29.133-23.617-52.75-52.75-52.75c-26.13,0-47.822,18.999-52.017,43.937
			L350.899,143.641z"/>
		<g>
			<circle fill="#10316B" cx="298.149" cy="157.662" r="10.55"/>
			<circle fill="#FFFFFF" cx="303.424" cy="152.387" r="4.016"/>
		</g>
	</g>
	<g>
		<path fill="#FFE226" d="M279.612,201.474c0,5.879-15.009,17.058-33.524,17.058s-32.52-11.585-32.52-17.058
			c0-4.932,14.005-17.058,32.52-17.058S279.612,194.785,279.612,201.474z"/>
		<path fill="#10316B" d="M216.946,203.582c0,0,28.784-8.243,59.46,0C255.99,193.924,232.892,193.988,216.946,203.582z"/>
	</g>
	<path fill="#FFBB00" d="M375.455,292.607v-31.732c0-9.811-7.952-17.763-17.763-17.763H222.797c-7.338,0-14.085-4.018-17.58-10.469
		l-5.59-10.318c-3.106-5.731-9.101-9.301-15.619-9.301h-40.87c-9.811,0-17.763,7.952-17.763,17.763l0,69.582L375.455,292.607z"/>
	<g>
		<g>
			<path fill="#FFE226" d="M125.377,297.052l0,121.912c0,9.906,8.03,17.936,17.936,17.936h214.211
				c9.906,0,17.936-8.03,17.936-17.936V278.002c0-11.159-9.046-20.205-20.205-20.205H245.188c-3.403,0-6.68,1.281-9.181,3.589
				l-8.369,7.723c-4.692,4.33-10.834,6.745-17.218,6.769c-15.122,0.056-44.275,0.164-64.191,0.239
				C134.697,276.16,125.377,285.52,125.377,297.052z"/>
		</g>
	</g>
	<path fill="#0083FF" d="M283.942,33.489l5.061,0.94c0,0,0.291,13.648-4.229,19.188L283.942,33.489z"/>
	<path fill="#0083FF" d="M265.638,47.87c0,0-12.342-1.187-23.339,1.661c-10.997,2.848-50.475,9.019-68.592-5.459
		C173.707,44.072,254.641,35.765,265.638,47.87z"/>
	<path fill="#00A7FF" d="M284.775,53.617c0,0,6.912-32.693-22.26-47.393c-13.588-6.847-29.663-6.775-43.412-0.256
		C199.89,15.079,180.32,28.7,134.733,0c0,0,4.526,43.003,57.376,47.713S240.334,37.851,284.775,53.617z"/>
	<path id="Wordpress_Logo_6_" fill="#FFBB00" d="M197.265,347.334c-0.059,20.528,11.56,39.304,29.958,48.41l-25.353-70.304
		C198.826,332.338,197.258,339.795,197.265,347.334z M286.313,344.615c-0.077-5.256-1.601-10.39-4.405-14.836
		c-2.694-4.437-5.216-8.183-5.216-12.619c-0.157-5.095,3.833-9.359,8.927-9.541c0.226,0,0.455,0.032,0.684,0.048
		c-9.74-9.084-22.562-14.135-35.88-14.136c-18.255,0-36.398,5.925-46.505,20.211c4.22,0.079,19.934,0,19.934,0
		c3.021-0.165,3.028,6.361,0,6.726c0,0-3.257-0.175-6.647,0l19.937,53.811l13.281-33.632l-6.647-20.179
		c-3.024-0.169-6.644,0-6.644,0c-3.031-0.169-3.031-6.885,0-6.726l25.585,0.054c3.018-0.156,4.023,6.335,0.995,6.679
		c0,0-3.257-0.169-6.647,0l19.934,53.811l5.247-12.266c2.372-5.515,3.746-11.407,4.058-17.403H286.313z M252.103,360.834
		l-14.947,38.676c4.304,1.262,8.787,1.81,13.268,1.622c6.016,0.002,11.987-1.033,17.651-3.059c-0.148-0.232-0.274-0.477-0.378-0.731
		L252.103,360.834z M297.069,321.526c0.248,1.836,0.37,3.687,0.366,5.54c-0.093,6.624-1.467,13.168-4.048,19.269l-16.248,47.482
		c24.924-14.882,33.707-46.752,19.925-72.301L297.069,321.526z"/>
	<g>
		<path fill="#0083FF" d="M124.018,290.775c0,0,14.459,31.995,52.983,51.103c22.828,10.39,29.305,10.686,43.349,15.199
			c5.687,1.281,6.968,18.442-17.415,29.689c-17.147,8.164-33.124,1.266-33.124,1.266s-5.336,10.882-23.2,10.684
			s-26.648-7.983-30.463-15.233c0,0-9.971,6.942-25.635-7.378c-10.271-9.39-35.741-45.359-0.405-77.778"/>
		<path fill="#00A7FF" d="M124.831,289.412c0,0,14.459,31.995,52.983,51.103c22.828,10.39,29.305,10.686,43.349,15.199
			c5.687,1.281,6.968,18.442-17.415,29.689c-17.147,8.164-33.124,1.266-33.124,1.266s-5.336,10.882-23.2,10.684
			c-17.864-0.198-26.648-7.983-30.463-15.233c0,0-9.971,6.942-25.635-7.378c-10.271-9.39-35.741-45.359-0.405-77.777"/>
	</g>
	<g>
		<path fill="#0083FF" d="M376.332,290.775c0,0-14.459,31.995-52.983,51.103c-22.828,10.39-29.305,10.686-43.349,15.199
			c-5.687,1.281-6.968,18.442,17.415,29.689c17.147,8.164,33.124,1.266,33.124,1.266s5.336,10.882,23.2,10.684
			c17.864-0.198,26.648-7.983,30.463-15.233c0,0,9.971,6.942,25.635-7.378c10.271-9.39,35.741-45.359,0.405-77.778"/>
		<path fill="#00A7FF" d="M375.519,289.412c0,0-14.459,31.995-52.983,51.103c-22.828,10.39-29.305,10.686-43.349,15.199
			c-5.687,1.281-6.968,18.442,17.415,29.689c17.147,8.164,33.124,1.266,33.124,1.266s5.336,10.882,23.2,10.684
			c17.864-0.198,26.648-7.983,30.463-15.233c0,0,9.971,6.942,25.635-7.378c10.271-9.39,35.741-45.359,0.405-77.777"/>
	</g>
	<path fill="#FFFFFF" d="M196.569,150.519"/>
</g>
</svg>
