<?xml version="1.0" encoding="utf-8"?>
<!-- Generator: Adobe Illustrator 23.0.1, SVG Export Plug-In . SVG Version: 6.00 Build 0)  -->
<svg version="1.1" id="windows_11" xmlns="http://www.w3.org/2000/svg" xmlns:xlink="http://www.w3.org/1999/xlink" x="0px" y="0px"
	 viewBox="0 0 349 225" style="enable-background:new 0 0 349 225;" xml:space="preserve">
<style type="text/css">
	.st0{fill:#F0F0F1;}
	.st1{fill:#0F6CB3;}
	.st2{fill:#FFFFFF;}
	.st3{fill:#D3D3D3;}
	.st4{fill:#C9C9C9;}
	.st5{fill:#33302F;}
	.st6{fill:#8A8A8A;}
	.st7{fill:#F1C53E;}
	.st8{opacity:0.35;fill:url(#SVGID_1_);enable-background:new    ;}
	.st9{fill:#00805B;}
	.st10{opacity:0.35;fill:url(#SVGID_2_);enable-background:new    ;}
	.st11{fill:#2FA9F4;}
	.st12{opacity:0.35;fill:url(#SVGID_3_);enable-background:new    ;}
	.st13{opacity:0.35;fill:url(#SVGID_4_);enable-background:new    ;}
	.st14{fill:#F0F0F0;}
	.st15{fill:#0074D0;}
	.st16{opacity:0.35;fill:url(#SVGID_5_);enable-background:new    ;}
</style>
<rect class="st0" width="349" height="225"/>
<g>
	<g>
		<rect x="228.4" y="13.6" class="st1" width="101.8" height="21.1"/>
		<g>
			<g>
				<path class="st2" d="M318.7,27.8h-54.9c-2,0-3.7-1.7-3.7-3.7l0,0c0-2,1.7-3.7,3.7-3.7h54.9c2,0,3.7,1.7,3.7,3.7l0,0
					C322.4,26.2,320.7,27.8,318.7,27.8z"/>
			</g>
			<g>
				<g>
					<path class="st2" d="M250.3,19h-6.7c-0.1,0-0.3-0.1-0.4-0.2l-0.4-0.5c-0.4-0.5-1-0.7-1.6-0.7h-3c-1.2,0-2.2,1-2.2,2.2v8.7
						c0,1.2,1,2.2,2.2,2.2h12c1.2,0,2.2-1,2.2-2.2v-7.4C252.4,19.9,251.4,19,250.3,19z M251,28.5c0,0.4-0.3,0.7-0.7,0.7h-12
						c-0.4,0-0.7-0.3-0.7-0.7v-8.7c0-0.4,0.3-0.7,0.7-0.7h3c0.2,0,0.4,0.1,0.6,0.3l0.4,0.5c0.4,0.4,0.9,0.6,1.4,0.6h6.7
						c0.4,0,0.7,0.3,0.7,0.7L251,28.5L251,28.5z"/>
				</g>
				<path class="st2" d="M248.4,24.1h-1.2v-1.2c0-0.4-0.3-0.7-0.7-0.7s-0.7,0.3-0.7,0.7v1.2h-1.2c-0.4,0-0.7,0.3-0.7,0.7
					c0,0.4,0.3,0.7,0.7,0.7h1.2v1.2c0,0.4,0.3,0.7,0.7,0.7s0.7-0.3,0.7-0.7v-1.2h1.2c0.4,0,0.7-0.3,0.7-0.7
					C249.1,24.4,248.8,24.1,248.4,24.1z"/>
			</g>
		</g>
	</g>
	<g>
		<g>
			<g>
				<path class="st2" d="M295,87.6h-23c-0.9,0-1.7-0.8-1.7-1.7V63c0-0.9,0.8-1.7,1.7-1.7h23c0.9,0,1.7,0.8,1.7,1.7v23
					C296.7,86.9,295.9,87.6,295,87.6z"/>
				<path class="st3" d="M295,87.8h-23c-1,0-1.9-0.8-1.9-1.9V63c0-1,0.8-1.9,1.9-1.9h23c1,0,1.9,0.8,1.9,1.9v23
					C296.8,87,296,87.8,295,87.8z M272,61.5c-0.8,0-1.5,0.7-1.5,1.5v23c0,0.8,0.7,1.5,1.5,1.5h23c0.8,0,1.5-0.7,1.5-1.5V63
					c0-0.8-0.7-1.5-1.5-1.5H272z"/>
			</g>
			<path class="st1" d="M282.3,73l-1.1-3c-0.2-0.5-0.5-0.7-0.9-0.7c-0.5,0-0.7,0.2-0.9,0.7l-1.1,3c-0.1,0.1-0.1,0.3-0.1,0.4
				c0,0.4,0.2,0.6,0.6,0.6c0.3,0,0.5-0.2,0.6-0.6l0.1-0.4h1.4l0.1,0.5c0.1,0.4,0.3,0.5,0.6,0.5c0.4,0,0.6-0.2,0.6-0.6
				C282.4,73.2,282.4,73.1,282.3,73z M280.7,72h-0.9l0.4-1.5L280.7,72z M282.1,79.1c0,0.3-0.2,0.5-0.5,0.5h-2.5
				c-0.4,0-0.6-0.2-0.6-0.6c0-0.2,0-0.3,0.2-0.4l1.9-2.5H279c-0.3,0-0.5-0.2-0.5-0.5s0.2-0.5,0.5-0.5h2.4c0.4,0,0.6,0.2,0.6,0.6
				c0,0.2-0.1,0.3-0.2,0.4l-1.9,2.5h1.6C281.9,78.6,282.1,78.8,282.1,79.1z M288.7,77.6l-1.8,1.9c-0.1,0.1-0.2,0.2-0.4,0.2
				c-0.1,0-0.3-0.1-0.4-0.2l-1.8-1.9c-0.2-0.2-0.2-0.5,0-0.7s0.5-0.2,0.7,0l0.9,1v-8.1c0-0.3,0.2-0.5,0.5-0.5s0.5,0.2,0.5,0.5v8.1
				l0.9-1c0.2-0.2,0.5-0.2,0.7,0C288.8,77.1,288.8,77.4,288.7,77.6z"/>
		</g>
		<path class="st1" d="M295.1,87h-23.3c-0.9,0-1.7-0.6-1.7-1.4v0.7c0,0.8,0.8,1.5,1.7,1.5h23.3c0.9,0,1.7-0.7,1.7-1.5v-0.7
			C296.8,86.4,296.1,87,295.1,87z"/>
	</g>
	<g>
		<g>
			<g>
				<path class="st2" d="M214.3,87.6h-77.6c-1,0-1.8-0.8-1.8-1.8V63.1c0-1,0.8-1.8,1.8-1.8h77.6c1,0,1.8,0.8,1.8,1.8v22.7
					C216.1,86.8,215.3,87.6,214.3,87.6z"/>
				<path class="st3" d="M214.3,87.8h-77.6c-1.1,0-2-0.9-2-2V63.1c0-1.1,0.9-2,2-2h77.6c1.1,0,2,0.9,2,2v22.7
					C216.3,86.9,215.4,87.8,214.3,87.8z M136.7,61.5c-0.9,0-1.6,0.7-1.6,1.6v22.7c0,0.9,0.7,1.6,1.6,1.6h77.6c0.9,0,1.6-0.7,1.6-1.6
					V63.1c0-0.9-0.7-1.6-1.6-1.6H136.7z"/>
			</g>
			<g>
				<path class="st4" d="M203.3,78.5h-37.9c-2.3,0-4.1-1.8-4.1-4.1l0,0c0-2.3,1.8-4.1,4.1-4.1h37.9c2.3,0,4.1,1.8,4.1,4.1l0,0
					C207.4,76.7,205.6,78.5,203.3,78.5z"/>
				<path class="st5" d="M152.8,71.3h-1.1h-0.8l-0.1-0.6c-0.1-0.8-0.8-1.4-1.6-1.4h-1.7c-0.7,0-1.3,0.5-1.4,1.3l-0.1,0.7h-0.7h-1.1
					c-0.3,0-0.5,0.2-0.5,0.5s0.2,0.5,0.5,0.5h0.7l0.5,5.7c0.1,0.9,0.8,1.6,1.7,1.6h2.8c0.9,0,1.6-0.7,1.7-1.6l0.5-5.7h0.7
					c0.3,0,0.5-0.2,0.5-0.5S153,71.3,152.8,71.3z M147.2,70.7c0-0.2,0.2-0.3,0.4-0.3h1.7c0.3,0,0.5,0.2,0.5,0.5v0.5h-2.7L147.2,70.7
					z M150.6,77.9c0,0.4-0.3,0.6-0.7,0.6h-2.8c-0.4,0-0.7-0.3-0.7-0.6l-0.5-5.6h0.6h3.9h0.7L150.6,77.9z"/>
			</g>
		</g>
		<path class="st3" d="M214.6,87h-78.2c-0.9,0-1.7-0.6-1.7-1.4v0.7c0,0.8,0.8,1.5,1.7,1.5h78.2c0.9,0,1.7-0.7,1.7-1.5v-0.7
			C216.3,86.4,215.6,87,214.6,87z"/>
	</g>
	<g>
		<g>
			<g>
				<path class="st2" d="M126,87.6H35.2c-1,0-1.8-0.8-1.8-1.8V63.1c0-1,0.8-1.8,1.8-1.8H126c1,0,1.8,0.8,1.8,1.8v22.7
					C127.9,86.8,127.1,87.6,126,87.6z"/>
				<path class="st3" d="M126,87.8H35.2c-1.1,0-2-0.9-2-2V63.1c0-1.1,0.9-2,2-2H126c1.1,0,2,0.9,2,2v22.7
					C128,86.9,127.1,87.8,126,87.8z M35.2,61.5c-0.9,0-1.6,0.7-1.6,1.6v22.7c0,0.9,0.7,1.6,1.6,1.6H126c0.9,0,1.6-0.7,1.6-1.6V63.1
					c0-0.9-0.7-1.6-1.6-1.6H35.2z"/>
			</g>
			<g>
				<path class="st5" d="M43.1,79.6c-0.4,0-0.1,0-0.5,0c-0.2,0-0.4-0.2-0.5-0.4c-0.1-0.2,0-0.5,0.2-0.6c0.1-0.1,0.2-0.1,0.3-0.1
					c3,0,5.5,0,8.5,0h0.1c0.3,0,0.5,0.2,0.5,0.4c0,0.3-0.1,0.5-0.4,0.6c-0.1,0-0.2,0-0.2,0c-1.5,0-3,0-4.5,0
					C45.5,79.6,44.3,79.6,43.1,79.6z M50.3,71.9c-0.7,0.7-1.3,1.3-2,2c-1.1,1.1-2.3,2.3-3.4,3.4c-0.1,0.1-0.3,0.2-0.5,0.2
					s-0.4,0-0.7,0l0,0c-0.2,0-0.5,0-0.7,0c-0.3,0-0.6-0.2-0.6-0.5c0-0.5,0-0.9,0-1.4c0-0.2,0.1-0.3,0.2-0.4c0.2-0.2,0.3-0.3,0.5-0.5
					c1.6-1.6,3.3-3.3,4.9-4.9c0.5-0.5,1-0.6,1.6-0.4C50.8,69.8,51.1,71.1,50.3,71.9z M49.6,70.5c-0.2-0.2-0.5-0.2-0.8,0
					c-1.7,1.7-3.5,3.5-5.2,5.2c0,0-0.1,0.1-0.1,0.2c0,0.2,0,0.4,0,0.6c0.2,0,0.5,0,0.7,0l0.1-0.1c1.5-1.5,3.1-3.1,4.6-4.6
					c0.2-0.2,0.4-0.4,0.6-0.6C49.8,71,49.8,70.7,49.6,70.5z"/>
				<path class="st4" d="M115,78.5H64c-2.3,0-4.1-1.8-4.1-4.1l0,0c0-2.3,1.8-4.1,4.1-4.1h51c2.3,0,4.1,1.8,4.1,4.1l0,0
					C119.1,76.7,117.3,78.5,115,78.5z"/>
			</g>
		</g>
		<path class="st3" d="M126.3,87H34.9c-0.9,0-1.7-0.6-1.7-1.4v0.7c0,0.8,0.8,1.5,1.7,1.5h91.4c0.9,0,1.7-0.7,1.7-1.5v-0.7
			C128.1,86.4,127.3,87,126.3,87z"/>
	</g>
	<g>
		<g>
			<g>
				<path class="st2" d="M328.3,87.6h-23c-0.9,0-1.7-0.8-1.7-1.7V63c0-0.9,0.8-1.7,1.7-1.7h23c0.9,0,1.7,0.8,1.7,1.7v23
					C330,86.9,329.3,87.6,328.3,87.6z"/>
				<path class="st3" d="M328.3,87.8h-23c-1,0-1.9-0.8-1.9-1.9V63c0-1,0.8-1.9,1.9-1.9h23c1,0,1.9,0.8,1.9,1.9v23
					C330.2,87,329.4,87.8,328.3,87.8z M305.4,61.5c-0.8,0-1.5,0.7-1.5,1.5v23c0,0.8,0.7,1.5,1.5,1.5h23c0.8,0,1.5-0.7,1.5-1.5V63
					c0-0.8-0.7-1.5-1.5-1.5H305.4z"/>
			</g>
			<path class="st5" d="M320.6,75.6c-0.7,0-1.2-0.5-1.2-1.2s0.5-1.2,1.2-1.2s1.2,0.5,1.2,1.2C321.8,75.1,321.3,75.6,320.6,75.6z
				 M318,74.4c0-0.7-0.5-1.2-1.2-1.2s-1.2,0.5-1.2,1.2s0.5,1.2,1.2,1.2S318,75.1,318,74.4z M314.3,74.4c0-0.7-0.5-1.2-1.2-1.2
				s-1.2,0.5-1.2,1.2s0.5,1.2,1.2,1.2S314.3,75.1,314.3,74.4z"/>
		</g>
		<path class="st3" d="M328.5,87h-23.3c-0.9,0-1.7-0.6-1.7-1.4v0.7c0,0.8,0.8,1.5,1.7,1.5h23.3c0.9,0,1.7-0.7,1.7-1.5v-0.7
			C330.2,86.4,329.4,87,328.5,87z"/>
	</g>
	<g>
		<g>
			<g>
				<g>
					<g>
						<path class="st4" d="M144.6,206.3H60c-2,0-3.6-1.6-3.6-3.6l0,0c0-2,1.6-3.6,3.6-3.6h84.7c2,0,3.6,1.6,3.6,3.6l0,0
							C148.2,204.7,146.6,206.3,144.6,206.3z"/>
					</g>
				</g>
			</g>
		</g>
		<g>
			<g>
				<path class="st6" d="M19.5,205.7c-0.2,0-0.3-0.1-0.5-0.2c-0.2-0.3-0.2-0.6,0-0.9l1.9-1.8L19,201c-0.3-0.2-0.3-0.6,0-0.9
					c0.2-0.3,0.6-0.3,0.9,0l2.4,2.3c0.1,0.1,0.2,0.3,0.2,0.5s-0.1,0.3-0.2,0.5l-2.4,2.3C19.8,205.7,19.6,205.7,19.5,205.7z"/>
			</g>
		</g>
		<path class="st2" d="M328.8,209.7h-11.7c-0.7,0-1.2-0.5-1.2-1.2V197c0-0.7,0.5-1.2,1.2-1.2h11.7c0.7,0,1.2,0.5,1.2,1.2v11.6
			C330,209.2,329.5,209.7,328.8,209.7z"/>
		<g>
			<g id="Layer_1_9_">
				<path class="st7" d="M47.1,208.3H34c-0.2,0-0.3-0.1-0.5-0.2c-0.2-0.1-0.3-0.4-0.3-0.6v-9.9c0-0.2,0.1-0.4,0.2-0.5
					c0.1-0.2,0.4-0.3,0.6-0.3h4.1c0.1,0,0.2,0,0.3,0s0.3,0.1,0.3,0.2l1.1,1.3h0.1h7.3c0.2,0,0.4,0.1,0.5,0.2
					c0.2,0.1,0.3,0.4,0.3,0.6v8.4c0,0.2-0.1,0.5-0.3,0.6C47.5,208.3,47.3,208.3,47.1,208.3z"/>
			</g>
			<g id="Layer_2_9_">
				
					<linearGradient id="SVGID_1_" gradientUnits="userSpaceOnUse" x1="38.7366" y1="4.2345" x2="42.6611" y2="-7.6323" gradientTransform="matrix(1 0 0 -1 0 202)">
					<stop  offset="0" style="stop-color:#FFFFFF"/>
					<stop  offset="0.4173" style="stop-color:#E1E1E0;stop-opacity:0.58"/>
					<stop  offset="1" style="stop-color:#B3B3B2;stop-opacity:0"/>
				</linearGradient>
				<path class="st8" d="M47.1,208.1H34c-0.2,0-0.4-0.1-0.5-0.2c-0.2-0.1-0.3-0.4-0.3-0.6v-7.1c0-0.2,0.1-0.4,0.2-0.6
					s0.3-0.2,0.6-0.2h4.2c0.2,0,0.5,0,0.7-0.1c0.1-0.1,0.2-0.1,0.3-0.2l0.6-0.4h0.1h7.3c0.2,0,0.3,0.1,0.5,0.2
					c0.2,0.1,0.3,0.4,0.3,0.6v7.9c0,0.3-0.1,0.5-0.3,0.6C47.5,208,47.3,208.1,47.1,208.1z"/>
			</g>
		</g>
	</g>
	<g>
		<g>
			<g>
				<g>
					<g>
						<path class="st4" d="M132.3,147.7H59.9c-2,0-3.6-1.6-3.6-3.6l0,0c0-2,1.6-3.6,3.6-3.6h72.4c2,0,3.6,1.6,3.6,3.6l0,0
							C135.9,146.1,134.3,147.7,132.3,147.7z"/>
					</g>
				</g>
			</g>
		</g>
		<path class="st2" d="M328.9,151.1h-11.7c-0.7,0-1.2-0.5-1.2-1.2v-11.6c0-0.7,0.5-1.2,1.2-1.2h11.7c0.7,0,1.2,0.5,1.2,1.2v11.6
			C330.1,150.5,329.5,151.1,328.9,151.1z"/>
		<g>
			<path class="st9" d="M46.5,142.1v-2.2l0,0c0-0.2-0.1-0.4-0.3-0.5c-0.1-0.1-0.3-0.2-0.5-0.2H39c0,0-0.7-0.9-1-1.1
				c0,0-0.1,0-0.1-0.1c-0.2-0.1-0.5-0.2-0.8-0.2h-3.4c-0.2,0-0.3,0.1-0.5,0.2c-0.2,0.1-0.3,0.3-0.3,0.6v0.7v8.3
				c0,0.2,0.1,0.4,0.3,0.5c0.1,0.1,0.3,0.2,0.5,0.2h5.5c0.8,1.4,2.3,2.3,4,2.3c2.6,0,4.7-2.1,4.7-4.7
				C48.2,144.3,47.6,143,46.5,142.1z"/>
			<g>
				
					<linearGradient id="SVGID_2_" gradientUnits="userSpaceOnUse" x1="38.1515" y1="86.3489" x2="42.2702" y2="73.8953" gradientTransform="matrix(1 0 0 -1 0 225)">
					<stop  offset="0" style="stop-color:#FFFFFF"/>
					<stop  offset="0.4173" style="stop-color:#E1E1E0;stop-opacity:0.58"/>
					<stop  offset="1" style="stop-color:#B3B3B2;stop-opacity:0"/>
				</linearGradient>
				<path class="st10" d="M46.5,142.1v-1.3v-0.7c0-0.2-0.1-0.4-0.2-0.5c-0.1-0.1-0.3-0.2-0.5-0.2h-6.6h-0.1l0,0
					c-0.4,0.2-0.8,0.7-1.6,0.7h-3.7c-0.2,0-0.3,0.1-0.4,0.2c-0.2,0.1-0.3,0.3-0.3,0.6v6.4c0,0.3,0.1,0.5,0.4,0.6
					c0.1,0.1,0.2,0.1,0.4,0.1h5.4c0.8,1.5,2.4,2.5,4.2,2.5c2.6,0,4.7-2.1,4.7-4.7C48.2,144.3,47.6,143,46.5,142.1z"/>
			</g>
			<path class="st2" d="M43.4,142c-2,0-3.7,1.7-3.7,3.7s1.7,3.7,3.7,3.7s3.7-1.7,3.7-3.7C47.1,143.7,45.5,142,43.4,142z M43.4,148.4
				c-0.4,0-0.6-0.3-0.6-0.6s0.3-0.6,0.6-0.6c0.4,0,0.6,0.3,0.6,0.6S43.8,148.4,43.4,148.4z M44.1,145.8c0,0.4-0.3,0.6-0.6,0.6
				c-0.4,0-0.6-0.3-0.6-0.6v-2.1c0-0.4,0.3-0.6,0.6-0.6c0.4,0,0.6,0.3,0.6,0.6V145.8z"/>
		</g>
	</g>
	<g>
		<g>
			<g>
				<g>
					<path class="st2" d="M328.2,185.2H27.3c-1,0-1.8-0.8-1.8-1.8v-22.9c0-1,0.8-1.8,1.8-1.8h300.9c1,0,1.8,0.8,1.8,1.8v22.9
						C330,184.4,329.2,185.2,328.2,185.2z"/>
					<path class="st3" d="M328.2,185.4H27.3c-1.1,0-2-0.9-2-2v-22.9c0-1.1,0.9-2,2-2h300.9c1.1,0,2,0.9,2,2v22.9
						C330.2,184.5,329.3,185.4,328.2,185.4z M27.3,158.8c-0.9,0-1.6,0.7-1.6,1.6v22.9c0,0.9,0.7,1.6,1.6,1.6h300.9
						c0.9,0,1.6-0.7,1.6-1.6v-22.9c0-0.9-0.7-1.6-1.6-1.6H27.3z"/>
				</g>
			</g>
			<path class="st3" d="M328.7,184.7H26.8c-0.8,0-1.5-0.5-1.5-1.2v0.6c0,0.7,0.7,1.3,1.5,1.3h301.9c0.8,0,1.5-0.6,1.5-1.3v-0.6
				C330.2,184.2,329.5,184.7,328.7,184.7z"/>
		</g>
		<g>
			<g>
				<g>
					<path class="st7" d="M40.6,176.4L40.6,176.4H34c-0.2,0-0.4-0.1-0.6-0.2s-0.2-0.3-0.2-0.6v-9.9c0-0.2,0.1-0.4,0.3-0.6
						c0.1-0.1,0.3-0.2,0.5-0.2h4.1c0.1,0,0.2,0,0.3,0.1c0.1,0,0.2,0.1,0.3,0.2l1.1,1.3h7.4c0.2,0,0.3,0,0.4,0.1
						c0.2,0.1,0.4,0.4,0.4,0.7v3.1c-0.8-0.7-1.9-1.1-3.1-1.1c-2.7,0-4.8,2.2-4.8,4.8c0,0.8,0.2,1.5,0.5,2.1
						C40.5,176.2,40.5,176.4,40.6,176.4z"/>
					<polygon class="st11" points="47.9,170.4 47.9,170.4 47.9,175.4 47.9,175.4 					"/>
				</g>
				
					<linearGradient id="SVGID_3_" gradientUnits="userSpaceOnUse" x1="38.7259" y1="36.1421" x2="42.6505" y2="24.2753" gradientTransform="matrix(1 0 0 -1 0 202)">
					<stop  offset="0" style="stop-color:#FFFFFF"/>
					<stop  offset="0.4173" style="stop-color:#E1E1E0;stop-opacity:0.58"/>
					<stop  offset="1" style="stop-color:#B3B3B2;stop-opacity:0"/>
				</linearGradient>
				<path class="st12" d="M44.8,169.3c1.2,0,2.3,0.4,3.1,1.1v-2.9c0-0.3-0.1-0.5-0.3-0.6c-0.1-0.1-0.3-0.2-0.5-0.2h-7.4l0,0
					l-0.6,0.4c-0.1,0.1-0.1,0.1-0.2,0.1c-0.2,0.1-0.5,0.2-0.8,0.2H34c-0.2,0-0.4,0.1-0.6,0.3c-0.1,0.1-0.2,0.3-0.2,0.5v7.1
					c0,0.2,0.1,0.4,0.2,0.6c0.1,0.1,0.3,0.2,0.6,0.2h6.5c-0.3-0.6-0.5-1.3-0.5-2.1C40,171.4,42.2,169.3,44.8,169.3z"/>
			</g>
			<path class="st7" d="M49.3,177.6l-1.6-1.6c0.4-0.5,0.6-1.2,0.6-1.9c0-1.9-1.5-3.5-3.5-3.5c-1.9,0-3.5,1.5-3.5,3.5
				c0,1.9,1.5,3.5,3.5,3.5c0.7,0,1.3-0.2,1.9-0.6l1.7,1.6c0.1,0.1,0.3,0.2,0.5,0.2s0.4-0.1,0.5-0.2
				C49.6,178.4,49.6,177.9,49.3,177.6z M44.8,176.1c-1.1,0-2.1-0.9-2.1-2.1c0-1.1,0.9-2.1,2.1-2.1s2.1,0.9,2.1,2.1
				C46.9,175.2,46,176.1,44.8,176.1z"/>
			
				<linearGradient id="SVGID_4_" gradientUnits="userSpaceOnUse" x1="44.8212" y1="47.2734" x2="46.9891" y2="53.8285" gradientTransform="matrix(1 0 0 -1 0 225)">
				<stop  offset="0" style="stop-color:#FFFFFF"/>
				<stop  offset="0.4173" style="stop-color:#E1E1E0;stop-opacity:0.58"/>
				<stop  offset="1" style="stop-color:#B3B3B2;stop-opacity:0"/>
			</linearGradient>
			<path class="st13" d="M49.3,177.6l-1.6-1.6c0.4-0.5,0.6-1.2,0.6-1.9c0-1.9-1.5-3.5-3.5-3.5c-1.9,0-3.5,1.5-3.5,3.5
				c0,1.9,1.5,3.5,3.5,3.5c0.7,0,1.3-0.2,1.9-0.6l1.7,1.6c0.1,0.1,0.3,0.2,0.5,0.2s0.4-0.1,0.5-0.2
				C49.6,178.4,49.6,177.9,49.3,177.6z M44.8,176.1c-1.1,0-2.1-0.9-2.1-2.1c0-1.1,0.9-2.1,2.1-2.1s2.1,0.9,2.1,2.1
				C46.9,175.2,46,176.1,44.8,176.1z"/>
		</g>
		<g>
			<g>
				<g>
					<g>
						<path class="st14" d="M154.8,175.5H60c-2,0-3.6-1.6-3.6-3.6l0,0c0-2,1.6-3.6,3.6-3.6h94.8c2,0,3.6,1.6,3.6,3.6l0,0
							C158.4,173.9,156.8,175.5,154.8,175.5z"/>
					</g>
				</g>
			</g>
		</g>
	</g>
	<path class="st4" d="M97.2,30.6H40.4c-4,0-7.2-3.2-7.2-7.2l0,0c0-4,3.2-7.2,7.2-7.2h56.8c4,0,7.2,3.2,7.2,7.2l0,0
		C104.4,27.4,101.2,30.6,97.2,30.6z"/>
	<g>
		<g>
			<g>
				<g id="Layer_1_8_">
					<path class="st15" d="M47.2,120.8H34c-0.1,0-0.2,0-0.3-0.1c-0.3-0.1-0.5-0.4-0.5-0.7v-9.9c0-0.2,0.1-0.4,0.2-0.5
						c0.1-0.1,0.3-0.2,0.6-0.2h4.1c0.1,0,0.2,0,0.3,0.1c0.1,0,0.2,0.1,0.3,0.2l1.1,1.3h7.4c0.2,0,0.4,0.1,0.5,0.2
						c0.2,0.1,0.3,0.4,0.3,0.6v8.4c0,0.2-0.1,0.5-0.3,0.6C47.5,120.7,47.4,120.8,47.2,120.8z"/>
				</g>
				<g id="Layer_2_8_">
					
						<linearGradient id="SVGID_5_" gradientUnits="userSpaceOnUse" x1="38.6746" y1="91.7538" x2="42.5991" y2="79.887" gradientTransform="matrix(1 0 0 -1 0 202)">
						<stop  offset="0" style="stop-color:#FFFFFF"/>
						<stop  offset="0.4173" style="stop-color:#E1E1E0;stop-opacity:0.58"/>
						<stop  offset="1" style="stop-color:#B3B3B2;stop-opacity:0"/>
					</linearGradient>
					<path class="st16" d="M47.2,120.6H34c-0.2,0-0.3,0-0.4-0.1c-0.2-0.1-0.4-0.4-0.4-0.7v-7.1c0-0.3,0.1-0.5,0.3-0.6
						c0.1-0.1,0.3-0.1,0.4-0.1h4.2c0.4,0,0.7-0.1,1-0.3l0.6-0.4l0,0h7.4c0.3,0,0.5,0.1,0.7,0.4c0.1,0.1,0.1,0.3,0.1,0.4v7.9
						c0,0.3-0.1,0.5-0.3,0.6C47.5,120.5,47.3,120.6,47.2,120.6z"/>
				</g>
			</g>
			<g>
				<g id="l0ogjT.tif_12_">
					<g>
						<path class="st2" d="M42.2,112.7c0.1,0,0.1,0,0.2,0c0.1,0,0.3,0.1,0.4,0.2c0.8,0.8,1.6,1.6,2.4,2.4c0.1,0.1,0.2,0.2,0.2,0.4
							c0,0.1,0,0.1,0,0.2c0,0.2-0.1,0.3-0.2,0.4c-0.1,0-0.1,0.1-0.2,0.1c0,0-0.1,0-0.2,0h-0.1c0,0,0,0,0,0.1c0,0.6,0,1.2,0,1.7
							c0,0.1,0,0.2-0.1,0.3c-0.1,0.1-0.1,0.2-0.3,0.3c-0.1,0.1-0.2,0.1-0.3,0.1c-0.4,0-0.7,0-1.1,0c-0.1,0-0.1,0-0.1-0.1
							c0,0,0-0.1,0-0.2c0-0.5,0-0.9,0-1.4c0-0.1,0-0.1,0-0.2c-0.1-0.1-0.1-0.1-0.2-0.1c-0.2,0-0.4,0-0.6,0c-0.2,0-0.3,0.1-0.3,0.3
							c0,0.4,0,0.9,0,1.3v0.1c0,0.1,0,0.1,0,0.1l-0.1,0.1c-0.4,0-0.8,0-1.1,0s-0.5-0.3-0.6-0.6v-0.1c0-0.6,0-1.1,0-1.7
							c0,0,0,0,0-0.1c0,0,0,0,0-0.1c0,0,0,0-0.1,0s-0.2,0-0.3-0.1l-0.1-0.1c-0.1-0.1-0.1-0.2-0.1-0.3c0-0.1,0-0.1,0-0.2
							c0,0,0,0,0-0.1s0-0.1,0.1-0.1l0.1-0.1c0.8-0.8,1.6-1.6,2.4-2.4C42,112.8,42.1,112.7,42.2,112.7z"/>
					</g>
				</g>
			</g>
		</g>
		<path class="st2" d="M329,122h-15.4c-0.7,0-1.2-0.5-1.2-1.2v-11.6c0-0.7,0.5-1.2,1.2-1.2H329c0.7,0,1.2,0.5,1.2,1.2v11.6
			C330.2,121.5,329.7,122,329,122z"/>
		<g>
			<g>
				<g>
					<g>
						<path class="st4" d="M100.9,118.6H60c-2,0-3.6-1.6-3.6-3.6l0,0c0-2,1.6-3.6,3.6-3.6h40.9c2,0,3.6,1.6,3.6,3.6l0,0
							C104.5,117,102.9,118.6,100.9,118.6z"/>
					</g>
				</g>
			</g>
		</g>
	</g>
</g>
</svg>
