<svg width="16" height="17" viewBox="0 0 16 17" fill="none" xmlns="http://www.w3.org/2000/svg">
	<path d="M8 0.5C9.125 0.5 10.125 1.15625 10.625 2.125C11.6562 1.78125 12.8125 2.03125 13.6562 2.84375C14.4688 3.65625 14.6875 4.84375 14.375 5.875C15.3438 6.375 16 7.375 16 8.5C16 9.65625 15.3438 10.6562 14.375 11.1562C14.7188 12.1875 14.4688 13.3438 13.6562 14.1562C12.8125 14.9688 11.6562 15.2188 10.625 14.9062C10.125 15.875 9.125 16.5 8 16.5C6.84375 16.5 5.84375 15.875 5.34375 14.9062C4.3125 15.2188 3.15625 14.9688 2.3125 14.1562C1.5 13.3438 1.28125 12.1875 1.59375 11.1562C0.625 10.6562 0 9.65625 0 8.5C0 7.375 0.625 6.375 1.59375 5.875C1.25 4.84375 1.5 3.65625 2.3125 2.84375C3.15625 2.03125 4.3125 1.78125 5.34375 2.125C5.84375 1.15625 6.84375 0.5 8 0.5ZM6 7.5C6.53125 7.5 7 7.0625 7 6.5C7 5.96875 6.53125 5.5 6 5.5C5.4375 5.5 5 5.96875 5 6.5C5 7.0625 5.4375 7.5 6 7.5ZM10 9.5C9.4375 9.5 9 9.96875 9 10.5C9 11.0625 9.4375 11.5 10 11.5C10.5312 11.5 11 11.0625 11 10.5C11 9.96875 10.5312 9.5 10 9.5ZM10.5 7.03125C10.8125 6.75 10.8125 6.28125 10.5 5.96875C10.2188 5.6875 9.75 5.6875 9.46875 5.96875L5.46875 9.96875C5.15625 10.2812 5.15625 10.75 5.46875 11.0312C5.75 11.3438 6.21875 11.3438 6.5 11.0312L10.5 7.03125Z" fill="#0F8A56" style="fill:#0F8A56;fill:color(display-p3 0.0588 0.5412 0.3373);fill-opacity:1;"/>
</svg>
