<svg xmlns="http://www.w3.org/2000/svg" viewBox="0 0 512 512" fill="currentColor"><path  fill="currentColor" fill-opacity="0.5" d="M368 104a40 40 0 1 0 40 40A40 40 0 0 0 368 104zM505.1 19.3c-1.2-5.6-6.8-11.1-12.3-12.3-32.6-7-58.2-7-83.6-7C305.4 0 243 55.1 196.2 128H94.8c-16.3 0-35.5 11.9-42.9 26.5L2.5 253.3A28.1 28.1 0 0 0 0 264a24 24 0 0 0 24 24h92.6l-10.6 21.4c-9.3 18.9 4.3 34.8 6.2 36.6l53.8 53.7c15.6 15.5 33.8 7.5 36.7 6.1l21.3-10.6V488a24 24 0 0 0 24 24 28.6 28.6 0 0 0 10.7-2.5l98.7-49.4c14.6-7.3 26.5-26.5 26.5-42.9V315.7c72.7-46.8 128.1-109.4 128.1-212.7C512.1 77.5 512.1 52 505.1 19.3zM358.5 275c-36.9 18.5-121.1 60.1-166.8 82.7l-37.5-37.5c22.6-45.7 64.3-130 82.7-166.9C284.3 79.5 336 48 409.2 48c18 0 34.3 0 52.6 2.3 2.4 18.7 2.3 35.3 2.3 52.6C464 175.8 432.4 227.3 358.5 275z"/></svg>
