<svg viewBox="0 0 23 23" xmlns="http://www.w3.org/2000/svg"><path fill="currentColor" fill-opacity="0.5" fill-rule="evenodd" clip-rule="evenodd" d="M15.8333 2.5H4.16667C3.25 2.5 2.5 3.25 2.5 4.16667V15.8333C2.5 16.75 3.24167 17.5 4.16667 17.5H15.8333C16.75 17.5 17.5 16.75 17.5 15.8333V4.16667C17.5 3.25 16.75 2.5 15.8333 2.5ZM15.8333 15.8333H4.16667V13.3333H7.13333C7.70833 14.325 8.775 15 10.0083 15C11.2417 15 12.3 14.325 12.8833 13.3333H15.8333V15.8333ZM11.675 11.6667H15.8333V4.16667H4.16667V11.6667H8.34167C8.34167 12.5833 9.09167 13.3333 10.0083 13.3333C10.925 13.3333 11.675 12.5833 11.675 11.6667Z"></path></svg>
