<svg viewBox="0 0 23 23" xmlns="http://www.w3.org/2000/svg"><path fill="currentColor" fill-opacity="0.5" fill-rule="evenodd" clip-rule="evenodd" d="M1.38342 11.3748C1.38342 5.5457 6.1143 0.814819 11.9434 0.814819C17.7725 0.814819 22.5034 5.5457 22.5034 11.3748C22.5034 17.2039 17.7725 21.9348 11.9434 21.9348C6.1143 21.9348 1.38342 17.2039 1.38342 11.3748ZM12.9995 17.7107H10.8875V15.5987H12.9995V17.7107ZM11.9433 19.8227C7.28635 19.8227 3.49531 16.0317 3.49531 11.3747C3.49531 6.71775 7.28635 2.92671 11.9433 2.92671C16.6003 2.92671 20.3913 6.71775 20.3913 11.3747C20.3913 16.0317 16.6003 19.8227 11.9433 19.8227ZM7.71932 9.26283C7.71932 6.92907 9.60956 5.03883 11.9433 5.03883C14.2771 5.03883 16.1673 6.92907 16.1673 9.26283C16.1673 10.6176 15.3331 11.3467 14.5208 12.0565C13.7502 12.73 12.9993 13.3861 12.9993 14.5428H10.8873C10.8873 12.6196 11.8822 11.857 12.7569 11.1865C13.4431 10.6606 14.0553 10.1913 14.0553 9.26283C14.0553 8.10123 13.1049 7.15083 11.9433 7.15083C10.7817 7.15083 9.83132 8.10123 9.83132 9.26283H7.71932Z"/></svg>
