<svg width="207" height="40" viewBox="0 0 207 40" fill="none" xmlns="http://www.w3.org/2000/svg">
	<path fill-rule="evenodd" clip-rule="evenodd" d="M1.15876 15.1973C1.79873 15.1973 2.31752 15.7161 2.31752 16.356V31.1586C2.31752 34.7339 5.21594 37.6324 8.79132 37.6324H23.9408C24.5807 37.6324 25.0995 38.1511 25.0995 38.7911C25.0995 39.4311 24.5807 39.9499 23.9408 39.9499H8.79132C3.93601 39.9499 0 36.0139 0 31.1586V16.356C0 15.7161 0.518795 15.1973 1.15876 15.1973Z" fill="#F78442" style="fill:#F78442;fill:color(display-p3 0.9674 0.5180 0.2579);fill-opacity:1;"/>
	<path fill-rule="evenodd" clip-rule="evenodd" d="M27.8102 0.050293H27.7568V9.76446C27.7568 11.0418 28.7924 12.0774 30.0697 12.0774H39.7839V12.024L27.8102 0.050293Z" fill="#F78442" style="fill:#F78442;fill:color(display-p3 0.9674 0.5180 0.2579);fill-opacity:1;"/>
	<path fill-rule="evenodd" clip-rule="evenodd" d="M39.784 14.8528H28.9133C26.7418 14.8528 24.9814 13.0924 24.9814 10.9209V0.050293H9.25372C6.69897 0.050293 4.62793 2.12133 4.62793 4.67609V30.5805C4.62793 33.1353 6.69897 35.2063 9.25372 35.2063H35.1582C37.7129 35.2063 39.7839 33.1353 39.7839 30.5805L39.784 14.8528ZM9.51948 6.77851C8.92833 6.77851 8.44911 7.25773 8.44911 7.84887C8.44911 8.44002 8.92833 8.91924 9.51948 8.91924H20.0285C20.6197 8.91924 21.0989 8.44002 21.0989 7.84887C21.0989 7.25773 20.6197 6.77851 20.0285 6.77851H9.51948ZM9.51948 12.8115C8.92833 12.8115 8.44911 13.2907 8.44911 13.8819C8.44911 14.473 8.92833 14.9522 9.51948 14.9522H20.0285C20.6197 14.9522 21.0989 14.473 21.0989 13.8819C21.0989 13.2907 20.6197 12.8115 20.0285 12.8115H9.51948ZM26.5078 28.4399V21.6805H31.0567V22.8587H27.9603V24.4694H30.7547V25.6477H27.9603V28.4399H26.5078ZM19.635 28.4399H22.0705C22.7682 28.4399 23.3676 28.3046 23.8685 28.0339C24.3717 27.7633 24.7575 27.3749 25.0259 26.8689C25.2965 26.3628 25.4318 25.7577 25.4318 25.0536C25.4318 24.3517 25.2965 23.7488 25.0259 23.2449C24.7575 22.741 24.374 22.3549 23.8752 22.0864C23.3765 21.8158 22.7816 21.6805 22.0906 21.6805H19.635V28.4399ZM22.0101 27.2154H21.0876V22.9049H22.0134C22.4428 22.9049 22.804 22.9798 23.097 23.1294C23.3899 23.279 23.6102 23.5122 23.7578 23.8291C23.9077 24.1459 23.9826 24.5541 23.9826 25.0536C23.9826 25.5574 23.9077 25.9689 23.7578 26.288C23.6102 26.6048 23.3888 26.8391 23.0936 26.991C22.8007 27.1406 22.4395 27.2154 22.0101 27.2154ZM13.5187 28.4399V21.6805H16.2292C16.7503 21.6805 17.1942 21.7784 17.561 21.9742C17.9278 22.1679 18.2073 22.4374 18.3997 22.7829C18.5942 23.1261 18.6915 23.5222 18.6915 23.971C18.6915 24.4199 18.5931 24.816 18.3963 25.1592C18.1995 25.5025 17.9144 25.7698 17.5409 25.9613C17.1696 26.1527 16.7201 26.2484 16.1923 26.2484H14.9713V28.4399H13.5187ZM14.9713 22.8489V25.1031H15.9575C16.2371 25.1031 16.4674 25.0558 16.6486 24.9612C16.8319 24.8644 16.9684 24.7313 17.0578 24.5618C17.1495 24.3902 17.1954 24.1933 17.1954 23.971C17.1954 23.7466 17.1495 23.5508 17.0578 23.3836C16.9684 23.2141 16.8319 23.0832 16.6486 22.9908C16.4652 22.8962 16.2326 22.8489 15.9508 22.8489H14.9713Z" fill="#2A2D4C" style="fill:#2A2D4C;fill:color(display-p3 0.1647 0.1765 0.2980);fill-opacity:1;"/>
	<path d="M203.541 18.3837C203.814 17.6554 204.261 17.1091 204.883 16.745C205.521 16.3808 206.226 16.1987 207 16.1987V19.4762C206.105 19.37 205.301 19.552 204.587 20.0224C203.89 20.4928 203.541 21.2742 203.541 22.3667V27.8063H200.604V16.4263H203.541V18.3837Z" fill="#2A2D4C" style="fill:#2A2D4C;fill:color(display-p3 0.1647 0.1765 0.2980);fill-opacity:1;"/>
	<path d="M189.86 23.3228C190.255 24.7491 191.324 25.4623 193.069 25.4623C194.192 25.4623 195.042 25.0829 195.618 24.3243L197.986 25.6899C196.863 27.3134 195.209 28.1252 193.024 28.1252C191.142 28.1252 189.633 27.5562 188.495 26.4182C187.357 25.2802 186.788 23.8463 186.788 22.1165C186.788 20.402 187.349 18.9757 188.472 17.8377C189.595 16.6845 191.036 16.1079 192.796 16.1079C194.465 16.1079 195.838 16.6845 196.916 17.8377C198.008 18.9908 198.555 20.4171 198.555 22.1165C198.555 22.4959 198.517 22.898 198.441 23.3228H189.86ZM189.815 21.0468H195.618C195.452 20.273 195.103 19.6964 194.572 19.3171C194.056 18.9377 193.464 18.7481 192.796 18.7481C192.007 18.7481 191.355 18.9529 190.839 19.3626C190.323 19.7571 189.982 20.3185 189.815 21.0468Z" fill="#2A2D4C" style="fill:#2A2D4C;fill:color(display-p3 0.1647 0.1765 0.2980);fill-opacity:1;"/>
	<path d="M181.758 11.8745H184.694V27.8065H181.758V26.4637C180.893 27.5713 179.664 28.1251 178.071 28.1251C176.539 28.1251 175.226 27.5486 174.134 26.3954C173.056 25.227 172.518 23.8007 172.518 22.1165C172.518 20.4323 173.056 19.0136 174.134 17.8604C175.226 16.692 176.539 16.1079 178.071 16.1079C179.664 16.1079 180.893 16.6617 181.758 17.7694V11.8745ZM176.341 24.438C176.948 25.0298 177.707 25.3257 178.617 25.3257C179.528 25.3257 180.279 25.0298 180.871 24.438C181.462 23.8311 181.758 23.0573 181.758 22.1165C181.758 21.1758 181.462 20.4095 180.871 19.8178C180.279 19.2108 179.528 18.9074 178.617 18.9074C177.707 18.9074 176.948 19.2108 176.341 19.8178C175.75 20.4095 175.454 21.1758 175.454 22.1165C175.454 23.0573 175.75 23.8311 176.341 24.438Z" fill="#2A2D4C" style="fill:#2A2D4C;fill:color(display-p3 0.1647 0.1765 0.2980);fill-opacity:1;"/>
	<path d="M167.511 11.8745H170.447V27.8065H167.511V26.4637C166.646 27.5713 165.417 28.1251 163.824 28.1251C162.291 28.1251 160.979 27.5486 159.886 26.3954C158.809 25.227 158.271 23.8007 158.271 22.1165C158.271 20.4323 158.809 19.0136 159.886 17.8604C160.979 16.692 162.291 16.1079 163.824 16.1079C165.417 16.1079 166.646 16.6617 167.511 17.7694V11.8745ZM162.094 24.438C162.701 25.0298 163.46 25.3257 164.37 25.3257C165.281 25.3257 166.032 25.0298 166.623 24.438C167.215 23.8311 167.511 23.0573 167.511 22.1165C167.511 21.1758 167.215 20.4095 166.623 19.8178C166.032 19.2108 165.281 18.9074 164.37 18.9074C163.46 18.9074 162.701 19.2108 162.094 19.8178C161.502 20.4095 161.207 21.1758 161.207 22.1165C161.207 23.0573 161.502 23.8311 162.094 24.438Z" fill="#2A2D4C" style="fill:#2A2D4C;fill:color(display-p3 0.1647 0.1765 0.2980);fill-opacity:1;"/>
	<path d="M148.23 23.3228C148.624 24.7491 149.694 25.4623 151.439 25.4623C152.562 25.4623 153.412 25.0829 153.988 24.3243L156.355 25.6899C155.232 27.3134 153.578 28.1252 151.393 28.1252C149.512 28.1252 148.002 27.5562 146.864 26.4182C145.726 25.2802 145.157 23.8463 145.157 22.1165C145.157 20.402 145.719 18.9757 146.841 17.8377C147.964 16.6845 149.406 16.1079 151.166 16.1079C152.835 16.1079 154.208 16.6845 155.285 17.8377C156.378 18.9908 156.924 20.4171 156.924 22.1165C156.924 22.4959 156.886 22.898 156.81 23.3228H148.23ZM148.184 21.0468H153.988C153.821 20.273 153.472 19.6964 152.941 19.3171C152.425 18.9377 151.833 18.7481 151.166 18.7481C150.377 18.7481 149.724 18.9529 149.209 19.3626C148.693 19.7571 148.351 20.3185 148.184 21.0468Z" fill="#2A2D4C" style="fill:#2A2D4C;fill:color(display-p3 0.1647 0.1765 0.2980);fill-opacity:1;"/>
	<path d="M138.125 16.1079C139.658 16.1079 140.963 16.692 142.04 17.8604C143.132 19.0136 143.679 20.4323 143.679 22.1165C143.679 23.8007 143.132 25.227 142.04 26.3954C140.963 27.5486 139.658 28.1251 138.125 28.1251C136.532 28.1251 135.303 27.5713 134.438 26.4637V27.8065H131.502V11.8745H134.438V17.7694C135.303 16.6617 136.532 16.1079 138.125 16.1079ZM135.326 24.438C135.917 25.0298 136.668 25.3257 137.579 25.3257C138.489 25.3257 139.24 25.0298 139.832 24.438C140.439 23.8311 140.743 23.0573 140.743 22.1165C140.743 21.1758 140.439 20.4095 139.832 19.8178C139.24 19.2108 138.489 18.9074 137.579 18.9074C136.668 18.9074 135.917 19.2108 135.326 19.8178C134.734 20.4095 134.438 21.1758 134.438 22.1165C134.438 23.0573 134.734 23.8311 135.326 24.438Z" fill="#2A2D4C" style="fill:#2A2D4C;fill:color(display-p3 0.1647 0.1765 0.2980);fill-opacity:1;"/>
	<path d="M124.707 16.1079C126.012 16.1079 127.051 16.5328 127.825 17.3825C128.614 18.2322 129.009 19.3702 129.009 20.7965V27.8065H126.072V21.0013C126.072 20.3185 125.906 19.7874 125.572 19.4081C125.238 19.0288 124.768 18.8391 124.161 18.8391C123.493 18.8391 122.97 19.0591 122.59 19.4992C122.226 19.9392 122.044 20.5765 122.044 21.411V27.8065H119.108V21.0013C119.108 20.3185 118.941 19.7874 118.607 19.4081C118.273 19.0288 117.803 18.8391 117.196 18.8391C116.544 18.8391 116.02 19.0591 115.626 19.4992C115.246 19.9392 115.057 20.5765 115.057 21.411V27.8065H112.121V16.4266H115.057V17.6328C115.739 16.6162 116.794 16.1079 118.22 16.1079C119.616 16.1079 120.648 16.6542 121.316 17.7466C122.074 16.6542 123.205 16.1079 124.707 16.1079Z" fill="#2A2D4C" style="fill:#2A2D4C;fill:color(display-p3 0.1647 0.1765 0.2980);fill-opacity:1;"/>
	<path d="M103.329 24.8022H110.043V27.8065H100.188V11.8745H109.929V14.8788H103.329V18.2701H109.36V21.2289H103.329V24.8022Z" fill="#2A2D4C" style="fill:#2A2D4C;fill:color(display-p3 0.1647 0.1765 0.2980);fill-opacity:1;"/>
	<path d="M92.2095 14.8788H85.8367V18.657H92.0274V21.6613H85.8367V27.8065H82.6958V11.8745H92.2095V14.8788Z" fill="#2A2D4C" style="fill:#2A2D4C;fill:color(display-p3 0.1647 0.1765 0.2980);fill-opacity:1;"/>
	<path d="M72.7975 11.8745C74.9825 11.8745 76.8033 12.6408 78.2599 14.1733C79.7317 15.7058 80.4676 17.5949 80.4676 19.8405C80.4676 22.0862 79.7317 23.9752 78.2599 25.5077C76.8033 27.0403 74.9825 27.8065 72.7975 27.8065H66.4702V11.8745H72.7975ZM72.7975 24.8022C74.1783 24.8022 75.3011 24.347 76.166 23.4366C77.0309 22.511 77.4633 21.3123 77.4633 19.8405C77.4633 18.3687 77.0309 17.1776 76.166 16.2672C75.3011 15.3416 74.1783 14.8788 72.7975 14.8788H69.6111V24.8022H72.7975Z" fill="#2A2D4C" style="fill:#2A2D4C;fill:color(display-p3 0.1647 0.1765 0.2980);fill-opacity:1;"/>
	<path d="M58.9858 11.8745C60.5183 11.8745 61.808 12.3904 62.855 13.4222C63.9019 14.454 64.4254 15.721 64.4254 17.2231C64.4254 18.7253 63.9019 19.9922 62.855 21.024C61.808 22.0558 60.5183 22.5717 58.9858 22.5717H56.1863V27.8065H53.0454V11.8745H58.9858ZM58.9858 19.6357C59.6534 19.6357 60.2072 19.4081 60.6472 18.9529C61.0873 18.4825 61.3073 17.9059 61.3073 17.2231C61.3073 16.5251 61.0873 15.9486 60.6472 15.4934C60.2072 15.0382 59.6534 14.8106 58.9858 14.8106H56.1863V19.6357H58.9858Z" fill="#2A2D4C" style="fill:#2A2D4C;fill:color(display-p3 0.1647 0.1765 0.2980);fill-opacity:1;"/>
</svg>
