<svg width="460" height="56" viewBox="0 0 460 56" fill="none" xmlns="http://www.w3.org/2000/svg">
<rect width="56" height="56" rx="28" fill="#9EBC1B"/>
<path fill-rule="evenodd" clip-rule="evenodd" d="M29.7501 17C29.7501 14.9289 31.429 13.25 33.5001 13.25H39.0001C41.0712 13.25 42.7501 14.9289 42.7501 17V22.5C42.7501 24.5711 41.0712 26.25 39.0001 26.25H33.5001C31.429 26.25 29.7501 24.5711 29.7501 22.5V17ZM33.5001 15.25C32.5336 15.25 31.7501 16.0335 31.7501 17V22.5C31.7501 23.4665 32.5336 24.25 33.5001 24.25H39.0001C39.9666 24.25 40.7501 23.4665 40.7501 22.5V17C40.7501 16.0335 39.9666 15.25 39.0001 15.25H33.5001ZM17 13.25C14.9289 13.25 13.25 14.9289 13.25 17V22.5C13.25 24.5711 14.9289 26.25 17 26.25H22.5C24.5711 26.25 26.25 24.5711 26.25 22.5V17C26.25 14.9289 24.5711 13.25 22.5 13.25H17ZM15.25 17C15.25 16.0335 16.0335 15.25 17 15.25H22.5C23.4665 15.25 24.25 16.0335 24.25 17V22.5C24.25 23.4665 23.4665 24.25 22.5 24.25H17C16.0335 24.25 15.25 23.4665 15.25 22.5V17ZM17.0001 29.75C14.929 29.75 13.2501 31.4289 13.2501 33.5V39C13.2501 41.0711 14.929 42.75 17.0001 42.75H22.5001C24.5712 42.75 26.2501 41.0711 26.2501 39V33.5C26.2501 31.4289 24.5712 29.75 22.5001 29.75H17.0001ZM15.2501 33.5C15.2501 32.5335 16.0336 31.75 17.0001 31.75H22.5001C23.4666 31.75 24.2501 32.5335 24.2501 33.5V39C24.2501 39.9665 23.4666 40.75 22.5001 40.75H17.0001C16.0336 40.75 15.2501 39.9665 15.2501 39V33.5ZM33.5001 29.75C31.429 29.75 29.7501 31.4289 29.7501 33.5V39C29.7501 41.0711 31.429 42.75 33.5001 42.75H39.0001C41.0712 42.75 42.7501 41.0711 42.7501 39V33.5C42.7501 31.4289 41.0712 29.75 39.0001 29.75H33.5001ZM31.7501 33.5C31.7501 32.5335 32.5336 31.75 33.5001 31.75H39.0001C39.9666 31.75 40.7501 32.5335 40.7501 33.5V39C40.7501 39.9665 39.9666 40.75 39.0001 40.75H33.5001C32.5336 40.75 31.7501 39.9665 31.7501 39V33.5Z" fill="white"/>
<path d="M439.617 49.535C440.067 49.595 440.502 49.655 440.922 49.715C441.372 49.805 441.732 49.85 442.002 49.85C442.512 49.85 442.947 49.685 443.307 49.355C443.697 49.055 444.087 48.485 444.477 47.645C444.867 46.805 445.347 45.59 445.917 44L436.242 20.465H441.417L448.617 38.96L455.007 20.465H459.777L449.112 49.445C448.782 50.315 448.302 51.11 447.672 51.83C447.042 52.58 446.262 53.165 445.332 53.585C444.402 54.005 443.307 54.215 442.047 54.215C441.687 54.215 441.312 54.185 440.922 54.125C440.532 54.065 440.097 53.975 439.617 53.855V49.535Z" fill="#383838"/>
<path d="M433.406 24.74C431.486 24.77 429.776 25.205 428.276 26.045C426.806 26.885 425.756 28.07 425.126 29.6V44H420.176V20.465H424.766V25.73C425.576 24.11 426.641 22.82 427.961 21.86C429.281 20.87 430.676 20.33 432.146 20.24C432.446 20.24 432.686 20.24 432.866 20.24C433.076 20.24 433.256 20.255 433.406 20.285V24.74Z" fill="#383838"/>
<path d="M401.279 44.45C399.449 44.45 397.784 44.135 396.284 43.505C394.814 42.845 393.538 41.96 392.458 40.85C391.378 39.71 390.539 38.42 389.939 36.98C389.369 35.51 389.083 33.95 389.083 32.3C389.083 30.08 389.593 28.055 390.613 26.225C391.633 24.365 393.058 22.88 394.888 21.77C396.718 20.63 398.863 20.06 401.323 20.06C403.783 20.06 405.898 20.63 407.668 21.77C409.468 22.88 410.863 24.35 411.853 26.18C412.843 28.01 413.339 29.975 413.339 32.075C413.339 32.435 413.323 32.78 413.293 33.11C413.263 33.41 413.233 33.665 413.203 33.875H394.348C394.438 35.255 394.813 36.47 395.473 37.52C396.163 38.54 397.033 39.35 398.083 39.95C399.133 40.52 400.258 40.805 401.458 40.805C402.778 40.805 404.023 40.475 405.193 39.815C406.393 39.155 407.204 38.285 407.624 37.205L411.853 38.42C411.343 39.56 410.563 40.595 409.513 41.525C408.493 42.425 407.278 43.145 405.868 43.685C404.458 44.195 402.929 44.45 401.279 44.45ZM394.214 30.59H408.434C408.344 29.24 407.953 28.055 407.263 27.035C406.603 25.985 405.748 25.175 404.698 24.605C403.678 24.005 402.539 23.705 401.279 23.705C400.049 23.705 398.908 24.005 397.858 24.605C396.838 25.175 395.999 25.985 395.339 27.035C394.679 28.055 394.304 29.24 394.214 30.59Z" fill="#383838"/>
<path d="M335.033 37.115C335.033 35.615 335.453 34.31 336.293 33.2C337.163 32.06 338.348 31.19 339.848 30.59C341.348 29.96 343.088 29.645 345.068 29.645C346.118 29.645 347.183 29.72 348.263 29.87C349.373 30.02 350.348 30.26 351.188 30.59V29.105C351.188 27.455 350.693 26.165 349.703 25.235C348.713 24.305 347.288 23.84 345.428 23.84C344.108 23.84 342.863 24.08 341.693 24.56C340.523 25.01 339.278 25.655 337.958 26.495L336.293 23.165C337.853 22.115 339.413 21.335 340.973 20.825C342.563 20.315 344.228 20.06 345.968 20.06C349.118 20.06 351.593 20.9 353.393 22.58C355.223 24.23 356.138 26.585 356.138 29.645V38.42C356.138 38.99 356.228 39.395 356.408 39.635C356.618 39.875 356.963 40.01 357.443 40.04V44C356.993 44.09 356.588 44.15 356.228 44.18C355.868 44.21 355.568 44.225 355.328 44.225C354.278 44.225 353.483 43.97 352.943 43.46C352.403 42.95 352.088 42.35 351.998 41.66L351.863 40.31C350.843 41.63 349.538 42.65 347.948 43.37C346.358 44.09 344.753 44.45 343.133 44.45C341.573 44.45 340.178 44.135 338.948 43.505C337.718 42.845 336.758 41.96 336.068 40.85C335.378 39.74 335.033 38.495 335.033 37.115ZM350.018 38.555C350.378 38.165 350.663 37.775 350.873 37.385C351.083 36.995 351.188 36.65 351.188 36.35V33.65C350.348 33.32 349.463 33.08 348.533 32.93C347.603 32.75 346.688 32.66 345.788 32.66C343.988 32.66 342.518 33.02 341.378 33.74C340.268 34.46 339.713 35.45 339.713 36.71C339.713 37.4 339.893 38.06 340.253 38.69C340.643 39.32 341.183 39.83 341.873 40.22C342.593 40.61 343.478 40.805 344.528 40.805C345.608 40.805 346.643 40.595 347.633 40.175C348.623 39.755 349.418 39.215 350.018 38.555Z" fill="#383838"/>
<path d="M316.515 44C314.128 44 311.896 43.6011 309.819 42.8034C307.743 41.9829 305.917 40.8547 304.341 39.4188C302.79 37.9601 301.572 36.2621 300.689 34.3248C299.83 32.3875 299.4 30.2906 299.4 28.0342C299.4 25.7778 299.83 23.6809 300.689 21.7436C301.572 19.8063 302.79 18.1083 304.341 16.6496C305.917 15.1909 307.731 14.0513 309.784 13.2308C311.86 12.4103 314.092 12 316.479 12C318.723 12 320.824 12.3647 322.781 13.094C324.068 13.5736 325.257 14.1813 326.348 14.9172L323.41 18.9029C323.085 18.6752 322.744 18.4597 322.387 18.2564C320.668 17.2536 318.699 16.7521 316.479 16.7521C314.283 16.7521 312.314 17.2536 310.571 18.2564C308.829 19.2593 307.444 20.6154 306.418 22.3248C305.391 24.0114 304.878 25.9145 304.878 28.0342C304.878 30.1538 305.379 32.0684 306.382 33.7778C307.408 35.4644 308.793 36.8091 310.535 37.812C312.302 38.8148 314.271 39.3162 316.443 39.3162C317.589 39.3162 318.675 39.1909 319.702 38.9402C320.728 38.6895 321.659 38.3362 322.495 37.8803V27.5641H327.4V40.8205C325.944 41.8462 324.273 42.6325 322.387 43.1795C320.525 43.7265 318.568 44 316.515 44Z" fill="#383838"/>
<path d="M256.054 21.41V44H251.014V12.05H255.154L273.244 35.135V12.095H278.329V44H273.919L256.054 21.41Z" fill="#383838"/>
<path d="M242.015 39.545V44H220.1V12.05H241.61V16.505H225.14V25.595H239.405V29.78H225.14V39.545H242.015Z" fill="#383838"/>
<path d="M199.515 44C197.128 44 194.896 43.6011 192.819 42.8034C190.743 41.9829 188.917 40.8547 187.341 39.4188C185.79 37.9601 184.572 36.2621 183.689 34.3248C182.83 32.3875 182.4 30.2906 182.4 28.0342C182.4 25.7778 182.83 23.6809 183.689 21.7436C184.572 19.8063 185.79 18.1083 187.341 16.6496C188.917 15.1909 190.731 14.0513 192.784 13.2308C194.86 12.4103 197.092 12 199.479 12C201.723 12 203.824 12.3647 205.781 13.094C207.068 13.5736 208.257 14.1813 209.348 14.9172L206.41 18.9029C206.085 18.6752 205.744 18.4597 205.387 18.2564C203.668 17.2536 201.699 16.7521 199.479 16.7521C197.283 16.7521 195.314 17.2536 193.571 18.2564C191.829 19.2593 190.444 20.6154 189.418 22.3248C188.391 24.0114 187.878 25.9145 187.878 28.0342C187.878 30.1538 188.379 32.0684 189.382 33.7778C190.408 35.4644 191.793 36.8091 193.535 37.812C195.302 38.8148 197.271 39.3162 199.443 39.3162C200.589 39.3162 201.675 39.1909 202.702 38.9402C203.728 38.6895 204.659 38.3362 205.495 37.8803V27.5641H210.4V40.8205C208.944 41.8462 207.273 42.6325 205.387 43.1795C203.525 43.7265 201.568 44 199.515 44Z" fill="#383838"/>
<path d="M177.361 42.785C176.941 42.995 176.416 43.22 175.786 43.46C175.156 43.7 174.436 43.91 173.626 44.09C172.846 44.27 172.036 44.36 171.196 44.36C170.176 44.36 169.231 44.18 168.361 43.82C167.491 43.46 166.786 42.89 166.246 42.11C165.736 41.3 165.481 40.265 165.481 39.005V24.29H162.376V20.465H165.481V12.725H170.431V20.465H175.561V24.29H170.431V37.43C170.491 38.24 170.746 38.84 171.196 39.23C171.676 39.62 172.261 39.815 172.951 39.815C173.641 39.815 174.301 39.695 174.931 39.455C175.561 39.215 176.026 39.02 176.326 38.87L177.361 42.785Z" fill="#383838"/>
<path d="M141.745 20.465L147.325 28.52L147.73 29.285L148.135 28.52L153.67 20.465H159.025L150.565 32.255L159.115 44H153.76L148.135 35.99L147.73 35.27L147.325 35.99L141.7 44H136.345L144.895 32.3L136.435 20.465H141.745Z" fill="#383838"/>
<path d="M120.937 44.45C119.107 44.45 117.442 44.135 115.942 43.505C114.472 42.845 113.197 41.96 112.117 40.85C111.037 39.71 110.197 38.42 109.597 36.98C109.027 35.51 108.742 33.95 108.742 32.3C108.742 30.08 109.252 28.055 110.272 26.225C111.292 24.365 112.717 22.88 114.547 21.77C116.377 20.63 118.522 20.06 120.982 20.06C123.442 20.06 125.557 20.63 127.327 21.77C129.127 22.88 130.522 24.35 131.512 26.18C132.502 28.01 132.997 29.975 132.997 32.075C132.997 32.435 132.982 32.78 132.952 33.11C132.922 33.41 132.892 33.665 132.862 33.875H114.007C114.097 35.255 114.472 36.47 115.132 37.52C115.822 38.54 116.692 39.35 117.742 39.95C118.792 40.52 119.917 40.805 121.117 40.805C122.437 40.805 123.682 40.475 124.852 39.815C126.052 39.155 126.862 38.285 127.282 37.205L131.512 38.42C131.002 39.56 130.222 40.595 129.172 41.525C128.152 42.425 126.937 43.145 125.527 43.685C124.117 44.195 122.587 44.45 120.937 44.45ZM113.872 30.59H128.092C128.002 29.24 127.612 28.055 126.922 27.035C126.262 25.985 125.407 25.175 124.357 24.605C123.337 24.005 122.197 23.705 120.937 23.705C119.707 23.705 118.567 24.005 117.517 24.605C116.497 25.175 115.657 25.985 114.997 27.035C114.337 28.055 113.962 29.24 113.872 30.59Z" fill="#383838"/>
<path d="M80.04 21.41V44H75V12.05H79.14L97.23 35.135V12.095H102.315V44H97.905L80.04 21.41Z" fill="#383838"/>
<rect x="364.4" y="11" width="5" height="33" fill="#383838"/>
<rect x="376.4" y="11" width="5" height="33" fill="#383838"/>
</svg>
